<svg xmlns="http://www.w3.org/2000/svg" width="149.591" height="141.114" viewBox="0 0 149.591 141.114">
  <g id="Group_12230" data-name="Group 12230" transform="translate(-378.445 -623.217)">
    <path id="Path_46031" data-name="Path 46031" d="M454.458,632.782a2.78,2.78,0,0,1,2.772,2.991l-1.2,15.775h-1.876l-1.064,13.48h-4.962l-1.064-13.48h-1.876l-1.2-15.775a2.78,2.78,0,0,1,2.772-2.991h3.125l-.631,9.383,1.356,2.985,1.355-2.985-.631-9.383Zm-.86-6.577a2.989,2.989,0,0,0-5.978,0V628a2.989,2.989,0,0,0,5.978,0Z" transform="translate(2.968)" fill="#de5987"/>
    <g id="Group_12227" data-name="Group 12227" transform="translate(378.445 739.244)">
      <path id="Path_46032" data-name="Path 46032" d="M384.215,736.01a1.793,1.793,0,0,0-3.586,0v1.077a1.793,1.793,0,0,0,3.586,0Zm.516,3.946a1.667,1.667,0,0,1,1.663,1.795l-.719,9.465h-1.126l-.639,8.088h-2.977l-.639-8.088h-1.126l-.72-9.465a1.668,1.668,0,0,1,1.664-1.795h1.875l-.379,5.63.813,1.792.813-1.792-.379-5.63Z" transform="translate(-378.445 -734.217)" fill="#39cade"/>
      <path id="Path_46033" data-name="Path 46033" d="M393.249,736.01a1.793,1.793,0,0,0-3.586,0v1.077a1.793,1.793,0,0,0,3.586,0Zm.516,3.946a1.668,1.668,0,0,1,1.663,1.795l-.72,9.465h-1.126l-.638,8.088h-2.978l-.638-8.088H388.2l-.719-9.465a1.668,1.668,0,0,1,1.663-1.795h1.875l-.379,5.63.813,1.792.813-1.792-.378-5.63Z" transform="translate(-378.035 -734.217)" fill="#39cade"/>
      <path id="Path_46034" data-name="Path 46034" d="M402.282,736.01a1.793,1.793,0,0,0-3.586,0v1.077a1.793,1.793,0,0,0,3.586,0Zm.516,3.946a1.668,1.668,0,0,1,1.663,1.795l-.719,9.465h-1.127l-.638,8.088H399l-.638-8.088h-1.126l-.72-9.465a1.668,1.668,0,0,1,1.663-1.795h1.875l-.379,5.63.814,1.792.813-1.792-.379-5.63Z" transform="translate(-377.626 -734.217)" fill="#39cade"/>
      <path id="Path_46035" data-name="Path 46035" d="M411.315,736.01a1.793,1.793,0,0,0-3.586,0v1.077a1.793,1.793,0,0,0,3.586,0Zm.516,3.946a1.667,1.667,0,0,1,1.663,1.795l-.719,9.465H411.65l-.639,8.088h-2.977l-.639-8.088h-1.126l-.72-9.465a1.668,1.668,0,0,1,1.664-1.795h1.875l-.379,5.63.813,1.792.813-1.792-.379-5.63Z" transform="translate(-377.217 -734.217)" fill="#39cade"/>
      <path id="Path_46036" data-name="Path 46036" d="M420.349,736.01a1.793,1.793,0,0,0-3.586,0v1.077a1.793,1.793,0,0,0,3.586,0Zm.516,3.946a1.668,1.668,0,0,1,1.663,1.795l-.72,9.465h-1.126l-.638,8.088h-2.978l-.638-8.088H415.3l-.719-9.465a1.668,1.668,0,0,1,1.663-1.795h1.875l-.379,5.63.813,1.792.813-1.792-.378-5.63Z" transform="translate(-376.808 -734.217)" fill="#39cade"/>
      <path id="Path_46037" data-name="Path 46037" d="M429.382,736.01a1.793,1.793,0,0,0-3.586,0v1.077a1.793,1.793,0,0,0,3.586,0Zm.516,3.946a1.668,1.668,0,0,1,1.663,1.795l-.719,9.465h-1.127l-.638,8.088H426.1l-.638-8.088h-1.126l-.72-9.465a1.668,1.668,0,0,1,1.663-1.795h1.875l-.379,5.63.814,1.792.813-1.792-.379-5.63Z" transform="translate(-376.399 -734.217)" fill="#39cade"/>
      <path id="Path_46038" data-name="Path 46038" d="M438.415,736.01a1.793,1.793,0,0,0-3.586,0v1.077a1.793,1.793,0,0,0,3.586,0Zm.516,3.946a1.667,1.667,0,0,1,1.663,1.795l-.719,9.465h-1.126l-.639,8.088h-2.977l-.639-8.088h-1.126l-.72-9.465a1.668,1.668,0,0,1,1.664-1.795h1.875l-.379,5.63.813,1.792.813-1.792-.379-5.63Z" transform="translate(-375.99 -734.217)" fill="#39cade"/>
      <path id="Path_46039" data-name="Path 46039" d="M447.449,736.01a1.793,1.793,0,0,0-3.586,0v1.077a1.793,1.793,0,0,0,3.586,0Zm.516,3.946a1.668,1.668,0,0,1,1.663,1.795l-.72,9.465h-1.126l-.638,8.088h-2.978l-.638-8.088H442.4l-.719-9.465a1.668,1.668,0,0,1,1.663-1.795h1.875l-.379,5.63.813,1.792.813-1.792-.378-5.63Z" transform="translate(-375.581 -734.217)" fill="#39cade"/>
      <path id="Path_46040" data-name="Path 46040" d="M456.482,736.01a1.793,1.793,0,0,0-3.586,0v1.077a1.793,1.793,0,0,0,3.586,0Zm.516,3.946a1.668,1.668,0,0,1,1.663,1.795l-.719,9.465h-1.127l-.638,8.088H453.2l-.638-8.088h-1.126l-.72-9.465a1.668,1.668,0,0,1,1.663-1.795h1.875l-.379,5.63.814,1.792.813-1.792-.379-5.63Z" transform="translate(-375.172 -734.217)" fill="#39cade"/>
      <path id="Path_46041" data-name="Path 46041" d="M465.515,736.01a1.793,1.793,0,0,0-3.586,0v1.077a1.793,1.793,0,0,0,3.586,0Zm.516,3.946a1.667,1.667,0,0,1,1.663,1.795l-.719,9.465h-1.126l-.639,8.088h-2.977l-.639-8.088h-1.126l-.72-9.465a1.668,1.668,0,0,1,1.664-1.795h1.875l-.379,5.63.813,1.792.813-1.792-.379-5.63Z" transform="translate(-374.763 -734.217)" fill="#39cade"/>
      <path id="Path_46042" data-name="Path 46042" d="M474.549,736.01a1.793,1.793,0,0,0-3.586,0v1.077a1.793,1.793,0,0,0,3.586,0Zm.516,3.946a1.668,1.668,0,0,1,1.663,1.795l-.72,9.465h-1.126l-.638,8.088h-2.978l-.638-8.088H469.5l-.719-9.465a1.668,1.668,0,0,1,1.663-1.795h1.875l-.379,5.63.813,1.792.813-1.792-.378-5.63Z" transform="translate(-374.354 -734.217)" fill="#39cade"/>
      <path id="Path_46043" data-name="Path 46043" d="M483.582,736.01a1.793,1.793,0,0,0-3.586,0v1.077a1.793,1.793,0,0,0,3.586,0Zm.516,3.946a1.668,1.668,0,0,1,1.663,1.795l-.719,9.465h-1.127l-.638,8.088H480.3l-.638-8.088h-1.126l-.72-9.465a1.668,1.668,0,0,1,1.663-1.795h1.875l-.379,5.63.814,1.792.813-1.792-.379-5.63Z" transform="translate(-373.945 -734.217)" fill="#39cade"/>
      <path id="Path_46044" data-name="Path 46044" d="M492.615,736.01a1.793,1.793,0,0,0-3.586,0v1.077a1.793,1.793,0,0,0,3.586,0Zm.516,3.946a1.667,1.667,0,0,1,1.663,1.795l-.719,9.465H492.95l-.639,8.088h-2.977l-.639-8.088h-1.126l-.72-9.465a1.668,1.668,0,0,1,1.664-1.795h1.875l-.379,5.63.813,1.792.813-1.792-.379-5.63Z" transform="translate(-373.535 -734.217)" fill="#39cade"/>
      <path id="Path_46045" data-name="Path 46045" d="M501.649,736.01a1.793,1.793,0,0,0-3.586,0v1.077a1.793,1.793,0,0,0,3.586,0Zm.516,3.946a1.668,1.668,0,0,1,1.663,1.795l-.72,9.465h-1.126l-.638,8.088h-2.978l-.638-8.088H496.6l-.719-9.465a1.668,1.668,0,0,1,1.663-1.795h1.875l-.379,5.63.813,1.792.813-1.792-.378-5.63Z" transform="translate(-373.126 -734.217)" fill="#39cade"/>
      <path id="Path_46046" data-name="Path 46046" d="M510.682,736.01a1.793,1.793,0,0,0-3.586,0v1.077a1.793,1.793,0,0,0,3.586,0Zm.516,3.946a1.669,1.669,0,0,1,1.663,1.795l-.719,9.465h-1.127l-.638,8.088H507.4l-.638-8.088h-1.126l-.72-9.465a1.669,1.669,0,0,1,1.663-1.795h1.875l-.379,5.63.814,1.792.813-1.792-.379-5.63Z" transform="translate(-372.717 -734.217)" fill="#39cade"/>
      <path id="Path_46047" data-name="Path 46047" d="M519.715,736.01a1.793,1.793,0,0,0-3.586,0v1.077a1.793,1.793,0,0,0,3.586,0Zm.516,3.946a1.667,1.667,0,0,1,1.663,1.795l-.719,9.465h-1.126l-.639,8.088h-2.977l-.639-8.088h-1.126l-.72-9.465a1.668,1.668,0,0,1,1.664-1.795h1.875l-.379,5.63.813,1.792.813-1.792-.38-5.63Z" transform="translate(-372.308 -734.217)" fill="#39cade"/>
    </g>
    <g id="Group_12228" data-name="Group 12228" transform="translate(418.277 667.119)">
      <path id="Path_46048" data-name="Path 46048" d="M424.967,667.832a2.615,2.615,0,1,0-5.23,0V669.4a2.615,2.615,0,1,0,5.23,0Zm.753,5.754a2.433,2.433,0,0,1,2.426,2.617l-1.049,13.8h-1.642l-.93,11.795h-4.342l-.931-11.795h-1.642l-1.049-13.8a2.433,2.433,0,0,1,2.426-2.617h2.734l-.553,8.21,1.186,2.612,1.185-2.612-.553-8.21Z" transform="translate(-416.551 -665.217)" fill="#39cade"/>
      <path id="Path_46049" data-name="Path 46049" d="M439.191,667.832a2.615,2.615,0,1,0-5.231,0V669.4a2.615,2.615,0,1,0,5.231,0Zm.753,5.754a2.431,2.431,0,0,1,2.425,2.617l-1.049,13.8h-1.642l-.93,11.795H434.4l-.93-11.795h-1.642l-1.051-13.8a2.433,2.433,0,0,1,2.426-2.617h2.734l-.553,8.21,1.186,2.612,1.186-2.612-.554-8.21Z" transform="translate(-415.907 -665.217)" fill="#39cade"/>
      <path id="Path_46050" data-name="Path 46050" d="M453.414,667.832a2.615,2.615,0,1,0-5.231,0V669.4a2.615,2.615,0,1,0,5.231,0Zm.753,5.754a2.431,2.431,0,0,1,2.425,2.617l-1.049,13.8H453.9l-.93,11.795h-4.342l-.93-11.795h-1.642l-1.049-13.8a2.431,2.431,0,0,1,2.425-2.617h2.734l-.553,8.21,1.186,2.612,1.186-2.612-.553-8.21Z" transform="translate(-415.263 -665.217)" fill="#39cade"/>
      <path id="Path_46051" data-name="Path 46051" d="M467.637,667.832a2.615,2.615,0,1,0-5.231,0V669.4a2.615,2.615,0,1,0,5.231,0Zm.753,5.754a2.433,2.433,0,0,1,2.426,2.617l-1.051,13.8h-1.642l-.93,11.795H462.85l-.93-11.795h-1.642l-1.049-13.8a2.431,2.431,0,0,1,2.425-2.617h2.736l-.554,8.21,1.186,2.612,1.186-2.612-.553-8.21Z" transform="translate(-414.619 -665.217)" fill="#39cade"/>
      <path id="Path_46052" data-name="Path 46052" d="M481.86,667.832a2.615,2.615,0,1,0-5.23,0V669.4a2.615,2.615,0,1,0,5.23,0Zm.753,5.754a2.433,2.433,0,0,1,2.426,2.617l-1.049,13.8h-1.642l-.931,11.795h-4.342l-.93-11.795H474.5l-1.049-13.8a2.433,2.433,0,0,1,2.426-2.617h2.734l-.553,8.21,1.185,2.612,1.186-2.612-.553-8.21Z" transform="translate(-413.975 -665.217)" fill="#39cade"/>
    </g>
    <g id="Group_12229" data-name="Group 12229" transform="translate(396.648 705.543)">
      <path id="Path_46053" data-name="Path 46053" d="M403.073,704.218a2.242,2.242,0,1,0-4.483,0v1.344a2.242,2.242,0,1,0,4.483,0Zm.645,4.933a2.084,2.084,0,0,1,2.079,2.243l-.9,11.832H403.49l-.8,10.109H398.97l-.8-10.109h-1.407l-.9-11.832a2.084,2.084,0,0,1,2.079-2.243h2.344l-.474,7.037,1.016,2.239,1.017-2.239-.475-7.037Z" transform="translate(-395.859 -701.976)" fill="#de5987"/>
      <path id="Path_46054" data-name="Path 46054" d="M411.046,705.562a2.241,2.241,0,1,0,4.482,0v-1.344a2.241,2.241,0,1,0-4.482,0Zm5.128,3.589a2.084,2.084,0,0,1,2.079,2.243l-.9,11.832h-1.408l-.8,10.109h-3.721l-.8-10.109h-1.408l-.9-11.832a2.084,2.084,0,0,1,2.079-2.243h2.345l-.475,7.037,1.017,2.239,1.017-2.239-.475-7.037Z" transform="translate(-395.295 -701.976)" fill="#de5987"/>
      <path id="Path_46055" data-name="Path 46055" d="M423.5,705.562a2.242,2.242,0,1,0,4.483,0v-1.344a2.242,2.242,0,1,0-4.483,0Zm5.128,3.589a2.084,2.084,0,0,1,2.079,2.243l-.9,11.832H428.4l-.8,10.109h-3.722l-.8-10.109h-1.407l-.9-11.832a2.084,2.084,0,0,1,2.079-2.243H425.2l-.475,7.037,1.017,2.239,1.016-2.239-.474-7.037Z" transform="translate(-394.731 -701.976)" fill="#de5987"/>
      <path id="Path_46056" data-name="Path 46056" d="M435.959,705.562a2.242,2.242,0,1,0,4.483,0v-1.344a2.242,2.242,0,1,0-4.483,0Zm5.128,3.589a2.084,2.084,0,0,1,2.079,2.243l-.9,11.832H440.86l-.8,10.109H436.34l-.8-10.109h-1.408l-.9-11.832a2.084,2.084,0,0,1,2.079-2.243h2.344l-.474,7.037,1.016,2.239,1.017-2.239-.475-7.037Z" transform="translate(-394.167 -701.976)" fill="#de5987"/>
      <path id="Path_46057" data-name="Path 46057" d="M448.415,705.562a2.242,2.242,0,1,0,4.483,0v-1.344a2.242,2.242,0,1,0-4.483,0Zm5.128,3.589a2.084,2.084,0,0,1,2.079,2.243l-.9,11.832h-1.408l-.8,10.109H448.8l-.8-10.109h-1.407l-.9-11.832a2.084,2.084,0,0,1,2.079-2.243h2.345l-.475,7.037,1.017,2.239,1.016-2.239-.474-7.037Z" transform="translate(-393.603 -701.976)" fill="#de5987"/>
      <path id="Path_46058" data-name="Path 46058" d="M460.872,705.562a2.242,2.242,0,1,0,4.483,0v-1.344a2.242,2.242,0,1,0-4.483,0ZM466,709.151a2.084,2.084,0,0,1,2.079,2.243l-.9,11.832h-1.407l-.8,10.109h-3.722l-.8-10.109h-1.408l-.9-11.832a2.084,2.084,0,0,1,2.079-2.243h2.344l-.474,7.037,1.016,2.239,1.017-2.239-.475-7.037Z" transform="translate(-393.039 -701.976)" fill="#de5987"/>
      <path id="Path_46059" data-name="Path 46059" d="M473.329,705.562a2.241,2.241,0,1,0,4.482,0v-1.344a2.241,2.241,0,1,0-4.482,0Zm5.128,3.589a2.084,2.084,0,0,1,2.079,2.243l-.9,11.832h-1.408l-.8,10.109H473.71l-.8-10.109H471.5l-.9-11.832a2.084,2.084,0,0,1,2.079-2.243h2.345l-.475,7.037,1.017,2.239,1.017-2.239-.475-7.037Z" transform="translate(-392.475 -701.976)" fill="#de5987"/>
      <path id="Path_46060" data-name="Path 46060" d="M485.785,705.562a2.242,2.242,0,1,0,4.483,0v-1.344a2.242,2.242,0,1,0-4.483,0Zm5.128,3.589a2.084,2.084,0,0,1,2.079,2.243l-.9,11.832h-1.407l-.8,10.109h-3.722l-.8-10.109h-1.407l-.9-11.832a2.084,2.084,0,0,1,2.079-2.243h2.344l-.474,7.037,1.017,2.239,1.016-2.239-.474-7.037Z" transform="translate(-391.91 -701.976)" fill="#de5987"/>
      <path id="Path_46061" data-name="Path 46061" d="M498.242,705.562a2.242,2.242,0,1,0,4.483,0v-1.344a2.242,2.242,0,1,0-4.483,0Zm1.7,3.589-.474,7.037,1.016,2.239,1.017-2.239-.475-7.037h2.345a2.084,2.084,0,0,1,2.079,2.243l-.9,11.832h-1.407l-.8,10.109h-3.722l-.8-10.109h-1.408l-.9-11.832a2.084,2.084,0,0,1,2.079-2.243Z" transform="translate(-391.346 -701.976)" fill="#de5987"/>
    </g>
  </g>
</svg>
