<svg xmlns="http://www.w3.org/2000/svg" width="137.878" height="135.394" viewBox="0 0 137.878 135.394">
  <g id="Group_12226" data-name="Group 12226" transform="translate(-169.752 -444.876)">
    <circle id="Ellipse_940" data-name="Ellipse 940" cx="32" cy="32" r="32" transform="translate(169.752 444.876)" fill="#595569"/>
    <path id="Path_46015" data-name="Path 46015" d="M180.629,452.2a31.919,31.919,0,0,1,52.264,24.594H200.975Z" transform="translate(0.696)" fill="#39cade"/>
    <circle id="Ellipse_941" data-name="Ellipse 941" cx="18.619" cy="18.619" r="18.619" transform="translate(183.052 458.175)" fill="#fff"/>
    <circle id="Ellipse_942" data-name="Ellipse 942" cx="31.918" cy="31.918" r="31.918" transform="translate(243.793 444.876)" fill="#595569"/>
    <path id="Path_46016" data-name="Path 46016" d="M279.209,446.337A31.932,31.932,0,0,1,301.261,476.7H269.343Z" transform="translate(6.368 0.093)" fill="#39cade"/>
    <circle id="Ellipse_943" data-name="Ellipse 943" cx="18.619" cy="18.619" r="18.619" transform="translate(257.092 458.175)" fill="#fff"/>
    <circle id="Ellipse_944" data-name="Ellipse 944" cx="31.918" cy="31.918" r="31.918" transform="translate(169.752 516.434)" fill="#595569"/>
    <path id="Path_46017" data-name="Path 46017" d="M187.562,572.691a31.921,31.921,0,1,1,46.026-28.639H201.67Z" transform="translate(0 4.301)" fill="#de5987"/>
    <circle id="Ellipse_945" data-name="Ellipse 945" cx="18.619" cy="18.619" r="18.619" transform="translate(183.052 529.733)" fill="#fff"/>
    <circle id="Ellipse_946" data-name="Ellipse 946" cx="31.918" cy="31.918" r="31.918" transform="translate(243.793 516.434)" fill="#595569"/>
    <path id="Path_46018" data-name="Path 46018" d="M269.343,512.133a31.918,31.918,0,0,1,31.918,31.918H269.343Z" transform="translate(6.368 4.301)" fill="#de5987"/>
    <circle id="Ellipse_947" data-name="Ellipse 947" cx="18.619" cy="18.619" r="18.619" transform="translate(257.092 529.733)" fill="#fff"/>
    <g id="Group_12225" data-name="Group 12225" transform="translate(192.55 470.183)">
      <g id="Group_12218" data-name="Group 12218" transform="translate(0.016)">
        <g id="Group_12217" data-name="Group 12217">
          <path id="Path_46019" data-name="Path 46019" d="M194.674,471.9c0-1.135-.351-1.442-.91-1.442s-.91.343-.91,1.244v.811H191.2v-.685c0-2.017.894-3.171,2.617-3.171s2.617,1.153,2.617,3.171v.324c0,1.351-.383,2.2-1.229,2.595.878.432,1.229,1.369,1.229,2.649v.991c0,2.019-.894,3.173-2.617,3.173s-2.617-1.153-2.617-3.173v-1.045h1.66v1.171c0,.9.351,1.243.91,1.243s.91-.305.91-1.424v-.991c0-1.171-.351-1.6-1.149-1.6h-.59v-1.8h.686c.654,0,1.053-.323,1.053-1.332Z" transform="translate(-191.195 -468.662)" fill="#595569"/>
          <path id="Path_46020" data-name="Path 46020" d="M198.743,477.338v1.171c0,.9.351,1.226.91,1.226s.909-.324.909-1.226v-2.775c0-.9-.351-1.244-.909-1.244s-.91.343-.91,1.244v.378h-1.66l.319-7.317h4.627v1.8h-3.047l-.145,3.009a1.639,1.639,0,0,1,1.532-.918c1.293,0,1.947,1.026,1.947,2.883v2.81c0,2.019-.893,3.173-2.617,3.173s-2.616-1.153-2.616-3.173v-1.045Z" transform="translate(-190.818 -468.653)" fill="#595569"/>
          <path id="Path_46021" data-name="Path 46021" d="M202.955,470.73c0-1.3.59-2.018,1.692-2.018s1.692.72,1.692,2.018v4.144c0,1.3-.59,2.019-1.692,2.019s-1.692-.721-1.692-2.019Zm1.117,4.234c0,.56.207.793.575.793.35,0,.575-.233.575-.793V470.64c0-.559-.225-.793-.575-.793-.367,0-.575.234-.575.793Zm4.979-6.163h1.037l-4.406,12.615h-1.036Zm-.559,6.542c0-1.3.589-2.018,1.691-2.018s1.692.72,1.692,2.018v4.144c0,1.3-.589,2.019-1.692,2.019s-1.691-.721-1.691-2.019Zm1.116,4.234c0,.56.207.793.575.793s.576-.233.576-.793v-4.325c0-.559-.223-.793-.576-.793s-.575.234-.575.793Z" transform="translate(-190.443 -468.659)" fill="#595569"/>
        </g>
      </g>
      <g id="Group_12220" data-name="Group 12220" transform="translate(74.837)">
        <g id="Group_12219" data-name="Group 12219">
          <path id="Path_46022" data-name="Path 46022" d="M264.087,470.463c-.559,0-.91.343-.91,1.244v1.351h-1.659v-1.226c0-2.017.893-3.171,2.616-3.171s2.617,1.153,2.617,3.171c0,3.965-3.5,5.442-3.5,7.515a1.54,1.54,0,0,0,.016.27h3.32v1.8h-5.074v-1.55c0-3.711,3.478-4.325,3.478-7.965C265,470.77,264.646,470.463,264.087,470.463Z" transform="translate(-261.519 -468.662)" fill="#595569"/>
          <path id="Path_46023" data-name="Path 46023" d="M267.332,471.833c0-2.017.942-3.171,2.665-3.171s2.665,1.153,2.665,3.171v6.559c0,2.019-.942,3.173-2.665,3.173s-2.665-1.153-2.665-3.173Zm1.756,6.686c0,.9.351,1.243.91,1.243s.91-.341.91-1.243v-6.811c0-.9-.351-1.244-.91-1.244s-.91.343-.91,1.244Z" transform="translate(-261.147 -468.662)" fill="#595569"/>
          <path id="Path_46024" data-name="Path 46024" d="M273.28,470.73c0-1.3.59-2.018,1.692-2.018s1.692.72,1.692,2.018v4.144c0,1.3-.59,2.019-1.692,2.019s-1.692-.721-1.692-2.019Zm1.117,4.234c0,.56.207.793.575.793.351,0,.575-.233.575-.793V470.64c0-.559-.223-.793-.575-.793-.367,0-.575.234-.575.793Zm4.979-6.163h1.037l-4.4,12.615h-1.037Zm-.559,6.542c0-1.3.591-2.018,1.692-2.018s1.692.72,1.692,2.018v4.144c0,1.3-.591,2.019-1.692,2.019s-1.692-.721-1.692-2.019Zm1.117,4.234c0,.56.206.793.575.793.351,0,.574-.233.574-.793v-4.325c0-.559-.223-.793-.574-.793-.368,0-.575.234-.575.793Z" transform="translate(-260.767 -468.659)" fill="#595569"/>
        </g>
      </g>
      <g id="Group_12222" data-name="Group 12222" transform="translate(0 70.929)">
        <g id="Group_12221" data-name="Group 12221">
          <path id="Path_46025" data-name="Path 46025" d="M191.18,538.607c0-2.126.862-3.279,2.681-3.279,1.724,0,2.617,1.153,2.617,3.172v.323h-1.66v-.45c0-.9-.351-1.243-.91-1.243-.622,0-.973.343-.973,1.549v2.308a1.664,1.664,0,0,1,1.628-1.118c1.293,0,1.947,1.027,1.947,2.883v2.307c0,2.018-.942,3.172-2.665,3.172s-2.665-1.153-2.665-3.172Zm1.756,4.307v2.272c0,.9.351,1.225.91,1.225s.91-.323.91-1.225v-2.272c0-.9-.351-1.243-.91-1.243S192.936,542.013,192.936,542.914Z" transform="translate(-191.18 -535.328)" fill="#595569"/>
          <path id="Path_46026" data-name="Path 46026" d="M199.711,537.13c-.559,0-.91.343-.91,1.243v1.352h-1.659V538.5c0-2.018.893-3.172,2.616-3.172s2.617,1.153,2.617,3.172c0,3.964-3.5,5.442-3.5,7.514a1.548,1.548,0,0,0,.016.271h3.32v1.8h-5.074v-1.55c0-3.711,3.478-4.324,3.478-7.964C200.621,537.437,200.27,537.13,199.711,537.13Z" transform="translate(-190.799 -535.328)" fill="#595569"/>
          <path id="Path_46027" data-name="Path 46027" d="M202.978,537.4c0-1.3.592-2.017,1.693-2.017s1.692.72,1.692,2.017v4.145c0,1.3-.592,2.018-1.692,2.018s-1.693-.72-1.693-2.018Zm1.118,4.236c0,.559.207.793.575.793.35,0,.573-.234.573-.793v-4.326c0-.557-.223-.793-.573-.793-.367,0-.575.235-.575.793Zm4.978-6.163h1.038l-4.406,12.614h-1.036Zm-.557,6.541c0-1.3.589-2.017,1.691-2.017s1.692.72,1.692,2.017v4.145c0,1.3-.589,2.018-1.692,2.018s-1.691-.72-1.691-2.018Zm1.116,4.236c0,.559.209.793.575.793s.575-.234.575-.793v-4.326c0-.558-.223-.793-.575-.793s-.575.235-.575.793Z" transform="translate(-190.426 -535.325)" fill="#595569"/>
        </g>
      </g>
      <g id="Group_12224" data-name="Group 12224" transform="translate(74.837 70.929)">
        <g id="Group_12223" data-name="Group 12223">
          <path id="Path_46028" data-name="Path 46028" d="M264.087,537.13c-.559,0-.91.343-.91,1.243v1.352h-1.659V538.5c0-2.018.893-3.172,2.616-3.172s2.617,1.153,2.617,3.172c0,3.964-3.5,5.442-3.5,7.514a1.551,1.551,0,0,0,.016.271h3.32v1.8h-5.074v-1.55c0-3.711,3.478-4.324,3.478-7.964C265,537.437,264.646,537.13,264.087,537.13Z" transform="translate(-261.519 -535.328)" fill="#595569"/>
          <path id="Path_46029" data-name="Path 46029" d="M268.947,544v1.172c0,.9.351,1.225.91,1.225s.91-.323.91-1.225V542.4c0-.9-.351-1.244-.91-1.244s-.91.344-.91,1.244v.379h-1.66l.319-7.317h4.628v1.8h-3.048l-.144,3.009a1.638,1.638,0,0,1,1.532-.918c1.293,0,1.947,1.027,1.947,2.883v2.811c0,2.018-.894,3.172-2.617,3.172s-2.617-1.153-2.617-3.172V544Z" transform="translate(-261.15 -535.319)" fill="#595569"/>
          <path id="Path_46030" data-name="Path 46030" d="M273.16,537.4c0-1.3.59-2.017,1.692-2.017s1.692.72,1.692,2.017v4.145c0,1.3-.591,2.018-1.692,2.018s-1.692-.72-1.692-2.018Zm1.117,4.236c0,.559.207.793.575.793.351,0,.575-.234.575-.793v-4.326c0-.557-.223-.793-.575-.793-.367,0-.575.235-.575.793Zm4.979-6.163h1.037l-4.4,12.614h-1.037Zm-.559,6.541c0-1.3.589-2.017,1.692-2.017s1.691.72,1.691,2.017v4.145c0,1.3-.589,2.018-1.691,2.018s-1.692-.72-1.692-2.018Zm1.117,4.236c0,.559.206.793.575.793.351,0,.575-.234.575-.793v-4.326c0-.558-.223-.793-.575-.793-.368,0-.575.235-.575.793Z" transform="translate(-260.775 -535.325)" fill="#595569"/>
        </g>
      </g>
    </g>
  </g>
</svg>
