<svg xmlns="http://www.w3.org/2000/svg" width="330.797" height="330.797" viewBox="0 0 330.797 330.797">
  <g id="Group_18144" data-name="Group 18144" transform="translate(-679.721 -286.76)">
    <circle id="Ellipse_1005" data-name="Ellipse 1005" cx="116.954" cy="116.954" r="116.954" transform="translate(679.721 452.159) rotate(-45)" fill="#b0ffef" opacity="0.3"/>
    <circle id="Ellipse_1006" data-name="Ellipse 1006" cx="104.279" cy="104.279" r="104.279" transform="translate(740.842 356.016)" fill="#f8d694"/>
    <g id="Group_18133" data-name="Group 18133" transform="translate(763.74 321.429)">
      <g id="Group_18132" data-name="Group 18132" transform="translate(0)">
        <path id="Path_46991" data-name="Path 46991" d="M1432.528,726.532h-.353a.869.869,0,0,1,0-1.738h.532a.869.869,0,0,1,0,1.738Zm7.153-.315a.869.869,0,0,1-.076-1.735l.344-.031a.869.869,0,1,1,.161,1.731l-.351.032C1439.732,726.216,1439.707,726.217,1439.681,726.217Zm-14.47-.015c-.026,0-.053,0-.079,0l-.351-.033a.869.869,0,1,1,.164-1.73l.344.032a.869.869,0,0,1-.077,1.734Zm21.73-.962a.869.869,0,0,1-.154-1.724l.34-.062a.869.869,0,0,1,.318,1.709l-.347.064A.862.862,0,0,1,1446.941,725.24Zm-28.989-.03a.873.873,0,0,1-.158-.014l-.347-.064a.869.869,0,0,1,.321-1.708l.34.063a.869.869,0,0,1-.156,1.724Zm36.13-1.607a.869.869,0,0,1-.232-1.706l.333-.093a.869.869,0,0,1,.473,1.672l-.34.1A.867.867,0,0,1,1454.083,723.6Zm-43.268-.044a.864.864,0,0,1-.235-.033l-.34-.1a.869.869,0,0,1,.476-1.672l.332.094a.869.869,0,0,1-.234,1.706Zm50.23-2.241a.869.869,0,0,1-.308-1.682l.322-.123a.869.869,0,0,1,.625,1.622l-.33.126A.868.868,0,0,1,1461.044,721.318Zm-57.187-.059a.865.865,0,0,1-.31-.057l-.332-.128a.869.869,0,0,1,.63-1.62l.322.124a.869.869,0,0,1-.31,1.681Zm63.908-2.853a.869.869,0,0,1-.384-1.649l.31-.152a.869.869,0,1,1,.77,1.558l-.314.155A.866.866,0,0,1,1467.765,718.406Zm-70.629-.076a.865.865,0,0,1-.382-.089l-.317-.156a.869.869,0,1,1,.772-1.557l.311.153a.869.869,0,0,1-.384,1.649Zm77.056-3.436a.869.869,0,0,1-.452-1.612l.295-.18a.869.869,0,1,1,.907,1.482l-.3.183A.864.864,0,0,1,1474.192,714.894Zm-83.481-.093a.863.863,0,0,1-.452-.127l-.3-.184a.869.869,0,0,1,.91-1.481l.3.181a.869.869,0,0,1-.453,1.611Zm89.564-3.989a.869.869,0,0,1-.516-1.569l.276-.2a.869.869,0,0,1,1.039,1.393l-.284.211A.865.865,0,0,1,1480.275,710.813Zm-95.641-.108a.866.866,0,0,1-.517-.171l-.283-.211a.869.869,0,0,1,1.042-1.391l.277.206a.869.869,0,0,1-.519,1.567Zm101.331-4.507a.869.869,0,0,1-.577-1.519l.257-.229a.869.869,0,0,1,1.16,1.294l-.264.235A.866.866,0,0,1,1485.965,706.2Zm-107.012-.123a.866.866,0,0,1-.578-.221l-.263-.236a.869.869,0,1,1,1.164-1.291l.256.23a.869.869,0,0,1-.579,1.517Zm112.263-4.987a.869.869,0,0,1-.634-1.463l.236-.253a.869.869,0,1,1,1.272,1.184l-.24.257A.866.866,0,0,1,1491.217,701.088Zm-117.5-.135a.866.866,0,0,1-.635-.275l-.241-.258a.869.869,0,1,1,1.275-1.181l.235.252a.869.869,0,0,1-.635,1.463Zm122.273-5.428a.869.869,0,0,1-.684-1.4l.212-.273a.869.869,0,1,1,1.373,1.065l-.217.278A.867.867,0,0,1,1495.986,695.525Zm-127.03-.145a.867.867,0,0,1-.687-.335l-.216-.279a.869.869,0,0,1,1.376-1.061l.211.273a.869.869,0,0,1-.685,1.4Zm131.278-5.827a.869.869,0,0,1-.729-1.34l.187-.291a.869.869,0,0,1,1.464.937l-.191.3A.868.868,0,0,1,1500.235,689.554Zm-135.512-.152a.868.868,0,0,1-.732-.4l-.19-.3a.869.869,0,0,1,1.466-.933l.186.29a.869.869,0,0,1-.73,1.339Zm139.2-6.18a.869.869,0,0,1-.77-1.272l.16-.308a.869.869,0,1,1,1.543.8l-.163.313A.869.869,0,0,1,1503.926,683.221Zm-142.877-.156a.869.869,0,0,1-.772-.468l-.162-.312a.869.869,0,1,1,1.545-.8l.158.305a.869.869,0,0,1-.77,1.27Zm145.976-6.487a.87.87,0,0,1-.8-1.2l.131-.321a.869.869,0,1,1,1.61.655l-.134.328A.869.869,0,0,1,1507.025,676.578Zm-149.058-.156a.869.869,0,0,1-.8-.54l-.132-.325a.869.869,0,0,1,1.611-.652l.13.318a.869.869,0,0,1-.8,1.2Zm151.537-6.744a.87.87,0,0,1-.831-1.125l.1-.333a.869.869,0,1,1,1.663.5l-.1.338A.869.869,0,0,1,1509.5,669.678Zm-154-.151a.87.87,0,0,1-.831-.615l-.1-.338a.869.869,0,0,1,1.664-.5q.05.165.1.33a.87.87,0,0,1-.831,1.123Zm155.833-6.944a.87.87,0,0,1-.851-1.047l.07-.339a.869.869,0,0,1,1.7.35l-.072.345A.869.869,0,0,1,1511.339,662.583Zm-157.653-.153a.869.869,0,0,1-.85-.692q-.036-.173-.071-.346a.869.869,0,1,1,1.7-.346q.034.169.069.338a.869.869,0,0,1-.674,1.028A.88.88,0,0,1,1353.685,662.43Zm158.83-7.078a.89.89,0,0,1-.1-.006.869.869,0,0,1-.764-.963l.039-.344a.869.869,0,0,1,1.727.193l-.04.35A.869.869,0,0,1,1512.515,655.352Zm-159.993-.155a.869.869,0,0,1-.862-.77q-.02-.175-.039-.351a.869.869,0,1,1,1.728-.19q.019.171.039.343a.869.869,0,0,1-.765.962A.919.919,0,0,1,1352.523,655.2Zm160.506-7.153h-.021a.869.869,0,0,1-.848-.89l.008-.346a.869.869,0,0,1,1.738.036l-.008.352A.869.869,0,0,1,1513.028,648.045Zm-161-.156a.869.869,0,0,1-.868-.849q0-.176-.007-.352a.869.869,0,0,1,1.738-.032c0,.115,0,.229.007.344a.869.869,0,0,1-.849.889Zm160.857-7.17a.869.869,0,0,1-.866-.812c-.007-.115-.015-.23-.023-.345a.869.869,0,1,1,1.734-.12q.012.176.024.352a.869.869,0,0,1-.811.924Zm-160.7-.154-.059,0a.869.869,0,0,1-.809-.925q.012-.177.024-.353a.869.869,0,0,1,1.734.124q-.012.172-.024.344A.869.869,0,0,1,1352.185,640.565Zm159.888-7.127a.87.87,0,0,1-.857-.734c-.018-.114-.036-.228-.054-.341a.869.869,0,1,1,1.716-.277q.028.174.056.348a.869.869,0,0,1-.723.994A.881.881,0,0,1,1512.073,633.438Zm-159.066-.152a.87.87,0,0,1-.859-1.006q.028-.174.056-.348a.869.869,0,0,1,1.715.28q-.028.171-.055.341A.869.869,0,0,1,1353.007,633.286Zm157.6-7.025a.87.87,0,0,1-.842-.657q-.042-.167-.085-.334a.869.869,0,1,1,1.683-.434q.044.171.088.343a.87.87,0,0,1-.843,1.082Zm-156.115-.149a.87.87,0,0,1-.843-1.084q.044-.171.088-.341a.869.869,0,1,1,1.682.436q-.044.167-.086.335A.869.869,0,0,1,1354.49,626.111Zm153.994-6.863a.869.869,0,0,1-.819-.58l-.116-.325a.869.869,0,0,1,1.636-.586l.118.333a.87.87,0,0,1-.819,1.159Zm-151.861-.145a.87.87,0,0,1-.819-1.161l.119-.333a.869.869,0,0,1,1.635.589l-.117.327A.869.869,0,0,1,1356.623,619.1Zm149.108-6.641a.869.869,0,0,1-.789-.506l-.145-.313a.869.869,0,1,1,1.576-.733l.147.318a.869.869,0,0,1-.789,1.233Zm-146.339-.147a.869.869,0,0,1-.788-1.234l.149-.321a.869.869,0,1,1,1.574.737l-.146.314A.869.869,0,0,1,1359.392,612.314Zm142.978-6.36a.869.869,0,0,1-.754-.435l-.173-.3a.869.869,0,0,1,1.5-.873l.176.3a.869.869,0,0,1-.752,1.3Zm-139.6-.146a.869.869,0,0,1-.752-1.3l.178-.306a.869.869,0,0,1,1.5.877l-.174.3A.869.869,0,0,1,1362.77,605.808Zm135.662-6.03a.868.868,0,0,1-.711-.369l-.2-.282a.869.869,0,0,1,1.417-1.006l.2.287a.869.869,0,0,1-.71,1.369Zm-131.707-.141a.869.869,0,0,1-.709-1.37l.2-.288a.869.869,0,0,1,1.415,1.009l-.2.282A.868.868,0,0,1,1366.724,599.637Zm127.225-5.654a.867.867,0,0,1-.663-.307l-.224-.263a.869.869,0,0,1,1.321-1.129l.228.268a.869.869,0,0,1-.662,1.431Zm-122.728-.134a.869.869,0,0,1-.661-1.432l.229-.268a.869.869,0,0,1,1.318,1.132l-.225.263A.867.867,0,0,1,1371.221,593.849Zm117.741-5.234a.866.866,0,0,1-.61-.25l-.246-.241a.869.869,0,0,1,1.213-1.245l.252.247a.869.869,0,0,1-.609,1.489Zm-112.742-.124a.869.869,0,0,1-.608-1.49l.253-.246a.869.869,0,1,1,1.211,1.247l-.247.241A.866.866,0,0,1,1376.22,588.492Zm107.29-4.774a.866.866,0,0,1-.55-.2l-.268-.219a.869.869,0,1,1,1.1-1.348l.273.223a.869.869,0,0,1-.551,1.541Zm-101.828-.111a.869.869,0,0,1-.55-1.542l.274-.222a.869.869,0,0,1,1.093,1.351l-.268.218A.866.866,0,0,1,1381.682,583.607Zm95.957-4.275a.866.866,0,0,1-.487-.15l-.287-.194a.869.869,0,0,1,.97-1.442l.293.2a.869.869,0,0,1-.489,1.588Zm-90.078-.1a.869.869,0,0,1-.487-1.589l.292-.2a.869.869,0,0,1,.967,1.444l-.286.192A.865.865,0,0,1,1387.561,579.235Zm83.833-3.74a.863.863,0,0,1-.42-.109l-.3-.167a.869.869,0,1,1,.835-1.524l.31.171a.869.869,0,0,1-.422,1.629Zm-77.583-.082a.869.869,0,0,1-.42-1.63l.309-.169a.869.869,0,1,1,.832,1.526l-.3.165A.866.866,0,0,1,1393.81,575.413Zm71.015-3.172a.864.864,0,0,1-.349-.074l-.318-.139a.869.869,0,1,1,.692-1.594l.324.142a.869.869,0,0,1-.35,1.665Zm-64.446-.065a.869.869,0,0,1-.348-1.666l.322-.14a.869.869,0,0,1,.689,1.6l-.315.137A.867.867,0,0,1,1400.379,572.177Zm57.607-2.574a.869.869,0,0,1-.276-.045l-.328-.109a.869.869,0,0,1,.543-1.651l.337.112a.869.869,0,0,1-.276,1.693Zm-50.771-.048a.869.869,0,0,1-.274-1.694l.335-.11a.869.869,0,0,1,.541,1.652l-.328.108A.868.868,0,0,1,1407.215,569.554Zm43.722-1.952a.878.878,0,0,1-.2-.023l-.336-.078a.869.869,0,1,1,.39-1.694l.344.08a.869.869,0,0,1-.2,1.715Zm-36.671-.034a.869.869,0,0,1-.2-1.716l.344-.079a.869.869,0,1,1,.386,1.695l-.336.077A.868.868,0,0,1,1414.266,567.568Zm29.47-1.311a.886.886,0,0,1-.121-.008l-.343-.047a.869.869,0,1,1,.234-1.722l.349.048a.869.869,0,0,1-.119,1.73Zm-22.267-.021a.869.869,0,0,1-.117-1.73l.349-.047a.869.869,0,0,1,.23,1.723l-.342.046A.884.884,0,0,1,1421.469,566.236Zm14.973-.663h-.043l-.345-.016a.869.869,0,0,1,.076-1.736l.353.016a.869.869,0,0,1-.041,1.737Zm-7.677-.007a.869.869,0,0,1-.04-1.737l.353-.016a.869.869,0,0,1,.073,1.737l-.345.015Z" transform="translate(-1351.148 -563.813)" fill="#fff"/>
      </g>
    </g>
    <circle id="Ellipse_1007" data-name="Ellipse 1007" cx="75.312" cy="75.312" r="75.312" transform="translate(769.808 327.441)" fill="#b2ffff" opacity="0.7"/>
    <path id="Path_46992" data-name="Path 46992" d="M2545.18,1823.489a1.086,1.086,0,0,1-.768-1.854l1.526-1.526a1.086,1.086,0,0,1,1.536,1.536l-1.526,1.526A1.083,1.083,0,0,1,2545.18,1823.489Z" transform="translate(-1631.076 -1341.196)" fill="#00508c"/>
    <path id="Path_46993" data-name="Path 46993" d="M2610.974,1757.694a1.086,1.086,0,0,1-.768-1.854l1.526-1.526a1.086,1.086,0,1,1,1.536,1.536l-1.526,1.526A1.084,1.084,0,0,1,2610.974,1757.694Z" transform="translate(-1688.636 -1283.633)" fill="#00508c"/>
    <path id="Path_46994" data-name="Path 46994" d="M2612.5,1823.489a1.083,1.083,0,0,1-.768-.318l-1.526-1.526a1.086,1.086,0,0,1,1.536-1.536l1.526,1.526a1.086,1.086,0,0,1-.768,1.854Z" transform="translate(-1688.636 -1341.196)" fill="#00508c"/>
    <path id="Path_46995" data-name="Path 46995" d="M2546.706,1757.694a1.083,1.083,0,0,1-.768-.318l-1.526-1.526a1.086,1.086,0,1,1,1.536-1.536l1.526,1.526a1.086,1.086,0,0,1-.768,1.854Z" transform="translate(-1631.076 -1283.633)" fill="#00508c"/>
    <path id="Path_46996" data-name="Path 46996" d="M1401.184,2739.436a1.086,1.086,0,0,1-.768-1.854l1.243-1.243a1.086,1.086,0,0,1,1.536,1.536l-1.243,1.243A1.083,1.083,0,0,1,1401.184,2739.436Z" transform="translate(-630.232 -2142.774)" fill="#00508c"/>
    <path id="Path_46997" data-name="Path 46997" d="M1454.784,2685.835a1.086,1.086,0,0,1-.768-1.854l1.243-1.243a1.086,1.086,0,0,1,1.536,1.536l-1.243,1.243A1.084,1.084,0,0,1,1454.784,2685.835Z" transform="translate(-677.126 -2095.88)" fill="#00508c"/>
    <path id="Path_46998" data-name="Path 46998" d="M1456.028,2739.436a1.082,1.082,0,0,1-.768-.318l-1.243-1.243a1.086,1.086,0,0,1,1.536-1.536l1.243,1.243a1.086,1.086,0,0,1-.768,1.854Z" transform="translate(-677.126 -2142.774)" fill="#00508c"/>
    <path id="Path_46999" data-name="Path 46999" d="M1402.427,2685.835a1.084,1.084,0,0,1-.768-.318l-1.243-1.243a1.086,1.086,0,0,1,1.536-1.536l1.243,1.243a1.086,1.086,0,0,1-.768,1.854Z" transform="translate(-630.232 -2095.88)" fill="#00508c"/>
    <path id="Path_47000" data-name="Path 47000" d="M2421.688,2668.452a1.083,1.083,0,0,1-.769-.319l-.318-.319a1.086,1.086,0,1,1,1.537-1.536l.318.319a1.086,1.086,0,0,1-.768,1.854Z" transform="translate(-1522.758 -2081.48)" fill="#00508c"/>
    <path id="Path_47001" data-name="Path 47001" d="M2458.084,2704.85a1.083,1.083,0,0,1-.768-.318l-.319-.318a1.086,1.086,0,0,1,1.536-1.537l.319.318a1.086,1.086,0,0,1-.768,1.855Z" transform="translate(-1554.6 -2113.325)" fill="#00508c"/>
    <path id="Path_47002" data-name="Path 47002" d="M2421.369,2704.851a1.086,1.086,0,0,1-.768-1.854l.319-.319a1.086,1.086,0,0,1,1.536,1.537l-.318.318A1.083,1.083,0,0,1,2421.369,2704.851Z" transform="translate(-1522.758 -2113.325)" fill="#00508c"/>
    <path id="Path_47003" data-name="Path 47003" d="M2457.766,2668.451a1.086,1.086,0,0,1-.768-1.854l.319-.319a1.086,1.086,0,0,1,1.536,1.536l-.319.319A1.082,1.082,0,0,1,2457.766,2668.451Z" transform="translate(-1554.6 -2081.479)" fill="#00508c"/>
    <g id="Group_18135" data-name="Group 18135" transform="translate(713.137 468.804)">
      <g id="Group_18134" data-name="Group 18134" transform="translate(0 0)">
        <path id="Path_47004" data-name="Path 47004" d="M985.271,1818.567h-.358a.869.869,0,0,1,.008-1.738h.5a.869.869,0,0,1,0,1.738Zm7.144-.679a.869.869,0,0,1-.164-1.722l.337-.067a.869.869,0,1,1,.344,1.7l-.353.07A.874.874,0,0,1,992.415,1817.888Zm-14.478-.038a.862.862,0,0,1-.17-.017l-.352-.071a.869.869,0,0,1,.353-1.7l.337.069a.869.869,0,0,1-.168,1.721Zm21.546-2.066a.869.869,0,0,1-.329-1.673l.316-.131a.869.869,0,1,1,.673,1.6l-.331.137A.869.869,0,0,1,999.483,1815.784Zm-28.6-.076a.867.867,0,0,1-.333-.067l-.333-.14a.869.869,0,1,1,.683-1.6l.317.134a.869.869,0,0,1-.333,1.672Zm35.12-3.371a.869.869,0,0,1-.481-1.594l.285-.191a.869.869,0,0,1,.973,1.44l-.3.2A.864.864,0,0,1,1006,1812.336Zm-41.621-.114a.864.864,0,0,1-.483-.147l-.3-.2a.869.869,0,1,1,.981-1.435l.285.193a.869.869,0,0,1-.485,1.591Zm47.344-4.535a.869.869,0,0,1-.611-1.487l.243-.243a.869.869,0,0,1,1.233,1.225l-.255.254A.867.867,0,0,1,1011.721,1807.687Zm-53.041-.146a.866.866,0,0,1-.614-.254l-.253-.255a.869.869,0,0,1,1.24-1.218l.242.244a.869.869,0,0,1-.614,1.484Zm57.757-5.523a.869.869,0,0,1-.718-1.357l.192-.286a.869.869,0,1,1,1.447.963q-.1.15-.2.3A.868.868,0,0,1,1016.437,1802.018ZM954,1801.846a.868.868,0,0,1-.722-.385l-.2-.3a.869.869,0,0,1,1.452-.955q.094.144.19.286a.869.869,0,0,1-.721,1.353Zm65.968-6.306a.87.87,0,0,1-.8-1.208q.067-.159.133-.318a.869.869,0,1,1,1.607.662q-.069.167-.139.333A.869.869,0,0,1,1019.964,1795.54Zm-69.458-.188a.869.869,0,0,1-.8-.535q-.069-.165-.136-.331a.869.869,0,1,1,1.61-.654q.064.159.13.317a.869.869,0,0,1-.8,1.2Zm71.647-6.856a.869.869,0,0,1-.852-1.044c.023-.112.046-.224.067-.336a.869.869,0,1,1,1.706.333q-.035.177-.071.353A.869.869,0,0,1,1022.153,1788.5Zm-73.8-.2a.869.869,0,0,1-.851-.7q-.035-.177-.069-.354a.869.869,0,1,1,1.708-.324q.032.169.066.337a.869.869,0,0,1-.853,1.039Zm74.56-7.137h-.006a.869.869,0,0,1-.863-.874c0-.077,0-.155,0-.232v-.112a.869.869,0,0,1,.866-.872h0a.869.869,0,0,1,.869.866v.117q0,.121,0,.242A.869.869,0,0,1,1022.916,1781.163Zm-75.284-.2a.869.869,0,0,1-.869-.869v-.032c0-.112,0-.219,0-.326a.869.869,0,0,1,.869-.862h.007a.869.869,0,0,1,.862.876c0,.1,0,.205,0,.308v.037A.869.869,0,0,1,947.632,1780.963Zm74.611-7.142a.869.869,0,0,1-.853-.705q-.032-.169-.066-.337a.869.869,0,1,1,1.7-.344q.036.176.07.353a.869.869,0,0,1-.854,1.033Zm-73.9-.2a.87.87,0,0,1-.853-1.038c.023-.117.047-.235.071-.352a.869.869,0,1,1,1.7.352c-.023.112-.046.224-.068.337A.869.869,0,0,1,948.344,1773.625Zm71.8-6.872a.869.869,0,0,1-.8-.541q-.064-.159-.131-.316a.869.869,0,0,1,1.6-.672q.069.166.137.331a.87.87,0,0,1-.8,1.2Zm-69.67-.187a.869.869,0,0,1-.8-1.2q.069-.167.14-.333a.869.869,0,0,1,1.6.68q-.067.159-.133.318A.869.869,0,0,1,950.478,1766.566Zm66.229-6.333a.869.869,0,0,1-.726-.391q-.094-.143-.19-.285a.869.869,0,0,1,1.441-.971q.1.149.2.3a.869.869,0,0,1-.724,1.348Zm-62.751-.172a.869.869,0,0,1-.722-1.352q.1-.15.2-.3a.869.869,0,0,1,1.436.979q-.1.142-.193.285A.868.868,0,0,1,953.956,1760.062Zm58.107-5.557a.867.867,0,0,1-.618-.258l-.243-.244a.869.869,0,0,1,1.226-1.232l.253.254a.869.869,0,0,1-.618,1.479Zm-53.431-.147a.869.869,0,0,1-.615-1.483l.254-.253a.869.869,0,0,1,1.22,1.238l-.245.243A.866.866,0,0,1,958.632,1754.358Zm47.765-4.575a.866.866,0,0,1-.488-.15l-.285-.192a.869.869,0,1,1,.964-1.446l.3.2a.869.869,0,0,1-.49,1.588Zm-42.075-.116a.869.869,0,0,1-.485-1.59l.3-.2a.869.869,0,0,1,.956,1.451l-.286.19A.866.866,0,0,1,964.322,1749.667Zm35.6-3.416a.866.866,0,0,1-.339-.069l-.319-.133a.869.869,0,0,1,.664-1.606l.332.139a.869.869,0,0,1-.339,1.669Zm-29.111-.079a.869.869,0,0,1-.335-1.671l.331-.137a.869.869,0,0,1,.655,1.61l-.316.13A.863.863,0,0,1,970.813,1746.172Zm22.07-2.116a.875.875,0,0,1-.177-.018l-.337-.068a.869.869,0,1,1,.335-1.705l.353.071a.869.869,0,0,1-.175,1.72Zm-15.022-.04a.869.869,0,0,1-.17-1.721l.353-.069a.869.869,0,0,1,.326,1.707l-.338.066A.876.876,0,0,1,977.861,1744.016Zm7.689-.732H985.2a.869.869,0,0,1,0-1.738h.071c.1,0,.193,0,.287,0a.869.869,0,0,1-.006,1.738Z" transform="translate(-946.763 -1741.545)" fill="#fff"/>
      </g>
    </g>
    <circle id="Ellipse_1008" data-name="Ellipse 1008" cx="32.428" cy="32.428" r="32.428" transform="translate(719.221 474.888)" fill="#b2ffff" opacity="0.7"/>
    <path id="Path_47005" data-name="Path 47005" d="M1305.973,1866.587a1.083,1.083,0,0,1-.768-.318l-.341-.341a1.086,1.086,0,0,1,1.537-1.536l.341.341a1.086,1.086,0,0,1-.768,1.854Z" transform="translate(-546.638 -1379.937)" fill="#00508c"/>
    <path id="Path_47006" data-name="Path 47006" d="M1344.917,1905.531a1.083,1.083,0,0,1-.768-.318l-.341-.341a1.086,1.086,0,0,1,1.536-1.537l.341.34a1.086,1.086,0,0,1-.768,1.855Z" transform="translate(-580.708 -1414.008)" fill="#00508c"/>
    <path id="Path_47007" data-name="Path 47007" d="M1305.633,1905.531a1.086,1.086,0,0,1-.768-1.854l.341-.34a1.086,1.086,0,1,1,1.536,1.536l-.341.341A1.083,1.083,0,0,1,1305.633,1905.531Z" transform="translate(-546.638 -1414.008)" fill="#00508c"/>
    <path id="Path_47008" data-name="Path 47008" d="M1344.576,1866.587a1.086,1.086,0,0,1-.768-1.854l.341-.341a1.086,1.086,0,0,1,1.536,1.536l-.341.341A1.082,1.082,0,0,1,1344.576,1866.587Z" transform="translate(-580.708 -1379.937)" fill="#00508c"/>
    <path id="Path_47009" data-name="Path 47009" d="M1596.972,739.012a57.666,57.666,0,0,0-30.81,105.5l.746,15.654a.715.715,0,0,0,1.126.55l12.857-9.089a57.667,57.667,0,1,0,16.081-112.615Z" transform="translate(-753.223 -395.645)" opacity="0.1"/>
    <g id="Group_18136" data-name="Group 18136" transform="translate(786.37 335.313)">
      <path id="Path_47010" data-name="Path 47010" d="M1598.343,683.441a57.667,57.667,0,0,0-32.18,105.517l.808,16.956,13.922-9.842a57.667,57.667,0,1,0,17.451-112.631Z" transform="translate(-1539.594 -682.355)" fill="#fff"/>
      <path id="Path_47011" data-name="Path 47011" d="M1559.376,799.406a1.086,1.086,0,0,1-1.085-1.035l-.782-16.415a58.614,58.614,0,1,1,15.977,7.718L1560,799.207A1.087,1.087,0,0,1,1559.376,799.406Zm31.373-122.473a56.58,56.58,0,0,0-31.573,103.53,1.086,1.086,0,0,1,.478.849l.714,14.978,12.3-8.7a1.087,1.087,0,0,1,.956-.148,56.587,56.587,0,1,0,17.122-110.51Z" transform="translate(-1531.999 -674.76)" fill="#00508c"/>
    </g>
    <g id="Group_18137" data-name="Group 18137" transform="translate(787.457 336.399)" opacity="0.1">
      <path id="Path_47012" data-name="Path 47012" d="M1542.418,748.056a57.667,57.667,0,0,1,112.6-17.538,57.661,57.661,0,1,0-111.631,28.067A57.947,57.947,0,0,1,1542.418,748.056Z" transform="translate(-1540.68 -683.441)" fill="#00508c"/>
    </g>
    <path id="Path_47013" data-name="Path 47013" d="M1494.51,2064.168l-1.6-6.347L1486,2032.2l-5.2-18.906a6.243,6.243,0,0,0-7.937-4.316l-12.208,3.7a6.229,6.229,0,0,0-4.139,7.274c-5.961-1.167-13.757-3.573-24.178-6.8l-6.706-2.068c-13.758-4.229-22.979-6.311-38.45,3.654-2.1,1.357-4.16,2.613-6.092,3.793-2.052,1.254-3.949,2.416-5.637,3.529-5.071-.865-9.542-1.59-11.7-1.936a6.235,6.235,0,0,0-4.109-7.446l-.025-.008-12.159-3.682a6.24,6.24,0,0,0-7.958,4.3l-5.209,18.918-6.912,25.634-1.6,6.317a6.236,6.236,0,0,0,4.173,7.586l12.287,3.614a6.19,6.19,0,0,0,4.876-.478,6.178,6.178,0,0,0,2.347-2.3c1.22.822,3.2,2.149,5.317,3.536-.072.062-.152.115-.219.181a7.3,7.3,0,0,0-1.626,7.961,9.7,9.7,0,0,0,8.463,6.285.951.951,0,0,1,.836.922,9.984,9.984,0,0,0,4.189,7.356,8.185,8.185,0,0,0,6.884,1.4,1.4,1.4,0,0,1,1.723.736,11.49,11.49,0,0,0,2.616,4.007c2.236,2.334,5.916,2.787,7.912,2.849a1.123,1.123,0,0,1,.888.482c2.459,3.463,6.693,4.673,10.607,4.673a16.791,16.791,0,0,0,7.132-1.472,4.93,4.93,0,0,0,1.719-1.308,24.014,24.014,0,0,0,9.172,2.17,13.293,13.293,0,0,0,4.647-.793,10.526,10.526,0,0,0,5.26-4.169c2.4-.353,10.2-2.113,12.333-10.233h.036a15.574,15.574,0,0,0,10.4-4.109,10.715,10.715,0,0,0,3.46-6.95,14.013,14.013,0,0,0,11.567-7.728,10.04,10.04,0,0,0,.812-5.815,5.907,5.907,0,0,0,3.5.168,31.349,31.349,0,0,0,3.294-1.054,6.179,6.179,0,0,0,7.635,3.693l12.333-3.631A6.228,6.228,0,0,0,1494.51,2064.168Z" transform="translate(-565.024 -1505.479)" opacity="0.1"/>
    <path id="Path_47014" data-name="Path 47014" d="M1616.292,2004.616l-13.432-50.206a.872.872,0,0,0-.7-.635c-6.422-1.023-15.082-3.7-27.064-7.412l-6.942-2.142c-14.128-4.343-23.593-6.485-39.451,3.734-2.184,1.405-4.314,2.707-6.317,3.932-2.182,1.333-4.191,2.564-5.966,3.739-7.436-1.269-13.7-2.259-13.7-2.259a.867.867,0,0,0-.976.635l-13.724,51.3a.868.868,0,0,0,.351.942c.038.027,3.542,2.41,7.291,4.859a4.685,4.685,0,0,0-.667.53,7.133,7.133,0,0,0-1.58,7.783,9.613,9.613,0,0,0,8.386,6.224,1.416,1.416,0,0,1,1.268,1.36,9.9,9.9,0,0,0,4.158,7.291,7.935,7.935,0,0,0,6.762,1.388,1.869,1.869,0,0,1,2.3,1.032,11.506,11.506,0,0,0,2.614,4c2.21,2.3,5.893,2.753,7.892,2.816a1.6,1.6,0,0,1,1.263.682v0c2.454,3.459,6.689,4.668,10.613,4.668a16.952,16.952,0,0,0,7.2-1.489,4.237,4.237,0,0,0,1.829-1.5,24.75,24.75,0,0,0,9.641,2.344,13.319,13.319,0,0,0,4.662-.794,10.369,10.369,0,0,0,5.334-4.313c2.147-.28,10.62-1.93,12.7-10.633a15.7,15.7,0,0,0,10.847-4.129,10.608,10.608,0,0,0,3.472-7.293,14.08,14.08,0,0,0,11.993-7.773,9.945,9.945,0,0,0,.653-6.5,6.178,6.178,0,0,0,2.629.6,6.062,6.062,0,0,0,1.475-.182,32.21,32.21,0,0,0,4.678-1.575A.867.867,0,0,0,1616.292,2004.616Z" transform="translate(-707.128 -1446.897)" fill="#fff"/>
    <g id="Group_18138" data-name="Group 18138" transform="translate(893.173 494.632)">
      <path id="Path_47015" data-name="Path 47015" d="M2431.144,2013.135l-1.66-6.562-7.153-26.524-5.39-19.581a5.159,5.159,0,0,0-6.581-3.561l-12.615,3.82a5.159,5.159,0,0,0-3.384,6.238l14.072,52.6a5.159,5.159,0,0,0,6.534,3.587l12.745-3.752A5.159,5.159,0,0,0,2431.144,2013.135Z" transform="translate(-2393.1 -1955.561)" fill="#fec558"/>
      <path id="Path_47016" data-name="Path 47016" d="M2405.811,2016.863a6.258,6.258,0,0,1-6.022-4.635l-14.072-52.6a6.246,6.246,0,0,1,4.1-7.551l.022-.007,12.6-3.817a6.245,6.245,0,0,1,7.955,4.315l5.389,19.576,7.154,26.53,0,.016,1.658,6.554a6.231,6.231,0,0,1-4.155,7.574l-.02.006-12.736,3.749A6.274,6.274,0,0,1,2405.811,2016.863Zm-15.334-62.716a4.073,4.073,0,0,0-2.661,4.921l14.072,52.6a4.072,4.072,0,0,0,5.158,2.832l.02-.006,12.735-3.749a4.063,4.063,0,0,0,2.7-4.942l0-.016-1.658-6.554-7.15-26.516-5.388-19.575a4.073,4.073,0,0,0-5.2-2.817l-.022.007Zm29.641,57.636h0Z" transform="translate(-2385.503 -1947.945)" fill="#00508c"/>
    </g>
    <path id="Path_47017" data-name="Path 47017" d="M1753.48,2005.932a6.465,6.465,0,0,1-5.051-2.456c-2.023-2.55-5.205-6.533-8.881-11.023-10.606-12.956-19.291-21.081-27.331-25.568a34.684,34.684,0,0,0-23.318-4.136,35.743,35.743,0,0,0-11.218,3.68c-1.665.776-3.387,1.579-5.521,2.419-4.865,1.913-12.317,2.459-16.546-.3a6.806,6.806,0,0,1-3.206-5.628c-.178-4.418,5.641-7.975,13.7-12.9,2.034-1.243,4.136-2.528,6.316-3.932,7.624-4.911,13.971-7.19,20.581-7.388,6.109-.184,11.994,1.46,19.053,3.628q3.627,1.114,6.913,2.134c11.988,3.711,20.65,6.392,27.063,7.415a1.086,1.086,0,1,1-.342,2.145c-6.565-1.047-15.289-3.748-27.363-7.485q-3.287-1.017-6.908-2.132c-14-4.3-22.659-6.256-37.82,3.51-2.2,1.418-4.315,2.71-6.36,3.96-6.86,4.193-12.785,7.814-12.658,10.957a4.6,4.6,0,0,0,2.222,3.9c3.487,2.274,10.144,1.835,14.564.1,2.072-.815,3.763-1.6,5.4-2.366a37.98,37.98,0,0,1,11.821-3.861c9.22-1.349,16.835,0,24.691,4.389,8.286,4.624,17.168,12.914,27.953,26.089,3.685,4.5,6.875,8.493,8.9,11.049a4.251,4.251,0,0,0,4.346,1.51,30.417,30.417,0,0,0,4.389-1.478,1.086,1.086,0,0,1,.848,2,32.609,32.609,0,0,1-4.708,1.585A6.264,6.264,0,0,1,1753.48,2005.932Z" transform="translate(-850.968 -1445.215)" fill="#00508c"/>
    <path id="Path_47018" data-name="Path 47018" d="M1962.955,2470.331a25.867,25.867,0,0,1-10.717-2.774,1.086,1.086,0,0,1,.917-1.97c5.916,2.754,10.953,3.3,14.567,1.567a8.1,8.1,0,0,0,3.7-3.415,1.076,1.076,0,0,1,.924-.631,15.329,15.329,0,0,0,5.215-1.5,11.2,11.2,0,0,0,6.329-8.346,1.087,1.087,0,0,1,1.163-.882,13.526,13.526,0,0,0,10.1-3.552,8.685,8.685,0,0,0,2.871-6.69,1.087,1.087,0,0,1,1.105-1.131,12.264,12.264,0,0,0,11.061-6.645c1.487-3.245.815-6.7-1.891-9.724a1.086,1.086,0,0,1,1.619-1.448c3.27,3.655,4.089,8.057,2.247,12.077a14.291,14.291,0,0,1-11.982,7.888,10.848,10.848,0,0,1-3.531,7.244,15.886,15.886,0,0,1-10.827,4.193,13.4,13.4,0,0,1-7.371,9,17.815,17.815,0,0,1-5.366,1.621,10.635,10.635,0,0,1-5.386,4.309A13.536,13.536,0,0,1,1962.955,2470.331Z" transform="translate(-1112.731 -1868.774)" fill="#00508c"/>
    <path id="Path_47019" data-name="Path 47019" d="M1495.914,2458.6a1.079,1.079,0,0,1-.589-.174c-4.2-2.714-8.553-5.677-8.6-5.706a1.086,1.086,0,1,1,1.222-1.8c.043.03,4.377,2.978,8.553,5.677a1.086,1.086,0,0,1-.591,2Z" transform="translate(-705.608 -1893.184)" fill="#00508c"/>
    <path id="Path_47020" data-name="Path 47020" d="M1611.049,2045.229a1.106,1.106,0,0,1-.184-.016c-7.485-1.28-13.947-2.3-14.011-2.312a1.086,1.086,0,1,1,.339-2.146c.065.01,6.539,1.034,14.039,2.316a1.086,1.086,0,0,1-.182,2.157Z" transform="translate(-801.565 -1534.499)" fill="#00508c"/>
    <path id="Path_47021" data-name="Path 47021" d="M1571.465,2533.014c-.52,0-1.038-.021-1.547-.063-2.866-.239-6.794-1.244-9.232-4.677h0a1.384,1.384,0,0,0-1.092-.591c-2.031-.062-5.777-.519-8.041-2.882a11.711,11.711,0,0,1-2.662-4.075,1.659,1.659,0,0,0-2.045-.9,8.156,8.156,0,0,1-6.945-1.422,10.119,10.119,0,0,1-4.248-7.453,1.2,1.2,0,0,0-1.066-1.159,9.83,9.83,0,0,1-8.576-6.365,7.346,7.346,0,0,1,1.632-8.013c1.469-1.431,4.031-1.988,6.688-1.453a8.985,8.985,0,0,1,6.626,5.119.756.756,0,0,0,1.069.375,7.683,7.683,0,0,1,6.566-.409,9.308,9.308,0,0,1,5.273,5.688,1.049,1.049,0,0,0,1.147.667,10.19,10.19,0,0,1,7.8,1.836c2.136,1.709,3.418,4.427,3.81,8.078a1.63,1.63,0,0,0,1.527,1.416c5.419-.137,8.435,2.775,8.944,5.538.733,3.978,3.2,5.339,3.306,5.4a1.065,1.065,0,0,1,.53.63c.222.69.239,2.028-2.146,3.223A17.263,17.263,0,0,1,1571.465,2533.014Zm-9.008-6c.77,1.084,3.847,4.556,11.1,3.705a10.49,10.49,0,0,0,5.057-1.643,10.253,10.253,0,0,1-3.661-6.411c-.473-2.568-3.757-3.836-6.753-3.76a3.773,3.773,0,0,1-3.741-3.355c-.323-3.011-1.363-5.3-3.007-6.614a8.119,8.119,0,0,0-6.193-1.374,3.207,3.207,0,0,1-3.453-2.13,7.113,7.113,0,0,0-4.009-4.361,5.542,5.542,0,0,0-4.737.3,2.928,2.928,0,0,1-4.1-1.437,6.821,6.821,0,0,0-5.055-3.838c-1.933-.389-3.8-.044-4.743.879a5.164,5.164,0,0,0-1.109,5.708,7.655,7.655,0,0,0,6.686,4.947,3.38,3.38,0,0,1,3.085,3.184,8.035,8.035,0,0,0,3.343,5.828,6.027,6.027,0,0,0,5.114,1.092,3.8,3.8,0,0,1,4.653,2.247,9.613,9.613,0,0,0,2.19,3.318c.742.775,2.579,2.093,6.539,2.213a3.539,3.539,0,0,1,2.8,1.5Z" transform="translate(-739.927 -1930.833)" fill="#00508c"/>
    <path id="Path_47022" data-name="Path 47022" d="M2248,2483.847a1.083,1.083,0,0,1-.818-.371l-10.8-12.363a1.086,1.086,0,0,1,1.636-1.43l10.8,12.363a1.086,1.086,0,0,1-.817,1.8Z" transform="translate(-1361.632 -1909.439)" fill="#00508c"/>
    <path id="Path_47023" data-name="Path 47023" d="M2153.308,2595.119a1.083,1.083,0,0,1-.822-.375l-8.177-9.441a1.086,1.086,0,1,1,1.642-1.422l8.177,9.441a1.086,1.086,0,0,1-.821,1.8Z" transform="translate(-1281.086 -2009.343)" fill="#00508c"/>
    <path id="Path_47024" data-name="Path 47024" d="M2071.456,2699.1a1.084,1.084,0,0,1-.844-.4l-5.542-6.832a1.086,1.086,0,1,1,1.687-1.368l5.542,6.831a1.086,1.086,0,0,1-.843,1.771Z" transform="translate(-1211.781 -2102.6)" fill="#00508c"/>
    <g id="Group_18139" data-name="Group 18139" transform="translate(757.755 494.632)">
      <path id="Path_47025" data-name="Path 47025" d="M1345.594,1960.727l-12.615-3.82a5.159,5.159,0,0,0-6.581,3.561l-5.39,19.581-7.153,26.524-1.66,6.562a5.159,5.159,0,0,0,3.43,6.264l12.746,3.752a5.159,5.159,0,0,0,6.534-3.587l14.072-52.6A5.159,5.159,0,0,0,1345.594,1960.727Z" transform="translate(-1310.929 -1955.561)" fill="#fec558"/>
      <path id="Path_47026" data-name="Path 47026" d="M1322.325,2016.864a6.275,6.275,0,0,1-1.877-.29l-12.736-3.749-.02-.006a6.231,6.231,0,0,1-4.155-7.573l1.658-6.554,0-.016,7.153-26.524,5.392-19.587a6.245,6.245,0,0,1,7.954-4.31l12.6,3.817.022.007a6.246,6.246,0,0,1,4.1,7.551l-14.071,52.6a6.258,6.258,0,0,1-6.022,4.635Zm-13.99-6.12,12.735,3.749.02.006a4.073,4.073,0,0,0,5.158-2.832l14.072-52.6a4.073,4.073,0,0,0-2.661-4.921l-12.6-3.817-.022-.007a4.073,4.073,0,0,0-5.2,2.812l-5.391,19.586-7.149,26.511-1.657,6.553,0,.016A4.063,4.063,0,0,0,1308.335,2010.744Z" transform="translate(-1303.32 -1947.946)" fill="#00508c"/>
    </g>
    <g id="Group_18140" data-name="Group 18140" transform="translate(914.616 542.479)">
      <circle id="Ellipse_1009" data-name="Ellipse 1009" cx="3.281" cy="3.281" r="3.281" transform="translate(1.086 1.086)" fill="#fff"/>
      <path id="Path_47027" data-name="Path 47027" d="M2561.232,2339.044a4.368,4.368,0,1,1,4.368-4.368A4.373,4.373,0,0,1,2561.232,2339.044Zm0-6.563a2.2,2.2,0,1,0,2.2,2.2A2.2,2.2,0,0,0,2561.232,2332.481Z" transform="translate(-2556.864 -2330.309)" fill="#00508c"/>
    </g>
    <g id="Group_18141" data-name="Group 18141" transform="translate(766.888 542.479)">
      <circle id="Ellipse_1010" data-name="Ellipse 1010" cx="3.281" cy="3.281" r="3.281" transform="translate(1.086 1.086)" fill="#fff"/>
      <path id="Path_47028" data-name="Path 47028" d="M1380.677,2339.044a4.368,4.368,0,1,1,4.368-4.368A4.373,4.373,0,0,1,1380.677,2339.044Zm0-6.563a2.2,2.2,0,1,0,2.2,2.2A2.2,2.2,0,0,0,1380.677,2332.481Z" transform="translate(-1376.309 -2330.309)" fill="#00508c"/>
    </g>
    <path id="Path_47029" data-name="Path 47029" d="M1580.992,1962.058s4.037.6,9.549,1.473a13.777,13.777,0,0,0,9.091-1.715q1.038-.606,2.136-1.239c2.116-1.225,4.367-2.527,6.675-3.932,16.756-10.219,26.757-8.077,41.685-3.734l7.335,2.142c12.661,3.708,21.811,6.388,28.6,7.412.011,0,.018.011.029.013l-2.158-8.068a.86.86,0,0,0-.7-.634c-6.423-1.023-15.083-3.7-27.067-7.412l-6.942-2.142c-14.128-4.343-23.593-6.485-39.451,3.734-2.184,1.405-4.314,2.707-6.317,3.932-2.182,1.333-4.191,2.564-5.967,3.739-7.436-1.269-13.7-2.259-13.7-2.259a.867.867,0,0,0-.976.635l-2.157,8.065A.993.993,0,0,1,1580.992,1962.058Z" transform="translate(-788.2 -1446.897)" fill="#00508c" opacity="0.1"/>
    <path id="Path_47030" data-name="Path 47030" d="M2531.628,2013.246l-1.66-6.562-7.153-26.524-5.39-19.581a5.15,5.15,0,0,0-5.334-3.789c.036.107.091.2.121.313l5.39,19.581,7.153,26.524,1.66,6.562a5.159,5.159,0,0,1-3.43,6.263l-12.746,3.752a5.152,5.152,0,0,1-1.2.215,5.144,5.144,0,0,0,6.41,3.261l12.746-3.752A5.159,5.159,0,0,0,2531.628,2013.246Z" transform="translate(-1600.41 -1461.041)" fill="#00508c" opacity="0.15"/>
    <path id="Path_47031" data-name="Path 47031" d="M1347.171,1988.929l-.14-.042a5.126,5.126,0,0,1,.048,2.8l-14.071,52.6a5.159,5.159,0,0,1-6.534,3.587l-12.654-3.725a5.145,5.145,0,0,0,3.384,3.449l12.745,3.752a5.159,5.159,0,0,0,6.534-3.587l14.072-52.6A5.159,5.159,0,0,0,1347.171,1988.929Z" transform="translate(-554.75 -1489.132)" fill="#00508c" opacity="0.15"/>
    <g id="Group_18143" data-name="Group 18143" transform="translate(932.278 419.382)">
      <g id="Group_18142" data-name="Group 18142" transform="translate(0)">
        <path id="Path_47032" data-name="Path 47032" d="M2723.856,1398.731l-.35,0a.869.869,0,1,1,.024-1.738l.33,0h.1a.869.869,0,0,1,0,1.738h-.107Zm6.865-.948a.869.869,0,0,1-.236-1.706c.106-.03.211-.061.316-.092a.869.869,0,1,1,.5,1.665l-.341.1A.869.869,0,0,1,2730.72,1397.783Zm-13.953-.068a.868.868,0,0,1-.246-.036l-.34-.1a.869.869,0,0,1,.512-1.661l.319.1a.869.869,0,0,1-.245,1.7Zm20.5-2.853a.869.869,0,0,1-.465-1.6l.278-.178a.869.869,0,1,1,.947,1.457q-.148.1-.3.191A.864.864,0,0,1,2737.268,1394.863Zm-27.021-.133a.865.865,0,0,1-.47-.138c-.1-.064-.2-.129-.3-.195a.869.869,0,1,1,.962-1.447l.277.181a.869.869,0,0,1-.471,1.6Zm32.48-4.509a.869.869,0,0,1-.65-1.446q.109-.123.217-.249a.869.869,0,1,1,1.317,1.135q-.116.134-.234.267A.866.866,0,0,1,2742.728,1390.221Zm-37.9-.187a.867.867,0,0,1-.657-.3q-.115-.134-.23-.269a.869.869,0,0,1,1.327-1.122q.107.127.215.251a.869.869,0,0,1-.656,1.439Zm41.842-5.8a.87.87,0,0,1-.786-1.24q.071-.15.139-.3a.869.869,0,0,1,1.582.72q-.074.161-.149.322A.869.869,0,0,1,2746.673,1384.236Zm-45.728-.224a.869.869,0,0,1-.79-.507q-.074-.16-.145-.322a.869.869,0,1,1,1.589-.7c.044.1.09.2.135.3a.869.869,0,0,1-.789,1.232Zm47.824-6.633a.857.857,0,0,1-.133-.01.869.869,0,0,1-.727-.991q.025-.163.048-.327a.869.869,0,0,1,1.721.241q-.025.175-.052.35A.869.869,0,0,1,2748.77,1377.379Zm-49.853-.24a.869.869,0,0,1-.859-.745q-.025-.175-.048-.351a.869.869,0,1,1,1.723-.225q.021.164.045.328a.869.869,0,0,1-.736.984A.887.887,0,0,1,2698.917,1377.139Zm49.926-6.927a.869.869,0,0,1-.86-.756q-.022-.164-.045-.327a.869.869,0,0,1,1.72-.251q.026.175.049.352a.869.869,0,0,1-.748.975A.9.9,0,0,1,2748.843,1370.213Zm-49.931-.24a.87.87,0,0,1-.861-.991q.025-.176.052-.351a.869.869,0,1,1,1.717.268q-.026.163-.049.326A.869.869,0,0,1,2698.912,1369.972Zm47.986-6.657a.869.869,0,0,1-.794-.516q-.067-.151-.136-.3a.869.869,0,0,1,1.578-.728q.074.16.146.321a.87.87,0,0,1-.793,1.223Zm-45.974-.223a.869.869,0,0,1-.79-1.23q.074-.162.15-.323a.869.869,0,0,1,1.571.745q-.071.149-.14.3A.869.869,0,0,1,2700.925,1363.093Zm42.158-5.843a.867.867,0,0,1-.663-.307c-.071-.084-.144-.168-.216-.251a.869.869,0,0,1,1.311-1.142c.077.089.154.178.23.268a.869.869,0,0,1-.662,1.431Zm-38.282-.189a.869.869,0,0,1-.657-1.438q.116-.134.234-.266a.869.869,0,0,1,1.3,1.155q-.11.124-.218.249A.868.868,0,0,1,2704.8,1357.061Zm32.918-4.569a.864.864,0,0,1-.478-.144l-.277-.181a.869.869,0,0,1,.938-1.463l.3.194a.869.869,0,0,1-.48,1.594Zm-27.509-.136a.869.869,0,0,1-.473-1.6l.3-.19a.869.869,0,1,1,.924,1.472l-.279.177A.864.864,0,0,1,2710.21,1352.356Zm21.028-2.925a.868.868,0,0,1-.255-.038l-.318-.1a.869.869,0,0,1,.487-1.668l.341.1a.869.869,0,0,1-.255,1.7Zm-14.519-.071a.869.869,0,0,1-.246-1.7l.341-.1a.869.869,0,1,1,.47,1.673l-.318.092A.871.871,0,0,1,2716.719,1349.36Zm7.436-1.029h-.01l-.284,0h-.048a.869.869,0,1,1,0-1.738h.047l.306,0a.869.869,0,0,1-.01,1.738Z" transform="translate(-2698.003 -1346.592)" fill="#fff"/>
      </g>
    </g>
    <circle id="Ellipse_1011" data-name="Ellipse 1011" cx="20.413" cy="20.413" r="20.413" transform="translate(929.267 445.452) rotate(-45)" fill="#b2ffff" opacity="0.7"/>
    <path id="Path_47033" data-name="Path 47033" d="M1812.535,1060.293h-.37c-7.166,0-13.762-1.968-18.574-5.541a19.194,19.194,0,0,1-8.081-15.926,21.735,21.735,0,0,1,4.068-12.9,47.515,47.515,0,0,1,8.17-8.373c3.3-2.848,6.147-5.307,7.11-8.249a1.086,1.086,0,0,1,2.065.676c-1.151,3.515-4.359,6.285-7.755,9.217-5.384,4.648-11.485,9.916-11.485,19.629a17.1,17.1,0,0,0,7.2,14.182c4.439,3.3,10.576,5.113,17.279,5.113h.37c6.7,0,12.839-1.816,17.279-5.113a17.1,17.1,0,0,0,7.2-14.182c0-9.713-6.1-14.981-11.485-19.629-3.336-2.881-6.488-5.6-7.69-9.026a1.086,1.086,0,1,1,2.05-.719c1.01,2.877,3.813,5.3,7.06,8.1a47.491,47.491,0,0,1,8.17,8.373,21.734,21.734,0,0,1,4.068,12.9,19.194,19.194,0,0,1-8.081,15.926C1826.3,1058.325,1819.7,1060.293,1812.535,1060.293Z" transform="translate(-967.417 -631.473)" fill="#00508c"/>
    <path id="Path_47034" data-name="Path 47034" d="M1897.228,847.179a1.087,1.087,0,0,1-1.081-1.209c.489-4.3,4.152-12.189,6.371-16.659a25.546,25.546,0,0,0-6.424,5.016,1.279,1.279,0,0,1-1.037.375c-.746-.077-1.149-.693-1.76-1.625a9.685,9.685,0,0,0-4.087-3.974c.14,1.118.311,2.675.375,4.016.109,2.3-.1,3.217-.83,3.648a1.318,1.318,0,0,1-1.481-.109,22.025,22.025,0,0,0-8.354-4.047c2.7,3.1,7.193,8.826,7.812,13.279a1.086,1.086,0,0,1-2.152.3c-.636-4.572-6.47-11.267-8.244-13.211a1.638,1.638,0,0,1,1.329-2.738c1.734.129,5.211.818,9.774,3.882a42.127,42.127,0,0,0-.4-4.893,2.082,2.082,0,0,1,.789-1.914,2.035,2.035,0,0,1,2-.306c2.8,1.074,4.357,3.454,5.288,4.877l.143.218a25.493,25.493,0,0,1,6.565-4.867,2.089,2.089,0,0,1,2.749,2.825c-1.725,3.462-5.788,11.965-6.265,16.154A1.086,1.086,0,0,1,1897.228,847.179Z" transform="translate(-1046.502 -472.525)" fill="#00508c"/>
    <path id="Path_47035" data-name="Path 47035" d="M1934.544,979.465a19.05,19.05,0,0,1-7.962-1.737,3.411,3.411,0,0,1,3.037-6.108c.039.018,4.85,2.264,9.359.007a3.411,3.411,0,0,1,3.051,6.1A16.583,16.583,0,0,1,1934.544,979.465Zm-6.435-6.025a1.237,1.237,0,0,0-.555,2.344,16.993,16.993,0,0,0,6.99,1.508,14.427,14.427,0,0,0,6.513-1.508,1.238,1.238,0,1,0-1.109-2.214,12.011,12.011,0,0,1-5.417,1.247,14.583,14.583,0,0,1-5.867-1.247A1.25,1.25,0,0,0,1928.11,973.44Z" transform="translate(-1089.187 -598.851)" fill="#00508c"/>
    <path id="Path_47036" data-name="Path 47036" d="M2117.452,1262.268a1.086,1.086,0,0,1-.735-1.886,13.641,13.641,0,0,0,4.362-7.953,1.086,1.086,0,0,1,2.143.358,15.978,15.978,0,0,1-5.035,9.195A1.082,1.082,0,0,1,2117.452,1262.268Z" transform="translate(-1256.87 -844.036)" fill="#00508c"/>
    <path id="Path_47037" data-name="Path 47037" d="M1923.7,1179.5a1.086,1.086,0,0,1-.768-1.854l17.2-17.2a1.086,1.086,0,0,1,1.536,1.536l-17.2,17.2A1.083,1.083,0,0,1,1923.7,1179.5Z" transform="translate(-1087.36 -764.08)" fill="#ff8200"/>
    <path id="Path_47038" data-name="Path 47038" d="M1918.52,1160.526a4.437,4.437,0,1,1,4.437-4.437A4.442,4.442,0,0,1,1918.52,1160.526Zm0-6.7a2.265,2.265,0,1,0,2.265,2.265A2.267,2.267,0,0,0,1918.52,1153.824Z" transform="translate(-1079.901 -756.663)" fill="#ff8200"/>
    <path id="Path_47039" data-name="Path 47039" d="M2019.433,1261.367a4.437,4.437,0,1,1,4.437-4.437A4.442,4.442,0,0,1,2019.433,1261.367Zm0-6.7a2.265,2.265,0,1,0,2.265,2.265A2.268,2.268,0,0,0,2019.433,1254.666Z" transform="translate(-1168.186 -844.886)" fill="#ff8200"/>
  </g>
</svg>
