<svg xmlns="http://www.w3.org/2000/svg" width="219.266" height="172.818" viewBox="0 0 219.266 172.818">
  <g id="Group_22679" data-name="Group 22679" transform="translate(-150.588 -1521.541)">
    <g id="Group_22677" data-name="Group 22677" transform="translate(150.588 1521.542)">
      <g id="Group_22674" data-name="Group 22674" transform="translate(0 64.669)">
        <path id="Path_50205" data-name="Path 50205" d="M1728.054,2153.777l-21.692-12.853v7.1H1667.13v11.5h39.232v7.1Z" transform="translate(-1508.788 -2140.924)" fill="#73aeb4" fill-rule="evenodd"/>
        <path id="Path_50206" data-name="Path 50206" d="M150.588,2153.777l21.692,12.853v-7.1h39.232v-11.5H172.28v-7.1Z" transform="translate(-150.588 -2140.924)" fill="#73aeb4" fill-rule="evenodd"/>
      </g>
      <g id="Group_22675" data-name="Group 22675" transform="translate(32.111 0)">
        <path id="Path_50207" data-name="Path 50207" d="M1538.7,1521.542l-24.427,6.25,5.023,5.023-27.741,27.741,8.131,8.131,27.741-27.741,5.023,5.023Z" transform="translate(-1383.654 -1521.542)" fill="#73aeb4" fill-rule="evenodd"/>
        <path id="Path_50208" data-name="Path 50208" d="M458.134,2602.106l24.427-6.25-5.023-5.023,27.741-27.741-8.131-8.131L469.407,2582.7l-5.023-5.023Z" transform="translate(-458.134 -2447.062)" fill="#73aeb4" fill-rule="evenodd"/>
      </g>
      <g id="Group_22676" data-name="Group 22676" transform="translate(32.111 0)">
        <path id="Path_50209" data-name="Path 50209" d="M458.134,1521.542l6.251,24.427,5.023-5.023,27.741,27.741,8.131-8.131-27.741-27.741,5.023-5.023Z" transform="translate(-458.134 -1521.542)" fill="#73aeb4" fill-rule="evenodd"/>
        <path id="Path_50210" data-name="Path 50210" d="M1538.7,2602.106l-6.25-24.427-5.023,5.023-27.741-27.741-8.131,8.131,27.741,27.741-5.023,5.023Z" transform="translate(-1383.654 -2447.062)" fill="#73aeb4" fill-rule="evenodd"/>
      </g>
    </g>
    <g id="Group_22678" data-name="Group 22678" transform="translate(229.333 1529.203)">
      <path id="Path_50211" data-name="Path 50211" d="M966.518,1688.691a5.455,5.455,0,0,1-5.724,5.377,5.132,5.132,0,0,1-5.514-5.1v-30.111c0-3.929.017-4.867-1-4.867s-.788,3.46-.788,6.184c0,5.028-.094,76.135-.094,92.113,0,5.043-3,7.8-7.667,7.8-6,0-8.628-3.321-8.628-7.881v-41.947c0-3.615.335-5.591-1.435-5.883-1.771.292-1.435,2.268-1.435,5.883V1752.2c0,4.7-2.631,7.881-8.628,7.881-4,0-7.667-2.54-7.667-7.8,0-15.978-.094-87.085-.094-92.113,0-2.723.235-6.184-.788-6.184s-1,.939-1,4.867v30.111a5.132,5.132,0,0,1-5.514,5.1,5.456,5.456,0,0,1-5.724-5.377s-.147-32.322.128-41.138c.513-16.582,13.092-19.974,17.959-20.049,8.424-.129,12.054-.094,12.761-.1s4.337-.033,12.76.1c4.867.074,17.447,3.466,17.96,20.049C966.665,1656.369,966.518,1688.691,966.518,1688.691Zm-30.848-93.766a15.086,15.086,0,1,0,15.085,15.086A15.086,15.086,0,0,0,935.669,1594.925Z" transform="translate(-904.781 -1594.925)" fill="#73aeb4" fill-rule="evenodd"/>
      <circle id="Ellipse_1200" data-name="Ellipse 1200" cx="12.853" cy="12.853" r="12.853" transform="translate(12.711 75.925) rotate(-45)" fill="#fec558"/>
    </g>
  </g>
</svg>
