<svg xmlns="http://www.w3.org/2000/svg" width="223.005" height="179.899" viewBox="0 0 223.005 179.899">
  <g id="Group_22682" data-name="Group 22682" transform="translate(-2749.358 -1466.012)">
    <g id="Group_22680" data-name="Group 22680" transform="translate(2749.358 1466.012)">
      <path id="Path_50212" data-name="Path 50212" d="M4265.9,2137.4l22.063,13.072v-7.224h39.9v-11.7h-39.9v-7.224Z" transform="translate(-4104.858 -2054.425)" fill="#ddaf56" fill-rule="evenodd"/>
      <path id="Path_50213" data-name="Path 50213" d="M2811.322,2137.4l-22.062-13.072v7.224h-39.9v11.7h39.9v7.224Z" transform="translate(-2749.358 -2054.425)" fill="#ddaf56" fill-rule="evenodd"/>
      <path id="Path_50214" data-name="Path 50214" d="M4129.261,1513.961l24.844-6.357L4149,1502.5l28.214-28.214-8.27-8.27-28.214,28.214-5.109-5.108Z" transform="translate(-3982.729 -1466.012)" fill="#ddaf56" fill-rule="evenodd"/>
      <path id="Path_50215" data-name="Path 50215" d="M3065.915,2577.308l-24.844,6.357,5.109,5.108-28.214,28.214,8.27,8.27,28.214-28.214,5.108,5.108Z" transform="translate(-2989.442 -2459.299)" fill="#ddaf56" fill-rule="evenodd"/>
      <path id="Path_50216" data-name="Path 50216" d="M3065.915,1513.961l-6.357-24.844-5.108,5.108-28.214-28.214-8.27,8.27,28.214,28.214-5.109,5.108Z" transform="translate(-2989.442 -1466.012)" fill="#ddaf56" fill-rule="evenodd"/>
      <path id="Path_50217" data-name="Path 50217" d="M4129.262,2577.307l6.357,24.844,5.108-5.108,28.214,28.214,8.27-8.27L4149,2588.773l5.108-5.109Z" transform="translate(-3982.73 -2459.299)" fill="#ddaf56" fill-rule="evenodd"/>
    </g>
    <g id="Group_22681" data-name="Group 22681" transform="translate(2829.446 1477.939)">
      <path id="Path_50218" data-name="Path 50218" d="M3566.341,1673.7a5.548,5.548,0,0,1-5.821,5.468,5.219,5.219,0,0,1-5.608-5.189v-30.624c0-4,.017-4.95-1.017-4.95s-.8,3.52-.8,6.289c0,5.114-.1,77.433-.1,93.684,0,5.129-3.054,7.929-7.8,7.929-6.1,0-8.775-3.378-8.775-8.016v-42.662c0-3.677.341-5.687-1.459-5.983-1.8.3-1.46,2.306-1.46,5.983v42.662c0,4.782-2.676,8.016-8.775,8.016-4.064,0-7.8-2.583-7.8-7.929,0-16.251-.1-88.57-.1-93.684,0-2.77.239-6.289-.8-6.289s-1.016.955-1.016,4.95v30.624a5.219,5.219,0,0,1-5.608,5.189,5.549,5.549,0,0,1-5.821-5.468s-.15-32.873.13-41.84c.521-16.865,13.315-20.315,18.266-20.391,8.568-.131,12.26-.1,12.979-.1s4.411-.033,12.978.1c4.95.076,17.744,3.525,18.267,20.391C3566.49,1640.825,3566.341,1673.7,3566.341,1673.7Zm-31.374-95.365a15.343,15.343,0,1,0,15.342,15.343A15.343,15.343,0,0,0,3534.967,1578.333Z" transform="translate(-3503.552 -1578.333)" fill="#ddaf56" fill-rule="evenodd"/>
      <circle id="Ellipse_1201" data-name="Ellipse 1201" cx="13.072" cy="13.072" r="13.072" transform="translate(15.981 87.396) rotate(-78.401)" fill="#af6666"/>
    </g>
  </g>
</svg>
