<svg xmlns="http://www.w3.org/2000/svg" width="136.411" height="136.411" viewBox="0 0 136.411 136.411">
  <g id="Group_18149" data-name="Group 18149" transform="translate(0 0)">
    <path id="Path_47056" data-name="Path 47056" d="M296.911,171.485a68.215,68.215,0,0,1-128.556,31.806l-.039-.074a67.782,67.782,0,0,1-7.38-23.988,68.208,68.208,0,1,1,135.975-7.744Z" transform="translate(-160.5 -103.28)" fill="#ec8457"/>
    <path id="Path_47057" data-name="Path 47057" d="M479.872,234.36c-.69-.189-8.166-3.151-.949-15.3,6.921-12.744,14.49-23.866,14.355-23.657.135-.209,13.538,18.13,6.14,30.71C491.725,238.1,480.676,234.653,479.872,234.36Z" transform="translate(-417.512 -178.365)" fill="#57a6aa"/>
    <g id="Group_18148" data-name="Group 18148" transform="translate(58.46 61.143)">
      <path id="Path_47058" data-name="Path 47058" d="M493.956,461.732H480.584a.223.223,0,0,1-.166-.336,13.271,13.271,0,0,0,1.954-3.654,50.918,50.918,0,0,0,1.5-6.914c.1-.887.245-4.325.32-7.4a8.4,8.4,0,0,0-3.068-6.725,16.808,16.808,0,0,0-1.622-1.23c-.915-.576-1.845-.918-2.792-1.473h3.415a3.115,3.115,0,0,0,.7.892,31.6,31.6,0,0,1,3.73,3.243c.036.043.07.1.1.146a.13.13,0,0,0,.235-.09c-.085-.692-.045-1.727-.1-2.125-.1-.672-.228-1.327-.387-2.066h2.456c-.007.37-.01.492-.006.707a6.492,6.492,0,0,0,.26,1.221c.048.19.318.151.378-.037.2-.63.421-1.151.662-1.891H489.6c-.3.924-.554,1.586-.785,2.358s-.418,1.561-.584,2.338c-.018.087.1.141.138.06a13.54,13.54,0,0,1,2.393-3.91,9.243,9.243,0,0,0,.83-.845h1.754a.994.994,0,0,1-.338.312,11.812,11.812,0,0,0-3.8,6.236,29.194,29.194,0,0,0-.64,3.617c-.057.35.034,2.692.054,2.948.418,5.391,1.315,6.788,3.739,11.284.483.9,1.321,2,1.774,3.023A.225.225,0,0,1,493.956,461.732Z" transform="translate(-476.71 -434)" fill="#fff"/>
    </g>
    <path id="Path_47059" data-name="Path 47059" d="M520.488,322.649c-.538-.472-5.963-6.408,5.846-14.176,11.8-8.429,23.475-15.115,23.262-14.986.213-.129,4.235,22.227-7.923,30.3C529.508,331.2,521.082,323.265,520.488,322.649Z" transform="translate(-452.542 -258.321)" fill="#73bcc4"/>
    <path id="Path_47060" data-name="Path 47060" d="M542.66,328.144a25.635,25.635,0,0,0,10.2.189,23.7,23.7,0,0,1-10.313.265,16.889,16.889,0,0,1-3.217-1.035,31.245,31.245,0,0,1-4.831,1.868c.574.193,1.607.546,3.492,1.133a31,31,0,0,0,11.227,1.012,28.584,28.584,0,0,1-11.38-.589,17.251,17.251,0,0,1-3.753-1.439c-2.127.557-2.288.47-2.365.446.019-.067.02-.107,1.929-.876a5.745,5.745,0,0,1-.379-2.69c.133-3,2.519-7.239,2.846-7.931-.3.7-2.221,5.072-2.174,8.025.038,1.348.06,2.051.074,2.443,1.039-.441,2.531-1.068,4.561-2.144a8.2,8.2,0,0,1-.38-2.565c-.029-3.156,1.9-7.686,2.155-8.408-.231.725-1.732,5.364-1.542,8.448.086,1.167.137,1.867.172,2.306a43.76,43.76,0,0,0,4.695-2.958,10.369,10.369,0,0,1-.421-2.376c-.21-3.129,1.164-7.663,1.339-8.364-.153.7-1.157,5.315-.816,8.355.126,1.022.207,1.681.262,2.119a42.75,42.75,0,0,0,4.079-3.428,11.368,11.368,0,0,1-.387-1.855,26.964,26.964,0,0,1,.594-7.127,28.4,28.4,0,0,0-.206,7.089c.127.742.215,1.256.279,1.624a42.025,42.025,0,0,0,3.7-4.1,12.088,12.088,0,0,1-.38-1.51,25.35,25.35,0,0,1,.02-6.119,26.876,26.876,0,0,0,.267,6.066c.129.58.222,1,.292,1.308a41.109,41.109,0,0,0,3.262-4.874c-.066-.191-.143-.447-.235-.8a16.832,16.832,0,0,1-.277-3.884,18.016,18.016,0,0,0,.432,3.839c.075.271.136.488.184.661a39.985,39.985,0,0,0,3.324-7.66,37.773,37.773,0,0,1-2.872,8.1l.494.031a5.139,5.139,0,0,0,2.62-.792,4.922,4.922,0,0,1-2.6,1.011,4.319,4.319,0,0,1-.61-.055,37.412,37.412,0,0,1-3.044,5.089c.272.034.638.077,1.133.13a9.774,9.774,0,0,0,4.786-1.022,9.226,9.226,0,0,1-4.784,1.364,7.467,7.467,0,0,1-1.326-.206,36.723,36.723,0,0,1-3.574,4.218c.368.064.878.151,1.6.262a14.139,14.139,0,0,0,6.463-.843,13.24,13.24,0,0,1-6.492,1.238,10.615,10.615,0,0,1-1.841-.381,35.975,35.975,0,0,1-4.044,3.458c.5.113,1.239.278,2.351.505a19.979,19.979,0,0,0,8.667-.515,18.566,18.566,0,0,1-8.741.973,14.2,14.2,0,0,1-2.646-.7,35.275,35.275,0,0,1-4.771,2.876C540.316,327.517,541.216,327.77,542.66,328.144Z" transform="translate(-463.087 -265.761)" fill="#fff"/>
    <path id="Path_47061" data-name="Path 47061" d="M400.565,290.043c.754-.837,6.808-9.032-4.194-19.079a262.5,262.5,0,0,0-21.7-19.361c-.2-.166-7,30.547,4.316,40.993C390.387,302.14,400.248,290.329,400.565,290.043Z" transform="translate(-333.274 -224.179)" fill="#73bcc4"/>
    <path id="Path_47062" data-name="Path 47062" d="M396.446,298.049a19.453,19.453,0,0,1-10.287.737,17.641,17.641,0,0,0,10.35-.124,16.652,16.652,0,0,0,3.364-1.558,22.992,22.992,0,0,0,4.636,2.311c-.6.289-1.684.815-3.656,1.7a24.561,24.561,0,0,1-11.423,1.9,22.127,22.127,0,0,0,11.528-1.336,17.885,17.885,0,0,0,3.953-2.132c2.074.656,2.375.507,2.387.509,0-.026-.067-.16-1.9-1.115a10.916,10.916,0,0,0,.707-3.67c.232-4.073-1.653-9.717-1.9-10.641.215.93,1.618,6.786,1.213,10.8-.2,1.833-.312,2.789-.372,3.322a41.1,41.1,0,0,1-4.33-2.7,15.777,15.777,0,0,0,.693-3.5c.413-4.289-.978-10.352-1.147-11.319.144.972,1.091,7.206.525,11.4-.227,1.589-.365,2.542-.451,3.141a36.332,36.332,0,0,1-4.367-3.8,19.69,19.69,0,0,0,.712-3.248c.592-4.26-.24-10.355-.331-11.3a56.213,56.213,0,0,1-.193,11.312c-.251,1.395-.413,2.293-.521,2.89a39.933,39.933,0,0,1-3.691-4.465,21.882,21.882,0,0,0,.615-2.538,48.522,48.522,0,0,0,.267-9.653,52.09,52.09,0,0,1-.654,9.62c-.219,1.014-.368,1.715-.478,2.22a45.858,45.858,0,0,1-3.227-5.388c.147-.431.332-1.079.566-2.07a46.9,46.9,0,0,0,.722-8.312,50.592,50.592,0,0,1-1,8.254c-.2.793-.345,1.37-.453,1.791a52.05,52.05,0,0,1-2.692-6.467c.09-.266.2-.616.334-1.1a32.025,32.025,0,0,0,.751-5.289,34.146,34.146,0,0,1-.9,5.236c-.107.373-.195.669-.265.906a59.278,59.278,0,0,1-2.414-10.249A59.128,59.128,0,0,0,385.02,275c-.134.02-.3.042-.5.068a3.772,3.772,0,0,1-2.541-.954,3.719,3.719,0,0,0,2.5,1.253,3.634,3.634,0,0,0,.62-.1,49.042,49.042,0,0,0,2.446,6.771c-.278.06-.652.135-1.158.229a7.041,7.041,0,0,1-4.692-1.162c.265.3,2.562,1.944,4.649,1.626a6.257,6.257,0,0,0,1.36-.34,41.333,41.333,0,0,0,3.084,5.562c-.379.1-.9.246-1.636.431a10.209,10.209,0,0,1-6.4-.842,9.552,9.552,0,0,0,6.386,1.379,9.3,9.3,0,0,0,1.9-.607,34.288,34.288,0,0,0,3.651,4.51c-.514.175-1.28.435-2.427.8a14.669,14.669,0,0,1-8.663-.291,13.452,13.452,0,0,0,8.681.909,13.1,13.1,0,0,0,2.748-1.07,29.062,29.062,0,0,0,4.454,3.683C398.883,297.086,397.946,297.473,396.446,298.049Z" transform="translate(-340.798 -234.393)" fill="#fff"/>
    <path id="Path_47063" data-name="Path 47063" d="M639.865,581.1a2.208,2.208,0,0,0-1.006-1.87,3.76,3.76,0,0,0-2.04-.4,27.086,27.086,0,0,0-4.5.413,22.133,22.133,0,0,1-4.969.649,18.254,18.254,0,0,0-3.223-.2,8.544,8.544,0,0,0-2.148.668l-1.979.813c-.52.214-1.123.535-1.177,1.113a1.069,1.069,0,0,0,.57.972,2.724,2.724,0,0,0,1.12.28,52.984,52.984,0,0,0,10.865-.466l4.23-.473,2.094-.234c.434-.048.9.052,1.326-.018A1.225,1.225,0,0,0,639.865,581.1Z" transform="translate(-534.087 -490.913)" fill="#b2896d"/>
    <path id="Path_47064" data-name="Path 47064" d="M657.691,583.927a2.112,2.112,0,0,0-1.007-1.8,3.887,3.887,0,0,0-2.035-.388,28.048,28.048,0,0,0-4.486.385,22.838,22.838,0,0,1-4.953.611,18.949,18.949,0,0,0-3.214-.2,8.736,8.736,0,0,0-2.14.636l-1.971.775c-.518.2-1.118.51-1.17,1.065a1.026,1.026,0,0,0,.571.934,2.813,2.813,0,0,0,1.117.271,54.849,54.849,0,0,0,10.831-.421l4.216-.444,2.087-.22c.433-.045.9.052,1.322-.015A1.171,1.171,0,0,0,657.691,583.927Z" transform="translate(-548.671 -493.286)" fill="#c19374"/>
    <path id="Path_47065" data-name="Path 47065" d="M660.4,588.254a2.113,2.113,0,0,0-.953-1.826,3.886,3.886,0,0,0-2.022-.449,28.013,28.013,0,0,0-4.5.25,22.849,22.849,0,0,1-4.969.462,18.933,18.933,0,0,0-3.207-.3,8.732,8.732,0,0,0-2.158.571l-1.994.715c-.524.188-2.642.871-2.711,1.423a1.026,1.026,0,0,0,.542.95,15.452,15.452,0,0,0,2.618-.089,54.829,54.829,0,0,0,10.839-.1l4.227-.317,2.093-.157c.434-.032.9.079,1.322.025A1.171,1.171,0,0,0,660.4,588.254Z" transform="translate(-549.629 -496.732)" fill="#d09e7b"/>
    <path id="Path_47066" data-name="Path 47066" d="M517.105,598.514a2.927,2.927,0,0,0-1.347.764,1.123,1.123,0,0,0-.091,1.432,1.654,1.654,0,0,0,1.045.4,74.558,74.558,0,0,0,15.415.427,17.721,17.721,0,0,0,6.057-1.273c.362-.165.759-.416.794-.812a.82.82,0,0,0-.492-.753,2.411,2.411,0,0,0-.93-.185l-8.294-.529a53.861,53.861,0,0,0-7.981-.337A18.2,18.2,0,0,0,517.105,598.514Z" transform="translate(-449.826 -506.195)" fill="#d09e7b"/>
    <path id="Path_47067" data-name="Path 47067" d="M333.431,521.623c6.779-2.219,14.5-2.687,20.47,1.221,1.963,1.285,3.715,2.93,5.869,3.861,3.466,1.5,7.418.944,11.191,1.055a30.775,30.775,0,0,1,8.047,1.321,6.9,6.9,0,0,1,2.394,1.125l.06.049a2.968,2.968,0,0,1,1.05,3.446,2.314,2.314,0,0,1-.5.984,3.45,3.45,0,0,1-2.373.98c-.876.057-1.753-.071-2.631-.074-1.566-.005-2.886.336-4.45.4a32.027,32.027,0,0,1-7.077-.434c-2.363-.43-4.91-.586-7.062.48,2.323-.871,5-.446,7.429.071a41.275,41.275,0,0,0,7.308,1.344,16.839,16.839,0,0,0,8.06-1.992,15.618,15.618,0,0,1,1.988-.939,11.6,11.6,0,0,1,3.074-.468l12.418-.76a5.805,5.805,0,0,1,2.017.113,1.746,1.746,0,0,1,.685,3.167,5.412,5.412,0,0,1-1.844.918q-2.049.7-4.145,1.246a117.244,117.244,0,0,1-12.691,2.127,43.093,43.093,0,0,0-5.487,1.05c-1.27.359-2.507.835-3.791,1.146a30.607,30.607,0,0,1-8.965.369c-3.168-.181-6.4-1.4-9.38-2.5a52.193,52.193,0,0,0-20.424-2.761c-24.121,6.1-8.375-5.565-8.9-8.276a18.708,18.708,0,0,1-.6-3.732C325.2,525,332.209,522.023,333.431,521.623Z" transform="translate(-291.494 -442.898)" fill="#ffc295"/>
    <rect id="Rectangle_4623" data-name="Rectangle 4623" width="4.276" height="21.297" transform="translate(35.708 77.324) rotate(-0.083)" fill="#fff"/>
    <path id="Path_47068" data-name="Path 47068" d="M198.558,537.809l-28.318.041a67.783,67.783,0,0,1-7.38-23.988l35.663-.052.018,12.074Z" transform="translate(-162.424 -437.912)" fill="#5b6375"/>
    <path id="Path_47069" data-name="Path 47069" d="M209.544,591.045v.074l-28.283.041-.041-.074a67.58,67.58,0,0,1-4.893-11.917l33.2-.048Z" transform="translate(-173.4 -491.148)" fill="#4d5666"/>
    <path id="Path_47070" data-name="Path 47070" d="M626.253,576.039l-1.19,3.146a.512.512,0,0,0,.308.664l1.734.615a2.011,2.011,0,0,0,2.271-1.234,2.394,2.394,0,0,0-.349-2.531,4,4,0,0,0-1.561-.745l-.55-.211A.513.513,0,0,0,626.253,576.039Z" transform="translate(-539.149 -488.367)" fill="#f4f4f4"/>
    <path id="Path_47071" data-name="Path 47071" d="M735.687,602.832l.29,1.558c.025.133.3.186.572.094l1.655-.581s1.423-.539,1.483-1.463c0,0-.005-.76-1.352-.658a8.1,8.1,0,0,0-1.645.47l-.559.183C735.862,602.522,735.663,602.7,735.687,602.832Z" transform="translate(-629.347 -509.612)" fill="#f4f4f4"/>
    <path id="Path_47072" data-name="Path 47072" d="M536.727,275.861a7.244,7.244,0,1,1-7.244-7.244A7.244,7.244,0,0,1,536.727,275.861Z" transform="translate(-455.362 -238.05)" fill="#f6bc32"/>
    <path id="Path_47073" data-name="Path 47073" d="M532.909,272.819a6.467,6.467,0,1,0,6.467,6.467A6.467,6.467,0,0,0,532.909,272.819Zm0,12.7a6.233,6.233,0,1,1,6.233-6.233A6.233,6.233,0,0,1,532.909,285.519Z" transform="translate(-458.788 -241.475)" fill="#faec96"/>
    <path id="Path_47074" data-name="Path 47074" d="M545.569,287.3a4.65,4.65,0,1,1-4.651-4.651A4.65,4.65,0,0,1,545.569,287.3Z" transform="translate(-466.797 -249.484)" fill="#faec96"/>
    <path id="Path_47075" data-name="Path 47075" d="M551.929,295.089a4.682,4.682,0,0,1-1.662-.386V293.4a5.676,5.676,0,0,0,.993.388,3.424,3.424,0,0,0,.941.156,1.121,1.121,0,0,0,.49-.081.28.28,0,0,0,.155-.27.274.274,0,0,0-.112-.221,1.734,1.734,0,0,0-.374-.2q-.262-.114-.707-.276a3.194,3.194,0,0,1-.807-.416,1.449,1.449,0,0,1-.447-.516,1.611,1.611,0,0,1-.14-.711,1.281,1.281,0,0,1,.417-1.016,2.214,2.214,0,0,1,1.252-.453V288.9h.815v.866a4.624,4.624,0,0,1,1.579.386l-.469,1.123a3.675,3.675,0,0,0-1.485-.37.918.918,0,0,0-.443.077.248.248,0,0,0-.128.226.279.279,0,0,0,.093.215,1.3,1.3,0,0,0,.321.189q.229.1.634.242a3.067,3.067,0,0,1,1.182.664,1.326,1.326,0,0,1,.358.959,1.444,1.444,0,0,1-.419,1.075,2.042,2.042,0,0,1-1.223.512v1.054h-.815Z" transform="translate(-478.202 -254.585)" fill="#e0ad5a"/>
  </g>
</svg>
