<svg xmlns="http://www.w3.org/2000/svg" width="269" height="299.657" viewBox="0 0 269 299.657">
  <g id="Group_23031" data-name="Group 23031" transform="translate(-826 -2298.123)">
    <path id="Path_50803" data-name="Path 50803" d="M632.082,313.075A97.333,97.333,0,1,0,729.41,410.4,96.962,96.962,0,0,0,632.082,313.075Z" transform="translate(363.654 2018.933)" fill="#2d4462"/>
    <g id="Group_23007" data-name="Group 23007" transform="translate(898.408 2332.008)">
      <path id="Path_50804" data-name="Path 50804" d="M549.366,455.363a96.878,96.878,0,0,1,17.716-56A97.328,97.328,0,1,0,711.694,527.8a97.323,97.323,0,0,1-162.328-72.435Z" transform="translate(-534.754 -374.474)" fill="#253649"/>
      <path id="Path_50805" data-name="Path 50805" d="M668.122,313.075a96.962,96.962,0,0,0-65,24.893A97.327,97.327,0,0,0,747.734,466.4a97.333,97.333,0,0,0-79.612-153.324Z" transform="translate(-570.794 -313.075)" fill="#2d4462"/>
    </g>
    <g id="Group_23020" data-name="Group 23020" transform="translate(974.731 2511.145)">
      <g id="Group_23008" data-name="Group 23008" transform="translate(57.627 6.481)">
        <path id="Path_50806" data-name="Path 50806" d="M1007.392,960.683l-.082,6.861a4.1,4.1,0,0,1-8.206-.1l.083-6.86a4.1,4.1,0,0,1,8.205.1Zm-5.958,6.79a1.773,1.773,0,1,0,3.546.042l.083-6.86a1.773,1.773,0,0,0-3.546-.043Z" transform="translate(-999.103 -956.532)" fill="#1c1a18"/>
      </g>
      <g id="Group_23009" data-name="Group 23009" transform="translate(60.354)">
        <path id="Path_50807" data-name="Path 50807" d="M1010.142,934.066a1.451,1.451,0,0,1,1.434,1.469l-.117,9.722a1.451,1.451,0,0,1-1.47,1.434h0a1.451,1.451,0,0,1-1.433-1.469l.117-9.722a1.452,1.452,0,0,1,1.469-1.435Z" transform="translate(-1008.556 -934.066)" fill="#1c1a18"/>
      </g>
      <g id="Group_23010" data-name="Group 23010" transform="translate(56.658 24.323)">
        <path id="Path_50808" data-name="Path 50808" d="M1004.371,1022.743l-.432,6.847a4.1,4.1,0,1,1-8.19-.517l.432-6.847a4.1,4.1,0,0,1,8.189.518Zm-6.3,6.477a1.773,1.773,0,0,0,3.539.224l.432-6.848a1.774,1.774,0,0,0-3.54-.223Z" transform="translate(-995.741 -1018.381)" fill="#1c1a18"/>
      </g>
      <g id="Group_23011" data-name="Group 23011" transform="translate(59.74 17.279)">
        <path id="Path_50809" data-name="Path 50809" d="M1008.581,993.967a1.451,1.451,0,0,1,1.357,1.54l-.612,9.7a1.453,1.453,0,0,1-1.54,1.358h0a1.454,1.454,0,0,1-1.358-1.541l.613-9.7a1.451,1.451,0,0,1,1.54-1.358Z" transform="translate(-1006.425 -993.964)" fill="#1c1a18"/>
      </g>
      <g id="Group_23012" data-name="Group 23012" transform="translate(51.862 41.186)">
        <path id="Path_50810" data-name="Path 50810" d="M989.494,1082.4l-2.437,6.414a4.1,4.1,0,0,1-7.672-2.915l2.438-6.413a4.1,4.1,0,1,1,7.671,2.915Zm-7.93,4.326a1.773,1.773,0,0,0,3.315,1.26l2.438-6.413a1.773,1.773,0,1,0-3.315-1.26Z" transform="translate(-979.118 -1076.841)" fill="#1c1a18"/>
      </g>
      <g id="Group_23013" data-name="Group 23013" transform="translate(56.99 34.618)">
        <path id="Path_50811" data-name="Path 50811" d="M1000.888,1054.109a1.453,1.453,0,0,1,1.084,1.744l-2.211,9.468a1.451,1.451,0,0,1-1.744,1.083h0a1.451,1.451,0,0,1-1.084-1.744l2.211-9.468a1.452,1.452,0,0,1,1.744-1.084Z" transform="translate(-996.895 -1054.071)" fill="#1c1a18"/>
      </g>
      <g id="Group_23014" data-name="Group 23014" transform="translate(36.912 57.044)">
        <path id="Path_50812" data-name="Path 50812" d="M939.378,1139.545l-6.072,3.194a4.1,4.1,0,0,1-3.821-7.262l6.072-3.195a4.1,4.1,0,1,1,3.821,7.262Zm-8.808-2.006a1.773,1.773,0,0,0,1.651,3.139l6.072-3.195a1.773,1.773,0,0,0-1.651-3.138Z" transform="translate(-927.293 -1131.811)" fill="#1c1a18"/>
      </g>
      <g id="Group_23015" data-name="Group 23015" transform="translate(46.752 52.329)">
        <path id="Path_50813" data-name="Path 50813" d="M970.722,1115.89a1.451,1.451,0,0,1,.009,2.053l-6.844,6.906a1.452,1.452,0,0,1-2.053.01h0a1.452,1.452,0,0,1-.01-2.053l6.844-6.906a1.451,1.451,0,0,1,2.053-.009Z" transform="translate(-961.404 -1115.469)" fill="#1c1a18"/>
      </g>
      <g id="Group_23016" data-name="Group 23016" transform="translate(18.234 64.035)">
        <path id="Path_50814" data-name="Path 50814" d="M874.147,1164.183l-6.744,1.263a4.1,4.1,0,1,1-1.51-8.066l6.743-1.263a4.1,4.1,0,0,1,1.511,8.066Zm-7.825-4.513a1.773,1.773,0,0,0,.652,3.485l6.744-1.262a1.773,1.773,0,0,0-.653-3.486Z" transform="translate(-862.544 -1156.046)" fill="#1c1a18"/>
      </g>
      <g id="Group_23017" data-name="Group 23017" transform="translate(28.513 63.623)">
        <path id="Path_50815" data-name="Path 50815" d="M910.293,1155.639a1.452,1.452,0,0,1-.953,1.819l-9.28,2.9a1.452,1.452,0,0,1-1.819-.953h0a1.452,1.452,0,0,1,.953-1.818l9.28-2.9a1.453,1.453,0,0,1,1.819.953Z" transform="translate(-898.175 -1154.62)" fill="#1c1a18"/>
      </g>
      <g id="Group_23018" data-name="Group 23018" transform="translate(0 66.979)">
        <path id="Path_50816" data-name="Path 50816" d="M810.757,1174.428l-6.808.856a4.1,4.1,0,1,1-1.024-8.142l6.807-.857a4.1,4.1,0,0,1,1.025,8.142Zm-7.541-4.974a1.773,1.773,0,0,0,.443,3.519l6.807-.857a1.773,1.773,0,0,0-.443-3.519Z" transform="translate(-799.334 -1166.254)" fill="#1c1a18"/>
      </g>
      <g id="Group_23019" data-name="Group 23019" transform="translate(9.45 68.418)">
        <path id="Path_50817" data-name="Path 50817" d="M844.633,1172.511a1.452,1.452,0,0,1-1.259,1.622l-9.646,1.214a1.452,1.452,0,0,1-1.622-1.26h0a1.452,1.452,0,0,1,1.259-1.622l9.646-1.214a1.452,1.452,0,0,1,1.621,1.26Z" transform="translate(-832.094 -1171.24)" fill="#1c1a18"/>
      </g>
    </g>
    <g id="Group_23022" data-name="Group 23022" transform="translate(839.245 2500.113)">
      <g id="Group_23021" data-name="Group 23021" transform="translate(8.585 0)">
        <path id="Path_50818" data-name="Path 50818" d="M405.521,895.822l-9.076,1.562c2.112,12.28,2.289,22.617.527,30.722-1.4,6.43-4.038,11.482-7.845,15.011-10.46,9.7-27.259,5.626-27.427,5.583l-2.277,8.923c.879.226,21.724,5.383,35.907-7.7C406.5,939.622,409.925,921.421,405.521,895.822Z" transform="translate(-359.422 -895.822)" fill="#f5f6f7"/>
      </g>
      <path id="Path_50819" data-name="Path 50819" d="M345.184,1080.865a8.978,8.978,0,1,0-12.693.392A8.977,8.977,0,0,0,345.184,1080.865Z" transform="translate(-329.662 -1016.722)" fill="#ebc09e"/>
    </g>
    <path id="Path_50820" data-name="Path 50820" d="M442.546,1208.886c0,2.374,39.529,4.3,88.286,4.3s88.288-1.924,88.288-4.3-39.527-4.3-88.288-4.3S442.546,1206.511,442.546,1208.886Z" transform="translate(429.262 1384.596)" fill="#0f0e0b" opacity="0.1"/>
    <rect id="Rectangle_5275" data-name="Rectangle 5275" width="85.804" height="85.804" transform="translate(874.951 2495.691) rotate(-28.765)" fill="#fff"/>
    <path id="Path_50821" data-name="Path 50821" d="M418.864,537.13l12.973,23.63,19.286,35.131L379.3,635.32l-18.847-34.331-13.411-24.43Z" transform="translate(497.215 1859.511)" fill="#fcd0a7"/>
    <path id="Path_50822" data-name="Path 50822" d="M480,842.659l7.756,16.487-33.208-9.651,22.441-12.32,3.01,5.484Z" transform="translate(420.721 1646.021)" fill="#ebeaeb"/>
    <path id="Path_50823" data-name="Path 50823" d="M573.085,784.1l22.68-12.451-9.92,33.327L576.1,789.583Z" transform="translate(336.38 1692.645)" fill="#ebeaeb"/>
    <path id="Path_50824" data-name="Path 50824" d="M541.232,823.519l-5.876,3.226-3.01-5.484L544.1,814.81l3.011,5.484Z" transform="translate(365.368 1661.934)" fill="#bb3767"/>
    <path id="Path_50825" data-name="Path 50825" d="M561.891,880.409l-19.11-40.137h0l5.876-3.226,5.876-3.226,23.641,37.82-3.69,12.762Z" transform="translate(357.943 1648.407)" fill="#e1477d"/>
    <path id="Path_50826" data-name="Path 50826" d="M552.715,790.249l22.628,3.091,3.768-17.582Z" transform="translate(350.874 1689.721)" fill="#fff"/>
    <path id="Path_50827" data-name="Path 50827" d="M487.608,825.991l-9.541,20.751-16.855-6.26Z" transform="translate(415.981 1653.978)" fill="#fff"/>
    <path id="Path_50828" data-name="Path 50828" d="M619.3,655.765a3.575,3.575,0,1,0,1.414-4.854A3.575,3.575,0,0,0,619.3,655.765Z" transform="translate(303.811 1778.867)" fill="#4b3e34"/>
    <path id="Path_50829" data-name="Path 50829" d="M474.8,735.091a3.575,3.575,0,1,0,1.414-4.853A3.574,3.574,0,0,0,474.8,735.091Z" transform="translate(406.627 1722.424)" fill="#4b3e34"/>
    <path id="Path_50830" data-name="Path 50830" d="M314.89,526.253l-31.142-20.976,31.66-43.44,6.342,6.333,18.663-33.6.757,23.951,14.151-19.276L352.833,457.2l8.769-6.507-.929,11.594,18.514-5.681L386.4,487,372.88,471.236l-59.816,36.9Z" transform="translate(542.252 1932.483)" fill="#4b3e34"/>
    <g id="Group_23024" data-name="Group 23024" transform="translate(943.642 2456.495)">
      <g id="Group_23023" data-name="Group 23023" transform="translate(0 0)">
        <path id="Path_50831" data-name="Path 50831" d="M732.611,760.416c5.835,10.46,5.953,22.313,5.955,22.979l-8.768.03c0-.178-.234-17.844-10.917-25.927-5.957-4.507-14.364-5.306-24.986-2.375l-2.332-8.451c13.413-3.7,24.4-2.4,32.65,3.867A31.54,31.54,0,0,1,732.611,760.416Z" transform="translate(-691.563 -744.616)" fill="#fff"/>
      </g>
      <path id="Path_50832" data-name="Path 50832" d="M820.547,847.789a8.978,8.978,0,1,0-3.235,12.277A8.976,8.976,0,0,0,820.547,847.789Z" transform="translate(-771.431 -814.853)" fill="#fcd0a7"/>
    </g>
    <path id="Path_50833" data-name="Path 50833" d="M577.456,983.513l16.2-30.377-10.006-18.227L508.43,976.2l-21.675,8.76,13.453,30.064-11.42-.044-.017,4.469,18.172.07-.077-4.469L502.6,994.427h15.84l46.225-25.376v15.714l17.786,27.519-9.055-.035-.017,4.469,18.172.07-.2-4.469Z" transform="translate(397.807 1576.479)" fill="#1c1a18"/>
    <path id="Path_50834" data-name="Path 50834" d="M386.1,660.867s1.042,14.808,4.117,18.159,8.617,2.1,6.891-2.88S386.1,660.867,386.1,660.867Z" transform="translate(469.424 1771.469)" fill="#fff"/>
    <g id="Group_23028" data-name="Group 23028" transform="translate(1010.555 2298.123)">
      <g id="Group_23025" data-name="Group 23025" transform="translate(34.296 6.344)">
        <rect id="Rectangle_5276" data-name="Rectangle 5276" width="25.821" height="6.186" transform="translate(0 23.482) rotate(-65.426)" fill="#fec558"/>
      </g>
      <g id="Group_23026" data-name="Group 23026" transform="translate(0)">
        <path id="Path_50835" data-name="Path 50835" d="M924.643,220.311,923.52,195.9l6.176-.286,1.128,24.415Z" transform="translate(-923.52 -195.61)" fill="#fec558"/>
      </g>
      <g id="Group_23027" data-name="Group 23027" transform="translate(61.415 36.146)">
        <rect id="Rectangle_5277" data-name="Rectangle 5277" width="24.44" height="6.185" transform="translate(0 15.117) rotate(-38.208)" fill="#fec558"/>
      </g>
    </g>
    <g id="Group_23029" data-name="Group 23029" transform="translate(964.875 2360.945)">
      <path id="Path_50836" data-name="Path 50836" d="M796.947,520.478v-9.43a56.107,56.107,0,0,1-31.779-14.081l9.43-11.239q10.851,9.431,22.349,11.239V471.9q-14.6-3.488-21.38-9.172t-6.782-16.858q0-11.172,7.816-18.28t20.346-7.751v-6.459h8.268v6.588a53.98,53.98,0,0,1,26.87,9.689l-8.4,11.885a41.648,41.648,0,0,0-18.473-7.493v24.287h.387q14.855,3.488,21.832,9.43t6.975,17.246q0,11.306-8.009,18.409t-21.186,7.751v9.3ZM787.84,437.09a9.255,9.255,0,0,0-3.294,7.234,9.114,9.114,0,0,0,2.584,6.847q2.583,2.519,9.818,4.844V433.666Q791.134,434.184,787.84,437.09Zm27.193,56.647a9.975,9.975,0,0,0,.775-14.662q-2.843-2.647-10.593-4.974v23.253A18.069,18.069,0,0,0,815.033,493.737Z" transform="translate(-765.168 -413.385)" fill="#fff"/>
    </g>
    <g id="Group_23030" data-name="Group 23030" transform="translate(1029.654 2506.457)">
      <path id="Path_50837" data-name="Path 50837" d="M994.122,925.349a4.3,4.3,0,0,1-1.953-.451,5.066,5.066,0,0,1-2.38-2.84,1.3,1.3,0,0,1,2.475-.784,2.5,2.5,0,0,0,1.088,1.313,2.3,2.3,0,0,0,1.786-.026,4.515,4.515,0,0,0,2.734-1.917,1.264,1.264,0,0,0,.023-1.036,1.3,1.3,0,1,1,2.4-.992,3.868,3.868,0,0,1-.054,3.092c-.445.989-1.543,2.366-4.251,3.305A5.676,5.676,0,0,1,994.122,925.349Z" transform="translate(-989.73 -917.814)" fill="#1c1a18"/>
    </g>
  </g>
</svg>
