<svg xmlns="http://www.w3.org/2000/svg" xmlns:xlink="http://www.w3.org/1999/xlink" width="144.41" height="144.41" viewBox="0 0 144.41 144.41">
  <defs>
    <radialGradient id="radial-gradient" cx="0.5" cy="0.5" r="0.5" gradientUnits="objectBoundingBox">
      <stop offset="0" stop-color="#fff"/>
      <stop offset="1" stop-color="#fae7b7"/>
    </radialGradient>
  </defs>
  <g id="Grupo_26382" data-name="Grupo 26382" transform="translate(-486 -871)">
    <g id="Elipse_1117" data-name="Elipse 1117" transform="translate(490 875)" stroke="#fff" stroke-width="4" fill="url(#radial-gradient)">
      <circle cx="68.205" cy="68.205" r="68.205" stroke="none"/>
      <circle cx="68.205" cy="68.205" r="70.205" fill="none"/>
    </g>
    <g id="Grupo_26301" data-name="Grupo 26301" transform="translate(6.978 525.842)">
      <g id="Grupo_26295" data-name="Grupo 26295" transform="translate(513.022 382.28)">
        <g id="Grupo_26294" data-name="Grupo 26294">
          <g id="Grupo_26278" data-name="Grupo 26278" transform="translate(20.629 39.556)">
            <g id="Grupo_26277" data-name="Grupo 26277">
              <path id="Trazado_55792" data-name="Trazado 55792" d="M546.262,458.563l-10.492-29.59,2.659-3.074h20.378l2.745,3.074-11.972,31.493C548.488,459.785,547.378,459.154,546.262,458.563Z" transform="translate(-535.77 -425.898)" fill="#f7f4f1"/>
            </g>
          </g>
          <path id="Trazado_55793" data-name="Trazado 55793" d="M546.132,461.918h7.583L550.7,449l2.781-10.771-3.894,2.268-3.892-2.268,2.842,10.824Z" transform="translate(-516.065 -387.491)" fill="#cf2d2d"/>
          <path id="Trazado_55794" data-name="Trazado 55794" d="M539.44,414.551v14.932s4.591,8.8,9.756,8.8,9.353-7.8,9.353-8.8V414.551Z" transform="translate(-515.483 -385.286)" fill="#d1ab86"/>
          <g id="Grupo_26280" data-name="Grupo 26280" transform="translate(33.519 42.63)">
            <g id="Grupo_26279" data-name="Grupo 26279">
              <path id="Trazado_55795" data-name="Trazado 55795" d="M562.876,429.288l6.182,1.567s9.611,1.511,11.385,4.141c3.175,2.029,3.409,27.274,2.773,27.371s-29.891,0-29.891,0c-1.1-.765-2.223-1.468-3.341-2.138V460.2Z" transform="translate(-549.984 -429.288)" fill="#0c0a0a"/>
            </g>
          </g>
          <g id="Grupo_26282" data-name="Grupo 26282" transform="translate(0 42.63)">
            <g id="Grupo_26281" data-name="Grupo 26281">
              <path id="Trazado_55796" data-name="Trazado 55796" d="M533.652,429.288l-6.187,1.567s-9.609,1.511-11.377,4.141c-3.182,2.029-3.417,27.274-2.783,27.371s38.426,0,38.426,0c1.1-.765-2.9-1.175-5.189-2.138V460.2Z" transform="translate(-513.022 -429.288)" fill="#0c0a0a"/>
            </g>
          </g>
          <g id="Grupo_26293" data-name="Grupo 26293" transform="translate(15.475)">
            <g id="Grupo_26284" data-name="Grupo 26284" transform="translate(2.466 6.554)">
              <g id="Grupo_26283" data-name="Grupo 26283">
                <path id="Trazado_55797" data-name="Trazado 55797" d="M532.912,406.152c1.18,11.548,9.9,20.119,15.438,20.119,5.928,0,14.05-8.81,15.439-20.119,1.349-11.034-6.912-16.644-15.439-16.644S531.784,395.094,532.912,406.152Z" transform="translate(-532.806 -389.508)" fill="#ffe2c2"/>
              </g>
            </g>
            <g id="Grupo_26286" data-name="Grupo 26286" transform="translate(1.037)">
              <g id="Grupo_26285" data-name="Grupo 26285">
                <path id="Trazado_55798" data-name="Trazado 55798" d="M564.238,394.114c-1.261-4.428-5.482-9.5-10.853-10.818-4.507-1.1-13.13-2.878-19.432,4.546-2.125,2.5-2.9,7.991-2.686,10.016.783,7.293,1.45,9.361,1.45,9.361l1.835.852a9.7,9.7,0,0,1,.3-5.972,14.342,14.342,0,0,1,1.246-2.626c5.495,5.937,18.4-1.034,23.684-.325,3.8.511,1.93,9.969,1.93,9.969l1.269-1.9a21.32,21.32,0,0,0,.509-2.388c.439,0,.686,0,.686,0A22.009,22.009,0,0,0,564.238,394.114Z" transform="translate(-531.231 -382.28)" fill="#8d6752"/>
              </g>
            </g>
            <g id="Grupo_26289" data-name="Grupo 26289" transform="translate(31.145 21.391)">
              <g id="Grupo_26288" data-name="Grupo 26288">
                <g id="Grupo_26287" data-name="Grupo 26287">
                  <path id="Trazado_55799" data-name="Trazado 55799" d="M565.383,409.489c-.8,2.309-1.424,4.533-.47,4.864s3.11-1.354,3.914-3.661.687-4.447-.262-4.78S566.186,407.18,565.383,409.489Z" transform="translate(-564.43 -405.868)" fill="#ffe2c2"/>
                </g>
              </g>
            </g>
            <g id="Grupo_26292" data-name="Grupo 26292" transform="translate(0 21.391)">
              <g id="Grupo_26291" data-name="Grupo 26291">
                <g id="Grupo_26290" data-name="Grupo 26290">
                  <path id="Trazado_55800" data-name="Trazado 55800" d="M534.068,409.489c.8,2.309,1.424,4.533.468,4.864s-3.113-1.354-3.917-3.661-.686-4.447.266-4.78S533.263,407.18,534.068,409.489Z" transform="translate(-530.087 -405.868)" fill="#ffe2c2"/>
                </g>
              </g>
            </g>
          </g>
        </g>
      </g>
      <g id="Grupo_26300" data-name="Grupo 26300" transform="translate(562.102 414.563)">
        <g id="Grupo_26299" data-name="Grupo 26299">
          <g id="Grupo_26298" data-name="Grupo 26298">
            <g id="Grupo_26296" data-name="Grupo 26296">
              <path id="Trazado_55801" data-name="Trazado 55801" d="M585.6,454.793a18.568,18.568,0,0,1-18.45-18.021,18.473,18.473,0,0,1,18.016-18.888c.148,0,.294-.005.441-.005a18.57,18.57,0,0,1,18.453,18.02,18.476,18.476,0,0,1-18.019,18.889c-.147,0-.292.005-.44.005Z" transform="translate(-567.142 -417.878)" fill="#fff"/>
            </g>
            <path id="Trazado_55802" data-name="Trazado 55802" d="M602,436.189a16.162,16.162,0,1,0-15.775,16.543A16.165,16.165,0,0,0,602,436.189Z" transform="translate(-567.378 -418.114)" fill="#9fb603"/>
            <g id="Grupo_26297" data-name="Grupo 26297" transform="translate(3.824 3.821)">
              <path id="Trazado_55803" data-name="Trazado 55803" d="M585.994,451.368h0a14.728,14.728,0,0,1-14.628-14.3A14.64,14.64,0,0,1,585.647,422.1l.346,0a14.639,14.639,0,0,1,.348,29.273Zm0-28.259-.335,0a13.625,13.625,0,0,0-13.285,13.936,13.7,13.7,0,0,0,13.608,13.3l.336,0A13.621,13.621,0,0,0,586,423.109Z" transform="translate(-571.358 -422.091)" fill="#fff"/>
            </g>
          </g>
          <path id="Trazado_55804" data-name="Trazado 55804" d="M593.5,441.489c-.04-3.88-3.169-5.21-5.892-6.2l.089-5.1a11.245,11.245,0,0,1,3.375,1.769l.446.311,1.582-2.991-.345-.243a11.045,11.045,0,0,0-5.006-2.1l.03-1.8-1.573-.029-.022,1.759c-3.371.147-5.945,2.49-5.916,5.438.037,3.586,3.222,4.923,5.721,5.852l-.091,5.692a10.151,10.151,0,0,1-4.426-2.745l-.414-.435-1.972,2.958.316.276a12.945,12.945,0,0,0,6.443,3.157l-.027,1.83,1.565.025.032-1.736C590.373,447.147,593.541,444.97,593.5,441.489Zm-9.657-9.113a2.425,2.425,0,0,1,2.283-2.347l-.078,4.669C584.883,434.173,583.853,433.455,583.844,432.376Zm3.623,11.64.087-5.257c1.343.553,2.358,1.249,2.375,2.876A2.37,2.37,0,0,1,587.466,444.016Z" transform="translate(-568.254 -418.552)" fill="#fff"/>
        </g>
      </g>
    </g>
  </g>
</svg>
