<svg xmlns="http://www.w3.org/2000/svg" width="190.223" height="158.677" viewBox="0 0 190.223 158.677">
  <g id="Group_22673" data-name="Group 22673" transform="translate(-4881.686 -1511.823)">
    <g id="Group_22665" data-name="Group 22665" transform="translate(4884.537 1514.673)">
      <g id="Group_22661" data-name="Group 22661" transform="translate(15.261)">
        <path id="Path_50183" data-name="Path 50183" d="M4941.762,1554.675a18.059,18.059,0,1,0-17.1-17.086A18.059,18.059,0,0,0,4941.762,1554.675Z" transform="translate(-4924.635 -1518.582)" fill="#c7ddeb"/>
      </g>
      <path id="Path_50184" data-name="Path 50184" d="M4929.531,1643.208v25.767h-13.119v39.257c8.938.63,13.262,11.342,13.262,11.342h-29.119v-50.915h-12.109v-37.932c0-14.493,12.253-21.74,12.253-21.74" transform="translate(-4888.447 -1570.862)" fill="#c7ddeb"/>
      <g id="Group_22663" data-name="Group 22663" transform="translate(134.108)">
        <g id="Group_22662" data-name="Group 22662">
          <path id="Path_50185" data-name="Path 50185" d="M5225.445,1554.675a18.059,18.059,0,1,1,17.1-17.086A18.06,18.06,0,0,1,5225.445,1554.675Z" transform="translate(-5206.457 -1518.582)" fill="#c7ddeb"/>
        </g>
      </g>
      <path id="Path_50186" data-name="Path 50186" d="M5257.212,1608.987s12.253,7.247,12.253,21.74v37.932h-12.109v50.915h-29.119s4.325-10.712,13.262-11.342v-39.257h-13.118v-25.767" transform="translate(-5084.944 -1570.862)" fill="#c7ddeb"/>
      <g id="Group_22664" data-name="Group 22664" transform="translate(40.478 42.939)">
        <path id="Path_50187" data-name="Path 50187" d="M4994.6,1620.4l16.29,16.289,11.477-.137a8.627,8.627,0,0,0,.328,2.883c.895,3.086,3.563,5.536,6.046,7.656.712.608,1.413,1.228,2.11,1.851H5001.8l-17.373-17.373" transform="translate(-4984.431 -1620.402)" fill="#c7ddeb"/>
        <path id="Path_50188" data-name="Path 50188" d="M5164.29,1620.4,5148,1636.691l-11.476-.137a8.591,8.591,0,0,1-.329,2.883c-.894,3.086-3.563,5.536-6.045,7.656-.712.608-1.414,1.228-2.11,1.851h29.042l17.373-17.373" transform="translate(-5067.479 -1620.402)" fill="#c7ddeb"/>
        <path id="Path_50189" data-name="Path 50189" d="M5105.557,1647.985a8.426,8.426,0,0,0-8.514-7.811c-2.971,0-5.587,2.692-7.118,4.934-1.53-2.242-4.146-4.934-7.118-4.934a8.473,8.473,0,0,0-7.5,4.464,8.05,8.05,0,0,0-.93,3.35" transform="translate(-5036.446 -1631.836)" fill="#c7ddeb"/>
        <path id="Path_50190" data-name="Path 50190" d="M5094.494,1688.084c1.99,1.78,3.941,3.6,5.989,5.327,1.474,1.244,1.7.99,2.914-.223,1.609-1.6,3.428-3.336,5.227-5.1" transform="translate(-5048.079 -1659.542)" fill="#c7ddeb"/>
      </g>
      <path id="Path_50191" data-name="Path 50191" d="M5105.336,1644q-.014-.328-.048-.662a9.373,9.373,0,0,0-8.514-8.584,9.562,9.562,0,0,1-16.441,0,9.385,9.385,0,0,0-8.481,8.754,10.421,10.421,0,0,0,.3,3.578,4.372,4.372,0,0,0,.991,1.833l15.342,16.772,14.881-16.3A7.583,7.583,0,0,0,5105.336,1644Z" transform="translate(-4994.484 -1585.755)" fill="#c7ddeb"/>
    </g>
    <g id="Group_22671" data-name="Group 22671" transform="translate(4881.686 1511.823)">
      <g id="Group_22666" data-name="Group 22666" transform="translate(15.261 0)">
        <path id="Path_50192" data-name="Path 50192" d="M4938.759,1553.64q-.524,0-1.05-.026a20.974,20.974,0,1,1,1.05.026Zm.012-36.116a15.207,15.207,0,0,0-15.174,16.011,15.325,15.325,0,0,0,14.4,14.384h0a15.208,15.208,0,0,0,15.974-15.984,15.319,15.319,0,0,0-14.391-14.39C4939.309,1517.531,4939.039,1517.524,4938.771,1517.524Z" transform="translate(-4917.874 -1511.823)" fill="#3d4451"/>
      </g>
      <path id="Path_50193" data-name="Path 50193" d="M4929.991,1718.516h-36.2V1667.6h-12.108v-40.784c0-15.936,13.095-23.864,13.653-24.193a2.851,2.851,0,0,1,2.9,4.908c-.435.261-10.853,6.662-10.853,19.285V1661.9H4899.5v50.915h21.368c-1.811-2.52-4.691-5.374-8.563-5.647l-2.651-.186v-44.767h13.118V1639.3a2.852,2.852,0,0,1,5.7,0v28.618h-13.118v34c8.764,2.3,12.869,12.223,13.054,12.683Z" transform="translate(-4881.687 -1564.101)" fill="#3d4451"/>
      <g id="Group_22668" data-name="Group 22668" transform="translate(134.108)">
        <g id="Group_22667" data-name="Group 22667">
          <path id="Path_50194" data-name="Path 50194" d="M5220.628,1553.64a20.879,20.879,0,1,1,1.05-.026h0Q5221.154,1553.641,5220.628,1553.64Zm-.012-36.116q-.4,0-.807.021a15.32,15.32,0,0,0-14.391,14.39,15.208,15.208,0,0,0,15.974,15.984h0a15.325,15.325,0,0,0,14.4-14.384,15.207,15.207,0,0,0-15.174-16.011Z" transform="translate(-5199.696 -1511.823)" fill="#3d4451"/>
        </g>
      </g>
      <path id="Path_50195" data-name="Path 50195" d="M5254.411,1718.516h-36.2l1.583-3.919c.186-.461,4.291-10.382,13.055-12.683v-34h-13.119V1639.3a2.852,2.852,0,0,1,5.7,0v22.915h13.118v44.767l-2.65.186c-2.878.2-5.554,1.832-7.954,4.841-.216.27-.418.54-.61.806h21.369V1661.9h12.109v-35.082c0-12.623-10.417-19.023-10.861-19.289a2.851,2.851,0,0,1,2.912-4.9c.557.329,13.653,8.257,13.653,24.193V1667.6h-12.109Z" transform="translate(-5076.297 -1564.102)" fill="#3d4451"/>
      <g id="Group_22669" data-name="Group 22669" transform="translate(40.477 42.937)">
        <path id="Path_50196" data-name="Path 50196" d="M5034.4,1647.885h-37.686l-18.208-18.208a2.852,2.852,0,0,1,4.033-4.033l16.538,16.538h20.519a14.812,14.812,0,0,1-3.553-5.862c-.076-.263-.143-.528-.2-.794l-10.033.12-17.139-17.138a2.852,2.852,0,1,1,4.033-4.033l15.44,15.44,13.328-.16-.171,3.048a5.754,5.754,0,0,0,.219,1.93c.666,2.3,2.914,4.364,5.159,6.282.654.559,1.341,1.161,2.16,1.893Z" transform="translate(-4977.668 -1613.639)" fill="#3d4451"/>
        <path id="Path_50197" data-name="Path 50197" d="M5148.029,1647.885h-37.685l5.561-4.977c.816-.73,1.5-1.332,2.159-1.893,2.246-1.918,4.493-3.984,5.159-6.283a5.761,5.761,0,0,0,.22-1.93l-.171-3.048,13.327.16,15.44-15.44a2.851,2.851,0,0,1,4.032,4.033l-17.139,17.138-10.032-.12q-.086.4-.2.795a14.811,14.811,0,0,1-3.553,5.862h20.519l16.538-16.538a2.851,2.851,0,0,1,4.032,4.033Z" transform="translate(-5054.394 -1613.639)" fill="#3d4451"/>
        <path id="Path_50198" data-name="Path 50198" d="M5070.469,1646.929c-.055,0-.109,0-.164,0a2.851,2.851,0,0,1-2.686-3.008,10.89,10.89,0,0,1,1.258-4.528,11.3,11.3,0,0,1,10.019-5.976,9.226,9.226,0,0,0,14.235,0,11.329,11.329,0,0,1,6.472,1.965,11.52,11.52,0,0,1,4.89,8.553,2.851,2.851,0,0,1-5.7.29,5.577,5.577,0,0,0-5.666-5.1c-1.363,0-3.233,1.448-4.763,3.69l-2.356,3.451-2.354-3.452c-1.53-2.242-3.4-3.69-4.762-3.69a5.611,5.611,0,0,0-4.984,2.951,5.213,5.213,0,0,0-.6,2.172A2.852,2.852,0,0,1,5070.469,1646.929Z" transform="translate(-5029.684 -1625.074)" fill="#3d4451"/>
        <path id="Path_50199" data-name="Path 50199" d="M5098.047,1693.177a5.236,5.236,0,0,1-3.313-1.5c-1.487-1.256-2.931-2.562-4.327-3.826q-.861-.779-1.724-1.554a2.851,2.851,0,0,1,3.8-4.25q.877.784,1.749,1.576c1.187,1.074,2.408,2.18,3.639,3.237.835-.827,1.707-1.672,2.623-2.56.732-.711,1.478-1.434,2.221-2.162a2.851,2.851,0,1,1,4,4.069c-.75.738-1.5,1.469-2.246,2.188-1.048,1.016-2.038,1.975-2.965,2.9l-.04.04A5,5,0,0,1,5098.047,1693.177Z" transform="translate(-5041.317 -1652.78)" fill="#3d4451"/>
      </g>
      <g id="Group_22670" data-name="Group 22670" transform="translate(77.326 48.984)">
        <path id="Path_50200" data-name="Path 50200" d="M5105.336,1644q-.014-.328-.048-.662a9.373,9.373,0,0,0-8.514-8.584,9.562,9.562,0,0,1-16.441,0,9.385,9.385,0,0,0-8.481,8.754,10.421,10.421,0,0,0,.3,3.578,4.372,4.372,0,0,0,.991,1.833l15.342,16.772,14.881-16.3A7.583,7.583,0,0,0,5105.336,1644Z" transform="translate(-5068.959 -1631.888)" fill="#f04f4c"/>
        <path id="Path_50201" data-name="Path 50201" d="M5084.579,1666.009l-17.449-19.074a7.246,7.246,0,0,1-1.644-3.028,13.291,13.291,0,0,1-.386-4.555A12.249,12.249,0,0,1,5076.255,1628a13.2,13.2,0,0,0,16.76,0,12.255,12.255,0,0,1,11.2,11.138q.043.421.06.837a10.467,10.467,0,0,1-2.712,7.441Zm-7.658-32.328q-.165,0-.33.01a6.523,6.523,0,0,0-5.809,6.155,7.571,7.571,0,0,0,.218,2.6,1.517,1.517,0,0,0,.338.638l13.237,14.47,12.775-13.992a4.719,4.719,0,0,0,1.226-3.358h0q-.01-.241-.035-.486a6.519,6.519,0,0,0-5.83-6.031,6.06,6.06,0,0,0-5.559,3.23l-2.485,4.419-2.485-4.419A6.091,6.091,0,0,0,5076.921,1633.681Z" transform="translate(-5065.049 -1627.978)" fill="#3d4451"/>
      </g>
    </g>
    <g id="Group_22672" data-name="Group 22672" transform="translate(4945.578 1602.673)">
      <path id="Path_50202" data-name="Path 50202" d="M5098.891,1787.932l-22.487,12.685-22.487-12.685v-25.371l22.487-12.686,22.487,12.686Z" transform="translate(-5045.177 -1740.336)" fill="#fdc345"/>
      <path id="Path_50203" data-name="Path 50203" d="M5064.584,1795.083l-31.39-16.889v-34.049l31.39-16.888,31.391,16.888v34.049Zm-26.821-19.619,26.821,14.431,26.822-14.431v-28.589l-26.822-14.43-26.821,14.43Z" transform="translate(-5033.194 -1727.256)" fill="#3d4451"/>
      <rect id="Rectangle_5145" data-name="Rectangle 5145" width="4.569" height="32.218" transform="translate(28.675 33.117)" fill="#3d4451"/>
      <rect id="Rectangle_5146" data-name="Rectangle 5146" width="32.856" height="4.568" transform="translate(30.326 31.098) rotate(-26.93)" fill="#3d4451"/>
      <rect id="Rectangle_5147" data-name="Rectangle 5147" width="4.569" height="32.608" transform="matrix(0.456, -0.89, 0.89, 0.456, 1.304, 20.286)" fill="#3d4451"/>
      <rect id="Rectangle_5148" data-name="Rectangle 5148" width="4.569" height="32.773" transform="matrix(0.47, -0.882, 0.882, 0.47, 16.638, 12.075)" fill="#3d4451"/>
    </g>
  </g>
</svg>
