<svg xmlns="http://www.w3.org/2000/svg" xmlns:xlink="http://www.w3.org/1999/xlink" width="314.234" height="307.181" viewBox="0 0 314.234 307.181">
  <defs>
    <linearGradient id="linear-gradient" x1="0.741" y1="0.163" x2="0.337" y2="0.853" gradientUnits="objectBoundingBox">
      <stop offset="0" stop-color="#81411c"/>
      <stop offset="1" stop-color="#652c14"/>
    </linearGradient>
    <linearGradient id="linear-gradient-2" x1="0.814" y1="0.162" x2="0.198" y2="0.939" xlink:href="#linear-gradient"/>
  </defs>
  <g id="Group_22603" data-name="Group 22603" transform="translate(-51.617 -601.802)">
    <path id="Path_49920" data-name="Path 49920" d="M51.617,1064.608c0-8.3,70.344-15.022,157.117-15.022s157.117,6.725,157.117,15.022-70.344,15.018-157.117,15.018S51.617,1072.9,51.617,1064.608Z" transform="translate(0 -170.643)" fill="#fff"/>
    <g id="Group_22589" data-name="Group 22589" transform="translate(72.703 601.802)">
      <path id="Path_49921" data-name="Path 49921" d="M85.686,601.8l6.129,113.276,248.416-.387,10.025-111.846Z" transform="translate(-85.686 -601.802)" fill="#f4dcaf"/>
      <path id="Path_49922" data-name="Path 49922" d="M153,627.049h32.291l-1.043,7.291-29.686,1.042Z" transform="translate(-111.339 -611.423)" fill="#fff"/>
      <path id="Path_49923" data-name="Path 49923" d="M189.189,644.878h11.457l-1.042,5.534H190.23Z" transform="translate(-125.129 -618.217)" fill="#fff"/>
      <path id="Path_49924" data-name="Path 49924" d="M283.855,628.732H319.27l-1.042,7.291-33.592,1.042Z" transform="translate(-161.205 -612.064)" fill="#fff"/>
      <path id="Path_49925" data-name="Path 49925" d="M323.826,646.561h11.457l-1.042,5.534H324.086Z" transform="translate(-176.437 -618.859)" fill="#fff"/>
      <path id="Path_49926" data-name="Path 49926" d="M150.48,671.648h36.337l-1.121,7.291-34.314,1.042Z" transform="translate(-110.377 -628.419)" fill="#fff"/>
      <path id="Path_49927" data-name="Path 49927" d="M193.6,689.477H204.93l-1.03,5.534h-9.927Z" transform="translate(-126.809 -635.213)" fill="#fff"/>
      <path id="Path_49928" data-name="Path 49928" d="M435.321,634.623h34.634l-2.6,7.291L436.1,642.956Z" transform="translate(-218.926 -614.309)" fill="#fff"/>
      <path id="Path_49929" data-name="Path 49929" d="M472.768,652.452h12.239l-1.823,5.534H474.59Z" transform="translate(-233.196 -621.104)" fill="#fff"/>
      <path id="Path_49930" data-name="Path 49930" d="M437,736.441h31.578l-2.375,7.292-28.492,1.042Z" transform="translate(-219.567 -653.111)" fill="#fff"/>
      <path id="Path_49931" data-name="Path 49931" d="M471.146,754.271h11.159l-1.662,5.534h-7.836Z" transform="translate(-232.578 -659.905)" fill="#fff"/>
      <path id="Path_49932" data-name="Path 49932" d="M432.8,679.221h37.9l-1.122,7.292L433.7,687.555Z" transform="translate(-217.964 -631.305)" fill="#fff"/>
      <path id="Path_49933" data-name="Path 49933" d="M477.176,697.05h11.333l-1.031,5.534h-9.927Z" transform="translate(-234.876 -638.099)" fill="#fff"/>
      <path id="Path_49934" data-name="Path 49934" d="M150.48,724.661l44.93.781-.34,7.292-43.689.26Z" transform="translate(-110.377 -648.621)" fill="#fff"/>
      <path id="Path_49935" data-name="Path 49935" d="M193.6,742.49h12.115l-.25,5.534H194.755Z" transform="translate(-126.809 -655.416)" fill="#fff"/>
      <g id="Group_22582" data-name="Group 22582" transform="translate(13.43 13.077)" opacity="0.9">
        <path id="Path_49936" data-name="Path 49936" d="M126.871,642.146a3.775,3.775,0,0,1-1.712.268c-.509-.1-.878-.677-1.406-.658-.665.023-.6.911-.982,1.24a2.092,2.092,0,0,1-1.745.358,2,2,0,0,1-.289-.041c-.532-.114-.973-.408-1.551-.483a13.917,13.917,0,0,0-1.769-.35c-.85.075-.93.893-1.815.665-.761-.2-.91-1.173-1.665-1.29-.7-.106-1.265.69-2.04.6-1.04-.126-.905-.662-1.088-1.51-.154-.717-.206-.826-.411-.844,0,.079-.018.154-.017.235.028,3.083,4.3,3.923,9.37,3.923,4.808,0,8.519-.886,8.935-3.543A4.108,4.108,0,0,1,126.871,642.146Z" transform="translate(-108.526 -629.473)" fill="#f79e45"/>
        <path id="Path_49937" data-name="Path 49937" d="M126.871,642.146a3.775,3.775,0,0,1-1.712.268c-.509-.1-.878-.677-1.406-.658-.665.023-.6.911-.982,1.24a2.092,2.092,0,0,1-1.745.358,2,2,0,0,1-.289-.041c-.532-.114-.973-.408-1.551-.483a13.917,13.917,0,0,0-1.769-.35c-.85.075-.93.893-1.815.665-.761-.2-.91-1.173-1.665-1.29-.7-.106-1.265.69-2.04.6-1.04-.126-.905-.662-1.088-1.51-.154-.717-.206-.826-.411-.844,0,.079-.018.154-.017.235.028,3.083,4.3,3.923,9.37,3.923,4.808,0,8.519-.886,8.935-3.543A4.108,4.108,0,0,1,126.871,642.146Z" transform="translate(-108.526 -629.473)" fill="#f79e45" opacity="0.3" style="mix-blend-mode: multiply;isolation: isolate"/>
        <path id="Path_49938" data-name="Path 49938" d="M127.548,633.673l-.04.029a2.147,2.147,0,0,1,.166.81c-.01,2.388-4.19,4.309-9.338,4.29s-9.317-1.969-9.308-4.357a2.123,2.123,0,0,1,.178-.827c-.16-.262-.336-.536-.5-.815-1.162,1.483-2.158,3.905-.257,4.42a2.975,2.975,0,0,0,.806.1c.2.018.257.127.411.844.183.848.048,1.384,1.088,1.51.775.093,1.338-.7,2.04-.6.755.116.9,1.092,1.665,1.29.885.228.966-.59,1.815-.665a13.948,13.948,0,0,1,1.769.35c.578.075,1.019.37,1.551.483a2.02,2.02,0,0,0,.289.041,2.092,2.092,0,0,0,1.745-.358c.378-.329.317-1.217.982-1.24.528-.019.9.558,1.406.658a3.775,3.775,0,0,0,1.712-.268,4.107,4.107,0,0,0,1.815-1.432,7.264,7.264,0,0,0,.873-1.573C128.915,635.155,128.744,633.934,127.548,633.673Z" transform="translate(-107.384 -626.693)" fill="#9cbc75"/>
        <path id="Path_49939" data-name="Path 49939" d="M127.517,635.235c-.681,1.5-.192,1.67-1.609.805-1.1-.671-2.135-.091-3.306-.139-.605-.027-1.153-.277-1.768-.247a15.7,15.7,0,0,0-2.224.561,5.156,5.156,0,0,1-2.129-.093,11.951,11.951,0,0,0-3.487-.1c-.573.087-1.578.736-2.127.382-.509-.329-.1-.963-.241-1.459a3.756,3.756,0,0,0-.407-.826,2.124,2.124,0,0,0-.178.827c-.009,2.388,4.159,4.339,9.308,4.357s9.328-1.9,9.338-4.29a2.147,2.147,0,0,0-.166-.81A2.725,2.725,0,0,0,127.517,635.235Z" transform="translate(-108.397 -627.194)" fill="#6d381d"/>
        <path id="Path_49940" data-name="Path 49940" d="M110.119,632.84c.145.5-.268,1.131.241,1.459.549.354,1.553-.295,2.127-.382a11.958,11.958,0,0,1,3.487.1,5.158,5.158,0,0,0,2.129.094,15.68,15.68,0,0,1,2.224-.561c.615-.03,1.163.22,1.768.247,1.172.048,2.21-.532,3.306.139,1.417.865.927.7,1.609-.805a2.723,2.723,0,0,1,1-1.031l.04-.029a1.4,1.4,0,0,0,.71-1.241,2.306,2.306,0,0,0-1.018-1.968c0,.053.014.1.015.155.027,3.083-3.852,4.089-8.976,4.089-5.066,0-9.342-.839-9.37-3.923a3.171,3.171,0,0,1,.052-.589c-.025.015-.05.025-.075.042-1.052.73-.7,1.671-.181,2.564.163.279.34.553.5.815A3.756,3.756,0,0,1,110.119,632.84Z" transform="translate(-107.89 -625.088)" fill="#faca50"/>
        <path id="Path_49941" data-name="Path 49941" d="M119.22,630.946c5.124,0,9-1.005,8.976-4.089,0-.054-.012-.1-.015-.155-.168-2.954-4.246-3.816-9.224-3.771-4.727.043-8.583.885-9.055,3.5a3.171,3.171,0,0,0-.052.589C109.878,630.107,114.155,630.946,119.22,630.946Zm3.832-4.419c.12-.044.307.154.417.446s.1.563-.024.608-.306-.153-.415-.444S122.933,626.573,123.053,626.527Zm-1,1.923c-.024.128-.289.186-.594.131s-.536-.2-.511-.33.288-.186.593-.131S122.07,628.325,122.048,628.451Zm-4.667.918c-.041.123-.314.143-.607.045s-.5-.28-.458-.4.313-.142.607-.043S117.422,629.249,117.381,629.369Zm-4.224-.608c-.1-.087-.006-.344.2-.576s.453-.349.548-.262.007.344-.2.576S113.254,628.846,113.157,628.761Zm12.5-.574c-.208.232-.454.349-.55.262s-.006-.343.2-.574.454-.348.549-.262S125.866,627.956,125.659,628.187Zm.77-2.664c.129-.005.241.244.251.554s-.089.564-.217.569-.241-.244-.251-.555S126.3,625.528,126.429,625.523Zm-4.23-1.565c.207-.23.454-.348.55-.262s.007.343-.2.574-.454.349-.548.263S121.993,624.189,122.2,623.958Zm-2.874,1.387c.121.045.133.318.028.608s-.292.491-.413.448-.134-.317-.028-.607S119.2,625.3,119.324,625.345Zm-3.564-1.125c.205-.231.454-.348.549-.262s.006.344-.2.576-.454.349-.55.262S115.553,624.451,115.761,624.221Zm-4.574,1.262c.107-.292.292-.493.413-.449s.134.316.027.608-.292.492-.412.448S111.081,625.773,111.187,625.483Z" transform="translate(-108.324 -622.93)" fill="#f79e45"/>
        <path id="Path_49942" data-name="Path 49942" d="M127.773,631.435c-.025.128.206.275.511.331s.57,0,.594-.131-.207-.274-.512-.33S127.795,631.309,127.773,631.435Z" transform="translate(-115.153 -626.114)" fill="#fcddb1"/>
        <path id="Path_49943" data-name="Path 49943" d="M130.005,624.724c.207-.23.3-.489.2-.574s-.342.032-.55.262-.3.488-.2.575S129.8,624.956,130.005,624.724Z" transform="translate(-115.781 -623.384)" fill="#fcddb1"/>
        <path id="Path_49944" data-name="Path 49944" d="M134.681,630.741c-.207.231-.3.488-.2.574s.342-.03.55-.262.3-.489.2-.574S134.888,630.51,134.681,630.741Z" transform="translate(-117.696 -625.797)" fill="#fcddb1"/>
        <path id="Path_49945" data-name="Path 49945" d="M124.474,627.885c.121.043.306-.155.413-.448s.093-.564-.028-.608-.306.158-.413.45S124.353,627.841,124.474,627.885Z" transform="translate(-113.859 -624.414)" fill="#fcddb1"/>
        <path id="Path_49946" data-name="Path 49946" d="M112.406,626.933c.107-.292.093-.564-.027-.608s-.306.157-.413.449-.092.563.028.607S112.3,627.225,112.406,626.933Z" transform="translate(-109.103 -624.222)" fill="#fcddb1"/>
        <path id="Path_49947" data-name="Path 49947" d="M115.919,630.98c-.1-.087-.342.031-.548.262s-.3.489-.2.576.343-.032.55-.262S116.016,631.067,115.919,630.98Z" transform="translate(-110.337 -625.987)" fill="#fcddb1"/>
        <path id="Path_49948" data-name="Path 49948" d="M119.6,625.149c.205-.232.3-.49.2-.576s-.344.032-.549.262-.3.489-.2.575S119.395,625.38,119.6,625.149Z" transform="translate(-111.816 -623.546)" fill="#fcddb1"/>
        <path id="Path_49949" data-name="Path 49949" d="M136.287,627.689c.01.311.122.558.251.555s.227-.259.217-.569-.122-.559-.251-.554S136.277,627.379,136.287,627.689Z" transform="translate(-118.398 -624.527)" fill="#fcddb1"/>
        <path id="Path_49950" data-name="Path 49950" d="M131.515,629.792c.121-.045.131-.318.023-.608s-.3-.49-.417-.446-.131.319-.022.609S131.4,629.837,131.515,629.792Z" transform="translate(-116.393 -625.141)" fill="#fcddb1"/>
        <path id="Path_49951" data-name="Path 49951" d="M120.294,632.692c-.041.122.163.3.458.4s.566.078.607-.045-.165-.3-.459-.4S120.335,632.57,120.294,632.692Z" transform="translate(-112.302 -626.61)" fill="#fcddb1"/>
      </g>
      <g id="Group_22583" data-name="Group 22583" transform="translate(13.429 40.159)" opacity="0.9">
        <path id="Path_49952" data-name="Path 49952" d="M126.871,684.641a3.776,3.776,0,0,1-1.712.268c-.509-.1-.878-.677-1.406-.658-.665.024-.6.911-.982,1.24a3.08,3.08,0,0,1-2.034.318c-.532-.115-.973-.409-1.551-.483a13.934,13.934,0,0,0-1.769-.35c-.85.075-.93.893-1.815.664-.761-.2-.91-1.173-1.665-1.289-.7-.107-1.265.689-2.04.6-1.04-.125-.905-.662-1.088-1.509-.154-.717-.206-.826-.411-.844,0,.079-.018.154-.017.236.028,3.083,4.3,3.923,9.37,3.923,4.808,0,8.519-.886,8.935-3.543A4.1,4.1,0,0,1,126.871,684.641Z" transform="translate(-108.526 -672.749)" fill="#f79e45"/>
        <path id="Path_49953" data-name="Path 49953" d="M126.871,684.641a3.776,3.776,0,0,1-1.712.268c-.509-.1-.878-.677-1.406-.658-.665.024-.6.911-.982,1.24a3.08,3.08,0,0,1-2.034.318c-.532-.115-.973-.409-1.551-.483a13.934,13.934,0,0,0-1.769-.35c-.85.075-.93.893-1.815.664-.761-.2-.91-1.173-1.665-1.289-.7-.107-1.265.689-2.04.6-1.04-.125-.905-.662-1.088-1.509-.154-.717-.206-.826-.411-.844,0,.079-.018.154-.017.236.028,3.083,4.3,3.923,9.37,3.923,4.808,0,8.519-.886,8.935-3.543A4.1,4.1,0,0,1,126.871,684.641Z" transform="translate(-108.526 -672.749)" fill="#f79e45" opacity="0.3" style="mix-blend-mode: multiply;isolation: isolate"/>
        <path id="Path_49954" data-name="Path 49954" d="M127.984,676.083a2.063,2.063,0,0,1,.129.679c-.01,2.388-4.387,4.308-9.777,4.289s-9.757-1.971-9.747-4.358a2.376,2.376,0,0,1,.666-1.552,2.636,2.636,0,0,1-.207-.49c-1.284,1.4-2.686,4.256-.6,4.821a2.977,2.977,0,0,0,.806.1c.2.018.257.127.411.844.183.847.048,1.384,1.088,1.509.775.093,1.338-.7,2.04-.6.755.116.9,1.092,1.665,1.289.885.229.965-.589,1.815-.664a13.934,13.934,0,0,1,1.769.35c.578.074,1.019.369,1.551.483a3.082,3.082,0,0,0,2.034-.318c.378-.329.317-1.217.982-1.24.528-.018.9.559,1.406.658a3.777,3.777,0,0,0,1.712-.268,4.1,4.1,0,0,0,1.815-1.432,7.266,7.266,0,0,0,.873-1.573C128.846,677.57,128.775,676.521,127.984,676.083Z" transform="translate(-107.383 -669.722)" fill="#9cbc75"/>
        <path id="Path_49955" data-name="Path 49955" d="M119.023,677.828c-4.244,0-7.923-.595-9.025-2.6a2.376,2.376,0,0,0-.666,1.552c-.01,2.388,4.354,4.339,9.747,4.358s9.767-1.9,9.777-4.289a2.062,2.062,0,0,0-.129-.679,3.13,3.13,0,0,0-.935-1.287C126.938,677.076,123.448,677.828,119.023,677.828Z" transform="translate(-108.126 -669.812)" fill="#6d381d"/>
        <path id="Path_49956" data-name="Path 49956" d="M119.22,674.7c4.425,0,7.915-.753,8.769-2.942a3.059,3.059,0,0,0,.207-1.146c-.028-3.083-4.173-3.972-9.239-3.927s-9.135,1.008-9.107,4.092a2.866,2.866,0,0,0,.139.835,2.636,2.636,0,0,0,.207.49C111.3,674.109,114.976,674.7,119.22,674.7Zm3.832-4.419c.12-.045.307.154.417.445s.1.563-.024.608-.306-.153-.415-.444S122.933,670.331,123.053,670.285Zm-1.6,2.054c-.305-.055-.536-.2-.511-.33s.288-.186.593-.131.534.2.512.329S121.759,672.394,121.455,672.339Zm-7.748-.083c-.207.231-.453.347-.55.262s-.006-.343.2-.576.453-.348.548-.262S113.914,672.024,113.707,672.256Zm3.067.915c-.295-.1-.5-.28-.458-.4s.313-.142.607-.043.5.28.459.4S117.066,673.27,116.774,673.172Zm8.535-1.539c.207-.232.454-.349.549-.262s.007.344-.2.574-.454.348-.55.262S125.1,671.864,125.309,671.633Zm1.12-2.352c.129-.005.241.244.251.553s-.089.565-.217.569-.241-.244-.251-.554S126.3,669.285,126.429,669.281Zm-4.23-1.566c.207-.23.454-.348.55-.262s.007.344-.2.574-.454.348-.548.263S121.992,667.946,122.2,667.715Zm-2.874,1.387c.121.045.133.319.028.609s-.292.491-.413.447-.134-.316-.028-.606S119.2,669.059,119.324,669.1Zm-3.564-1.125c.205-.231.454-.348.549-.262s.006.343-.2.575-.454.348-.55.262S115.553,668.208,115.761,667.978Zm-4.574,1.262c.107-.292.292-.492.413-.449s.134.317.027.608-.292.492-.412.448S111.081,669.53,111.187,669.24Z" transform="translate(-108.323 -666.687)" fill="#f79e45"/>
        <path id="Path_49957" data-name="Path 49957" d="M128.366,675.062c-.3-.055-.571,0-.593.131s.206.275.511.33.57,0,.594-.131S128.671,675.117,128.366,675.062Z" transform="translate(-115.153 -669.871)" fill="#fcddb1"/>
        <path id="Path_49958" data-name="Path 49958" d="M130.005,668.481c.207-.23.3-.49.2-.574s-.342.032-.55.262-.3.488-.2.575S129.8,668.713,130.005,668.481Z" transform="translate(-115.78 -667.142)" fill="#fcddb1"/>
        <path id="Path_49959" data-name="Path 49959" d="M135.031,674.811c.207-.231.3-.489.2-.574s-.342.031-.549.262-.3.488-.2.574S134.823,675.043,135.031,674.811Z" transform="translate(-117.695 -669.553)" fill="#fcddb1"/>
        <path id="Path_49960" data-name="Path 49960" d="M124.446,671.035c-.106.29-.093.563.028.607s.306-.155.413-.448.093-.564-.028-.609S124.554,670.743,124.446,671.035Z" transform="translate(-113.858 -668.171)" fill="#fcddb1"/>
        <path id="Path_49961" data-name="Path 49961" d="M112.406,670.691c.107-.292.093-.564-.027-.608s-.306.157-.413.449-.092.563.028.607S112.3,670.982,112.406,670.691Z" transform="translate(-109.102 -667.979)" fill="#fcddb1"/>
        <path id="Path_49962" data-name="Path 49962" d="M115.371,675c-.207.233-.3.49-.2.576s.343-.031.55-.262.3-.488.2-.576S115.577,674.769,115.371,675Z" transform="translate(-110.336 -669.744)" fill="#fcddb1"/>
        <path id="Path_49963" data-name="Path 49963" d="M119.6,668.907c.205-.231.3-.49.2-.575s-.344.031-.549.262-.3.49-.2.576S119.395,669.137,119.6,668.907Z" transform="translate(-111.816 -667.303)" fill="#fcddb1"/>
        <path id="Path_49964" data-name="Path 49964" d="M136.538,672c.128,0,.227-.259.217-.569s-.122-.558-.251-.553-.227.258-.217.569S136.408,672,136.538,672Z" transform="translate(-118.398 -668.284)" fill="#fcddb1"/>
        <path id="Path_49965" data-name="Path 49965" d="M131.515,673.55c.121-.045.131-.318.023-.608s-.3-.49-.417-.445-.131.318-.022.609S131.4,673.594,131.515,673.55Z" transform="translate(-116.393 -668.899)" fill="#fcddb1"/>
        <path id="Path_49966" data-name="Path 49966" d="M120.9,676.406c-.293-.1-.566-.079-.607.043s.163.3.458.4.566.077.607-.045S121.194,676.5,120.9,676.406Z" transform="translate(-112.301 -670.367)" fill="#fcddb1"/>
      </g>
      <g id="Group_22584" data-name="Group 22584" transform="translate(13.43 71.407)" opacity="0.9">
        <path id="Path_49967" data-name="Path 49967" d="M126.871,745.017a3.776,3.776,0,0,1-1.712.268c-.509-.1-.878-.677-1.406-.658-.665.024-.6.911-.982,1.24a2.093,2.093,0,0,1-1.745.358,2,2,0,0,1-.289-.041c-.532-.114-.973-.409-1.551-.483a13.949,13.949,0,0,0-1.769-.35c-.85.075-.93.893-1.815.664-.761-.2-.91-1.173-1.665-1.289-.7-.107-1.265.689-2.04.6-1.04-.126-.905-.662-1.088-1.509-.154-.717-.206-.826-.411-.844,0,.079-.018.154-.017.235.028,3.083,4.3,3.923,9.37,3.923,4.808,0,8.519-.886,8.935-3.543A4.109,4.109,0,0,1,126.871,745.017Z" transform="translate(-108.526 -727.005)" fill="#f79e45"/>
        <path id="Path_49968" data-name="Path 49968" d="M126.871,745.017a3.776,3.776,0,0,1-1.712.268c-.509-.1-.878-.677-1.406-.658-.665.024-.6.911-.982,1.24a2.093,2.093,0,0,1-1.745.358,2,2,0,0,1-.289-.041c-.532-.114-.973-.409-1.551-.483a13.949,13.949,0,0,0-1.769-.35c-.85.075-.93.893-1.815.664-.761-.2-.91-1.173-1.665-1.289-.7-.107-1.265.689-2.04.6-1.04-.126-.905-.662-1.088-1.509-.154-.717-.206-.826-.411-.844,0,.079-.018.154-.017.235.028,3.083,4.3,3.923,9.37,3.923,4.808,0,8.519-.886,8.935-3.543A4.109,4.109,0,0,1,126.871,745.017Z" transform="translate(-108.526 -727.005)" fill="#f79e45" opacity="0.3" style="mix-blend-mode: multiply;isolation: isolate"/>
        <path id="Path_49969" data-name="Path 49969" d="M127.675,737.383c-.01,2.389-4.19,4.309-9.338,4.29s-9.317-1.969-9.308-4.357a2.126,2.126,0,0,1,.178-.827c-.16-.262-.336-.535-.5-.815-1.162,1.482-2.158,3.905-.257,4.42a3,3,0,0,0,.806.1c.2.018.257.127.411.844.183.847.048,1.383,1.088,1.509.775.094,1.338-.7,2.04-.6.755.116.9,1.092,1.665,1.289.885.229.966-.589,1.815-.664a13.949,13.949,0,0,1,1.769.35c.578.075,1.019.37,1.551.483a1.986,1.986,0,0,0,.289.041,2.093,2.093,0,0,0,1.745-.358c.378-.329.317-1.217.982-1.24.528-.019.9.558,1.406.658a3.778,3.778,0,0,0,1.712-.268,4.109,4.109,0,0,0,1.815-1.432,7.281,7.281,0,0,0,.873-1.573c.5-1.206.326-2.427-.869-2.688l-.04.029A2.147,2.147,0,0,1,127.675,737.383Z" transform="translate(-107.384 -724.225)" fill="#9cbc75"/>
        <path id="Path_49970" data-name="Path 49970" d="M116.48,738.993a11.958,11.958,0,0,0-3.487-.1c-.573.088-1.578.736-2.127.383-.509-.329-.1-.964-.241-1.46a3.756,3.756,0,0,0-.407-.826,2.126,2.126,0,0,0-.178.827c-.009,2.388,4.159,4.339,9.308,4.357s9.328-1.9,9.338-4.29a2.146,2.146,0,0,0-.166-.81,2.724,2.724,0,0,0-1,1.031c-.681,1.5-.192,1.67-1.609.805-1.1-.671-2.135-.091-3.306-.139a5.2,5.2,0,0,1-.878-.145,5.79,5.79,0,0,1-.828-.018,2.074,2.074,0,0,1-.289-.041l-.023-.007c-.671.095-1.314.392-1.975.525A5.169,5.169,0,0,1,116.48,738.993Z" transform="translate(-108.397 -724.727)" fill="#6d381d"/>
        <path id="Path_49971" data-name="Path 49971" d="M133.935,736.192a3.776,3.776,0,0,1-1.712.269c-.509-.1-.878-.677-1.406-.658-.665.023-.6.911-.982,1.24a1.484,1.484,0,0,1-.917.377,5.2,5.2,0,0,0,.878.145c1.172.048,2.21-.532,3.306.139,1.417.865.927.7,1.609-.805a2.724,2.724,0,0,1,1-1.031l.04-.029a1.4,1.4,0,0,0,.71-1.241,2.686,2.686,0,0,0-.135-.777A4.606,4.606,0,0,1,133.935,736.192Z" transform="translate(-115.59 -723.518)" fill="#faca50"/>
        <path id="Path_49972" data-name="Path 49972" d="M110.155,736.7c.145.5-.268,1.131.241,1.46.549.353,1.553-.295,2.127-.382a11.952,11.952,0,0,1,3.487.1,5.167,5.167,0,0,0,2.129.093c.661-.132,1.3-.43,1.975-.525a14.988,14.988,0,0,0-1.528-.477,14.03,14.03,0,0,0-1.769-.35c-.85.076-.93.893-1.815.665-.761-.2-.91-1.173-1.665-1.289-.7-.106-1.265.689-2.04.6-1.04-.126-.905-.661-1.088-1.509-.268-1.245-.211-.667-1.217-.94a1.52,1.52,0,0,1-.186-.074,3.984,3.984,0,0,0,.443.993c.163.28.34.553.5.815A3.755,3.755,0,0,1,110.155,736.7Z" transform="translate(-107.926 -723.614)" fill="#faca50"/>
        <path id="Path_49973" data-name="Path 49973" d="M127.555,727.919l-.04.03a2.141,2.141,0,0,1,.166.81c-.01,2.388-4.19,4.308-9.338,4.29s-9.317-1.969-9.308-4.357a2.122,2.122,0,0,1,.178-.827c-.16-.262-.336-.536-.5-.815-1.118,1.427-2.068,3.717-.443,4.345a1.5,1.5,0,0,0,.186.074c1.006.272.949-.306,1.217.94.183.848.048,1.384,1.088,1.509.775.093,1.338-.7,2.04-.6.755.116.9,1.092,1.665,1.289.885.228.966-.589,1.815-.665a14.041,14.041,0,0,1,1.769.35,14.988,14.988,0,0,1,1.528.477l.023.007a2.065,2.065,0,0,0,.289.041,5.773,5.773,0,0,0,.828.018,1.484,1.484,0,0,0,.917-.377c.378-.329.317-1.217.982-1.24.528-.019.9.558,1.406.658a3.775,3.775,0,0,0,1.712-.269,4.605,4.605,0,0,0,2.395-2.372c.105-.207.205-.417.294-.633C128.921,729.4,128.75,728.18,127.555,727.919Z" transform="translate(-107.39 -720.938)" fill="#9cbc75"/>
        <path id="Path_49974" data-name="Path 49974" d="M127.517,729.481c-.681,1.5-.192,1.67-1.609.8-1.1-.67-2.135-.09-3.306-.139-.605-.027-1.153-.278-1.768-.247a15.607,15.607,0,0,0-2.224.561,5.157,5.157,0,0,1-2.129-.094,12,12,0,0,0-3.487-.1c-.573.088-1.578.736-2.127.383-.509-.329-.1-.964-.241-1.459a3.744,3.744,0,0,0-.407-.826,2.122,2.122,0,0,0-.178.827c-.009,2.388,4.159,4.339,9.308,4.357s9.328-1.9,9.338-4.29a2.142,2.142,0,0,0-.166-.81A2.719,2.719,0,0,0,127.517,729.481Z" transform="translate(-108.397 -721.44)" fill="#6d381d"/>
        <path id="Path_49975" data-name="Path 49975" d="M110.119,727.086c.145.5-.268,1.13.241,1.459.549.354,1.553-.295,2.127-.383a12,12,0,0,1,3.487.1,5.157,5.157,0,0,0,2.129.094,15.615,15.615,0,0,1,2.224-.561c.615-.031,1.163.22,1.768.247,1.172.048,2.21-.532,3.306.139,1.417.865.927.7,1.609-.8a2.72,2.72,0,0,1,1-1.031l.04-.03a1.4,1.4,0,0,0,.71-1.24,2.308,2.308,0,0,0-1.018-1.968c0,.053.014.1.015.156.027,3.084-3.852,4.089-8.976,4.089-5.066,0-9.342-.839-9.37-3.922a3.179,3.179,0,0,1,.052-.59c-.025.015-.05.025-.075.042-1.052.73-.7,1.671-.181,2.565.163.279.34.553.5.815A3.742,3.742,0,0,1,110.119,727.086Z" transform="translate(-107.89 -719.333)" fill="#faca50"/>
        <path id="Path_49976" data-name="Path 49976" d="M119.22,725.192c5.124,0,9-1.005,8.976-4.089,0-.054-.012-.1-.015-.156-.168-2.953-4.246-3.816-9.224-3.77-4.727.043-8.583.885-9.055,3.5a3.18,3.18,0,0,0-.052.59C109.878,724.353,114.155,725.192,119.22,725.192Zm-5.513-2.448c-.207.231-.453.347-.55.262s-.006-.344.2-.576.453-.349.548-.262S113.914,722.512,113.707,722.744Zm3.067.915c-.295-.1-.5-.28-.458-.4s.313-.142.607-.043.5.28.459.4S117.067,723.758,116.774,723.659Zm6.279-2.886c.12-.044.307.154.417.445s.1.563-.024.608-.306-.154-.415-.444S122.933,720.819,123.053,720.773Zm-1,1.924c-.024.127-.289.186-.594.131s-.536-.2-.511-.331.288-.185.593-.13S122.07,722.57,122.048,722.7Zm3.611-.264c-.208.232-.454.348-.55.262s-.006-.343.2-.574.454-.349.549-.262S125.866,722.2,125.659,722.433Zm.77-2.664c.129-.005.241.244.251.553s-.089.565-.217.569-.241-.244-.251-.554S126.3,719.773,126.429,719.769ZM122.2,718.2c.207-.23.454-.348.55-.261s.007.343-.2.574-.454.348-.548.262S121.993,718.434,122.2,718.2Zm-2.874,1.387c.121.045.133.319.028.609s-.292.491-.413.448-.134-.317-.028-.607S119.2,719.547,119.324,719.59Zm-3.564-1.124c.205-.231.454-.348.549-.263s.006.344-.2.576-.454.348-.55.262S115.553,718.7,115.761,718.466Zm-4.574,1.261c.107-.291.292-.492.413-.448s.134.316.027.608-.292.492-.412.448S111.081,720.018,111.187,719.728Z" transform="translate(-108.324 -717.175)" fill="#f79e45"/>
        <path id="Path_49977" data-name="Path 49977" d="M127.773,725.68c-.025.127.206.275.511.331s.57,0,.594-.131-.207-.275-.512-.33S127.795,725.555,127.773,725.68Z" transform="translate(-115.153 -720.359)" fill="#fcddb1"/>
        <path id="Path_49978" data-name="Path 49978" d="M130.005,718.97c.207-.231.3-.49.2-.574s-.342.031-.55.261-.3.488-.2.575S129.8,719.2,130.005,718.97Z" transform="translate(-115.781 -717.63)" fill="#fcddb1"/>
        <path id="Path_49979" data-name="Path 49979" d="M134.681,724.987c-.207.231-.3.488-.2.574s.342-.03.55-.262.3-.489.2-.574S134.888,724.755,134.681,724.987Z" transform="translate(-117.696 -720.042)" fill="#fcddb1"/>
        <path id="Path_49980" data-name="Path 49980" d="M124.474,722.13c.121.043.306-.156.413-.448s.093-.564-.028-.609-.306.158-.413.45S124.353,722.087,124.474,722.13Z" transform="translate(-113.859 -718.659)" fill="#fcddb1"/>
        <path id="Path_49981" data-name="Path 49981" d="M112.406,721.179c.107-.291.093-.564-.027-.608s-.306.157-.413.448-.092.563.028.608S112.3,721.471,112.406,721.179Z" transform="translate(-109.103 -718.467)" fill="#fcddb1"/>
        <path id="Path_49982" data-name="Path 49982" d="M115.371,725.488c-.207.232-.3.49-.2.576s.343-.031.55-.262.3-.489.2-.575S115.577,725.257,115.371,725.488Z" transform="translate(-110.337 -720.233)" fill="#fcddb1"/>
        <path id="Path_49983" data-name="Path 49983" d="M119.6,719.4c.205-.232.3-.49.2-.576s-.344.032-.549.263-.3.489-.2.575S119.395,719.625,119.6,719.4Z" transform="translate(-111.816 -717.791)" fill="#fcddb1"/>
        <path id="Path_49984" data-name="Path 49984" d="M136.287,721.935c.01.31.122.557.251.554s.227-.258.217-.569-.122-.558-.251-.553S136.277,721.625,136.287,721.935Z" transform="translate(-118.398 -718.772)" fill="#fcddb1"/>
        <path id="Path_49985" data-name="Path 49985" d="M131.515,724.038c.121-.045.131-.318.023-.608s-.3-.489-.417-.445-.131.319-.022.609S131.4,724.082,131.515,724.038Z" transform="translate(-116.393 -719.387)" fill="#fcddb1"/>
        <path id="Path_49986" data-name="Path 49986" d="M120.9,726.894c-.293-.1-.566-.079-.607.043s.163.3.458.4.566.078.607-.044S121.194,726.993,120.9,726.894Z" transform="translate(-112.302 -720.855)" fill="#fcddb1"/>
      </g>
      <g id="Group_22585" data-name="Group 22585" transform="translate(100.456 13.67)" opacity="0.9">
        <path id="Path_49987" data-name="Path 49987" d="M252.8,644.381h5.329l2.39-15.983h-9.731Z" transform="translate(-249.059 -625.607)" fill="#21b4d1" opacity="0.5"/>
        <path id="Path_49988" data-name="Path 49988" d="M260.816,625.158H259.4l-.247-1.269H250.46l-.4,1.142h-1.386l-.678,1.649h13.191Z" transform="translate(-247.994 -623.889)" fill="#fff"/>
      </g>
      <g id="Group_22586" data-name="Group 22586" transform="translate(195.359 12.067)" opacity="0.9">
        <path id="Path_49989" data-name="Path 49989" d="M414.172,630.582a3.54,3.54,0,0,0,.482-.049,1.943,1.943,0,0,0,.686-.619l1.249-4.719.394-2.315L415.1,622.1l-.383,1.932.883.23Z" transform="translate(-406.225 -621.606)" fill="#f7963e"/>
        <path id="Path_49990" data-name="Path 49990" d="M406.848,630.215c.12-1.888.157-4.593.157-4.593l1.116.153-.061-3.074.2.006-.012-1.409-2.44.056.126,1.714.318-.05Z" transform="translate(-403.04 -621.298)" fill="#f7963e"/>
        <path id="Path_49991" data-name="Path 49991" d="M404.334,629.622h.122a5.986,5.986,0,0,0,1.365,1.711c0-.019,0-.038,0-.058l-.592-7.2-.318.05-1.789.282.368,2.07.187-.075Z" transform="translate(-402.015 -622.357)" fill="#f9bb62"/>
        <path id="Path_49992" data-name="Path 49992" d="M409.506,626.64l.907.125-.4,4.43c.313,0,.64-.006.959-.012.371-2.83.915-6.858.915-6.858l.059.015.056-.706-2.349-.062-.2-.005Z" transform="translate(-404.424 -622.162)" fill="#f9bb62"/>
        <path id="Path_49993" data-name="Path 49993" d="M411.906,631.65c.535-.009,1.041-.023,1.4-.043l1.425-6.315-.883-.23-.972-.254-.059-.016S412.277,628.819,411.906,631.65Z" transform="translate(-405.362 -622.63)" fill="#f9bb62"/>
        <path id="Path_49994" data-name="Path 49994" d="M411.906,631.65c.535-.009,1.041-.023,1.4-.043l1.425-6.315-.883-.23-.972-.254-.059-.016S412.277,628.819,411.906,631.65Z" transform="translate(-405.362 -622.63)" fill="#f7963e" opacity="0.5"/>
        <path id="Path_49995" data-name="Path 49995" d="M403.651,631.055,403,627.838l-.187.075-1.477.591.781,2.55Z" transform="translate(-401.332 -623.79)" fill="#f7963e"/>
        <path id="Path_49996" data-name="Path 49996" d="M408.757,628.439l-1.116-.153s-.037,2.7-.157,4.592c0,.02,0,.04,0,.058a.431.431,0,0,0,.187.064c.214,0,.858,0,1.593-.007l.4-4.43Z" transform="translate(-403.675 -623.961)" fill="#f9bb62"/>
        <path id="Path_49997" data-name="Path 49997" d="M417.481,626.047l-.172.651-1.249,4.719c.387-.474.755-1.045.755-1.045h1.19l1.25-3.438Z" transform="translate(-406.945 -623.108)" fill="#f9bb62"/>
        <path id="Path_49998" data-name="Path 49998" d="M410.721,634.08a1.941,1.941,0,0,1-.686.619,3.545,3.545,0,0,1-.482.049c-.361.02-.867.035-1.4.043-.319.006-.646.01-.959.012-.735.007-1.379.007-1.593.007a.432.432,0,0,1-.187-.064,5.985,5.985,0,0,1-1.365-1.711h-2l2.771,8.651h6.1l2.33-8.651h-1.776S411.109,633.606,410.721,634.08Z" transform="translate(-401.606 -625.771)" fill="#e03f3f"/>
      </g>
      <g id="Group_22587" data-name="Group 22587" transform="translate(194.1 44.011)" opacity="0.9">
        <path id="Path_49999" data-name="Path 49999" d="M416.644,687.96c.054-.035.111-.079.17-.123.011-.273.022-.545.03-.813Z" transform="translate(-405.908 -678.29)" fill="#f9bb62"/>
        <path id="Path_50000" data-name="Path 50000" d="M417.62,679.942l.566.077.422-2.545,1.035.226.5-2.491-2.526-.37-.3,3.036.7.235Z" transform="translate(-406.164 -673.646)" fill="#f9bb62"/>
        <path id="Path_50001" data-name="Path 50001" d="M410.812,675.956l.894.233.426-2.5-1.886-.775-.458,2.309,1.08.029Z" transform="translate(-403.295 -672.912)" fill="#f7963e"/>
        <path id="Path_50002" data-name="Path 50002" d="M404.757,682.556c.029.032.059.061.089.092.093-1.815.123-4.012.123-4.012l1.117.154-.061-3.075.2.006-.012-1.409-2.44.056.126,1.714.316-.05Z" transform="translate(-401.004 -673.445)" fill="#f7963e"/>
        <path id="Path_50003" data-name="Path 50003" d="M420.179,679.323l-1.035-.226-.422,2.545,1,.137-.146,1.62h1.078l.879-3.783Z" transform="translate(-406.7 -675.269)" fill="#f7963e"/>
        <path id="Path_50004" data-name="Path 50004" d="M402.3,682.634h.632a11,11,0,0,0,.8.981l-.538-6.525-.316.05-1.789.282.366,2.071.188-.075Z" transform="translate(-399.98 -674.504)" fill="#f9bb62"/>
        <path id="Path_50005" data-name="Path 50005" d="M412.639,682.652l-.12,1.628c.375-.005.733-.012,1.056-.021l.73-6.035.646.218.243-1.443-2.125-.2-.067.936.706.185Z" transform="translate(-404.336 -674.394)" fill="#f9bb62"/>
        <path id="Path_50006" data-name="Path 50006" d="M407.471,679.654l.907.124-.4,4.436.958,0c.371-2.832.917-6.872.917-6.872l.057.015.056-.706-1.08-.029-1.268-.034-.2-.006Z" transform="translate(-402.389 -674.309)" fill="#f9bb62"/>
        <path id="Path_50007" data-name="Path 50007" d="M410.785,677.806s-.546,4.04-.917,6.872c.441,0,.92-.006,1.392-.012l.369-1.632,1.068-4.73-.706-.184-.254-.066-.894-.233Z" transform="translate(-403.325 -674.777)" fill="#f9bb62"/>
        <path id="Path_50008" data-name="Path 50008" d="M410.785,677.806s-.546,4.04-.917,6.872c.441,0,.92-.006,1.392-.012l.369-1.632,1.068-4.73-.706-.184-.254-.066-.894-.233Z" transform="translate(-403.325 -674.777)" fill="#f7963e" opacity="0.5"/>
        <path id="Path_50009" data-name="Path 50009" d="M401.615,684.068l-.654-3.216-.189.075-1.476.591.781,2.55Z" transform="translate(-399.297 -675.938)" fill="#f7963e"/>
        <path id="Path_50010" data-name="Path 50010" d="M406.744,681.453l-1.117-.153s-.03,2.2-.123,4.012c.361.373.759.7,1.059.7h.684l.4-4.436Z" transform="translate(-401.662 -676.108)" fill="#f9bb62"/>
        <path id="Path_50011" data-name="Path 50011" d="M416.948,685.523c-.009.268-.019.54-.03.813a11.056,11.056,0,0,0,1.375-1.417h.592l.146-1.62-1-.137-.566-.077Z" transform="translate(-406.012 -676.788)" fill="#f9bb62"/>
        <path id="Path_50012" data-name="Path 50012" d="M414.225,685.134a11.441,11.441,0,0,0,1.232-.07.863.863,0,0,0,.266-.123l.2-.936.521-2.439.392-1.833-.7-.235-.538-.181-.646-.218Z" transform="translate(-404.986 -675.27)" fill="#f9bb62"/>
        <path id="Path_50013" data-name="Path 50013" d="M411.852,686.048a11.052,11.052,0,0,1-1.375,1.417c-.058.045-.116.089-.17.123a.862.862,0,0,1-.266.123,11.435,11.435,0,0,1-1.232.071c-.323.009-.681.015-1.056.021l-.249,0c-.472.006-.951.009-1.392.012l-.958,0h-.684c-.3,0-.7-.329-1.059-.7-.029-.03-.059-.06-.089-.092a11.007,11.007,0,0,1-.8-.981h-2.505l2.7,8.651h9.222l2.143-8.651h-2.229Z" transform="translate(-399.571 -677.918)" fill="#e03f3f"/>
      </g>
      <g id="Group_22588" data-name="Group 22588" transform="translate(190.555 80.088)" opacity="0.9">
        <path id="Path_50014" data-name="Path 50014" d="M396.988,746.807c1.865,2.049,6.375.311,8.666-.814,2.929-1.439,10.418-5.02,10.335-9.188-1.86,1.111-15.05,8.524-18.319,9.794A4.858,4.858,0,0,1,396.988,746.807Z" transform="translate(-394.872 -733.338)" fill="#f79e45"/>
        <path id="Path_50015" data-name="Path 50015" d="M396.059,741.17c.056.024.1.049.156.073,1.141-.607,3.165-1.679,5.469-2.891a2.3,2.3,0,0,1,1.021-.537c4.154-2.182,8.875-4.64,10.872-5.6a2.186,2.186,0,0,1,.349-.479,3.91,3.91,0,0,0-2.262-.525c-2.664.1-5.986,1.937-7.886,2.736-3.086,1.3-7.4,3.6-8.009,7.252A.328.328,0,0,1,396.059,741.17Z" transform="translate(-394.408 -731.203)" fill="#f79e45"/>
        <path id="Path_50016" data-name="Path 50016" d="M413.689,732.13a.329.329,0,0,1-.08.347,2.8,2.8,0,0,0-.607,1.881c-.092,1.045-.206,2.346-2.085,2.413a4.361,4.361,0,0,1-1.938-.458c-.884-.38-1.251-.536-1.933.971a2.089,2.089,0,0,0-.142.734,1.563,1.563,0,0,1-1.039,1.6,1.863,1.863,0,0,1-1.977-.339,2.776,2.776,0,0,0-.832-.431c-1.669-.452-2.325.767-3.135,2.677-.476,1.123-.914,1.683-1.464,1.872a1.653,1.653,0,0,1-1.243-.138c-.255-.113-.525-.263-.818-.425a12.847,12.847,0,0,0-1.427-.711.325.325,0,0,1-.191-.225l-.268.144c-1.373.742-1.448,3.569,1.176,2.966a4.861,4.861,0,0,0,.681-.209c3.269-1.27,16.459-8.683,18.319-9.794l.083-.05C416.273,734.041,415.19,731.689,413.689,732.13Z" transform="translate(-393.569 -731.535)" fill="#ed5d47"/>
        <path id="Path_50017" data-name="Path 50017" d="M408.338,738.489a3.379,3.379,0,0,1,1.03.522c.461.311.766.516,1.352.274s.592-.516.629-1.028a2.683,2.683,0,0,1,.2-.961c.884-1.95,1.72-1.772,2.8-1.309a3.719,3.719,0,0,0,1.653.4c1.235-.043,1.341-.616,1.444-1.8a4.509,4.509,0,0,1,.4-1.756c-2,.964-6.719,3.422-10.873,5.6A2.769,2.769,0,0,1,408.338,738.489Z" transform="translate(-398.678 -731.823)" fill="#ed5d47"/>
        <path id="Path_50018" data-name="Path 50018" d="M397.831,746.317c.672.372,1.157.642,1.521.516.339-.116.688-.608,1.068-1.5a7.19,7.19,0,0,1,1.539-2.578c-2.3,1.212-4.327,2.284-5.469,2.891A14.976,14.976,0,0,1,397.831,746.317Z" transform="translate(-394.682 -735.604)" fill="#ed5d47"/>
        <path id="Path_50019" data-name="Path 50019" d="M395.7,742.015a12.857,12.857,0,0,1,1.427.711c.293.162.563.312.818.425a1.654,1.654,0,0,0,1.243.138c.55-.189.988-.749,1.464-1.872.81-1.911,1.466-3.129,3.135-2.677a2.78,2.78,0,0,1,.832.431,1.863,1.863,0,0,0,1.977.339,1.563,1.563,0,0,0,1.039-1.6,2.089,2.089,0,0,1,.142-.734c.682-1.507,1.049-1.35,1.933-.971a4.359,4.359,0,0,0,1.938.458c1.88-.067,1.993-1.367,2.085-2.413a2.8,2.8,0,0,1,.607-1.881.329.329,0,0,0,.08-.347.313.313,0,0,0-.074-.124.332.332,0,0,0-.47-.006c-.022.02-.037.043-.058.064a2.187,2.187,0,0,0-.349.479,4.51,4.51,0,0,0-.4,1.757c-.1,1.188-.209,1.762-1.444,1.8a3.718,3.718,0,0,1-1.653-.4c-1.084-.463-1.92-.641-2.8,1.309a2.68,2.68,0,0,0-.2.961c-.037.512-.057.793-.629,1.028s-.891.036-1.352-.274a3.38,3.38,0,0,0-1.03-.522,2.77,2.77,0,0,0-1.363-.054,2.294,2.294,0,0,0-1.021.537,7.19,7.19,0,0,0-1.539,2.578c-.379.894-.729,1.386-1.068,1.5-.365.126-.85-.144-1.521-.516a14.977,14.977,0,0,0-1.341-.673c-.054-.023-.1-.049-.156-.072a.333.333,0,0,0-.253.617Z" transform="translate(-394.305 -731.43)" fill="#fc9941"/>
      </g>
    </g>
    <g id="Group_22590" data-name="Group 22590" transform="translate(235.973 704.374)">
      <path id="Path_50020" data-name="Path 50020" d="M359.125,767.561c-.369.368-9.521,35.528-9.635,36.2s3.126,5.859,3.126,6.25c0,.781,57.029,2.865,58.069,1.3s11.2-33.332,11.458-34.113c.053-.158,0-4.948-1.042-5.469S359.54,767.145,359.125,767.561Z" transform="translate(-349.486 -767.531)" fill="#a3a7b5"/>
      <path id="Path_50021" data-name="Path 50021" d="M365.043,767.561c-.369.368,3.239,5.581,3.124,6.249s47.395,39.061,48.435,37.5,11.2-33.332,11.458-34.113c.053-.158,0-4.948-1.042-5.469S365.459,767.145,365.043,767.561Z" transform="translate(-355.404 -767.531)" fill="#d2d7db"/>
      <path id="Path_50022" data-name="Path 50022" d="M364.175,776.385c-.737.736-9.634,36.2-9.634,36.977s57.029,2.865,58.069,1.3,11.2-33.332,11.458-34.113S364.695,775.864,364.175,776.385Z" transform="translate(-351.413 -770.887)" fill="#b3b7c1"/>
      <path id="Path_50023" data-name="Path 50023" d="M393.668,817.346c0,1.3.261,22.134.261,22.134l15.885.261,3.384-25-17.707-1.3Z" transform="translate(-366.323 -785.026)" fill="#a3a7b5"/>
      <path id="Path_50024" data-name="Path 50024" d="M393.668,817.346c0,1.3.261,22.134.261,22.134l2.077.034-.515-26.074Z" transform="translate(-366.323 -785.026)" fill="#979ba5"/>
      <path id="Path_50025" data-name="Path 50025" d="M361.693,862.244l.26-4.688,16.145-6.25.26,10.938Z" transform="translate(-354.138 -799.456)" fill="#a3a7b5"/>
      <path id="Path_50026" data-name="Path 50026" d="M418.667,862.244l-.261-10.417-30.207-.521.26,10.938Z" transform="translate(-364.239 -799.456)" fill="#b3b7c1"/>
    </g>
    <g id="Group_22601" data-name="Group 22601" transform="translate(169.545 633.867)">
      <path id="Path_50027" data-name="Path 50027" d="M259.79,715.1c-.391-.586-2.734-2.637-3.516-2.343s-1.691,3.309-1.66,3.71c.1,1.269,1.465,7.813,3.321,8.2s1.659.488,1.659.488Z" transform="translate(-246.904 -676.14)" fill="#ffbd85"/>
      <path id="Path_50028" data-name="Path 50028" d="M323.721,715.1c.391-.586,2.734-2.637,3.515-2.343s1.691,3.309,1.661,3.71c-.1,1.269-1.465,7.813-3.32,8.2s-1.66.488-1.66.488Z" transform="translate(-273.239 -676.14)" fill="#ffbd85"/>
      <path id="Path_50029" data-name="Path 50029" d="M283.459,751.56c.651,3.645.131,11.849-2.474,13.671s4.427,9.9,9.375,9.375,9.374-9.245,7.421-10.807-3.125-6.9-2.864-11.849C295.237,745.88,283.069,750.127,283.459,751.56Z" transform="translate(-256.74 -689.876)" fill="#ffbd85"/>
      <path id="Path_50030" data-name="Path 50030" d="M285.553,756.158a3.928,3.928,0,0,1,1.279,1.291c2.5,4,6.541,3.262,10.421,1.094a26.748,26.748,0,0,1-.474-6.592c.32-6.07-11.848-1.823-11.457-.391A22.986,22.986,0,0,1,285.553,756.158Z" transform="translate(-258.603 -689.876)" fill="#ffbd85" opacity="0.4" style="mix-blend-mode: multiply;isolation: isolate"/>
      <path id="Path_50031" data-name="Path 50031" d="M299.277,689.892c1.4,3.793,2.322,23.931,1.367,27.343-1.367,4.883-13.476,14.257-17.968,14.257-4.688,0-18.164-8.2-20.9-14.257-1.942-4.3-1.433-23.176,1.172-28.124C264.526,686.115,296.542,682.471,299.277,689.892Z" transform="translate(-249.185 -665.772)" fill="#ffbd85"/>
      <path id="Path_50032" data-name="Path 50032" d="M304.537,706.02a28.375,28.375,0,0,1,6.12.261,25.823,25.823,0,0,1,2.6,1.432c.521.391-.912-2.864-2.734-3.385a25.193,25.193,0,0,0-6.51-.521C303.365,703.938,303.495,706.15,304.537,706.02Z" transform="translate(-265.578 -672.721)" fill="#95542a"/>
      <path id="Path_50033" data-name="Path 50033" d="M268.709,708.937a21.648,21.648,0,0,1,3.256-1.823,27.845,27.845,0,0,1,6.249.912c.628.313,1.172-1.693.391-1.953s-5.729-1.172-6.77-.651C270.375,706.152,269.23,708.156,268.709,708.937Z" transform="translate(-252.275 -673.294)" fill="#95542a"/>
      <path id="Path_50034" data-name="Path 50034" d="M285.328,739.207a21.654,21.654,0,0,0,14.973-.26c.912-.391-.91,2.6-1.432,3.125s.609,2.218-1.042,3.515C296,747.019,287.8,748.972,285.328,739.207Z" transform="translate(-258.608 -686.117)" fill="#a33f24"/>
      <path id="Path_50035" data-name="Path 50035" d="M285.328,739.207a21.655,21.655,0,0,0,14.973-.261c.763-.327-.388,1.717-1.09,2.7-.137.191-9.065,2.51-13.372-.79A16.052,16.052,0,0,1,285.328,739.207Z" transform="translate(-258.608 -686.117)" fill="#fff"/>
      <g id="Group_22591" data-name="Group 22591" transform="translate(26.743 52.716)">
        <path id="Path_50036" data-name="Path 50036" d="M293.557,747.116c-7.449,0-8.295-8.056-8.181-8.153a53.828,53.828,0,0,0,7.28,1.021c4.584.1,7.842-1.437,7.953-1.167.3.728-1.488,2.927-1.659,3.272-.2.39.353,2.8-.866,3.757A8,8,0,0,1,293.557,747.116Zm-7.635-7.33c1.714,5.677,5.484,6.549,7.635,6.549a7.241,7.241,0,0,0,4.043-1.1,2.5,2.5,0,0,0,.861-2.362c-.04-.484-.073-.807.244-1.123a11.269,11.269,0,0,0,1.342-2.323,19.728,19.728,0,0,1-7.391,1.342A22.871,22.871,0,0,1,285.922,739.786Z" transform="translate(-285.366 -738.785)" fill="#d8804a"/>
      </g>
      <path id="Path_50037" data-name="Path 50037" d="M260.472,701.628c.072.181,1.563-11.035,4.491-12.987s27.343-.879,29.2.293,5.208,9.407,5.73,11.816c.781-1.693,2.277-9.667.421-15.82s-6.542-12.89-21.288-12.4-18.712,10.822-19.238,12.792C258.487,690.2,258.745,697.364,260.472,701.628Z" transform="translate(-248.563 -660.81)" fill="#6c4121"/>
      <path id="Path_50038" data-name="Path 50038" d="M306.574,674.034c-.58-.174-1.179-.337-1.818-.474a24.612,24.612,0,0,1,3.917,15.171,10.427,10.427,0,0,1,2.939.6,4.67,4.67,0,0,1,1.06,1.1A42.155,42.155,0,0,0,306.574,674.034Z" transform="translate(-266.012 -661.213)" fill="#6c4121" opacity="0.2" style="mix-blend-mode: screen;isolation: isolate"/>
      <path id="Path_50039" data-name="Path 50039" d="M278.891,672.635a26.82,26.82,0,0,0-4.755.718,29.81,29.81,0,0,0-8.95,10.632c-2.6,5.085-4.826,11.409-3.786,17.228.384-2.118,1.843-10.823,4.391-12.522a11.339,11.339,0,0,1,4.218-.85C271.781,682.39,275.371,677.4,278.891,672.635Z" transform="translate(-249.39 -660.86)" fill="#6c4121" opacity="0.2" style="mix-blend-mode: screen;isolation: isolate"/>
      <path id="Path_50040" data-name="Path 50040" d="M301.423,687.967a43.141,43.141,0,0,0,.5-6.778c-.019-2.568-.174-5.877-1.551-8.287-.807-.118-1.651-.211-2.547-.269,1.826,2.665,1.7,7.495,1.718,10.1.012,1.7-.043,3.408-.129,5.115Q300.452,687.9,301.423,687.967Z" transform="translate(-263.372 -660.859)" fill="#6c4121" opacity="0.2" style="mix-blend-mode: screen;isolation: isolate"/>
      <path id="Path_50041" data-name="Path 50041" d="M289.018,665.914c1.562-.781,8.1-4.3,7.909-7.031s-2.148-5.273-6.64-5.273-13.671,4-14.257,5.566,2.637,5.859,8.008,6.348A42.872,42.872,0,0,0,289.018,665.914Z" transform="translate(-255.039 -653.61)" fill="#6c4121"/>
      <path id="Path_50042" data-name="Path 50042" d="M290.2,654.913c-.756.216-1.525.462-2.287.734a22.9,22.9,0,0,0,1.52,10.453l.769.068A69.248,69.248,0,0,1,290.2,654.913Z" transform="translate(-259.547 -654.107)" fill="#6c4121" opacity="0.2" style="mix-blend-mode: screen;isolation: isolate"/>
      <path id="Path_50043" data-name="Path 50043" d="M296.04,665.946l.06-.031c3.05-3.251,5.272-7.044,4.767-11.558a7.606,7.606,0,0,0-2.546-.664c1.469,2.616.22,6.283-1.359,8.792a22.508,22.508,0,0,1-2.573,3.36A7.493,7.493,0,0,0,296.04,665.946Z" transform="translate(-262.061 -653.642)" fill="#6c4121" opacity="0.2" style="mix-blend-mode: screen;isolation: isolate"/>
      <path id="Path_50044" data-name="Path 50044" d="M282.926,657.53a16.651,16.651,0,0,0,2.481,8.9,10.669,10.669,0,0,0,1.15.189,23.518,23.518,0,0,1-1.209-10.092C284.506,656.843,283.686,657.184,282.926,657.53Z" transform="translate(-257.691 -654.72)" fill="#6c4121" opacity="0.2" style="mix-blend-mode: screen;isolation: isolate"/>
      <path id="Path_50045" data-name="Path 50045" d="M285.492,671.792c.7-.116,7.506-.737,8.984-.293.977.293.586.977.294.977s-8.79.1-9.18,0S284.907,671.89,285.492,671.792Z" transform="translate(-258.545 -660.367)" fill="#e03f3f"/>
      <path id="Path_50046" data-name="Path 50046" d="M258.821,697.06c-.391-2.441.685-8.984.879-9.96.178-.883,6.543-5.762,20.117-5.566s20.258,3.721,20.507,4.785a36.653,36.653,0,0,1,.78,9.016c-.879-.976-4.1-6.087-20.312-6.38C263.706,688.646,260.676,694.13,258.821,697.06Z" transform="translate(-248.475 -664.249)" fill="#e03f3f"/>
      <path id="Path_50047" data-name="Path 50047" d="M290.406,773.989l3.125,4.557,2.864-5.078,2.866,2.213-5.73,5.013-5.469-3.45Z" transform="translate(-259.65 -699.286)" fill="#cc3e3e"/>
      <path id="Path_50048" data-name="Path 50048" d="M275.472,770.415c-1.822,1.693-9.156,3.515-10.979,5.859s1.214,10.937,1.085,12.76-4.175,8.668,3.385,14.973c.781.651.91,20.832-1.042,29.035s30.272,7.422,29.491,0-.586-26.366-.586-28.318,7.226-6.25,2.929-15.69c-.833-1.83,2.149-11.653.391-13.02s-10.547-6.759-10.547-6.054c0,1.953-1.172,7.616-5.468,7.421C279.38,777.164,275.472,770.415,275.472,770.415Z" transform="translate(-250.446 -697.924)" fill="#e03f3f"/>
      <path id="Path_50049" data-name="Path 50049" d="M321.156,779.758c.91.911,11,21.223,14.257,29.426.41,1.034.069,2.815-1.172,4.427-2.6,3.385-9.635,8.073-10.025,8.724s-1.692,2.995-2.083,3.645a8.646,8.646,0,0,1-2.734,1.888c-.391.13-.652-2.8.26-3.191a8.637,8.637,0,0,0,2.213-2.083s-.521-1.823-.521-2.083.078-.979,1.3,0c.652.521.913.13.913.13s3.515-6.51,4.686-8.854c-.131-1.563-8.463-16.536-8.463-16.536S320.244,778.846,321.156,779.758Z" transform="translate(-271.455 -701.669)" fill="#ffbd85"/>
      <path id="Path_50050" data-name="Path 50050" d="M331.546,799.124c-4.179-8.789-8.593-18.358-10.351-19.53-2.482-1.654-1.777,3.821-1.953,8.008-.16,3.789-.08,7.42-.08,7.42s3.076,4.743,5.352,9.051C325.171,803.6,330.055,800.246,331.546,799.124Z" transform="translate(-271.494 -701.505)" fill="#e03f3f"/>
      <path id="Path_50051" data-name="Path 50051" d="M326.561,814.279l.911,1.693,7.422-5.338-.782-1.823Z" transform="translate(-274.321 -712.754)" fill="#fc6a6a"/>
      <path id="Path_50052" data-name="Path 50052" d="M256.726,779.8c-.916.907-11.105,21.169-14.4,29.356-.416,1.032-.082,2.814,1.15,4.433,2.587,3.4,9.6,8.118,9.982,8.771s1.679,3,2.066,3.656A7.174,7.174,0,0,0,258,827.755c.391.132.91-2.629,0-3.025a8.512,8.512,0,0,1-2.736-2.314c-.532-.74,1.172-.586,1.107-1.5-.019-.26-.151-.673-1.172-.326-.789.268-1.087.082-1.087.082s-3.483-6.527-4.644-8.876c.137-1.562,8.542-16.494,8.542-16.494S257.643,778.9,256.726,779.8Z" transform="translate(-242.156 -701.687)" fill="#ffbd85"/>
      <path id="Path_50053" data-name="Path 50053" d="M248.777,799.124c4.179-8.789,8.594-18.358,10.351-19.53,2.481-1.654,1.777,3.821,1.953,8.008a55.527,55.527,0,0,1-.228,7.356s-2.768,4.808-5.045,9.115C255.152,803.6,250.267,800.246,248.777,799.124Z" transform="translate(-244.679 -701.505)" fill="#e03f3f"/>
      <path id="Path_50054" data-name="Path 50054" d="M256.269,814.279l-.913,1.693-7.421-5.338.781-1.823Z" transform="translate(-244.359 -712.754)" fill="#fc6a6a"/>
      <g id="Group_22595" data-name="Group 22595" transform="translate(11.075 93.954)">
        <path id="Path_50055" data-name="Path 50055" d="M260.075,847.459c-.511-1.789,7.025-14.863,7.92-15.5s32.575-.511,33.087.639c.58,1.3-1.578,9.755-2.889,14.946a8.027,8.027,0,0,1-1.072,2.811C296.609,851.119,260.075,847.459,260.075,847.459Z" transform="translate(-260.05 -815.384)" fill="#dce4e6"/>
        <path id="Path_50056" data-name="Path 50056" d="M260.075,847.459c-.511-1.789,7.025-14.863,7.92-15.5s32.575-.511,33.087.639c.58,1.3-1.578,9.755-2.889,14.946a8.027,8.027,0,0,1-1.072,2.811C296.609,851.119,260.075,847.459,260.075,847.459Z" transform="translate(-260.05 -815.384)" fill="#7a7a93" opacity="0.2" style="mix-blend-mode: multiply;isolation: isolate"/>
        <path id="Path_50057" data-name="Path 50057" d="M265.869,850.67c.127-1.533,6-14.435,7.026-14.691,1.492-.373,28.426-.36,28.616.767.127.766-3.066,14.434-4.088,14.69S265.8,851.475,265.869,850.67Z" transform="translate(-262.267 -816.979)" fill="#dce4e6"/>
        <path id="Path_50058" data-name="Path 50058" d="M260.09,857a19.218,19.218,0,0,0,1.7,2.8c.365.243,34.71.319,35.17.121.427-.182,1.123-1.865,1.245-2.838C298.274,856.54,260.212,856.388,260.09,857Z" transform="translate(-260.065 -824.922)" fill="#f4f5f9"/>
        <g id="Group_22593" data-name="Group 22593" transform="translate(20.055 5)">
          <path id="Path_50075" data-name="Path 50075" d="M295.713,805.5l1.636,11.616.818-.164-1.555-11.533Z" transform="translate(-293.695 -805.415)" fill="#c6c5bb"/>
          <path id="Path_50076" data-name="Path 50076" d="M296.576,834.465h4.581l2.072-13.852h-8.4Z" transform="translate(-293.359 -811.206)" fill="#21b4d1"/>
          <path id="Path_50077" data-name="Path 50077" d="M297.3,835.76h4.581l1.758-11.748s-2.632,8.857-2.957,9.512-2.292.982-2.618.491-1.333-2.78-1.333-2.78Z" transform="translate(-294.083 -812.502)" fill="#7070ba" opacity="0.3" style="mix-blend-mode: multiply;isolation: isolate"/>
          <path id="Path_50078" data-name="Path 50078" d="M292.453,819.312H303.8L303.478,818h-1.22l-.212-1.091h-7.474l-.345.982h-1.192Z" transform="translate(-292.453 -809.796)" fill="#e8e2d4"/>
          <path id="Path_50079" data-name="Path 50079" d="M303.8,818.139a13.448,13.448,0,0,1-2.107,1.173h5.625L307,818h-1.22l-.212-1.091h-2.1A5.363,5.363,0,0,1,303.8,818.139Z" transform="translate(-295.974 -809.796)" fill="#7070ba" opacity="0.1" style="mix-blend-mode: multiply;isolation: isolate"/>
        </g>
      </g>
      <path id="Path_50091" data-name="Path 50091" d="M263.238,697.763c-.123.137,3.125,4.036,5.078,3.515s9.5-4.166,12.76-3.906,13.931,3.255,15.364,3.646,4.035-3.125,4.035-3.907c0-.887-8.782-4.35-18.749-4.426C271.44,692.608,265.321,695.419,263.238,697.763Z" transform="translate(-250.189 -668.5)" fill="#e03f3f"/>
      <path id="Path_50092" data-name="Path 50092" d="M283.174,766.106l-2.473,3.125,3.775,6.38,3.125-4.427Z" transform="translate(-256.845 -696.48)" fill="#fc6a6a"/>
      <path id="Path_50093" data-name="Path 50093" d="M301.525,770.743l3.126,4.3,2.083-5.6-2.995-3.125Z" transform="translate(-264.781 -696.56)" fill="#fc6a6a"/>
      <path id="Path_50094" data-name="Path 50094" d="M324.11,847.81a1.819,1.819,0,0,0,.646-1.029,6.034,6.034,0,0,0,.194-1.293c-.088.084-.356.244-.874-.17-1.224-.979-1.3-.26-1.3,0,0,.224.383,1.6.491,1.979A4.7,4.7,0,0,0,324.11,847.81Z" transform="translate(-272.878 -726.477)" fill="#ffbd85"/>
      <path id="Path_50095" data-name="Path 50095" d="M263.564,845.975c-.019-.26-.151-.673-1.172-.326a1.571,1.571,0,0,1-1.052.1c-.336.522-.568,1.214.116,1.375a2.547,2.547,0,0,0,.909.018C262.5,846.752,263.617,846.717,263.564,845.975Z" transform="translate(-249.343 -726.742)" fill="#ffbd85"/>
      <g id="Group_22596" data-name="Group 22596" transform="translate(33.291 38.898)">
        <path id="Path_50096" data-name="Path 50096" d="M296.284,727.6c-.045-.211,1.358-.4,2.279-1.17a4.713,4.713,0,0,0,1.341-1.407,2.04,2.04,0,0,0,.147-1.357,5.215,5.215,0,0,0-1,.04,6.961,6.961,0,0,1-1.531.035c-1.487-.212-1.724-7.287-1.506-7.287s1.091,6.184,1.652,6.523a6.921,6.921,0,0,0,1.312-.049,2.63,2.63,0,0,1,1.55.1c.358.238.423,1.018.3,1.63a3.4,3.4,0,0,1-1.65,2.307A4.8,4.8,0,0,1,296.284,727.6Z" transform="translate(-295.946 -716.459)" fill="#d8804a"/>
      </g>
      <g id="Group_22598" data-name="Group 22598" transform="translate(18.712 37.294)">
        <path id="Path_50097" data-name="Path 50097" d="M282.3,717.054c-.569-.948-3.6-5.182-9.635-.651-.521.391,1.823,3.516,2.344,3.646a20.383,20.383,0,0,0,4.034.389,1.115,1.115,0,0,0,.523-.129C280.084,719.918,282.689,717.7,282.3,717.054Z" transform="translate(-272.465 -714.05)" fill="#fff"/>
        <path id="Path_50098" data-name="Path 50098" d="M278.2,714.723a3.381,3.381,0,0,0-3.379,3.38,3.325,3.325,0,0,0,.354,1.492,2.171,2.171,0,0,0,.682.6,20.4,20.4,0,0,0,4.034.389,1.116,1.116,0,0,0,.523-.129c.118-.089.346-.274.619-.511a3.34,3.34,0,0,0,.549-1.838A3.382,3.382,0,0,0,278.2,714.723Z" transform="translate(-273.317 -714.193)" fill="url(#linear-gradient)"/>
        <g id="Group_22597" data-name="Group 22597">
          <path id="Path_50099" data-name="Path 50099" d="M282.223,717.131a.391.391,0,0,0,.27-.673l-.31-.3a6.438,6.438,0,0,0-5.433-2.262,8.808,8.808,0,0,0-4.356,2.414c.121.179,2.668-1.391,4.45-1.625,2.368-.312,3.714.968,4.792,2.03l.317.309A.386.386,0,0,0,282.223,717.131Z" transform="translate(-272.39 -713.867)" fill="#a3551f"/>
        </g>
      </g>
      <g id="Group_22600" data-name="Group 22600" transform="translate(37.851 37.033)">
        <path id="Path_50100" data-name="Path 50100" d="M303.921,716.633c.568-.948,3.6-5.182,9.635-.651.521.391-1.822,3.515-2.343,3.646a20.4,20.4,0,0,1-4.035.389,1.124,1.124,0,0,1-.522-.129C306.134,719.5,303.53,717.284,303.921,716.633Z" transform="translate(-303.53 -713.629)" fill="#fff"/>
        <path id="Path_50101" data-name="Path 50101" d="M309.858,714.3a3.37,3.37,0,0,1,3.027,4.872,2.178,2.178,0,0,1-.682.6,20.407,20.407,0,0,1-4.035.389,1.123,1.123,0,0,1-.522-.129c-.118-.088-.345-.274-.619-.511a3.341,3.341,0,0,1-.548-1.838A3.381,3.381,0,0,1,309.858,714.3Z" transform="translate(-304.519 -713.772)" fill="url(#linear-gradient-2)"/>
        <g id="Group_22599" data-name="Group 22599">
          <path id="Path_50102" data-name="Path 50102" d="M303.7,716.71a.391.391,0,0,1-.271-.673l.309-.3a6.439,6.439,0,0,1,5.434-2.263,8.8,8.8,0,0,1,4.356,2.414c-.12.179-2.667-1.39-4.449-1.625-2.368-.312-3.714.968-4.792,2.03l-.316.309A.39.39,0,0,1,303.7,716.71Z" transform="translate(-303.314 -713.446)" fill="#a3551f"/>
        </g>
      </g>
      <path id="Path_50103" data-name="Path 50103" d="M296.842,727.2c.18.892.888.995,1.642,1.037.287.016,1.252-.243,1.417.022.272.433-.459.811-.749.873a2.371,2.371,0,0,1-2.02-.4A1.842,1.842,0,0,1,296.842,727.2Z" transform="translate(-262.977 -681.652)" fill="#ffbd85" opacity="0.6" style="mix-blend-mode: screen;isolation: isolate"/>
    </g>
    <g id="Group_22602" data-name="Group 22602" transform="translate(75.902 767.421)">
      <path id="Path_50104" data-name="Path 50104" d="M121.449,1046.088l2.084,18.228H329.772L332.116,1044Z" transform="translate(-102.514 -935.937)" fill="#fec558"/>
      <path id="Path_50105" data-name="Path 50105" d="M154.768,1046.9l-33.319.294,2.084,18.228h32.115Z" transform="translate(-102.514 -937.039)" fill="#7a7a93" opacity="0.1" style="mix-blend-mode: multiply;isolation: isolate"/>
      <path id="Path_50106" data-name="Path 50106" d="M101.885,869.4H339.373L330,981.892H109.307Z" transform="translate(-95.059 -869.397)" fill="#f4f5f9"/>
      <path id="Path_50107" data-name="Path 50107" d="M119.2,981.892h-9.9L101.885,869.4h9.5Z" transform="translate(-95.059 -869.397)" fill="#fdca39"/>
      <path id="Path_50108" data-name="Path 50108" d="M461.847,869.4h11.327L463.8,981.892H452.993Z" transform="translate(-228.86 -869.397)" fill="#fec558"/>
      <path id="Path_50109" data-name="Path 50109" d="M161,869.4h23.7V981.892H165.688Z" transform="translate(-117.586 -869.397)" fill="#fec558"/>
      <path id="Path_50110" data-name="Path 50110" d="M149.147,869.4H101.885l7.422,112.494h42.966Z" transform="translate(-95.059 -869.397)" fill="#7a7a93" opacity="0.1" style="mix-blend-mode: multiply;isolation: isolate"/>
      <rect id="Rectangle_5115" data-name="Rectangle 5115" width="249.809" height="8.333" transform="translate(0 0)" fill="#dce4e6"/>
    </g>
  </g>
</svg>
