<svg xmlns="http://www.w3.org/2000/svg" width="379.078" height="600.458" viewBox="0 0 379.078 600.458">
  <g id="Group_22581" data-name="Group 22581" transform="translate(-47.004 -93.956)">
    <path id="Path_49820" data-name="Path 49820" d="M377.353,235.34a9.247,9.247,0,0,0-2.709-1.275q6.454,12.728-3.426,33.7-6.035,10.816-14.9,6.454-.179,1.971-.238,3.944c7.17,4.9,13.624.837,19.4-12.11,6.095-13.982,6.692-24.22,1.872-30.713Z" transform="translate(-62.732 -28.437)" fill="#e3b798"/>
    <path id="Path_49821" data-name="Path 49821" d="M344.559,202.418a77.006,77.006,0,0,0-.6-19Q337.448,138.78,286.04,137.8h-.2q62.2,13.8,46.847,94.849l-4.3,30.475q-2.509,14.7-14.58,32.626L300.9,313.8q-16.252,14.759-38.68,6.254,6.753,8.843,21.232,9.043,16.911-1.973,22.587-12.429l19.639-29.757c.359-.6.717-1.235,1.075-1.872a1.735,1.735,0,0,0,.159-.279,56.782,56.782,0,0,0,7.887-27.925l3.586-22.826c.677-2.668,1.274-5.258,1.832-7.807a227.914,227.914,0,0,0,4.341-23.783Z" transform="translate(-43.681 -8.9)" fill="#e3b798"/>
    <path id="Path_49822" data-name="Path 49822" d="M274.533,137.8H265.77q-51.807.777-58.32,45.612a79.127,79.127,0,0,0-.638,19,224.532,224.532,0,0,0,4.342,23.782c.558,2.549,1.156,5.138,1.832,7.807l2.908,24.778a65.254,65.254,0,0,0,10.436,30.156c.04.08.12.159.16.239.876,1.314,1.793,2.629,2.788,3.944l21.272,26.491a4.221,4.221,0,0,0,.359.438q22.407,8.545,38.68-6.254L302.5,295.753q12.07-17.926,14.58-32.626l4.3-30.475q15.357-81.026-46.847-94.849Z" transform="translate(-32.373 -8.9)" fill="#eecfb2"/>
    <path id="Path_49823" data-name="Path 49823" d="M211.577,247.533a42.272,42.272,0,0,0-2.988-4.621,215.379,215.379,0,0,1,5.458,38.761,19.265,19.265,0,0,0,2.271-1.554l-2.908-24.778c-.677-2.668-1.274-5.258-1.832-7.807Z" transform="translate(-32.796 -30.233)" fill="#c8866a"/>
    <path id="Path_49824" data-name="Path 49824" d="M187.836,237.529q-5.558,9.8,2.908,29.2,4.721,10.7,9.919,13.743,10.458-5.2,1.872-29.917-4.6-14.52-14.7-13.026Z" transform="translate(-28.136 -29.112)" fill="#eecfb2"/>
    <path id="Path_49825" data-name="Path 49825" d="M201.225,279.735a8.291,8.291,0,0,0,8.724.081,215.389,215.389,0,0,0-5.458-38.761q-7.768-10.637-15.1-5.776a12.32,12.32,0,0,0-1,1.514q10.1-1.493,14.7,13.026,8.545,24.679-1.872,29.917Z" transform="translate(-28.698 -28.375)" fill="#e3b798"/>
    <path id="Path_49826" data-name="Path 49826" d="M358.7,247.564c-.558,2.549-1.156,5.138-1.832,7.807L353.282,278.2a27.324,27.324,0,0,0,2.231,1.793q.059-1.971.238-3.944a176.25,176.25,0,0,1,5.856-32.984c-.956,1.314-1.912,2.828-2.908,4.5Z" transform="translate(-62.163 -30.263)" fill="#c8866a"/>
    <path id="Path_49827" data-name="Path 49827" d="M362.236,241.172a176.247,176.247,0,0,0-5.856,32.984q8.843,4.363,14.9-6.454,9.86-20.974,3.426-33.7c-4.063-1.075-8.206,1.314-12.469,7.171Z" transform="translate(-62.792 -28.373)" fill="#eecfb2"/>
    <path id="Path_49828" data-name="Path 49828" d="M231.581,326.673l.278,4.223c.2,3.864.438,7.33.677,10.437l20.674,26.53q15.895,15.716,40.673,6.374a34.326,34.326,0,0,1,9.68-.6,18.245,18.245,0,0,1,13.823,7.808c.438-9.162,1.036-18.523,1.872-28.044.279-3.625.6-9.958.877-19.081l.318-8.286c.04-1.115.04-2.271.08-3.505-.358.638-.717,1.274-1.075,1.872L299.819,354.16q-5.676,10.456-22.587,12.429-14.46-.179-21.232-9.043a4.225,4.225,0,0,1-.359-.438l-21.272-26.491c-1-1.315-1.912-2.629-2.788-3.944Z" transform="translate(-37.463 -46.392)" fill="#c8866a"/>
    <path id="Path_49829" data-name="Path 49829" d="M193.292,399.3c-2.749,1.156-5.417,2.271-8.047,3.426q-34.777,15.118-60.272,31.59,31.61,42.784,39.716,101.821l-5.1,43.54-.478,4.023,6.493-.4,13.5-72.5,8.485-3.505a493.412,493.412,0,0,0,5.7-108Z" transform="translate(-15.825 -61.974)" fill="#e6eaed"/>
    <path id="Path_49830" data-name="Path 49830" d="M338.525,412.569a5.88,5.88,0,0,0-.04.837v1.832q-.239,15.358,5.338,92.938l13.624.438q-2.988-77.858-12.11-124.208l-6.811,28.164Z" transform="translate(-59.158 -58.951)" fill="#caae98"/>
    <path id="Path_49831" data-name="Path 49831" d="M338.856,395c-.159,4.342-.279,8.6-.318,12.867l6.811-28.164q9.142,46.37,12.11,124.208l-13.624-.438c.119,1.554.2,3.147.318,4.741q10.457.3,20.795.717-5.318-35.078-6.613-83.656A164.784,164.784,0,0,0,355.986,395a96.753,96.753,0,0,0-2.789-11.473q-4.3-13.922-12.23-22.268c-.836,9.521-1.434,18.883-1.872,28.044-.08,1.912-.159,3.825-.239,5.7Z" transform="translate(-59.171 -54.254)" fill="#ae8462"/>
    <path id="Path_49832" data-name="Path 49832" d="M336.007,559.976V546.193q-10.337-.42-20.795-.717-39.735-1.136-81.464-.32c-7.727.12-15.5.32-23.344.558-4.341.12-8.724.28-13.106.438l-1.354,14.222,140.062-.4Z" transform="translate(-30.23 -91.511)" fill="#caae98"/>
    <path id="Path_49833" data-name="Path 49833" d="M373.2,517.487c1.553.039,3.068.12,4.581.2l18.8,107.4,2.51-33.024,36.53-153.049L368.576,403l4.62,114.489Z" transform="translate(-65.268 -62.725)" fill="#e6eaed"/>
    <path id="Path_49834" data-name="Path 49834" d="M284.021,619.786a12.2,12.2,0,0,0-2.111,3.227l14.66-13.862,4.3-2.829-9.8,9.64,2.708,1.633q13.266-8.665,15.377-17.925h-.08a6.446,6.446,0,0,0-2.151.677,86.075,86.075,0,0,0-17.17,13.7l-5.736,5.736Z" transform="translate(-47.678 -102.642)" fill="#6585b4"/>
    <path id="Path_49835" data-name="Path 49835" d="M450.243,670.385c.359,1.912.717,3.825,1.075,5.7q20.258-3.407,37.048,1.235-18.942-9.084-38.123-6.933Z" transform="translate(-81.843 -116.911)" fill="#c8866a"/>
    <path id="Path_49836" data-name="Path 49836" d="M281.26,624.563a5.78,5.78,0,0,1,.837.041l8.087-7.887,4.1,3.386q13.085-9.621,15.7-18.444c.239-1.434-.08-2.111-.956-1.991q-2.091,9.261-15.376,17.925l-2.708-1.633,9.8-9.64-4.3,2.829-14.66,13.862a11.831,11.831,0,0,0-.518,1.553Z" transform="translate(-47.546 -102.638)" fill="#3c5477"/>
    <path id="Path_49837" data-name="Path 49837" d="M132.365,689.133q-.538,18.4,14.939,33.064-10.7-13.924-10.079-26.69c.12-.917.239-1.873.278-2.79l-5.138-3.585Z" transform="translate(-17.322 -120.8)" fill="#c8866a"/>
    <path id="Path_49838" data-name="Path 49838" d="M207.544,713.111q23.124-25.872,12.986-30.275-5.8,18.225-25.535,34.3l12.549-4.024Z" transform="translate(-30.037 -119.522)" fill="#e3b798"/>
    <path id="Path_49839" data-name="Path 49839" d="M252.65,698.08c.438,2.908-1.913,6.135-7.051,9.72l-18.762,13.306-4.3,6.493L241.057,716.4l4.581-2.788q17.627-9.621,10.118-14.342a11.383,11.383,0,0,0-3.107-1.194Z" transform="translate(-35.626 -122.616)" fill="#e3b798"/>
    <path id="Path_49840" data-name="Path 49840" d="M278.374,713.237a3.839,3.839,0,0,0-1.474-1.714q-9.92,9.8-34.9,17.767l-5.975,7.21q28.562-9.141,38-15.894c3.147-2.271,4.7-4.341,4.621-6.214-.039-.16-.039-.319-.08-.439a3.131,3.131,0,0,0-.2-.716Z" transform="translate(-38.365 -125.344)" fill="#e3b798"/>
    <path id="Path_49841" data-name="Path 49841" d="M282.987,629.028c.238.039.477.039.717.079l5.417.558,5.378-5.218-4.1-3.386-8.087,7.887a1.975,1.975,0,0,0,.478.039.427.427,0,0,1,.2.041Zm9.56-3.825-4.82,3.227-4.341.239L290,622.933l2.55,2.27Z" transform="translate(-47.759 -106.984)" fill="#c9d2d8"/>
    <path id="Path_49842" data-name="Path 49842" d="M288,628.907l4.82-3.227-2.549-2.27-6.613,5.736,4.342-.24Z" transform="translate(-48.033 -107.46)" fill="#e6eaed"/>
    <path id="Path_49843" data-name="Path 49843" d="M273.014,642.89l-18.762,12.429-10.477-2.55,11.672,8.645,16.333-12.39h20.157c-.756-4.5-7.09-6.532-18.922-6.134Z" transform="translate(-39.937 -111.404)" fill="#e3b798"/>
    <path id="Path_49844" data-name="Path 49844" d="M312.18,686.292c-4.741-3.863-8.724-5.059-11.872-3.585l-8.843,4.183-13.7-6.452L292.5,691.352l8.924-5.06Z" transform="translate(-46.836 -119.035)" fill="#e3b798"/>
    <path id="Path_49845" data-name="Path 49845" d="M300.148,670.825q-5.914-7.47-16.611-4.9L272.263,671.7,258.52,666l15.337,11.355,10.994-6.534Z" transform="translate(-42.93 -115.956)" fill="#e3b798"/>
    <path id="Path_49846" data-name="Path 49846" d="M266.887,672.809,251.55,661.454l-.08-.039L239.8,652.771l-.04-.041-13.305-9.879-2.271,6.174,114.21,86.245,2.27-7.807-20-14.82-9.043-6.692-2.549-1.871-25.495-18.923-1.952-1.434-14.739-10.914Z" transform="translate(-35.961 -111.406)" fill="#af9a87"/>
    <path id="Path_49847" data-name="Path 49847" d="M472.494,552.092c5.577-1.553,11.074-3.227,16.492-4.98q-12.608-75.588-38.4-121.021L356.93,389.2a96.787,96.787,0,0,1,2.789,11.473,164.781,164.781,0,0,1,2.35,30.275q1.255,48.58,6.613,83.656c.717.039,1.435.039,2.151.08L366.212,400.2l67.043,36.012-36.53,153.049-2.51,33.024-18.8-107.4,1.952,17.886,12.11,98.354a97.012,97.012,0,0,0,11.951-2.989c1.872-.756,3.7-1.433,5.537-2.111l.677-31.43c2.032-9.839,4.183-19.719,6.374-29.638,1.314-.2,2.668-.438,3.983-.677a529.931,529.931,0,0,0,54.5-12.189Zm-57.762,9.8q12.967-57.784,30.076-116.321,16.074,40.513,28.443,94.689-25.814,13.564-58.519,21.632Z" transform="translate(-62.904 -59.925)" fill="#bfc6ca"/>
    <path id="Path_49848" data-name="Path 49848" d="M459.527,459.925q-17.089,58.557-30.076,116.321,32.685-8.068,58.519-21.632-12.369-54.2-28.443-94.689Z" transform="translate(-77.623 -74.279)" fill="#e6eaed"/>
    <path id="Path_49849" data-name="Path 49849" d="M460.586,608.669q12.248,39.8,6.493,92.659-65.192,15.775-133.491-9.6l.239,4.222,9.043,6.692a377.843,377.843,0,0,0,53.46,13.267q47.982,7.826,78.477-4.622,11.532-47.084-7.051-117.714a529.947,529.947,0,0,1-54.5,12.189c1.235,3.784,2.43,7.49,3.586,11.154l43.74-8.245Z" transform="translate(-58.166 -101.404)" fill="#e3b798"/>
    <path id="Path_49850" data-name="Path 49850" d="M467.079,705.173q5.737-52.883-6.493-92.659l-43.74,8.245c4.062,13.346,7.29,25.974,9.72,37.964q19.18-2.151,38.123,6.933-16.792-4.661-37.048-1.235a135.2,135.2,0,0,0-25.415,6.93c-1.832.677-3.665,1.354-5.537,2.111a97.036,97.036,0,0,1-11.951,2.989,85.674,85.674,0,0,1-49.835-5.815l-1.315,24.937q68.3,25.393,133.491,9.6Z" transform="translate(-58.166 -105.249)" fill="#eecfb2"/>
    <path id="Path_49851" data-name="Path 49851" d="M230.5,365.063a31.773,31.773,0,0,0-6.414,12.11q10.936,32.386,6.055,127.156l-15.3,1.076c-.239,1.274-.478,2.55-.757,3.824,7.848-.239,15.616-.438,23.344-.559q-.178-78.635-1.195-95.168c-.359-5.776-.836-11.672-1.474-17.727q-1.2-11.114-2.987-22.825c-.2-1.156-.359-2.311-.558-3.466l-.717-4.422Z" transform="translate(-33.912 -55.025)" fill="#ae8462"/>
    <path id="Path_49852" data-name="Path 49852" d="M235.568,369.106l.478-.12,10.477,33.861q29.638,11.532,57.284-2.39V378.427a34.326,34.326,0,0,0-9.68.6q-24.8,9.322-40.673-6.374l-20.674-26.53c.517,7.13,1,12.189,1.514,15.1l.717,4.422c.2,1.155.358,2.31.557,3.466Z" transform="translate(-37.706 -51.181)" fill="#eecfb2"/>
    <path id="Path_49853" data-name="Path 49853" d="M212.34,393.951c-3.545,1.395-7.051,2.829-10.476,4.263a493.412,493.412,0,0,1-5.7,108l-8.485,3.505-13.5,72.5-6.493.4-.478,4.063,13.823,1.633,8.485-52.624.6-5.934,1.355-14.222c4.382-.159,8.763-.319,13.106-.438.279-1.274.518-2.55.757-3.824q7.827-41.648,6.652-95.288-.477-7.708-.239-14.341c.12-2.708.319-5.258.6-7.688Z" transform="translate(-24.397 -60.888)" fill="#bfc6ca"/>
    <path id="Path_49854" data-name="Path 49854" d="M221.45,398.86q-.238,6.633.239,14.341,1.2,53.6-6.652,95.288l15.3-1.076q4.9-94.77-6.055-127.156a62.073,62.073,0,0,0-2.231,10.915c-.279,2.43-.477,4.98-.6,7.688Z" transform="translate(-34.105 -58.109)" fill="#caae98"/>
    <path id="Path_49855" data-name="Path 49855" d="M143.062,584.67V566.665q-23.544-14.4-41.031-44.019,22.169,24.619,43.023,30-8.486-54.673-33.343-90.068Q94.681,518.861,82.79,572.6q30.654,16.612,60.272,12.07Z" transform="translate(-7.263 -74.816)" fill="#e6eaed"/>
    <path id="Path_49856" data-name="Path 49856" d="M118.032,661.2c.756-.877,2.031-1.275,3.9-1.2,9.521,1.474,14.659,8.923,15.337,22.428a19.688,19.688,0,0,0,7.369,14.979c10.318-.836,19.559-5.816,27.646-14.938,8.485-9.6,14.58-13.066,18.205-10.477q10.1,4.42-12.986,30.275a32.566,32.566,0,0,0,16.571-8.445q14.043-11.652,22.946-9.68a11.382,11.382,0,0,1,3.107,1.194q7.53,4.721-10.118,14.342l-4.581,2.788q26.949-11.471,33.1-7.609a3.839,3.839,0,0,1,1.474,1.714,3.09,3.09,0,0,1,.2.716c.04.12.04.279.08.439.08,1.873-1.474,3.943-4.621,6.214a13.9,13.9,0,0,1,3.506,1.275q5.8,3.1-8.963,8.763a208.019,208.019,0,0,1-39.637,12.39l111.859,6.174L188.222,646.3,47,629.406l30.952,21.632,37.088,25.972,5.138,3.585a34.591,34.591,0,0,0-2.23-13.742c-.877-2.67-.837-4.542.08-5.657Z" transform="translate(0 -108.677)" fill="#683c31"/>
    <path id="Path_49857" data-name="Path 49857" d="M140.023,667.788c-1.873-.08-3.147.319-3.9,1.2,7.051,2.35,11.353,9.281,12.986,20.795l.239,1.2q3.287,16.133,13.385,14.221a19.688,19.688,0,0,1-7.369-14.979c-.678-13.5-5.816-20.953-15.337-22.428Z" transform="translate(-18.087 -116.465)" fill="#e3b798"/>
    <path id="Path_49858" data-name="Path 49858" d="M124.169,668.53c-.917,1.116-.956,2.987-.08,5.657a34.591,34.591,0,0,1,2.23,13.742c-.039.917-.159,1.873-.278,2.79q-.6,12.786,10.079,26.69-15.3-9.263-24.22-32.666l-29.2-19.2-5.457,27.8q.06,16.194,27.726,28.6,42.306,16.611,100.466,6.971,29.518-8.187,39.875-16.372a13.885,13.885,0,0,0-3.505-1.275q-9.44,6.75-38,15.894l5.975-7.21q24.978-7.947,34.9-17.768-6.155-3.883-33.1,7.609l-18.523,11.194,4.3-6.493L216.11,701.2c5.139-3.585,7.49-6.811,7.051-9.72q-8.9-1.973-22.946,9.68a32.569,32.569,0,0,1-16.571,8.445L171.1,713.625q19.718-16.074,25.535-34.3c-3.625-2.59-9.72.877-18.205,10.477-8.087,9.122-17.328,14.1-27.646,14.938q-10.1,1.912-13.385-14.221-.118-.6-.238-1.2c-1.633-11.513-5.936-18.444-12.987-20.795Z" transform="translate(-6.137 -116.012)" fill="#eecfb2"/>
    <path id="Path_49859" data-name="Path 49859" d="M85.483,656.547l-1.394,7.17,29.2,19.2q8.9,23.423,24.22,32.666-15.476-14.641-14.939-33.064L85.484,656.547Z" transform="translate(-7.527 -114.186)" fill="#e3b798"/>
    <path id="Path_49860" data-name="Path 49860" d="M150.995,746.192l-1.474,11.353q31.431,5.2,57.284-1.474l119.269,4.98,10.4-13.067,8.046,62.105-203,9.122-.6,4.382H369.336l-12.11-79.91a377.835,377.835,0,0,1-53.46-13.267l20,14.82-2.271,7.807-111.859-6.174a188.3,188.3,0,0,1-19.28,2.908,101.905,101.905,0,0,1-39.358-3.585Z" transform="translate(-19.061 -129.179)" fill="#ae8462"/>
    <path id="Path_49861" data-name="Path 49861" d="M112.028,733.921A209.17,209.17,0,0,0,145.131,745a101.9,101.9,0,0,0,39.358,3.585,187.867,187.867,0,0,0,19.28-2.908,208.014,208.014,0,0,0,39.637-12.39q14.76-5.676,8.963-8.763-10.338,8.186-39.876,16.372-58.141,9.619-100.466-6.971Z" transform="translate(-13.198 -127.982)" fill="#e3b798"/>
    <path id="Path_49862" data-name="Path 49862" d="M342.588,546.82c-1.514-.08-3.028-.16-4.581-.2-.717-.041-1.434-.041-2.151-.08v13.783l-140.062.4-.6,5.934,137.513-1.792,7.728,90.746-28.881-4.7q-6.512-21.93-21.232-32.188a16.965,16.965,0,0,1,2.669,2.429q9.8,13.744,11.353,34.976c.837.358,1.633.756,2.47,1.117a85.674,85.674,0,0,0,49.835,5.815l-12.11-98.354-1.952-17.886Z" transform="translate(-30.077 -91.859)" fill="#ae8462"/>
    <path id="Path_49863" data-name="Path 49863" d="M274.479,630.943a5.771,5.771,0,0,0-.837-.041,14.517,14.517,0,0,0-2.27.08,14.928,14.928,0,0,0-9.4,4.622l-18.245,14.7.039.041,10.477,2.55,18.763-12.429c11.831-.4,18.165,1.633,18.922,6.134H271.771l-16.334,12.39.081.038,13.743,5.7,11.273-5.777q10.7-2.569,16.611,4.9h-15.3l-11,6.534,13.7,6.452,8.844-4.183c3.147-1.474,7.13-.278,11.871,3.585H294.516l-8.924,5.06,1.953,1.434,22.149,7.967c.12-15.337-2.032-27.725-6.374-37.246-3.386-9.521-8.724-16.611-16.014-21.192l-6.015-.6-5.417-.558c-.239-.04-.478-.04-.717-.079a.426.426,0,0,0-.2-.041,1.978,1.978,0,0,1-.478-.039Z" transform="translate(-39.928 -108.978)" fill="#eecfb2"/>
    <path id="Path_49864" data-name="Path 49864" d="M259.361,618.529a14.51,14.51,0,0,1,2.27-.08,11.833,11.833,0,0,1,.518-1.553,12.2,12.2,0,0,1,2.111-3.227L270,607.932a86.07,86.07,0,0,1,17.169-13.7,6.453,6.453,0,0,1,2.152-.678h.079c.877-.12,1.2.557.956,1.991q-2.629,8.843-15.7,18.444l-5.378,5.218,6.016.6,5.736.6a17.092,17.092,0,0,1,6.453,2.509c.159.12.319.2.478.319l.2.159q14.759,10.217,21.232,32.188l28.881,4.7-7.728-90.746-137.513,1.792-8.485,52.625,33.86,4.023,13.3,9.878,18.245-14.7a14.93,14.93,0,0,1,9.4-4.622Z" transform="translate(-27.917 -96.525)" fill="#caae98"/>
    <path id="Path_49865" data-name="Path 49865" d="M311.271,636.191l-.2-.159c-.159-.12-.318-.2-.477-.319a17.068,17.068,0,0,0-6.454-2.509l-5.736-.6c7.29,4.581,12.628,11.672,16.014,21.192,4.341,9.521,6.493,21.91,6.374,37.246l-22.149-7.967L324.138,702c.119-1.037.279-2.072.4-3.069a134.866,134.866,0,0,0,.757-25.335q-1.554-21.211-11.353-34.976a16.958,16.958,0,0,0-2.669-2.429Z" transform="translate(-51.025 -109.327)" fill="#e3b798"/>
    <path id="Path_49866" data-name="Path 49866" d="M333.24,714.31,333,710.089l1.315-24.937c-.837-.36-1.633-.759-2.47-1.117a134.936,134.936,0,0,1-.757,25.335c-.119,1-.279,2.032-.4,3.069l2.55,1.871Z" transform="translate(-57.578 -119.765)" fill="#c8866a"/>
    <path id="Path_49867" data-name="Path 49867" d="M336.624,752.457l-10.4,13.067-119.269-4.98q-25.873,6.633-57.284,1.474l-8.006,61.666,203-9.122-8.046-62.1Z" transform="translate(-19.213 -133.652)" fill="#caae98"/>
    <path id="Path_49868" data-name="Path 49868" d="M236.756,374.809l-.478.12q1.793,11.712,2.988,22.826c.638,6.055,1.115,11.951,1.474,17.727.757.359,1.553.677,2.311,1q29.219,11.771,64.734.4c3.266-1.035,6.572-2.231,9.959-3.586v-1.832a5.885,5.885,0,0,1,.04-.837c.039-4.263.159-8.525.318-12.867.08-1.871.159-3.784.239-5.7a18.245,18.245,0,0,0-13.823-7.808v22.029q-27.666,13.923-57.284,2.39l-10.477-33.86Z" transform="translate(-38.416 -57.003)" fill="#e3b798"/>
    <path id="Path_49869" data-name="Path 49869" d="M244.187,426.276c-.756-.319-1.553-.637-2.311-1q1.016,16.552,1.195,95.168,41.768-.775,81.464.32c-.119-1.594-.2-3.187-.318-4.741q-5.557-77.56-5.338-92.938c-3.387,1.355-6.693,2.55-9.959,3.586l.278,10.6q-33.76,6.693-64.613-.557l-.4-10.437Zm65.131,14.3,2.032,72.063H247.333L244.7,439.82q34,5.8,64.613.757Z" transform="translate(-39.552 -66.802)" fill="#bfc6ca"/>
    <path id="Path_49870" data-name="Path 49870" d="M312.071,516.9l-2.032-72.063q-30.593,5.079-64.613-.757l2.629,72.82Z" transform="translate(-40.272 -71.063)" fill="#e6eaed"/>
    <path id="Path_49871" data-name="Path 49871" d="M309.509,427.487q-35.495,11.353-64.734-.4l.4,10.437q30.833,7.231,64.613.557l-.278-10.6Z" transform="translate(-40.14 -67.614)" fill="#e6eaed"/>
    <path id="Path_49872" data-name="Path 49872" d="M116.107,443.231c-1.593,5.139-3.147,10.279-4.7,15.417q24.858,35.435,33.343,90.068-20.855-5.377-43.023-30,17.508,29.639,41.031,44.019v18.005q-29.638,4.542-60.272-12.07c-.4,1.792-.8,3.544-1.195,5.338a111.337,111.337,0,0,0,10.2,5.617,101.485,101.485,0,0,0,48.4,9.879c3.545-.12,7.171-.438,10.836-.916l5.1-43.54q-8.066-59.038-39.716-101.821Z" transform="translate(-6.959 -70.89)" fill="#bfc6ca"/>
    <path id="Path_49873" data-name="Path 49873" d="M48.837,621.76,47,627.854l141.218,16.89,2.271-6.174-33.86-4.024-13.823-1.633L131.735,631.6,102.3,628.094l-19.679-2.31L48.837,621.76Z" transform="translate(0 -107.125)" fill="#ccbcb3"/>
    <path id="Path_49874" data-name="Path 49874" d="M111.68,623.764v2.829l29.438,3.506,1.2-5.857a101.484,101.484,0,0,1-48.4-9.879l-.677,3.545,18.444,5.856Z" transform="translate(-9.383 -105.624)" fill="#e3b798"/>
    <path id="Path_49875" data-name="Path 49875" d="M111.365,627.5v-2.828L92.921,618.81l-1.235,6.375,19.679,2.31Z" transform="translate(-9.069 -106.527)" fill="#eecfb2"/>
    <path id="Path_49876" data-name="Path 49876" d="M268.316,301.751c2.509-.12,5.5,1.274,8.923,4.143a4.165,4.165,0,0,1-.677-.757c-3.864-4.222-6.613-5.338-8.246-3.386Z" transform="translate(-44.918 -41.986)" fill="#794224"/>
    <path id="Path_49877" data-name="Path 49877" d="M276.11,305.057a3.562,3.562,0,0,0,4.94,0l.2-.159a4.027,4.027,0,0,0,.637-.757c3.864-4.222,6.613-5.338,8.246-3.386,2.669-.756,4.382-1.793,5.059-3.187a3.509,3.509,0,0,0-.956-1.155c-1.593-1.076-4.3-.4-8.127,2.071a13.538,13.538,0,0,1-7.449,2.111H278.5a13.536,13.536,0,0,1-7.449-2.111c-3.784-2.43-6.493-3.147-8.087-2.111a3.334,3.334,0,0,0-1,1.2c.677,1.394,2.39,2.43,5.06,3.187,1.633-1.952,4.382-.836,8.246,3.386a4.162,4.162,0,0,0,.677.757l.159.159Z" transform="translate(-43.63 -40.99)" fill="#c8866a"/>
    <path id="Path_49878" data-name="Path 49878" d="M278.815,293.8h.08a13.538,13.538,0,0,0,7.449-2.111c3.824-2.469,6.533-3.147,8.127-2.071a5.8,5.8,0,0,0-.677-3.067l-4.581-8.127q-10.4-31.969-20.755,0l-4.581,7.608a5.483,5.483,0,0,0-.677,3.545c1.593-1.035,4.3-.319,8.087,2.111a13.536,13.536,0,0,0,7.449,2.111Z" transform="translate(-43.865 -34.196)" fill="#e3b798"/>
    <path id="Path_49879" data-name="Path 49879" d="M262.836,289.547c-1.314,2.111-1.632,3.864-.956,5.3a3.334,3.334,0,0,1,1-1.2,5.483,5.483,0,0,1,.677-3.545l4.581-7.608-5.3,7.051Z" transform="translate(-43.542 -38.267)" fill="#d89c7a"/>
    <path id="Path_49880" data-name="Path 49880" d="M302.069,294.845c.677-1.435.359-3.187-.956-5.3l-5.258-7.051,4.581,8.127a5.8,5.8,0,0,1,.677,3.068,3.52,3.52,0,0,1,.956,1.155Z" transform="translate(-50.508 -38.267)" fill="#d89c7a"/>
    <path id="Path_49881" data-name="Path 49881" d="M286.8,305.137a4.029,4.029,0,0,1-.637.757c3.386-2.869,6.373-4.263,8.883-4.143-1.633-1.952-4.382-.836-8.246,3.386Z" transform="translate(-48.54 -41.986)" fill="#794224"/>
    <path id="Path_49882" data-name="Path 49882" d="M255.171,320.114l4.183-.6c1.155.2,3.984.916,8.485,2.23a36.731,36.731,0,0,0,15.5.6c5.816-.917,10.238-2.111,13.225-3.585a79.686,79.686,0,0,1,7.648-3.466l3.147,1.035-1.633-3.545a2.437,2.437,0,0,0-.478.2c-2.47.916-5.3,2.191-8.485,3.744s-7.688,2.708-13.544,3.545a39.977,39.977,0,0,1-15.855-.638c-4.741-1.235-7.927-2.031-9.6-2.35l-2.589,2.828Z" transform="translate(-42.25 -44.414)" fill="#c8866a"/>
    <path id="Path_49883" data-name="Path 49883" d="M127.63,628.983a5.477,5.477,0,0,1,3.187-4.222,13.372,13.372,0,0,1,13.545,1.395q2.689,2.151,2.389,4.779c-.04.279-.079.519-.12.8h.24a3.977,3.977,0,0,0,.318-1.314q.3-2.63-2.509-4.781a13.1,13.1,0,0,0-6.932-2.55,13.377,13.377,0,0,0-7.33,1.156c-2.032,1.075-3.147,2.47-3.347,4.223a.857.857,0,0,0,.041.318,3.077,3.077,0,0,0,.039.6l.518.08V629.3a.877.877,0,0,1-.04-.319Z" transform="translate(-16.251 -107.377)" fill="gray"/>
    <path id="Path_49884" data-name="Path 49884" d="M130.959,624.893a5.477,5.477,0,0,0-3.187,4.222.878.878,0,0,0,.04.319v.159l5.019.6v-.039a2.239,2.239,0,0,1,1.315-1.674,5.688,5.688,0,0,1,5.657.557,2.021,2.021,0,0,1,1,1.873v.238l5.975.717c.04-.278.08-.518.12-.8q.3-2.629-2.39-4.779a13.371,13.371,0,0,0-13.544-1.395Z" transform="translate(-16.393 -107.509)" fill="#999"/>
    <path id="Path_49885" data-name="Path 49885" d="M312.665,201.925c.033-.032.065,0,.1.032a50.652,50.652,0,0,1,30.138,12.8l2.095,5.158q-22.724-14.166-46.479-1.354,3.142-9.863,14.15-16.632Z" transform="translate(-51.048 -21.911)"/>
    <path id="Path_49886" data-name="Path 49886" d="M307.443,247.58c-4.319-1.45-7.284-10.249-8.928-26.334q23.739-12.812,46.479,1.354-4.738,19.776-16.052,24.98a42.544,42.544,0,0,1-21.5,0Z" transform="translate(-51.048 -24.6)" fill="#e3b798"/>
    <path id="Path_49887" data-name="Path 49887" d="M248.716,201.925c-.033-.032-.065,0-.1.032a50.649,50.649,0,0,0-30.138,12.8l-2.1,5.158q22.725-14.166,46.48-1.354-3.142-9.863-14.15-16.632Z" transform="translate(-34.378 -21.911)"/>
    <path id="Path_49888" data-name="Path 49888" d="M253.938,247.58c4.319-1.45,7.285-10.249,8.928-26.334q-23.739-12.812-46.48,1.354,4.739,19.776,16.052,24.98a42.544,42.544,0,0,0,21.5,0Z" transform="translate(-34.378 -24.6)" fill="#e3b798"/>
    <path id="Path_49889" data-name="Path 49889" d="M254.9,232.962c1.128.579,2.32,1.224,3.545,1.965-.87-1.386-2.708-2.739-5.448-4.125l5.319,1.612q-22.965-13.3-30.685,8.7c.193-.355.387-.741.58-1.1q8.751-15.81,26.3-7.252l.387.194Z" transform="translate(-36.661 -27.085)"/>
    <path id="Path_49890" data-name="Path 49890" d="M254.514,234.134a31.689,31.689,0,0,1,.9,4.19c.612,4.609-.1,8.509-2.16,11.7-.128.161-.257.355-.387.516a125.685,125.685,0,0,1-18.147-1.192,21.646,21.646,0,0,1-5.448-6.156c-.354-.58-.709-1.192-1.063-1.805-.194.355-.387.741-.58,1.1a23.739,23.739,0,0,0,6.769,7.962,93.034,93.034,0,0,0,22.4,0l-3.481.1.387-.484c2.32-3.223,3.061-7.156,2.224-11.829a28.031,28.031,0,0,0-1.031-3.9l-.387-.194Z" transform="translate(-36.661 -28.451)" fill="#c8866a"/>
    <path id="Path_49891" data-name="Path 49891" d="M255.564,237.559a31.69,31.69,0,0,0-.9-4.19q-17.55-8.558-26.3,7.252c.355.613.709,1.225,1.063,1.805a21.646,21.646,0,0,0,5.448,6.156,125.681,125.681,0,0,0,18.147,1.192c.128-.161.258-.355.387-.516l-18.05-1.708c-2.675-2.482-4.028-4.9-4-7.188q10.394-10.008,24.207-2.8Z" transform="translate(-36.809 -27.686)" fill="#e7e0da"/>
    <path id="Path_49892" data-name="Path 49892" d="M232.121,241.427c-.032,2.289,1.321,4.706,4,7.188l18.05,1.708c2.063-3.191,2.772-7.091,2.16-11.7q-13.828-7.2-24.207,2.8Z" transform="translate(-37.572 -28.75)" fill="#f3f0ed"/>
    <path id="Path_49893" data-name="Path 49893" d="M233.253,227.247q7.494-4.206,18.244-2.417-10.154-5.125-18.244,2.417Z" transform="translate(-37.802 -26.142)" fill="#c8866a"/>
    <path id="Path_49894" data-name="Path 49894" d="M246.3,231.417a7.595,7.595,0,0,0-7.671,7.671,7.649,7.649,0,0,0,7.671,7.671,7.468,7.468,0,0,0,4.352-1.322,13.639,13.639,0,0,0,1.063-.935,7.276,7.276,0,0,0,2.256-5.415,7.648,7.648,0,0,0-7.671-7.671Zm-5.125,2.514a7.084,7.084,0,0,1,5.125-2.1,6.957,6.957,0,0,1,5.093,2.1,7.083,7.083,0,0,1,2.1,5.125,6.96,6.96,0,0,1-2.1,5.093,8.351,8.351,0,0,1-1,.87,6.918,6.918,0,0,1-4.094,1.258,7.207,7.207,0,0,1-7.22-7.22,7.082,7.082,0,0,1,2.095-5.125Z" transform="translate(-38.893 -27.9)" fill="#651f01"/>
    <path id="Path_49895" data-name="Path 49895" d="M246.414,231.942a7.154,7.154,0,0,0-7.22,7.22,7.236,7.236,0,0,0,11.313,5.963,8.287,8.287,0,0,0,1-.87,6.957,6.957,0,0,0,2.1-5.092,7.083,7.083,0,0,0-2.1-5.125,6.957,6.957,0,0,0-5.093-2.1Z" transform="translate(-39.008 -28.006)" fill="#930"/>
    <path id="Path_49896" data-name="Path 49896" d="M250.053,236.442a4.282,4.282,0,0,0-6,0,4.193,4.193,0,0,0-1.225,3,4.082,4.082,0,0,0,1.225,3,4.255,4.255,0,0,0,7.252-3,4.093,4.093,0,0,0-1.257-3Z" transform="translate(-39.746 -28.671)"/>
    <path id="Path_49897" data-name="Path 49897" d="M251.423,235.663a2.088,2.088,0,0,0-1.547.612,2.163,2.163,0,0,0-.613,1.58,2.067,2.067,0,0,0,.613,1.515,2.09,2.09,0,0,0,1.547.612,2.017,2.017,0,0,0,1.514-.612,2.1,2.1,0,0,0,.645-1.515,2.19,2.19,0,0,0-.645-1.58,2.014,2.014,0,0,0-1.514-.612Z" transform="translate(-41.051 -28.762)" fill="#fff"/>
    <path id="Path_49898" data-name="Path 49898" d="M308.47,232.962c-1.128.579-2.321,1.224-3.546,1.965.87-1.386,2.708-2.739,5.448-4.125l-5.319,1.612q22.965-13.3,30.685,8.7c-.193-.355-.387-.741-.58-1.1q-8.75-15.81-26.3-7.252-.194.1-.387.194Z" transform="translate(-52.349 -27.085)"/>
    <path id="Path_49899" data-name="Path 49899" d="M309.275,234.134a31.546,31.546,0,0,0-.9,4.19c-.613,4.609.1,8.509,2.159,11.7.129.161.257.355.387.516a125.7,125.7,0,0,0,18.148-1.192,21.644,21.644,0,0,0,5.447-6.156c.355-.58.709-1.192,1.063-1.805.194.355.387.741.58,1.1a23.737,23.737,0,0,1-6.768,7.962,93.04,93.04,0,0,1-22.4,0l3.481.1-.387-.484c-2.321-3.223-3.062-7.156-2.225-11.829a27.932,27.932,0,0,1,1.032-3.9q.192-.1.387-.194Z" transform="translate(-52.767 -28.451)" fill="#c8866a"/>
    <path id="Path_49900" data-name="Path 49900" d="M308.726,237.559a31.551,31.551,0,0,1,.9-4.19q17.551-8.558,26.3,7.252c-.355.613-.709,1.225-1.064,1.805a21.633,21.633,0,0,1-5.447,6.156,125.7,125.7,0,0,1-18.148,1.192c-.128-.161-.257-.355-.387-.516l18.05-1.708c2.676-2.482,4.029-4.9,4-7.188q-10.4-10.008-24.207-2.8Z" transform="translate(-53.12 -27.686)" fill="#e7e0da"/>
    <path id="Path_49901" data-name="Path 49901" d="M332.879,241.427c.032,2.289-1.321,4.706-4,7.188l-18.05,1.708c-2.063-3.191-2.772-7.091-2.159-11.7q13.828-7.2,24.207,2.8Z" transform="translate(-53.066 -28.75)" fill="#f3f0ed"/>
    <path id="Path_49902" data-name="Path 49902" d="M333.318,227.247q-7.494-4.206-18.243-2.417,10.153-5.125,18.243,2.417Z" transform="translate(-54.409 -26.142)" fill="#c8866a"/>
    <path id="Path_49903" data-name="Path 49903" d="M321.511,231.417a7.594,7.594,0,0,1,7.671,7.671,7.648,7.648,0,0,1-7.671,7.671,7.469,7.469,0,0,1-4.351-1.322,13.932,13.932,0,0,1-1.064-.935,7.278,7.278,0,0,1-2.256-5.415,7.647,7.647,0,0,1,7.671-7.671Zm5.126,2.514a7.084,7.084,0,0,0-5.126-2.1,6.958,6.958,0,0,0-5.092,2.1,7.082,7.082,0,0,0-2.1,5.125,6.96,6.96,0,0,0,2.1,5.093,8.415,8.415,0,0,0,1,.87,6.916,6.916,0,0,0,4.093,1.258,7.207,7.207,0,0,0,7.22-7.22,7.082,7.082,0,0,0-2.095-5.125Z" transform="translate(-54.158 -27.9)" fill="#651f01"/>
    <path id="Path_49904" data-name="Path 49904" d="M321.634,231.942a7.154,7.154,0,0,1,7.22,7.22,7.236,7.236,0,0,1-11.313,5.963,8.348,8.348,0,0,1-1-.87,6.957,6.957,0,0,1-2.1-5.092,7.083,7.083,0,0,1,2.1-5.125,6.958,6.958,0,0,1,5.092-2.1Z" transform="translate(-54.281 -28.006)" fill="#930"/>
    <path id="Path_49905" data-name="Path 49905" d="M319.5,236.442a4.282,4.282,0,0,1,6,0,4.193,4.193,0,0,1,1.225,3,4.082,4.082,0,0,1-1.225,3,4.255,4.255,0,0,1-7.252-3,4.093,4.093,0,0,1,1.257-3Z" transform="translate(-55.053 -28.671)"/>
    <path id="Path_49906" data-name="Path 49906" d="M319.194,235.663a2.086,2.086,0,0,1,1.547.612,2.163,2.163,0,0,1,.613,1.58,2.067,2.067,0,0,1-.613,1.515,2.089,2.089,0,0,1-1.547.612,2.02,2.02,0,0,1-1.515-.612,2.1,2.1,0,0,1-.644-1.515,2.192,2.192,0,0,1,.644-1.58,2.017,2.017,0,0,1,1.515-.612Z" transform="translate(-54.807 -28.762)" fill="#fff"/>
    <path id="Path_49907" data-name="Path 49907" d="M204.366,252.421q-3.046-5.705-7.059-7.446-6.334-.919-4.738,11.024c.033-.162.033-.355.065-.516q2.273-18.324,12.926,3.8-4.979.435-5.125,4.545-.1,3.481,3.384,9.67c-2.8-8.155-2.063-12.506,2.289-13.055l3.739,10.314a98.929,98.929,0,0,0-2.354-10.378,48.79,48.79,0,0,0-3.126-7.962Z" transform="translate(-29.479 -30.638)" fill="#d89c7a"/>
    <path id="Path_49908" data-name="Path 49908" d="M192.731,256.063c3.352.774,5.963,3.546,7.8,8.349q.145-4.11,5.125-4.545-10.685-22.1-12.926-3.8Z" transform="translate(-29.577 -31.219)" fill="#e3b798"/>
    <path id="Path_49909" data-name="Path 49909" d="M363.57,252.421q3.046-5.705,7.059-7.446,6.333-.919,4.738,11.024c-.033-.162-.033-.355-.065-.516q-2.272-18.324-12.925,3.8,4.98.435,5.125,4.545.1,3.481-3.384,9.67c2.8-8.155,2.063-12.506-2.289-13.055l-3.739,10.314a98.949,98.949,0,0,1,2.353-10.378,48.86,48.86,0,0,1,3.127-7.962Z" transform="translate(-63.139 -30.638)" fill="#d89c7a"/>
    <path id="Path_49910" data-name="Path 49910" d="M376.394,256.063c-3.352.774-5.963,3.546-7.8,8.349q-.145-4.11-5.125-4.545,10.685-22.1,12.925-3.8Z" transform="translate(-64.231 -31.219)" fill="#e3b798"/>
    <path id="Path_49911" data-name="Path 49911" d="M274.413,334.973a29.7,29.7,0,0,1,18.046,0q-8.126-7.469-18.046,0Z" transform="translate(-46.156 -48.16)" fill="#c8866a"/>
    <path id="Path_49912" data-name="Path 49912" d="M228.775,168.4l-3.187-7.808q-26.829,33.163-18.006,72.9a95.382,95.382,0,0,0,7.768,8.445q-5.2-27.308,5.5-59.794c2.39-7.609,5.02-12.19,7.927-13.743Z" transform="translate(-32.147 -13.525)" fill="#40251e"/>
    <path id="Path_49913" data-name="Path 49913" d="M260.224,170.183,254.129,157.2c-1.633,12.708.319,23.105,5.856,31.271a65.052,65.052,0,0,0,7.25,3.665q-6.811-11.532-7.011-21.949Z" transform="translate(-41.926 -12.836)" fill="#40251e"/>
    <path id="Path_49914" data-name="Path 49914" d="M292.733,171.444,289.387,158.9q-8.963,18.285-1.833,34.139a41.133,41.133,0,0,0,7.291,2.789,52.106,52.106,0,0,1-2.629-13.664,50.794,50.794,0,0,1,.518-10.716Z" transform="translate(-48.183 -13.18)" fill="#40251e"/>
    <path id="Path_49915" data-name="Path 49915" d="M331.1,165.645l-.638-12.747Q322.4,174.589,302.1,191.857q19-4.959,29-26.212Z" transform="translate(-51.776 -11.963)" fill="#40251e"/>
    <path id="Path_49916" data-name="Path 49916" d="M349.851,178.027l-2.988-13.584q-1.016,16.312-10.158,27.129c-.279,1.474-.558,2.987-.916,4.461,8.245-4.063,12.906-10.079,14.062-18.006Z" transform="translate(-58.613 -14.306)" fill="#40251e"/>
    <path id="Path_49917" data-name="Path 49917" d="M334.1,121.866h8.844a55.176,55.176,0,0,0-24.5-14.7q9.619,5.08,12.468,12.07l-8.366,2.908q25.755,8.545,34.458,21.113h-5.457q12.25,56.647-8.286,84.97c-.717,3.506-1.514,7.012-2.43,10.517q15.357-13.324,21.631-30.275,9.262-28.861,1.235-60.67c.677-1.554,2.987-2.749,7.011-3.666q-13.5-13.862-36.609-22.268Z" transform="translate(-55.093 -2.681)" fill="#40251e"/>
    <path id="Path_49918" data-name="Path 49918" d="M314.544,150.137l2.988,13.584a208.631,208.631,0,0,1-3.068,61.825q20.555-28.323,8.286-84.97h5.457q-8.724-12.549-34.458-21.113l8.366-2.908c-1.912-4.661-6.054-8.684-12.468-12.07q-23.6-6.633-55.69,8.007,12.489-11.353,31.988-18.325-34.479-2.808-46.369,31.749c.319-13.345,5.1-23.144,14.341-29.319q-24.081,10.338-17.687,40.912-19.839-16.313-39.677,1.832c8.166-3.585,15.974-3.585,23.5,0-7.21-.039-14.461,3.825-21.671,11.593,5.457-2.51,9.242-3.347,11.273-2.43a89.625,89.625,0,0,0-1.832,45.732,77.227,77.227,0,0,0,13.9,25.734q-8.844-39.737,18.006-72.9l3.187,7.808a61.762,61.762,0,0,0,21.432,20.754c-5.538-8.166-7.49-18.563-5.857-31.271l6.095,12.987c5.378,10.636,12.429,18.164,21.074,22.507q-7.111-15.835,1.832-34.139l3.346,12.549a50.8,50.8,0,0,0-.517,10.716l6.293,10.915q20.256-17.269,28.363-38.959l.638,12.747a92.044,92.044,0,0,1-1.235,23.583q9.141-10.816,10.157-27.129Z" transform="translate(-26.294 0)" fill="#683c31"/>
  </g>
</svg>
