<svg xmlns="http://www.w3.org/2000/svg" width="282.43" height="284.859" viewBox="0 0 282.43 284.859">
  <g id="Group_22660" data-name="Group 22660" transform="translate(-1108.423 -614.305)">
    <g id="Group_22611" data-name="Group 22611" transform="translate(1113.402 626.069)">
      <g id="Group_22610" data-name="Group 22610" transform="translate(31.946 29.944)">
        <g id="Group_22609" data-name="Group 22609">
          <g id="Group_22608" data-name="Group 22608">
            <g id="Group_22607" data-name="Group 22607">
              <g id="Group_22606" data-name="Group 22606">
                <g id="Group_22605" data-name="Group 22605">
                  <g id="Group_22604" data-name="Group 22604">
                    <circle id="Ellipse_1196" data-name="Ellipse 1196" cx="104.163" cy="104.163" r="104.163" fill="#a9ebff"/>
                  </g>
                </g>
              </g>
            </g>
          </g>
        </g>
      </g>
      <path id="Path_50133" data-name="Path 50133" d="M2931.848,811.751a1.737,1.737,0,0,1-1.595-1.049,135.59,135.59,0,0,0-6.062-12.294,1.736,1.736,0,1,1,3.032-1.692,138.977,138.977,0,0,1,6.219,12.61,1.737,1.737,0,0,1-1.593,2.424Zm-13.509-24.218a1.734,1.734,0,0,1-1.424-.742,136.671,136.671,0,0,0-8.41-10.825,1.736,1.736,0,1,1,2.631-2.266,140.1,140.1,0,0,1,8.624,11.1,1.736,1.736,0,0,1-1.421,2.731Zm-18.093-21.015a1.729,1.729,0,0,1-1.195-.477,136.916,136.916,0,0,0-10.4-8.925,1.736,1.736,0,1,1,2.125-2.746,140.337,140.337,0,0,1,10.667,9.153,1.736,1.736,0,0,1-1.2,3Zm-21.927-16.971a1.727,1.727,0,0,1-.917-.263,135.769,135.769,0,0,0-11.978-6.656,1.736,1.736,0,0,1,1.531-3.117,139.222,139.222,0,0,1,12.286,6.827,1.736,1.736,0,0,1-.921,3.209Zm-24.882-12.218a1.731,1.731,0,0,1-.6-.109c-3.637-1.347-7.378-2.551-11.119-3.577a1.736,1.736,0,0,1,.919-3.348c3.837,1.053,7.675,2.288,11.405,3.67a1.736,1.736,0,0,1-.6,3.365Z" transform="translate(-2669.656 -730.233)" fill="#226b80"/>
      <path id="Path_50134" data-name="Path 50134" d="M1944.922,3265.153c-2.51,0-5.048-.067-7.544-.2a1.736,1.736,0,0,1,.185-3.467c2.435.13,4.911.2,7.359.2,2.113,0,4.251-.049,6.354-.146a1.736,1.736,0,0,1,.16,3.469C1949.279,3265.1,1947.088,3265.153,1944.922,3265.153Zm20.252-1.484a1.736,1.736,0,0,1-.252-3.454,135.277,135.277,0,0,0,13.44-2.692,1.736,1.736,0,0,1,.854,3.365,138.858,138.858,0,0,1-13.786,2.761A1.761,1.761,0,0,1,1965.173,3263.67Zm-41.505-.152a1.736,1.736,0,0,1-.269-.021,138.847,138.847,0,0,1-13.762-2.862,1.736,1.736,0,1,1,.879-3.359,135.38,135.38,0,0,0,13.416,2.79,1.736,1.736,0,0,1-.265,3.452Zm68.386-6.67a1.736,1.736,0,0,1-.6-3.367,135.372,135.372,0,0,0,12.617-5.356,1.736,1.736,0,1,1,1.518,3.123,138.749,138.749,0,0,1-12.942,5.494A1.736,1.736,0,0,1,1992.054,3256.847Zm-95.209-.349a1.738,1.738,0,0,1-.608-.11,138.956,138.956,0,0,1-12.9-5.588,1.736,1.736,0,1,1,1.54-3.112,135.205,135.205,0,0,0,12.575,5.448,1.736,1.736,0,0,1-.608,3.362Z" transform="translate(-1808.812 -2992.058)" fill="#226b80"/>
      <path id="Path_50135" data-name="Path 50135" d="M1159.227,1055.536a1.738,1.738,0,0,1-1.7-2.09c.848-4.078,1.894-8.163,3.108-12.144a1.736,1.736,0,1,1,3.321,1.013c-1.183,3.88-2.2,7.863-3.03,11.839A1.737,1.737,0,0,1,1159.227,1055.536Zm7.785-25.043a1.737,1.737,0,0,1-1.6-2.409,139.006,139.006,0,0,1,6.1-12.664,1.736,1.736,0,0,1,3.048,1.663,135.37,135.37,0,0,0-5.945,12.346A1.737,1.737,0,0,1,1167.012,1030.493Zm13.277-24.338a1.736,1.736,0,0,1-1.431-2.717,140.115,140.115,0,0,1,8.519-11.18,1.736,1.736,0,1,1,2.652,2.241,136.624,136.624,0,0,0-8.307,10.9A1.735,1.735,0,0,1,1180.289,1006.155Zm17.894-21.182a1.736,1.736,0,0,1-1.207-2.984,140.4,140.4,0,0,1,10.582-9.253,1.736,1.736,0,0,1,2.151,2.725,136.89,136.89,0,0,0-10.319,9.023A1.73,1.73,0,0,1,1198.183,984.973Z" transform="translate(-1157.489 -947.792)" fill="#226b80"/>
    </g>
    <g id="Group_22618" data-name="Group 22618" transform="translate(1173.949 614.305)">
      <g id="Group_22612" data-name="Group 22612" transform="translate(0)">
        <path id="Path_50136" data-name="Path 50136" d="M1881.161,693.954V678.793a3.935,3.935,0,0,0-3.935-3.935H1869.1a2.107,2.107,0,0,1-2-1.492,42.638,42.638,0,0,0-2.784-6.716,2.107,2.107,0,0,1,.359-2.47l5.745-5.745a3.935,3.935,0,0,0,0-5.565L1859.7,642.15a3.935,3.935,0,0,0-5.565,0l-5.745,5.745a2.107,2.107,0,0,1-2.47.359,42.622,42.622,0,0,0-6.716-2.783,2.107,2.107,0,0,1-1.491-2v-8.124a3.935,3.935,0,0,0-3.935-3.935H1818.62a3.935,3.935,0,0,0-3.935,3.935v8.124a2.107,2.107,0,0,1-1.491,2,42.628,42.628,0,0,0-6.716,2.783,2.107,2.107,0,0,1-2.47-.359l-5.745-5.745a3.935,3.935,0,0,0-5.565,0l-10.721,10.721a3.935,3.935,0,0,0,0,5.565l5.745,5.745a2.107,2.107,0,0,1,.359,2.47,42.614,42.614,0,0,0-2.783,6.716,2.107,2.107,0,0,1-2,1.492h-8.124a3.935,3.935,0,0,0-3.935,3.935v15.161a3.935,3.935,0,0,0,3.935,3.935h8.124a2.107,2.107,0,0,1,2,1.491,42.612,42.612,0,0,0,2.783,6.716,2.107,2.107,0,0,1-.359,2.47l-5.745,5.745a3.935,3.935,0,0,0,0,5.565L1792.7,730.6a3.935,3.935,0,0,0,5.565,0l5.745-5.745a2.107,2.107,0,0,1,2.47-.359,42.63,42.63,0,0,0,6.716,2.783,2.107,2.107,0,0,1,1.491,2V737.4a3.935,3.935,0,0,0,3.935,3.935h15.161a3.935,3.935,0,0,0,3.935-3.935v-8.124a2.107,2.107,0,0,1,1.491-2,42.62,42.62,0,0,0,6.716-2.783,2.107,2.107,0,0,1,2.47.359l5.745,5.745a3.935,3.935,0,0,0,5.565,0l10.721-10.721a3.935,3.935,0,0,0,0-5.565l-5.745-5.745a2.107,2.107,0,0,1-.359-2.47,42.636,42.636,0,0,0,2.784-6.716,2.107,2.107,0,0,1,2-1.491h8.124A3.935,3.935,0,0,0,1881.161,693.954Zm-54.96,13.88a21.461,21.461,0,1,1,21.461-21.461A21.461,21.461,0,0,1,1826.2,707.834Z" transform="translate(-1769.504 -629.677)" fill="#fcaf75"/>
        <path id="Path_50137" data-name="Path 50137" d="M1818.41,727.7h-15.161a5.678,5.678,0,0,1-5.671-5.671V713.9a.372.372,0,0,0-.281-.345,44.492,44.492,0,0,1-6.989-2.9.373.373,0,0,0-.443.046l-5.745,5.745a5.671,5.671,0,0,1-8.02,0l-10.72-10.72a5.677,5.677,0,0,1,0-8.02l5.745-5.745a.373.373,0,0,0,.046-.443,44.474,44.474,0,0,1-2.9-6.989.373.373,0,0,0-.345-.281H1759.8a5.677,5.677,0,0,1-5.671-5.671V663.421a5.677,5.677,0,0,1,5.671-5.671h8.124a.373.373,0,0,0,.345-.281,44.481,44.481,0,0,1,2.9-6.989.373.373,0,0,0-.046-.443l-5.745-5.745a5.677,5.677,0,0,1,0-8.02l10.72-10.72a5.677,5.677,0,0,1,8.02,0l5.745,5.745a.373.373,0,0,0,.443.046,44.479,44.479,0,0,1,6.989-2.9.372.372,0,0,0,.281-.345v-8.124a5.678,5.678,0,0,1,5.671-5.671h15.161a5.677,5.677,0,0,1,5.671,5.671V628.1a.372.372,0,0,0,.281.345,44.523,44.523,0,0,1,6.989,2.9.372.372,0,0,0,.443-.046l5.745-5.745a5.671,5.671,0,0,1,8.02,0l10.721,10.72a5.677,5.677,0,0,1,0,8.02l-5.745,5.745a.373.373,0,0,0-.046.443,44.466,44.466,0,0,1,2.9,6.989.373.373,0,0,0,.345.281h8.123a5.677,5.677,0,0,1,5.671,5.671v15.161a5.677,5.677,0,0,1-5.671,5.671h-8.123a.373.373,0,0,0-.345.281,44.468,44.468,0,0,1-2.9,6.989.373.373,0,0,0,.046.443l5.745,5.745a5.678,5.678,0,0,1,0,8.02l-10.721,10.72a5.671,5.671,0,0,1-8.02,0l-5.745-5.745a.373.373,0,0,0-.443-.046,44.508,44.508,0,0,1-6.99,2.9.372.372,0,0,0-.281.345v8.124A5.677,5.677,0,0,1,1818.41,727.7ZM1790.1,707.136a3.908,3.908,0,0,1,1.8.442,41.034,41.034,0,0,0,6.443,2.67,3.835,3.835,0,0,1,2.7,3.654v8.124a2.2,2.2,0,0,0,2.2,2.2h15.161a2.2,2.2,0,0,0,2.2-2.2V713.9a3.835,3.835,0,0,1,2.7-3.654,41.036,41.036,0,0,0,6.443-2.67,3.835,3.835,0,0,1,4.5.673l5.745,5.745a2.2,2.2,0,0,0,3.11,0l10.721-10.721a2.2,2.2,0,0,0,0-3.11l-5.745-5.745a3.835,3.835,0,0,1-.673-4.5,41.007,41.007,0,0,0,2.67-6.443,3.835,3.835,0,0,1,3.654-2.7h8.123a2.2,2.2,0,0,0,2.2-2.2V663.421a2.2,2.2,0,0,0-2.2-2.2h-8.123a3.834,3.834,0,0,1-3.654-2.7,41.014,41.014,0,0,0-2.67-6.443,3.835,3.835,0,0,1,.673-4.5l5.745-5.745a2.2,2.2,0,0,0,0-3.11l-10.72-10.72a2.2,2.2,0,0,0-3.11,0l-5.745,5.745a3.835,3.835,0,0,1-4.5.673,41.034,41.034,0,0,0-6.443-2.67,3.835,3.835,0,0,1-2.7-3.654v-8.124a2.2,2.2,0,0,0-2.2-2.2h-15.161a2.2,2.2,0,0,0-2.2,2.2V628.1a3.835,3.835,0,0,1-2.7,3.654,41.009,41.009,0,0,0-6.442,2.67,3.835,3.835,0,0,1-4.5-.673l-5.745-5.745a2.2,2.2,0,0,0-3.11,0l-10.72,10.72a2.2,2.2,0,0,0,0,3.11l5.745,5.745a3.835,3.835,0,0,1,.673,4.5,40.994,40.994,0,0,0-2.67,6.442,3.836,3.836,0,0,1-3.654,2.7H1759.8a2.2,2.2,0,0,0-2.2,2.2v15.161a2.2,2.2,0,0,0,2.2,2.2h8.124a3.835,3.835,0,0,1,3.654,2.7,41,41,0,0,0,2.67,6.443,3.835,3.835,0,0,1-.673,4.5l-5.745,5.745a2.2,2.2,0,0,0,0,3.11l10.72,10.72a2.2,2.2,0,0,0,3.11,0l5.745-5.745A3.8,3.8,0,0,1,1790.1,707.136Zm20.725-12.938a23.2,23.2,0,1,1,16.4-6.794A23.046,23.046,0,0,1,1810.829,694.2Zm0-42.921A19.725,19.725,0,1,0,1830.554,671,19.747,19.747,0,0,0,1810.829,651.277Z" transform="translate(-1754.133 -614.305)" fill="#226b80"/>
      </g>
      <g id="Group_22617" data-name="Group 22617" transform="translate(22.876 22.876)">
        <g id="Group_22613" data-name="Group 22613">
          <circle id="Ellipse_1197" data-name="Ellipse 1197" cx="32.084" cy="32.084" r="32.084" transform="translate(1.736 1.736)" fill="#fff"/>
          <path id="Path_50138" data-name="Path 50138" d="M2013.382,907.374a33.82,33.82,0,1,1,23.915-9.906A33.6,33.6,0,0,1,2013.382,907.374Zm0-64.168a30.348,30.348,0,1,0,21.46,8.889A30.149,30.149,0,0,0,2013.382,843.206Z" transform="translate(-1979.562 -839.734)" fill="#226b80"/>
        </g>
        <g id="Group_22616" data-name="Group 22616" transform="translate(21.853 9.824)">
          <g id="Group_22614" data-name="Group 22614" transform="translate(0 4.038)">
            <path id="Path_50139" data-name="Path 50139" d="M2212.021,1018.23s.824,9.871,10.538,10.1c0,0,8.9.306,9.833-7.635,0,0,1.243-5.721-5.509-9.037a15.241,15.241,0,0,0-2.479-.924l-1.278-.371c-2.549-.583-10.968-3.041-9.233-9.807,0,0,1.252-8.588,10.684-6.867a8.971,8.971,0,0,1,6.741,5.077,8.851,8.851,0,0,1,.716,3.541" transform="translate(-2210.285 -991.723)" fill="#fff"/>
            <path id="Path_50140" data-name="Path 50140" d="M2207.307,1014.682l-.167,0a11.615,11.615,0,0,1-10.374-6.013,15.218,15.218,0,0,1-1.848-5.678,1.736,1.736,0,0,1,3.459-.295,11.844,11.844,0,0,0,1.461,4.351,8.223,8.223,0,0,0,7.389,4.164h.019a11.149,11.149,0,0,0,3.964-.757,6.124,6.124,0,0,0,4.085-5.346,1.177,1.177,0,0,1,.025-.157,5.844,5.844,0,0,0-.236-2.58,7.8,7.8,0,0,0-4.34-4.539,13.434,13.434,0,0,0-2.2-.815l-1.23-.357a23.152,23.152,0,0,1-4.563-1.569,11.584,11.584,0,0,1-5.1-4.226,7.673,7.673,0,0,1-.837-6.05,11,11,0,0,1,4.1-6.694c2.279-1.637,5.172-2.149,8.6-1.524a10.318,10.318,0,0,1,8.881,10.325,1.736,1.736,0,0,1-1.735,1.737h0a1.736,1.736,0,0,1-1.736-1.735,6.853,6.853,0,0,0-6.032-6.911,6.662,6.662,0,0,0-8.655,5.419,1.632,1.632,0,0,1-.035.171,4.284,4.284,0,0,0,.419,3.454c.417.684,2.192,3.012,7.52,4.229.032.007.065.016.1.025l1.278.371a16.732,16.732,0,0,1,2.76,1.033c4.058,1.992,5.606,4.818,6.189,6.838a9.15,9.15,0,0,1,.271,4.026,9.573,9.573,0,0,1-6.35,8.144A14.729,14.729,0,0,1,2207.307,1014.682Z" transform="translate(-2194.913 -976.338)" fill="#226b80"/>
          </g>
          <g id="Group_22615" data-name="Group 22615" transform="translate(10.536)">
            <line id="Line_150" data-name="Line 150" y2="44.52" transform="translate(1.736 1.736)" fill="#fff"/>
            <path id="Path_50141" data-name="Path 50141" d="M2300.469,984.537a1.736,1.736,0,0,1-1.736-1.736v-44.52a1.736,1.736,0,1,1,3.472,0V982.8A1.736,1.736,0,0,1,2300.469,984.537Z" transform="translate(-2298.733 -936.545)" fill="#226b80"/>
          </g>
        </g>
      </g>
    </g>
    <g id="Group_22643" data-name="Group 22643" transform="translate(1246.336 727.13)">
      <g id="Group_22619" data-name="Group 22619" transform="translate(36.93 0)">
        <rect id="Rectangle_5118" data-name="Rectangle 5118" width="104.114" height="133.096" rx="14.453" transform="translate(1.736 1.736)" fill="#fff"/>
        <path id="Path_50142" data-name="Path 50142" d="M2935.77,1862.689H2834.589a3.207,3.207,0,0,1-3.2-3.2V1729.324a3.207,3.207,0,0,1,3.2-3.2H2935.77a3.206,3.206,0,0,1,3.2,3.2v130.162A3.206,3.206,0,0,1,2935.77,1862.689Zm-100.912-3.472H2935.5V1729.593H2834.858Z" transform="translate(-2831.386 -1726.121)" fill="#226b80"/>
      </g>
      <g id="Group_22620" data-name="Group 22620" transform="translate(49.513 23.839)">
        <line id="Line_151" data-name="Line 151" x1="30.207" transform="translate(1.736 1.736)" fill="#fff"/>
        <path id="Path_50143" data-name="Path 50143" d="M2987.325,1964.51h-30.207a1.736,1.736,0,1,1,0-3.472h30.207a1.736,1.736,0,1,1,0,3.472Z" transform="translate(-2955.382 -1961.038)" fill="#226b80"/>
      </g>
      <g id="Group_22621" data-name="Group 22621" transform="translate(49.513 38.437)">
        <line id="Line_152" data-name="Line 152" x1="30.207" transform="translate(1.736 1.736)" fill="#fff"/>
        <path id="Path_50144" data-name="Path 50144" d="M2987.325,2108.364h-30.207a1.736,1.736,0,1,1,0-3.472h30.207a1.736,1.736,0,1,1,0,3.472Z" transform="translate(-2955.382 -2104.892)" fill="#226b80"/>
      </g>
      <g id="Group_22622" data-name="Group 22622" transform="translate(49.513 53.035)">
        <line id="Line_153" data-name="Line 153" x1="30.207" transform="translate(1.736 1.736)" fill="#fff"/>
        <path id="Path_50145" data-name="Path 50145" d="M2987.325,2252.217h-30.207a1.736,1.736,0,1,1,0-3.472h30.207a1.736,1.736,0,1,1,0,3.472Z" transform="translate(-2955.382 -2248.745)" fill="#226b80"/>
      </g>
      <g id="Group_22623" data-name="Group 22623" transform="translate(49.513 67.633)">
        <line id="Line_154" data-name="Line 154" x1="71.795" transform="translate(1.736 1.736)" fill="#fff"/>
        <path id="Path_50146" data-name="Path 50146" d="M3028.913,2396.071h-71.795a1.736,1.736,0,1,1,0-3.472h71.795a1.736,1.736,0,1,1,0,3.472Z" transform="translate(-2955.382 -2392.599)" fill="#226b80"/>
      </g>
      <g id="Group_22624" data-name="Group 22624" transform="translate(49.513 82.231)">
        <line id="Line_155" data-name="Line 155" x1="71.795" transform="translate(1.736 1.736)" fill="#fff"/>
        <path id="Path_50147" data-name="Path 50147" d="M3028.913,2539.924h-71.795a1.736,1.736,0,1,1,0-3.472h71.795a1.736,1.736,0,1,1,0,3.472Z" transform="translate(-2955.382 -2536.452)" fill="#226b80"/>
      </g>
      <g id="Group_22625" data-name="Group 22625" transform="translate(49.513 96.829)">
        <line id="Line_156" data-name="Line 156" x1="71.795" transform="translate(1.736 1.736)" fill="#fff"/>
        <path id="Path_50148" data-name="Path 50148" d="M3028.913,2683.778h-71.795a1.736,1.736,0,1,1,0-3.472h71.795a1.736,1.736,0,1,1,0,3.472Z" transform="translate(-2955.382 -2680.306)" fill="#226b80"/>
      </g>
      <g id="Group_22626" data-name="Group 22626" transform="translate(49.513 111.427)">
        <line id="Line_157" data-name="Line 157" x1="71.795" transform="translate(1.736 1.736)" fill="#fff"/>
        <path id="Path_50149" data-name="Path 50149" d="M3028.913,2827.631h-71.795a1.736,1.736,0,1,1,0-3.472h71.795a1.736,1.736,0,1,1,0,3.472Z" transform="translate(-2955.382 -2824.159)" fill="#226b80"/>
      </g>
      <g id="Group_22627" data-name="Group 22627" transform="translate(97.697 26.731)">
        <circle id="Ellipse_1198" data-name="Ellipse 1198" cx="11.805" cy="11.805" r="11.805" transform="translate(1.736 1.736)" fill="#fcaf75"/>
        <path id="Path_50150" data-name="Path 50150" d="M3443.747,2016.623a13.541,13.541,0,1,1,13.541-13.541A13.556,13.556,0,0,1,3443.747,2016.623Zm0-23.61a10.069,10.069,0,1,0,10.069,10.069A10.08,10.08,0,0,0,3443.747,1993.013Z" transform="translate(-3430.206 -1989.541)" fill="#226b80"/>
      </g>
      <g id="Group_22642" data-name="Group 22642" transform="translate(0 31.804)">
        <g id="Group_22641" data-name="Group 22641">
          <g id="Group_22640" data-name="Group 22640">
            <g id="Group_22628" data-name="Group 22628">
              <rect id="Rectangle_5119" data-name="Rectangle 5119" width="60.833" height="86.865" rx="30.416" transform="translate(1.736 1.736)" fill="#fff"/>
              <path id="Path_50151" data-name="Path 50151" d="M2525.1,2129.861h-50.955a6.682,6.682,0,0,1-6.675-6.675V2046.2a6.683,6.683,0,0,1,6.675-6.675H2525.1a6.683,6.683,0,0,1,6.675,6.675v76.987A6.683,6.683,0,0,1,2525.1,2129.861ZM2474.141,2043a3.207,3.207,0,0,0-3.2,3.2v76.987a3.207,3.207,0,0,0,3.2,3.2H2525.1a3.207,3.207,0,0,0,3.2-3.2V2046.2a3.207,3.207,0,0,0-3.2-3.2Z" transform="translate(-2467.466 -2039.524)" fill="#226b80"/>
            </g>
            <g id="Group_22629" data-name="Group 22629" transform="translate(6.304 7.174)">
              <rect id="Rectangle_5120" data-name="Rectangle 5120" width="48.225" height="18.812" transform="translate(1.736 1.736)" fill="#7df9bb"/>
              <path id="Path_50152" data-name="Path 50152" d="M2579.545,2132.5H2531.32a1.736,1.736,0,0,1-1.736-1.736v-18.812a1.736,1.736,0,0,1,1.736-1.736h48.225a1.736,1.736,0,0,1,1.736,1.736v18.812A1.736,1.736,0,0,1,2579.545,2132.5Zm-46.49-3.472h44.753v-15.34h-44.753Z" transform="translate(-2529.584 -2110.216)" fill="#226b80"/>
            </g>
            <g id="Group_22639" data-name="Group 22639" transform="translate(7.908 44.398)">
              <g id="Group_22630" data-name="Group 22630">
                <rect id="Rectangle_5121" data-name="Rectangle 5121" width="7.461" height="7.461" rx="3.73" transform="translate(1.736 1.736)" fill="#fcaf75"/>
                <path id="Path_50153" data-name="Path 50153" d="M2552.916,2487.967h-4.107a3.417,3.417,0,0,1-3.413-3.413v-4.107a3.417,3.417,0,0,1,3.413-3.413h4.107a3.417,3.417,0,0,1,3.413,3.413v4.107A3.417,3.417,0,0,1,2552.916,2487.967Zm-4.048-3.472h3.989v-3.988h-3.989Z" transform="translate(-2545.396 -2477.034)" fill="#226b80"/>
              </g>
              <g id="Group_22631" data-name="Group 22631" transform="translate(18.778)">
                <rect id="Rectangle_5122" data-name="Rectangle 5122" width="7.461" height="7.461" rx="3.73" transform="translate(1.736 1.736)" fill="#fcaf75"/>
                <path id="Path_50154" data-name="Path 50154" d="M2737.958,2487.967h-4.107a3.417,3.417,0,0,1-3.413-3.413v-4.107a3.417,3.417,0,0,1,3.413-3.413h4.107a3.417,3.417,0,0,1,3.413,3.413v4.107A3.417,3.417,0,0,1,2737.958,2487.967Zm-4.048-3.472h3.989v-3.988h-3.989Z" transform="translate(-2730.438 -2477.034)" fill="#226b80"/>
              </g>
              <g id="Group_22632" data-name="Group 22632" transform="translate(37.556)">
                <rect id="Rectangle_5123" data-name="Rectangle 5123" width="7.461" height="7.461" rx="3.73" transform="translate(1.736 1.736)" fill="#fcaf75"/>
                <path id="Path_50155" data-name="Path 50155" d="M2923,2487.967h-4.107a3.417,3.417,0,0,1-3.413-3.413v-4.107a3.417,3.417,0,0,1,3.413-3.413H2923a3.417,3.417,0,0,1,3.413,3.413v4.107A3.417,3.417,0,0,1,2923,2487.967Zm-4.048-3.472h3.989v-3.988h-3.989Z" transform="translate(-2915.481 -2477.034)" fill="#226b80"/>
              </g>
              <g id="Group_22633" data-name="Group 22633" transform="translate(0 13.391)">
                <rect id="Rectangle_5124" data-name="Rectangle 5124" width="7.461" height="7.461" rx="3.73" transform="translate(1.736 1.736)" fill="#fff"/>
                <path id="Path_50156" data-name="Path 50156" d="M2552.916,2619.925h-4.107a3.417,3.417,0,0,1-3.413-3.413V2612.4a3.417,3.417,0,0,1,3.413-3.413h4.107a3.417,3.417,0,0,1,3.413,3.413v4.107A3.417,3.417,0,0,1,2552.916,2619.925Zm-4.048-3.472h3.989v-3.988h-3.989Z" transform="translate(-2545.396 -2608.992)" fill="#226b80"/>
              </g>
              <g id="Group_22634" data-name="Group 22634" transform="translate(18.778 13.391)">
                <rect id="Rectangle_5125" data-name="Rectangle 5125" width="7.461" height="7.461" rx="3.73" transform="translate(1.736 1.736)" fill="#fff"/>
                <path id="Path_50157" data-name="Path 50157" d="M2737.958,2619.925h-4.107a3.417,3.417,0,0,1-3.413-3.413V2612.4a3.417,3.417,0,0,1,3.413-3.413h4.107a3.417,3.417,0,0,1,3.413,3.413v4.107A3.417,3.417,0,0,1,2737.958,2619.925Zm-4.048-3.472h3.989v-3.988h-3.989Z" transform="translate(-2730.438 -2608.992)" fill="#226b80"/>
              </g>
              <g id="Group_22635" data-name="Group 22635" transform="translate(37.556 13.391)">
                <rect id="Rectangle_5126" data-name="Rectangle 5126" width="7.461" height="7.461" rx="3.73" transform="translate(1.736 1.736)" fill="#fff"/>
                <path id="Path_50158" data-name="Path 50158" d="M2923,2619.925h-4.107a3.417,3.417,0,0,1-3.413-3.413V2612.4a3.417,3.417,0,0,1,3.413-3.413H2923a3.417,3.417,0,0,1,3.413,3.413v4.107A3.417,3.417,0,0,1,2923,2619.925Zm-4.048-3.472h3.989v-3.988h-3.989Z" transform="translate(-2915.481 -2608.992)" fill="#226b80"/>
              </g>
              <g id="Group_22636" data-name="Group 22636" transform="translate(0 26.782)">
                <rect id="Rectangle_5127" data-name="Rectangle 5127" width="7.461" height="7.461" rx="3.73" transform="translate(1.736 1.736)" fill="#fff"/>
                <path id="Path_50159" data-name="Path 50159" d="M2552.916,2751.882h-4.107a3.417,3.417,0,0,1-3.413-3.413v-4.107a3.417,3.417,0,0,1,3.413-3.413h4.107a3.416,3.416,0,0,1,3.413,3.413v4.107A3.417,3.417,0,0,1,2552.916,2751.882Zm-4.048-3.472h3.989v-3.989h-3.989Z" transform="translate(-2545.396 -2740.949)" fill="#226b80"/>
              </g>
              <g id="Group_22637" data-name="Group 22637" transform="translate(18.778 26.782)">
                <rect id="Rectangle_5128" data-name="Rectangle 5128" width="7.461" height="7.461" rx="3.73" transform="translate(1.736 1.736)" fill="#fff"/>
                <path id="Path_50160" data-name="Path 50160" d="M2737.958,2751.882h-4.107a3.417,3.417,0,0,1-3.413-3.413v-4.107a3.416,3.416,0,0,1,3.413-3.413h4.107a3.417,3.417,0,0,1,3.413,3.413v4.107A3.417,3.417,0,0,1,2737.958,2751.882Zm-4.048-3.472h3.989v-3.989h-3.989Z" transform="translate(-2730.438 -2740.949)" fill="#226b80"/>
              </g>
              <g id="Group_22638" data-name="Group 22638" transform="translate(37.556 26.782)">
                <rect id="Rectangle_5129" data-name="Rectangle 5129" width="7.461" height="7.461" rx="3.73" transform="translate(1.736 1.736)" fill="#fff"/>
                <path id="Path_50161" data-name="Path 50161" d="M2923,2751.882h-4.107a3.417,3.417,0,0,1-3.413-3.413v-4.107a3.416,3.416,0,0,1,3.413-3.413H2923a3.417,3.417,0,0,1,3.413,3.413v4.107A3.417,3.417,0,0,1,2923,2751.882Zm-4.048-3.472h3.989v-3.989h-3.989Z" transform="translate(-2915.481 -2740.949)" fill="#226b80"/>
              </g>
            </g>
            <rect id="Rectangle_5130" data-name="Rectangle 5130" width="7.461" height="3.851" rx="1.926" transform="translate(9.644 34.778)" fill="#226b80"/>
            <rect id="Rectangle_5131" data-name="Rectangle 5131" width="7.461" height="3.851" rx="1.926" transform="translate(28.422 34.778)" fill="#226b80"/>
            <rect id="Rectangle_5132" data-name="Rectangle 5132" width="7.461" height="3.851" rx="1.926" transform="translate(47.2 34.778)" fill="#226b80"/>
          </g>
        </g>
      </g>
    </g>
    <g id="Group_22659" data-name="Group 22659" transform="translate(1108.423 753.962)">
      <g id="Group_22658" data-name="Group 22658" transform="translate(0)">
        <g id="Group_22654" data-name="Group 22654">
          <g id="Group_22648" data-name="Group 22648">
            <g id="Group_22644" data-name="Group 22644">
              <rect id="Rectangle_5133" data-name="Rectangle 5133" width="113.044" height="49.194" transform="translate(1.736 1.736)" fill="#7df9bb"/>
              <path id="Path_50162" data-name="Path 50162" d="M1223.2,2043.191H1110.159a1.736,1.736,0,0,1-1.736-1.736v-49.193a1.736,1.736,0,0,1,1.736-1.736H1223.2a1.736,1.736,0,0,1,1.736,1.736v49.193A1.736,1.736,0,0,1,1223.2,2043.191Zm-111.308-3.472h109.572V1994H1111.9Z" transform="translate(-1108.423 -1990.525)" fill="#226b80"/>
            </g>
            <path id="Path_50163" data-name="Path 50163" d="M1110.159,2005.789a1.736,1.736,0,0,1,0-3.472,10.067,10.067,0,0,0,10.056-10.056,1.736,1.736,0,1,1,3.472,0A13.543,13.543,0,0,1,1110.159,2005.789Z" transform="translate(-1108.423 -1990.525)" fill="#226b80"/>
            <path id="Path_50164" data-name="Path 50164" d="M1121.951,2374.359a1.736,1.736,0,0,1-1.736-1.736,10.067,10.067,0,0,0-10.056-10.056,1.736,1.736,0,1,1,0-3.472,13.543,13.543,0,0,1,13.528,13.528A1.736,1.736,0,0,1,1121.951,2374.359Z" transform="translate(-1108.423 -2321.693)" fill="#226b80"/>
            <path id="Path_50165" data-name="Path 50165" d="M2107.932,2374.359a1.736,1.736,0,0,1-1.736-1.736,13.543,13.543,0,0,1,13.528-13.528,1.736,1.736,0,1,1,0,3.472,10.067,10.067,0,0,0-10.056,10.056A1.736,1.736,0,0,1,2107.932,2374.359Z" transform="translate(-2004.944 -2321.693)" fill="#226b80"/>
            <path id="Path_50166" data-name="Path 50166" d="M2119.724,2005.789a13.543,13.543,0,0,1-13.528-13.528,1.736,1.736,0,0,1,3.472,0,10.067,10.067,0,0,0,10.056,10.056,1.736,1.736,0,0,1,0,3.472Z" transform="translate(-2004.944 -1990.525)" fill="#226b80"/>
            <g id="Group_22645" data-name="Group 22645" transform="translate(0 54.332)">
              <line id="Line_158" data-name="Line 158" x2="113.044" transform="translate(1.736 1.736)" fill="#fff"/>
              <path id="Path_50167" data-name="Path 50167" d="M1223.2,2529.4H1110.159a1.736,1.736,0,1,1,0-3.472H1223.2a1.736,1.736,0,1,1,0,3.472Z" transform="translate(-1108.423 -2525.932)" fill="#226b80"/>
            </g>
            <g id="Group_22646" data-name="Group 22646" transform="translate(0 59.866)">
              <line id="Line_159" data-name="Line 159" x2="113.044" transform="translate(1.736 1.736)" fill="#fff"/>
              <path id="Path_50168" data-name="Path 50168" d="M1223.2,2583.933H1110.159a1.736,1.736,0,1,1,0-3.472H1223.2a1.736,1.736,0,1,1,0,3.472Z" transform="translate(-1108.423 -2580.461)" fill="#226b80"/>
            </g>
            <g id="Group_22647" data-name="Group 22647" transform="translate(0 65.399)">
              <line id="Line_160" data-name="Line 160" x2="113.044" transform="translate(1.736 1.736)" fill="#fff"/>
              <path id="Path_50169" data-name="Path 50169" d="M1223.2,2638.463H1110.159a1.736,1.736,0,0,1,0-3.472H1223.2a1.736,1.736,0,0,1,0,3.472Z" transform="translate(-1108.423 -2634.991)" fill="#226b80"/>
            </g>
          </g>
          <g id="Group_22650" data-name="Group 22650" transform="translate(33.574 2.193)">
            <g id="Group_22649" data-name="Group 22649">
              <circle id="Ellipse_1199" data-name="Ellipse 1199" cx="17.509" cy="17.509" r="17.509" transform="translate(0 24.762) rotate(-45)" fill="#fff"/>
              <path id="Path_50170" data-name="Path 50170" d="M1512.88,2104.986a19.245,19.245,0,1,1,19.245-19.245A19.267,19.267,0,0,1,1512.88,2104.986Zm0-35.018a15.773,15.773,0,1,0,15.773,15.773A15.791,15.791,0,0,0,1512.88,2069.968Z" transform="translate(-1488.119 -2060.979)" fill="#226b80"/>
            </g>
          </g>
          <g id="Group_22653" data-name="Group 22653" transform="translate(51.415 15.697)">
            <g id="Group_22651" data-name="Group 22651" transform="translate(0 1.446)">
              <path id="Path_50171" data-name="Path 50171" d="M1632.187,2188.615c0,2.344,2.321,4.244,5.185,4.244s5.185-1.9,5.185-4.244-2.322-4.243-5.185-4.243c-2.625,0-4.834-1.769-4.834-3.917s2.128-3.891,4.754-3.891,4.754,1.742,4.754,3.891" transform="translate(-1630.451 -2174.827)" fill="#fff"/>
              <path id="Path_50172" data-name="Path 50172" d="M1622,2179.223c-3.816,0-6.921-2.683-6.921-5.979a1.736,1.736,0,1,1,3.472,0c0,1.359,1.579,2.508,3.449,2.508s3.449-1.148,3.449-2.508-1.58-2.508-3.449-2.508c-3.623,0-6.57-2.536-6.57-5.653s2.911-5.626,6.49-5.626,6.49,2.524,6.49,5.626a1.736,1.736,0,0,1-3.472,0c0-1.168-1.382-2.155-3.018-2.155s-3.018.987-3.018,2.155,1.448,2.181,3.1,2.181c3.816,0,6.921,2.683,6.921,5.98S1625.816,2179.223,1622,2179.223Z" transform="translate(-1615.079 -2159.456)" fill="#226b80"/>
            </g>
            <g id="Group_22652" data-name="Group 22652" transform="translate(5.185)">
              <line id="Line_161" data-name="Line 161" y1="19.042" transform="translate(1.736 1.736)" fill="#fff"/>
              <path id="Path_50173" data-name="Path 50173" d="M1667.911,2167.726a1.736,1.736,0,0,1-1.736-1.736v-19.043a1.736,1.736,0,0,1,3.472,0v19.043A1.736,1.736,0,0,1,1667.911,2167.726Z" transform="translate(-1666.175 -2145.211)" fill="#226b80"/>
            </g>
          </g>
        </g>
        <g id="Group_22657" data-name="Group 22657" transform="translate(11.871 75.243)">
          <g id="Group_22655" data-name="Group 22655">
            <path id="Path_50174" data-name="Path 50174" d="M1328.17,2767.824l-24.356,11.856a12.529,12.529,0,0,1-3.243,1.063l-19.336,3.526a18.826,18.826,0,0,1-10.711-1.18l-24.178-10.221a6.276,6.276,0,0,1-3.813-6.272l.464-5.92a12.555,12.555,0,0,1,13.5-11.536l14.131,1.108a12.555,12.555,0,0,1,5.639,1.849l16.34,10.141a9.377,9.377,0,0,1,3.674,4.294l26.681-10.131-.029.013a6.278,6.278,0,0,1,5.21,11.424Z" transform="translate(-1240.777 -2747.365)" fill="#fff"/>
            <path id="Path_50175" data-name="Path 50175" d="M1262.474,2770.94a20.514,20.514,0,0,1-8-1.625l-20.749-8.771-3.429-1.449a8,8,0,0,1-4.868-8.008l.464-5.919a14.291,14.291,0,0,1,15.365-13.131l14.131,1.108a14.343,14.343,0,0,1,6.419,2.1l16.34,10.141.039.025a11.931,11.931,0,0,1,3.552,3.57l25.187-9.563a8.014,8.014,0,0,1,6.62,14.6l-24.345,11.851a14.3,14.3,0,0,1-3.691,1.21l-19.336,3.526A20.645,20.645,0,0,1,1262.474,2770.94Zm-22.35-35.476a10.821,10.821,0,0,0-10.769,9.974l-.464,5.92a4.536,4.536,0,0,0,2.758,4.538l3.429,1.45,20.749,8.771a17.056,17.056,0,0,0,9.724,1.072l19.336-3.526a10.815,10.815,0,0,0,2.794-.916l24.278-11.819c.029-.015.058-.03.088-.043l.008,0a4.542,4.542,0,0,0-3.777-8.261h0a1.817,1.817,0,0,1-.186.073l-26.569,10.088a1.72,1.72,0,0,1-1.366-.043,1.7,1.7,0,0,1-.891-1.013,7.733,7.733,0,0,0-2.969-3.4l-16.319-10.128a10.865,10.865,0,0,0-4.859-1.594l-14.131-1.107Q1240.554,2735.464,1240.124,2735.464Z" transform="translate(-1225.405 -2731.992)" fill="#226b80"/>
          </g>
          <g id="Group_22656" data-name="Group 22656" transform="translate(26.314 13.137)">
            <path id="Path_50176" data-name="Path 50176" d="M1525.6,2878.558a6.088,6.088,0,0,1,2.849,8.409,6.278,6.278,0,0,1-8.408,2.849l-18.219-10.308" transform="translate(-1500.081 -2876.822)" fill="#fff"/>
            <path id="Path_50177" data-name="Path 50177" d="M1507.429,2876.824a7.965,7.965,0,0,1-3.536-.827c-.029-.015-.058-.03-.086-.046l-18.219-10.308a1.736,1.736,0,0,1,1.71-3.022l18.173,10.282a4.544,4.544,0,0,0,6.043-2.081,4.467,4.467,0,0,0,.346-3.379,4.85,4.85,0,0,0-2.459-2.731,1.736,1.736,0,0,1,1.643-3.059,7.821,7.821,0,0,1,3.584,10.707A8.024,8.024,0,0,1,1507.429,2876.824Z" transform="translate(-1484.707 -2861.446)" fill="#226b80"/>
          </g>
        </g>
      </g>
    </g>
  </g>
</svg>
