<svg xmlns="http://www.w3.org/2000/svg" width="412.898" height="264.901" viewBox="0 0 412.898 264.901">
  <g id="Grupo_26357" data-name="Grupo 26357" transform="translate(-1536.988 -2284.079)">
    <path id="Trazado_55822" data-name="Trazado 55822" d="M1552.087,2548.058c.019.018,370.329-.058,370.329-.058,12.192-33.3,12.17-49.566,13.558-68.651,7.66-105.491-54.392-121.709-72.571-126.108-55.661-13.469-30.328-80.111-175.373-67.607-13.293,1.146-44.637,10.4-55.439,16.391-7.577,4.2-36.122,23-44.5,54.792a72.491,72.491,0,0,0-.613,33.939c9.439,44.5-15.17,41.939-33.153,63.145C1530.328,2482.2,1532.837,2528.483,1552.087,2548.058Z" transform="translate(0 0)" fill="#ebf3fa"/>
    <g id="Grupo_26307" data-name="Grupo 26307" transform="translate(1753.895 2459.206)">
      <g id="Grupo_26304" data-name="Grupo 26304" transform="translate(29.862 42.936)">
        <path id="Trazado_55823" data-name="Trazado 55823" d="M2852.522,3489.521h.065a.682.682,0,0,0,.682-.7l-1.034-44.834-3.047-.355,2.6,45.192A.737.737,0,0,0,2852.522,3489.521Z" transform="translate(-2849.188 -3443.633)" fill="#b0d4ff"/>
      </g>
      <g id="Grupo_26305" data-name="Grupo 26305" transform="translate(47.618 42.936)">
        <path id="Trazado_55824" data-name="Trazado 55824" d="M2946.941,3489.521h.065a.682.682,0,0,0,.682-.7l-1.034-44.834-3.047-.355,2.6,45.192A.738.738,0,0,0,2946.941,3489.521Z" transform="translate(-2943.607 -3443.633)" fill="#95c0f4"/>
      </g>
      <g id="Grupo_26306" data-name="Grupo 26306" transform="translate(1.208 42.936)">
        <path id="Trazado_55825" data-name="Trazado 55825" d="M2697.568,3489.521h-.065a.682.682,0,0,1-.682-.7l1.035-44.834,3.047-.355-2.6,45.192A.737.737,0,0,1,2697.568,3489.521Z" transform="translate(-2696.821 -3443.633)" fill="#b0d4ff"/>
      </g>
      <path id="Trazado_55826" data-name="Trazado 55826" d="M2791.985,3255.833V3225.11a9.788,9.788,0,0,0-9.788-9.788h-22.135a9.788,9.788,0,0,0-9.788,9.788v31.9Z" transform="translate(-2739.013 -3215.322)" fill="#b0d4ff"/>
      <path id="Rectángulo_6870" data-name="Rectángulo 6870" d="M4.85,0H45.677a0,0,0,0,1,0,0V4.85a0,0,0,0,1,0,0H0a0,0,0,0,1,0,0v0A4.85,4.85,0,0,1,4.85,0Z" transform="translate(52.972 45.361) rotate(180)" fill="#95c0f4"/>
      <path id="Rectángulo_6871" data-name="Rectángulo 6871" d="M2.425,0H34.254a2.425,2.425,0,0,1,2.425,2.425v0A2.425,2.425,0,0,1,34.254,4.85H2.425A2.425,2.425,0,0,1,0,2.425v0A2.425,2.425,0,0,1,2.425,0Z" transform="translate(36.679 45.361) rotate(180)" fill="#cae5ff"/>
    </g>
    <g id="Grupo_26328" data-name="Grupo 26328" transform="translate(1702.969 2338.019)">
      <rect id="Rectángulo_6872" data-name="Rectángulo 6872" width="127.603" height="110.152" transform="translate(0 0)" fill="#95c0f4"/>
      <g id="Grupo_26327" data-name="Grupo 26327" transform="translate(2.429 1.835)">
        <rect id="Rectángulo_6873" data-name="Rectángulo 6873" width="122.692" height="106.12" fill="#dfedfb"/>
        <g id="Grupo_26308" data-name="Grupo 26308" transform="translate(15.997 8.49)">
          <path id="Trazado_55827" data-name="Trazado 55827" d="M2544.462,2663.494h-26.886v-33.572l4.559-4.11h22.327Z" transform="translate(-2517.576 -2625.812)" fill="#fff"/>
          <path id="Trazado_55828" data-name="Trazado 55828" d="M2517.576,2629.922h4.413l.146-4.11Z" transform="translate(-2517.576 -2625.812)" fill="#b0d4ff"/>
          <rect id="Rectángulo_6874" data-name="Rectángulo 6874" width="8.608" height="0.41" transform="translate(9.139 3.268)" fill="#b0d4ff"/>
          <rect id="Rectángulo_6875" data-name="Rectángulo 6875" width="12.661" height="0.41" transform="translate(7.112 4.497)" fill="#b0d4ff"/>
          <rect id="Rectángulo_6876" data-name="Rectángulo 6876" width="21.023" height="0.527" transform="translate(3.183 12.396)" fill="#b0d4ff"/>
          <rect id="Rectángulo_6877" data-name="Rectángulo 6877" width="21.023" height="0.527" transform="translate(3.183 13.996)" fill="#b0d4ff"/>
          <rect id="Rectángulo_6878" data-name="Rectángulo 6878" width="21.023" height="0.527" transform="translate(3.183 15.597)" fill="#b0d4ff"/>
          <rect id="Rectángulo_6879" data-name="Rectángulo 6879" width="21.023" height="0.527" transform="translate(3.183 17.198)" fill="#b0d4ff"/>
          <rect id="Rectángulo_6880" data-name="Rectángulo 6880" width="21.023" height="0.527" transform="translate(3.183 34.327)" fill="#b0d4ff"/>
        </g>
        <g id="Grupo_26309" data-name="Grupo 26309" transform="translate(47.041 55.068)">
          <path id="Trazado_55829" data-name="Trazado 55829" d="M2709.539,2911.173h-26.885V2877.6l4.559-4.109h22.326Z" transform="translate(-2682.654 -2873.491)" fill="#fff"/>
          <path id="Trazado_55830" data-name="Trazado 55830" d="M2682.654,2877.6h4.412l.146-4.109Z" transform="translate(-2682.654 -2873.491)" fill="#b0d4ff"/>
          <rect id="Rectángulo_6881" data-name="Rectángulo 6881" width="8.608" height="0.41" transform="translate(9.138 3.268)" fill="#b0d4ff"/>
          <rect id="Rectángulo_6882" data-name="Rectángulo 6882" width="12.661" height="0.41" transform="translate(7.112 4.497)" fill="#b0d4ff"/>
          <rect id="Rectángulo_6883" data-name="Rectángulo 6883" width="21.023" height="0.527" transform="translate(3.183 12.396)" fill="#b0d4ff"/>
          <rect id="Rectángulo_6884" data-name="Rectángulo 6884" width="21.023" height="0.527" transform="translate(3.183 13.996)" fill="#b0d4ff"/>
          <rect id="Rectángulo_6885" data-name="Rectángulo 6885" width="21.023" height="0.527" transform="translate(3.183 15.597)" fill="#b0d4ff"/>
          <rect id="Rectángulo_6886" data-name="Rectángulo 6886" width="21.023" height="0.527" transform="translate(3.183 17.198)" fill="#b0d4ff"/>
          <rect id="Rectángulo_6887" data-name="Rectángulo 6887" width="21.023" height="0.527" transform="translate(3.183 22.123)" fill="#b0d4ff"/>
          <rect id="Rectángulo_6888" data-name="Rectángulo 6888" width="21.023" height="0.527" transform="translate(3.183 23.723)" fill="#b0d4ff"/>
          <rect id="Rectángulo_6889" data-name="Rectángulo 6889" width="21.023" height="0.527" transform="translate(3.183 25.58)" fill="#b0d4ff"/>
        </g>
        <g id="Grupo_26310" data-name="Grupo 26310" transform="translate(74.252 8.49)">
          <rect id="Rectángulo_6890" data-name="Rectángulo 6890" width="14.846" height="13.088" fill="#b0d4ff"/>
          <path id="Trazado_55831" data-name="Trazado 55831" d="M2863.366,2631.291a.65.65,0,1,1,.65.65A.65.65,0,0,1,2863.366,2631.291Z" transform="translate(-2856.593 -2629.733)" fill="#ffa412"/>
        </g>
        <g id="Grupo_26311" data-name="Grupo 26311" transform="translate(73.815 25.691)">
          <rect id="Rectángulo_6891" data-name="Rectángulo 6891" width="14.846" height="13.088" transform="translate(0 1.034) rotate(-3.993)" fill="#fff"/>
          <path id="Trazado_55832" data-name="Trazado 55832" d="M2861.822,2729.835a.65.65,0,1,1,.694.6A.65.65,0,0,1,2861.822,2729.835Z" transform="translate(-2854.9 -2726.909)" fill="#b0d4ff"/>
        </g>
        <g id="Grupo_26312" data-name="Grupo 26312" transform="translate(24.482 73.909)">
          <rect id="Rectángulo_6892" data-name="Rectángulo 6892" width="14.846" height="13.088" transform="translate(0 1.034) rotate(-3.993)" fill="#fff"/>
          <path id="Trazado_55833" data-name="Trazado 55833" d="M2599.492,2986.236a.65.65,0,1,1,.694.6A.65.65,0,0,1,2599.492,2986.236Z" transform="translate(-2592.57 -2983.31)" fill="#b0d4ff"/>
        </g>
        <g id="Grupo_26313" data-name="Grupo 26313" transform="translate(5.813 83.302)">
          <rect id="Rectángulo_6893" data-name="Rectángulo 6893" width="14.846" height="13.088" transform="matrix(1, -0.01, 0.01, 1, 0, 0.152)" fill="#fff"/>
          <path id="Trazado_55834" data-name="Trazado 55834" d="M2499.564,3033.832a.65.65,0,1,1,.657.644A.65.65,0,0,1,2499.564,3033.832Z" transform="translate(-2492.767 -3031.379)" fill="#b0d4ff"/>
        </g>
        <g id="Grupo_26314" data-name="Grupo 26314" transform="translate(94.184 33.597)">
          <rect id="Rectángulo_6894" data-name="Rectángulo 6894" width="14.846" height="13.088" transform="translate(2.303 0) rotate(10.133)" fill="#eef6ff"/>
          <path id="Trazado_55835" data-name="Trazado 55835" d="M2979.782,2773a.565.565,0,1,1,.457.656A.565.565,0,0,1,2979.782,2773Z" transform="translate(-2971.041 -2770.049)" fill="#78acea"/>
        </g>
        <g id="Grupo_26315" data-name="Grupo 26315" transform="translate(50.737 25.431)">
          <rect id="Rectángulo_6895" data-name="Rectángulo 6895" width="14.846" height="13.088" transform="translate(0 1.597) rotate(-6.177)" fill="#eef6ff"/>
          <path id="Trazado_55836" data-name="Trazado 55836" d="M2739.562,2727.138a.565.565,0,1,1,.623.5A.565.565,0,0,1,2739.562,2727.138Z" transform="translate(-2732.553 -2724.516)" fill="#78acea"/>
        </g>
        <g id="Grupo_26316" data-name="Grupo 26316" transform="translate(12.442 56.37)">
          <rect id="Rectángulo_6896" data-name="Rectángulo 6896" width="14.846" height="13.088" transform="translate(0 3.096) rotate(-12.037)" fill="#bae8e3"/>
          <path id="Trazado_55837" data-name="Trazado 55837" d="M2536.491,2895.872a.565.565,0,1,1,.782-.167A.565.565,0,0,1,2536.491,2895.872Z" transform="translate(-2529.17 -2892.12)" fill="#ffa412"/>
        </g>
        <g id="Grupo_26318" data-name="Grupo 26318" transform="translate(51.681 8.49)">
          <g id="Grupo_26317" data-name="Grupo 26317">
            <path id="Trazado_55838" data-name="Trazado 55838" d="M2721.856,2638.9h-14.129v-9.494l3.912-3.595h10.217Z" transform="translate(-2707.651 -2625.812)" fill="#fff"/>
            <path id="Trazado_55839" data-name="Trazado 55839" d="M2707.325,2629.407h3.859l.128-3.595Z" transform="translate(-2707.325 -2625.812)" fill="#b0d4ff"/>
          </g>
          <path id="Trazado_55840" data-name="Trazado 55840" d="M2745.57,2630.245a.465.465,0,1,1,.465.465A.464.464,0,0,1,2745.57,2630.245Z" transform="translate(-2738.378 -2629.034)" fill="#b0d4ff"/>
        </g>
        <g id="Grupo_26320" data-name="Grupo 26320" transform="translate(92.966 86.206)">
          <g id="Grupo_26319" data-name="Grupo 26319">
            <path id="Trazado_55841" data-name="Trazado 55841" d="M2941.39,3052.154h-14.13v-9.494l3.913-3.594h10.218Z" transform="translate(-2927.184 -3039.066)" fill="#fff"/>
            <path id="Trazado_55842" data-name="Trazado 55842" d="M2926.859,3042.66h3.86l.128-3.594Z" transform="translate(-2926.859 -3039.066)" fill="#b0d4ff"/>
          </g>
          <path id="Trazado_55843" data-name="Trazado 55843" d="M2965.1,3043.5a.465.465,0,1,1,.464.464A.464.464,0,0,1,2965.1,3043.5Z" transform="translate(-2957.912 -3042.288)" fill="#b0d4ff"/>
        </g>
        <g id="Grupo_26322" data-name="Grupo 26322" transform="translate(99.411 67.365)">
          <g id="Grupo_26321" data-name="Grupo 26321">
            <path id="Trazado_55844" data-name="Trazado 55844" d="M2975.665,2951.967h-14.13v-9.494l3.913-3.594h10.218Z" transform="translate(-2961.459 -2938.879)" fill="#fff"/>
            <path id="Trazado_55845" data-name="Trazado 55845" d="M2961.134,2942.474h3.86l.128-3.594Z" transform="translate(-2961.134 -2938.879)" fill="#b0d4ff"/>
          </g>
          <path id="Trazado_55846" data-name="Trazado 55846" d="M2999.379,2943.312a.465.465,0,1,1,.464.464A.465.465,0,0,1,2999.379,2943.312Z" transform="translate(-2992.187 -2942.101)" fill="#b0d4ff"/>
        </g>
        <g id="Grupo_26324" data-name="Grupo 26324" transform="translate(80.764 67.365)">
          <g id="Grupo_26323" data-name="Grupo 26323">
            <path id="Trazado_55847" data-name="Trazado 55847" d="M2876.51,2951.967h-14.13v-9.494l3.912-3.594h10.218Z" transform="translate(-2862.305 -2938.879)" fill="#bae8e3"/>
            <path id="Trazado_55848" data-name="Trazado 55848" d="M2861.979,2942.474h3.859l.128-3.594Z" transform="translate(-2861.979 -2938.879)" fill="#a1d6ce"/>
          </g>
          <path id="Trazado_55849" data-name="Trazado 55849" d="M2900.224,2943.312a.465.465,0,1,1,.464.464A.465.465,0,0,1,2900.224,2943.312Z" transform="translate(-2893.032 -2942.101)" fill="#f99746"/>
        </g>
        <g id="Grupo_26326" data-name="Grupo 26326" transform="translate(103.399 5.214)">
          <g id="Grupo_26325" data-name="Grupo 26325">
            <path id="Trazado_55850" data-name="Trazado 55850" d="M2996.868,2621.478h-14.13v-9.494l3.912-3.594h10.218Z" transform="translate(-2982.663 -2608.39)" fill="#bae8e3"/>
            <path id="Trazado_55851" data-name="Trazado 55851" d="M2982.337,2611.984h3.859l.128-3.594Z" transform="translate(-2982.337 -2608.39)" fill="#a1d6ce"/>
          </g>
          <path id="Trazado_55852" data-name="Trazado 55852" d="M3020.583,2612.823a.465.465,0,1,1,.464.464A.465.465,0,0,1,3020.583,2612.823Z" transform="translate(-3013.391 -2611.612)" fill="#f99746"/>
        </g>
      </g>
    </g>
    <g id="Grupo_26335" data-name="Grupo 26335" transform="translate(1654.152 2304.927)">
      <rect id="Rectángulo_6897" data-name="Rectángulo 6897" width="31.364" height="30.428" rx="11.929" transform="translate(0 0)" fill="#c0d8fb"/>
      <rect id="Rectángulo_6898" data-name="Rectángulo 6898" width="28.647" height="27.792" rx="10.896" transform="translate(1.359 1.318)" fill="#dfebfd"/>
      <g id="Grupo_26331" data-name="Grupo 26331" transform="translate(3.703 3.446)">
        <g id="Grupo_26329" data-name="Grupo 26329" transform="translate(11.33)">
          <path id="Trazado_55853" data-name="Trazado 55853" d="M2239.946,2413.907a.65.65,0,1,1,.65.649A.649.649,0,0,1,2239.946,2413.907Z" transform="translate(-2239.946 -2413.257)" fill="#b7d3f3"/>
          <path id="Trazado_55854" data-name="Trazado 55854" d="M2267.469,2420.152a.65.65,0,1,1,.252.884A.65.65,0,0,1,2267.469,2420.152Z" transform="translate(-2262.227 -2418.584)" fill="#b7d3f3"/>
          <path id="Trazado_55855" data-name="Trazado 55855" d="M2290.421,2440.121a.65.65,0,1,1-.194.9A.649.649,0,0,1,2290.421,2440.121Z" transform="translate(-2280.687 -2434.984)" fill="#b7d3f3"/>
          <path id="Trazado_55856" data-name="Trazado 55856" d="M2300.731,2469.937a.65.65,0,1,1-.65.65A.65.65,0,0,1,2300.731,2469.937Z" transform="translate(-2288.772 -2459.278)" fill="#b7d3f3"/>
          <path id="Trazado_55857" data-name="Trazado 55857" d="M2292.706,2503.2a.65.65,0,1,1-.918,0A.65.65,0,0,1,2292.706,2503.2Z" transform="translate(-2281.884 -2486.13)" fill="#b7d3f3"/>
          <path id="Trazado_55858" data-name="Trazado 55858" d="M2271.012,2524.948a.65.65,0,1,1-.919,0A.65.65,0,0,1,2271.012,2524.948Z" transform="translate(-2264.27 -2503.79)" fill="#b7d3f3"/>
          <path id="Trazado_55859" data-name="Trazado 55859" d="M2239.946,2534.177a.65.65,0,1,1,.65.649A.649.649,0,0,1,2239.946,2534.177Z" transform="translate(-2239.946 -2510.91)" fill="#b7d3f3"/>
        </g>
        <g id="Grupo_26330" data-name="Grupo 26330" transform="translate(0 1.234)">
          <path id="Trazado_55860" data-name="Trazado 55860" d="M2213.611,2420.152a.65.65,0,1,0-.252.884A.649.649,0,0,0,2213.611,2420.152Z" transform="translate(-2206.245 -2419.817)" fill="#b7d3f3"/>
          <path id="Trazado_55861" data-name="Trazado 55861" d="M2190.659,2440.121a.65.65,0,1,0,.194.9A.649.649,0,0,0,2190.659,2440.121Z" transform="translate(-2187.785 -2436.218)" fill="#b7d3f3"/>
          <path id="Trazado_55862" data-name="Trazado 55862" d="M2180.351,2469.937a.65.65,0,1,0,.65.65A.65.65,0,0,0,2180.351,2469.937Z" transform="translate(-2179.701 -2460.512)" fill="#b7d3f3"/>
          <path id="Trazado_55863" data-name="Trazado 55863" d="M2188.374,2503.2a.65.65,0,1,0,.919,0A.65.65,0,0,0,2188.374,2503.2Z" transform="translate(-2186.588 -2487.363)" fill="#b7d3f3"/>
          <path id="Trazado_55864" data-name="Trazado 55864" d="M2210.069,2524.948a.65.65,0,1,0,.919,0A.649.649,0,0,0,2210.069,2524.948Z" transform="translate(-2204.203 -2505.023)" fill="#b7d3f3"/>
        </g>
      </g>
      <g id="Grupo_26334" data-name="Grupo 26334" transform="translate(15.507 6.638)">
        <path id="Trazado_55865" data-name="Trazado 55865" d="M2242.469,2470.587a.649.649,0,1,1,.649.649A.65.65,0,0,1,2242.469,2470.587Z" transform="translate(-2242.469 -2462.471)" fill="#b7d3f3"/>
        <g id="Grupo_26332" data-name="Grupo 26332" transform="translate(0.561)">
          <rect id="Rectángulo_6899" data-name="Rectángulo 6899" width="0.177" height="8.116" fill="#b7d3f3"/>
        </g>
        <g id="Grupo_26333" data-name="Grupo 26333" transform="translate(0.404 4.518)">
          <rect id="Rectángulo_6900" data-name="Rectángulo 6900" width="5.47" height="0.532" transform="translate(0 3.378) rotate(-38.14)" fill="#b7d3f3"/>
        </g>
      </g>
    </g>
    <g id="Grupo_26339" data-name="Grupo 26339" transform="translate(1831.921 2391.198)">
      <g id="Grupo_26336" data-name="Grupo 26336" transform="translate(0 143.206)">
        <path id="Trazado_55866" data-name="Trazado 55866" d="M3122.113,3627.21c-.128,1.745-2.59,1.764-5.385,1.44s-2.052.383-5.965.438-5.262-1.239-5.451-1.8c-.169-.5,1.715-.914,3.731-1.4.254-.061.508-.125.763-.189,2.273-.578,3.779-2.279,5.724-3.765,1.843-1.408,4.219-6.5,4.219-6.5l5.345-.241s-2.251,4.565-3.1,6.534a6.446,6.446,0,0,0-.069,3.672A6.827,6.827,0,0,1,3122.113,3627.21Z" transform="translate(-3105.302 -3615.189)" fill="#ffb27d"/>
        <path id="Trazado_55867" data-name="Trazado 55867" d="M3116.728,3672.713c-2.794-.324-2.052.383-5.965.438s-5.262-1.239-5.451-1.8c-.169-.5,1.715-.914,3.731-1.4l.024.037a10.962,10.962,0,0,0,5.742,1.028c2.626-.263,5.306-1.359,7.118-1.556a6.827,6.827,0,0,1,.185,1.816C3121.985,3673.019,3119.523,3673.037,3116.728,3672.713Z" transform="translate(-3105.302 -3659.251)" fill="#233862"/>
      </g>
      <g id="Grupo_26337" data-name="Grupo 26337" transform="translate(36.918 139.992)">
        <path id="Trazado_55868" data-name="Trazado 55868" d="M3318.423,3613.7c-.126,1.746-2.588,1.767-5.384,1.445s-2.051.386-5.964.444-5.263-1.233-5.453-1.792c-.169-.5,1.715-.916,3.73-1.408.253-.062.508-.126.762-.19,2.273-.58,3.776-2.283,5.72-3.771,1.841-1.409,0-9.751,0-9.751l5.88-.572s-.283,7.024-.279,10.218a18,18,0,0,0,.8,3.563A6.823,6.823,0,0,1,3318.423,3613.7Z" transform="translate(-3301.612 -3598.101)" fill="#ffb27d"/>
        <path id="Trazado_55869" data-name="Trazado 55869" d="M3313.04,3674.644c-2.795-.322-2.051.385-5.964.443s-5.263-1.233-5.453-1.792c-.169-.5,1.715-.915,3.73-1.408l.024.037a10.965,10.965,0,0,0,5.743,1.023c2.626-.266,5.3-1.365,7.117-1.563a6.824,6.824,0,0,1,.187,1.816C3318.3,3674.945,3315.835,3674.966,3313.04,3674.644Z" transform="translate(-3301.612 -3657.602)" fill="#233862"/>
      </g>
      <path id="Trazado_55870" data-name="Trazado 55870" d="M3298.308,2865.088c-1.012-4.163.456-6.1,1.779-7.134a6.308,6.308,0,0,1,2.077-3.053,7.493,7.493,0,0,1,4.058-.776,1.9,1.9,0,0,0-.856-.406,6.282,6.282,0,0,1,2.245.585c9.661-3.722,11.179,10.5,10.977,13.807s-.175,7.2,4.851,9.8c9.591,4.968-3.187,23.69-3.187,23.69.244-2.67-12.078-16.764-18.507-20.984-1.565-2.3-2.121-6.374-2.163-6.694a17.562,17.562,0,0,0,1.315,6.056C3297.966,2877.283,3297.532,2870.808,3298.308,2865.088Z" transform="translate(-3261.737 -2853.689)" fill="#a9453d"/>
      <path id="Trazado_55871" data-name="Trazado 55871" d="M3320.063,2956.908c-.033.014,3.1,1.643,5.463,1,2.219-.6,3.669-3.482,3.638-3.489-.94-.187-1.21-1.478-1.191-7.027l-.425.083-7.143,1.415s.163,2.248.167,4.366C3320.578,2955.032,3320.47,2956.718,3320.063,2956.908Z" transform="translate(-3279.676 -2929.769)" fill="#ffb27d"/>
      <path id="Trazado_55872" data-name="Trazado 55872" d="M3321.886,2949.25s.163,2.249.167,4.366c4-.113,6.11-3.759,6.976-5.78Z" transform="translate(-3281.156 -2930.13)" fill="#ed975d"/>
      <path id="Trazado_55873" data-name="Trazado 55873" d="M3166.985,3287.72a1.753,1.753,0,0,0,1.588,2.283l2.79.131,2.953.09a2.37,2.37,0,0,0,1.911-.872,83.008,83.008,0,0,0,14.011-26.528q.186-.59.393-1.193c2.906-8.473,8.931-19.11,12.106-28.737.5-1.533.959-2.976,1.366-4.343.13-.437.257-.867.378-1.29a102.061,102.061,0,0,0,3.641-19.17l-22.925.184A505.035,505.035,0,0,1,3166.985,3287.72Z" transform="translate(-3155.317 -3141.442)" fill="#2a4e96"/>
      <path id="Trazado_55874" data-name="Trazado 55874" d="M3266.911,3010.743c.058,10.909-1.6,15.589-1.6,15.589a30.8,30.8,0,0,0,21.482,1.316c.137-.043,9.659-2.216,9.659-2.216-.195-.441-1.931-7.793-2.122-8.2-2.463-5.29-4.333-7.609-4.625-9.235a34.606,34.606,0,0,1-.283-9.14,73.32,73.32,0,0,1,2.829-14.353,74.594,74.594,0,0,1-9.464-3.235,7.4,7.4,0,0,1-5.105,1.894c-2.324-.051-3.077-1.046-2.957-2.132-2.476,1.378-4.452,2.679-4.452,2.679-2.1,3.656-6.373,7.207-6.683,12.814C3263.514,2997.906,3266.91,3010.438,3266.911,3010.743Z" transform="translate(-3233.821 -2957.085)" fill="#fff"/>
      <path id="Trazado_55875" data-name="Trazado 55875" d="M3371.229,3063.63c1,1.418,2.923,10.039,7.7,11.123-2.463-6.144-4.333-8.838-4.625-10.727a46.566,46.566,0,0,1-.284-10.616c-1.6-2.8-2.794-4.728-2.794-4.728-.125-.454-2.543-7.928-3.317-1.247S3370.109,3062.043,3371.229,3063.63Z" transform="translate(-3318.423 -3008.756)" fill="#5f9aa8"/>
      <path id="Trazado_55876" data-name="Trazado 55876" d="M3301.189,2897.122s9.457.156,9.464-5.734,1.231-9.838-4.807-10.187-7.213,1.9-7.694,3.864S3298.73,2896.929,3301.189,2897.122Z" transform="translate(-3261.794 -2875.997)" fill="#ffb27d"/>
      <path id="Trazado_55877" data-name="Trazado 55877" d="M3316.65,2875.419s2.589,6.911,6.563,7.933,5.7-.043,5.7-.043a11.25,11.25,0,0,1-3.68-6.647S3318.6,2872.13,3316.65,2875.419Z" transform="translate(-3276.904 -2870.361)" fill="#a9453d"/>
      <path id="Trazado_55878" data-name="Trazado 55878" d="M3299.388,2878.707a8.353,8.353,0,0,0-2.405,3.043c-.472,1.5-.684,4.588-1.583,4.483,0,0-1.951-4.7.242-7.355C3297.966,2876.061,3299.388,2878.707,3299.388,2878.707Z" transform="translate(-3259.001 -2873.087)" fill="#a9453d"/>
      <path id="Trazado_55879" data-name="Trazado 55879" d="M3216.376,3179.282l-4.467,13.618,2.548,1.022,7.385-12.032Z" transform="translate(-3191.861 -3118.052)" fill="#ffb27d"/>
      <path id="Trazado_55880" data-name="Trazado 55880" d="M3242.912,2991.018s-5.267,2.09-6.791,5.349-3.833,25.115-4.751,27.359-1.61,4.021-1.61,4.021,2.655,2.238,5.326,2.4S3242.912,2991.018,3242.912,2991.018Z" transform="translate(-3206.354 -2965.192)" fill="#f99746"/>
      <path id="Trazado_55881" data-name="Trazado 55881" d="M3260.971,2981.033s-5.472,13.517-5.632,16.252-.644,44.734-.644,44.734.322,1.931-3.379,1.126-4.667-1.609-4.667-1.609,3.54-25.906,2.575-34.918,7.4-23.708,7.4-23.708Z" transform="translate(-3220.067 -2957.085)" fill="#f99746"/>
      <path id="Trazado_55882" data-name="Trazado 55882" d="M3190.631,3361.838l3.206.1a1.854,1.854,0,0,0,1.487-.671,82.731,82.731,0,0,0,14.183-26.737q.186-.589.393-1.192c2.906-8.474,8.931-19.11,12.105-28.737.505-1.534.959-2.977,1.366-4.343.13-.437.258-.868.378-1.291l-3.376-2.562s-10.136,16.413-13.273,31.859C3204.373,3341.679,3193.457,3357.823,3190.631,3361.838Z" transform="translate(-3174.585 -3213.147)" fill="#1e3d70"/>
      <path id="Trazado_55883" data-name="Trazado 55883" d="M3337.182,3310.893c-.055,7.106.282,22.944,1.147,30.687a1.4,1.4,0,0,0,1.391,1.243h2.392c1.008,0,1.762-.007,2.264-.015a.919.919,0,0,0,.887-.743c2.379-12.1,4.082-22.161,5.328-30.85,1.042-7.273,1.97-13.508,2.682-18.876.718-5.4,1.217-9.925,1.4-13.747q.042-.9.06-1.756t.009-1.665l-19.808-1.932C3335.178,3286.4,3337.214,3306.527,3337.182,3310.893Z" transform="translate(-3291.746 -3194.34)" fill="#2a4e96"/>
      <path id="Trazado_55884" data-name="Trazado 55884" d="M3373.126,3365.929c.906,0,1.606-.006,2.1-.012a1.116,1.116,0,0,0,1.079-.9c2.363-12.035,4.056-22.042,5.3-30.694,1.043-7.274,1.97-13.509,2.683-18.877.718-5.4,1.217-9.925,1.4-13.747l-7.268,4.275s4.639,1.637,2.869,14.027S3375.59,3364.176,3373.126,3365.929Z" transform="translate(-3322.76 -3217.447)" fill="#1e3d70"/>
      <path id="Trazado_55885" data-name="Trazado 55885" d="M3338.927,3042.4s1.4,5.041,6.223,4.4,11.692-3.54,11.692-3.54-2.063-6.519-4.628-15.083c-3.106-10.368-6.95-23.733-8.762-32.163a52.266,52.266,0,0,1-.985-5.748l-4.005-7.771s-5.971,13.4-6.293,16.782S3338.927,3042.4,3338.927,3042.4Z" transform="translate(-3289.496 -2958.274)" fill="#f99746"/>
      <path id="Trazado_55886" data-name="Trazado 55886" d="M3313.225,2998.776l-5.286-16.278a81.524,81.524,0,0,1,10.027,3.675s2.095,2.7,3.391,8.931c0,0,1.369,14.957-1.687,20.428,0,0-9.655,1.931-25.1-3.379v-3.54s16.9.885,20.355,1.287Z" transform="translate(-3258.973 -2958.274)" fill="#ffb27d"/>
      <path id="Trazado_55887" data-name="Trazado 55887" d="M3369.272,3064.726c.215,5.471,1.5,16.091,12.98,21.776.031.015.061.031.092.044-3.105-10.368-6.95-23.733-8.762-32.163C3371.475,3057.533,3369.154,3061.713,3369.272,3064.726Z" transform="translate(-3319.627 -3016.641)" fill="#ed7d2b"/>
      <path id="Trazado_55888" data-name="Trazado 55888" d="M3363.231,2982.5s9.8.69,12.158,5.947,3.111,22.743.107,27.892c0,0-4.135,1.178-11.449-.19l-.271-.052s-2.333-5.712-.241-6.838c0,0,6.168.322,5.524-1.716S3363.231,2982.5,3363.231,2982.5Z" transform="translate(-3314.265 -2958.274)" fill="#f99746"/>
      <g id="Grupo_26338" data-name="Grupo 26338" transform="translate(23.235 47.524)">
        <path id="Trazado_55889" data-name="Trazado 55889" d="M3235.039,3111.4l.289.928,16.079-5a.618.618,0,0,0,.108-.568.456.456,0,0,0-.4-.359Z" transform="translate(-3233.876 -3106.397)" fill="#a9453d"/>
        <path id="Trazado_55890" data-name="Trazado 55890" d="M3228.856,3133.87l1.163-.876.289.928Z" transform="translate(-3228.856 -3127.992)" fill="#a9453d"/>
      </g>
      <path id="Trazado_55891" data-name="Trazado 55891" d="M3194.244,3249.716s-4.079,2.254-4.615,3.971-.168,5.313.479,5.259,1.614-3.864,2.15-4.132,1.288-1.073,1.288-.483-.537,1.664-.269,1.825,1.127-1.5,1.718-1.825.838-2.976,1.412-3.688S3194.244,3249.716,3194.244,3249.716Z" transform="translate(-3173.561 -3175.24)" fill="#ffb27d"/>
      <path id="Trazado_55892" data-name="Trazado 55892" d="M3254.708,3113s-3.647-2.247-5.177-1.9-5.431,3.17-3.555,3.782,3.4-.03,4.116.414,1.254,1.256,4.616,1.245S3254.708,3113,3254.708,3113Z" transform="translate(-3219.115 -3062.661)" fill="#ffb27d"/>
    </g>
    <g id="Grupo_26341" data-name="Grupo 26341" transform="translate(1560.538 2380.962)">
      <path id="Trazado_55893" data-name="Trazado 55893" d="M1734.01,2835.7c-.611-1.179,13.341-5.426,13.562,6.213,0,0,26.136-.643,13.656-15.21-4.32-5.043-3.876-9.213-3.746-13.094s-2.691-15.164-12.365-14.028a7.2,7.2,0,0,0-5.7.609C1732.231,2803.917,1716.125,2839.989,1734.01,2835.7Z" transform="translate(-1713.896 -2799.258)" fill="#163560"/>
      <path id="Trazado_55894" data-name="Trazado 55894" d="M1996.38,3048.931s1.7-2.59,3.072-2.641,3.91-.762,3.707-.254-1.777.559-1.929.863,2.336.762,3.047.813,2.387,0,2.336.355-3.021,1.828-5.116,1.625a14.226,14.226,0,0,0-4.685.609Z" transform="translate(-1933.538 -2999.48)" fill="#ffb27d"/>
      <path id="Trazado_55895" data-name="Trazado 55895" d="M1865.549,2977.38a25.518,25.518,0,0,0,2.6,3.935c2.022,2.532,5.139,5.457,9.052,6.035a9.718,9.718,0,0,0,5.378-.873l.006,0c4.753-2.109,8.327-6.962,8.327-6.962a3.907,3.907,0,0,0-.533-3.834s-9.6,2.159-10.512,1.7-6.246-15.818-7.515-17.748-5.6-2.933-5.6-2.933Z" transform="translate(-1827.311 -2927.091)" fill="#b0d0ff"/>
      <path id="Trazado_55896" data-name="Trazado 55896" d="M1878.082,3065.635c2.021,2.532,5.139,5.457,9.052,6.034a9.717,9.717,0,0,0,5.378-.873c-.186.024-4.933.61-6.825-2.774-1.93-3.454-4.018-8.938-6.885-7.11C1877.565,3061.7,1877.62,3063.662,1878.082,3065.635Z" transform="translate(-1837.241 -3011.411)" fill="#98baf4"/>
      <path id="Trazado_55897" data-name="Trazado 55897" d="M1664.646,3612.112s-2.928,2.672-2.357,4.571,3.215,3.165,3.572,5.486,1.786,3.587,3.072,3.587h6.13s.947-1.633-1.339-2.125-3.148-3.22-3-5.752a44.651,44.651,0,0,0-.214-5.908l-4.857-1.125Z" transform="translate(-1662.215 -3458.221)" fill="#233862"/>
      <path id="Trazado_55898" data-name="Trazado 55898" d="M1805.2,3623.611s-1.054,11.322.232,11.956l16.454-.034s0-1.9-2.643-2.321-7.286-1.969-8.072-5.416S1805.2,3623.611,1805.2,3623.611Z" transform="translate(-1777.979 -3468.585)" fill="#233862"/>
      <path id="Trazado_55899" data-name="Trazado 55899" d="M1744.28,2955.168c3.386-7.594,5.458-9.773,5.062-12.13-.294-1.754.9-32.707.9-32.707.4-.124,1.207-.236,1.647-.334a4.13,4.13,0,0,0,3.017-2.624,21.051,21.051,0,0,0,1.024-6.984l.434.085,7.293,1.444s-.166,2.3-.171,4.458v.054a4.194,4.194,0,0,0,3.027,4.056c.921.266,1.723.493,1.723.493a66.892,66.892,0,0,1,3.19,15.5c.511,7.854-4.87,11.267.041,26.962C1776.476,2969.472,1742.409,2959.364,1744.28,2955.168Z" transform="translate(-1728.786 -2881.37)" fill="#ffb27d"/>
      <path id="Trazado_55900" data-name="Trazado 55900" d="M1816.133,2902.287s-.166,2.295-.171,4.458c-4.081-.115-6.238-3.838-7.122-5.9Z" transform="translate(-1781.266 -2881.739)" fill="#e8945b"/>
      <path id="Trazado_55901" data-name="Trazado 55901" d="M1812.682,2849.063s-9.656.159-9.663-5.855-1.257-10.045,4.907-10.4,7.365,1.938,7.855,3.945S1815.194,2848.867,1812.682,2849.063Z" transform="translate(-1776.453 -2826.468)" fill="#ffb27d"/>
      <path id="Trazado_55902" data-name="Trazado 55902" d="M1798.92,2826.905s-2.644,7.056-6.7,8.1-5.817-.044-5.817-.044a11.489,11.489,0,0,0,3.758-6.788S1796.926,2823.546,1798.92,2826.905Z" transform="translate(-1763.048 -2820.713)" fill="#163560"/>
      <path id="Trazado_55903" data-name="Trazado 55903" d="M1849.484,2830.262a5.989,5.989,0,0,1,2.767,2.163,9.723,9.723,0,0,1,1.305,5.521s1.992-4.8-.247-7.509C1850.937,2827.56,1849.484,2830.262,1849.484,2830.262Z" transform="translate(-1814.267 -2823.497)" fill="#163560"/>
      <path id="Trazado_55904" data-name="Trazado 55904" d="M1843.7,2898.113a2.426,2.426,0,0,0,2,.813,1.774,1.774,0,0,0,1.488-.982A6.482,6.482,0,0,0,1843.7,2898.113Z" transform="translate(-1809.568 -2879.249)" fill="#ebf3fa"/>
      <path id="Trazado_55905" data-name="Trazado 55905" d="M1739.174,2966.941a65.564,65.564,0,0,0,0,7.605c.163,2.75,2.945,6.433,3.339,7.344.99,2.285,2.107,2.657,2.107,2.657l8.64,2.118,3.037.744,9.58-2.861s4.363-12.178,2.611-19.034a52.691,52.691,0,0,0-4.429-11.616s-7.817,7.654-17.995-.648Z" transform="translate(-1724.613 -2924.29)" fill="#b0d0ff"/>
      <path id="Trazado_55906" data-name="Trazado 55906" d="M1753.092,3060.46a26.93,26.93,0,0,0,.81,6.222c.99,2.285,2.107,2.657,2.107,2.657l8.64,2.118,3.752-1.1s-12.526-1.9-11.138-12.675Z" transform="translate(-1736.002 -3009.08)" fill="#f2ccaa"/>
      <path id="Trazado_55907" data-name="Trazado 55907" d="M1809.775,3129.512s4.744,14.766,5.049,19.793-9.068,71.418-9.445,73.735c-.355,2.183-3.067,3.575-3.067,3.575a4.1,4.1,0,0,1-3.027.233,7.491,7.491,0,0,1-3.25-1.532s-3.692-47.35-1.407-64.264a267.9,267.9,0,0,0,2.312-31.541Z" transform="translate(-1769.12 -3067.406)" fill="#ed7d2b"/>
      <path id="Trazado_55908" data-name="Trazado 55908" d="M1697.584,3127.171s-7.236,9.709-7.911,16.273-1.058,29.618-2.5,36.017-6.718,18.712-6.718,38.669a3.982,3.982,0,0,0,2.244,1.753,18.594,18.594,0,0,0,1.973.545,3.1,3.1,0,0,0,3.469-1.647c3.57-7.188,14.942-30.371,15.525-35.184.412-3.406,4-25.945,11.835-39.171,1.88-3.175-1.154-15.8-1.154-15.8Z" transform="translate(-1677.029 -3065.505)" fill="#f99746"/>
      <path id="Trazado_55909" data-name="Trazado 55909" d="M1844.838,2898.467s.167.709,1.93.6c0,0,1.48-.092,1.435-.87A4.761,4.761,0,0,0,1844.838,2898.467Z" transform="translate(-1810.494 -2879.443)" fill="#fff"/>
      <path id="Trazado_55910" data-name="Trazado 55910" d="M1787.949,3117.391a9.943,9.943,0,0,1-5.688,1.583c-4.519.091-15.717-1.152-15.717-1.152a9.257,9.257,0,0,0-.478,2.858s13.677,3.45,21.6.5A5.008,5.008,0,0,0,1787.949,3117.391Z" transform="translate(-1746.537 -3057.564)" fill="#233862"/>
      <g id="Grupo_26340" data-name="Grupo 26340" transform="translate(34.747 60.637)">
        <path id="Trazado_55911" data-name="Trazado 55911" d="M1846.983,3124.029a2.078,2.078,0,1,1,2.062,2.333A2.213,2.213,0,0,1,1846.983,3124.029Zm.684,0a1.4,1.4,0,1,0,1.379-1.651A1.534,1.534,0,0,0,1847.667,3124.029Z" transform="translate(-1846.983 -3121.695)" fill="#fff"/>
      </g>
      <rect id="Rectángulo_6901" data-name="Rectángulo 6901" width="18.579" height="25.432" transform="matrix(-0.754, -0.657, 0.657, -0.754, 19.297, 74.699)" fill="#b5453c"/>
      <path id="Trazado_55912" data-name="Trazado 55912" d="M1781.209,3131.832s5.134.6,5.118,1.819-1.279,3.722-1.913,3.833-4.178-3.386-4.178-3.386Z" transform="translate(-1758.041 -3069.289)" fill="#ffb27d"/>
      <path id="Trazado_55913" data-name="Trazado 55913" d="M1702.481,2953.249s-6.854.48-9.482,6.867-7.612,17.111-7.612,18.915,2.785,7.365,17.739,10.563c0,0,1.547-1.627,1.453-2.914,0,0-9.335-8.019-9.31-8.956.048-1.773,1.531-4.113,9.727-12.312C1707.224,2963.183,1702.481,2953.249,1702.481,2953.249Z" transform="translate(-1681.029 -2924.29)" fill="#b0d0ff"/>
    </g>
    <g id="Grupo_26350" data-name="Grupo 26350" transform="translate(1635.018 2414.327)">
      <g id="Grupo_26345" data-name="Grupo 26345" transform="translate(2.924 44.998)">
        <g id="Grupo_26342" data-name="Grupo 26342" transform="translate(19.028 42.936)">
          <path id="Trazado_55914" data-name="Trazado 55914" d="M2175.742,3490.158h-.065a.683.683,0,0,1-.682-.7l1.035-44.834,3.047-.355-2.6,45.193A.738.738,0,0,1,2175.742,3490.158Z" transform="translate(-2174.995 -3444.27)" fill="#b0d4ff"/>
        </g>
        <g id="Grupo_26343" data-name="Grupo 26343" transform="translate(1.272 42.936)">
          <path id="Trazado_55915" data-name="Trazado 55915" d="M2081.323,3490.158h-.065a.682.682,0,0,1-.682-.7l1.035-44.834,3.047-.355-2.6,45.193A.737.737,0,0,1,2081.323,3490.158Z" transform="translate(-2080.576 -3444.27)" fill="#95c0f4"/>
        </g>
        <g id="Grupo_26344" data-name="Grupo 26344" transform="translate(47.682 42.936)">
          <path id="Trazado_55916" data-name="Trazado 55916" d="M2330.7,3490.158h.065a.682.682,0,0,0,.682-.7l-1.034-44.834-3.047-.355,2.6,45.193A.738.738,0,0,0,2330.7,3490.158Z" transform="translate(-2327.361 -3444.27)" fill="#b0d4ff"/>
        </g>
        <path id="Trazado_55917" data-name="Trazado 55917" d="M2073.813,3256.469v-30.723a9.789,9.789,0,0,1,9.788-9.788h22.135a9.789,9.789,0,0,1,9.789,9.788v31.9Z" transform="translate(-2073.813 -3215.958)" fill="#b0d4ff"/>
        <path id="Rectángulo_6902" data-name="Rectángulo 6902" d="M0,0H45.677a0,0,0,0,1,0,0V4.85a0,0,0,0,1,0,0H4.85A4.85,4.85,0,0,1,0,0V0A0,0,0,0,1,0,0Z" transform="translate(0 40.511)" fill="#95c0f4"/>
        <rect id="Rectángulo_6903" data-name="Rectángulo 6903" width="36.679" height="4.85" rx="2.425" transform="translate(16.292 40.511)" fill="#b0d4ff"/>
      </g>
      <g id="Grupo_26349" data-name="Grupo 26349" transform="translate(0 0)">
        <path id="Trazado_55918" data-name="Trazado 55918" d="M2234.711,3386.763a20.588,20.588,0,0,1-7.159,7.649H2210.96S2237.131,3382.553,2234.711,3386.763Z" transform="translate(-2182.244 -3308.91)" fill="#233862"/>
        <g id="Grupo_26346" data-name="Grupo 26346">
          <path id="Trazado_55919" data-name="Trazado 55919" d="M2267.79,3558.311a1.532,1.532,0,0,0-.273,1.64.012.012,0,0,0,0,.008c.4,1.094,1.7,2.315,3.222,3.535.194.157.367.3.517.431.039.035.079.069.116.1l.089.081c1.416,1.306.883,1.6,3.427,4.253,2.9,3.019,4.9,3.073,5.467,2.8.481-.234-.5-1.835-1.578-3.634-.052-.087-.1-.175-.158-.263-.144-.239-.287-.482-.43-.722-1.268-2.166-.943-3.182-.642-6.4.245-2.619,4.074-14.631,4.074-14.631l-5.559-.958s-1.674,9.565-3.519,11.039c-.987.785-2.091.795-3.039,1.377-.067.04-.133.082-.2.125A7.285,7.285,0,0,0,2267.79,3558.311Z" transform="translate(-2228.066 -3437.756)" fill="#ffb27d"/>
          <path id="Trazado_55920" data-name="Trazado 55920" d="M2267.79,3611.916a1.532,1.532,0,0,0-.273,1.64.012.012,0,0,0,0,.008,11.813,11.813,0,0,0,3.227,3.523c.192.159.361.305.512.442.039.035.079.069.116.1s.06.055.089.081c1.416,1.306.883,1.6,3.427,4.253,2.9,3.019,4.9,3.073,5.467,2.8.481-.234-.5-1.835-1.578-3.634a12.368,12.368,0,0,1-5.171-3.811c-1.747-2.229-2.912-5.093-4.1-6.752-.067.04-.133.082-.2.125A7.3,7.3,0,0,0,2267.79,3611.916Z" transform="translate(-2228.066 -3491.361)" fill="#233862"/>
          <path id="Trazado_55921" data-name="Trazado 55921" d="M2488.676,3547.533c.343,1.716,2.789,1.43,5.522.762s2.083.125,5.973-.3,5.068-1.881,5.187-2.459c.106-.513-1.816-.694-3.877-.932-.259-.029-.52-.062-.78-.093-2.327-.292-4.032-1.794-6.146-3.027-2-1.169-4.991-5.929-4.991-5.929l-5.334.423s2.8,4.251,3.882,6.1a6.445,6.445,0,0,1,.523,3.635A6.852,6.852,0,0,0,2488.676,3547.533Z" transform="translate(-2404.123 -3430.451)" fill="#ffb27d"/>
          <path id="Trazado_55922" data-name="Trazado 55922" d="M2513.043,3587.365c2.733-.668,2.083.126,5.973-.3s5.068-1.881,5.187-2.459c.106-.513-1.815-.694-3.877-.932l-.019.04a10.966,10.966,0,0,1-5.57,1.731c-2.639.064-5.434-.692-7.256-.663a6.862,6.862,0,0,0,.041,1.825C2507.864,3588.318,2510.31,3588.032,2513.043,3587.365Z" transform="translate(-2422.968 -3469.52)" fill="#233862"/>
          <path id="Trazado_55923" data-name="Trazado 55923" d="M2320.162,3380.98l-4.986,13.418-6.51,17.52a10.554,10.554,0,0,1-3.459-.316,15.016,15.016,0,0,1-3.345-1.628s1.808-18.812,5.18-29.61a19.238,19.238,0,0,1,2.9-6.276C2315.171,3367.91,2320.162,3380.98,2320.162,3380.98Z" transform="translate(-2256.052 -3298.005)" fill="#233862"/>
          <path id="Trazado_55924" data-name="Trazado 55924" d="M2163.97,3293.013c-3.267-1.054-12.584.3-21.944,2.132l-1.959-3.232-20.217-1.579s-6.671,14.794-3.019,24.22a3.418,3.418,0,0,0,3.422,2.3h.3s12.032-.007,15.939-.007c10.054,0,21.278-6.911,22.73-7.2,2.376-.476,3.327,4.278,5.7,9.269s22.339,22.1,22.339,22.1a17.576,17.576,0,0,0,4.335-.445,4.278,4.278,0,0,0,1.862-1.175S2171.337,3295.389,2163.97,3293.013Z" transform="translate(-2104.929 -3231.348)" fill="#2b478b"/>
          <path id="Trazado_55925" data-name="Trazado 55925" d="M2092.924,2978.376c-2.59-1.36-6.53-1.544-7.171-1.63-7.661-1.03-12.271,10.1-12.543,13.475-.5,6.217-3.789,7.165-8.418,11.059-9.283,7.807-6.561,16.879-1.485,20.25,3.045,2.023,8.413,0,8.413,0,.076.053,14.681-8.165,21.88-12.128C2104.393,3007.868,2099.523,2981.842,2092.924,2978.376Z" transform="translate(-2058.582 -2976.679)" fill="#233862"/>
          <path id="Trazado_55926" data-name="Trazado 55926" d="M2169.86,3083.868c.031.021-3.542,1.241-5.932.183-2.248-.994-3.952-4.692-3.918-4.694,1.023-.047,2.145-.941,3.01-6.808l.435.156,7.322,2.635s-.531,2.349-.874,4.586C2169.616,3081.8,2169.46,3083.6,2169.86,3083.868Z" transform="translate(-2140.876 -3054.52)" fill="#ffb27d"/>
          <path id="Trazado_55927" data-name="Trazado 55927" d="M2185.656,3076.015s-.531,2.349-.874,4.586c-4.206-.757-5.856-4.947-6.448-7.221Z" transform="translate(-2155.753 -3055.195)" fill="#ed975d"/>
          <path id="Trazado_55928" data-name="Trazado 55928" d="M2183.58,3023.71s-10.018-1.345-9.084-7.57.269-10.592,6.7-10,7.319,3.157,7.513,5.311S2186.21,3023.9,2183.58,3023.71Z" transform="translate(-2152.588 -3000.558)" fill="#ffb27d"/>
          <path id="Trazado_55929" data-name="Trazado 55929" d="M2175.938,3005.665s-6.413,5.526-10.774,5.972-6.014-.955-6.014-.955a17.035,17.035,0,0,0,4.119-5.58,3.066,3.066,0,0,1,2.528-1.808C2168.912,3003.025,2174.816,3002.9,2175.938,3005.665Z" transform="translate(-2140.177 -2998.182)" fill="#233862"/>
          <path id="Trazado_55930" data-name="Trazado 55930" d="M2227.105,3008.664a15.8,15.8,0,0,1,2.821,3.613,12.124,12.124,0,0,1,.328,6.446s3.343-6.5,1.45-9.657C2229.7,3005.717,2227.105,3008.664,2227.105,3008.664Z" transform="translate(-2195.353 -3001.676)" fill="#233862"/>
          <path id="Trazado_55931" data-name="Trazado 55931" d="M2141.179,3127c-.3,20.278-.083,16.041-2.3,17.965-.534.463-2.037.739-4.014.87-6.218.413-17.148-.612-17.564-1.761-1.434-3.976-.422-5.211-1.618-11.3-.125-.647-.279-1.349-.46-2.111-1-4.181-1.969-5.6,1.571-12.32,3.209-6.084,6.544-11.022,6.844-10.844,8.469,5.027,9.151.8,9.151.8S2141.327,3117.109,2141.179,3127Z" transform="translate(-2103.759 -3082.894)" fill="#fff"/>
          <path id="Trazado_55932" data-name="Trazado 55932" d="M2315.176,3428.655l-6.51,17.52a10.547,10.547,0,0,1-3.459-.315,15.016,15.016,0,0,1-3.345-1.628s1.808-18.812,5.18-29.61Z" transform="translate(-2256.052 -3332.262)" fill="#2b478b"/>
          <path id="Trazado_55933" data-name="Trazado 55933" d="M2212.623,3111.777s8.714,1.478,9.737,5.229,7.045,25.809,7.045,25.809-4.43.8-6.476-1.25-7.121-18.987-7.121-18.987Z" transform="translate(-2183.594 -3086.371)" fill="#fff"/>
          <path id="Trazado_55934" data-name="Trazado 55934" d="M2140.839,3218.522c-6.218.413-17.148-.612-17.564-1.761-1.435-3.976-.422-5.211-1.618-11.3l3-8.445s-.5,9.4,2.278,11.877,11.355,4.775,12.7,6.841A7.57,7.57,0,0,1,2140.839,3218.522Z" transform="translate(-2109.735 -3155.581)" fill="#ebf3ff"/>
          <path id="Trazado_55935" data-name="Trazado 55935" d="M2185.775,3286.233s6.134-1.366,7.124-.821a14.417,14.417,0,0,1,3.712,3.217c.3.69-2.2-.524-3.019-.742a7.263,7.263,0,0,0-2.605.57,8.659,8.659,0,0,1-4.67.469Z" transform="translate(-2161.795 -3227.249)" fill="#ffb27d"/>
          <path id="Trazado_55936" data-name="Trazado 55936" d="M2078.133,3107.5s-8.237.507-11.088,4.484c-4.014,5.6-11.977,29.457-7.413,32.639,5.139,3.583,23.389.938,23.389.938s.607-2.839-.238-4.212-14.577-3.591-15.21-4.225,7.922-12.358,7.922-14.26S2078.133,3107.5,2078.133,3107.5Z" transform="translate(-2058.262 -3082.895)" fill="#fff"/>
          <path id="Trazado_55937" data-name="Trazado 55937" d="M2225.237,3295.045a11.879,11.879,0,0,0,1.707,1.856,1.258,1.258,0,0,0,.693.148l-.865-1.559Z" transform="translate(-2193.836 -3235.174)" fill="#ffb27d"/>
          <path id="Trazado_55938" data-name="Trazado 55938" d="M2223.658,3285.966l3.737,1.814a.665.665,0,0,1-.619.239,8.931,8.931,0,0,1-1.621-.445Z" transform="translate(-2192.554 -3227.802)" fill="#ffb27d"/>
        </g>
        <g id="Grupo_26348" data-name="Grupo 26348" transform="translate(23.98 42.154)">
          <g id="Grupo_26347" data-name="Grupo 26347">
            <path id="Trazado_55939" data-name="Trazado 55939" d="M2234.312,3222.946h29.561l8.892-22.113H2243.25Z" transform="translate(-2225.184 -3200.833)" fill="#f99746"/>
            <path id="Trazado_55940" data-name="Trazado 55940" d="M2224.81,3313.837h-39.035v.862h38.688Z" transform="translate(-2185.775 -3292.586)" fill="#ed7d2b"/>
          </g>
          <path id="Trazado_55941" data-name="Trazado 55941" d="M2339.422,3253.55a1.024,1.024,0,0,0-1-1.408,2.017,2.017,0,0,0-1.811,1.408,1.024,1.024,0,0,0,1,1.407A2.018,2.018,0,0,0,2339.422,3253.55Z" transform="translate(-2308.195 -3242.493)" fill="#fff"/>
        </g>
      </g>
    </g>
    <g id="Grupo_26353" data-name="Grupo 26353" transform="translate(1652.411 2478.797)">
      <g id="Grupo_26351" data-name="Grupo 26351" transform="translate(165.697 5.922)">
        <path id="Trazado_55942" data-name="Trazado 55942" d="M3036.255,3415.236h.086a.931.931,0,0,0,.9-.977l-1.368-62.774-4.029-.5,3.437,63.275A1,1,0,0,0,3036.255,3415.236Z" transform="translate(-3031.846 -3350.987)" fill="#78acea"/>
      </g>
      <g id="Grupo_26352" data-name="Grupo 26352" transform="translate(5.745 5.922)">
        <path id="Trazado_55943" data-name="Trazado 55943" d="M2182.288,3415.236h-.086a.931.931,0,0,1-.9-.977l1.368-62.774,4.03-.5-3.436,63.275A1,1,0,0,1,2182.288,3415.236Z" transform="translate(-2181.3 -3350.987)" fill="#78acea"/>
      </g>
      <path id="Rectángulo_6904" data-name="Rectángulo 6904" d="M3.787,0H173.728a3.787,3.787,0,0,1,3.787,3.787v0a3.787,3.787,0,0,1-3.787,3.787H3.788A3.788,3.788,0,0,1,0,3.787v0A3.787,3.787,0,0,1,3.787,0Z" transform="translate(0 0)" fill="#78acea"/>
    </g>
    <path id="Trazado_55944" data-name="Trazado 55944" d="M1964.459,2646.891c-.651-16.118,12.859-23.279,26.672-23.279s28.846,3.579,30.148,25.011c.838,13.789-6.512,22.272-27.678,22.272-7.138,0-12.686-1.125-16.935-3.133l-10.58,9.4,5.2-13C1966.681,2659.886,1964.74,2653.846,1964.459,2646.891Z" transform="translate(-347.063 -275.681)" fill="#dfedfb"/>
    <g id="Grupo_26354" data-name="Grupo 26354" transform="translate(1893.613 2382.87)">
      <path id="Trazado_55945" data-name="Trazado 55945" d="M3634.056,3667.041a18.834,18.834,0,0,1,1.289-4.829c.9-1.8,6.629-.655,6.629-.655s1.146.982,1.391,5.565Z" transform="translate(-3596.311 -3501.012)" fill="#233862"/>
      <path id="Trazado_55946" data-name="Trazado 55946" d="M3451.575,3650.708c1.346-.822.581-6.951.581-6.951s-6.272-5.018-7.135-1.176-5.958,5.566-8.859,6.037a3.113,3.113,0,0,0-2.814,2.09Z" transform="translate(-3433.347 -3484.72)" fill="#233862"/>
      <path id="Trazado_55947" data-name="Trazado 55947" d="M3507.1,3253.027a28.909,28.909,0,0,0-.46,3.388c-.583,11.373-9.574,37.376-11.181,37.982-2.489.939-6.407-1.057-8.457-1.709a1.758,1.758,0,0,1-1.234-2c4.452-20.467,6.088-49.94,6.684-67.389a79.158,79.158,0,0,1,1.81-14.86s21.927-5.851,22.057,1.55C3516.435,3216.541,3509.056,3242.224,3507.1,3253.027Z" transform="translate(-3475.882 -3131.617)" fill="#213f7a"/>
      <path id="Trazado_55948" data-name="Trazado 55948" d="M3536.114,3253.027l-14.648-29.726a79.187,79.187,0,0,1,1.809-14.86s21.927-5.851,22.057,1.55C3545.448,3216.541,3538.07,3242.224,3536.114,3253.027Z" transform="translate(-3504.895 -3131.617)" fill="#233862"/>
      <path id="Trazado_55949" data-name="Trazado 55949" d="M3573.416,3214.762l11.591,84.012s5.09,1.228,9.05.245c0,0,3.394-44.681,3.111-55.483s2.435-28.9-.621-30.9S3573.416,3214.762,3573.416,3214.762Z" transform="translate(-3547.075 -3136.361)" fill="#213f7a"/>
      <path id="Trazado_55950" data-name="Trazado 55950" d="M3561.186,2996.858a1.61,1.61,0,0,1-1.161,1.662c-1.617.469-3.481.8-7.077,1.541a68.647,68.647,0,0,1-13.5,1.356c-8.879.057-12.24-3-12.24-3-.383.007.2-1.852.728-10.687.178-2.994.351-6.787.475-11.582.112-4.315.188-9.44.194-15.521.009-7.315,11.332-15.184,11.541-15.184l0,0c0,1.054,1.66,3,4.216,3.165,3.035.2,6.757-1.312,6.757-3.059,0-.018,5.486,8.775,7.434,18.144C3559.538,2968.408,3559.139,2968.282,3561.186,2996.858Z" transform="translate(-3509.455 -2919.857)" fill="#b0d0ff"/>
      <path id="Trazado_55951" data-name="Trazado 55951" d="M3514.207,2945.442s-10.529-.089-13.062,3.464-8.089,22.67-5.19,29.031,8.324-2.631,11.334-6.528S3514.207,2945.442,3514.207,2945.442Z" transform="translate(-3483.517 -2919.859)" fill="#b0d0ff"/>
      <path id="Trazado_55952" data-name="Trazado 55952" d="M3595.831,2909.792l.006,1.088s-.3,3.4,3.895,3.9,7.3-.636,7.188-3.263a37.8,37.8,0,0,1-.755-5.8,11.733,11.733,0,0,1,.149-2.038l-8.122-.162-2.392.39Z" transform="translate(-3565.25 -2885.816)" fill="#ffb27d"/>
      <path id="Trazado_55953" data-name="Trazado 55953" d="M3595.8,2903.9l.031,5.888a6.874,6.874,0,0,0,2.928.646c3.732,0,6.145-2.736,7.406-4.723a11.733,11.733,0,0,1,.149-2.038l-8.122-.162Z" transform="translate(-3565.25 -2885.816)" fill="#e2915a"/>
      <path id="Trazado_55954" data-name="Trazado 55954" d="M3597.131,2842.283c-.942,5.071-7.486,4.9-10.314,4.586-.8-.088-1.3-.19-1.3-.19-.9-.24-1.4-1.653-1.63-3.5-.461-3.664.122-9.042.74-10.418.932-2.07,2.687-4.309,9.276-2.693S3598.34,2835.786,3597.131,2842.283Z" transform="translate(-3555.445 -2825.73)" fill="#ffb27d"/>
      <path id="Trazado_55955" data-name="Trazado 55955" d="M3522.209,3021.2s-4.072,8.993-3.953,11.688a14.051,14.051,0,0,1,3.953.509C3525.392,3034.344,3522.209,3021.2,3522.209,3021.2Z" transform="translate(-3502.286 -2981.368)" fill="#98baf4"/>
      <path id="Trazado_55956" data-name="Trazado 55956" d="M3577.507,2811.6a21.811,21.811,0,0,0,6.322-1.71c2.776-1.208,6.279.122,7.417.721a1.691,1.691,0,0,0-.277-.684,1.526,1.526,0,0,1,.585.868c.053.039.076.065.063.074a1.955,1.955,0,0,1,.951.062s-.26-.037-.353.13a.155.155,0,0,1-.042.046c4.331,2.093,4.731,8.938,3.337,10.522a55.1,55.1,0,0,0-4.209,6.218,7.837,7.837,0,0,1,.093-2.712c.305-1.676-1.144-1.676-2.973-2.439s-.305-2.9-1.906-4.192-7.47-.534-7.394-1.524C3576.943,2816.188,3577.507,2811.826,3577.507,2811.6Z" transform="translate(-3550.343 -2809.402)" fill="#233862"/>
      <path id="Trazado_55957" data-name="Trazado 55957" d="M3556.145,3109.1c-1.719,6.9-20.308,10.469-24.534,11.194.178-2.993.351-6.787.475-11.582Z" transform="translate(-3513.131 -3052.427)" fill="#98baf4"/>
      <path id="Trazado_55958" data-name="Trazado 55958" d="M3635.406,3091.3a32.79,32.79,0,0,0,4.841-.944c.708-.354,3.949-4.959,1.827-6.14s-7.818,3.542-7.818,3.542Z" transform="translate(-3596.473 -3032.379)" fill="#ffb27d"/>
      <path id="Trazado_55959" data-name="Trazado 55959" d="M3511.827,3094.3s15.3.83,25.564-1.368a4.413,4.413,0,0,0-2.968-4.284s-16-3.391-19.845-2.447S3511.827,3094.3,3511.827,3094.3Z" transform="translate(-3496.952 -3034.009)" fill="#b0d0ff"/>
      <path id="Trazado_55960" data-name="Trazado 55960" d="M3642.849,2968.607c-3.175,3.828-7.325,6.953-11.9,7.685h0a8.523,8.523,0,0,1-1.132-5.108,10.228,10.228,0,0,1,1.666-4.69,10.38,10.38,0,0,0,.9-1.814c2.5-6.375,2.126-18.661,2.126-18.661s10.61,1.111,13.916,5.834C3650.448,2954.744,3647.866,2962.555,3642.849,2968.607Z" transform="translate(-3592.842 -2920.326)" fill="#b0d0ff"/>
      <path id="Trazado_55961" data-name="Trazado 55961" d="M3587.534,2905.862c-.8-.088-1.3-.19-1.3-.19-.9-.24-1.4-1.653-1.63-3.5a4.433,4.433,0,0,1,2.775,2.268A3.256,3.256,0,0,1,3587.534,2905.862Z" transform="translate(-3556.162 -2884.723)" fill="#e2915a"/>
      <path id="Trazado_55962" data-name="Trazado 55962" d="M3569.239,2909.718s-3.665-6.046-.815-6.31a4.31,4.31,0,0,1,4.406,2.374c.411.708-.108,3.9-.108,3.9Z" transform="translate(-3542.141 -2885.71)" fill="#ffb27d"/>
      <path id="Trazado_55963" data-name="Trazado 55963" d="M3587.888,2959.063a7.891,7.891,0,0,1-.625,2.1,10.052,10.052,0,0,1-2.333,3.214h0c-9.517-4.3-11.442-19.046-11.764-27.15-.13-3.258,0-5.442,0-5.442,4.293-1.421,5.5,1.048,5.5,1.048s5.069,12.054,7.7,19.932C3587.368,2955.777,3588.016,2958.181,3587.888,2959.063Z" transform="translate(-3546.824 -2908.41)" fill="#b0d0ff"/>
      <path id="Trazado_55964" data-name="Trazado 55964" d="M3597.08,2982.091c-3.175,3.828-7.325,6.953-11.9,7.685h0c-9.517-4.3-11.442-19.046-11.764-27.151,0,0,4.5,16.333,10.632,22.042a6.687,6.687,0,0,0,3.466,1.9s7.729-2.184,9.351-4.241A.875.875,0,0,1,3597.08,2982.091Z" transform="translate(-3547.073 -2933.81)" fill="#98baf4"/>
    </g>
    <g id="Grupo_26356" data-name="Grupo 26356" transform="translate(1731.832 2456.684)">
      <g id="Grupo_26355" data-name="Grupo 26355" transform="translate(0 0)">
        <path id="Trazado_55965" data-name="Trazado 55965" d="M2611.525,3224.022h-29.561l-8.893-22.113h29.515Z" transform="translate(-2573.072 -3201.909)" fill="#2b478b"/>
        <path id="Trazado_55966" data-name="Trazado 55966" d="M2618.515,3314.914h39.034v.861h-38.688Z" transform="translate(-2609.969 -3293.662)" fill="#2b478b"/>
      </g>
      <path id="Trazado_55967" data-name="Trazado 55967" d="M2659.791,3254.624a1.024,1.024,0,0,1,1-1.407,2.016,2.016,0,0,1,1.811,1.407,1.024,1.024,0,0,1-1,1.408A2.016,2.016,0,0,1,2659.791,3254.624Z" transform="translate(-2643.437 -3243.569)" fill="#fff"/>
    </g>
  </g>
</svg>
