<svg xmlns="http://www.w3.org/2000/svg" xmlns:xlink="http://www.w3.org/1999/xlink" width="236" height="236" viewBox="0 0 236 236">
  <defs>
    <radialGradient id="radial-gradient" cx="0.5" cy="0.5" r="0.5" gradientUnits="objectBoundingBox">
      <stop offset="0" stop-color="#fff"/>
      <stop offset="1" stop-color="#e7ecf0"/>
    </radialGradient>
    <filter id="Elipse_1446" x="0" y="0" width="236" height="236" filterUnits="userSpaceOnUse">
      <feOffset dy="3" input="SourceAlpha"/>
      <feGaussianBlur stdDeviation="3" result="blur"/>
      <feFlood flood-opacity="0.161"/>
      <feComposite operator="in" in2="blur"/>
      <feComposite in="SourceGraphic"/>
    </filter>
    <filter id="Rectángulo_5369" x="65" y="74.636" width="106" height="116.043" filterUnits="userSpaceOnUse">
      <feOffset dy="3" input="SourceAlpha"/>
      <feGaussianBlur stdDeviation="3" result="blur-2"/>
      <feFlood flood-opacity="0.161"/>
      <feComposite operator="in" in2="blur-2"/>
      <feComposite in="SourceGraphic"/>
    </filter>
  </defs>
  <g id="Grupo_26380" data-name="Grupo 26380" transform="translate(-568 -3037)">
    <g transform="matrix(1, 0, 0, 1, 568, 3037)" filter="url(#Elipse_1446)">
      <g id="Elipse_1446-2" data-name="Elipse 1446" transform="translate(9 6)" stroke="#fff" stroke-width="6" fill="url(#radial-gradient)">
        <circle cx="109" cy="109" r="109" stroke="none"/>
        <circle cx="109" cy="109" r="106" fill="none"/>
      </g>
    </g>
    <g id="Grupo_23541" data-name="Grupo 23541" transform="translate(642 3098.027)">
      <g id="Grupo_23516" data-name="Grupo 23516" transform="translate(0 19.609)">
        <g transform="matrix(1, 0, 0, 1, -74, -80.64)" filter="url(#Rectángulo_5369)">
          <rect id="Rectángulo_5369-2" data-name="Rectángulo 5369" width="88" height="98.043" transform="translate(74 80.64)" fill="#fff"/>
        </g>
      </g>
      <g id="Grupo_23517" data-name="Grupo 23517" transform="translate(0 0)">
        <path id="Trazado_51568" data-name="Trazado 51568" d="M1912.27,2732.6h-78.435a4.783,4.783,0,0,0-4.783,4.782v14.826h88v-14.826A4.783,4.783,0,0,0,1912.27,2732.6Z" transform="translate(-1829.053 -2732.604)" fill="#6e83b7"/>
      </g>
      <g id="Grupo_23518" data-name="Grupo 23518" transform="translate(69.587 6.217)">
        <circle id="Elipse_1315" data-name="Elipse 1315" cx="3.587" cy="3.587" r="3.587" transform="translate(0 0)" fill="#ffb0aa"/>
      </g>
      <g id="Grupo_23519" data-name="Grupo 23519" transform="translate(57.391 6.217)">
        <circle id="Elipse_1316" data-name="Elipse 1316" cx="3.587" cy="3.587" r="3.587" transform="translate(0 0)" fill="#ffe352"/>
      </g>
      <g id="Grupo_23520" data-name="Grupo 23520" transform="translate(45.196 6.217)">
        <circle id="Elipse_1317" data-name="Elipse 1317" cx="3.587" cy="3.587" r="3.587" transform="translate(0 0)" fill="#98ca69"/>
      </g>
      <g id="Grupo_23526" data-name="Grupo 23526" transform="translate(8.13 21.761)">
        <g id="Grupo_23521" data-name="Grupo 23521" transform="translate(4.783 40.174)">
          <rect id="Rectángulo_5370" data-name="Rectángulo 5370" width="11.957" height="19.13" fill="#ffb0aa"/>
        </g>
        <g id="Grupo_23522" data-name="Grupo 23522" transform="translate(21.522 25.826)">
          <rect id="Rectángulo_5371" data-name="Rectángulo 5371" width="11.957" height="33.478" fill="#ffe352"/>
        </g>
        <g id="Grupo_23523" data-name="Grupo 23523" transform="translate(38.261 35.391)">
          <rect id="Rectángulo_5372" data-name="Rectángulo 5372" width="11.957" height="23.913" fill="#80d6fb"/>
        </g>
        <g id="Grupo_23524" data-name="Grupo 23524" transform="translate(55 16.261)">
          <rect id="Rectángulo_5373" data-name="Rectángulo 5373" width="11.957" height="43.043" fill="#98ca69"/>
        </g>
        <g id="Grupo_23525" data-name="Grupo 23525" transform="translate(0 59.304)">
          <rect id="Rectángulo_5374" data-name="Rectángulo 5374" width="4.783" height="71.739" transform="translate(71.739 0) rotate(90)" fill="#6e83b7"/>
        </g>
        <path id="Trazado_51569" data-name="Trazado 51569" d="M1943.19,2818.39a3.574,3.574,0,0,0-3.472,4.473l-12.572,13.291a3.568,3.568,0,0,0-2.763.591l-11.14-4.615a3.583,3.583,0,0,0-7.072,1.156l-12.168,10.6a3.625,3.625,0,1,0,2.511,2.887l12.168-10.6a3.572,3.572,0,0,0,3.1-.507l11.14,4.615a3.584,3.584,0,1,0,7-1.494L1942.5,2825.5a3.587,3.587,0,1,0,.695-7.105Z" transform="translate(-1882.212 -2818.39)" fill="#6e83b7"/>
      </g>
      <g id="Grupo_23533" data-name="Grupo 23533" transform="translate(8.13 89.674)">
        <g id="Grupo_23527" data-name="Grupo 23527" transform="translate(9.565 0)">
          <rect id="Rectángulo_5375" data-name="Rectángulo 5375" width="4.783" height="19.13" transform="translate(19.13 0) rotate(90)" fill="#6e83b7"/>
        </g>
        <g id="Grupo_23528" data-name="Grupo 23528" transform="translate(0 0)">
          <rect id="Rectángulo_5376" data-name="Rectángulo 5376" width="4.783" height="4.783" transform="translate(4.783 0) rotate(90)" fill="#6e83b7"/>
        </g>
        <g id="Grupo_23529" data-name="Grupo 23529" transform="translate(9.565 9.565)">
          <rect id="Rectángulo_5377" data-name="Rectángulo 5377" width="4.783" height="19.13" transform="translate(19.13 0) rotate(90)" fill="#6e83b7"/>
        </g>
        <g id="Grupo_23530" data-name="Grupo 23530" transform="translate(0 9.565)">
          <rect id="Rectángulo_5378" data-name="Rectángulo 5378" width="4.783" height="4.783" transform="translate(4.783 0) rotate(90)" fill="#6e83b7"/>
        </g>
        <g id="Grupo_23531" data-name="Grupo 23531" transform="translate(9.565 19.13)">
          <rect id="Rectángulo_5379" data-name="Rectángulo 5379" width="4.783" height="19.13" transform="translate(19.13 0) rotate(90)" fill="#6e83b7"/>
        </g>
        <g id="Grupo_23532" data-name="Grupo 23532" transform="translate(0 19.13)">
          <rect id="Rectángulo_5380" data-name="Rectángulo 5380" width="4.783" height="4.783" transform="translate(4.783 0) rotate(90)" fill="#6e83b7"/>
        </g>
      </g>
      <g id="Grupo_23540" data-name="Grupo 23540" transform="translate(51.174 89.674)">
        <g id="Grupo_23534" data-name="Grupo 23534" transform="translate(9.565 0)">
          <rect id="Rectángulo_5381" data-name="Rectángulo 5381" width="4.783" height="19.13" transform="translate(19.13 0) rotate(90)" fill="#6e83b7"/>
        </g>
        <g id="Grupo_23535" data-name="Grupo 23535" transform="translate(0 0)">
          <rect id="Rectángulo_5382" data-name="Rectángulo 5382" width="4.783" height="4.783" transform="translate(4.783 0) rotate(90)" fill="#6e83b7"/>
        </g>
        <g id="Grupo_23536" data-name="Grupo 23536" transform="translate(9.565 9.565)">
          <rect id="Rectángulo_5383" data-name="Rectángulo 5383" width="4.783" height="19.13" transform="translate(19.13 0) rotate(90)" fill="#6e83b7"/>
        </g>
        <g id="Grupo_23537" data-name="Grupo 23537" transform="translate(0 9.565)">
          <rect id="Rectángulo_5384" data-name="Rectángulo 5384" width="4.783" height="4.783" transform="translate(4.783 0) rotate(90)" fill="#6e83b7"/>
        </g>
        <g id="Grupo_23538" data-name="Grupo 23538" transform="translate(9.565 19.13)">
          <rect id="Rectángulo_5385" data-name="Rectángulo 5385" width="4.783" height="19.13" transform="translate(19.13 0) rotate(90)" fill="#6e83b7"/>
        </g>
        <g id="Grupo_23539" data-name="Grupo 23539" transform="translate(0 19.13)">
          <rect id="Rectángulo_5386" data-name="Rectángulo 5386" width="4.783" height="4.783" transform="translate(4.783 0) rotate(90)" fill="#6e83b7"/>
        </g>
      </g>
    </g>
  </g>
</svg>
