<svg xmlns="http://www.w3.org/2000/svg" width="142.677" height="142.677" viewBox="0 0 142.677 142.677">
  <g id="Group_23485" data-name="Group 23485" transform="translate(-2404.101 -2732.604)">
    <g id="Group_23479" data-name="Group 23479" transform="translate(2404.101 2732.604)">
      <path id="Path_51558" data-name="Path 51558" d="M2409.9,2869.481V2732.6h-5.8v142.677h142.677v-5.8Z" transform="translate(-2404.101 -2732.604)" fill="#6e83b7"/>
    </g>
    <g id="Group_23480" data-name="Group 23480" transform="translate(2421.5 2782.483)">
      <path id="Path_51559" data-name="Path 51559" d="M2495.462,2916.208l-17.4-21.459-17.4,21.459h6.38v65.539h22.039v-65.539Z" transform="translate(-2460.663 -2894.749)" fill="#80d6fb"/>
    </g>
    <g id="Group_23481" data-name="Group 23481" transform="translate(2463.84 2803.942)">
      <path id="Path_51560" data-name="Path 51560" d="M2633.1,2985.968l-17.4-21.459-17.4,21.459h6.38v44.079h22.04v-44.079Z" transform="translate(-2598.297 -2964.508)" fill="#ffb0aa"/>
    </g>
    <g id="Group_23482" data-name="Group 23482" transform="translate(2506.178 2750.583)">
      <path id="Path_51561" data-name="Path 51561" d="M2770.731,2812.511l-17.4-21.459-17.4,21.459h6.38v97.438h22.04v-97.438Z" transform="translate(-2735.932 -2791.051)" fill="#98ca69"/>
    </g>
    <g id="Group_23484" data-name="Group 23484" transform="translate(2420.05 2732.604)">
      <g id="Group_23483" data-name="Group 23483" transform="translate(0 0)">
        <circle id="Ellipse_1314" data-name="Ellipse 1314" cx="18.85" cy="18.85" r="18.85" fill="#ffe352"/>
      </g>
      <path id="Path_51562" data-name="Path 51562" d="M2497.968,2757.812h-4.712a2.607,2.607,0,0,1,0-5.214h4.5a2.824,2.824,0,0,1,2.821,2.821h4.64a7.468,7.468,0,0,0-7.283-7.456v-2.825h-4.64v2.821h-.036a7.247,7.247,0,0,0,0,14.493h4.712a2.607,2.607,0,0,1,0,5.214h-4.5a2.824,2.824,0,0,1-2.821-2.821h-4.64a7.468,7.468,0,0,0,7.283,7.456v2.825h4.64v-2.821h.036a7.247,7.247,0,1,0,0-14.493Z" transform="translate(-2476.762 -2741.282)" fill="#6e83b7"/>
    </g>
  </g>
</svg>
