<svg xmlns="http://www.w3.org/2000/svg" width="122.667" height="150.88" viewBox="0 0 122.667 150.88">
  <g id="Group_23515" data-name="Group 23515" transform="translate(-1180.474 -1465.613)">
    <g id="Group_23486" data-name="Group 23486" transform="translate(1180.474 1465.613)">
      <path id="Path_51563" data-name="Path 51563" d="M1293.327,1616.493H1180.474V1490.146l24.533-24.533h88.32Z" transform="translate(-1180.474 -1465.613)" fill="#edeff1"/>
    </g>
    <g id="Group_23487" data-name="Group 23487" transform="translate(1180.474 1465.613)">
      <path id="Path_51564" data-name="Path 51564" d="M1205.007,1490.146h-24.533l24.533-24.533Z" transform="translate(-1180.474 -1465.613)" fill="#d3d3d3"/>
    </g>
    <g id="Group_23501" data-name="Group 23501" transform="translate(1192.741 1484.626)">
      <g id="Group_23493" data-name="Group 23493" transform="translate(0 26.373)">
        <g id="Group_23488" data-name="Group 23488" transform="translate(23.307 0)">
          <rect id="Rectangle_5352" data-name="Rectangle 5352" width="6.133" height="26.987" transform="translate(26.987 0) rotate(90)" fill="#6e83b7"/>
        </g>
        <g id="Group_23489" data-name="Group 23489" transform="translate(0 0)">
          <rect id="Rectangle_5353" data-name="Rectangle 5353" width="6.133" height="17.173" transform="translate(17.173) rotate(90)" fill="#6e83b7"/>
        </g>
        <g id="Group_23490" data-name="Group 23490" transform="translate(0 12.267)">
          <rect id="Rectangle_5354" data-name="Rectangle 5354" width="6.133" height="38.947" transform="translate(38.947 0) rotate(90)" fill="#6e83b7"/>
        </g>
        <g id="Group_23491" data-name="Group 23491" transform="translate(23.307 24.533)">
          <rect id="Rectangle_5355" data-name="Rectangle 5355" width="6.133" height="20.853" transform="translate(20.853 0) rotate(90)" fill="#6e83b7"/>
        </g>
        <g id="Group_23492" data-name="Group 23492" transform="translate(0 24.533)">
          <rect id="Rectangle_5356" data-name="Rectangle 5356" width="6.133" height="17.173" transform="translate(17.173 0) rotate(90)" fill="#6e83b7"/>
        </g>
      </g>
      <g id="Group_23498" data-name="Group 23498" transform="translate(44.16 26.373)">
        <g id="Group_23494" data-name="Group 23494" transform="translate(13.493 0)">
          <rect id="Rectangle_5357" data-name="Rectangle 5357" width="6.133" height="30.667" transform="translate(30.667) rotate(90)" fill="#6e83b7"/>
        </g>
        <g id="Group_23495" data-name="Group 23495" transform="translate(22.693 12.267)">
          <rect id="Rectangle_5358" data-name="Rectangle 5358" width="6.133" height="21.467" transform="translate(21.467 0) rotate(90)" fill="#6e83b7"/>
        </g>
        <g id="Group_23496" data-name="Group 23496" transform="translate(0 12.267)">
          <rect id="Rectangle_5359" data-name="Rectangle 5359" width="6.133" height="16.56" transform="translate(16.56 0) rotate(90)" fill="#6e83b7"/>
        </g>
        <g id="Group_23497" data-name="Group 23497" transform="translate(7.36 24.533)">
          <rect id="Rectangle_5360" data-name="Rectangle 5360" width="6.133" height="36.8" transform="translate(36.8 0) rotate(90)" fill="#6e83b7"/>
        </g>
      </g>
      <g id="Group_23499" data-name="Group 23499" transform="translate(12.267 15.333)">
        <rect id="Rectangle_5361" data-name="Rectangle 5361" width="6.133" height="76.053" transform="translate(76.053 0) rotate(90)" fill="#6e83b7"/>
      </g>
      <g id="Group_23500" data-name="Group 23500" transform="translate(28.827 0)">
        <rect id="Rectangle_5362" data-name="Rectangle 5362" width="6.133" height="42.933" transform="translate(42.933) rotate(90)" fill="#6e83b7"/>
      </g>
    </g>
    <g id="Group_23502" data-name="Group 23502" transform="translate(1192.741 1548.106)">
      <rect id="Rectangle_5363" data-name="Rectangle 5363" width="10.427" height="6.133" transform="translate(0 0)" fill="#6e83b7"/>
    </g>
    <g id="Group_23504" data-name="Group 23504" transform="translate(1209.301 1548.106)">
      <g id="Group_23503" data-name="Group 23503" transform="translate(0 0)">
        <rect id="Rectangle_5364" data-name="Rectangle 5364" width="32.507" height="6.133" fill="#6e83b7"/>
      </g>
    </g>
    <g id="Group_23506" data-name="Group 23506" transform="translate(1209.301 1561.6)">
      <g id="Group_23505" data-name="Group 23505" transform="translate(0)">
        <rect id="Rectangle_5365" data-name="Rectangle 5365" width="32.507" height="6.133" fill="#6e83b7"/>
      </g>
    </g>
    <g id="Group_23508" data-name="Group 23508" transform="translate(1209.301 1575.093)">
      <g id="Group_23507" data-name="Group 23507" transform="translate(0 0)">
        <rect id="Rectangle_5366" data-name="Rectangle 5366" width="32.507" height="6.133" fill="#6e83b7"/>
      </g>
    </g>
    <g id="Group_23509" data-name="Group 23509" transform="translate(1192.741 1575.093)">
      <rect id="Rectangle_5367" data-name="Rectangle 5367" width="10.427" height="6.133" transform="translate(0 0)" fill="#6e83b7"/>
    </g>
    <g id="Group_23510" data-name="Group 23510" transform="translate(1192.741 1561.6)">
      <rect id="Rectangle_5368" data-name="Rectangle 5368" width="10.427" height="6.133" transform="translate(0)" fill="#6e83b7"/>
    </g>
    <g id="Group_23514" data-name="Group 23514" transform="translate(1247.941 1534)">
      <g id="Group_23511" data-name="Group 23511" transform="translate(0)">
        <path id="Path_51565" data-name="Path 51565" d="M1415.468,1746.369l17.281-8.449a18.4,18.4,0,0,0,10.319-16.53v-33.9c-19.627-1.227-27.6-11.653-27.6-11.653s-7.974,10.427-27.6,11.653v33.9a18.4,18.4,0,0,0,10.319,16.53Z" transform="translate(-1387.868 -1675.835)" fill="#ffe352"/>
      </g>
      <g id="Group_23512" data-name="Group 23512" transform="translate(6.133 8.335)">
        <path id="Path_51566" data-name="Path 51566" d="M1413.6,1749.7a12.343,12.343,0,0,1-6.879-11.02v-28.41a47.092,47.092,0,0,0,21.467-8.809,47.089,47.089,0,0,0,21.467,8.809v28.41a12.343,12.343,0,0,1-6.879,11.02l-14.587,7.132Z" transform="translate(-1406.722 -1701.456)" fill="#ffb236"/>
      </g>
      <g id="Group_23513" data-name="Group 23513" transform="translate(18.4 20.687)">
        <path id="Path_51567" data-name="Path 51567" d="M1462.83,1748.628a9.2,9.2,0,1,0-14.932,7.194l-2.854,14.273h17.173l-2.855-14.273A9.181,9.181,0,0,0,1462.83,1748.628Z" transform="translate(-1444.43 -1739.428)" fill="#6e83b7"/>
      </g>
    </g>
  </g>
</svg>
