<svg xmlns="http://www.w3.org/2000/svg" width="320.383" height="325.619" viewBox="0 0 320.383 325.619">
  <g id="Group_23120" data-name="Group 23120" transform="translate(-655.446 -265.484)">
    <g id="Group_23068" data-name="Group 23068" transform="translate(655.446 295.707)">
      <g id="Group_23067" data-name="Group 23067" transform="translate(38.618 30.694)">
        <g id="Group_23066" data-name="Group 23066">
          <g id="Group_23065" data-name="Group 23065">
            <g id="Group_23064" data-name="Group 23064">
              <g id="Group_23063" data-name="Group 23063">
                <g id="Group_23062" data-name="Group 23062">
                  <g id="Group_23061" data-name="Group 23061">
                    <g id="Group_23060" data-name="Group 23060">
                      <circle id="Ellipse_1258" data-name="Ellipse 1258" cx="113.04" cy="113.04" r="113.04" fill="#fec558"/>
                    </g>
                  </g>
                </g>
              </g>
            </g>
          </g>
        </g>
      </g>
      <path id="Path_50939" data-name="Path 50939" d="M1485.225,423.088a1.877,1.877,0,0,1-1.338-.558c-3.481-3.51-7.179-6.883-10.991-10.026a1.884,1.884,0,0,1,2.4-2.907c3.909,3.223,7.7,6.682,11.269,10.28a1.884,1.884,0,0,1-1.338,3.211Zm-23.22-19.143a1.875,1.875,0,0,1-1.045-.318,148.48,148.48,0,0,0-12.766-7.635,1.884,1.884,0,0,1,1.769-3.327,152.267,152.267,0,0,1,13.091,7.83,1.884,1.884,0,0,1-1.049,3.45Zm-26.569-14.123a1.877,1.877,0,0,1-.711-.14c-2.687-1.1-5.443-2.127-8.189-3.062a1.884,1.884,0,1,1,1.214-3.567c2.817.959,5.643,2.015,8.4,3.14a1.884,1.884,0,0,1-.713,3.629Z" transform="translate(-1227.201 -382.952)" fill="#1d6487"/>
      <path id="Path_50940" data-name="Path 50940" d="M1778.487,945.386a1.885,1.885,0,0,1-1.743-2.6,147.267,147.267,0,0,0,4.934-14.031,1.884,1.884,0,1,1,3.614,1.068,151.133,151.133,0,0,1-5.06,14.391A1.885,1.885,0,0,1,1778.487,945.386Zm8.533-28.855a1.886,1.886,0,0,1-1.854-2.233,148.461,148.461,0,0,0,2.013-14.738,1.884,1.884,0,1,1,3.754.322,152.265,152.265,0,0,1-2.064,15.113A1.885,1.885,0,0,1,1787.02,916.531Zm2.576-29.982a1.884,1.884,0,0,1-1.884-1.858c-.067-4.956-.384-9.951-.941-14.849a1.884,1.884,0,1,1,3.744-.426c.571,5.021.9,10.143.966,15.223a1.884,1.884,0,0,1-1.858,1.91Z" transform="translate(-1488.151 -743.017)" fill="#1d6487"/>
      <path id="Path_50941" data-name="Path 50941" d="M1163.21,1498.51a1.884,1.884,0,0,1-.032-3.768c4.956-.086,9.951-.422,14.846-1a1.884,1.884,0,0,1,.44,3.742c-5.018.591-10.139.935-15.22,1.023Zm-15.057-.483c-.052,0-.1,0-.156-.007a152.227,152.227,0,0,1-15.122-2.008,1.884,1.884,0,1,1,.683-3.705,148.412,148.412,0,0,0,14.746,1.958,1.884,1.884,0,0,1-.152,3.762Zm44.944-3.039a1.884,1.884,0,0,1-.406-3.724,147.366,147.366,0,0,0,14.342-3.949,1.884,1.884,0,0,1,1.183,3.577,151,151,0,0,1-14.71,4.05A1.889,1.889,0,0,1,1193.1,1494.988Z" transform="translate(-1008.896 -1203.113)" fill="#1d6487"/>
      <path id="Path_50942" data-name="Path 50942" d="M664.922,679.576a1.885,1.885,0,0,1-1.787-1.29,151.145,151.145,0,0,1-4.074-14.7,1.884,1.884,0,1,1,3.678-.821A147.352,147.352,0,0,0,666.71,677.1a1.885,1.885,0,0,1-1.788,2.479Zm-6.56-29.372a1.884,1.884,0,0,1-1.868-1.661c-.6-5.019-.951-10.139-1.047-15.219a1.884,1.884,0,0,1,1.848-1.919h.036a1.884,1.884,0,0,1,1.883,1.848c.094,4.955.438,9.949,1.021,14.844a1.884,1.884,0,0,1-1.648,2.094A1.853,1.853,0,0,1,658.362,650.2Zm-.57-30.091q-.076,0-.153-.006a1.884,1.884,0,0,1-1.727-2.029,152.379,152.379,0,0,1,1.983-15.124,1.884,1.884,0,1,1,3.707.677,148.628,148.628,0,0,0-1.934,14.748A1.884,1.884,0,0,1,657.791,620.113Zm5.411-29.6a1.886,1.886,0,0,1-1.81-2.409,151.1,151.1,0,0,1,4.982-14.418,1.884,1.884,0,1,1,3.494,1.409,147.4,147.4,0,0,0-4.857,14.057A1.885,1.885,0,0,1,663.2,590.515Zm11.25-27.905a1.885,1.885,0,0,1-1.665-2.762,152.184,152.184,0,0,1,7.774-13.124,1.884,1.884,0,1,1,3.141,2.081,148.324,148.324,0,0,0-7.581,12.8A1.884,1.884,0,0,1,674.452,562.61Zm16.618-25.086a1.884,1.884,0,0,1-1.457-3.077c3.206-3.922,6.649-7.727,10.233-11.311a1.884,1.884,0,0,1,2.664,2.664c-3.5,3.5-6.853,7.207-9.98,11.032A1.88,1.88,0,0,1,691.07,537.524Z" transform="translate(-655.446 -486.66)" fill="#1d6487"/>
    </g>
    <g id="Group_23094" data-name="Group 23094" transform="translate(673.775 436.533)">
      <g id="Group_23083" data-name="Group 23083" transform="translate(0 0)">
        <g id="Group_23075" data-name="Group 23075" transform="translate(0 7.535)">
          <g id="Group_23069" data-name="Group 23069" transform="translate(20.003)">
            <ellipse id="Ellipse_1259" data-name="Ellipse 1259" cx="19.536" cy="19.962" rx="19.536" ry="19.962" transform="translate(1.884 1.884)" fill="#fff"/>
            <path id="Path_50943" data-name="Path 50943" d="M825.857,1003.3a21.85,21.85,0,1,1,21.42-21.846A21.66,21.66,0,0,1,825.857,1003.3Zm0-39.923a18.083,18.083,0,1,0,17.651,18.078A17.889,17.889,0,0,0,825.857,963.374Z" transform="translate(-804.437 -959.606)" fill="#1d6487"/>
          </g>
          <g id="Group_23074" data-name="Group 23074" transform="translate(0 51.372)">
            <g id="Group_23071" data-name="Group 23071">
              <g id="Group_23070" data-name="Group 23070">
                <path id="Path_50944" data-name="Path 50944" d="M812.941,1238.514l-.215-49.734c-.422-16.558-16.758-22.05-25.294-22.05h-.315l-27.942-.129c-.058,0-.119,0-.178,0l-.329.006c-13.714.31-24.774,11.216-24.654,24.311l.305,51.107h98.564" transform="translate(-732.128 -1164.718)" fill="#fff"/>
                <path id="Path_50945" data-name="Path 50945" d="M827.443,1238.471H728.879A1.884,1.884,0,0,1,727,1236.6l-.305-51.107c-.129-14.114,11.757-25.872,26.5-26.205l.5-.006h.058l27.942.129h.307a32.044,32.044,0,0,1,16.729,5.129,22.41,22.41,0,0,1,10.448,18.758c0,.013,0,.027,0,.04l.215,49.733a1.883,1.883,0,0,1-.935,1.636h18.993a1.884,1.884,0,1,1,0,3.768Zm-96.691-3.768h75.8a1.882,1.882,0,0,1-.935-1.62l-.215-49.712a18.5,18.5,0,0,0-8.76-15.692,28.066,28.066,0,0,0-14.65-4.5h-.306l-27.936-.129h-.128l-.363.006c-12.679.287-22.913,10.34-22.8,22.41Z" transform="translate(-726.689 -1159.279)" fill="#1d6487"/>
              </g>
            </g>
            <g id="Group_23072" data-name="Group 23072" transform="translate(18.095 25.816)">
              <line id="Line_162" data-name="Line 162" x1="0.034" y2="49.608" transform="translate(1.884 1.884)" fill="#fff"/>
              <path id="Path_50946" data-name="Path 50946" d="M798.906,1313h0a1.884,1.884,0,0,1-1.883-1.885l.034-49.608a1.884,1.884,0,0,1,1.884-1.883h0a1.884,1.884,0,0,1,1.883,1.885l-.034,49.608A1.884,1.884,0,0,1,798.906,1313Z" transform="translate(-797.022 -1259.62)" fill="#1d6487"/>
            </g>
            <g id="Group_23073" data-name="Group 23073" transform="translate(62.587 28.95)">
              <line id="Line_163" data-name="Line 163" y2="22.816" transform="translate(1.884 1.884)" fill="#fff"/>
              <path id="Path_50947" data-name="Path 50947" d="M971.835,1298.384a1.884,1.884,0,0,1-1.884-1.884v-22.816a1.884,1.884,0,0,1,3.768,0V1296.5A1.884,1.884,0,0,1,971.835,1298.384Z" transform="translate(-969.951 -1271.801)" fill="#1d6487"/>
            </g>
          </g>
        </g>
        <g id="Group_23082" data-name="Group 23082" transform="translate(51.032)">
          <g id="Group_23076" data-name="Group 23076" transform="translate(21.013)">
            <ellipse id="Ellipse_1260" data-name="Ellipse 1260" cx="20.522" cy="20.969" rx="20.522" ry="20.969" transform="translate(1.884 1.884)" fill="#fff"/>
            <path id="Path_50948" data-name="Path 50948" d="M1029.118,976.025a22.858,22.858,0,1,1,22.406-22.853A22.659,22.659,0,0,1,1029.118,976.025Zm0-41.939a19.091,19.091,0,1,0,18.638,19.085A18.887,18.887,0,0,0,1029.118,934.086Z" transform="translate(-1006.712 -930.318)" fill="#1d6487"/>
          </g>
          <g id="Group_23081" data-name="Group 23081" transform="translate(0 52.805)">
            <g id="Group_23078" data-name="Group 23078">
              <g id="Group_23077" data-name="Group 23077">
                <path id="Path_50949" data-name="Path 50949" d="M932.685,1224.411l-.321-55.981c-.126-13.756,11.493-25.213,25.9-25.538l.346-.006c.063,0,.127,0,.187,0l29.352.136h.331c8.967,0,26.128,5.769,26.57,23.163l.226,58.228Z" transform="translate(-930.479 -1141.001)" fill="#fff"/>
                <path id="Path_50950" data-name="Path 50950" d="M1009.837,1220.856H927.246a1.884,1.884,0,0,1-1.884-1.873L925.041,1163c-.135-14.774,12.309-27.083,27.74-27.432l.525-.007h.059l29.352.136h.322a33.562,33.562,0,0,1,17.521,5.372,23.449,23.449,0,0,1,10.932,19.628c0,.014,0,.027,0,.041l.226,58.228a1.884,1.884,0,0,1-1.884,1.891Zm-80.718-3.768h78.826l-.218-56.316a19.529,19.529,0,0,0-9.244-16.561,29.581,29.581,0,0,0-15.442-4.746h-.322l-29.345-.136h-.136l-.381.006c-13.371.3-24.163,10.906-24.047,23.637Z" transform="translate(-925.04 -1135.561)" fill="#1d6487"/>
              </g>
            </g>
            <g id="Group_23079" data-name="Group 23079" transform="translate(19.007 27.119)">
              <line id="Line_164" data-name="Line 164" x1="0.038" y2="54.407" transform="translate(1.884 1.884)" fill="#fff"/>
              <path id="Path_50951" data-name="Path 50951" d="M1000.8,1299.143h0a1.884,1.884,0,0,1-1.883-1.885l.038-54.407a1.884,1.884,0,0,1,1.884-1.883h0a1.884,1.884,0,0,1,1.882,1.885l-.038,54.407A1.884,1.884,0,0,1,1000.8,1299.143Z" transform="translate(-998.916 -1240.968)" fill="#1d6487"/>
            </g>
            <g id="Group_23080" data-name="Group 23080" transform="translate(65.746 27.119)">
              <line id="Line_165" data-name="Line 165" y2="54.407" transform="translate(1.884 1.884)" fill="#fff"/>
              <path id="Path_50952" data-name="Path 50952" d="M1182.466,1299.143a1.884,1.884,0,0,1-1.884-1.884v-54.407a1.884,1.884,0,0,1,3.768,0v54.407A1.884,1.884,0,0,1,1182.466,1299.143Z" transform="translate(-1180.582 -1240.968)" fill="#1d6487"/>
            </g>
          </g>
        </g>
      </g>
      <g id="Group_23093" data-name="Group 23093" transform="translate(75.123 8.217)">
        <g id="Group_23092" data-name="Group 23092">
          <g id="Group_23090" data-name="Group 23090">
            <g id="Group_23087" data-name="Group 23087" transform="translate(61.637 74.656)">
              <g id="Group_23084" data-name="Group 23084" transform="translate(3.086 5.399)">
                <path id="Path_50953" data-name="Path 50953" d="M1306.321,1309.061l-5.341,4.523a2.67,2.67,0,0,1-3.815-.356l-18.993-23.439a2.8,2.8,0,0,1,.363-3.888l5.341-4.523a2.67,2.67,0,0,1,3.815.356l18.994,23.439A2.8,2.8,0,0,1,1306.321,1309.061Z" transform="translate(-1275.673 -1278.853)" fill="#c5fbfc"/>
                <path id="Path_50954" data-name="Path 50954" d="M1293.828,1310.669q-.214,0-.43-.02a4.534,4.534,0,0,1-3.12-1.673l-18.994-23.441a4.7,4.7,0,0,1,.609-6.511l5.341-4.523a4.554,4.554,0,0,1,6.5.607l18.994,23.44a4.7,4.7,0,0,1-.609,6.511h0l-5.341,4.523A4.535,4.535,0,0,1,1293.828,1310.669Zm-13.64-33.487a.793.793,0,0,0-.519.193l-5.341,4.523a.922.922,0,0,0-.118,1.262L1293.2,1306.6a.786.786,0,0,0,1.133.1l5.341-4.523a.923.923,0,0,0,.118-1.263L1280.8,1277.48a.792.792,0,0,0-.544-.3C1280.239,1277.183,1280.215,1277.182,1280.188,1277.182Zm20.708,26.439h0Z" transform="translate(-1270.249 -1273.413)" fill="#1d6487"/>
              </g>
              <g id="Group_23085" data-name="Group 23085" transform="translate(17.559 23.505)">
                <line id="Line_166" data-name="Line 166" y1="8.058" x2="9.516" transform="translate(1.884 1.884)" fill="#fff"/>
                <path id="Path_50955" data-name="Path 50955" d="M1328.385,1355.613a1.884,1.884,0,0,1-1.219-3.322l9.516-8.059a1.884,1.884,0,0,1,2.435,2.875l-9.516,8.058A1.877,1.877,0,0,1,1328.385,1355.613Z" transform="translate(-1326.5 -1343.787)" fill="#1d6487"/>
              </g>
              <g id="Group_23086" data-name="Group 23086">
                <line id="Line_167" data-name="Line 167" x1="6.736" y1="8.299" transform="translate(1.884 1.884)" fill="#fff"/>
                <path id="Path_50956" data-name="Path 50956" d="M1266.875,1264.5a1.882,1.882,0,0,1-1.464-.7l-6.736-8.3a1.884,1.884,0,1,1,2.926-2.375l6.736,8.3a1.884,1.884,0,0,1-1.461,3.071Z" transform="translate(-1258.253 -1252.429)" fill="#1d6487"/>
              </g>
            </g>
            <g id="Group_23088" data-name="Group 23088" transform="translate(1.634 1.567)">
              <path id="Path_50957" data-name="Path 50957" d="M1074.974,975.841c-21.4-2-40.4,14.093-42.443,35.942s13.651,41.183,35.051,43.182,40.4-14.093,42.443-35.942S1096.373,977.84,1074.974,975.841Zm-6.271,67.126c-14.91-1.393-25.843-14.863-24.421-30.086s14.662-26.435,29.572-25.042,25.843,14.863,24.421,30.086S1083.612,1044.361,1068.7,1042.968Z" transform="translate(-1030.469 -973.788)" fill="#fff"/>
              <path id="Path_50958" data-name="Path 50958" d="M1065.721,1051.575q-1.862,0-3.752-.175c-22.4-2.093-38.886-22.384-36.751-45.233a41.771,41.771,0,0,1,14.621-28.177,40.235,40.235,0,0,1,57.477,5.37,41.772,41.772,0,0,1,9.148,30.4C1104.449,1035.321,1086.557,1051.575,1065.721,1051.575Zm.205-79.46a36.426,36.426,0,0,0-23.653,8.75,38.024,38.024,0,0,0-13.3,25.652c-1.941,20.78,13.019,39.231,33.35,41.131s38.451-13.461,40.392-34.242a38.025,38.025,0,0,0-8.322-27.672,36.391,36.391,0,0,0-25.028-13.459h0Q1067.638,972.114,1065.926,972.115Zm-.138,67.413q-1.344,0-2.7-.126c-15.92-1.487-27.638-15.9-26.122-32.137a29.674,29.674,0,0,1,10.386-20.015,28.6,28.6,0,0,1,40.858,3.817,29.982,29.982,0,0,1-3.887,41.607A28.551,28.551,0,0,1,1065.788,1039.527Zm.114-55.364a24.813,24.813,0,0,0-16.112,5.961,25.925,25.925,0,0,0-9.07,17.489c-1.323,14.165,8.869,26.741,22.72,28.035a24.785,24.785,0,0,0,18.451-5.852,26.213,26.213,0,0,0,3.4-36.356,24.788,24.788,0,0,0-17.047-9.168C1067.459,984.2,1066.678,984.164,1065.9,984.164Z" transform="translate(-1025.032 -968.346)" fill="#1d6487"/>
            </g>
            <g id="Group_23089" data-name="Group 23089">
              <ellipse id="Ellipse_1261" data-name="Ellipse 1261" cx="39.734" cy="38.916" rx="39.734" ry="38.916" transform="translate(0 79.124) rotate(-84.663)" fill="#fff"/>
              <path id="Path_50959" data-name="Path 50959" d="M1065.715,1051.574q-1.862,0-3.752-.175a40.131,40.131,0,0,1-27.6-14.836,42.211,42.211,0,0,1,5.472-58.574,40.235,40.235,0,0,1,57.477,5.37,41.772,41.772,0,0,1,9.148,30.4C1104.443,1035.321,1086.551,1051.574,1065.715,1051.574Zm.205-79.46a36.427,36.427,0,0,0-23.653,8.75,38.444,38.444,0,0,0-4.982,53.324,36.391,36.391,0,0,0,25.028,13.458c20.332,1.9,38.45-13.461,40.392-34.242a38.024,38.024,0,0,0-8.322-27.672,36.391,36.391,0,0,0-25.028-13.459Q1067.632,972.113,1065.92,972.114Z" transform="translate(-1023.392 -966.779)" fill="#1d6487"/>
            </g>
          </g>
          <g id="Group_23091" data-name="Group 23091" transform="translate(12.784 13.087)">
            <ellipse id="Ellipse_1262" data-name="Ellipse 1262" cx="27.684" cy="27.202" rx="27.684" ry="27.202" transform="matrix(0.093, -0.996, 0.996, 0.093, 0, 55.128)" fill="#c5fbfc"/>
            <path id="Path_50960" data-name="Path 50960" d="M1099.6,1074.313q-1.333,0-2.684-.125c-15.968-1.492-27.726-15.912-26.209-32.145s15.744-28.225,31.71-26.734a28.658,28.658,0,0,1,19.683,10.549,29.626,29.626,0,0,1,6.527,21.6l-1.876-.175,1.876.175A29.427,29.427,0,0,1,1099.6,1074.313Zm.136-55.362a25.651,25.651,0,0,0-25.278,23.442c-1.323,14.165,8.908,26.745,22.808,28.043.781.073,1.56.109,2.33.109a25.65,25.65,0,0,0,25.278-23.442h0a25.876,25.876,0,0,0-5.7-18.867,24.917,24.917,0,0,0-17.111-9.176C1101.285,1018.986,1100.506,1018.95,1099.736,1018.95Z" transform="translate(-1070.007 -1014.652)" fill="#1d6487"/>
          </g>
        </g>
      </g>
    </g>
    <g id="Group_23108" data-name="Group 23108" transform="translate(850.144 344.753)">
      <g id="Group_23096" data-name="Group 23096" transform="translate(61.422 0)">
        <g id="Group_23095" data-name="Group 23095">
          <path id="Path_50961" data-name="Path 50961" d="M1708.823,633.776l6.293-7.917a1.209,1.209,0,0,0-.194-1.7l-4.19-3.331a1.146,1.146,0,0,1-.347-1.313,23.223,23.223,0,0,0,1.088-3.8,1.145,1.145,0,0,1,.989-.93l4.393-.5a2.142,2.142,0,0,0,1.884-2.371l-1.042-9.122a1.21,1.21,0,0,0-1.339-1.065l-5.318.608a1.146,1.146,0,0,1-1.174-.683,23.2,23.2,0,0,0-1.918-3.46,1.146,1.146,0,0,1,.041-1.357l3.331-4.19a1.209,1.209,0,0,0-.194-1.7l-7.917-6.293a1.209,1.209,0,0,0-1.7.194l-3.33,4.19a1.146,1.146,0,0,1-1.313.347,23.179,23.179,0,0,0-3.8-1.088,1.146,1.146,0,0,1-.93-.989l-.608-5.318a1.21,1.21,0,0,0-1.339-1.064l-10.048,1.148a1.21,1.21,0,0,0-1.065,1.339l.608,5.318A1.146,1.146,0,0,1,1679,589.9a23.226,23.226,0,0,0-3.46,1.918,1.146,1.146,0,0,1-1.357-.041l-4.19-3.331a1.21,1.21,0,0,0-1.7.194L1662,596.555a1.21,1.21,0,0,0,.194,1.7l4.19,3.33a1.146,1.146,0,0,1,.347,1.313,23.213,23.213,0,0,0-1.088,3.8,1.146,1.146,0,0,1-.989.93l-5.318.608a1.21,1.21,0,0,0-1.065,1.339l1.148,10.048a1.21,1.21,0,0,0,1.339,1.064l5.318-.608a1.145,1.145,0,0,1,1.174.683,23.229,23.229,0,0,0,1.918,3.46,1.146,1.146,0,0,1-.041,1.357l-3.331,4.19a1.21,1.21,0,0,0,.194,1.7l7.917,6.293a1.21,1.21,0,0,0,1.7-.194l3.33-4.19a1.146,1.146,0,0,1,1.313-.347,23.211,23.211,0,0,0,3.8,1.088,1.145,1.145,0,0,1,.93.989l.608,5.318a1.21,1.21,0,0,0,1.339,1.065l10.048-1.148a1.21,1.21,0,0,0,1.065-1.339l-.608-5.318a1.146,1.146,0,0,1,.683-1.174,23.178,23.178,0,0,0,3.46-1.918,1.146,1.146,0,0,1,1.357.041l4.19,3.33A1.21,1.21,0,0,0,1708.823,633.776Zm-26.784-14.369a10.475,10.475,0,1,1,14.718-1.682A10.475,10.475,0,0,1,1682.039,619.407Z" transform="translate(-1656.376 -579.026)" fill="#c5fbfc"/>
          <path id="Path_50962" data-name="Path 50962" d="M1681.346,637.948a3.095,3.095,0,0,1-3.068-2.743l-.546-4.78a25.147,25.147,0,0,1-3.1-.887l-2.993,3.766a3.094,3.094,0,0,1-4.347.5l-7.918-6.293a3.1,3.1,0,0,1-.5-4.346l2.993-3.766a25.183,25.183,0,0,1-1.563-2.819l-4.78.546a3.1,3.1,0,0,1-3.425-2.722l-1.148-10.048a3.094,3.094,0,0,1,2.722-3.425l4.78-.546a25.214,25.214,0,0,1,.886-3.1l-3.766-2.993a3.094,3.094,0,0,1-.5-4.347l6.293-7.917a3.1,3.1,0,0,1,4.347-.5l3.766,2.993a25.245,25.245,0,0,1,2.818-1.563l-.546-4.78a3.093,3.093,0,0,1,2.722-3.425l10.049-1.148a3.094,3.094,0,0,1,3.425,2.723l.546,4.78a25.25,25.25,0,0,1,3.1.887l2.993-3.766a3.094,3.094,0,0,1,4.347-.5l7.917,6.293a3.1,3.1,0,0,1,.5,4.346l-2.994,3.766a25.161,25.161,0,0,1,1.563,2.818l4.78-.546a3.094,3.094,0,0,1,3.425,2.722l1.042,9.123a4.025,4.025,0,0,1-3.542,4.456l-3.854.44a25.218,25.218,0,0,1-.886,3.1l3.766,2.993a3.094,3.094,0,0,1,.5,4.347l-6.293,7.917h0a3.1,3.1,0,0,1-4.346.5l-3.766-2.993a25.123,25.123,0,0,1-2.818,1.563l.546,4.78a3.1,3.1,0,0,1-2.722,3.425l-10.049,1.148A3.09,3.09,0,0,1,1681.346,637.948Zm-6.965-12.317a3.081,3.081,0,0,1,1.1.2,21.377,21.377,0,0,0,3.495,1,3.022,3.022,0,0,1,2.44,2.625l.531,4.648,8.708-1-.531-4.649a3.022,3.022,0,0,1,1.785-3.107,21.406,21.406,0,0,0,3.179-1.763,3.023,3.023,0,0,1,3.58.13l3.662,2.911,5.454-6.861-3.662-2.911a3.022,3.022,0,0,1-.934-3.459,21.4,21.4,0,0,0,1-3.494,3.023,3.023,0,0,1,2.624-2.44l4.393-.5a.257.257,0,0,0,.226-.285l-.966-8.453-4.649.531a3.025,3.025,0,0,1-3.107-1.785,21.383,21.383,0,0,0-1.762-3.178,3.024,3.024,0,0,1,.13-3.58l2.911-3.662-6.861-5.454-2.911,3.662a3.022,3.022,0,0,1-3.459.935,21.409,21.409,0,0,0-3.494-1,3.023,3.023,0,0,1-2.44-2.624l-.531-4.649-8.708,1,.531,4.648a3.022,3.022,0,0,1-1.785,3.107,21.4,21.4,0,0,0-3.179,1.762,3.023,3.023,0,0,1-3.58-.13l-3.662-2.911-5.454,6.861,3.662,2.911a3.023,3.023,0,0,1,.935,3.459,21.336,21.336,0,0,0-1,3.494,3.023,3.023,0,0,1-2.624,2.44l-4.649.531,1,8.708,4.649-.531a3.025,3.025,0,0,1,3.107,1.785,21.332,21.332,0,0,0,1.763,3.179,3.024,3.024,0,0,1-.13,3.58l-2.911,3.662,6.861,5.454,2.911-3.662A3.006,3.006,0,0,1,1674.381,625.631Zm29,2.7h0Zm-1.473-1.174v0Zm-18.817-9.034a12.388,12.388,0,1,1,1.428-.082A12.593,12.593,0,0,1,1683.093,618.128Zm.033-20.948a8.583,8.583,0,1,0,5.337,1.862A8.579,8.579,0,0,0,1683.126,597.18Z" transform="translate(-1650.936 -573.586)" fill="#1d6487"/>
        </g>
      </g>
      <g id="Group_23097" data-name="Group 23097" transform="translate(18.625 25.786)">
        <ellipse id="Ellipse_1263" data-name="Ellipse 1263" cx="16.894" cy="16.955" rx="16.894" ry="16.955" transform="translate(1.884 1.884)" fill="#fff"/>
        <path id="Path_50963" data-name="Path 50963" d="M1503.369,711.488a18.839,18.839,0,1,1,18.778-18.839A18.829,18.829,0,0,1,1503.369,711.488Zm0-33.91a15.071,15.071,0,1,0,15.01,15.071A15.057,15.057,0,0,0,1503.369,677.578Z" transform="translate(-1484.592 -673.81)" fill="#1d6487"/>
      </g>
      <g id="Group_23103" data-name="Group 23103" transform="translate(0 66.92)">
        <g id="Group_23099" data-name="Group 23099">
          <g id="Group_23098" data-name="Group 23098">
            <path id="Path_50964" data-name="Path 50964" d="M1487.592,859.851c-.39-9.373-9.273-18.838-21.873-18.729h-.272l-24.163-.11c-.05,0-.1,0-.154,0l-.285,0c-11.859.263-21.423,9.527-21.32,20.649l.456,49.269c.039,4.193,3.783,7.56,8.253,7.526a8.314,8.314,0,0,0,6.907-3.639v62.855c0,5.424,3.717,9.789,9.626,9.823,7.985.047,9.306-8.253,9.306-8.253s1.422,7.381,8.633,8.276c5.848.726,10.94-3.029,10.94-8.5V916.286a8.445,8.445,0,0,0,6.077,2.521h.047c4.519-.024,8.162-3.442,8.136-7.634Z" transform="translate(-1417.64 -839.129)" fill="#fff"/>
            <path id="Path_50965" data-name="Path 50965" d="M1458.705,984.059a13.539,13.539,0,0,1-1.671-.1,11.5,11.5,0,0,1-8.308-5.228,10.559,10.559,0,0,1-9.332,5.22h-.078a11.267,11.267,0,0,1-11.5-11.708v-58.63a10.5,10.5,0,0,1-5.008,1.3h-.084c-5.512,0-10.02-4.2-10.067-9.393l-.456-49.269c-.113-12.148,10.278-22.264,23.162-22.55l.434-.006h.056l24.163.11h.476a24.389,24.389,0,0,1,16.576,6.3,20.834,20.834,0,0,1,6.967,14.231c0,.022,0,.044,0,.067l.314,51.322a9.135,9.135,0,0,1-2.959,6.766,10.333,10.333,0,0,1-7.051,2.764h-.057a10.561,10.561,0,0,1-4.193-.868v59.2a10,10,0,0,1-3.427,7.588A11.969,11.969,0,0,1,1458.705,984.059Zm-10.073-12.129a1.881,1.881,0,0,1,1.85,1.524c.049.239,1.29,6.052,7.016,6.763a8.455,8.455,0,0,0,6.67-1.869,6.205,6.205,0,0,0,2.154-4.764V910.847a1.884,1.884,0,0,1,3.236-1.312,6.6,6.6,0,0,0,4.724,1.949h.047a6.571,6.571,0,0,0,4.483-1.744,5.406,5.406,0,0,0,1.769-3.995l-.314-51.287a17.059,17.059,0,0,0-5.747-11.578,20.707,20.707,0,0,0-14.225-5.313h-.279l-24.159-.11c-.036,0-.074,0-.109,0l-.313,0c-10.824.241-19.562,8.651-19.468,18.748l.456,49.269c.029,3.131,2.85,5.659,6.3,5.659h.055a6.407,6.407,0,0,0,5.349-2.792,1.884,1.884,0,0,1,3.457,1.037v62.855a7.537,7.537,0,0,0,7.754,7.94h.053c6.189,0,7.336-6.4,7.382-6.673a1.888,1.888,0,0,1,1.836-1.576Z" transform="translate(-1412.2 -833.69)" fill="#1d6487"/>
          </g>
        </g>
        <g id="Group_23100" data-name="Group 23100" transform="translate(15.617 24.589)">
          <line id="Line_168" data-name="Line 168" x1="0.061" y2="49.221" transform="translate(1.884 1.884)" fill="#fff"/>
          <path id="Path_50966" data-name="Path 50966" d="M1474.783,982.251h0a1.884,1.884,0,0,1-1.882-1.886l.061-49.221a1.884,1.884,0,0,1,1.884-1.882h0a1.884,1.884,0,0,1,1.881,1.886l-.061,49.222A1.884,1.884,0,0,1,1474.783,982.251Z" transform="translate(-1472.899 -929.262)" fill="#1d6487"/>
        </g>
        <g id="Group_23101" data-name="Group 23101" transform="translate(54.122 24.589)">
          <line id="Line_169" data-name="Line 169" y2="50.684" transform="translate(1.884 1.884)" fill="#fff"/>
          <path id="Path_50967" data-name="Path 50967" d="M1624.447,983.715a1.884,1.884,0,0,1-1.884-1.884V931.146a1.884,1.884,0,1,1,3.768,0v50.684A1.884,1.884,0,0,1,1624.447,983.715Z" transform="translate(-1622.563 -929.262)" fill="#1d6487"/>
        </g>
        <g id="Group_23102" data-name="Group 23102" transform="translate(34.549 73.031)">
          <line id="Line_170" data-name="Line 170" y2="65.204" transform="translate(1.884 1.884)" fill="#fff"/>
          <path id="Path_50968" data-name="Path 50968" d="M1548.368,1186.52a1.884,1.884,0,0,1-1.884-1.884v-65.2a1.884,1.884,0,1,1,3.768,0v65.2A1.884,1.884,0,0,1,1548.368,1186.52Z" transform="translate(-1546.484 -1117.548)" fill="#1d6487"/>
        </g>
      </g>
      <g id="Group_23107" data-name="Group 23107" transform="translate(43.411 137.748)">
        <g id="Group_23104" data-name="Group 23104" transform="translate(0.001 7.327)">
          <rect id="Rectangle_5304" data-name="Rectangle 5304" width="36.022" height="27.705" rx="5.405" transform="translate(1.884 1.884)" fill="#fff"/>
          <path id="Path_50969" data-name="Path 50969" d="M1617.447,1168.938h-33.24a3.279,3.279,0,0,1-3.275-3.275v-24.924a3.279,3.279,0,0,1,3.275-3.275h33.24a3.278,3.278,0,0,1,3.275,3.275v24.924A3.279,3.279,0,0,1,1617.447,1168.938Zm-32.747-3.768h32.254v-23.937H1584.7Z" transform="translate(-1580.932 -1137.464)" fill="#1d6487"/>
        </g>
        <g id="Group_23105" data-name="Group 23105" transform="translate(0 11.804)">
          <path id="Path_50970" data-name="Path 50970" d="M1624.277,1162.191l-3.708,7.657-.724,1.578a6.606,6.606,0,0,1-5.983,3.926h-15.191a6.6,6.6,0,0,1-5.967-3.891l-.757-1.648-3.691-7.622" transform="translate(-1586.37 -1160.307)" fill="#fff"/>
          <path id="Path_50971" data-name="Path 50971" d="M1608.421,1171.8H1593.23a8.525,8.525,0,0,1-7.677-4.984l-.751-1.635-3.683-7.6a1.884,1.884,0,1,1,3.391-1.642l3.691,7.622.016.035.757,1.648a4.744,4.744,0,0,0,4.255,2.794h15.191a4.744,4.744,0,0,0,4.269-2.824l.726-1.583.017-.035,3.708-7.657a1.884,1.884,0,1,1,3.391,1.642l-3.7,7.639-.717,1.561A8.518,8.518,0,0,1,1608.421,1171.8Z" transform="translate(-1580.93 -1154.867)" fill="#1d6487"/>
        </g>
        <g id="Group_23106" data-name="Group 23106" transform="translate(10.666)">
          <path id="Rectangle_5305" data-name="Rectangle 5305" d="M5.2,0h3.9a5.2,5.2,0,0,1,5.2,5.2V7.328a0,0,0,0,1,0,0H0a0,0,0,0,1,0,0V5.2A5.2,5.2,0,0,1,5.2,0Z" transform="translate(1.884 1.884)" fill="#fff"/>
          <path id="Path_50972" data-name="Path 50972" d="M1638.576,1120.081H1624.27a1.884,1.884,0,0,1-1.884-1.884v-5.99a3.226,3.226,0,0,1,3.222-3.222h11.63a3.226,3.226,0,0,1,3.222,3.222v5.99A1.884,1.884,0,0,1,1638.576,1120.081Zm-12.422-3.768h10.538v-3.56h-10.538Z" transform="translate(-1622.386 -1108.985)" fill="#1d6487"/>
        </g>
      </g>
    </g>
    <g id="Group_23119" data-name="Group 23119" transform="translate(705.429 265.484)">
      <g id="Group_23109" data-name="Group 23109" transform="translate(0 0)">
        <circle id="Ellipse_1264" data-name="Ellipse 1264" cx="57.007" cy="57.007" r="57.007" transform="translate(0 80.62) rotate(-45)" fill="#fff"/>
        <path id="Path_50973" data-name="Path 50973" d="M993.071,467.723a58.891,58.891,0,1,1,41.642-17.249A58.506,58.506,0,0,1,993.071,467.723Zm0-114.014a55.123,55.123,0,1,0,38.978,16.145A54.762,54.762,0,0,0,993.071,353.709Z" transform="translate(-912.451 -328.212)" fill="#1d6487"/>
      </g>
      <g id="Group_23110" data-name="Group 23110" transform="translate(33.189 33.189)">
        <circle id="Ellipse_1265" data-name="Ellipse 1265" cx="45.547" cy="45.547" r="45.547" transform="translate(1.884 1.884)" fill="#c5fbfc"/>
        <path id="Path_50974" data-name="Path 50974" d="M1026.155,489.347a47.431,47.431,0,1,1,47.431-47.431A47.485,47.485,0,0,1,1026.155,489.347Zm0-91.094a43.663,43.663,0,1,0,43.663,43.663A43.712,43.712,0,0,0,1026.155,398.253Z" transform="translate(-978.724 -394.485)" fill="#1d6487"/>
      </g>
      <g id="Group_23111" data-name="Group 23111" transform="translate(45.482 45.482)">
        <circle id="Ellipse_1266" data-name="Ellipse 1266" cx="33.254" cy="33.254" r="33.254" transform="translate(1.884 1.884)" fill="#fff"/>
        <path id="Path_50975" data-name="Path 50975" d="M1061.641,512.541a35.138,35.138,0,1,1,35.138-35.138A35.178,35.178,0,0,1,1061.641,512.541Zm0-66.508a31.37,31.37,0,1,0,31.37,31.37A31.406,31.406,0,0,0,1061.641,446.033Z" transform="translate(-1026.503 -442.265)" fill="#1d6487"/>
      </g>
      <g id="Group_23112" data-name="Group 23112" transform="translate(111.99 78.736)">
        <line id="Line_171" data-name="Line 171" x1="39.427" transform="translate(1.884 1.884)" fill="#fff"/>
        <path id="Path_50976" data-name="Path 50976" d="M1326.32,575.286h-39.427a1.884,1.884,0,0,1,0-3.768h39.427a1.884,1.884,0,1,1,0,3.768Z" transform="translate(-1285.009 -571.518)" fill="#1d6487"/>
      </g>
      <g id="Group_23113" data-name="Group 23113" transform="translate(6.055 78.736)">
        <line id="Line_172" data-name="Line 172" x1="39.428" transform="translate(1.884 1.884)" fill="#fff"/>
        <path id="Path_50977" data-name="Path 50977" d="M914.568,575.286H875.14a1.884,1.884,0,1,1,0-3.768h39.427a1.884,1.884,0,1,1,0,3.768Z" transform="translate(-873.256 -571.518)" fill="#1d6487"/>
      </g>
      <g id="Group_23114" data-name="Group 23114" transform="translate(78.736 111.99)">
        <line id="Line_173" data-name="Line 173" y1="39.427" transform="translate(1.884 1.884)" fill="#fff"/>
        <path id="Path_50978" data-name="Path 50978" d="M1157.64,743.966a1.884,1.884,0,0,1-1.884-1.884V702.654a1.884,1.884,0,1,1,3.768,0v39.427A1.884,1.884,0,0,1,1157.64,743.966Z" transform="translate(-1155.756 -700.77)" fill="#1d6487"/>
      </g>
      <g id="Group_23115" data-name="Group 23115" transform="translate(78.736 6.055)">
        <line id="Line_174" data-name="Line 174" y1="39.427" transform="translate(1.884 1.884)" fill="#fff"/>
        <path id="Path_50979" data-name="Path 50979" d="M1157.64,332.213a1.884,1.884,0,0,1-1.884-1.884V290.9a1.884,1.884,0,0,1,3.768,0v39.427A1.884,1.884,0,0,1,1157.64,332.213Z" transform="translate(-1155.756 -289.018)" fill="#1d6487"/>
      </g>
      <g id="Group_23118" data-name="Group 23118" transform="translate(64.537 56.109)">
        <g id="Group_23116" data-name="Group 23116" transform="translate(4.244)">
          <circle id="Ellipse_1267" data-name="Ellipse 1267" cx="9.953" cy="9.953" r="9.953" transform="translate(0.418 20.066) rotate(-80.783)" fill="#fff"/>
          <path id="Path_50980" data-name="Path 50980" d="M1128.9,507.244a11.837,11.837,0,1,1,11.837-11.836A11.85,11.85,0,0,1,1128.9,507.244Zm0-19.905a8.069,8.069,0,1,0,8.069,8.069A8.078,8.078,0,0,0,1128.9,487.339Z" transform="translate(-1117.063 -483.571)" fill="#1d6487"/>
        </g>
        <g id="Group_23117" data-name="Group 23117" transform="translate(0 26.932)">
          <path id="Path_50981" data-name="Path 50981" d="M1107.891,611.518v-4.681a11.265,11.265,0,0,1,11.264-11.264h5.87a11.273,11.273,0,0,1,11.264,11.264v4.681" transform="translate(-1106.007 -593.689)" fill="#fff"/>
          <path id="Path_50982" data-name="Path 50982" d="M1130.85,607.963a1.884,1.884,0,0,1-1.884-1.884V601.4a9.391,9.391,0,0,0-9.38-9.38h-5.87a9.391,9.391,0,0,0-9.38,9.38v4.681a1.884,1.884,0,0,1-3.768,0V601.4a13.163,13.163,0,0,1,13.148-13.148h5.87a13.163,13.163,0,0,1,13.148,13.148v4.681A1.884,1.884,0,0,1,1130.85,607.963Z" transform="translate(-1100.568 -588.25)" fill="#1d6487"/>
        </g>
      </g>
    </g>
  </g>
</svg>
