<svg xmlns="http://www.w3.org/2000/svg" xmlns:xlink="http://www.w3.org/1999/xlink" width="813.484" height="301.295" viewBox="0 0 813.484 301.295">
  <defs>
    <linearGradient id="linear-gradient" y1="0.5" x2="1" y2="0.5" gradientUnits="objectBoundingBox">
      <stop offset="0.053" stop-color="#bad4ff"/>
      <stop offset="0.478" stop-color="#94ceff"/>
      <stop offset="0.684" stop-color="#9ec2ff"/>
      <stop offset="1" stop-color="#85aaff"/>
    </linearGradient>
  </defs>
  <g id="Grupo_21353" data-name="Grupo 21353" transform="translate(42.635 -142.174)">
    <g id="Grupo_21273" data-name="Grupo 21273" transform="translate(224.127 156.704)" opacity="0.4" style="mix-blend-mode: multiply;isolation: isolate">
      <g id="Grupo_21272" data-name="Grupo 21272" transform="translate(0 0)">
        <g id="Grupo_21271" data-name="Grupo 21271">
          <line id="Línea_29" data-name="Línea 29" y1="21.33" x2="37.862" transform="translate(0 63.989)" fill="none" stroke="#a8b2e5" stroke-miterlimit="10" stroke-width="6.792"/>
          <path id="Trazado_47120" data-name="Trazado 47120" d="M1356.73,290.055l37.862-21.33-.629-40.4-37.862,21.33Z" transform="translate(-1242.517 -228.325)" fill="none" stroke="#a8b2e5" stroke-miterlimit="10" stroke-width="6.792"/>
          <path id="Trazado_47121" data-name="Trazado 47121" d="M1055.045,460.011l37.862-21.33-.629-40.4-37.862,21.33Z" transform="translate(-978.693 -376.952)" fill="none" stroke="#a8b2e5" stroke-miterlimit="10" stroke-width="6.792"/>
          <path id="Trazado_47122" data-name="Trazado 47122" d="M451.675,799.923l37.862-21.33-.628-40.4-37.862,21.33Z" transform="translate(-451.046 -674.204)" fill="none" stroke="#a8b2e5" stroke-miterlimit="10" stroke-width="6.792"/>
          <line id="Línea_30" data-name="Línea 30" x2="0.628" y2="40.4" transform="translate(152.076 40.4)" fill="none" stroke="#a8b2e5" stroke-miterlimit="10" stroke-width="6.792"/>
          <path id="Trazado_47123" data-name="Trazado 47123" d="M1060.052,781.921l37.862-21.33-.628-40.4-37.862,21.33Z" transform="translate(-983.072 -658.461)" fill="none" stroke="#a8b2e5" stroke-miterlimit="10" stroke-width="6.792"/>
          <path id="Trazado_47124" data-name="Trazado 47124" d="M758.367,951.877l37.862-21.33-.628-40.4-37.862,21.33Z" transform="translate(-719.248 -807.088)" fill="none" stroke="#a8b2e5" stroke-miterlimit="10" stroke-width="6.792"/>
          <path id="Trazado_47125" data-name="Trazado 47125" d="M456.682,1121.833l37.862-21.33-.628-40.4-37.862,21.33Z" transform="translate(-455.425 -955.714)" fill="none" stroke="#a8b2e5" stroke-miterlimit="10" stroke-width="6.792"/>
          <line id="Línea_31" data-name="Línea 31" x2="0.628" y2="40.4" transform="translate(152.704 80.8)" fill="none" stroke="#a8b2e5" stroke-miterlimit="10" stroke-width="6.792"/>
          <path id="Trazado_47126" data-name="Trazado 47126" d="M1366.744,933.874l37.862-21.33-.628-40.4-37.862,21.33Z" transform="translate(-1251.273 -791.345)" fill="none" stroke="#a8b2e5" stroke-miterlimit="10" stroke-width="6.792"/>
          <path id="Trazado_47127" data-name="Trazado 47127" d="M1065.059,1103.83l37.862-21.33-.629-40.4-37.862,21.33Z" transform="translate(-987.45 -939.971)" fill="none" stroke="#a8b2e5" stroke-miterlimit="10" stroke-width="6.792"/>
          <path id="Trazado_47128" data-name="Trazado 47128" d="M763.374,1273.786l37.862-21.33-.629-40.4-37.862,21.33Z" transform="translate(-723.627 -1088.597)" fill="none" stroke="#a8b2e5" stroke-miterlimit="10" stroke-width="6.792"/>
          <path id="Trazado_47129" data-name="Trazado 47129" d="M461.688,1443.742l37.862-21.33-.628-40.4-37.862,21.33Z" transform="translate(-459.803 -1237.224)" fill="none" stroke="#a8b2e5" stroke-miterlimit="10" stroke-width="6.792"/>
        </g>
      </g>
      <line id="Línea_32" data-name="Línea 32" y1="21.33" x2="37.862" transform="translate(37.862 42.659)" fill="none" stroke="#a8b2e5" stroke-miterlimit="10" stroke-width="6.792"/>
    </g>
    <ellipse id="Elipse_1014" data-name="Elipse 1014" cx="7.593" cy="15.284" rx="7.593" ry="15.284" transform="translate(538.759 358.173) rotate(-88.764)" fill="#e8eefa" style="mix-blend-mode: multiply;isolation: isolate"/>
    <path id="Trazado_47130" data-name="Trazado 47130" d="M2977.578,1715.9l6.461-4.406a5.012,5.012,0,0,1,3-.1c.523.132.6-.259.579.227l.561,2.038c.523,1.358.672,1.582-.881,2.117l-6.491,2.377a4.279,4.279,0,0,1-3.483-.316l-.233-.163C2976.263,1717.095,2976.484,1716.3,2977.578,1715.9Z" transform="translate(-2435.504 -1368.401)" fill="#0f2f69"/>
    <path id="Trazado_47131" data-name="Trazado 47131" d="M3037.256,1680.759c-.03,1.6-3.916,1.525-3.886-.072l.1-5.192,3.886.073Z" transform="translate(-2485.159 -1337.169)" fill="#acaff2"/>
    <path id="Trazado_47132" data-name="Trazado 47132" d="M3008.913,1334.666c-1.527,1.19-4.042,1.3-4.875.057a254.789,254.789,0,0,1-3.669-48.426l12.076-4.283c-1.479,13.078-3.134,25.183-3.7,36.233C3009.845,1324.581,3008.747,1330.593,3008.913,1334.666Z" transform="translate(-2456.264 -993.07)" fill="#dee5ff"/>
    <path id="Trazado_47133" data-name="Trazado 47133" d="M3055.9,1378.154l-1.608,5.136a66.4,66.4,0,0,1-2.761-14.665c.606.151.576-.586,1.253-.5Z" transform="translate(-2501.04 -1068.366)" fill="#acaff2"/>
    <g id="Grupo_21277" data-name="Grupo 21277" transform="translate(474.716 351.757)">
      <g id="Grupo_21276" data-name="Grupo 21276">
        <ellipse id="Elipse_1015" data-name="Elipse 1015" cx="25.187" cy="14.249" rx="25.187" ry="14.249" transform="translate(8.401 5.877)" fill="#a8c4e5" opacity="0.4" style="mix-blend-mode: multiply;isolation: isolate"/>
        <g id="Grupo_21275" data-name="Grupo 21275">
          <g id="Grupo_21274" data-name="Grupo 21274">
            <path id="Trazado_47134" data-name="Trazado 47134" d="M2498.091,1830.036a42.742,42.742,0,0,1-.607,8.9c-.8,3.19-3.576,6.218-8.269,8.449-10.3,4.9-25.878,4.1-34.8-1.769-4.159-2.737-6.417-5.518-6.469-8.992-.134-1.879-.191-7.123-.191-7.123.328-1.146,1.656.048,2.5-1.022a16.782,16.782,0,0,1,6.986-5.6c10.3-4.9,25.878-4.1,34.8,1.768C2495.795,1827.125,2497.829,1827.05,2498.091,1830.036Z" transform="translate(-2447.753 -1815.01)" fill="#ebb44b"/>
            <ellipse id="Elipse_1016" data-name="Elipse 1016" cx="25.187" cy="14.249" rx="25.187" ry="14.249" transform="translate(0.001 0.777)" fill="#fff"/>
            <ellipse id="Elipse_1017" data-name="Elipse 1017" cx="25.187" cy="14.249" rx="25.187" ry="14.249" transform="translate(0.001)" fill="#ffd482"/>
            <ellipse id="Elipse_1018" data-name="Elipse 1018" cx="17.608" cy="9.961" rx="17.608" ry="9.961" transform="translate(7.561 3.913)" fill="#fff"/>
            <path id="Trazado_47135" data-name="Trazado 47135" d="M2514.389,1817.207c7.491-3.51,18.59-2.92,24.791,1.316,2.472,1.689,3.791,3.7,4.01,5.736.263-2.435-1.044-4.929-4.01-6.956-6.2-4.237-17.3-4.826-24.791-1.317-4.505,2.111-6.678,5.223-6.347,8.291C2508.329,1821.622,2510.481,1819.038,2514.389,1817.207Z" transform="translate(-2500.447 -1809.783)" fill="#f2c97b"/>
            <path id="Trazado_47136" data-name="Trazado 47136" d="M2570.989,1862.037a4.816,4.816,0,0,1-1.917-3.212l3.475-.207a3.627,3.627,0,0,0,1.64,2.569,2.95,2.95,0,0,0,3.163.35c2.259-1.118-3.161-4.677.786-6.631a8.4,8.4,0,0,1,7.152.054l2.259-1.118,1.975,1.316-2.214,1.1a3.163,3.163,0,0,1,1.236,2.912l-3.349-.092a2.2,2.2,0,0,0-1.123-2.021,2.728,2.728,0,0,0-2.911-.309c-2.083,1.031,3.469,4.525-.72,6.6a8.67,8.67,0,0,1-7.388-.033l-2.28,1.129-1.975-1.315Z" transform="translate(-2553.605 -1844.891)" fill="#ffd482"/>
          </g>
        </g>
      </g>
      <line id="Línea_33" data-name="Línea 33" x2="0.064" y2="6.057" transform="translate(25.553 29.532)" fill="none" stroke="#ffd482" stroke-linecap="round" stroke-linejoin="round" stroke-width="3.158"/>
      <line id="Línea_34" data-name="Línea 34" x2="0.024" y2="5.892" transform="translate(32.034 29.081)" fill="none" stroke="#ffd482" stroke-linecap="round" stroke-linejoin="round" stroke-width="3.158"/>
      <line id="Línea_35" data-name="Línea 35" x2="0.024" y2="5.892" transform="translate(38.191 27.592)" fill="none" stroke="#ffd482" stroke-linecap="round" stroke-linejoin="round" stroke-width="3.158"/>
      <line id="Línea_36" data-name="Línea 36" x2="0.022" y2="5.433" transform="translate(43.715 25.076)" fill="none" stroke="#ffd482" stroke-linecap="round" stroke-linejoin="round" stroke-width="3.158"/>
      <line id="Línea_37" data-name="Línea 37" x1="0.126" y2="5.522" transform="translate(48.11 21.261)" fill="none" stroke="#ffd482" stroke-linecap="round" stroke-linejoin="round" stroke-width="3.158"/>
      <line id="Línea_38" data-name="Línea 38" x1="0.024" y2="5.892" transform="translate(18.749 29.081)" fill="none" stroke="#ffd482" stroke-linecap="round" stroke-linejoin="round" stroke-width="3.158"/>
      <line id="Línea_39" data-name="Línea 39" x1="0.024" y2="5.892" transform="translate(12.591 27.592)" fill="none" stroke="#ffd482" stroke-linecap="round" stroke-linejoin="round" stroke-width="3.158"/>
      <line id="Línea_40" data-name="Línea 40" x1="0.022" y2="5.433" transform="translate(7.069 25.076)" fill="none" stroke="#ffd482" stroke-linecap="round" stroke-linejoin="round" stroke-width="3.158"/>
      <line id="Línea_41" data-name="Línea 41" x2="0.126" y2="5.522" transform="translate(2.57 21.261)" fill="none" stroke="#ffd482" stroke-linecap="round" stroke-linejoin="round" stroke-width="3.158"/>
    </g>
    <g id="Grupo_21287" data-name="Grupo 21287" transform="translate(239.061 169.387)">
      <g id="Grupo_21278" data-name="Grupo 21278" transform="translate(0.559 86.21)">
        <path id="Trazado_47137" data-name="Trazado 47137" d="M738.678,1022.495s-9.159-11.836-25.76-2.759c-12.692,6.94-5.991,6.45-21.248,11.372-9,2.9-23.16-13.317-45.323-2.842-40.127,18.966-54.533-18.851-71.853,2.057l.911,97.224,163.41-90.437Z" transform="translate(-574.495 -1016.31)" fill="#dee5ff"/>
      </g>
      <g id="Grupo_21283" data-name="Grupo 21283" transform="translate(41.307 9.851)">
        <g id="Grupo_21279" data-name="Grupo 21279" transform="translate(122.111)">
          <path id="Trazado_47138" data-name="Trazado 47138" d="M1873.645,506.155a.568.568,0,0,0,.55-.582l-.91-97.13a.56.56,0,0,0-.56-.565.568.568,0,0,0-.549.582l.91,97.13A.56.56,0,0,0,1873.645,506.155Z" transform="translate(-1872.175 -407.879)" fill="#abcfff"/>
        </g>
        <g id="Grupo_21280" data-name="Grupo 21280" transform="translate(81.401 21.41)">
          <path id="Trazado_47139" data-name="Trazado 47139" d="M1549.259,676.749a.568.568,0,0,0,.549-.582l-.91-97.13a.56.56,0,0,0-.56-.565.568.568,0,0,0-.55.582l.91,97.13A.56.56,0,0,0,1549.259,676.749Z" transform="translate(-1547.789 -578.472)" fill="#abcfff"/>
        </g>
        <g id="Grupo_21281" data-name="Grupo 21281" transform="translate(40.701 44.038)">
          <path id="Trazado_47140" data-name="Trazado 47140" d="M1224.958,857.05a.568.568,0,0,0,.55-.582l-.91-97.13a.56.56,0,0,0-.56-.565.568.568,0,0,0-.549.582l.91,97.13A.56.56,0,0,0,1224.958,857.05Z" transform="translate(-1223.488 -758.774)" fill="#abcfff"/>
        </g>
        <g id="Grupo_21282" data-name="Grupo 21282" transform="translate(0 66.641)">
          <path id="Trazado_47141" data-name="Trazado 47141" d="M900.654,1037.157a.568.568,0,0,0,.549-.582l-.91-97.13a.56.56,0,0,0-.56-.565.568.568,0,0,0-.55.582l.91,97.13A.56.56,0,0,0,900.654,1037.157Z" transform="translate(-899.184 -938.881)" fill="#abcfff"/>
        </g>
      </g>
      <g id="Grupo_21284" data-name="Grupo 21284" transform="translate(0 99.271)">
        <path id="Trazado_47142" data-name="Trazado 47142" d="M571.515,1218.655a.568.568,0,0,0,.549-.582l-.91-97.13a.56.56,0,0,0-.56-.565.568.568,0,0,0-.55.582l.91,97.13A.56.56,0,0,0,571.515,1218.655Z" transform="translate(-570.045 -1120.379)" fill="#abcfff"/>
      </g>
      <g id="Grupo_21285" data-name="Grupo 21285" transform="translate(0.47)">
        <path id="Trazado_47143" data-name="Trazado 47143" d="M574.881,1014.463l5.364-3.3a2.742,2.742,0,0,0,1.065-2.16h0c-.008-.823-.5-1.2-1.093-.831l-5.364,3.3a2.742,2.742,0,0,0-1.065,2.16h0C573.8,1014.454,574.288,1014.828,574.881,1014.463Z" transform="translate(-573.788 -922.857)" fill="#abcfff"/>
        <path id="Trazado_47144" data-name="Trazado 47144" d="M904.145,846.02l5.364-3.3a2.741,2.741,0,0,0,1.065-2.16h0c-.008-.823-.5-1.2-1.093-.832l-5.364,3.3a2.742,2.742,0,0,0-1.065,2.16h0C903.06,846.011,903.552,846.385,904.145,846.02Z" transform="translate(-861.729 -775.554)" fill="#abcfff"/>
        <path id="Trazado_47145" data-name="Trazado 47145" d="M1226.146,679.454l5.364-3.3a2.742,2.742,0,0,0,1.065-2.16h0c-.008-.823-.5-1.2-1.093-.832l-5.364,3.3a2.742,2.742,0,0,0-1.065,2.16h0C1225.061,679.445,1225.553,679.819,1226.146,679.454Z" transform="translate(-1143.319 -629.892)" fill="#abcfff"/>
        <path id="Trazado_47146" data-name="Trazado 47146" d="M1552.778,508.743l5.364-3.3a2.742,2.742,0,0,0,1.065-2.16h0c-.008-.823-.5-1.2-1.093-.831l-5.364,3.3a2.743,2.743,0,0,0-1.065,2.16h0C1551.692,508.734,1552.184,509.108,1552.778,508.743Z" transform="translate(-1428.958 -480.606)" fill="#abcfff"/>
        <path id="Trazado_47147" data-name="Trazado 47147" d="M1874.534,335.817l5.364-3.3a2.743,2.743,0,0,0,1.065-2.16h0c-.008-.823-.5-1.2-1.093-.831l-5.365,3.3a2.742,2.742,0,0,0-1.065,2.16h0C1873.449,335.808,1873.941,336.182,1874.534,335.817Z" transform="translate(-1710.334 -329.382)" fill="#abcfff"/>
      </g>
      <g id="Grupo_21286" data-name="Grupo 21286" transform="translate(1.994 101.534)">
        <path id="Trazado_47148" data-name="Trazado 47148" d="M586.994,1907.175l5.364-3.3c.017-.01.033-.014.049-.024l3.983-2.452c.593-.365,1.085.009,1.093.831a2.743,2.743,0,0,1-1.065,2.16l-5.364,3.3c-.017.01-.033.014-.05.024l-3.983,2.452c-.593.365-1.085-.009-1.093-.831A2.742,2.742,0,0,1,586.994,1907.175Z" transform="translate(-585.929 -1805.519)" fill="#abcfff"/>
        <path id="Trazado_47149" data-name="Trazado 47149" d="M1274.519,1505.844l5.364-3.3c.017-.01.033-.014.049-.023l3.983-2.453c.594-.365,1.085.009,1.093.832a2.743,2.743,0,0,1-1.065,2.16l-5.364,3.3c-.017.01-.033.014-.05.024l-3.983,2.452c-.594.366-1.085-.009-1.093-.831A2.743,2.743,0,0,1,1274.519,1505.844Z" transform="translate(-1187.169 -1454.555)" fill="#abcfff"/>
        <path id="Trazado_47150" data-name="Trazado 47150" d="M919.252,1707.811l5.364-3.3c.017-.01.033-.014.049-.023l3.983-2.453c.594-.365,1.085.009,1.093.832a2.742,2.742,0,0,1-1.065,2.16l-5.364,3.3c-.017.01-.033.014-.05.023l-3.983,2.452c-.593.365-1.085-.009-1.093-.832A2.742,2.742,0,0,1,919.252,1707.811Z" transform="translate(-876.489 -1631.175)" fill="#abcfff"/>
        <path id="Trazado_47151" data-name="Trazado 47151" d="M1587.876,1325.71l5.364-3.3c.017-.01.032-.014.049-.023l3.983-2.452c.594-.365,1.085.009,1.093.832a2.742,2.742,0,0,1-1.065,2.16l-5.364,3.3c-.017.01-.033.015-.05.024l-3.983,2.452c-.594.365-1.085-.009-1.093-.831A2.743,2.743,0,0,1,1587.876,1325.71Z" transform="translate(-1461.199 -1297.029)" fill="#abcfff"/>
        <path id="Trazado_47152" data-name="Trazado 47152" d="M1921.685,1144.333l5.364-3.3c.017-.01.032-.014.049-.023l3.983-2.453c.594-.365,1.085.009,1.093.832a2.741,2.741,0,0,1-1.065,2.16l-5.364,3.3c-.017.01-.033.014-.05.024l-3.983,2.452c-.593.365-1.085-.009-1.093-.831A2.742,2.742,0,0,1,1921.685,1144.333Z" transform="translate(-1753.115 -1138.415)" fill="#abcfff"/>
      </g>
    </g>
    <path id="Trazado_47153" data-name="Trazado 47153" d="M676.65,1690.216h0l-156.477,87.046-20.213-12.137,159.249-91.071Z" transform="translate(-269.694 -1335.908)" fill="#a8b2e5" opacity="0.4" style="mix-blend-mode: multiply;isolation: isolate"/>
    <g id="Grupo_21288" data-name="Grupo 21288" transform="translate(230.265 210.055)">
      <path id="Trazado_47154" data-name="Trazado 47154" d="M2055.347,870.091v5.684l51.906,29.617.147-5.9Z" transform="translate(-1860.144 -842.899)" fill="#f04382"/>
      <path id="Trazado_47155" data-name="Trazado 47155" d="M1221.619,1103.876l-21.682-12-1.7-40.786,19.253-34.008-22.295-13.287-72.054,132.1,20.213,12.137,74.135-130.949,4.132,86.79" transform="translate(-1044.929 -959.827)" fill="#ff80ae"/>
      <path id="Trazado_47156" data-name="Trazado 47156" d="M1820.085,890.238l6.071-5.686-23.919-14.461L1744.99,975.042l20.213,12.137" transform="translate(-1588.737 -842.899)" fill="#ff80ae"/>
      <path id="Trazado_47157" data-name="Trazado 47157" d="M598.44,1447.445l-21.682-12-1.7-40.786,19.253-34.008-22.295-13.287-72.054,132.1,20.213,12.137,74.135-130.949,4.132,86.79" transform="translate(-499.96 -1260.277)" fill="#ff80ae"/>
      <path id="Trazado_47158" data-name="Trazado 47158" d="M1100.458,1448.486l-21.625-13.038-1.7-40.786,19.253-34.008-22.295-13.287,22.295,13.287,4.132,86.79" transform="translate(-1002.035 -1260.277)" fill="#f04382"/>
      <path id="Trazado_47159" data-name="Trazado 47159" d="M1723.694,1105.716l-21.682-12-1.7-40.786,19.253-34.008-22.295-13.287,22.295,13.287,4.132,86.79" transform="translate(-1547.004 -961.436)" fill="#f04382"/>
      <path id="Trazado_47160" data-name="Trazado 47160" d="M2055.347,680.618l49.565-27.192,2.457,57.515Z" transform="translate(-1860.144 -653.427)" fill="#ff80ae"/>
    </g>
    <g id="Grupo_21289" data-name="Grupo 21289" transform="translate(375.907 294.017)">
      <path id="Trazado_47161" data-name="Trazado 47161" d="M1662.4,1347.544a22.525,22.525,0,0,0,5.361-4.132,3.6,3.6,0,0,0,.951-1.708c.19-.633-.027.422.042-.234.015-.144.029-.288.035-.433.027-.628.09-.076-.077-.821-.371-1.653-4.485-7.3-5.511-9.061-1.625-2.793-.239-1.644-1.952-4.388-1.7-2.717-.545-5.785,1.733-3.572a60.62,60.62,0,0,1,8.335,10.6,17.171,17.171,0,0,1,2.4,6.336c.559,5.313-3.94,8.618-8.006,11.164a2.665,2.665,0,0,1-3.533-.328c-.816-.9-.9-2.722.219-3.422Z" transform="translate(-1660.441 -1322.437)" fill="#46a6e8"/>
    </g>
    <g id="Grupo_21290" data-name="Grupo 21290" transform="translate(325.839 285.552)">
      <path id="Trazado_47162" data-name="Trazado 47162" d="M1265.525,1292.1l-4.032-.5,3.012-2.461Z" transform="translate(-1261.493 -1284.856)" fill="#bad4ff"/>
      <path id="Trazado_47163" data-name="Trazado 47163" d="M1262.678,1302.969l-1.186-.147,1.041-.85C1262.115,1302.455,1262.187,1302.779,1262.678,1302.969Z" transform="translate(-1261.492 -1296.076)" fill="#3b2ad1"/>
      <ellipse id="Elipse_1019" data-name="Elipse 1019" cx="1.742" cy="1.65" rx="1.742" ry="1.65" transform="translate(1.741 4.906) rotate(-27.179)" fill="#1c4591"/>
      <path id="Trazado_47164" data-name="Trazado 47164" d="M1294.86,1260.253l16.833-3.715.084,3.327-14.211,3.09Z" transform="translate(-1290.672 -1256.344)" fill="#1c4591"/>
      <path id="Trazado_47165" data-name="Trazado 47165" d="M1281.853,1276.762a1.792,1.792,0,0,0,.423-.068v.007l14.964-3.374,1.039,1.435-15.69,3.411v-.007a1.819,1.819,0,0,1-.424.068,1.625,1.625,0,0,1-1.668-1.224Z" transform="translate(-1278.112 -1271.026)" fill="#1c4591"/>
      <path id="Trazado_47166" data-name="Trazado 47166" d="M1414.873,1256.381h0l1-.208.01.584a1.86,1.86,0,0,1,.445,1.169,1.965,1.965,0,0,1-.4,1.312l0,.257-.532.152-.007-.013a1.026,1.026,0,0,1-.269.061c-.706.058-1.31-.64-1.348-1.559A1.628,1.628,0,0,1,1414.873,1256.381Z" transform="translate(-1394.657 -1256.023)" fill="#e1eaf4"/>
      <path id="Trazado_47167" data-name="Trazado 47167" d="M1420.914,1255.16c.017,0,.033,0,.05,0v0l1.028-.164.041.866a1.988,1.988,0,0,1,.229.859,2.094,2.094,0,0,1-.147.87l.035.727-.957.15a1.008,1.008,0,0,1-.139.022c-.706.058-1.309-.64-1.348-1.559A1.585,1.585,0,0,1,1420.914,1255.16Z" transform="translate(-1399.848 -1254.992)" fill="#e6558a"/>
      <path id="Trazado_47168" data-name="Trazado 47168" d="M1427.892,1256.76c.039.919.642,1.617,1.348,1.559a1.585,1.585,0,0,0,1.208-1.768c-.039-.919-.642-1.617-1.348-1.559A1.585,1.585,0,0,0,1427.892,1256.76Z" transform="translate(-1407.007 -1254.988)" fill="#ff80ae"/>
    </g>
    <g id="Grupo_21294" data-name="Grupo 21294" transform="translate(115.337 377.264)">
      <g id="Grupo_21293" data-name="Grupo 21293" transform="translate(0)">
        <ellipse id="Elipse_1020" data-name="Elipse 1020" cx="25.187" cy="14.249" rx="25.187" ry="14.249" transform="translate(8.401 5.877)" fill="#a8c4e5" opacity="0.4" style="mix-blend-mode: multiply;isolation: isolate"/>
        <g id="Grupo_21292" data-name="Grupo 21292">
          <g id="Grupo_21291" data-name="Grupo 21291">
            <path id="Trazado_47169" data-name="Trazado 47169" d="M1853.792,2033.275a42.726,42.726,0,0,1-.608,8.9c-.8,3.19-3.576,6.218-8.268,8.449-10.3,4.9-25.878,4.1-34.8-1.769-4.159-2.737-6.417-5.518-6.469-8.992-.134-1.879-.191-7.123-.191-7.123.328-1.146,1.656.048,2.5-1.021a16.786,16.786,0,0,1,6.986-5.6c10.3-4.9,25.878-4.1,34.8,1.769C1851.5,2030.363,1853.531,2030.288,1853.792,2033.275Z" transform="translate(-1803.454 -2018.248)" fill="#ebb44b"/>
            <ellipse id="Elipse_1021" data-name="Elipse 1021" cx="25.187" cy="14.249" rx="25.187" ry="14.249" transform="translate(0.001 0.777)" fill="#fff"/>
            <ellipse id="Elipse_1022" data-name="Elipse 1022" cx="25.187" cy="14.249" rx="25.187" ry="14.249" transform="translate(0.001)" fill="#ffd482"/>
            <ellipse id="Elipse_1023" data-name="Elipse 1023" cx="17.608" cy="9.961" rx="17.608" ry="9.961" transform="translate(7.562 3.913)" fill="#fff"/>
            <path id="Trazado_47170" data-name="Trazado 47170" d="M1870.09,2020.446c7.491-3.51,18.59-2.92,24.791,1.316,2.472,1.689,3.791,3.7,4.01,5.736.263-2.435-1.044-4.929-4.01-6.957-6.2-4.236-17.3-4.826-24.791-1.316-4.5,2.111-6.678,5.223-6.347,8.29C1864.03,2024.86,1866.183,2022.276,1870.09,2020.446Z" transform="translate(-1856.149 -2013.021)" fill="#f2c97b"/>
            <path id="Trazado_47171" data-name="Trazado 47171" d="M1926.691,2065.276a4.815,4.815,0,0,1-1.917-3.212l3.474-.207a3.628,3.628,0,0,0,1.64,2.569,2.95,2.95,0,0,0,3.163.35c2.259-1.117-3.161-4.677.786-6.631a8.4,8.4,0,0,1,7.152.054l2.259-1.118,1.975,1.316-2.215,1.1a3.163,3.163,0,0,1,1.236,2.912l-3.349-.092a2.2,2.2,0,0,0-1.123-2.021,2.73,2.73,0,0,0-2.911-.309c-2.083,1.031,3.469,4.525-.719,6.6a8.67,8.67,0,0,1-7.388-.033l-2.28,1.129-1.976-1.315Z" transform="translate(-1909.307 -2048.13)" fill="#ffd482"/>
          </g>
        </g>
      </g>
      <line id="Línea_42" data-name="Línea 42" x2="0.064" y2="6.057" transform="translate(25.553 29.532)" fill="none" stroke="#ffd482" stroke-linecap="round" stroke-linejoin="round" stroke-width="3.158"/>
      <line id="Línea_43" data-name="Línea 43" x2="0.024" y2="5.892" transform="translate(32.034 29.081)" fill="none" stroke="#ffd482" stroke-linecap="round" stroke-linejoin="round" stroke-width="3.158"/>
      <line id="Línea_44" data-name="Línea 44" x2="0.024" y2="5.892" transform="translate(38.191 27.592)" fill="none" stroke="#ffd482" stroke-linecap="round" stroke-linejoin="round" stroke-width="3.158"/>
      <line id="Línea_45" data-name="Línea 45" x2="0.022" y2="5.433" transform="translate(43.715 25.076)" fill="none" stroke="#ffd482" stroke-linecap="round" stroke-linejoin="round" stroke-width="3.158"/>
      <line id="Línea_46" data-name="Línea 46" x1="0.126" y2="5.522" transform="translate(48.11 21.261)" fill="none" stroke="#ffd482" stroke-linecap="round" stroke-linejoin="round" stroke-width="3.158"/>
      <line id="Línea_47" data-name="Línea 47" x1="0.024" y2="5.892" transform="translate(18.749 29.081)" fill="none" stroke="#ffd482" stroke-linecap="round" stroke-linejoin="round" stroke-width="3.158"/>
      <line id="Línea_48" data-name="Línea 48" x1="0.024" y2="5.892" transform="translate(12.591 27.592)" fill="none" stroke="#ffd482" stroke-linecap="round" stroke-linejoin="round" stroke-width="3.158"/>
      <line id="Línea_49" data-name="Línea 49" x1="0.022" y2="5.433" transform="translate(7.07 25.076)" fill="none" stroke="#ffd482" stroke-linecap="round" stroke-linejoin="round" stroke-width="3.158"/>
      <line id="Línea_50" data-name="Línea 50" x2="0.126" y2="5.522" transform="translate(2.57 21.261)" fill="none" stroke="#ffd482" stroke-linecap="round" stroke-linejoin="round" stroke-width="3.158"/>
    </g>
    <g id="Grupo_21298" data-name="Grupo 21298" transform="translate(712.074 375.995)">
      <g id="Grupo_21297" data-name="Grupo 21297">
        <ellipse id="Elipse_1024" data-name="Elipse 1024" cx="25.187" cy="14.249" rx="25.187" ry="14.249" transform="translate(8.401 5.877)" fill="#a8c4e5" opacity="0.4" style="mix-blend-mode: multiply;isolation: isolate"/>
        <g id="Grupo_21296" data-name="Grupo 21296">
          <g id="Grupo_21295" data-name="Grupo 21295">
            <path id="Trazado_47172" data-name="Trazado 47172" d="M2946.135,2023.167a42.707,42.707,0,0,1-.608,8.9c-.8,3.19-3.575,6.218-8.268,8.449-10.3,4.9-25.878,4.1-34.8-1.769-4.159-2.737-6.418-5.518-6.47-8.992-.134-1.879-.191-7.123-.191-7.123.328-1.146,1.656.048,2.5-1.021a16.782,16.782,0,0,1,6.986-5.6c10.3-4.9,25.878-4.1,34.8,1.769C2943.839,2020.257,2945.874,2020.181,2946.135,2023.167Z" transform="translate(-2895.797 -2008.141)" fill="#ebb44b"/>
            <ellipse id="Elipse_1025" data-name="Elipse 1025" cx="25.187" cy="14.249" rx="25.187" ry="14.249" transform="translate(0.001 0.777)" fill="#fff"/>
            <ellipse id="Elipse_1026" data-name="Elipse 1026" cx="25.187" cy="14.249" rx="25.187" ry="14.249" transform="translate(0.001)" fill="#ffd482"/>
            <ellipse id="Elipse_1027" data-name="Elipse 1027" cx="17.608" cy="9.961" rx="17.608" ry="9.961" transform="translate(7.561 3.913)" fill="#fff"/>
            <path id="Trazado_47173" data-name="Trazado 47173" d="M2962.433,2010.338c7.491-3.509,18.59-2.92,24.791,1.317,2.472,1.688,3.791,3.7,4.01,5.735.263-2.435-1.044-4.929-4.01-6.956-6.2-4.237-17.3-4.826-24.791-1.316-4.505,2.11-6.678,5.223-6.346,8.29C2956.373,2014.752,2958.526,2012.168,2962.433,2010.338Z" transform="translate(-2948.492 -2002.914)" fill="#f2c97b"/>
            <path id="Trazado_47174" data-name="Trazado 47174" d="M3019.034,2055.167a4.813,4.813,0,0,1-1.917-3.212l3.474-.206a3.628,3.628,0,0,0,1.64,2.569,2.952,2.952,0,0,0,3.163.35c2.258-1.118-3.162-4.677.785-6.631a8.4,8.4,0,0,1,7.152.054l2.259-1.118,1.975,1.316-2.214,1.1a3.161,3.161,0,0,1,1.236,2.911l-3.349-.092a2.2,2.2,0,0,0-1.124-2.021,2.727,2.727,0,0,0-2.91-.309c-2.083,1.031,3.469,4.525-.72,6.6a8.669,8.669,0,0,1-7.388-.032l-2.28,1.129-1.976-1.316Z" transform="translate(-3001.65 -2038.021)" fill="#ffd482"/>
          </g>
        </g>
      </g>
      <line id="Línea_51" data-name="Línea 51" x2="0.064" y2="6.057" transform="translate(25.553 29.532)" fill="none" stroke="#ffd482" stroke-linecap="round" stroke-linejoin="round" stroke-width="3.158"/>
      <line id="Línea_52" data-name="Línea 52" x2="0.024" y2="5.892" transform="translate(32.034 29.081)" fill="none" stroke="#ffd482" stroke-linecap="round" stroke-linejoin="round" stroke-width="3.158"/>
      <line id="Línea_53" data-name="Línea 53" x2="0.024" y2="5.892" transform="translate(38.191 27.592)" fill="none" stroke="#ffd482" stroke-linecap="round" stroke-linejoin="round" stroke-width="3.158"/>
      <line id="Línea_54" data-name="Línea 54" x2="0.022" y2="5.433" transform="translate(43.715 25.076)" fill="none" stroke="#ffd482" stroke-linecap="round" stroke-linejoin="round" stroke-width="3.158"/>
      <line id="Línea_55" data-name="Línea 55" x1="0.126" y2="5.522" transform="translate(48.11 21.261)" fill="none" stroke="#ffd482" stroke-linecap="round" stroke-linejoin="round" stroke-width="3.158"/>
      <line id="Línea_56" data-name="Línea 56" x1="0.024" y2="5.892" transform="translate(18.749 29.081)" fill="none" stroke="#ffd482" stroke-linecap="round" stroke-linejoin="round" stroke-width="3.158"/>
      <line id="Línea_57" data-name="Línea 57" x1="0.024" y2="5.892" transform="translate(12.591 27.592)" fill="none" stroke="#ffd482" stroke-linecap="round" stroke-linejoin="round" stroke-width="3.158"/>
      <line id="Línea_58" data-name="Línea 58" x1="0.022" y2="5.433" transform="translate(7.069 25.076)" fill="none" stroke="#ffd482" stroke-linecap="round" stroke-linejoin="round" stroke-width="3.158"/>
      <line id="Línea_59" data-name="Línea 59" x2="0.126" y2="5.522" transform="translate(2.57 21.261)" fill="none" stroke="#ffd482" stroke-linecap="round" stroke-linejoin="round" stroke-width="3.158"/>
    </g>
    <g id="Grupo_21315" data-name="Grupo 21315" transform="translate(640.653 290.243)">
      <g id="Grupo_21302" data-name="Grupo 21302" transform="translate(0 32.169)">
        <g id="Grupo_21301" data-name="Grupo 21301">
          <ellipse id="Elipse_1028" data-name="Elipse 1028" cx="25.187" cy="14.249" rx="25.187" ry="14.249" transform="translate(8.401 5.877)" fill="#a8c4e5" opacity="0.4" style="mix-blend-mode: multiply;isolation: isolate"/>
          <g id="Grupo_21300" data-name="Grupo 21300">
            <g id="Grupo_21299" data-name="Grupo 21299">
              <path id="Trazado_47175" data-name="Trazado 47175" d="M2377.047,1596.211a42.748,42.748,0,0,1-.608,8.9c-.8,3.19-3.575,6.218-8.268,8.449-10.3,4.9-25.878,4.1-34.8-1.769-4.159-2.737-6.417-5.518-6.47-8.992-.134-1.879-.191-7.123-.191-7.123.328-1.146,1.656.048,2.5-1.021a16.788,16.788,0,0,1,6.986-5.6c10.3-4.9,25.878-4.1,34.8,1.769C2374.751,1593.3,2376.785,1593.225,2377.047,1596.211Z" transform="translate(-2326.709 -1581.185)" fill="#ebb44b"/>
              <ellipse id="Elipse_1029" data-name="Elipse 1029" cx="25.187" cy="14.249" rx="25.187" ry="14.249" transform="translate(0.001 0.777)" fill="#fff"/>
              <ellipse id="Elipse_1030" data-name="Elipse 1030" cx="25.187" cy="14.249" rx="25.187" ry="14.249" transform="translate(0.001)" fill="#ffd482"/>
              <ellipse id="Elipse_1031" data-name="Elipse 1031" cx="17.608" cy="9.961" rx="17.608" ry="9.961" transform="translate(7.562 3.913)" fill="#fff"/>
              <path id="Trazado_47176" data-name="Trazado 47176" d="M2393.345,1583.382c7.491-3.51,18.591-2.92,24.792,1.316,2.472,1.689,3.791,3.7,4.01,5.735.263-2.435-1.044-4.929-4.01-6.956-6.2-4.237-17.3-4.826-24.792-1.317-4.5,2.111-6.677,5.223-6.346,8.29C2387.285,1587.8,2389.438,1585.213,2393.345,1583.382Z" transform="translate(-2379.403 -1575.958)" fill="#f2c97b"/>
              <path id="Trazado_47177" data-name="Trazado 47177" d="M2449.946,1628.212a4.81,4.81,0,0,1-1.917-3.212l3.474-.206a3.626,3.626,0,0,0,1.64,2.569,2.95,2.95,0,0,0,3.162.35c2.259-1.118-3.162-4.677.785-6.631a8.4,8.4,0,0,1,7.153.054l2.258-1.118,1.975,1.316-2.215,1.1a3.163,3.163,0,0,1,1.236,2.911l-3.349-.092a2.2,2.2,0,0,0-1.124-2.021,2.728,2.728,0,0,0-2.91-.309c-2.083,1.031,3.469,4.525-.72,6.6a8.669,8.669,0,0,1-7.388-.033l-2.28,1.129-1.976-1.316Z" transform="translate(-2432.562 -1611.066)" fill="#ffd482"/>
            </g>
          </g>
        </g>
        <line id="Línea_60" data-name="Línea 60" x2="0.064" y2="6.057" transform="translate(25.553 29.532)" fill="none" stroke="#ffd482" stroke-linecap="round" stroke-linejoin="round" stroke-width="3.158"/>
        <line id="Línea_61" data-name="Línea 61" x2="0.024" y2="5.892" transform="translate(32.034 29.081)" fill="none" stroke="#ffd482" stroke-linecap="round" stroke-linejoin="round" stroke-width="3.158"/>
        <line id="Línea_62" data-name="Línea 62" x2="0.024" y2="5.892" transform="translate(38.191 27.592)" fill="none" stroke="#ffd482" stroke-linecap="round" stroke-linejoin="round" stroke-width="3.158"/>
        <line id="Línea_63" data-name="Línea 63" x2="0.022" y2="5.433" transform="translate(43.715 25.076)" fill="none" stroke="#ffd482" stroke-linecap="round" stroke-linejoin="round" stroke-width="3.158"/>
        <line id="Línea_64" data-name="Línea 64" x1="0.126" y2="5.522" transform="translate(48.11 21.261)" fill="none" stroke="#ffd482" stroke-linecap="round" stroke-linejoin="round" stroke-width="3.158"/>
        <line id="Línea_65" data-name="Línea 65" x1="0.024" y2="5.892" transform="translate(18.749 29.081)" fill="none" stroke="#ffd482" stroke-linecap="round" stroke-linejoin="round" stroke-width="3.158"/>
        <line id="Línea_66" data-name="Línea 66" x1="0.024" y2="5.892" transform="translate(12.591 27.592)" fill="none" stroke="#ffd482" stroke-linecap="round" stroke-linejoin="round" stroke-width="3.158"/>
        <line id="Línea_67" data-name="Línea 67" x1="0.022" y2="5.433" transform="translate(7.07 25.076)" fill="none" stroke="#ffd482" stroke-linecap="round" stroke-linejoin="round" stroke-width="3.158"/>
        <line id="Línea_68" data-name="Línea 68" x2="0.126" y2="5.522" transform="translate(2.57 21.261)" fill="none" stroke="#ffd482" stroke-linecap="round" stroke-linejoin="round" stroke-width="3.158"/>
      </g>
      <g id="Grupo_21306" data-name="Grupo 21306" transform="translate(0 21.714)">
        <g id="Grupo_21305" data-name="Grupo 21305">
          <g id="Grupo_21304" data-name="Grupo 21304">
            <g id="Grupo_21303" data-name="Grupo 21303">
              <path id="Trazado_47178" data-name="Trazado 47178" d="M2377.047,1512.9a42.743,42.743,0,0,1-.608,8.9c-.8,3.19-3.575,6.218-8.268,8.449-10.3,4.9-25.878,4.1-34.8-1.769-4.159-2.737-6.417-5.519-6.47-8.993-.134-1.879-.191-7.123-.191-7.123.328-1.146,1.656.048,2.5-1.021a16.788,16.788,0,0,1,6.986-5.6c10.3-4.9,25.878-4.1,34.8,1.769C2374.751,1509.989,2376.785,1509.913,2377.047,1512.9Z" transform="translate(-2326.709 -1497.874)" fill="#ebb44b"/>
              <ellipse id="Elipse_1032" data-name="Elipse 1032" cx="25.187" cy="14.249" rx="25.187" ry="14.249" transform="translate(0.001 0.777)" fill="#fff"/>
              <ellipse id="Elipse_1033" data-name="Elipse 1033" cx="25.187" cy="14.249" rx="25.187" ry="14.249" transform="translate(0.001)" fill="#ffd482"/>
              <ellipse id="Elipse_1034" data-name="Elipse 1034" cx="17.608" cy="9.961" rx="17.608" ry="9.961" transform="translate(7.562 3.913)" fill="#fff"/>
              <path id="Trazado_47179" data-name="Trazado 47179" d="M2393.345,1500.07c7.491-3.51,18.591-2.92,24.792,1.317,2.472,1.689,3.791,3.7,4.01,5.735.263-2.435-1.044-4.929-4.01-6.956-6.2-4.237-17.3-4.826-24.792-1.317-4.5,2.11-6.677,5.223-6.346,8.29C2387.285,1504.485,2389.438,1501.9,2393.345,1500.07Z" transform="translate(-2379.403 -1492.646)" fill="#f2c97b"/>
              <path id="Trazado_47180" data-name="Trazado 47180" d="M2449.946,1544.9a4.811,4.811,0,0,1-1.917-3.212l3.474-.206a3.625,3.625,0,0,0,1.64,2.569,2.95,2.95,0,0,0,3.162.35c2.259-1.118-3.162-4.677.785-6.631a8.4,8.4,0,0,1,7.153.054l2.258-1.118,1.975,1.316-2.215,1.1a3.163,3.163,0,0,1,1.236,2.911l-3.349-.092a2.2,2.2,0,0,0-1.124-2.021,2.728,2.728,0,0,0-2.91-.309c-2.083,1.031,3.469,4.526-.72,6.6a8.669,8.669,0,0,1-7.388-.033l-2.28,1.129-1.976-1.316Z" transform="translate(-2432.562 -1527.755)" fill="#ffd482"/>
            </g>
          </g>
        </g>
        <line id="Línea_69" data-name="Línea 69" x2="0.064" y2="6.057" transform="translate(25.553 29.532)" fill="none" stroke="#ffd482" stroke-linecap="round" stroke-linejoin="round" stroke-width="3.158"/>
        <line id="Línea_70" data-name="Línea 70" x2="0.024" y2="5.892" transform="translate(32.034 29.081)" fill="none" stroke="#ffd482" stroke-linecap="round" stroke-linejoin="round" stroke-width="3.158"/>
        <line id="Línea_71" data-name="Línea 71" x2="0.024" y2="5.892" transform="translate(38.191 27.592)" fill="none" stroke="#ffd482" stroke-linecap="round" stroke-linejoin="round" stroke-width="3.158"/>
        <line id="Línea_72" data-name="Línea 72" x2="0.022" y2="5.433" transform="translate(43.715 25.076)" fill="none" stroke="#ffd482" stroke-linecap="round" stroke-linejoin="round" stroke-width="3.158"/>
        <line id="Línea_73" data-name="Línea 73" x1="0.126" y2="5.522" transform="translate(48.11 21.261)" fill="none" stroke="#ffd482" stroke-linecap="round" stroke-linejoin="round" stroke-width="3.158"/>
        <line id="Línea_74" data-name="Línea 74" x1="0.024" y2="5.892" transform="translate(18.749 29.081)" fill="none" stroke="#ffd482" stroke-linecap="round" stroke-linejoin="round" stroke-width="3.158"/>
        <line id="Línea_75" data-name="Línea 75" x1="0.024" y2="5.892" transform="translate(12.591 27.592)" fill="none" stroke="#ffd482" stroke-linecap="round" stroke-linejoin="round" stroke-width="3.158"/>
        <line id="Línea_76" data-name="Línea 76" x1="0.022" y2="5.433" transform="translate(7.07 25.076)" fill="none" stroke="#ffd482" stroke-linecap="round" stroke-linejoin="round" stroke-width="3.158"/>
        <line id="Línea_77" data-name="Línea 77" x2="0.126" y2="5.522" transform="translate(2.57 21.261)" fill="none" stroke="#ffd482" stroke-linecap="round" stroke-linejoin="round" stroke-width="3.158"/>
      </g>
      <g id="Grupo_21310" data-name="Grupo 21310" transform="translate(0 10.543)">
        <g id="Grupo_21309" data-name="Grupo 21309">
          <g id="Grupo_21308" data-name="Grupo 21308">
            <g id="Grupo_21307" data-name="Grupo 21307">
              <path id="Trazado_47181" data-name="Trazado 47181" d="M2377.047,1423.894a42.744,42.744,0,0,1-.608,8.9c-.8,3.19-3.575,6.218-8.268,8.449-10.3,4.9-25.878,4.1-34.8-1.769-4.159-2.737-6.417-5.518-6.47-8.992-.134-1.879-.191-7.123-.191-7.123.328-1.146,1.656.048,2.5-1.021a16.787,16.787,0,0,1,6.986-5.6c10.3-4.9,25.878-4.1,34.8,1.769C2374.751,1420.984,2376.785,1420.908,2377.047,1423.894Z" transform="translate(-2326.709 -1408.868)" fill="#ebb44b"/>
              <ellipse id="Elipse_1035" data-name="Elipse 1035" cx="25.187" cy="14.249" rx="25.187" ry="14.249" transform="translate(0.001 0.777)" fill="#fff"/>
              <ellipse id="Elipse_1036" data-name="Elipse 1036" cx="25.187" cy="14.249" rx="25.187" ry="14.249" transform="translate(0.001)" fill="#ffd482"/>
              <ellipse id="Elipse_1037" data-name="Elipse 1037" cx="17.608" cy="9.961" rx="17.608" ry="9.961" transform="translate(7.562 3.913)" fill="#fff"/>
              <path id="Trazado_47182" data-name="Trazado 47182" d="M2393.345,1411.065c7.491-3.51,18.591-2.92,24.792,1.317,2.472,1.689,3.791,3.7,4.01,5.736.263-2.435-1.044-4.93-4.01-6.956-6.2-4.237-17.3-4.826-24.792-1.317-4.5,2.11-6.677,5.223-6.346,8.29C2387.285,1415.48,2389.438,1412.9,2393.345,1411.065Z" transform="translate(-2379.403 -1403.641)" fill="#f2c97b"/>
              <path id="Trazado_47183" data-name="Trazado 47183" d="M2449.946,1455.9a4.811,4.811,0,0,1-1.917-3.212l3.474-.207a3.626,3.626,0,0,0,1.64,2.569,2.95,2.95,0,0,0,3.162.35c2.259-1.118-3.162-4.677.785-6.631a8.4,8.4,0,0,1,7.153.054l2.258-1.118,1.975,1.316-2.215,1.1a3.164,3.164,0,0,1,1.236,2.912l-3.349-.092a2.2,2.2,0,0,0-1.124-2.021,2.728,2.728,0,0,0-2.91-.309c-2.083,1.031,3.469,4.525-.72,6.6a8.669,8.669,0,0,1-7.388-.032l-2.28,1.129-1.976-1.316Z" transform="translate(-2432.562 -1438.75)" fill="#ffd482"/>
            </g>
          </g>
        </g>
        <line id="Línea_78" data-name="Línea 78" x2="0.064" y2="6.057" transform="translate(25.553 29.532)" fill="none" stroke="#ffd482" stroke-linecap="round" stroke-linejoin="round" stroke-width="3.158"/>
        <line id="Línea_79" data-name="Línea 79" x2="0.024" y2="5.892" transform="translate(32.034 29.081)" fill="none" stroke="#ffd482" stroke-linecap="round" stroke-linejoin="round" stroke-width="3.158"/>
        <line id="Línea_80" data-name="Línea 80" x2="0.024" y2="5.892" transform="translate(38.191 27.592)" fill="none" stroke="#ffd482" stroke-linecap="round" stroke-linejoin="round" stroke-width="3.158"/>
        <line id="Línea_81" data-name="Línea 81" x2="0.022" y2="5.433" transform="translate(43.715 25.076)" fill="none" stroke="#ffd482" stroke-linecap="round" stroke-linejoin="round" stroke-width="3.158"/>
        <line id="Línea_82" data-name="Línea 82" x1="0.126" y2="5.522" transform="translate(48.11 21.261)" fill="none" stroke="#ffd482" stroke-linecap="round" stroke-linejoin="round" stroke-width="3.158"/>
        <line id="Línea_83" data-name="Línea 83" x1="0.024" y2="5.892" transform="translate(18.749 29.081)" fill="none" stroke="#ffd482" stroke-linecap="round" stroke-linejoin="round" stroke-width="3.158"/>
        <line id="Línea_84" data-name="Línea 84" x1="0.024" y2="5.892" transform="translate(12.591 27.592)" fill="none" stroke="#ffd482" stroke-linecap="round" stroke-linejoin="round" stroke-width="3.158"/>
        <line id="Línea_85" data-name="Línea 85" x1="0.022" y2="5.433" transform="translate(7.07 25.076)" fill="none" stroke="#ffd482" stroke-linecap="round" stroke-linejoin="round" stroke-width="3.158"/>
        <line id="Línea_86" data-name="Línea 86" x2="0.126" y2="5.522" transform="translate(2.57 21.261)" fill="none" stroke="#ffd482" stroke-linecap="round" stroke-linejoin="round" stroke-width="3.158"/>
      </g>
      <g id="Grupo_21314" data-name="Grupo 21314">
        <g id="Grupo_21313" data-name="Grupo 21313">
          <g id="Grupo_21312" data-name="Grupo 21312">
            <g id="Grupo_21311" data-name="Grupo 21311">
              <path id="Trazado_47184" data-name="Trazado 47184" d="M2377.047,1339.885a42.747,42.747,0,0,1-.608,8.9c-.8,3.19-3.575,6.218-8.268,8.449-10.3,4.9-25.878,4.1-34.8-1.769-4.159-2.737-6.417-5.518-6.47-8.992-.134-1.879-.191-7.123-.191-7.123.328-1.146,1.656.048,2.5-1.021a16.786,16.786,0,0,1,6.986-5.6c10.3-4.9,25.878-4.1,34.8,1.769C2374.751,1336.974,2376.785,1336.9,2377.047,1339.885Z" transform="translate(-2326.709 -1324.859)" fill="#ebb44b"/>
              <ellipse id="Elipse_1038" data-name="Elipse 1038" cx="25.187" cy="14.249" rx="25.187" ry="14.249" transform="translate(0.001 0.777)" fill="#fff"/>
              <ellipse id="Elipse_1039" data-name="Elipse 1039" cx="25.187" cy="14.249" rx="25.187" ry="14.249" transform="translate(0.001)" fill="#ffd482"/>
              <ellipse id="Elipse_1040" data-name="Elipse 1040" cx="17.608" cy="9.961" rx="17.608" ry="9.961" transform="translate(7.562 3.913)" fill="#fff"/>
              <path id="Trazado_47185" data-name="Trazado 47185" d="M2393.345,1327.056c7.491-3.51,18.591-2.92,24.792,1.316,2.472,1.689,3.791,3.7,4.01,5.735.263-2.435-1.044-4.929-4.01-6.956-6.2-4.237-17.3-4.826-24.792-1.317-4.5,2.11-6.677,5.223-6.346,8.29C2387.285,1331.47,2389.438,1328.886,2393.345,1327.056Z" transform="translate(-2379.403 -1319.631)" fill="#f2c97b"/>
              <path id="Trazado_47186" data-name="Trazado 47186" d="M2449.946,1371.885a4.811,4.811,0,0,1-1.917-3.212l3.474-.206a3.626,3.626,0,0,0,1.64,2.569,2.951,2.951,0,0,0,3.162.35c2.259-1.118-3.162-4.677.785-6.631a8.4,8.4,0,0,1,7.153.054l2.258-1.118,1.975,1.316-2.215,1.1a3.163,3.163,0,0,1,1.236,2.911l-3.349-.092a2.2,2.2,0,0,0-1.124-2.021,2.728,2.728,0,0,0-2.91-.309c-2.083,1.031,3.469,4.525-.72,6.6a8.671,8.671,0,0,1-7.388-.032l-2.28,1.129-1.976-1.316Z" transform="translate(-2432.562 -1354.74)" fill="#ffd482"/>
            </g>
          </g>
        </g>
        <line id="Línea_87" data-name="Línea 87" x2="0.064" y2="6.057" transform="translate(25.553 29.532)" fill="none" stroke="#ffd482" stroke-linecap="round" stroke-linejoin="round" stroke-width="3.158"/>
        <line id="Línea_88" data-name="Línea 88" x2="0.024" y2="5.892" transform="translate(32.034 29.081)" fill="none" stroke="#ffd482" stroke-linecap="round" stroke-linejoin="round" stroke-width="3.158"/>
        <line id="Línea_89" data-name="Línea 89" x2="0.024" y2="5.892" transform="translate(38.191 27.592)" fill="none" stroke="#ffd482" stroke-linecap="round" stroke-linejoin="round" stroke-width="3.158"/>
        <line id="Línea_90" data-name="Línea 90" x2="0.022" y2="5.433" transform="translate(43.715 25.076)" fill="none" stroke="#ffd482" stroke-linecap="round" stroke-linejoin="round" stroke-width="3.158"/>
        <line id="Línea_91" data-name="Línea 91" x1="0.126" y2="5.522" transform="translate(48.11 21.261)" fill="none" stroke="#ffd482" stroke-linecap="round" stroke-linejoin="round" stroke-width="3.158"/>
        <line id="Línea_92" data-name="Línea 92" x1="0.024" y2="5.892" transform="translate(18.749 29.081)" fill="none" stroke="#ffd482" stroke-linecap="round" stroke-linejoin="round" stroke-width="3.158"/>
        <line id="Línea_93" data-name="Línea 93" x1="0.024" y2="5.892" transform="translate(12.591 27.592)" fill="none" stroke="#ffd482" stroke-linecap="round" stroke-linejoin="round" stroke-width="3.158"/>
        <line id="Línea_94" data-name="Línea 94" x1="0.022" y2="5.433" transform="translate(7.07 25.076)" fill="none" stroke="#ffd482" stroke-linecap="round" stroke-linejoin="round" stroke-width="3.158"/>
        <line id="Línea_95" data-name="Línea 95" x2="0.126" y2="5.522" transform="translate(2.57 21.261)" fill="none" stroke="#ffd482" stroke-linecap="round" stroke-linejoin="round" stroke-width="3.158"/>
      </g>
    </g>
    <g id="Grupo_21332" data-name="Grupo 21332" transform="translate(601.675 312.429)">
      <g id="Grupo_21319" data-name="Grupo 21319" transform="translate(0 32.169)">
        <g id="Grupo_21318" data-name="Grupo 21318">
          <ellipse id="Elipse_1041" data-name="Elipse 1041" cx="25.187" cy="14.249" rx="25.187" ry="14.249" transform="translate(8.401 5.877)" fill="#a8c4e5" opacity="0.4" style="mix-blend-mode: multiply;isolation: isolate"/>
          <g id="Grupo_21317" data-name="Grupo 21317">
            <g id="Grupo_21316" data-name="Grupo 21316">
              <path id="Trazado_47187" data-name="Trazado 47187" d="M2066.472,1772.992a42.743,42.743,0,0,1-.608,8.9c-.8,3.19-3.575,6.218-8.268,8.449-10.3,4.9-25.878,4.1-34.8-1.769-4.159-2.737-6.417-5.519-6.469-8.992-.134-1.879-.191-7.123-.191-7.123.328-1.146,1.656.048,2.5-1.021a16.787,16.787,0,0,1,6.986-5.6c10.3-4.9,25.877-4.1,34.8,1.769C2064.176,1770.081,2066.21,1770.006,2066.472,1772.992Z" transform="translate(-2016.134 -1757.966)" fill="#ebb44b"/>
              <ellipse id="Elipse_1042" data-name="Elipse 1042" cx="25.187" cy="14.249" rx="25.187" ry="14.249" transform="translate(0.001 0.777)" fill="#fff"/>
              <ellipse id="Elipse_1043" data-name="Elipse 1043" cx="25.187" cy="14.249" rx="25.187" ry="14.249" transform="translate(0.001)" fill="#ffd482"/>
              <ellipse id="Elipse_1044" data-name="Elipse 1044" cx="17.608" cy="9.961" rx="17.608" ry="9.961" transform="translate(7.561 3.913)" fill="#fff"/>
              <path id="Trazado_47188" data-name="Trazado 47188" d="M2082.77,1760.163c7.491-3.51,18.59-2.92,24.791,1.317,2.472,1.689,3.791,3.7,4.01,5.735.263-2.435-1.044-4.929-4.01-6.956-6.2-4.237-17.3-4.826-24.791-1.316-4.505,2.111-6.678,5.223-6.347,8.29C2076.71,1764.578,2078.863,1761.993,2082.77,1760.163Z" transform="translate(-2068.828 -1752.739)" fill="#f2c97b"/>
              <path id="Trazado_47189" data-name="Trazado 47189" d="M2139.371,1804.993a4.812,4.812,0,0,1-1.917-3.212l3.474-.207a3.626,3.626,0,0,0,1.64,2.569,2.951,2.951,0,0,0,3.162.35c2.259-1.118-3.161-4.677.786-6.631a8.4,8.4,0,0,1,7.152.054l2.258-1.118,1.975,1.316-2.214,1.1a3.162,3.162,0,0,1,1.236,2.911l-3.349-.092a2.2,2.2,0,0,0-1.124-2.021,2.728,2.728,0,0,0-2.91-.309c-2.083,1.031,3.469,4.525-.72,6.6a8.67,8.67,0,0,1-7.387-.033l-2.281,1.129-1.975-1.316Z" transform="translate(-2121.987 -1787.848)" fill="#ffd482"/>
            </g>
          </g>
        </g>
        <line id="Línea_96" data-name="Línea 96" x2="0.064" y2="6.057" transform="translate(25.553 29.532)" fill="none" stroke="#ffd482" stroke-linecap="round" stroke-linejoin="round" stroke-width="3.158"/>
        <line id="Línea_97" data-name="Línea 97" x2="0.024" y2="5.892" transform="translate(32.034 29.081)" fill="none" stroke="#ffd482" stroke-linecap="round" stroke-linejoin="round" stroke-width="3.158"/>
        <line id="Línea_98" data-name="Línea 98" x2="0.024" y2="5.892" transform="translate(38.191 27.592)" fill="none" stroke="#ffd482" stroke-linecap="round" stroke-linejoin="round" stroke-width="3.158"/>
        <line id="Línea_99" data-name="Línea 99" x2="0.022" y2="5.433" transform="translate(43.715 25.076)" fill="none" stroke="#ffd482" stroke-linecap="round" stroke-linejoin="round" stroke-width="3.158"/>
        <line id="Línea_100" data-name="Línea 100" x1="0.126" y2="5.522" transform="translate(48.11 21.261)" fill="none" stroke="#ffd482" stroke-linecap="round" stroke-linejoin="round" stroke-width="3.158"/>
        <line id="Línea_101" data-name="Línea 101" x1="0.024" y2="5.892" transform="translate(18.749 29.081)" fill="none" stroke="#ffd482" stroke-linecap="round" stroke-linejoin="round" stroke-width="3.158"/>
        <line id="Línea_102" data-name="Línea 102" x1="0.024" y2="5.892" transform="translate(12.591 27.592)" fill="none" stroke="#ffd482" stroke-linecap="round" stroke-linejoin="round" stroke-width="3.158"/>
        <line id="Línea_103" data-name="Línea 103" x1="0.022" y2="5.433" transform="translate(7.069 25.076)" fill="none" stroke="#ffd482" stroke-linecap="round" stroke-linejoin="round" stroke-width="3.158"/>
        <line id="Línea_104" data-name="Línea 104" x2="0.126" y2="5.522" transform="translate(2.57 21.261)" fill="none" stroke="#ffd482" stroke-linecap="round" stroke-linejoin="round" stroke-width="3.158"/>
      </g>
      <g id="Grupo_21323" data-name="Grupo 21323" transform="translate(0 21.714)">
        <g id="Grupo_21322" data-name="Grupo 21322">
          <g id="Grupo_21321" data-name="Grupo 21321">
            <g id="Grupo_21320" data-name="Grupo 21320">
              <path id="Trazado_47190" data-name="Trazado 47190" d="M2066.472,1689.681a42.749,42.749,0,0,1-.608,8.9c-.8,3.19-3.575,6.218-8.268,8.448-10.3,4.9-25.878,4.1-34.8-1.769-4.159-2.737-6.417-5.518-6.469-8.992-.134-1.879-.191-7.123-.191-7.123.328-1.146,1.656.048,2.5-1.021a16.781,16.781,0,0,1,6.986-5.6c10.3-4.9,25.877-4.1,34.8,1.769C2064.176,1686.77,2066.21,1686.694,2066.472,1689.681Z" transform="translate(-2016.134 -1674.655)" fill="#ebb44b"/>
              <ellipse id="Elipse_1045" data-name="Elipse 1045" cx="25.187" cy="14.249" rx="25.187" ry="14.249" transform="translate(0.001 0.777)" fill="#fff"/>
              <ellipse id="Elipse_1046" data-name="Elipse 1046" cx="25.187" cy="14.249" rx="25.187" ry="14.249" transform="translate(0.001)" fill="#ffd482"/>
              <ellipse id="Elipse_1047" data-name="Elipse 1047" cx="17.608" cy="9.961" rx="17.608" ry="9.961" transform="translate(7.561 3.913)" fill="#fff"/>
              <path id="Trazado_47191" data-name="Trazado 47191" d="M2082.77,1676.852c7.491-3.51,18.59-2.92,24.791,1.317,2.472,1.689,3.791,3.7,4.01,5.735.263-2.435-1.044-4.929-4.01-6.956-6.2-4.237-17.3-4.826-24.791-1.317-4.505,2.11-6.678,5.223-6.347,8.29C2076.71,1681.266,2078.863,1678.682,2082.77,1676.852Z" transform="translate(-2068.828 -1669.427)" fill="#f2c97b"/>
              <path id="Trazado_47192" data-name="Trazado 47192" d="M2139.371,1721.681a4.812,4.812,0,0,1-1.917-3.212l3.474-.206a3.626,3.626,0,0,0,1.64,2.569,2.951,2.951,0,0,0,3.162.35c2.259-1.118-3.161-4.678.786-6.631a8.4,8.4,0,0,1,7.152.054l2.258-1.118,1.975,1.316-2.214,1.1a3.162,3.162,0,0,1,1.236,2.911l-3.349-.092a2.2,2.2,0,0,0-1.124-2.021,2.728,2.728,0,0,0-2.91-.309c-2.083,1.031,3.469,4.525-.72,6.6a8.668,8.668,0,0,1-7.387-.033l-2.281,1.129-1.975-1.316Z" transform="translate(-2121.987 -1704.536)" fill="#ffd482"/>
            </g>
          </g>
        </g>
        <line id="Línea_105" data-name="Línea 105" x2="0.064" y2="6.057" transform="translate(25.553 29.532)" fill="none" stroke="#ffd482" stroke-linecap="round" stroke-linejoin="round" stroke-width="3.158"/>
        <line id="Línea_106" data-name="Línea 106" x2="0.024" y2="5.892" transform="translate(32.034 29.081)" fill="none" stroke="#ffd482" stroke-linecap="round" stroke-linejoin="round" stroke-width="3.158"/>
        <line id="Línea_107" data-name="Línea 107" x2="0.024" y2="5.892" transform="translate(38.191 27.592)" fill="none" stroke="#ffd482" stroke-linecap="round" stroke-linejoin="round" stroke-width="3.158"/>
        <line id="Línea_108" data-name="Línea 108" x2="0.022" y2="5.433" transform="translate(43.715 25.076)" fill="none" stroke="#ffd482" stroke-linecap="round" stroke-linejoin="round" stroke-width="3.158"/>
        <line id="Línea_109" data-name="Línea 109" x1="0.126" y2="5.522" transform="translate(48.11 21.261)" fill="none" stroke="#ffd482" stroke-linecap="round" stroke-linejoin="round" stroke-width="3.158"/>
        <line id="Línea_110" data-name="Línea 110" x1="0.024" y2="5.892" transform="translate(18.749 29.081)" fill="none" stroke="#ffd482" stroke-linecap="round" stroke-linejoin="round" stroke-width="3.158"/>
        <line id="Línea_111" data-name="Línea 111" x1="0.024" y2="5.892" transform="translate(12.591 27.592)" fill="none" stroke="#ffd482" stroke-linecap="round" stroke-linejoin="round" stroke-width="3.158"/>
        <line id="Línea_112" data-name="Línea 112" x1="0.022" y2="5.433" transform="translate(7.069 25.076)" fill="none" stroke="#ffd482" stroke-linecap="round" stroke-linejoin="round" stroke-width="3.158"/>
        <line id="Línea_113" data-name="Línea 113" x2="0.126" y2="5.522" transform="translate(2.57 21.261)" fill="none" stroke="#ffd482" stroke-linecap="round" stroke-linejoin="round" stroke-width="3.158"/>
      </g>
      <g id="Grupo_21327" data-name="Grupo 21327" transform="translate(0 10.543)">
        <g id="Grupo_21326" data-name="Grupo 21326">
          <g id="Grupo_21325" data-name="Grupo 21325">
            <g id="Grupo_21324" data-name="Grupo 21324">
              <path id="Trazado_47193" data-name="Trazado 47193" d="M2066.472,1600.675a42.745,42.745,0,0,1-.608,8.9c-.8,3.19-3.575,6.218-8.268,8.449-10.3,4.9-25.878,4.1-34.8-1.769-4.159-2.737-6.417-5.518-6.469-8.992-.134-1.879-.191-7.123-.191-7.123.328-1.146,1.656.048,2.5-1.022a16.783,16.783,0,0,1,6.986-5.6c10.3-4.9,25.877-4.1,34.8,1.769C2064.176,1597.765,2066.21,1597.689,2066.472,1600.675Z" transform="translate(-2016.134 -1585.649)" fill="#ebb44b"/>
              <ellipse id="Elipse_1048" data-name="Elipse 1048" cx="25.187" cy="14.249" rx="25.187" ry="14.249" transform="translate(0.001 0.777)" fill="#fff"/>
              <ellipse id="Elipse_1049" data-name="Elipse 1049" cx="25.187" cy="14.249" rx="25.187" ry="14.249" transform="translate(0.001)" fill="#ffd482"/>
              <ellipse id="Elipse_1050" data-name="Elipse 1050" cx="17.608" cy="9.961" rx="17.608" ry="9.961" transform="translate(7.561 3.913)" fill="#fff"/>
              <path id="Trazado_47194" data-name="Trazado 47194" d="M2082.77,1587.846c7.491-3.51,18.59-2.92,24.791,1.317,2.472,1.689,3.791,3.7,4.01,5.736.263-2.435-1.044-4.93-4.01-6.956-6.2-4.237-17.3-4.826-24.791-1.317-4.505,2.111-6.678,5.223-6.347,8.29C2076.71,1592.261,2078.863,1589.677,2082.77,1587.846Z" transform="translate(-2068.828 -1580.422)" fill="#f2c97b"/>
              <path id="Trazado_47195" data-name="Trazado 47195" d="M2139.371,1632.676a4.812,4.812,0,0,1-1.917-3.212l3.474-.207a3.626,3.626,0,0,0,1.64,2.569,2.951,2.951,0,0,0,3.162.35c2.259-1.118-3.161-4.677.786-6.631a8.4,8.4,0,0,1,7.152.054l2.258-1.118,1.975,1.316-2.214,1.1a3.163,3.163,0,0,1,1.236,2.911l-3.349-.092a2.2,2.2,0,0,0-1.124-2.021,2.728,2.728,0,0,0-2.91-.31c-2.083,1.031,3.469,4.525-.72,6.6a8.669,8.669,0,0,1-7.387-.033l-2.281,1.129-1.975-1.316Z" transform="translate(-2121.987 -1615.531)" fill="#ffd482"/>
            </g>
          </g>
        </g>
        <line id="Línea_114" data-name="Línea 114" x2="0.064" y2="6.057" transform="translate(25.553 29.532)" fill="none" stroke="#ffd482" stroke-linecap="round" stroke-linejoin="round" stroke-width="3.158"/>
        <line id="Línea_115" data-name="Línea 115" x2="0.024" y2="5.892" transform="translate(32.034 29.081)" fill="none" stroke="#ffd482" stroke-linecap="round" stroke-linejoin="round" stroke-width="3.158"/>
        <line id="Línea_116" data-name="Línea 116" x2="0.024" y2="5.892" transform="translate(38.191 27.592)" fill="none" stroke="#ffd482" stroke-linecap="round" stroke-linejoin="round" stroke-width="3.158"/>
        <line id="Línea_117" data-name="Línea 117" x2="0.022" y2="5.433" transform="translate(43.715 25.076)" fill="none" stroke="#ffd482" stroke-linecap="round" stroke-linejoin="round" stroke-width="3.158"/>
        <line id="Línea_118" data-name="Línea 118" x1="0.126" y2="5.522" transform="translate(48.11 21.261)" fill="none" stroke="#ffd482" stroke-linecap="round" stroke-linejoin="round" stroke-width="3.158"/>
        <line id="Línea_119" data-name="Línea 119" x1="0.024" y2="5.892" transform="translate(18.749 29.081)" fill="none" stroke="#ffd482" stroke-linecap="round" stroke-linejoin="round" stroke-width="3.158"/>
        <line id="Línea_120" data-name="Línea 120" x1="0.024" y2="5.892" transform="translate(12.591 27.592)" fill="none" stroke="#ffd482" stroke-linecap="round" stroke-linejoin="round" stroke-width="3.158"/>
        <line id="Línea_121" data-name="Línea 121" x1="0.022" y2="5.433" transform="translate(7.069 25.076)" fill="none" stroke="#ffd482" stroke-linecap="round" stroke-linejoin="round" stroke-width="3.158"/>
        <line id="Línea_122" data-name="Línea 122" x2="0.126" y2="5.522" transform="translate(2.57 21.261)" fill="none" stroke="#ffd482" stroke-linecap="round" stroke-linejoin="round" stroke-width="3.158"/>
      </g>
      <g id="Grupo_21331" data-name="Grupo 21331" transform="translate(0)">
        <g id="Grupo_21330" data-name="Grupo 21330">
          <g id="Grupo_21329" data-name="Grupo 21329">
            <g id="Grupo_21328" data-name="Grupo 21328">
              <path id="Trazado_47196" data-name="Trazado 47196" d="M2066.472,1516.666a42.747,42.747,0,0,1-.608,8.9c-.8,3.19-3.575,6.217-8.268,8.449-10.3,4.9-25.878,4.1-34.8-1.769-4.159-2.737-6.417-5.518-6.469-8.992-.134-1.879-.191-7.123-.191-7.123.328-1.146,1.656.048,2.5-1.021a16.781,16.781,0,0,1,6.986-5.6c10.3-4.9,25.877-4.1,34.8,1.769C2064.176,1513.755,2066.21,1513.679,2066.472,1516.666Z" transform="translate(-2016.134 -1501.64)" fill="#ebb44b"/>
              <ellipse id="Elipse_1051" data-name="Elipse 1051" cx="25.187" cy="14.249" rx="25.187" ry="14.249" transform="translate(0.001 0.777)" fill="#fff"/>
              <ellipse id="Elipse_1052" data-name="Elipse 1052" cx="25.187" cy="14.249" rx="25.187" ry="14.249" transform="translate(0.001)" fill="#ffd482"/>
              <ellipse id="Elipse_1053" data-name="Elipse 1053" cx="17.608" cy="9.961" rx="17.608" ry="9.961" transform="translate(7.561 3.913)" fill="#fff"/>
              <path id="Trazado_47197" data-name="Trazado 47197" d="M2082.77,1503.837c7.491-3.51,18.59-2.92,24.791,1.317,2.472,1.689,3.791,3.7,4.01,5.735.263-2.435-1.044-4.929-4.01-6.956-6.2-4.237-17.3-4.826-24.791-1.317-4.505,2.11-6.678,5.223-6.347,8.29C2076.71,1508.251,2078.863,1505.667,2082.77,1503.837Z" transform="translate(-2068.828 -1496.412)" fill="#f2c97b"/>
              <path id="Trazado_47198" data-name="Trazado 47198" d="M2139.371,1548.666a4.812,4.812,0,0,1-1.917-3.212l3.474-.206a3.626,3.626,0,0,0,1.64,2.569,2.951,2.951,0,0,0,3.162.35c2.259-1.118-3.161-4.677.786-6.631a8.4,8.4,0,0,1,7.152.054l2.258-1.118,1.975,1.316-2.214,1.1a3.163,3.163,0,0,1,1.236,2.911l-3.349-.092a2.2,2.2,0,0,0-1.124-2.021,2.728,2.728,0,0,0-2.91-.309c-2.083,1.031,3.469,4.525-.72,6.6a8.668,8.668,0,0,1-7.387-.033l-2.281,1.129-1.975-1.316Z" transform="translate(-2121.987 -1531.521)" fill="#ffd482"/>
            </g>
          </g>
        </g>
        <line id="Línea_123" data-name="Línea 123" x2="0.064" y2="6.057" transform="translate(25.553 29.532)" fill="none" stroke="#ffd482" stroke-linecap="round" stroke-linejoin="round" stroke-width="3.158"/>
        <line id="Línea_124" data-name="Línea 124" x2="0.024" y2="5.892" transform="translate(32.034 29.081)" fill="none" stroke="#ffd482" stroke-linecap="round" stroke-linejoin="round" stroke-width="3.158"/>
        <line id="Línea_125" data-name="Línea 125" x2="0.024" y2="5.892" transform="translate(38.191 27.592)" fill="none" stroke="#ffd482" stroke-linecap="round" stroke-linejoin="round" stroke-width="3.158"/>
        <line id="Línea_126" data-name="Línea 126" x2="0.022" y2="5.433" transform="translate(43.715 25.076)" fill="none" stroke="#ffd482" stroke-linecap="round" stroke-linejoin="round" stroke-width="3.158"/>
        <line id="Línea_127" data-name="Línea 127" x1="0.126" y2="5.522" transform="translate(48.11 21.261)" fill="none" stroke="#ffd482" stroke-linecap="round" stroke-linejoin="round" stroke-width="3.158"/>
        <line id="Línea_128" data-name="Línea 128" x1="0.024" y2="5.892" transform="translate(18.749 29.081)" fill="none" stroke="#ffd482" stroke-linecap="round" stroke-linejoin="round" stroke-width="3.158"/>
        <line id="Línea_129" data-name="Línea 129" x1="0.024" y2="5.892" transform="translate(12.591 27.592)" fill="none" stroke="#ffd482" stroke-linecap="round" stroke-linejoin="round" stroke-width="3.158"/>
        <line id="Línea_130" data-name="Línea 130" x1="0.022" y2="5.433" transform="translate(7.069 25.076)" fill="none" stroke="#ffd482" stroke-linecap="round" stroke-linejoin="round" stroke-width="3.158"/>
        <line id="Línea_131" data-name="Línea 131" x2="0.126" y2="5.522" transform="translate(2.57 21.261)" fill="none" stroke="#ffd482" stroke-linecap="round" stroke-linejoin="round" stroke-width="3.158"/>
      </g>
    </g>
    <g id="Grupo_21336" data-name="Grupo 21336" transform="translate(655.844 341.959)">
      <g id="Grupo_21335" data-name="Grupo 21335">
        <g id="Grupo_21334" data-name="Grupo 21334">
          <g id="Grupo_21333" data-name="Grupo 21333">
            <path id="Trazado_47199" data-name="Trazado 47199" d="M2498.091,1751.966a42.745,42.745,0,0,1-.607,8.9c-.8,3.19-3.576,6.218-8.269,8.449-10.3,4.9-25.878,4.1-34.8-1.769-4.159-2.737-6.417-5.518-6.469-8.993-.134-1.878-.191-7.123-.191-7.123.328-1.146,1.656.048,2.5-1.021a16.782,16.782,0,0,1,6.986-5.6c10.3-4.9,25.878-4.1,34.8,1.768C2495.795,1749.055,2497.829,1748.979,2498.091,1751.966Z" transform="translate(-2447.753 -1736.94)" fill="#ebb44b"/>
            <ellipse id="Elipse_1054" data-name="Elipse 1054" cx="25.187" cy="14.249" rx="25.187" ry="14.249" transform="translate(0.001 0.777)" fill="#fff"/>
            <ellipse id="Elipse_1055" data-name="Elipse 1055" cx="25.187" cy="14.249" rx="25.187" ry="14.249" transform="translate(0.001)" fill="#ffd482"/>
            <ellipse id="Elipse_1056" data-name="Elipse 1056" cx="17.608" cy="9.961" rx="17.608" ry="9.961" transform="translate(7.561 3.913)" fill="#fff"/>
            <path id="Trazado_47200" data-name="Trazado 47200" d="M2514.389,1739.136c7.491-3.509,18.59-2.92,24.791,1.317,2.472,1.689,3.791,3.7,4.01,5.735.263-2.435-1.044-4.929-4.01-6.956-6.2-4.236-17.3-4.826-24.791-1.316-4.505,2.111-6.678,5.223-6.347,8.29C2508.329,1743.551,2510.481,1740.967,2514.389,1739.136Z" transform="translate(-2500.447 -1731.712)" fill="#f2c97b"/>
            <path id="Trazado_47201" data-name="Trazado 47201" d="M2570.989,1783.966a4.816,4.816,0,0,1-1.917-3.212l3.475-.206a3.628,3.628,0,0,0,1.64,2.569,2.95,2.95,0,0,0,3.163.35c2.259-1.118-3.161-4.677.786-6.631a8.4,8.4,0,0,1,7.152.054l2.259-1.118,1.975,1.316-2.214,1.1a3.163,3.163,0,0,1,1.236,2.911l-3.349-.093a2.2,2.2,0,0,0-1.123-2.021,2.728,2.728,0,0,0-2.911-.31c-2.083,1.031,3.469,4.525-.72,6.6a8.67,8.67,0,0,1-7.388-.032l-2.28,1.128-1.975-1.316Z" transform="translate(-2553.605 -1766.82)" fill="#ffd482"/>
          </g>
        </g>
      </g>
      <line id="Línea_132" data-name="Línea 132" x2="0.064" y2="6.057" transform="translate(25.553 29.532)" fill="none" stroke="#ffd482" stroke-linecap="round" stroke-linejoin="round" stroke-width="3.158"/>
      <line id="Línea_133" data-name="Línea 133" x2="0.024" y2="5.892" transform="translate(32.034 29.081)" fill="none" stroke="#ffd482" stroke-linecap="round" stroke-linejoin="round" stroke-width="3.158"/>
      <line id="Línea_134" data-name="Línea 134" x2="0.024" y2="5.892" transform="translate(38.191 27.592)" fill="none" stroke="#ffd482" stroke-linecap="round" stroke-linejoin="round" stroke-width="3.158"/>
      <line id="Línea_135" data-name="Línea 135" x2="0.022" y2="5.433" transform="translate(43.715 25.076)" fill="none" stroke="#ffd482" stroke-linecap="round" stroke-linejoin="round" stroke-width="3.158"/>
      <line id="Línea_136" data-name="Línea 136" x1="0.126" y2="5.522" transform="translate(48.11 21.261)" fill="none" stroke="#ffd482" stroke-linecap="round" stroke-linejoin="round" stroke-width="3.158"/>
      <line id="Línea_137" data-name="Línea 137" x1="0.024" y2="5.892" transform="translate(18.749 29.081)" fill="none" stroke="#ffd482" stroke-linecap="round" stroke-linejoin="round" stroke-width="3.158"/>
      <line id="Línea_138" data-name="Línea 138" x1="0.024" y2="5.892" transform="translate(12.591 27.592)" fill="none" stroke="#ffd482" stroke-linecap="round" stroke-linejoin="round" stroke-width="3.158"/>
      <line id="Línea_139" data-name="Línea 139" x1="0.022" y2="5.433" transform="translate(7.069 25.076)" fill="none" stroke="#ffd482" stroke-linecap="round" stroke-linejoin="round" stroke-width="3.158"/>
      <line id="Línea_140" data-name="Línea 140" x2="0.126" y2="5.522" transform="translate(2.57 21.261)" fill="none" stroke="#ffd482" stroke-linecap="round" stroke-linejoin="round" stroke-width="3.158"/>
    </g>
    <path id="Trazado_47202" data-name="Trazado 47202" d="M3034.239,1049.707s3.318.573,3.481,2.23a18.081,18.081,0,0,1,0,3.216l-11.076-1.2.674-4.59Z" transform="translate(-2479.277 -789.622)" fill="#0f2f69"/>
    <path id="Trazado_47203" data-name="Trazado 47203" d="M2925.13,1135.468s-6.221,10.085-6,16.342c0,0,2.491,3.427,3.632.383,2.786-7.429,4.562-13.788,7.213-16.317S2925.13,1135.468,2925.13,1135.468Z" transform="translate(-2385.252 -864.188)" fill="#ffaa82"/>
    <path id="Trazado_47204" data-name="Trazado 47204" d="M3096.9,1742.166l2.86-6.515a4.6,4.6,0,0,1,2.822-1.058,1.26,1.26,0,0,1,1.107.874l.427,1.116c.66,1.6.615,1.855-.022,2.6l-3.786,4.4a2.581,2.581,0,0,1-2.74.693l-.246-.1A1.188,1.188,0,0,1,3096.9,1742.166Z" transform="translate(-2540.389 -1388.85)" fill="#0f2f69"/>
    <path id="Trazado_47205" data-name="Trazado 47205" d="M3129.955,1706.9c-.006,1.549-3.871,1.961-3.864.412l.021-5.034,3.865-.412Z" transform="translate(-2566.243 -1360.226)" fill="#acaff2"/>
    <path id="Trazado_47206" data-name="Trazado 47206" d="M3063.119,1351.136c-1.1,1.9-3.849,2.2-4.749,1.018l-9.106-52.425,12.935-.981.281,33.512A46.979,46.979,0,0,1,3063.119,1351.136Z" transform="translate(-2499.058 -1007.704)" fill="#dee5ff"/>
    <path id="Trazado_47207" data-name="Trazado 47207" d="M3129.961,1154.454a37.96,37.96,0,0,1,6.587,9.768,6.869,6.869,0,0,1-.449,7.388c-1.752,2.282-3.765,4.852-3.765,4.852l2.246,2.043s8.171-7,6.868-13.418l-4.822-15.206Z" transform="translate(-2569.628 -877.519)" fill="#ffaa82"/>
    <path id="Trazado_47208" data-name="Trazado 47208" d="M3130.829,1360.984l-.364-.343a1.771,1.771,0,0,0-2.481.2l-1.43,1.515a1.768,1.768,0,0,0-.052,2.488l.364.343a1.771,1.771,0,0,0,2.481-.2l1.43-1.515A1.768,1.768,0,0,0,3130.829,1360.984Z" transform="translate(-2566.179 -1061.463)" fill="#ffaa82"/>
    <path id="Trazado_47209" data-name="Trazado 47209" d="M2939.336,1073.959c-3.851,6.174-7.548,12.386-7.965,16.607,1.012,3.531,1.986,1.57,4.456,2.444l7.388-12.965-2.022-3.393Z" transform="translate(-2395.961 -811.127)" fill="#1c4591"/>
    <path id="Trazado_47210" data-name="Trazado 47210" d="M2980.987,1084.362a149.35,149.35,0,0,0-1.5-19.359c-.329-10.537,3.53-14.562,10.245-12.347l2.766.643c8.147,4.066,12.21,3.722,11.042,12.247l-.823,18.631C3003.013,1093.747,2980.828,1095.628,2980.987,1084.362Z" transform="translate(-2438.019 -791.983)" fill="#1c4591"/>
    <path id="Trazado_47211" data-name="Trazado 47211" d="M3129.961,1181.135l3.9,14.237.457,1.383.292-6.93Z" transform="translate(-2569.628 -904.852)" fill="#0f2f69"/>
    <path id="Trazado_47212" data-name="Trazado 47212" d="M3116.089,1099.547l7.534,14.293c.6.863,4.977-.489,4.925-2.012-.108-3.187-5.1-19.733-9.861-21.8C3114.822,1088.35,3113.823,1094.441,3116.089,1099.547Z" transform="translate(-2556.45 -824.931)" fill="#1c4591"/>
    <path id="Trazado_47213" data-name="Trazado 47213" d="M3062.391,1154.239a1.653,1.653,0,0,0-.556,1.991c.567,1.166,6.373.425,5.948-1.446S3067.018,1152.105,3062.391,1154.239Z" transform="translate(-2509.912 -880.22)" fill="#1c4591"/>
    <path id="Trazado_47214" data-name="Trazado 47214" d="M2929.919,1204.018a1.644,1.644,0,0,0,1.972-1.28l.007-.038c.217-1.278-4.938-4.05-5.679-2.281C2925.521,1202.082,2925.738,1203.109,2929.919,1204.018Z" transform="translate(-2391.188 -921.214)" fill="#1c4591"/>
    <g id="Grupo_21338" data-name="Grupo 21338" transform="translate(548.041 258.855)">
      <g id="Grupo_21337" data-name="Grupo 21337" transform="translate(0 0)">
        <path id="Trazado_47215" data-name="Trazado 47215" d="M3041.83,1046.256s.5,2.873-3.645,5.381a8.6,8.6,0,0,0-3.663,5.179c-.289,1.026-.9.533-1.033-.54a26.936,26.936,0,0,0-1.1-5.657c-1.018-3.328.319-8.313.5-8.354S3041.83,1046.256,3041.83,1046.256Z" transform="translate(-3032.011 -1042.265)" fill="#fff"/>
      </g>
    </g>
    <path id="Trazado_47216" data-name="Trazado 47216" d="M3039.012,1172.076a.7.7,0,1,0,.7-.7A.7.7,0,0,0,3039.012,1172.076Z" transform="translate(-2490.093 -896.319)" fill="#fff"/>
    <path id="Trazado_47217" data-name="Trazado 47217" d="M3039.83,1193.512a.7.7,0,1,0,.7-.7A.7.7,0,0,0,3039.83,1193.512Z" transform="translate(-2490.808 -915.064)" fill="#fff"/>
    <path id="Trazado_47218" data-name="Trazado 47218" d="M3028.911,1041.893s-4,1.34-3.017,5.107l.159,4.478s-3.191-5.029-1.813-9.8S3028.911,1041.893,3028.911,1041.893Z" transform="translate(-2476.873 -781.088)" fill="#0f2f69"/>
    <path id="Trazado_47219" data-name="Trazado 47219" d="M3048.384,993.67a5.406,5.406,0,0,0,1.351,1.218c.485.171,6.442-3.447,5.153-8.576-.817-3.249-6.967-1.617-6.967-1.617Z" transform="translate(-2497.884 -732.706)" fill="#0f2f69"/>
    <path id="Trazado_47220" data-name="Trazado 47220" d="M3048.9,1029.131l-.3.083a1.894,1.894,0,0,1-2.329-1.308l-1.583-5.638a1.894,1.894,0,0,1,1.307-2.329l.3-.083a1.894,1.894,0,0,1,2.329,1.307l2.318,5.194C3051.224,1027.358,3049.9,1028.85,3048.9,1029.131Z" transform="translate(-2494.999 -763.752)" fill="#ffaa82"/>
    <path id="Trazado_47221" data-name="Trazado 47221" d="M3052,1044.716a5.17,5.17,0,0,0,3.83-2.742s-1.17,3.771-3.387,4.318Z" transform="translate(-2501.447 -783.156)" fill="#ea8a6c"/>
    <path id="Trazado_47222" data-name="Trazado 47222" d="M3064.819,1054.356s2.867,3.3-2.219,6.121a7.568,7.568,0,0,0-1.945,4.363s1.7-1.4,2.68-2.156S3071.694,1057.285,3064.819,1054.356Z" transform="translate(-2509.02 -793.984)" fill="#0f2f69"/>
    <ellipse id="Elipse_1057" data-name="Elipse 1057" cx="3.338" cy="5.888" rx="3.338" ry="5.888" transform="translate(544.974 250.108) rotate(-3.933)" fill="#ffaa82"/>
    <path id="Trazado_47223" data-name="Trazado 47223" d="M3028.562,975.632c-.938,2.656-5.449,4.429-7.047,2.562s-.577-6.5.361-9.159,2.993-3.3,4.591-1.43S3029.5,972.975,3028.562,975.632Z" transform="translate(-2474.061 -717.185)" fill="#ffaa82"/>
    <path id="Trazado_47224" data-name="Trazado 47224" d="M3035.736,963.8s-.417,5.208,3.734,6.234c0,0,4.546-2.834.974-7.715-3.148-4.3-7.846-.791-7.846-.791Z" transform="translate(-2484.483 -711.627)" fill="#0f2f69"/>
    <path id="Trazado_47225" data-name="Trazado 47225" d="M3008.3,987.326a4.955,4.955,0,0,1,3.148-3.273l-2.176-1.2S3007.106,983.422,3008.3,987.326Z" transform="translate(-2462.92 -731.453)" fill="#0f2f69"/>
    <path id="Trazado_47226" data-name="Trazado 47226" d="M3009.786,962.942c-.943-1.183-2.869-1.1-5.577-.025a2.419,2.419,0,0,1-1.3.175c-2.052-.351-2.445-2.869-2.445-2.869-.5-1.675.6-2.476,2.271-2.973l4.362-1.294a4.7,4.7,0,0,1,5.446,2.894l.125.274C3013.167,960.8,3011.46,962.445,3009.786,962.942Z" transform="translate(-2456.28 -707.791)" fill="#0f2f69"/>
    <circle id="Elipse_1058" data-name="Elipse 1058" cx="1.24" cy="1.24" r="1.24" transform="matrix(0.139, -0.99, 0.99, 0.139, 552.872, 258.876)" fill="#ffaa82"/>
    <path id="Trazado_47227" data-name="Trazado 47227" d="M3125.491,1370.749s-3.2-5.621-3.247-6.193c0,0-1.218,2.934,0,4.563A4.376,4.376,0,0,0,3125.491,1370.749Z" transform="translate(-2562.406 -1065.254)" fill="#acaff2"/>
    <g id="Grupo_21339" data-name="Grupo 21339" transform="translate(523.36 273.828)">
      <path id="Trazado_47228" data-name="Trazado 47228" d="M2890.009,1217.832l-1.7-.6-.2-.2-.128-.227-12.772-6.642a.654.654,0,0,0-.566.022l-4.876,2.859-.009-.08-.919.368.041.379h.007a.211.211,0,0,0,.1.1l13.291,6.912a.074.074,0,0,1,.035.052c.277,1.018.741,1.929,1.609,1.4l5.4-3.182a1.3,1.3,0,0,0,.68-1.162Z" transform="translate(-2864.641 -1204.021)" fill="#acaff2"/>
      <path id="Trazado_47229" data-name="Trazado 47229" d="M2872.716,1217.934l-15.305-7.959c-.177-.092-.173-.255.007-.361l6.5-3.814a.755.755,0,0,1,.652-.026l15.305,7.959c.177.092.173.255-.007.361l-6.5,3.814A.754.754,0,0,1,2872.716,1217.934Z" transform="translate(-2854.528 -1200.173)" fill="#e1eaf4"/>
      <path id="Trazado_47230" data-name="Trazado 47230" d="M2957.661,1241.638l-3.7-1.926c-.042-.022-.042-.062,0-.087l1.574-.923a.183.183,0,0,1,.158-.006l3.7,1.926c.043.022.042.062,0,.087l-1.574.923A.183.183,0,0,1,2957.661,1241.638Z" transform="translate(-2939.044 -1229.003)" fill="#acaff2"/>
      <path id="Trazado_47231" data-name="Trazado 47231" d="M2852.737,1170.378a1.735,1.735,0,0,0-.77-.96l-15.182-7.778a.388.388,0,0,0-.322-.048h0a.173.173,0,0,0-.068.055l-.423.476.428-.037,2.278,8.41a1.733,1.733,0,0,0,.77.96l14.355,7.354.489.47.067.115c.28.057.888-.388.888-.388Z" transform="translate(-2835.892 -1161.574)" fill="#fff"/>
      <path id="Trazado_47232" data-name="Trazado 47232" d="M2853.635,1183.277l-15.182-7.778a1.738,1.738,0,0,1-.77-.96l-2.3-8.5c-.1-.363.087-.521.414-.354l15.182,7.778a1.736,1.736,0,0,1,.77.96l2.3,8.5C2854.147,1183.286,2853.962,1183.444,2853.635,1183.277Z" transform="translate(-2835.354 -1165.108)" fill="#2153ad"/>
      <path id="Trazado_47233" data-name="Trazado 47233" d="M2896.926,1229.585c.123.452-.3.553-.934.226a2.891,2.891,0,0,1-1.377-1.41c-.123-.451.3-.553.934-.226A2.9,2.9,0,0,1,2896.926,1229.585Z" transform="translate(-2887.159 -1219.649)" fill="#fff"/>
    </g>
    <path id="Trazado_47234" data-name="Trazado 47234" d="M2899.333,1259.386l2.014,1.269a1.575,1.575,0,0,0,2.165-.492h0a1.574,1.574,0,0,0-.492-2.165l-2.014-1.269a1.575,1.575,0,0,0-2.166.492h0A1.575,1.575,0,0,0,2899.333,1259.386Z" transform="translate(-2367.304 -970.749)" fill="#ffaa82"/>
    <g id="Grupo_21343" data-name="Grupo 21343" transform="translate(452.793 393.555)">
      <path id="Trazado_47235" data-name="Trazado 47235" d="M2382.4,2141.771l45.74,26.128c1.239.708,1.091,1.973-.33,2.811l-27.778,16.39c-1.42.838-9.331,1.225-10.57.517l-40.006-26.408c-1.239-.708-1.091-1.973.329-2.811l27.778-16.39A5.369,5.369,0,0,1,2382.4,2141.771Z" transform="translate(-2339.133 -2138.072)" fill="#bbdaff" opacity="0.4" style="mix-blend-mode: multiply;isolation: isolate"/>
      <g id="Grupo_21342" data-name="Grupo 21342" transform="translate(0 0)">
        <g id="Grupo_21341" data-name="Grupo 21341">
          <path id="Trazado_47236" data-name="Trazado 47236" d="M2353.872,2169.066h0l-.162-3.248-5.33-.576-41.087-23.47a5.369,5.369,0,0,0-4.836.237l-26.169,15.44-2.9-.314.123,2.9c0,.008,0,.016,0,.023v.01h0a1.465,1.465,0,0,0,.837,1.146l45.74,26.128a5.369,5.369,0,0,0,4.836-.237l27.778-16.39a1.965,1.965,0,0,0,1.169-1.643h0Z" transform="translate(-2273.347 -2138.072)" fill="#729ce3"/>
          <path id="Trazado_47237" data-name="Trazado 47237" d="M2306.856,2116.031l45.741,26.128c1.239.708,1.091,1.973-.33,2.811l-27.778,16.39a5.37,5.37,0,0,1-4.835.236l-45.74-26.128c-1.24-.708-1.091-1.973.329-2.811l27.778-16.389A5.369,5.369,0,0,1,2306.856,2116.031Z" transform="translate(-2273.073 -2115.562)" fill="url(#linear-gradient)"/>
          <path id="Trazado_47238" data-name="Trazado 47238" d="M2606.244,2400.922l8.126,4.642c.392.224.345.623-.1.888h0a1.7,1.7,0,0,1-1.529.075l-8.126-4.642c-.392-.224-.345-.624.1-.889h0A1.7,1.7,0,0,1,2606.244,2400.922Z" transform="translate(-2562.77 -2364.979)" fill="#fff"/>
          <path id="Trazado_47239" data-name="Trazado 47239" d="M2517.182,2141.485l7.779,4.444c.487.278.429.775-.13,1.105h0a2.113,2.113,0,0,1-1.9.093l-7.779-4.444c-.488-.278-.429-.775.129-1.1h0A2.113,2.113,0,0,1,2517.182,2141.485Z" transform="translate(-2484.481 -2138.07)" fill="#fff"/>
          <path id="Trazado_47240" data-name="Trazado 47240" d="M2451.724,2170.452l6.689,3.821c.787.449.693,1.252-.209,1.785l-1.279.754a3.409,3.409,0,0,1-3.071.15l-6.689-3.821c-.787-.45-.692-1.253.209-1.785l1.279-.754A3.408,3.408,0,0,1,2451.724,2170.452Z" transform="translate(-2424.85 -2163.303)" fill="#ffd482"/>
          <path id="Trazado_47241" data-name="Trazado 47241" d="M2339.061,2250.02l20.377,11.64c.391.224.344.624-.1.888h0a1.7,1.7,0,0,1-1.529.075l-20.376-11.64c-.392-.224-.345-.624.1-.889h0A1.7,1.7,0,0,1,2339.061,2250.02Z" transform="translate(-2329.12 -2233.015)" fill="#fff"/>
          <g id="Grupo_21340" data-name="Grupo 21340" transform="translate(14.334 12.325)">
            <path id="Trazado_47242" data-name="Trazado 47242" d="M2663.729,2370.263l6.769,3.866c.593.339.522.943-.157,1.344h0a2.568,2.568,0,0,1-2.312.113l-6.768-3.866c-.593-.338-.522-.943.157-1.344h0A2.568,2.568,0,0,1,2663.729,2370.263Z" transform="translate(-2626.524 -2350.427)" fill="#fff"/>
            <path id="Trazado_47243" data-name="Trazado 47243" d="M2572.538,2318.173l6.769,3.866c.592.338.521.943-.158,1.344h0a2.567,2.567,0,0,1-2.312.113l-6.769-3.866c-.593-.338-.522-.943.158-1.344h0A2.566,2.566,0,0,1,2572.538,2318.173Z" transform="translate(-2546.777 -2304.874)" fill="#fff"/>
            <path id="Trazado_47244" data-name="Trazado 47244" d="M2481.347,2266.083l6.768,3.866c.593.338.522.943-.157,1.344h0a2.567,2.567,0,0,1-2.312.113l-6.768-3.866c-.592-.338-.521-.943.157-1.344h0A2.567,2.567,0,0,1,2481.347,2266.083Z" transform="translate(-2467.031 -2259.321)" fill="#fff"/>
            <path id="Trazado_47245" data-name="Trazado 47245" d="M2390.156,2213.992l6.768,3.866c.593.338.522.943-.157,1.344h0a2.566,2.566,0,0,1-2.312.113l-6.768-3.866c-.593-.338-.522-.943.157-1.344h0A2.568,2.568,0,0,1,2390.156,2213.992Z" transform="translate(-2387.284 -2213.768)" fill="#fff"/>
          </g>
          <ellipse id="Elipse_1059" data-name="Elipse 1059" cx="4.569" cy="2.653" rx="4.569" ry="2.653" transform="translate(62.233 25.115) rotate(-0.123)" fill="#fff"/>
        </g>
        <path id="Trazado_47246" data-name="Trazado 47246" d="M2354.811,2283.674l-27.778,16.39a5.371,5.371,0,0,1-4.836.236l-45.741-26.128" transform="translate(-2276.032 -2254.266)" fill="none" stroke="#fff" stroke-linecap="round" stroke-linejoin="round" stroke-width="5.39"/>
      </g>
    </g>
    <g id="Grupo_21346" data-name="Grupo 21346" transform="translate(-42.635 313.859)">
      <path id="Trazado_47247" data-name="Trazado 47247" d="M981.264,2250.543c-6.114-12.351-25.705-18.7-47.1-15.169-18.922,3.122-30.8,13.554-29.055,24.469a13.963,13.963,0,0,0,1.39,8.526,19.682,19.682,0,0,0,3.316,4.688l-6.377,3.682a11.505,11.505,0,0,0-2.644-1.8c-2-.953-3.729-.879-4.887,0v0L860.7,2295.969h0c-1.3.743-2.024,2.352-1.844,4.618a14.846,14.846,0,0,0,7.615,11.066,5.012,5.012,0,0,0,4.361.33h0l.046-.028a3.19,3.19,0,0,0,.408-.244L906.24,2290.8h0c1.5-.648,2.363-2.335,2.169-4.786a10.6,10.6,0,0,0-.343-1.9l9.272-5.354c10,5.535,24.684,7.944,38.967,5.588,18.922-3.122,30.8-13.554,29.055-24.469C985.807,2257.085,982.677,2253.4,981.264,2250.543Zm-59.132,18.623q.982.637,2.062,1.213Q923.115,2269.8,922.132,2269.166Zm51.206-5.436a12.8,12.8,0,0,0,1.264-2.432,12.8,12.8,0,0,1-1.264,2.432,15.511,15.511,0,0,1-1.169,1.546A15.511,15.511,0,0,0,973.337,2263.73Zm-43.232,9.12c.761.244,1.542.466,2.338.672-.795-.206-1.576-.428-2.338-.672q-1.277-.409-2.482-.888Q928.826,2272.44,930.1,2272.85Zm14.064,2.211c-1.5-.02-2.978-.1-4.433-.249C941.19,2274.957,942.672,2275.041,944.168,2275.061Zm9.078-.676a39.357,39.357,0,0,0,12.939-4.341,39.357,39.357,0,0,1-12.939,4.341,51.209,51.209,0,0,1-6.068.629A51.212,51.212,0,0,0,953.247,2274.385Zm16.7-6.929q-.828.7-1.771,1.344Q969.122,2268.152,969.951,2267.456Z" transform="translate(-852.612 -2230.813)" fill="#a8b2e5" opacity="0.4" style="mix-blend-mode: multiply;isolation: isolate"/>
      <path id="Trazado_47248" data-name="Trazado 47248" d="M1115.11,2525.826l-7.616-4.4,20.659-11.93c4.253-2.6,8.89,3.072,5.636,5.344Z" transform="translate(-1070.073 -2470.798)" fill="#fff" stroke="#35519c" stroke-miterlimit="10" stroke-width="3.939"/>
      <path id="Trazado_47249" data-name="Trazado 47249" d="M1274.708,2240.847c-6.114-12.351-28.413-19.5-49.806-15.973s-33.78,16.4-27.666,28.754,28.413,19.5,49.806,15.974S1280.822,2253.2,1274.708,2240.847Zm-29.528,24.476c-18.316,3.022-37.408-3.1-42.643-13.677s5.371-21.6,23.687-24.62,37.408,3.1,42.643,13.677S1263.5,2262.3,1245.18,2265.323Z" transform="translate(-1147.188 -2221.69)" fill="#0f2f69"/>
      <g id="Grupo_21344" data-name="Grupo 21344" transform="translate(0 40.327)">
        <ellipse id="Elipse_1060" data-name="Elipse 1060" cx="5.484" cy="9.499" rx="5.484" ry="9.499" transform="translate(35.551 6.219) rotate(-34.54)" fill="#1c4591"/>
        <path id="Trazado_47250" data-name="Trazado 47250" d="M847.126,2573.645l35.209-21.027,10.335,15.856-35.412,21.187Z" transform="translate(-842.382 -2549.417)" fill="#1c4591"/>
        <ellipse id="Elipse_1061" data-name="Elipse 1061" cx="5.484" cy="9.499" rx="5.484" ry="9.499" transform="translate(0 27.467) rotate(-34.54)" fill="#0f2f69"/>
      </g>
      <path id="Trazado_47251" data-name="Trazado 47251" d="M838.77,2721.342c1.157-.8,2.839-.827,4.772.094a14.845,14.845,0,0,1,7.615,11.066,5.2,5.2,0,0,1-1.064,4.006" transform="translate(-835.074 -2656.117)" fill="none" stroke="#fff" stroke-linecap="round" stroke-linejoin="round" stroke-width="3.906"/>
      <path id="Trazado_47252" data-name="Trazado 47252" d="M1274.708,2222.659c-6.114-12.352-28.413-19.5-49.806-15.973s-33.78,16.4-27.666,28.754,28.413,19.5,49.806,15.974S1280.822,2235.01,1274.708,2222.659Zm-29.528,24.475c-18.316,3.022-37.408-3.1-42.643-13.676s5.371-21.6,23.687-24.62,37.408,3.1,42.643,13.677S1263.5,2244.112,1245.18,2247.134Z" transform="translate(-1147.188 -2205.785)" fill="#1c4591"/>
      <g id="Grupo_21345" data-name="Grupo 21345" transform="translate(89.56 11.983)">
        <path id="Trazado_47253" data-name="Trazado 47253" d="M1571.54,2341.8l.271.051a1.532,1.532,0,0,0,1.55-.8l7.666-15.46a.786.786,0,0,0-.561-1.2l-.271-.051a1.533,1.533,0,0,0-1.55.8l-7.666,15.46A.786.786,0,0,0,1571.54,2341.8Z" transform="translate(-1564.854 -2321.433)" fill="#fff"/>
        <path id="Trazado_47254" data-name="Trazado 47254" d="M1523.258,2318.729l.129.024a.73.73,0,0,0,.739-.38l8.183-16.5a.375.375,0,0,0-.267-.57l-.129-.024a.73.73,0,0,0-.738.381l-8.184,16.5A.374.374,0,0,0,1523.258,2318.729Z" transform="translate(-1522.938 -2301.265)" fill="#fff"/>
      </g>
      <path id="Trazado_47255" data-name="Trazado 47255" d="M1169.2,2552.617s4.771,1.388,7.188,10.237" transform="translate(-1124.038 -2509.089)" fill="none" stroke="#fff" stroke-linecap="round" stroke-linejoin="round" stroke-width="3.906"/>
    </g>
    <path id="Trazado_47279" data-name="Trazado 47279" d="M1317.669,1284.552h0a1.708,1.708,0,0,0-.3-2.39l-1.379-1.067a1.708,1.708,0,0,0-2.389.3h0a1.708,1.708,0,0,0,.3,2.39l1.379,1.067A1.708,1.708,0,0,0,1317.669,1284.552Z" transform="translate(-980.908 -991.957)" fill="#ffaa82"/>
    <ellipse id="Elipse_1063" data-name="Elipse 1063" cx="14.599" cy="7.253" rx="14.599" ry="7.253" transform="matrix(1, -0.031, 0.031, 1, 354.889, 379.734)" fill="#e0e6ff" style="mix-blend-mode: multiply;isolation: isolate"/>
    <path id="Trazado_47280" data-name="Trazado 47280" d="M1630.658,1988.364l-3.656-.46c-2.447-1.111-3.589-1.945-4.679-1.315l-.309.178c-1.09.63-.953,1.74.305,2.468l5.373,4.277a3.544,3.544,0,0,0,3.958-.384s.6-.543.173-2.83C1631.578,1988.994,1631.664,1988.947,1630.658,1988.364Z" transform="translate(-1250.286 -1609.031)" fill="#191791"/>
    <path id="Trazado_47281" data-name="Trazado 47281" d="M1506.043,2059.661l-3.582,1.258c-2.77.14-4.21-.071-4.922.974l-.2.3c-.712,1.045-.07,1.954,1.427,2.019l7.791,1.3c1.5.065,2.1-.908,2.613-2.136a5.233,5.233,0,0,0-.532-3.1C1508.032,2059.1,1507.241,2059.713,1506.043,2059.661Z" transform="translate(-1141.647 -1673.021)" fill="#191791"/>
    <path id="Trazado_47282" data-name="Trazado 47282" d="M1556.231,2031.728c0,1.711,4.163,1.711,4.163,0v-5.562h-4.163Z" transform="translate(-1193.402 -1643.83)" fill="#fff"/>
    <path id="Trazado_47283" data-name="Trazado 47283" d="M1533.867,1643.043c.525,2.168,4.853,2.01,5.7.608a235.273,235.273,0,0,1,6.724-57.932h-15.024A541.5,541.5,0,0,0,1533.867,1643.043Z" transform="translate(-1171.563 -1258.66)" fill="#1c4591"/>
    <path id="Trazado_47284" data-name="Trazado 47284" d="M1666.99,1969.851c.095,1.55,4.258,1.55,4.163,0l-.308-5.037h-4.163Z" transform="translate(-1289.991 -1590.178)" fill="#fff"/>
    <path id="Trazado_47285" data-name="Trazado 47285" d="M1613.142,1635.743c1.663,1.711,4.934.981,5.564-.255l-2.2-50.172-10.462,1.55Z" transform="translate(-1236.959 -1258.308)" fill="#1c4591"/>
    <path id="Trazado_47286" data-name="Trazado 47286" d="M1549.141,1204.924c1.07,3.344,4.724,4.456,6.783,2.189s2.862-6.815,1.792-10.16-3.607-4.218-5.667-1.951S1548.071,1201.58,1549.141,1204.924Z" transform="translate(-1186.934 -915.876)" fill="#ffaa82"/>
    <path id="Trazado_47287" data-name="Trazado 47287" d="M1586.88,1278.917l.359-.092a2.283,2.283,0,0,0,1.643-2.768l-1.745-6.84a2.283,2.283,0,0,0-2.768-1.643l-.359.092a2.283,2.283,0,0,0-1.643,2.768l.71,6.819C1583.387,1278.466,1585.667,1279.226,1586.88,1278.917Z" transform="translate(-1216.197 -980.381)" fill="#ffaa82"/>
    <path id="Trazado_47288" data-name="Trazado 47288" d="M1555.251,1199.324s-.226,2.145-3.42,2.088c-3.069-.055-2.316-5.306-5.368-5.709-3.358-.444-4.088-4.553-2.819-6.177s4.923-2.564,7.624-1.469S1558.3,1189.4,1555.251,1199.324Z" transform="translate(-1181.884 -910.491)" fill="#191791"/>
    <path id="Trazado_47289" data-name="Trazado 47289" d="M1571.95,1254.573a1.546,1.546,0,1,0,1-1.943A1.546,1.546,0,0,0,1571.95,1254.573Z" transform="translate(-1207.084 -967.31)" fill="#ffaa82"/>
    <path id="Trazado_47290" data-name="Trazado 47290" d="M1540.983,1347.944c-1.229-6.736,1.3-11.331,1.2-18.494.583-11.953-3.272-15.22-7.4-14.789,0,0-3.734,1.1-4.581,1.537-8.974,4.624-11.37,6.05-10.976,11.414-.04,8.835,1.262,18.742,1.447,23.089C1522.518,1356.81,1538.93,1352.316,1540.983,1347.944Z" transform="translate(-1161.002 -1021.588)" fill="#60bfff"/>
    <path id="Trazado_47291" data-name="Trazado 47291" d="M1574.11,1303.781l.341-.857a2.322,2.322,0,0,1-1.879.551A2.978,2.978,0,0,0,1574.11,1303.781Z" transform="translate(-1207.693 -1011.356)" fill="#ea8a6c"/>
    <path id="Trazado_47292" data-name="Trazado 47292" d="M1624.765,1686.689l4.412-6.337-4.412,1.942Z" transform="translate(-1253.336 -1341.417)" fill="#0f2f69"/>
    <path id="Trazado_47293" data-name="Trazado 47293" d="M1330.787,1301.1l9.836,8.491,14.366,6.481,5.677-12.071-16.906-.579-10.517-5.645Z" transform="translate(-996.252 -1006.852)" fill="#60bfff"/>
    <path id="Trazado_47294" data-name="Trazado 47294" d="M1574.421,1316.643c4.842-.317,7.965-.135,8.779-3.583h0a1.677,1.677,0,0,0-1.924-.139,11.119,11.119,0,0,1-4.889,1.673,2.107,2.107,0,0,0-1.429.993Z" transform="translate(-1209.31 -1019.884)" fill="#46a6e8"/>
    <path id="Trazado_47295" data-name="Trazado 47295" d="M1519.181,1441.539l1.488,20.149s.678,3.19,4.749,2.977Z" transform="translate(-1161.002 -1132.575)" fill="#46a6e8"/>
    <path id="Trazado_47296" data-name="Trazado 47296" d="M2059.624,363.692c.139-.334,19.466-33.055,19.466-33.055" transform="translate(-1633.619 -161.092)" fill="none" stroke="#dee5ff" stroke-linecap="round" stroke-linejoin="round" stroke-width="6.792"/>
    <path id="Trazado_47297" data-name="Trazado 47297" d="M252.6,1432.855c.139-.334,9.733-16.568,9.733-16.568" transform="translate(-53.379 -1110.492)" fill="none" stroke="#dee5ff" stroke-linecap="round" stroke-linejoin="round" stroke-width="6.792"/>
    <path id="Trazado_47298" data-name="Trazado 47298" d="M2810.522,1509.731c.139-.334,9.733-16.568,9.733-16.568" transform="translate(-2290.279 -1177.72)" fill="none" stroke="#dee5ff" stroke-linecap="round" stroke-linejoin="round" stroke-width="6.792"/>
    <path id="Trazado_47299" data-name="Trazado 47299" d="M1520.983,161.574c.127-.305,8.9-15.148,8.9-15.148" transform="translate(-1162.578)" fill="none" stroke="#dee5ff" stroke-linecap="round" stroke-linejoin="round" stroke-width="6.211"/>
    <path id="Trazado_47300" data-name="Trazado 47300" d="M718.962,449.932c.139-.334,9.733-16.568,9.733-16.568" transform="translate(-461.212 -250.927)" fill="none" stroke="#dee5ff" stroke-linecap="round" stroke-linejoin="round" stroke-width="6.792"/>
    <path id="Trazado_47301" data-name="Trazado 47301" d="M2562.211,961.777c.139-.334,19.466-33.055,19.466-33.055" transform="translate(-2073.131 -684.117)" fill="none" stroke="#dee5ff" stroke-linecap="round" stroke-linejoin="round" stroke-width="6.792"/>
    <path id="Trazado_47302" data-name="Trazado 47302" d="M218.365,1954.8c.139-.334,19.466-33.055,19.466-33.055" transform="translate(-23.44 -1552.516)" fill="none" stroke="#dee5ff" stroke-linecap="round" stroke-linejoin="round" stroke-width="6.792"/>
    <path id="Trazado_47303" data-name="Trazado 47303" d="M1641.24,360.247l-61.185,34.826V356.207l61.185-34.826Z" transform="translate(-1214.237 -152.999)" fill="#729ce3" opacity="0.74"/>
    <g id="Grupo_21352" data-name="Grupo 21352" transform="translate(372.444 175.724)">
      <path id="Trazado_47304" data-name="Trazado 47304" d="M1694.032,418.739l-61.185,34.826V414.7l61.185-34.826Z" transform="translate(-1632.847 -379.874)" fill="url(#linear-gradient)"/>
      <ellipse id="Elipse_1064" data-name="Elipse 1064" cx="14.089" cy="9.713" rx="14.089" ry="9.713" transform="matrix(0.373, -0.928, 0.928, 0.373, 18.151, 46.295)" fill="none" stroke="#fff" stroke-linecap="round" stroke-linejoin="round" stroke-width="3.637"/>
      <path id="Trazado_47305" data-name="Trazado 47305" d="M1648.52,449.843l1.792-4.151,53.732-30.535,2.063,1.513v29.16l-1.651,4.014-53.367,30.373-2.569-1.589Z" transform="translate(-1646.552 -410.729)" fill="none" stroke="#fff" stroke-linecap="round" stroke-linejoin="round" stroke-width="3.105"/>
      <g id="Grupo_21351" data-name="Grupo 21351" transform="translate(29.391 29.505)">
        <path id="Trazado_47306" data-name="Trazado 47306" d="M1869.788,628.12a4.659,4.659,0,0,1-2.754,1.171l.616-1.464a3.827,3.827,0,0,0,2.511-1.12,4.606,4.606,0,0,0,1.8-3.248c0-2.625-4.521,1.911-4.521-1.248a7.611,7.611,0,0,1,2.349-4.753v-1.636l.972-.854v1.6a2.8,2.8,0,0,1,2.3-.789l-.713,1.42a2.352,2.352,0,0,0-1.977.812,4.381,4.381,0,0,0-1.62,2.978c0,2.349,4.52-2.268,4.52,1.216a7.887,7.887,0,0,1-2.511,5.024v1.636l-.972.854Z" transform="translate(-1867.033 -614.968)" fill="#fff"/>
      </g>
    </g>
  </g>
</svg>
