<svg xmlns="http://www.w3.org/2000/svg" xmlns:xlink="http://www.w3.org/1999/xlink" width="144.41" height="144.41" viewBox="0 0 144.41 144.41">
  <defs>
    <radialGradient id="radial-gradient" cx="0.5" cy="0.5" r="0.5" gradientUnits="objectBoundingBox">
      <stop offset="0" stop-color="#fff"/>
      <stop offset="1" stop-color="#fae7b7"/>
    </radialGradient>
  </defs>
  <g id="Grupo_26376" data-name="Grupo 26376" transform="translate(-486 -1643)">
    <g id="Elipse_1117" data-name="Elipse 1117" transform="translate(490 1647)" stroke="#fff" stroke-width="4" fill="url(#radial-gradient)">
      <circle cx="68.205" cy="68.205" r="68.205" stroke="none"/>
      <circle cx="68.205" cy="68.205" r="70.205" fill="none"/>
    </g>
    <g id="Grupo_25808" data-name="Grupo 25808" transform="translate(120.316 2.631)">
      <path id="Trazado_47041" data-name="Trazado 47041" d="M1645.081,419.727c-1.051-.921-1.585-1.762-1.336-2.963,0,0,1.427-3.089,4.094-1.09l11.323,11.235-6.16-.015C1652.981,426.555,1645.081,419.727,1645.081,419.727Z" transform="translate(-1183.634 1285.218)" fill="#ffc295"/>
      <path id="Trazado_47042" data-name="Trazado 47042" d="M1308.1,333.463a3.535,3.535,0,0,0-.446-.074c-.051-.005-.1-.009-.153-.012-.068,0-.137-.006-.205-.006l-47.147-.051c-.069,0-.138,0-.205.006-.052,0-.1.006-.154.011a3.538,3.538,0,0,0-.446.073,3.491,3.491,0,0,0-2.755,3.363l-.017,15.553-.045,41.74a3.507,3.507,0,0,0,3.553,3.447l47.147.051a3.507,3.507,0,0,0,3.56-3.439l.045-41.74.017-15.553A3.491,3.491,0,0,0,1308.1,333.463Zm-47.585,3.306,46.763.05-.014,13.175-46.763-.05Z" transform="translate(-868.052 1351.798)" fill="#5b6375"/>
      <rect id="Rectángulo_4615" data-name="Rectángulo 4615" width="13.175" height="47.045" transform="translate(392.167 1701.741) rotate(-89.938)" fill="#f6f4f4"/>
      <g id="Grupo_18145" data-name="Grupo 18145" transform="translate(416.94 1706.614)">
        <path id="Trazado_47043" data-name="Trazado 47043" d="M1431.344,452.478l-.012,10.77a2.874,2.874,0,0,1-2.868,2.862l-15.1-.016a2.838,2.838,0,0,1-1.69-.559,2.761,2.761,0,0,1-.37-.324,2.845,2.845,0,0,1-.8-1.985l.012-10.77a2.873,2.873,0,0,1,2.868-2.862l15.1.016a2.877,2.877,0,0,1,2.862,2.868Z" transform="translate(-1410.503 -449.594)" fill="#f6f4f4"/>
        <path id="Trazado_47044" data-name="Trazado 47044" d="M1443.507,472.36l3.085,0,0-3.46,2.1,0,0,3.46,3.1,0,0,2.345-3.1,0,0,3.441-2.1,0,0-3.441-3.085,0Z" transform="translate(-1437.403 -465.333)" fill="#4d5666"/>
      </g>
      <path id="Trazado_47045" data-name="Trazado 47045" d="M1306.682,452.5l-.012,10.848a2.9,2.9,0,0,1-2.889,2.883l-15.209-.016a2.857,2.857,0,0,1-1.7-.563,2.767,2.767,0,0,1-.373-.326,2.865,2.865,0,0,1-.807-2l.012-10.848a2.893,2.893,0,0,1,2.889-2.883l15.209.016a2.9,2.9,0,0,1,2.883,2.889Z" transform="translate(-891.823 1257.02)" fill="#f6f4f4"/>
      <path id="Trazado_47046" data-name="Trazado 47046" d="M1328.235,487.455l0,2.456-8.345-.009,0-2.456Z" transform="translate(-919.7 1226.166)" fill="#4d5666"/>
      <path id="Trazado_47047" data-name="Trazado 47047" d="M1431.344,569.859l-.012,10.77a2.874,2.874,0,0,1-2.868,2.862l-15.1-.016a2.838,2.838,0,0,1-1.69-.559,2.76,2.76,0,0,1-.37-.324,2.845,2.845,0,0,1-.8-1.986l.012-10.77a2.873,2.873,0,0,1,2.868-2.862l15.1.016a2.877,2.877,0,0,1,2.862,2.868Z" transform="translate(-993.563 1161.34)" fill="#ec8457"/>
      <path id="Trazado_47048" data-name="Trazado 47048" d="M1445.393,598.517l7.938.009,0,1.888-7.938-.008Zm0,2.957,7.938.008,0,1.888-7.937-.008Z" transform="translate(-1021.998 1135.629)" fill="#4d5666"/>
      <g id="Grupo_18146" data-name="Grupo 18146" transform="translate(394.21 1728.315)">
        <path id="Trazado_47049" data-name="Trazado 47049" d="M1307.856,569.785l-.011,10.492a2.8,2.8,0,0,1-2.794,2.788l-14.71-.016a2.764,2.764,0,0,1-1.646-.545,2.689,2.689,0,0,1-.361-.315,2.77,2.77,0,0,1-.781-1.934l.011-10.492a2.8,2.8,0,0,1,2.794-2.788l14.71.016a2.8,2.8,0,0,1,2.788,2.794Z" transform="translate(-1287.553 -566.975)" fill="#f6f4f4"/>
        <path id="Trazado_47050" data-name="Trazado 47050" d="M1329.777,594.871l-2.635.356,1.885,2.029-1.75,1.2-1.318-2.443-1.318,2.443-1.76-1.2,1.895-2.029-2.635-.356.683-1.943,2.424,1.039-.414-2.76h2.25l-.414,2.76,2.4-1.039Z" transform="translate(-1315.746 -586.727)" fill="#4d5666"/>
      </g>
      <rect id="Rectángulo_4616" data-name="Rectángulo 4616" width="6.606" height="55" transform="translate(459.952 1690.356)" fill="#73bcc4"/>
      <rect id="Rectángulo_4617" data-name="Rectángulo 4617" width="2.321" height="55.003" transform="translate(462.064 1690.354)" fill="#9ed5d8"/>
      <rect id="Rectángulo_4618" data-name="Rectángulo 4618" width="2.172" height="55.003" transform="translate(464.386 1690.354)" fill="#73bcc4"/>
      <rect id="Rectángulo_4619" data-name="Rectángulo 4619" width="6.61" height="1.571" transform="translate(459.952 1745.356)" fill="#dde4e8"/>
      <path id="Rectángulo_4620" data-name="Rectángulo 4620" d="M0,0H6.6a0,0,0,0,1,0,0V2.925a3.3,3.3,0,0,1-3.3,3.3h0A3.3,3.3,0,0,1,0,2.925V0A0,0,0,0,1,0,0Z" transform="translate(459.957 1746.928)" fill="#d66d49"/>
      <path id="Rectángulo_4621" data-name="Rectángulo 4621" d="M0,0H3.3a0,0,0,0,1,0,0V6.225a0,0,0,0,1,0,0h0A3.3,3.3,0,0,1,0,2.925V0A0,0,0,0,1,0,0Z" transform="translate(459.957 1746.928)" fill="#ec8457"/>
      <path id="Trazado_47051" data-name="Trazado 47051" d="M1643.151,322.98l3.253-8.772,3.356,8.769Z" transform="translate(-1183.199 1367.376)" fill="#ddbf9a"/>
      <path id="Trazado_47052" data-name="Trazado 47052" d="M1654.718,317.555h2.24l-1.176-2.97-1.132,2.97Z" transform="translate(-1192.572 1367.069)" fill="#2d3538"/>
      <path id="Trazado_47053" data-name="Trazado 47053" d="M1599.02,502.773a5.594,5.594,0,0,1-5.359,3.445c-.019,0-.037.068-.057.068h-23.877a1.73,1.73,0,0,1-1.485-2.094,1.6,1.6,0,0,1,1.528-1.6h7.957c.235,0,.458-.3.538-.6a1.124,1.124,0,0,0-.018-.583c-.088-.252-.29-.485-.5-.485h-10.892a2.2,2.2,0,0,1-2.093-2.112c-.223-1.689.773-3.065,2.019-3.065h10.438c.188,0,.372-.232.494-.422a1.046,1.046,0,0,0,.078-1.071.575.575,0,0,0-.559-.356h-11.812c-1.108,0-2.046-1.259-2.066-2.722-.021-1.514.91-2.824,2.05-2.824h11.736a.779.779,0,0,0,.673-.477,1,1,0,0,0,.018-.943.705.705,0,0,0-.692-.43h-10.815c-1.124,0-2.049-1.289-2.055-2.772s.931-2.774,2.055-2.774H1586.4c.819,0,1.321-.924,1.113-2.034l6.077-.017,4.526,4.824h2.149v19.042Z" transform="translate(-1118.152 1233.126)" fill="#ffc295"/>
      <rect id="Rectángulo_4622" data-name="Rectángulo 4622" width="4.34" height="21.617" transform="translate(484.895 1737.146) rotate(180)" fill="#fcfcfc"/>
      <path id="Trazado_47054" data-name="Trazado 47054" d="M1797.814,491a69.308,69.308,0,0,1-1.7,12.126,72.227,72.227,0,0,1-4.125,12.278H1776V491Z" transform="translate(-1291.487 1223.269)" fill="#5b6375"/>
      <path id="Trazado_47055" data-name="Trazado 47055" d="M1797.817,490c0,.185,0,.061,0,.087a67.765,67.765,0,0,1-1.7,12.115H1776V490Z" transform="translate(-1291.487 1224.084)" fill="#4d5666"/>
    </g>
  </g>
</svg>
