<svg xmlns="http://www.w3.org/2000/svg" xmlns:xlink="http://www.w3.org/1999/xlink" width="893.75" height="330.604" viewBox="0 0 893.75 330.604">
  <defs>
    <linearGradient id="linear-gradient" y1="0.5" x2="1" y2="0.5" gradientUnits="objectBoundingBox">
      <stop offset="0.053" stop-color="#bad4ff"/>
      <stop offset="0.478" stop-color="#94ceff"/>
      <stop offset="0.684" stop-color="#9ec2ff"/>
      <stop offset="1" stop-color="#85aaff"/>
    </linearGradient>
  </defs>
  <g id="Group_21353" data-name="Group 21353" transform="translate(42.635 -142.174)">
    <g id="Group_21273" data-name="Group 21273" transform="translate(250.448 157.719)" opacity="0.4" style="mix-blend-mode: multiply;isolation: isolate">
      <g id="Group_21272" data-name="Group 21272" transform="translate(0 0)">
        <g id="Group_21271" data-name="Group 21271">
          <line id="Line_29" data-name="Line 29" y1="23.434" x2="41.598" transform="translate(0 70.303)" fill="none" stroke="#a8b2e5" stroke-miterlimit="10" stroke-width="6.792"/>
          <path id="Path_47120" data-name="Path 47120" d="M1356.792,296.146l41.6-23.434-.69-44.386-41.6,23.434Z" transform="translate(-1231.309 -228.325)" fill="none" stroke="#a8b2e5" stroke-miterlimit="10" stroke-width="6.792"/>
          <path id="Path_47121" data-name="Path 47121" d="M1055.107,466.1l41.6-23.434-.69-44.386-41.6,23.434Z" transform="translate(-971.221 -374.847)" fill="none" stroke="#a8b2e5" stroke-miterlimit="10" stroke-width="6.792"/>
          <path id="Path_47122" data-name="Path 47122" d="M451.737,806.014l41.6-23.434-.69-44.386-41.6,23.434Z" transform="translate(-451.046 -667.89)" fill="none" stroke="#a8b2e5" stroke-miterlimit="10" stroke-width="6.792"/>
          <line id="Line_30" data-name="Line 30" x2="0.69" y2="44.386" transform="translate(167.081 44.386)" fill="none" stroke="#a8b2e5" stroke-miterlimit="10" stroke-width="6.792"/>
          <path id="Path_47123" data-name="Path 47123" d="M1060.114,788.012l41.6-23.434-.69-44.386-41.6,23.434Z" transform="translate(-975.538 -652.37)" fill="none" stroke="#a8b2e5" stroke-miterlimit="10" stroke-width="6.792"/>
          <path id="Path_47124" data-name="Path 47124" d="M758.429,957.968l41.6-23.434-.69-44.386-41.6,23.434Z" transform="translate(-715.45 -798.892)" fill="none" stroke="#a8b2e5" stroke-miterlimit="10" stroke-width="6.792"/>
          <path id="Path_47125" data-name="Path 47125" d="M456.744,1127.923l41.6-23.434-.69-44.386-41.6,23.434Z" transform="translate(-455.363 -945.414)" fill="none" stroke="#a8b2e5" stroke-miterlimit="10" stroke-width="6.792"/>
          <line id="Line_31" data-name="Line 31" x2="0.69" y2="44.386" transform="translate(167.771 88.773)" fill="none" stroke="#a8b2e5" stroke-miterlimit="10" stroke-width="6.792"/>
          <path id="Path_47126" data-name="Path 47126" d="M1366.806,939.965l41.6-23.434-.69-44.386-41.6,23.434Z" transform="translate(-1239.942 -783.372)" fill="none" stroke="#a8b2e5" stroke-miterlimit="10" stroke-width="6.792"/>
          <path id="Path_47127" data-name="Path 47127" d="M1065.121,1109.921l41.6-23.434-.69-44.386-41.6,23.434Z" transform="translate(-979.854 -929.894)" fill="none" stroke="#a8b2e5" stroke-miterlimit="10" stroke-width="6.792"/>
          <path id="Path_47128" data-name="Path 47128" d="M763.435,1279.877l41.6-23.434-.69-44.386-41.6,23.434Z" transform="translate(-719.767 -1076.415)" fill="none" stroke="#a8b2e5" stroke-miterlimit="10" stroke-width="6.792"/>
          <path id="Path_47129" data-name="Path 47129" d="M461.75,1449.833l41.6-23.434-.69-44.386-41.6,23.434Z" transform="translate(-459.679 -1222.937)" fill="none" stroke="#a8b2e5" stroke-miterlimit="10" stroke-width="6.792"/>
        </g>
      </g>
      <line id="Line_32" data-name="Line 32" y1="23.434" x2="41.598" transform="translate(41.598 46.869)" fill="none" stroke="#a8b2e5" stroke-miterlimit="10" stroke-width="6.792"/>
    </g>
    <ellipse id="Ellipse_1014" data-name="Ellipse 1014" cx="8.342" cy="16.792" rx="8.342" ry="16.792" transform="translate(596.126 379.066) rotate(-88.764)" fill="#e8eefa" style="mix-blend-mode: multiply;isolation: isolate"/>
    <path id="Path_47130" data-name="Path 47130" d="M2977.675,1716.359l7.1-4.842a5.507,5.507,0,0,1,3.292-.113c.574.145.664-.285.635.25l.616,2.239c.575,1.492.739,1.738-.969,2.326l-7.131,2.612a4.7,4.7,0,0,1-3.827-.347l-.256-.179C2976.231,1717.675,2976.474,1716.8,2977.675,1716.359Z" transform="translate(-2377.908 -1349.024)" fill="#0f2f69"/>
    <path id="Path_47131" data-name="Path 47131" d="M3037.639,1681.278c-.033,1.755-4.3,1.675-4.269-.08l.106-5.7,4.27.08Z" transform="translate(-2426.86 -1318.234)" fill="#acaff2"/>
    <path id="Path_47132" data-name="Path 47132" d="M3009.759,1339.861c-1.677,1.308-4.44,1.429-5.356.063a279.965,279.965,0,0,1-4.031-53.2l13.268-4.705c-1.625,14.369-3.443,27.668-4.069,39.808C3010.784,1328.781,3009.577,1335.386,3009.759,1339.861Z" transform="translate(-2398.375 -979.008)" fill="#dee5ff"/>
    <path id="Path_47133" data-name="Path 47133" d="M3056.33,1379.144l-1.766,5.643a72.935,72.935,0,0,1-3.033-16.112c.666.166.633-.644,1.376-.552Z" transform="translate(-2442.516 -1053.238)" fill="#acaff2"/>
    <g id="Group_21277" data-name="Group 21277" transform="translate(525.763 372.017)">
      <g id="Group_21276" data-name="Group 21276">
        <ellipse id="Ellipse_1015" data-name="Ellipse 1015" cx="27.672" cy="15.655" rx="27.672" ry="15.655" transform="translate(9.23 6.457)" fill="#a8c4e5" opacity="0.4" style="mix-blend-mode: multiply;isolation: isolate"/>
        <g id="Group_21275" data-name="Group 21275">
          <g id="Group_21274" data-name="Group 21274">
            <path id="Path_47134" data-name="Path 47134" d="M2503.057,1831.059c.227,1.022-.2,8.683-.668,9.782-.876,3.5-3.928,6.831-9.084,9.282-11.313,5.378-28.431,4.508-38.235-1.943-4.57-3.007-7.051-6.063-7.108-9.88-.147-2.064-.209-7.826-.209-7.826.36-1.259,1.819.053,2.743-1.122a18.439,18.439,0,0,1,7.675-6.151c11.313-5.378,28.431-4.508,38.235,1.943C2500.535,1827.861,2502.77,1827.777,2503.057,1831.059Z" transform="translate(-2447.753 -1814.55)" fill="#ebb44b"/>
            <ellipse id="Ellipse_1016" data-name="Ellipse 1016" cx="27.672" cy="15.655" rx="27.672" ry="15.655" transform="translate(0.001 0.853)" fill="#fff"/>
            <ellipse id="Ellipse_1017" data-name="Ellipse 1017" cx="27.672" cy="15.655" rx="27.672" ry="15.655" transform="translate(0.001)" fill="#ffd482"/>
            <ellipse id="Ellipse_1018" data-name="Ellipse 1018" cx="19.345" cy="10.944" rx="19.345" ry="10.944" transform="translate(8.308 4.3)" fill="#fff"/>
            <path id="Path_47135" data-name="Path 47135" d="M2515.018,1817.553c8.23-3.856,20.424-3.208,27.237,1.446,2.716,1.856,4.165,4.068,4.406,6.3.289-2.675-1.147-5.416-4.406-7.643-6.813-4.655-19.007-5.3-27.237-1.447-4.949,2.319-7.337,5.738-6.973,9.108C2508.36,1822.4,2510.725,1819.564,2515.018,1817.553Z" transform="translate(-2499.701 -1809.397)" fill="#f2c97b"/>
            <path id="Path_47136" data-name="Path 47136" d="M2571.205,1862.846a5.289,5.289,0,0,1-2.106-3.529l3.817-.227a3.985,3.985,0,0,0,1.8,2.823,3.242,3.242,0,0,0,3.475.385c2.481-1.228-3.473-5.139.863-7.285a9.227,9.227,0,0,1,7.858.06l2.481-1.228,2.17,1.446-2.433,1.2a3.475,3.475,0,0,1,1.358,3.2l-3.679-.1a2.415,2.415,0,0,0-1.234-2.22,3,3,0,0,0-3.2-.34c-2.289,1.133,3.811,4.972-.791,7.25a9.525,9.525,0,0,1-8.116-.036l-2.506,1.24-2.17-1.445Z" transform="translate(-2552.106 -1844.008)" fill="#ffd482"/>
          </g>
        </g>
      </g>
      <line id="Line_33" data-name="Line 33" x2="0.07" y2="6.654" transform="translate(28.075 32.446)" fill="none" stroke="#ffd482" stroke-linecap="round" stroke-linejoin="round" stroke-width="3.158"/>
      <line id="Line_34" data-name="Line 34" x2="0.026" y2="6.474" transform="translate(35.194 31.951)" fill="none" stroke="#ffd482" stroke-linecap="round" stroke-linejoin="round" stroke-width="3.158"/>
      <line id="Line_35" data-name="Line 35" x2="0.026" y2="6.474" transform="translate(41.959 30.314)" fill="none" stroke="#ffd482" stroke-linecap="round" stroke-linejoin="round" stroke-width="3.158"/>
      <line id="Line_36" data-name="Line 36" x2="0.024" y2="5.97" transform="translate(48.028 27.551)" fill="none" stroke="#ffd482" stroke-linecap="round" stroke-linejoin="round" stroke-width="3.158"/>
      <line id="Line_37" data-name="Line 37" x1="0.139" y2="6.066" transform="translate(52.857 23.359)" fill="none" stroke="#ffd482" stroke-linecap="round" stroke-linejoin="round" stroke-width="3.158"/>
      <line id="Line_38" data-name="Line 38" x1="0.026" y2="6.474" transform="translate(20.599 31.951)" fill="none" stroke="#ffd482" stroke-linecap="round" stroke-linejoin="round" stroke-width="3.158"/>
      <line id="Line_39" data-name="Line 39" x1="0.026" y2="6.474" transform="translate(13.834 30.314)" fill="none" stroke="#ffd482" stroke-linecap="round" stroke-linejoin="round" stroke-width="3.158"/>
      <line id="Line_40" data-name="Line 40" x1="0.024" y2="5.97" transform="translate(7.767 27.551)" fill="none" stroke="#ffd482" stroke-linecap="round" stroke-linejoin="round" stroke-width="3.158"/>
      <line id="Line_41" data-name="Line 41" x2="0.139" y2="6.066" transform="translate(2.823 23.359)" fill="none" stroke="#ffd482" stroke-linecap="round" stroke-linejoin="round" stroke-width="3.158"/>
    </g>
    <g id="Group_21287" data-name="Group 21287" transform="translate(266.856 171.653)">
      <g id="Group_21278" data-name="Group 21278" transform="translate(0.614 94.717)">
        <path id="Path_47137" data-name="Path 47137" d="M754.878,1023.1s-10.062-13-28.3-3.031c-13.944,7.625-6.582,7.086-23.344,12.494-9.884,3.188-25.445-14.631-49.8-3.122-44.086,20.838-59.913-20.711-78.942,2.26l1,106.817,179.533-99.361Z" transform="translate(-574.495 -1016.31)" fill="#dee5ff"/>
      </g>
      <g id="Group_21283" data-name="Group 21283" transform="translate(45.383 10.823)">
        <g id="Group_21279" data-name="Group 21279" transform="translate(134.16)">
          <path id="Path_47138" data-name="Path 47138" d="M1873.79,515.852a.624.624,0,0,0,.6-.639l-1-106.713a.615.615,0,0,0-.615-.62.624.624,0,0,0-.6.639l1,106.713A.615.615,0,0,0,1873.79,515.852Z" transform="translate(-1872.175 -407.879)" fill="#abcfff"/>
        </g>
        <g id="Group_21280" data-name="Group 21280" transform="translate(89.432 23.522)">
          <path id="Path_47139" data-name="Path 47139" d="M1549.4,686.445a.624.624,0,0,0,.6-.639l-1-106.713a.615.615,0,0,0-.616-.62.624.624,0,0,0-.6.639l1,106.713A.615.615,0,0,0,1549.4,686.445Z" transform="translate(-1547.789 -578.472)" fill="#abcfff"/>
        </g>
        <g id="Group_21281" data-name="Group 21281" transform="translate(44.716 48.383)">
          <path id="Path_47140" data-name="Path 47140" d="M1225.1,866.746a.624.624,0,0,0,.6-.639l-1-106.714a.615.615,0,0,0-.615-.62.624.624,0,0,0-.6.639l1,106.713A.615.615,0,0,0,1225.1,866.746Z" transform="translate(-1223.488 -758.773)" fill="#abcfff"/>
        </g>
        <g id="Group_21282" data-name="Group 21282" transform="translate(0 73.217)">
          <path id="Path_47141" data-name="Path 47141" d="M900.8,1046.853a.624.624,0,0,0,.6-.639l-1-106.714a.615.615,0,0,0-.615-.62.624.624,0,0,0-.6.639l1,106.713A.615.615,0,0,0,900.8,1046.853Z" transform="translate(-899.184 -938.88)" fill="#abcfff"/>
        </g>
      </g>
      <g id="Group_21284" data-name="Group 21284" transform="translate(0 109.066)">
        <path id="Path_47142" data-name="Path 47142" d="M571.66,1228.352a.624.624,0,0,0,.6-.639l-1-106.713a.615.615,0,0,0-.615-.62.625.625,0,0,0-.6.639l1,106.714A.615.615,0,0,0,571.66,1228.352Z" transform="translate(-570.045 -1120.379)" fill="#abcfff"/>
      </g>
      <g id="Group_21285" data-name="Group 21285" transform="translate(0.516)">
        <path id="Path_47143" data-name="Path 47143" d="M574.989,1015.1l5.893-3.629a3.012,3.012,0,0,0,1.17-2.373h0c-.008-.9-.549-1.315-1.2-.914l-5.893,3.629a3.013,3.013,0,0,0-1.17,2.373h0C573.8,1015.088,574.337,1015.5,574.989,1015.1Z" transform="translate(-573.788 -914.453)" fill="#abcfff"/>
        <path id="Path_47144" data-name="Path 47144" d="M904.253,846.654l5.893-3.629a3.012,3.012,0,0,0,1.17-2.373h0c-.008-.9-.549-1.315-1.2-.914l-5.893,3.629a3.012,3.012,0,0,0-1.17,2.373h0C903.061,846.645,903.6,847.056,904.253,846.654Z" transform="translate(-857.652 -769.236)" fill="#abcfff"/>
        <path id="Path_47145" data-name="Path 47145" d="M1226.254,680.089l5.893-3.629a3.012,3.012,0,0,0,1.17-2.373h0c-.009-.9-.549-1.315-1.2-.914l-5.894,3.629a3.013,3.013,0,0,0-1.17,2.373h0C1225.062,680.079,1225.6,680.49,1226.254,680.089Z" transform="translate(-1135.254 -625.637)" fill="#abcfff"/>
        <path id="Path_47146" data-name="Path 47146" d="M1552.885,509.378l5.894-3.629a3.012,3.012,0,0,0,1.17-2.373h0c-.008-.9-.549-1.315-1.2-.913l-5.893,3.629a3.013,3.013,0,0,0-1.17,2.373h0C1551.693,509.368,1552.233,509.779,1552.885,509.378Z" transform="translate(-1416.848 -478.465)" fill="#abcfff"/>
        <path id="Path_47147" data-name="Path 47147" d="M1874.642,336.451l5.894-3.629a3.012,3.012,0,0,0,1.17-2.373h0c-.008-.9-.549-1.315-1.2-.914l-5.894,3.629a3.013,3.013,0,0,0-1.17,2.373h0C1873.45,336.442,1873.99,336.853,1874.642,336.451Z" transform="translate(-1694.239 -329.382)" fill="#abcfff"/>
      </g>
      <g id="Group_21286" data-name="Group 21286" transform="translate(2.19 111.553)">
        <path id="Path_47148" data-name="Path 47148" d="M587.1,1907.759l5.893-3.629c.018-.011.036-.016.054-.026l4.376-2.694c.652-.4,1.192.01,1.2.913a3.013,3.013,0,0,1-1.17,2.373l-5.893,3.629c-.019.011-.036.016-.055.026l-4.376,2.694c-.652.4-1.192-.01-1.2-.913A3.012,3.012,0,0,1,587.1,1907.759Z" transform="translate(-585.929 -1796.072)" fill="#abcfff"/>
        <path id="Path_47149" data-name="Path 47149" d="M1274.624,1506.428l5.894-3.629c.018-.011.036-.016.054-.026l4.376-2.695c.652-.4,1.192.01,1.2.914a3.013,3.013,0,0,1-1.17,2.373l-5.894,3.629c-.019.011-.036.016-.055.026l-4.376,2.694c-.652.4-1.192-.01-1.2-.913A3.013,3.013,0,0,1,1274.624,1506.428Z" transform="translate(-1178.655 -1450.078)" fill="#abcfff"/>
        <path id="Path_47150" data-name="Path 47150" d="M919.357,1708.4l5.893-3.629c.019-.011.036-.016.054-.026l4.376-2.694c.652-.4,1.192.01,1.2.913a3.012,3.012,0,0,1-1.17,2.373l-5.893,3.629c-.019.011-.036.016-.055.026l-4.376,2.694c-.652.4-1.192-.01-1.2-.914A3.012,3.012,0,0,1,919.357,1708.4Z" transform="translate(-872.374 -1624.197)" fill="#abcfff"/>
        <path id="Path_47151" data-name="Path 47151" d="M1587.981,1326.294l5.894-3.629c.018-.011.036-.016.054-.026l4.377-2.694c.652-.4,1.192.01,1.2.913a3.013,3.013,0,0,1-1.17,2.373l-5.893,3.629c-.019.011-.036.016-.055.026l-4.376,2.694c-.652.4-1.192-.01-1.2-.913A3.013,3.013,0,0,1,1587.981,1326.294Z" transform="translate(-1448.805 -1294.783)" fill="#abcfff"/>
        <path id="Path_47152" data-name="Path 47152" d="M1921.79,1144.917l5.893-3.629c.019-.011.036-.016.054-.026l4.376-2.695c.652-.4,1.192.01,1.2.914a3.012,3.012,0,0,1-1.17,2.373l-5.893,3.629c-.019.011-.036.016-.055.026l-4.376,2.694c-.652.4-1.192-.01-1.2-.913A3.012,3.012,0,0,1,1921.79,1144.917Z" transform="translate(-1736.587 -1138.415)" fill="#abcfff"/>
      </g>
    </g>
    <path id="Path_47153" data-name="Path 47153" d="M694.084,1691.81h0l-171.917,95.635L499.96,1774.11l174.962-100.057Z" transform="translate(-242.767 -1316.991)" fill="#a8b2e5" opacity="0.4" style="mix-blend-mode: multiply;isolation: isolate"/>
    <g id="Group_21288" data-name="Group 21288" transform="translate(257.192 216.333)">
      <path id="Path_47154" data-name="Path 47154" d="M2055.347,870.091v6.245l57.027,32.54.162-6.486Z" transform="translate(-1840.883 -840.216)" fill="#f04382"/>
      <path id="Path_47155" data-name="Path 47155" d="M1231.336,1113.751l-23.822-13.181-1.871-44.81L1226.8,1018.4l-24.495-14.6-79.163,145.133,22.208,13.335,81.45-143.87,4.54,95.354" transform="translate(-1037.212 -955.489)" fill="#ff80ae"/>
      <path id="Path_47156" data-name="Path 47156" d="M1827.5,892.225l6.669-6.247-26.28-15.888L1744.99,985.4l22.208,13.335" transform="translate(-1573.32 -840.216)" fill="#ff80ae"/>
      <path id="Path_47157" data-name="Path 47157" d="M608.157,1457.319l-23.822-13.181-1.871-44.81,21.153-37.363-24.494-14.6L499.96,1492.5l22.208,13.335,81.45-143.87,4.54,95.354" transform="translate(-499.96 -1251.684)" fill="#ff80ae"/>
      <path id="Path_47158" data-name="Path 47158" d="M1103.059,1458.463l-23.758-14.324-1.871-44.81,21.153-37.363-24.494-14.6,24.494,14.6,4.54,95.354" transform="translate(-994.925 -1251.684)" fill="#f04382"/>
      <path id="Path_47159" data-name="Path 47159" d="M1726.3,1115.591l-23.822-13.181-1.871-44.81,21.153-37.363-24.495-14.6,24.495,14.6,4.54,95.354" transform="translate(-1532.177 -957.075)" fill="#f04382"/>
      <path id="Path_47160" data-name="Path 47160" d="M2055.347,683.3l54.456-29.875,2.7,63.19Z" transform="translate(-1840.883 -653.427)" fill="#ff80ae"/>
    </g>
    <g id="Group_21289" data-name="Group 21289" transform="translate(417.205 308.579)">
      <path id="Path_47161" data-name="Path 47161" d="M1662.6,1350.021a24.752,24.752,0,0,0,5.89-4.539,3.951,3.951,0,0,0,1.044-1.876c.208-.7-.03.463.047-.257.017-.158.032-.317.039-.476.03-.69.1-.083-.085-.9-.408-1.816-4.928-8.019-6.054-9.955-1.786-3.068-.263-1.806-2.145-4.821-1.864-2.985-.6-6.355,1.9-3.925a66.608,66.608,0,0,1,9.158,11.644,18.863,18.863,0,0,1,2.641,6.962c.614,5.838-4.329,9.468-8.8,12.265a2.928,2.928,0,0,1-3.882-.36c-.9-.994-.986-2.991.241-3.76Z" transform="translate(-1660.441 -1322.437)" fill="#46a6e8"/>
    </g>
    <g id="Group_21290" data-name="Group 21290" transform="translate(362.196 299.279)">
      <path id="Path_47162" data-name="Path 47162" d="M1265.923,1292.395l-4.43-.549,3.309-2.7Z" transform="translate(-1261.492 -1284.433)" fill="#bad4ff"/>
      <path id="Path_47163" data-name="Path 47163" d="M1262.795,1303.068l-1.3-.161,1.144-.934C1262.176,1302.5,1262.256,1302.859,1262.795,1303.068Z" transform="translate(-1261.492 -1295.494)" fill="#3b2ad1"/>
      <ellipse id="Ellipse_1019" data-name="Ellipse 1019" cx="1.914" cy="1.813" rx="1.914" ry="1.813" transform="translate(1.913 5.39) rotate(-27.179)" fill="#1c4591"/>
      <path id="Path_47164" data-name="Path 47164" d="M1294.86,1260.62l18.494-4.081.092,3.655-15.613,3.395Z" transform="translate(-1290.259 -1256.325)" fill="#1c4591"/>
      <path id="Path_47165" data-name="Path 47165" d="M1281.986,1277.1a1.976,1.976,0,0,0,.465-.075v.008l16.44-3.706,1.142,1.577-17.239,3.748v-.008a2,2,0,0,1-.465.075,1.785,1.785,0,0,1-1.833-1.344Z" transform="translate(-1277.876 -1270.799)" fill="#1c4591"/>
      <path id="Path_47166" data-name="Path 47166" d="M1414.982,1256.4h0l1.095-.228.011.641a2.043,2.043,0,0,1,.49,1.284,2.159,2.159,0,0,1-.444,1.441l0,.282-.584.167-.008-.014a1.123,1.123,0,0,1-.3.067c-.776.064-1.439-.7-1.481-1.713A1.789,1.789,0,0,1,1414.982,1256.4Z" transform="translate(-1392.771 -1256.009)" fill="#e1eaf4"/>
      <path id="Path_47167" data-name="Path 47167" d="M1421.033,1255.176c.018,0,.036,0,.055,0v0l1.129-.18.045.951a2.18,2.18,0,0,1,.252.944,2.3,2.3,0,0,1-.162.956l.038.8-1.051.164a1.1,1.1,0,0,1-.153.024c-.775.064-1.438-.7-1.481-1.713A1.741,1.741,0,0,1,1421.033,1255.176Z" transform="translate(-1397.889 -1254.992)" fill="#e6558a"/>
      <path id="Path_47168" data-name="Path 47168" d="M1427.893,1256.935c.042,1.01.705,1.776,1.481,1.713a1.742,1.742,0,0,0,1.328-1.943c-.042-1.01-.705-1.776-1.481-1.713A1.742,1.742,0,0,0,1427.893,1256.935Z" transform="translate(-1404.947 -1254.988)" fill="#ff80ae"/>
    </g>
    <g id="Group_21294" data-name="Group 21294" transform="translate(130.924 400.041)">
      <g id="Group_21293" data-name="Group 21293" transform="translate(0)">
        <ellipse id="Ellipse_1020" data-name="Ellipse 1020" cx="27.672" cy="15.655" rx="27.672" ry="15.655" transform="translate(9.23 6.457)" fill="#a8c4e5" opacity="0.4" style="mix-blend-mode: multiply;isolation: isolate"/>
        <g id="Group_21292" data-name="Group 21292">
          <g id="Group_21291" data-name="Group 21291">
            <path id="Path_47169" data-name="Path 47169" d="M1858.759,2034.3c.227,1.022-.2,8.683-.668,9.781-.876,3.505-3.928,6.832-9.084,9.282-11.313,5.378-28.431,4.508-38.235-1.943-4.57-3.007-7.05-6.063-7.108-9.88-.147-2.064-.209-7.826-.209-7.826.36-1.259,1.819.053,2.743-1.122a18.441,18.441,0,0,1,7.675-6.151c11.313-5.378,28.431-4.508,38.235,1.943C1856.236,2031.1,1858.471,2031.016,1858.759,2034.3Z" transform="translate(-1803.454 -2017.788)" fill="#ebb44b"/>
            <ellipse id="Ellipse_1021" data-name="Ellipse 1021" cx="27.672" cy="15.655" rx="27.672" ry="15.655" transform="translate(0.001 0.853)" fill="#fff"/>
            <ellipse id="Ellipse_1022" data-name="Ellipse 1022" cx="27.672" cy="15.655" rx="27.672" ry="15.655" transform="translate(0.001)" fill="#ffd482"/>
            <ellipse id="Ellipse_1023" data-name="Ellipse 1023" cx="19.345" cy="10.944" rx="19.345" ry="10.944" transform="translate(8.308 4.3)" fill="#fff"/>
            <path id="Path_47170" data-name="Path 47170" d="M1870.72,2020.792c8.23-3.856,20.425-3.208,27.237,1.446,2.716,1.855,4.165,4.068,4.406,6.3.289-2.675-1.147-5.416-4.406-7.643-6.813-4.655-19.007-5.3-27.237-1.446-4.95,2.319-7.337,5.738-6.973,9.108C1864.062,2025.642,1866.427,2022.8,1870.72,2020.792Z" transform="translate(-1855.402 -2012.635)" fill="#f2c97b"/>
            <path id="Path_47171" data-name="Path 47171" d="M1926.907,2066.084a5.29,5.29,0,0,1-2.106-3.529l3.817-.227a3.986,3.986,0,0,0,1.8,2.823,3.242,3.242,0,0,0,3.475.384c2.481-1.228-3.473-5.139.863-7.285a9.227,9.227,0,0,1,7.858.059l2.481-1.228,2.17,1.446-2.433,1.2a3.474,3.474,0,0,1,1.358,3.2l-3.679-.1a2.416,2.416,0,0,0-1.234-2.22,3,3,0,0,0-3.2-.34c-2.289,1.133,3.811,4.972-.791,7.249a9.524,9.524,0,0,1-8.116-.036l-2.506,1.24-2.17-1.445Z" transform="translate(-1907.808 -2047.246)" fill="#ffd482"/>
          </g>
        </g>
      </g>
      <line id="Line_42" data-name="Line 42" x2="0.07" y2="6.654" transform="translate(28.075 32.446)" fill="none" stroke="#ffd482" stroke-linecap="round" stroke-linejoin="round" stroke-width="3.158"/>
      <line id="Line_43" data-name="Line 43" x2="0.026" y2="6.474" transform="translate(35.194 31.951)" fill="none" stroke="#ffd482" stroke-linecap="round" stroke-linejoin="round" stroke-width="3.158"/>
      <line id="Line_44" data-name="Line 44" x2="0.026" y2="6.474" transform="translate(41.96 30.314)" fill="none" stroke="#ffd482" stroke-linecap="round" stroke-linejoin="round" stroke-width="3.158"/>
      <line id="Line_45" data-name="Line 45" x2="0.024" y2="5.97" transform="translate(48.028 27.551)" fill="none" stroke="#ffd482" stroke-linecap="round" stroke-linejoin="round" stroke-width="3.158"/>
      <line id="Line_46" data-name="Line 46" x1="0.139" y2="6.066" transform="translate(52.857 23.359)" fill="none" stroke="#ffd482" stroke-linecap="round" stroke-linejoin="round" stroke-width="3.158"/>
      <line id="Line_47" data-name="Line 47" x1="0.026" y2="6.474" transform="translate(20.599 31.951)" fill="none" stroke="#ffd482" stroke-linecap="round" stroke-linejoin="round" stroke-width="3.158"/>
      <line id="Line_48" data-name="Line 48" x1="0.026" y2="6.474" transform="translate(13.834 30.314)" fill="none" stroke="#ffd482" stroke-linecap="round" stroke-linejoin="round" stroke-width="3.158"/>
      <line id="Line_49" data-name="Line 49" x1="0.024" y2="5.97" transform="translate(7.767 27.551)" fill="none" stroke="#ffd482" stroke-linecap="round" stroke-linejoin="round" stroke-width="3.158"/>
      <line id="Line_50" data-name="Line 50" x2="0.139" y2="6.066" transform="translate(2.823 23.359)" fill="none" stroke="#ffd482" stroke-linecap="round" stroke-linejoin="round" stroke-width="3.158"/>
    </g>
    <g id="Group_21298" data-name="Group 21298" transform="translate(786.541 398.647)">
      <g id="Group_21297" data-name="Group 21297">
        <ellipse id="Ellipse_1024" data-name="Ellipse 1024" cx="27.672" cy="15.655" rx="27.672" ry="15.655" transform="translate(9.23 6.457)" fill="#a8c4e5" opacity="0.4" style="mix-blend-mode: multiply;isolation: isolate"/>
        <g id="Group_21296" data-name="Group 21296">
          <g id="Group_21295" data-name="Group 21295">
            <path id="Path_47172" data-name="Path 47172" d="M2951.1,2024.19c.227,1.022-.2,8.683-.668,9.782-.876,3.5-3.928,6.831-9.084,9.282-11.313,5.378-28.431,4.508-38.235-1.943-4.57-3.007-7.051-6.063-7.108-9.88-.147-2.064-.209-7.826-.209-7.826.36-1.259,1.819.053,2.743-1.122a18.439,18.439,0,0,1,7.675-6.151c11.313-5.378,28.431-4.508,38.235,1.943C2948.58,2020.992,2950.814,2020.908,2951.1,2024.19Z" transform="translate(-2895.797 -2007.681)" fill="#ebb44b"/>
            <ellipse id="Ellipse_1025" data-name="Ellipse 1025" cx="27.672" cy="15.655" rx="27.672" ry="15.655" transform="translate(0.001 0.853)" fill="#fff"/>
            <ellipse id="Ellipse_1026" data-name="Ellipse 1026" cx="27.672" cy="15.655" rx="27.672" ry="15.655" transform="translate(0.001)" fill="#ffd482"/>
            <ellipse id="Ellipse_1027" data-name="Ellipse 1027" cx="19.345" cy="10.944" rx="19.345" ry="10.944" transform="translate(8.308 4.3)" fill="#fff"/>
            <path id="Path_47173" data-name="Path 47173" d="M2963.063,2010.684c8.23-3.856,20.424-3.208,27.237,1.447,2.716,1.855,4.165,4.068,4.406,6.3.289-2.675-1.147-5.416-4.406-7.643-6.813-4.655-19.007-5.3-27.237-1.446-4.95,2.319-7.337,5.738-6.973,9.108C2956.4,2015.534,2958.77,2012.7,2963.063,2010.684Z" transform="translate(-2947.746 -2002.527)" fill="#f2c97b"/>
            <path id="Path_47174" data-name="Path 47174" d="M3019.25,2055.976a5.289,5.289,0,0,1-2.106-3.529l3.817-.227a3.986,3.986,0,0,0,1.8,2.823,3.242,3.242,0,0,0,3.475.385c2.481-1.228-3.474-5.139.863-7.285a9.227,9.227,0,0,1,7.858.059l2.481-1.228,2.17,1.446-2.433,1.2a3.475,3.475,0,0,1,1.358,3.2l-3.679-.1a2.417,2.417,0,0,0-1.234-2.22,3,3,0,0,0-3.2-.34c-2.289,1.133,3.811,4.972-.791,7.249a9.525,9.525,0,0,1-8.117-.036l-2.505,1.24-2.17-1.446Z" transform="translate(-3000.151 -2037.138)" fill="#ffd482"/>
          </g>
        </g>
      </g>
      <line id="Line_51" data-name="Line 51" x2="0.07" y2="6.654" transform="translate(28.075 32.446)" fill="none" stroke="#ffd482" stroke-linecap="round" stroke-linejoin="round" stroke-width="3.158"/>
      <line id="Line_52" data-name="Line 52" x2="0.026" y2="6.474" transform="translate(35.194 31.951)" fill="none" stroke="#ffd482" stroke-linecap="round" stroke-linejoin="round" stroke-width="3.158"/>
      <line id="Line_53" data-name="Line 53" x2="0.026" y2="6.474" transform="translate(41.96 30.314)" fill="none" stroke="#ffd482" stroke-linecap="round" stroke-linejoin="round" stroke-width="3.158"/>
      <line id="Line_54" data-name="Line 54" x2="0.024" y2="5.97" transform="translate(48.028 27.551)" fill="none" stroke="#ffd482" stroke-linecap="round" stroke-linejoin="round" stroke-width="3.158"/>
      <line id="Line_55" data-name="Line 55" x1="0.139" y2="6.066" transform="translate(52.857 23.359)" fill="none" stroke="#ffd482" stroke-linecap="round" stroke-linejoin="round" stroke-width="3.158"/>
      <line id="Line_56" data-name="Line 56" x1="0.026" y2="6.474" transform="translate(20.599 31.951)" fill="none" stroke="#ffd482" stroke-linecap="round" stroke-linejoin="round" stroke-width="3.158"/>
      <line id="Line_57" data-name="Line 57" x1="0.026" y2="6.474" transform="translate(13.834 30.314)" fill="none" stroke="#ffd482" stroke-linecap="round" stroke-linejoin="round" stroke-width="3.158"/>
      <line id="Line_58" data-name="Line 58" x1="0.024" y2="5.97" transform="translate(7.767 27.551)" fill="none" stroke="#ffd482" stroke-linecap="round" stroke-linejoin="round" stroke-width="3.158"/>
      <line id="Line_59" data-name="Line 59" x2="0.139" y2="6.066" transform="translate(2.823 23.359)" fill="none" stroke="#ffd482" stroke-linecap="round" stroke-linejoin="round" stroke-width="3.158"/>
    </g>
    <g id="Group_21315" data-name="Group 21315" transform="translate(708.073 304.433)">
      <g id="Group_21302" data-name="Group 21302" transform="translate(0 35.343)">
        <g id="Group_21301" data-name="Group 21301">
          <ellipse id="Ellipse_1028" data-name="Ellipse 1028" cx="27.672" cy="15.655" rx="27.672" ry="15.655" transform="translate(9.23 6.457)" fill="#a8c4e5" opacity="0.4" style="mix-blend-mode: multiply;isolation: isolate"/>
          <g id="Group_21300" data-name="Group 21300">
            <g id="Group_21299" data-name="Group 21299">
              <path id="Path_47175" data-name="Path 47175" d="M2382.013,1597.234c.227,1.022-.2,8.683-.668,9.782-.876,3.5-3.928,6.831-9.084,9.282-11.313,5.378-28.431,4.508-38.235-1.943-4.57-3.007-7.05-6.063-7.108-9.88-.147-2.064-.209-7.826-.209-7.826.36-1.259,1.819.053,2.743-1.122a18.443,18.443,0,0,1,7.675-6.151c11.313-5.378,28.431-4.508,38.235,1.943C2379.491,1594.036,2381.726,1593.952,2382.013,1597.234Z" transform="translate(-2326.709 -1580.725)" fill="#ebb44b"/>
              <ellipse id="Ellipse_1029" data-name="Ellipse 1029" cx="27.672" cy="15.655" rx="27.672" ry="15.655" transform="translate(0.001 0.853)" fill="#fff"/>
              <ellipse id="Ellipse_1030" data-name="Ellipse 1030" cx="27.672" cy="15.655" rx="27.672" ry="15.655" transform="translate(0.001)" fill="#ffd482"/>
              <ellipse id="Ellipse_1031" data-name="Ellipse 1031" cx="19.345" cy="10.944" rx="19.345" ry="10.944" transform="translate(8.308 4.3)" fill="#fff"/>
              <path id="Path_47176" data-name="Path 47176" d="M2393.974,1583.729c8.23-3.856,20.425-3.208,27.237,1.446,2.716,1.856,4.165,4.068,4.406,6.3.289-2.675-1.147-5.416-4.406-7.643-6.812-4.655-19.007-5.3-27.237-1.447-4.949,2.319-7.337,5.738-6.973,9.108C2387.316,1588.579,2389.681,1585.74,2393.974,1583.729Z" transform="translate(-2378.657 -1575.572)" fill="#f2c97b"/>
              <path id="Path_47177" data-name="Path 47177" d="M2450.162,1629.021a5.288,5.288,0,0,1-2.106-3.529l3.817-.227a3.985,3.985,0,0,0,1.8,2.823,3.242,3.242,0,0,0,3.475.384c2.481-1.228-3.474-5.139.863-7.285a9.227,9.227,0,0,1,7.858.059l2.481-1.228,2.17,1.446-2.433,1.2a3.476,3.476,0,0,1,1.358,3.2l-3.679-.1a2.416,2.416,0,0,0-1.234-2.221,3,3,0,0,0-3.2-.34c-2.289,1.133,3.811,4.972-.791,7.249a9.524,9.524,0,0,1-8.116-.036l-2.506,1.24-2.17-1.446Z" transform="translate(-2431.063 -1610.183)" fill="#ffd482"/>
            </g>
          </g>
        </g>
        <line id="Line_60" data-name="Line 60" x2="0.07" y2="6.654" transform="translate(28.075 32.446)" fill="none" stroke="#ffd482" stroke-linecap="round" stroke-linejoin="round" stroke-width="3.158"/>
        <line id="Line_61" data-name="Line 61" x2="0.026" y2="6.474" transform="translate(35.194 31.951)" fill="none" stroke="#ffd482" stroke-linecap="round" stroke-linejoin="round" stroke-width="3.158"/>
        <line id="Line_62" data-name="Line 62" x2="0.026" y2="6.474" transform="translate(41.96 30.314)" fill="none" stroke="#ffd482" stroke-linecap="round" stroke-linejoin="round" stroke-width="3.158"/>
        <line id="Line_63" data-name="Line 63" x2="0.024" y2="5.97" transform="translate(48.028 27.551)" fill="none" stroke="#ffd482" stroke-linecap="round" stroke-linejoin="round" stroke-width="3.158"/>
        <line id="Line_64" data-name="Line 64" x1="0.139" y2="6.066" transform="translate(52.857 23.359)" fill="none" stroke="#ffd482" stroke-linecap="round" stroke-linejoin="round" stroke-width="3.158"/>
        <line id="Line_65" data-name="Line 65" x1="0.026" y2="6.474" transform="translate(20.599 31.951)" fill="none" stroke="#ffd482" stroke-linecap="round" stroke-linejoin="round" stroke-width="3.158"/>
        <line id="Line_66" data-name="Line 66" x1="0.026" y2="6.474" transform="translate(13.834 30.314)" fill="none" stroke="#ffd482" stroke-linecap="round" stroke-linejoin="round" stroke-width="3.158"/>
        <line id="Line_67" data-name="Line 67" x1="0.024" y2="5.97" transform="translate(7.767 27.551)" fill="none" stroke="#ffd482" stroke-linecap="round" stroke-linejoin="round" stroke-width="3.158"/>
        <line id="Line_68" data-name="Line 68" x2="0.139" y2="6.066" transform="translate(2.823 23.359)" fill="none" stroke="#ffd482" stroke-linecap="round" stroke-linejoin="round" stroke-width="3.158"/>
      </g>
      <g id="Group_21306" data-name="Group 21306" transform="translate(0 23.856)">
        <g id="Group_21305" data-name="Group 21305">
          <g id="Group_21304" data-name="Group 21304">
            <g id="Group_21303" data-name="Group 21303">
              <path id="Path_47178" data-name="Path 47178" d="M2382.013,1513.922c.227,1.022-.2,8.683-.668,9.782-.876,3.5-3.928,6.831-9.084,9.282-11.313,5.378-28.431,4.508-38.235-1.943-4.57-3.007-7.05-6.063-7.108-9.88-.147-2.064-.209-7.826-.209-7.826.36-1.259,1.819.053,2.743-1.122a18.441,18.441,0,0,1,7.675-6.151c11.313-5.378,28.431-4.508,38.235,1.943C2379.491,1510.724,2381.726,1510.641,2382.013,1513.922Z" transform="translate(-2326.709 -1497.414)" fill="#ebb44b"/>
              <ellipse id="Ellipse_1032" data-name="Ellipse 1032" cx="27.672" cy="15.655" rx="27.672" ry="15.655" transform="translate(0.001 0.853)" fill="#fff"/>
              <ellipse id="Ellipse_1033" data-name="Ellipse 1033" cx="27.672" cy="15.655" rx="27.672" ry="15.655" transform="translate(0.001)" fill="#ffd482"/>
              <ellipse id="Ellipse_1034" data-name="Ellipse 1034" cx="19.345" cy="10.944" rx="19.345" ry="10.944" transform="translate(8.308 4.3)" fill="#fff"/>
              <path id="Path_47179" data-name="Path 47179" d="M2393.974,1500.417c8.23-3.856,20.425-3.208,27.237,1.447,2.716,1.855,4.165,4.068,4.406,6.3.289-2.675-1.147-5.416-4.406-7.642-6.812-4.655-19.007-5.3-27.237-1.447-4.949,2.319-7.337,5.738-6.973,9.108C2387.316,1505.267,2389.681,1502.428,2393.974,1500.417Z" transform="translate(-2378.657 -1492.26)" fill="#f2c97b"/>
              <path id="Path_47180" data-name="Path 47180" d="M2450.162,1545.709a5.288,5.288,0,0,1-2.106-3.529l3.817-.227a3.984,3.984,0,0,0,1.8,2.822,3.242,3.242,0,0,0,3.475.385c2.481-1.228-3.474-5.139.863-7.285a9.227,9.227,0,0,1,7.858.059l2.481-1.228,2.17,1.446-2.433,1.2a3.475,3.475,0,0,1,1.358,3.2l-3.679-.1a2.416,2.416,0,0,0-1.234-2.221,3,3,0,0,0-3.2-.34c-2.289,1.133,3.811,4.972-.791,7.25a9.524,9.524,0,0,1-8.116-.036l-2.506,1.24-2.17-1.446Z" transform="translate(-2431.063 -1526.871)" fill="#ffd482"/>
            </g>
          </g>
        </g>
        <line id="Line_69" data-name="Line 69" x2="0.07" y2="6.654" transform="translate(28.075 32.446)" fill="none" stroke="#ffd482" stroke-linecap="round" stroke-linejoin="round" stroke-width="3.158"/>
        <line id="Line_70" data-name="Line 70" x2="0.026" y2="6.474" transform="translate(35.194 31.951)" fill="none" stroke="#ffd482" stroke-linecap="round" stroke-linejoin="round" stroke-width="3.158"/>
        <line id="Line_71" data-name="Line 71" x2="0.026" y2="6.474" transform="translate(41.96 30.314)" fill="none" stroke="#ffd482" stroke-linecap="round" stroke-linejoin="round" stroke-width="3.158"/>
        <line id="Line_72" data-name="Line 72" x2="0.024" y2="5.97" transform="translate(48.028 27.551)" fill="none" stroke="#ffd482" stroke-linecap="round" stroke-linejoin="round" stroke-width="3.158"/>
        <line id="Line_73" data-name="Line 73" x1="0.139" y2="6.066" transform="translate(52.857 23.359)" fill="none" stroke="#ffd482" stroke-linecap="round" stroke-linejoin="round" stroke-width="3.158"/>
        <line id="Line_74" data-name="Line 74" x1="0.026" y2="6.474" transform="translate(20.599 31.951)" fill="none" stroke="#ffd482" stroke-linecap="round" stroke-linejoin="round" stroke-width="3.158"/>
        <line id="Line_75" data-name="Line 75" x1="0.026" y2="6.474" transform="translate(13.834 30.314)" fill="none" stroke="#ffd482" stroke-linecap="round" stroke-linejoin="round" stroke-width="3.158"/>
        <line id="Line_76" data-name="Line 76" x1="0.024" y2="5.97" transform="translate(7.767 27.551)" fill="none" stroke="#ffd482" stroke-linecap="round" stroke-linejoin="round" stroke-width="3.158"/>
        <line id="Line_77" data-name="Line 77" x2="0.139" y2="6.066" transform="translate(2.823 23.359)" fill="none" stroke="#ffd482" stroke-linecap="round" stroke-linejoin="round" stroke-width="3.158"/>
      </g>
      <g id="Group_21310" data-name="Group 21310" transform="translate(0 11.584)">
        <g id="Group_21309" data-name="Group 21309">
          <g id="Group_21308" data-name="Group 21308">
            <g id="Group_21307" data-name="Group 21307">
              <path id="Path_47181" data-name="Path 47181" d="M2382.013,1424.917c.227,1.022-.2,8.683-.668,9.782-.876,3.5-3.928,6.831-9.084,9.282-11.313,5.378-28.431,4.508-38.235-1.943-4.57-3.007-7.05-6.063-7.108-9.88-.147-2.064-.209-7.826-.209-7.826.36-1.259,1.819.053,2.743-1.122a18.441,18.441,0,0,1,7.675-6.151c11.313-5.378,28.431-4.508,38.235,1.943C2379.491,1421.719,2381.726,1421.636,2382.013,1424.917Z" transform="translate(-2326.709 -1408.408)" fill="#ebb44b"/>
              <ellipse id="Ellipse_1035" data-name="Ellipse 1035" cx="27.672" cy="15.655" rx="27.672" ry="15.655" transform="translate(0.001 0.853)" fill="#fff"/>
              <ellipse id="Ellipse_1036" data-name="Ellipse 1036" cx="27.672" cy="15.655" rx="27.672" ry="15.655" transform="translate(0.001)" fill="#ffd482"/>
              <ellipse id="Ellipse_1037" data-name="Ellipse 1037" cx="19.345" cy="10.944" rx="19.345" ry="10.944" transform="translate(8.308 4.3)" fill="#fff"/>
              <path id="Path_47182" data-name="Path 47182" d="M2393.974,1411.412c8.23-3.856,20.425-3.208,27.237,1.446,2.716,1.855,4.165,4.068,4.406,6.3.289-2.675-1.147-5.416-4.406-7.643-6.812-4.655-19.007-5.3-27.237-1.446-4.949,2.319-7.337,5.738-6.973,9.108C2387.316,1416.262,2389.681,1413.423,2393.974,1411.412Z" transform="translate(-2378.657 -1403.255)" fill="#f2c97b"/>
              <path id="Path_47183" data-name="Path 47183" d="M2450.162,1456.7a5.288,5.288,0,0,1-2.106-3.529l3.817-.227a3.985,3.985,0,0,0,1.8,2.823,3.242,3.242,0,0,0,3.475.385c2.481-1.228-3.474-5.139.863-7.285a9.228,9.228,0,0,1,7.858.059l2.481-1.228,2.17,1.446-2.433,1.2a3.476,3.476,0,0,1,1.358,3.2l-3.679-.1a2.416,2.416,0,0,0-1.234-2.221,3,3,0,0,0-3.2-.34c-2.289,1.133,3.811,4.972-.791,7.249a9.525,9.525,0,0,1-8.116-.036l-2.506,1.24-2.17-1.446Z" transform="translate(-2431.063 -1437.866)" fill="#ffd482"/>
            </g>
          </g>
        </g>
        <line id="Line_78" data-name="Line 78" x2="0.07" y2="6.654" transform="translate(28.075 32.446)" fill="none" stroke="#ffd482" stroke-linecap="round" stroke-linejoin="round" stroke-width="3.158"/>
        <line id="Line_79" data-name="Line 79" x2="0.026" y2="6.474" transform="translate(35.194 31.951)" fill="none" stroke="#ffd482" stroke-linecap="round" stroke-linejoin="round" stroke-width="3.158"/>
        <line id="Line_80" data-name="Line 80" x2="0.026" y2="6.474" transform="translate(41.96 30.314)" fill="none" stroke="#ffd482" stroke-linecap="round" stroke-linejoin="round" stroke-width="3.158"/>
        <line id="Line_81" data-name="Line 81" x2="0.024" y2="5.97" transform="translate(48.028 27.551)" fill="none" stroke="#ffd482" stroke-linecap="round" stroke-linejoin="round" stroke-width="3.158"/>
        <line id="Line_82" data-name="Line 82" x1="0.139" y2="6.066" transform="translate(52.857 23.359)" fill="none" stroke="#ffd482" stroke-linecap="round" stroke-linejoin="round" stroke-width="3.158"/>
        <line id="Line_83" data-name="Line 83" x1="0.026" y2="6.474" transform="translate(20.599 31.951)" fill="none" stroke="#ffd482" stroke-linecap="round" stroke-linejoin="round" stroke-width="3.158"/>
        <line id="Line_84" data-name="Line 84" x1="0.026" y2="6.474" transform="translate(13.834 30.314)" fill="none" stroke="#ffd482" stroke-linecap="round" stroke-linejoin="round" stroke-width="3.158"/>
        <line id="Line_85" data-name="Line 85" x1="0.024" y2="5.97" transform="translate(7.767 27.551)" fill="none" stroke="#ffd482" stroke-linecap="round" stroke-linejoin="round" stroke-width="3.158"/>
        <line id="Line_86" data-name="Line 86" x2="0.139" y2="6.066" transform="translate(2.823 23.359)" fill="none" stroke="#ffd482" stroke-linecap="round" stroke-linejoin="round" stroke-width="3.158"/>
      </g>
      <g id="Group_21314" data-name="Group 21314">
        <g id="Group_21313" data-name="Group 21313">
          <g id="Group_21312" data-name="Group 21312">
            <g id="Group_21311" data-name="Group 21311">
              <path id="Path_47184" data-name="Path 47184" d="M2382.013,1340.907c.227,1.022-.2,8.683-.668,9.782-.876,3.5-3.928,6.831-9.084,9.282-11.313,5.378-28.431,4.508-38.235-1.943-4.57-3.007-7.05-6.063-7.108-9.88-.147-2.064-.209-7.826-.209-7.826.36-1.259,1.819.053,2.743-1.122a18.441,18.441,0,0,1,7.675-6.151c11.313-5.378,28.431-4.508,38.235,1.943C2379.491,1337.709,2381.726,1337.626,2382.013,1340.907Z" transform="translate(-2326.709 -1324.399)" fill="#ebb44b"/>
              <ellipse id="Ellipse_1038" data-name="Ellipse 1038" cx="27.672" cy="15.655" rx="27.672" ry="15.655" transform="translate(0.001 0.853)" fill="#fff"/>
              <ellipse id="Ellipse_1039" data-name="Ellipse 1039" cx="27.672" cy="15.655" rx="27.672" ry="15.655" transform="translate(0.001)" fill="#ffd482"/>
              <ellipse id="Ellipse_1040" data-name="Ellipse 1040" cx="19.345" cy="10.944" rx="19.345" ry="10.944" transform="translate(8.308 4.3)" fill="#fff"/>
              <path id="Path_47185" data-name="Path 47185" d="M2393.974,1327.4c8.23-3.856,20.425-3.208,27.237,1.446,2.716,1.855,4.165,4.068,4.406,6.3.289-2.675-1.147-5.416-4.406-7.642-6.812-4.655-19.007-5.3-27.237-1.447-4.949,2.319-7.337,5.738-6.973,9.108C2387.316,1332.252,2389.681,1329.413,2393.974,1327.4Z" transform="translate(-2378.657 -1319.245)" fill="#f2c97b"/>
              <path id="Path_47186" data-name="Path 47186" d="M2450.162,1372.694a5.288,5.288,0,0,1-2.106-3.529l3.817-.227a3.985,3.985,0,0,0,1.8,2.823,3.242,3.242,0,0,0,3.475.384c2.481-1.228-3.474-5.139.863-7.285a9.228,9.228,0,0,1,7.858.059l2.481-1.228,2.17,1.446-2.433,1.2a3.475,3.475,0,0,1,1.358,3.2l-3.679-.1a2.415,2.415,0,0,0-1.234-2.22,3,3,0,0,0-3.2-.34c-2.289,1.133,3.811,4.972-.791,7.249a9.526,9.526,0,0,1-8.116-.036l-2.506,1.24-2.17-1.446Z" transform="translate(-2431.063 -1353.856)" fill="#ffd482"/>
            </g>
          </g>
        </g>
        <line id="Line_87" data-name="Line 87" x2="0.07" y2="6.654" transform="translate(28.075 32.446)" fill="none" stroke="#ffd482" stroke-linecap="round" stroke-linejoin="round" stroke-width="3.158"/>
        <line id="Line_88" data-name="Line 88" x2="0.026" y2="6.474" transform="translate(35.194 31.951)" fill="none" stroke="#ffd482" stroke-linecap="round" stroke-linejoin="round" stroke-width="3.158"/>
        <line id="Line_89" data-name="Line 89" x2="0.026" y2="6.474" transform="translate(41.96 30.314)" fill="none" stroke="#ffd482" stroke-linecap="round" stroke-linejoin="round" stroke-width="3.158"/>
        <line id="Line_90" data-name="Line 90" x2="0.024" y2="5.97" transform="translate(48.028 27.551)" fill="none" stroke="#ffd482" stroke-linecap="round" stroke-linejoin="round" stroke-width="3.158"/>
        <line id="Line_91" data-name="Line 91" x1="0.139" y2="6.066" transform="translate(52.857 23.359)" fill="none" stroke="#ffd482" stroke-linecap="round" stroke-linejoin="round" stroke-width="3.158"/>
        <line id="Line_92" data-name="Line 92" x1="0.026" y2="6.474" transform="translate(20.599 31.951)" fill="none" stroke="#ffd482" stroke-linecap="round" stroke-linejoin="round" stroke-width="3.158"/>
        <line id="Line_93" data-name="Line 93" x1="0.026" y2="6.474" transform="translate(13.834 30.314)" fill="none" stroke="#ffd482" stroke-linecap="round" stroke-linejoin="round" stroke-width="3.158"/>
        <line id="Line_94" data-name="Line 94" x1="0.024" y2="5.97" transform="translate(7.767 27.551)" fill="none" stroke="#ffd482" stroke-linecap="round" stroke-linejoin="round" stroke-width="3.158"/>
        <line id="Line_95" data-name="Line 95" x2="0.139" y2="6.066" transform="translate(2.823 23.359)" fill="none" stroke="#ffd482" stroke-linecap="round" stroke-linejoin="round" stroke-width="3.158"/>
      </g>
    </g>
    <g id="Group_21332" data-name="Group 21332" transform="translate(665.249 328.808)">
      <g id="Group_21319" data-name="Group 21319" transform="translate(0 35.343)">
        <g id="Group_21318" data-name="Group 21318">
          <ellipse id="Ellipse_1041" data-name="Ellipse 1041" cx="27.672" cy="15.655" rx="27.672" ry="15.655" transform="translate(9.23 6.457)" fill="#a8c4e5" opacity="0.4" style="mix-blend-mode: multiply;isolation: isolate"/>
          <g id="Group_21317" data-name="Group 21317">
            <g id="Group_21316" data-name="Group 21316">
              <path id="Path_47187" data-name="Path 47187" d="M2071.438,1774.015c.227,1.022-.2,8.683-.668,9.782-.876,3.5-3.928,6.831-9.084,9.282-11.313,5.378-28.431,4.508-38.235-1.943-4.569-3.007-7.05-6.063-7.108-9.88-.147-2.064-.209-7.826-.209-7.826.36-1.259,1.819.053,2.743-1.122a18.442,18.442,0,0,1,7.675-6.151c11.313-5.378,28.431-4.508,38.235,1.943C2068.916,1770.816,2071.151,1770.733,2071.438,1774.015Z" transform="translate(-2016.134 -1757.506)" fill="#ebb44b"/>
              <ellipse id="Ellipse_1042" data-name="Ellipse 1042" cx="27.672" cy="15.655" rx="27.672" ry="15.655" transform="translate(0.001 0.853)" fill="#fff"/>
              <ellipse id="Ellipse_1043" data-name="Ellipse 1043" cx="27.672" cy="15.655" rx="27.672" ry="15.655" transform="translate(0.001)" fill="#ffd482"/>
              <ellipse id="Ellipse_1044" data-name="Ellipse 1044" cx="19.345" cy="10.944" rx="19.345" ry="10.944" transform="translate(8.308 4.3)" fill="#fff"/>
              <path id="Path_47188" data-name="Path 47188" d="M2083.4,1760.509c8.23-3.856,20.425-3.208,27.237,1.446,2.716,1.856,4.165,4.068,4.406,6.3.289-2.675-1.147-5.416-4.406-7.643-6.812-4.655-19.007-5.3-27.237-1.446-4.949,2.319-7.337,5.738-6.973,9.108C2076.741,1765.36,2079.106,1762.521,2083.4,1760.509Z" transform="translate(-2068.082 -1752.353)" fill="#f2c97b"/>
              <path id="Path_47189" data-name="Path 47189" d="M2139.587,1805.8a5.289,5.289,0,0,1-2.106-3.529l3.817-.227a3.985,3.985,0,0,0,1.8,2.823,3.242,3.242,0,0,0,3.475.385c2.482-1.228-3.473-5.139.863-7.285a9.227,9.227,0,0,1,7.858.059l2.481-1.228,2.17,1.446-2.433,1.2a3.475,3.475,0,0,1,1.358,3.2l-3.679-.1a2.416,2.416,0,0,0-1.234-2.221,3,3,0,0,0-3.2-.34c-2.289,1.133,3.811,4.972-.791,7.25a9.526,9.526,0,0,1-8.116-.036l-2.505,1.24-2.17-1.446Z" transform="translate(-2120.488 -1786.964)" fill="#ffd482"/>
            </g>
          </g>
        </g>
        <line id="Line_96" data-name="Line 96" x2="0.07" y2="6.654" transform="translate(28.075 32.446)" fill="none" stroke="#ffd482" stroke-linecap="round" stroke-linejoin="round" stroke-width="3.158"/>
        <line id="Line_97" data-name="Line 97" x2="0.026" y2="6.474" transform="translate(35.194 31.951)" fill="none" stroke="#ffd482" stroke-linecap="round" stroke-linejoin="round" stroke-width="3.158"/>
        <line id="Line_98" data-name="Line 98" x2="0.026" y2="6.474" transform="translate(41.96 30.314)" fill="none" stroke="#ffd482" stroke-linecap="round" stroke-linejoin="round" stroke-width="3.158"/>
        <line id="Line_99" data-name="Line 99" x2="0.024" y2="5.97" transform="translate(48.028 27.551)" fill="none" stroke="#ffd482" stroke-linecap="round" stroke-linejoin="round" stroke-width="3.158"/>
        <line id="Line_100" data-name="Line 100" x1="0.139" y2="6.066" transform="translate(52.857 23.359)" fill="none" stroke="#ffd482" stroke-linecap="round" stroke-linejoin="round" stroke-width="3.158"/>
        <line id="Line_101" data-name="Line 101" x1="0.026" y2="6.474" transform="translate(20.599 31.951)" fill="none" stroke="#ffd482" stroke-linecap="round" stroke-linejoin="round" stroke-width="3.158"/>
        <line id="Line_102" data-name="Line 102" x1="0.026" y2="6.474" transform="translate(13.834 30.314)" fill="none" stroke="#ffd482" stroke-linecap="round" stroke-linejoin="round" stroke-width="3.158"/>
        <line id="Line_103" data-name="Line 103" x1="0.024" y2="5.97" transform="translate(7.767 27.551)" fill="none" stroke="#ffd482" stroke-linecap="round" stroke-linejoin="round" stroke-width="3.158"/>
        <line id="Line_104" data-name="Line 104" x2="0.139" y2="6.066" transform="translate(2.823 23.359)" fill="none" stroke="#ffd482" stroke-linecap="round" stroke-linejoin="round" stroke-width="3.158"/>
      </g>
      <g id="Group_21323" data-name="Group 21323" transform="translate(0 23.856)">
        <g id="Group_21322" data-name="Group 21322">
          <g id="Group_21321" data-name="Group 21321">
            <g id="Group_21320" data-name="Group 21320">
              <path id="Path_47190" data-name="Path 47190" d="M2071.438,1690.7c.227,1.022-.2,8.683-.668,9.782-.876,3.5-3.928,6.831-9.084,9.282-11.313,5.378-28.431,4.508-38.235-1.943-4.569-3.007-7.05-6.063-7.108-9.88-.147-2.064-.209-7.826-.209-7.826.36-1.259,1.819.053,2.743-1.122a18.438,18.438,0,0,1,7.675-6.151c11.313-5.378,28.431-4.508,38.235,1.943C2068.916,1687.505,2071.151,1687.422,2071.438,1690.7Z" transform="translate(-2016.134 -1674.195)" fill="#ebb44b"/>
              <ellipse id="Ellipse_1045" data-name="Ellipse 1045" cx="27.672" cy="15.655" rx="27.672" ry="15.655" transform="translate(0.001 0.853)" fill="#fff"/>
              <ellipse id="Ellipse_1046" data-name="Ellipse 1046" cx="27.672" cy="15.655" rx="27.672" ry="15.655" transform="translate(0.001)" fill="#ffd482"/>
              <ellipse id="Ellipse_1047" data-name="Ellipse 1047" cx="19.345" cy="10.944" rx="19.345" ry="10.944" transform="translate(8.308 4.3)" fill="#fff"/>
              <path id="Path_47191" data-name="Path 47191" d="M2083.4,1677.2c8.23-3.856,20.425-3.208,27.237,1.446,2.716,1.856,4.165,4.068,4.406,6.3.289-2.675-1.147-5.416-4.406-7.642-6.812-4.655-19.007-5.3-27.237-1.447-4.949,2.319-7.337,5.738-6.973,9.108C2076.741,1682.048,2079.106,1679.209,2083.4,1677.2Z" transform="translate(-2068.082 -1669.041)" fill="#f2c97b"/>
              <path id="Path_47192" data-name="Path 47192" d="M2139.587,1722.49a5.289,5.289,0,0,1-2.106-3.529l3.817-.227a3.984,3.984,0,0,0,1.8,2.822,3.242,3.242,0,0,0,3.475.385c2.482-1.228-3.473-5.139.863-7.285a9.227,9.227,0,0,1,7.858.059l2.481-1.228,2.17,1.446-2.433,1.2a3.474,3.474,0,0,1,1.358,3.2l-3.679-.1a2.416,2.416,0,0,0-1.234-2.22,3,3,0,0,0-3.2-.34c-2.289,1.133,3.811,4.972-.791,7.25a9.524,9.524,0,0,1-8.116-.036l-2.505,1.24-2.17-1.446Z" transform="translate(-2120.488 -1703.652)" fill="#ffd482"/>
            </g>
          </g>
        </g>
        <line id="Line_105" data-name="Line 105" x2="0.07" y2="6.654" transform="translate(28.075 32.446)" fill="none" stroke="#ffd482" stroke-linecap="round" stroke-linejoin="round" stroke-width="3.158"/>
        <line id="Line_106" data-name="Line 106" x2="0.026" y2="6.474" transform="translate(35.194 31.951)" fill="none" stroke="#ffd482" stroke-linecap="round" stroke-linejoin="round" stroke-width="3.158"/>
        <line id="Line_107" data-name="Line 107" x2="0.026" y2="6.474" transform="translate(41.96 30.314)" fill="none" stroke="#ffd482" stroke-linecap="round" stroke-linejoin="round" stroke-width="3.158"/>
        <line id="Line_108" data-name="Line 108" x2="0.024" y2="5.97" transform="translate(48.028 27.551)" fill="none" stroke="#ffd482" stroke-linecap="round" stroke-linejoin="round" stroke-width="3.158"/>
        <line id="Line_109" data-name="Line 109" x1="0.139" y2="6.066" transform="translate(52.857 23.359)" fill="none" stroke="#ffd482" stroke-linecap="round" stroke-linejoin="round" stroke-width="3.158"/>
        <line id="Line_110" data-name="Line 110" x1="0.026" y2="6.474" transform="translate(20.599 31.951)" fill="none" stroke="#ffd482" stroke-linecap="round" stroke-linejoin="round" stroke-width="3.158"/>
        <line id="Line_111" data-name="Line 111" x1="0.026" y2="6.474" transform="translate(13.834 30.314)" fill="none" stroke="#ffd482" stroke-linecap="round" stroke-linejoin="round" stroke-width="3.158"/>
        <line id="Line_112" data-name="Line 112" x1="0.024" y2="5.97" transform="translate(7.767 27.551)" fill="none" stroke="#ffd482" stroke-linecap="round" stroke-linejoin="round" stroke-width="3.158"/>
        <line id="Line_113" data-name="Line 113" x2="0.139" y2="6.066" transform="translate(2.823 23.359)" fill="none" stroke="#ffd482" stroke-linecap="round" stroke-linejoin="round" stroke-width="3.158"/>
      </g>
      <g id="Group_21327" data-name="Group 21327" transform="translate(0 11.584)">
        <g id="Group_21326" data-name="Group 21326">
          <g id="Group_21325" data-name="Group 21325">
            <g id="Group_21324" data-name="Group 21324">
              <path id="Path_47193" data-name="Path 47193" d="M2071.438,1601.7c.227,1.022-.2,8.683-.668,9.782-.876,3.505-3.928,6.831-9.084,9.282-11.313,5.378-28.431,4.508-38.235-1.943-4.569-3.007-7.05-6.063-7.108-9.88-.147-2.064-.209-7.826-.209-7.826.36-1.259,1.819.053,2.743-1.122a18.441,18.441,0,0,1,7.675-6.151c11.313-5.378,28.431-4.508,38.235,1.943C2068.916,1598.5,2071.151,1598.417,2071.438,1601.7Z" transform="translate(-2016.134 -1585.189)" fill="#ebb44b"/>
              <ellipse id="Ellipse_1048" data-name="Ellipse 1048" cx="27.672" cy="15.655" rx="27.672" ry="15.655" transform="translate(0.001 0.853)" fill="#fff"/>
              <ellipse id="Ellipse_1049" data-name="Ellipse 1049" cx="27.672" cy="15.655" rx="27.672" ry="15.655" transform="translate(0.001)" fill="#ffd482"/>
              <ellipse id="Ellipse_1050" data-name="Ellipse 1050" cx="19.345" cy="10.944" rx="19.345" ry="10.944" transform="translate(8.308 4.3)" fill="#fff"/>
              <path id="Path_47194" data-name="Path 47194" d="M2083.4,1588.192c8.23-3.856,20.425-3.208,27.237,1.447,2.716,1.855,4.165,4.068,4.406,6.3.289-2.675-1.147-5.416-4.406-7.643-6.812-4.655-19.007-5.3-27.237-1.446-4.949,2.319-7.337,5.738-6.973,9.108C2076.741,1593.043,2079.106,1590.2,2083.4,1588.192Z" transform="translate(-2068.082 -1580.036)" fill="#f2c97b"/>
              <path id="Path_47195" data-name="Path 47195" d="M2139.587,1633.485a5.29,5.29,0,0,1-2.106-3.529l3.817-.227a3.985,3.985,0,0,0,1.8,2.823,3.242,3.242,0,0,0,3.475.384c2.482-1.228-3.473-5.139.863-7.285a9.227,9.227,0,0,1,7.858.059l2.481-1.228,2.17,1.446-2.433,1.2a3.475,3.475,0,0,1,1.358,3.2l-3.679-.1a2.416,2.416,0,0,0-1.234-2.221,3,3,0,0,0-3.2-.34c-2.289,1.133,3.811,4.972-.791,7.25a9.524,9.524,0,0,1-8.116-.036l-2.505,1.24-2.17-1.446Z" transform="translate(-2120.488 -1614.647)" fill="#ffd482"/>
            </g>
          </g>
        </g>
        <line id="Line_114" data-name="Line 114" x2="0.07" y2="6.654" transform="translate(28.075 32.446)" fill="none" stroke="#ffd482" stroke-linecap="round" stroke-linejoin="round" stroke-width="3.158"/>
        <line id="Line_115" data-name="Line 115" x2="0.026" y2="6.474" transform="translate(35.194 31.951)" fill="none" stroke="#ffd482" stroke-linecap="round" stroke-linejoin="round" stroke-width="3.158"/>
        <line id="Line_116" data-name="Line 116" x2="0.026" y2="6.474" transform="translate(41.96 30.314)" fill="none" stroke="#ffd482" stroke-linecap="round" stroke-linejoin="round" stroke-width="3.158"/>
        <line id="Line_117" data-name="Line 117" x2="0.024" y2="5.97" transform="translate(48.028 27.551)" fill="none" stroke="#ffd482" stroke-linecap="round" stroke-linejoin="round" stroke-width="3.158"/>
        <line id="Line_118" data-name="Line 118" x1="0.139" y2="6.066" transform="translate(52.857 23.359)" fill="none" stroke="#ffd482" stroke-linecap="round" stroke-linejoin="round" stroke-width="3.158"/>
        <line id="Line_119" data-name="Line 119" x1="0.026" y2="6.474" transform="translate(20.599 31.951)" fill="none" stroke="#ffd482" stroke-linecap="round" stroke-linejoin="round" stroke-width="3.158"/>
        <line id="Line_120" data-name="Line 120" x1="0.026" y2="6.474" transform="translate(13.834 30.314)" fill="none" stroke="#ffd482" stroke-linecap="round" stroke-linejoin="round" stroke-width="3.158"/>
        <line id="Line_121" data-name="Line 121" x1="0.024" y2="5.97" transform="translate(7.767 27.551)" fill="none" stroke="#ffd482" stroke-linecap="round" stroke-linejoin="round" stroke-width="3.158"/>
        <line id="Line_122" data-name="Line 122" x2="0.139" y2="6.066" transform="translate(2.823 23.359)" fill="none" stroke="#ffd482" stroke-linecap="round" stroke-linejoin="round" stroke-width="3.158"/>
      </g>
      <g id="Group_21331" data-name="Group 21331" transform="translate(0)">
        <g id="Group_21330" data-name="Group 21330">
          <g id="Group_21329" data-name="Group 21329">
            <g id="Group_21328" data-name="Group 21328">
              <path id="Path_47196" data-name="Path 47196" d="M2071.438,1517.688c.227,1.022-.2,8.683-.668,9.782-.876,3.5-3.928,6.831-9.084,9.282-11.313,5.378-28.431,4.508-38.235-1.943-4.569-3.007-7.05-6.063-7.108-9.88-.147-2.064-.209-7.826-.209-7.826.36-1.259,1.819.053,2.743-1.122a18.438,18.438,0,0,1,7.675-6.151c11.313-5.378,28.431-4.508,38.235,1.943C2068.916,1514.49,2071.151,1514.407,2071.438,1517.688Z" transform="translate(-2016.134 -1501.18)" fill="#ebb44b"/>
              <ellipse id="Ellipse_1051" data-name="Ellipse 1051" cx="27.672" cy="15.655" rx="27.672" ry="15.655" transform="translate(0.001 0.853)" fill="#fff"/>
              <ellipse id="Ellipse_1052" data-name="Ellipse 1052" cx="27.672" cy="15.655" rx="27.672" ry="15.655" transform="translate(0.001)" fill="#ffd482"/>
              <ellipse id="Ellipse_1053" data-name="Ellipse 1053" cx="19.345" cy="10.944" rx="19.345" ry="10.944" transform="translate(8.308 4.3)" fill="#fff"/>
              <path id="Path_47197" data-name="Path 47197" d="M2083.4,1504.183c8.23-3.856,20.425-3.208,27.237,1.446,2.716,1.856,4.165,4.068,4.406,6.3.289-2.675-1.147-5.416-4.406-7.642-6.812-4.655-19.007-5.3-27.237-1.447-4.949,2.319-7.337,5.738-6.973,9.108C2076.741,1509.033,2079.106,1506.194,2083.4,1504.183Z" transform="translate(-2068.082 -1496.026)" fill="#f2c97b"/>
              <path id="Path_47198" data-name="Path 47198" d="M2139.587,1549.475a5.289,5.289,0,0,1-2.106-3.529l3.817-.227a3.985,3.985,0,0,0,1.8,2.823,3.242,3.242,0,0,0,3.475.384c2.482-1.228-3.473-5.139.863-7.285a9.227,9.227,0,0,1,7.858.059l2.481-1.228,2.17,1.446-2.433,1.2a3.474,3.474,0,0,1,1.358,3.2l-3.679-.1a2.416,2.416,0,0,0-1.234-2.221,3,3,0,0,0-3.2-.34c-2.289,1.133,3.811,4.972-.791,7.249a9.524,9.524,0,0,1-8.116-.036l-2.505,1.24-2.17-1.446Z" transform="translate(-2120.488 -1530.637)" fill="#ffd482"/>
            </g>
          </g>
        </g>
        <line id="Line_123" data-name="Line 123" x2="0.07" y2="6.654" transform="translate(28.075 32.446)" fill="none" stroke="#ffd482" stroke-linecap="round" stroke-linejoin="round" stroke-width="3.158"/>
        <line id="Line_124" data-name="Line 124" x2="0.026" y2="6.474" transform="translate(35.194 31.951)" fill="none" stroke="#ffd482" stroke-linecap="round" stroke-linejoin="round" stroke-width="3.158"/>
        <line id="Line_125" data-name="Line 125" x2="0.026" y2="6.474" transform="translate(41.96 30.314)" fill="none" stroke="#ffd482" stroke-linecap="round" stroke-linejoin="round" stroke-width="3.158"/>
        <line id="Line_126" data-name="Line 126" x2="0.024" y2="5.97" transform="translate(48.028 27.551)" fill="none" stroke="#ffd482" stroke-linecap="round" stroke-linejoin="round" stroke-width="3.158"/>
        <line id="Line_127" data-name="Line 127" x1="0.139" y2="6.066" transform="translate(52.857 23.359)" fill="none" stroke="#ffd482" stroke-linecap="round" stroke-linejoin="round" stroke-width="3.158"/>
        <line id="Line_128" data-name="Line 128" x1="0.026" y2="6.474" transform="translate(20.599 31.951)" fill="none" stroke="#ffd482" stroke-linecap="round" stroke-linejoin="round" stroke-width="3.158"/>
        <line id="Line_129" data-name="Line 129" x1="0.026" y2="6.474" transform="translate(13.834 30.314)" fill="none" stroke="#ffd482" stroke-linecap="round" stroke-linejoin="round" stroke-width="3.158"/>
        <line id="Line_130" data-name="Line 130" x1="0.024" y2="5.97" transform="translate(7.767 27.551)" fill="none" stroke="#ffd482" stroke-linecap="round" stroke-linejoin="round" stroke-width="3.158"/>
        <line id="Line_131" data-name="Line 131" x2="0.139" y2="6.066" transform="translate(2.823 23.359)" fill="none" stroke="#ffd482" stroke-linecap="round" stroke-linejoin="round" stroke-width="3.158"/>
      </g>
    </g>
    <g id="Group_21336" data-name="Group 21336" transform="translate(724.763 361.253)">
      <g id="Group_21335" data-name="Group 21335">
        <g id="Group_21334" data-name="Group 21334">
          <g id="Group_21333" data-name="Group 21333">
            <path id="Path_47199" data-name="Path 47199" d="M2503.057,1752.988c.227,1.022-.2,8.683-.668,9.782-.876,3.5-3.928,6.832-9.084,9.282-11.313,5.378-28.431,4.508-38.235-1.943-4.57-3.007-7.051-6.063-7.108-9.88-.147-2.064-.209-7.826-.209-7.826.36-1.259,1.819.053,2.743-1.122a18.439,18.439,0,0,1,7.675-6.151c11.313-5.378,28.431-4.508,38.235,1.943C2500.535,1749.79,2502.77,1749.707,2503.057,1752.988Z" transform="translate(-2447.753 -1736.48)" fill="#ebb44b"/>
            <ellipse id="Ellipse_1054" data-name="Ellipse 1054" cx="27.672" cy="15.655" rx="27.672" ry="15.655" transform="translate(0.001 0.853)" fill="#fff"/>
            <ellipse id="Ellipse_1055" data-name="Ellipse 1055" cx="27.672" cy="15.655" rx="27.672" ry="15.655" transform="translate(0.001)" fill="#ffd482"/>
            <ellipse id="Ellipse_1056" data-name="Ellipse 1056" cx="19.345" cy="10.944" rx="19.345" ry="10.944" transform="translate(8.308 4.3)" fill="#fff"/>
            <path id="Path_47200" data-name="Path 47200" d="M2515.018,1739.483c8.23-3.856,20.424-3.208,27.237,1.447,2.716,1.855,4.165,4.068,4.406,6.3.289-2.675-1.147-5.416-4.406-7.643-6.813-4.655-19.007-5.3-27.237-1.447-4.949,2.319-7.337,5.738-6.973,9.108C2508.36,1744.333,2510.725,1741.494,2515.018,1739.483Z" transform="translate(-2499.701 -1731.326)" fill="#f2c97b"/>
            <path id="Path_47201" data-name="Path 47201" d="M2571.205,1784.775a5.289,5.289,0,0,1-2.106-3.529l3.817-.227a3.986,3.986,0,0,0,1.8,2.823,3.242,3.242,0,0,0,3.475.384c2.481-1.228-3.473-5.139.863-7.285a9.227,9.227,0,0,1,7.858.059l2.481-1.228,2.17,1.446-2.433,1.2a3.475,3.475,0,0,1,1.358,3.2l-3.679-.1a2.415,2.415,0,0,0-1.234-2.22,3,3,0,0,0-3.2-.34c-2.289,1.133,3.811,4.972-.791,7.25a9.524,9.524,0,0,1-8.116-.036l-2.506,1.24-2.17-1.446Z" transform="translate(-2552.106 -1765.937)" fill="#ffd482"/>
          </g>
        </g>
      </g>
      <line id="Line_132" data-name="Line 132" x2="0.07" y2="6.654" transform="translate(28.075 32.446)" fill="none" stroke="#ffd482" stroke-linecap="round" stroke-linejoin="round" stroke-width="3.158"/>
      <line id="Line_133" data-name="Line 133" x2="0.026" y2="6.474" transform="translate(35.194 31.951)" fill="none" stroke="#ffd482" stroke-linecap="round" stroke-linejoin="round" stroke-width="3.158"/>
      <line id="Line_134" data-name="Line 134" x2="0.026" y2="6.474" transform="translate(41.959 30.314)" fill="none" stroke="#ffd482" stroke-linecap="round" stroke-linejoin="round" stroke-width="3.158"/>
      <line id="Line_135" data-name="Line 135" x2="0.024" y2="5.97" transform="translate(48.028 27.551)" fill="none" stroke="#ffd482" stroke-linecap="round" stroke-linejoin="round" stroke-width="3.158"/>
      <line id="Line_136" data-name="Line 136" x1="0.139" y2="6.066" transform="translate(52.857 23.359)" fill="none" stroke="#ffd482" stroke-linecap="round" stroke-linejoin="round" stroke-width="3.158"/>
      <line id="Line_137" data-name="Line 137" x1="0.026" y2="6.474" transform="translate(20.599 31.951)" fill="none" stroke="#ffd482" stroke-linecap="round" stroke-linejoin="round" stroke-width="3.158"/>
      <line id="Line_138" data-name="Line 138" x1="0.026" y2="6.474" transform="translate(13.834 30.314)" fill="none" stroke="#ffd482" stroke-linecap="round" stroke-linejoin="round" stroke-width="3.158"/>
      <line id="Line_139" data-name="Line 139" x1="0.024" y2="5.97" transform="translate(7.767 27.551)" fill="none" stroke="#ffd482" stroke-linecap="round" stroke-linejoin="round" stroke-width="3.158"/>
      <line id="Line_140" data-name="Line 140" x2="0.139" y2="6.066" transform="translate(2.823 23.359)" fill="none" stroke="#ffd482" stroke-linecap="round" stroke-linejoin="round" stroke-width="3.158"/>
    </g>
    <path id="Path_47202" data-name="Path 47202" d="M3034.988,1049.74s3.645.63,3.824,2.451a19.856,19.856,0,0,1,0,3.533l-12.168-1.313.74-5.043Z" transform="translate(-2421.061 -778.44)" fill="#0f2f69"/>
    <path id="Path_47203" data-name="Path 47203" d="M2925.722,1135.55s-6.834,11.08-6.591,17.954c0,0,2.736,3.765,3.99.421,3.061-8.162,5.012-15.148,7.925-17.927S2925.722,1135.55,2925.722,1135.55Z" transform="translate(-2328.367 -851.95)" fill="#ffaa82"/>
    <path id="Path_47204" data-name="Path 47204" d="M3096.94,1742.913l3.143-7.158a5.047,5.047,0,0,1,3.1-1.163,1.384,1.384,0,0,1,1.217.96l.469,1.226c.726,1.753.676,2.038-.024,2.852l-4.159,4.832a2.835,2.835,0,0,1-3.011.761l-.271-.112A1.305,1.305,0,0,1,3096.94,1742.913Z" transform="translate(-2481.307 -1369.183)" fill="#0f2f69"/>
    <path id="Path_47205" data-name="Path 47205" d="M3130.336,1707.392c-.007,1.7-4.253,2.155-4.246.453l.023-5.531,4.246-.453Z" transform="translate(-2506.795 -1340.965)" fill="#acaff2"/>
    <path id="Path_47206" data-name="Path 47206" d="M3064.485,1356.3c-1.2,2.082-4.229,2.421-5.217,1.118l-10-57.6,14.211-1.078.309,36.819C3065.942,1344.95,3065.211,1350.624,3064.485,1356.3Z" transform="translate(-2440.562 -993.435)" fill="#dee5ff"/>
    <path id="Path_47207" data-name="Path 47207" d="M3129.961,1154.9c3.175,3.758,4.745,5.582,7.237,10.732a7.546,7.546,0,0,1-.493,8.117c-1.924,2.507-4.136,5.33-4.136,5.33l2.468,2.244s8.978-7.687,7.546-14.742l-5.3-16.707Z" transform="translate(-2510.132 -865.093)" fill="#ffaa82"/>
    <path id="Path_47208" data-name="Path 47208" d="M3131.3,1361.059l-.4-.376a1.946,1.946,0,0,0-2.726.218l-1.571,1.665a1.943,1.943,0,0,0-.057,2.733l.4.376a1.946,1.946,0,0,0,2.726-.218l1.57-1.665A1.943,1.943,0,0,0,3131.3,1361.059Z" transform="translate(-2506.732 -1046.433)" fill="#ffaa82"/>
    <path id="Path_47209" data-name="Path 47209" d="M2940.122,1073.959c-4.231,6.783-8.293,13.608-8.75,18.245,1.111,3.879,2.182,1.725,4.9,2.685l8.117-14.245-2.222-3.728Z" transform="translate(-2338.925 -799.641)" fill="#1c4591"/>
    <path id="Path_47210" data-name="Path 47210" d="M2981.137,1087.549a164.065,164.065,0,0,0-1.651-21.269c-.362-11.577,3.878-16,11.255-13.565l3.039.706c8.951,4.467,13.415,4.09,12.131,13.455l-.9,20.47C3005.336,1097.859,2980.962,1099.926,2981.137,1087.549Z" transform="translate(-2380.387 -780.768)" fill="#1c4591"/>
    <path id="Path_47211" data-name="Path 47211" d="M3129.961,1181.135l4.288,15.641.5,1.52.32-7.613Z" transform="translate(-2510.132 -892.039)" fill="#0f2f69"/>
    <path id="Path_47212" data-name="Path 47212" d="M3116.207,1100.514l8.277,15.7c.655.948,5.468-.537,5.411-2.21-.119-3.5-5.608-21.68-10.835-23.95C3114.814,1088.212,3113.718,1094.9,3116.207,1100.514Z" transform="translate(-2497.141 -813.249)" fill="#1c4591"/>
    <path id="Path_47213" data-name="Path 47213" d="M3062.461,1154.364a1.816,1.816,0,0,0-.61,2.187c.623,1.281,7,.467,6.535-1.589S3067.545,1152.02,3062.461,1154.364Z" transform="translate(-2451.262 -867.755)" fill="#1c4591"/>
    <path id="Path_47214" data-name="Path 47214" d="M2930.314,1204.429a1.807,1.807,0,0,0,2.166-1.406l.007-.042c.238-1.4-5.425-4.45-6.239-2.506C2925.483,1202.3,2925.721,1203.431,2930.314,1204.429Z" transform="translate(-2334.22 -908.169)" fill="#1c4591"/>
    <g id="Group_21338" data-name="Group 21338" transform="translate(606.323 269.948)">
      <g id="Group_21337" data-name="Group 21337" transform="translate(0 0)">
        <path id="Path_47215" data-name="Path 47215" d="M3042.8,1046.649s.551,3.156-4,5.912a9.448,9.448,0,0,0-4.024,5.69c-.318,1.127-.985.585-1.135-.593a29.593,29.593,0,0,0-1.208-6.215c-1.119-3.656.35-9.134.549-9.178S3042.8,1046.649,3042.8,1046.649Z" transform="translate(-3032.01 -1042.265)" fill="#fff"/>
      </g>
    </g>
    <path id="Path_47216" data-name="Path 47216" d="M3039.012,1172.145a.768.768,0,1,0,.768-.768A.768.768,0,0,0,3039.012,1172.145Z" transform="translate(-2431.724 -883.626)" fill="#fff"/>
    <path id="Path_47217" data-name="Path 47217" d="M3039.83,1193.581a.768.768,0,1,0,.768-.768A.768.768,0,0,0,3039.83,1193.581Z" transform="translate(-2432.429 -902.107)" fill="#fff"/>
    <path id="Path_47218" data-name="Path 47218" d="M3029.406,1042.118s-4.393,1.472-3.315,5.611l.175,4.919s-3.506-5.525-1.992-10.769S3029.406,1042.118,3029.406,1042.118Z" transform="translate(-2418.691 -770.027)" fill="#0f2f69"/>
    <path id="Path_47219" data-name="Path 47219" d="M3048.429,994.6a5.944,5.944,0,0,0,1.485,1.338c.533.188,7.078-3.787,5.661-9.422-.9-3.569-7.654-1.777-7.654-1.777Z" transform="translate(-2439.404 -722.33)" fill="#0f2f69"/>
    <path id="Path_47220" data-name="Path 47220" d="M3049.323,1030.053l-.325.091a2.081,2.081,0,0,1-2.559-1.437l-1.74-6.195a2.081,2.081,0,0,1,1.437-2.558l.326-.091a2.08,2.08,0,0,1,2.558,1.437l2.547,5.707C3051.875,1028.1,3050.422,1029.744,3049.323,1030.053Z" transform="translate(-2436.56 -752.937)" fill="#ffaa82"/>
    <path id="Path_47221" data-name="Path 47221" d="M3052,1044.986a5.68,5.68,0,0,0,4.208-3.012s-1.285,4.143-3.721,4.744Z" transform="translate(-2442.917 -772.066)" fill="#ea8a6c"/>
    <path id="Path_47222" data-name="Path 47222" d="M3065.229,1054.356s3.149,3.624-2.437,6.724c0,0-2.142,2.308-2.137,4.794,0,0,1.864-1.533,2.944-2.368S3072.783,1057.574,3065.229,1054.356Z" transform="translate(-2450.383 -782.741)" fill="#0f2f69"/>
    <ellipse id="Ellipse_1057" data-name="Ellipse 1057" cx="3.667" cy="6.469" rx="3.667" ry="6.469" transform="translate(602.954 260.338) rotate(-3.933)" fill="#ffaa82"/>
    <path id="Path_47223" data-name="Path 47223" d="M3029.339,976.529c-1.03,2.919-5.987,4.866-7.742,2.815s-.634-7.144.4-10.062,3.289-3.622,5.044-1.571S3030.369,973.611,3029.339,976.529Z" transform="translate(-2415.918 -707.03)" fill="#ffaa82"/>
    <path id="Path_47224" data-name="Path 47224" d="M3036.045,964.16s-.458,5.722,4.1,6.849c0,0,5-3.114,1.071-8.476-3.459-4.727-8.621-.869-8.621-.869Z" transform="translate(-2426.193 -701.55)" fill="#0f2f69"/>
    <path id="Path_47225" data-name="Path 47225" d="M3008.333,987.768a5.443,5.443,0,0,1,3.459-3.6l-2.391-1.32S3007.024,983.479,3008.333,987.768Z" transform="translate(-2404.936 -721.095)" fill="#0f2f69"/>
    <path id="Path_47226" data-name="Path 47226" d="M3010.717,963.647c-1.036-1.3-3.152-1.214-6.127-.028a2.657,2.657,0,0,1-1.425.193c-2.254-.386-2.686-3.151-2.686-3.151-.546-1.84.655-2.72,2.495-3.266l4.792-1.422a5.159,5.159,0,0,1,5.983,3.179l.137.3C3014.431,961.293,3012.557,963.1,3010.717,963.647Z" transform="translate(-2398.389 -697.768)" fill="#0f2f69"/>
    <circle id="Ellipse_1058" data-name="Ellipse 1058" cx="1.363" cy="1.363" r="1.363" transform="matrix(0.139, -0.99, 0.99, 0.139, 611.631, 269.971)" fill="#ffaa82"/>
    <path id="Path_47227" data-name="Path 47227" d="M3125.864,1371.36s-3.516-6.175-3.567-6.8c0,0-1.339,3.223,0,5.014A4.807,4.807,0,0,0,3125.864,1371.36Z" transform="translate(-2503.012 -1050.169)" fill="#acaff2"/>
    <g id="Group_21339" data-name="Group 21339" transform="translate(579.207 286.399)">
      <path id="Path_47228" data-name="Path 47228" d="M2892.1,1218.594l-1.863-.657-.219-.219-.141-.249-14.032-7.3a.718.718,0,0,0-.622.025l-5.357,3.141-.01-.088-1.01.4.045.417h.007a.232.232,0,0,0,.112.108l14.6,7.593a.083.083,0,0,1,.038.057c.3,1.118.814,2.119,1.768,1.538l5.933-3.5a1.424,1.424,0,0,0,.747-1.276Z" transform="translate(-2864.226 -1203.419)" fill="#acaff2"/>
      <path id="Path_47229" data-name="Path 47229" d="M2874.239,1219.139l-16.815-8.744c-.195-.1-.191-.28.008-.4l7.146-4.19a.828.828,0,0,1,.716-.028l16.816,8.744c.195.1.191.28-.009.4l-7.146,4.19A.828.828,0,0,1,2874.239,1219.139Z" transform="translate(-2854.257 -1199.626)" fill="#e1eaf4"/>
      <path id="Path_47230" data-name="Path 47230" d="M2958.029,1241.93l-4.07-2.116c-.047-.024-.046-.068,0-.1l1.729-1.014a.2.2,0,0,1,.173-.007l4.07,2.116c.047.024.046.068,0,.1l-1.729,1.014A.2.2,0,0,1,2958.029,1241.93Z" transform="translate(-2937.576 -1228.048)" fill="#acaff2"/>
      <path id="Path_47231" data-name="Path 47231" d="M2854.392,1171.247a1.908,1.908,0,0,0-.845-1.055l-16.68-8.545a.426.426,0,0,0-.354-.053h0l0,0a.19.19,0,0,0-.075.06l-.465.523.47-.04,2.5,9.24a1.906,1.906,0,0,0,.845,1.055l15.772,8.08.537.516.074.127c.308.062.976-.427.976-.427Z" transform="translate(-2835.885 -1161.574)" fill="#fff"/>
      <path id="Path_47232" data-name="Path 47232" d="M2855.439,1185.019l-16.68-8.545a1.907,1.907,0,0,1-.845-1.055l-2.53-9.342c-.108-.4.1-.573.455-.389l16.68,8.546a1.908,1.908,0,0,1,.845,1.055l2.53,9.342C2856,1185.029,2855.8,1185.2,2855.439,1185.019Z" transform="translate(-2835.354 -1165.058)" fill="#2153ad"/>
      <path id="Path_47233" data-name="Path 47233" d="M2897.156,1229.743c.135.5-.325.608-1.026.248a3.18,3.18,0,0,1-1.513-1.549c-.135-.5.325-.607,1.026-.248A3.18,3.18,0,0,1,2897.156,1229.743Z" transform="translate(-2886.425 -1218.827)" fill="#fff"/>
    </g>
    <path id="Path_47234" data-name="Path 47234" d="M2899.405,1259.672l2.213,1.394a1.73,1.73,0,0,0,2.379-.541h0a1.73,1.73,0,0,0-.54-2.379l-2.213-1.394a1.73,1.73,0,0,0-2.379.54h0A1.73,1.73,0,0,0,2899.405,1259.672Z" transform="translate(-2310.673 -957.002)" fill="#ffaa82"/>
    <g id="Group_21343" data-name="Group 21343" transform="translate(501.677 417.939)">
      <path id="Path_47235" data-name="Path 47235" d="M2385.73,2141.817l50.254,28.706c1.362.778,1.2,2.167-.362,3.088l-30.519,18.007c-1.561.92-10.252,1.346-11.613.568l-43.953-29.014c-1.362-.778-1.2-2.167.362-3.088l30.519-18.007A5.9,5.9,0,0,1,2385.73,2141.817Z" transform="translate(-2338.197 -2137.753)" fill="#bbdaff" opacity="0.4" style="mix-blend-mode: multiply;isolation: isolate"/>
      <g id="Group_21342" data-name="Group 21342" transform="translate(0 0)">
        <g id="Group_21341" data-name="Group 21341">
          <path id="Path_47236" data-name="Path 47236" d="M2361.813,2171.8h0l-.178-3.568-5.856-.633-45.142-25.786a5.9,5.9,0,0,0-5.313.26l-28.751,16.964-3.187-.345.135,3.181c0,.009,0,.017,0,.025v.011h0a1.61,1.61,0,0,0,.919,1.259l50.254,28.706a5.9,5.9,0,0,0,5.313-.26l30.519-18.007a2.159,2.159,0,0,0,1.284-1.806h0Z" transform="translate(-2273.343 -2137.753)" fill="#729ce3"/>
          <path id="Path_47237" data-name="Path 47237" d="M2310.189,2116.077l50.254,28.706c1.362.778,1.2,2.167-.362,3.088l-30.519,18.007a5.9,5.9,0,0,1-5.313.26L2274,2137.432c-1.362-.778-1.2-2.167.362-3.088l30.519-18.007A5.9,5.9,0,0,1,2310.189,2116.077Z" transform="translate(-2273.073 -2115.562)" fill="url(#linear-gradient)"/>
          <path id="Path_47238" data-name="Path 47238" d="M2606.431,2400.936l8.928,5.1c.43.246.379.685-.114.976h0a1.864,1.864,0,0,1-1.679.082l-8.928-5.1c-.43-.246-.379-.685.114-.976h0A1.864,1.864,0,0,1,2606.431,2400.936Z" transform="translate(-2558.668 -2361.447)" fill="#fff"/>
          <path id="Path_47239" data-name="Path 47239" d="M2517.415,2141.5l8.547,4.882c.535.306.471.852-.142,1.214h0a2.32,2.32,0,0,1-2.089.1l-8.547-4.882c-.535-.306-.471-.852.142-1.214h0A2.32,2.32,0,0,1,2517.415,2141.5Z" transform="translate(-2481.487 -2137.751)" fill="#fff"/>
          <path id="Path_47240" data-name="Path 47240" d="M2452.227,2170.481l7.349,4.2c.865.494.761,1.376-.229,1.961l-1.405.829a3.746,3.746,0,0,1-3.374.165l-7.349-4.2c-.865-.494-.761-1.376.229-1.961l1.405-.829A3.745,3.745,0,0,1,2452.227,2170.481Z" transform="translate(-2422.7 -2162.626)" fill="#ffd482"/>
          <path id="Path_47241" data-name="Path 47241" d="M2339.249,2250.034l22.387,12.788c.43.246.379.685-.114.976h0a1.865,1.865,0,0,1-1.679.083l-22.387-12.788c-.431-.246-.379-.685.114-.976h0A1.864,1.864,0,0,1,2339.249,2250.034Z" transform="translate(-2328.326 -2231.352)" fill="#fff"/>
          <g id="Group_21340" data-name="Group 21340" transform="translate(15.748 13.541)">
            <path id="Path_47242" data-name="Path 47242" d="M2664.012,2370.285l7.436,4.248c.651.372.573,1.036-.173,1.477h0a2.821,2.821,0,0,1-2.541.124l-7.436-4.248c-.651-.372-.573-1.036.173-1.477h0A2.821,2.821,0,0,1,2664.012,2370.285Z" transform="translate(-2623.136 -2348.492)" fill="#fff"/>
            <path id="Path_47243" data-name="Path 47243" d="M2572.821,2318.195l7.436,4.248c.651.372.573,1.036-.173,1.476h0a2.82,2.82,0,0,1-2.54.124l-7.436-4.248c-.651-.372-.573-1.036.173-1.476h0A2.82,2.82,0,0,1,2572.821,2318.195Z" transform="translate(-2544.519 -2303.584)" fill="#fff"/>
            <path id="Path_47244" data-name="Path 47244" d="M2481.63,2266.1l7.436,4.248c.651.372.573,1.036-.173,1.477h0a2.821,2.821,0,0,1-2.54.124l-7.436-4.248c-.651-.372-.573-1.036.173-1.477h0A2.82,2.82,0,0,1,2481.63,2266.1Z" transform="translate(-2465.901 -2258.676)" fill="#fff"/>
            <path id="Path_47245" data-name="Path 47245" d="M2390.439,2214.014l7.436,4.248c.651.372.573,1.036-.173,1.476h0a2.821,2.821,0,0,1-2.54.125l-7.436-4.248c-.651-.372-.573-1.036.173-1.477h0A2.821,2.821,0,0,1,2390.439,2214.014Z" transform="translate(-2387.284 -2213.768)" fill="#fff"/>
          </g>
          <ellipse id="Ellipse_1059" data-name="Ellipse 1059" cx="5.02" cy="2.914" rx="5.02" ry="2.914" transform="translate(68.373 27.593) rotate(-0.123)" fill="#fff"/>
        </g>
        <path id="Path_47246" data-name="Path 47246" d="M2362.542,2284.611l-30.519,18.007a5.9,5.9,0,0,1-5.312.26l-50.254-28.706" transform="translate(-2275.99 -2252.302)" fill="none" stroke="#fff" stroke-linecap="round" stroke-linejoin="round" stroke-width="5.39"/>
      </g>
    </g>
    <g id="Group_21346" data-name="Group 21346" transform="translate(-42.635 330.379)">
      <path id="Path_47247" data-name="Path 47247" d="M993.345,2252.135c-6.717-13.57-28.242-20.543-51.746-16.666-20.789,3.43-33.834,14.892-31.922,26.884a15.339,15.339,0,0,0,1.527,9.367,21.624,21.624,0,0,0,3.643,5.151l-7.007,4.045a12.615,12.615,0,0,0-2.905-1.972c-2.2-1.048-4.1-.966-5.369,0l0,0-38.683,23.1h0c-1.423.817-2.223,2.584-2.026,5.074a16.31,16.31,0,0,0,8.366,12.158,5.508,5.508,0,0,0,4.791.362h0l.05-.03a3.492,3.492,0,0,0,.448-.268l38.407-22.979h0c1.648-.712,2.6-2.566,2.383-5.259a11.644,11.644,0,0,0-.377-2.09l10.187-5.882c10.991,6.081,27.12,8.728,42.812,6.139,20.789-3.43,33.834-14.892,31.922-26.884C998.336,2259.323,994.9,2255.271,993.345,2252.135Zm-64.966,20.46q1.079.7,2.265,1.333Q929.459,2273.3,928.378,2272.6Zm56.258-5.973a14.049,14.049,0,0,0,1.389-2.672,14.049,14.049,0,0,1-1.389,2.672,17.01,17.01,0,0,1-1.284,1.7A17.01,17.01,0,0,0,984.636,2266.623Zm-47.5,10.021c.836.268,1.695.512,2.568.739-.873-.226-1.732-.47-2.568-.739q-1.4-.45-2.727-.976Q935.733,2276.193,937.138,2276.643Zm15.451,2.429c-1.644-.022-3.272-.114-4.871-.273C949.317,2278.958,950.945,2279.05,952.589,2279.072Zm9.974-.743a43.241,43.241,0,0,0,14.216-4.769,43.241,43.241,0,0,1-14.216,4.769,56.243,56.243,0,0,1-6.666.692A56.247,56.247,0,0,0,962.563,2278.329Zm18.353-7.613q-.91.764-1.946,1.477Q980,2271.481,980.916,2270.717Z" transform="translate(-851.999 -2230.458)" fill="#a8b2e5" opacity="0.4" style="mix-blend-mode: multiply;isolation: isolate"/>
      <path id="Path_47248" data-name="Path 47248" d="M1115.861,2527.5l-8.367-4.831,22.7-13.107c4.673-2.86,9.767,3.375,6.192,5.871Z" transform="translate(-1066.381 -2467.045)" fill="#fff" stroke="#35519c" stroke-miterlimit="10" stroke-width="3.939"/>
      <path id="Path_47249" data-name="Path 47249" d="M1282.506,2242.512c-6.717-13.57-31.216-21.427-54.72-17.55s-37.113,18.022-30.4,31.592,31.216,21.428,54.72,17.55S1289.223,2256.083,1282.506,2242.512Zm-32.442,26.89c-20.124,3.32-41.1-3.407-46.85-15.026s5.9-23.729,26.024-27.049,41.1,3.407,46.85,15.026S1270.188,2266.083,1250.065,2269.4Z" transform="translate(-1142.404 -2221.465)" fill="#0f2f69"/>
      <g id="Group_21344" data-name="Group 21344" transform="translate(0 44.307)">
        <ellipse id="Ellipse_1060" data-name="Ellipse 1060" cx="6.025" cy="10.436" rx="6.025" ry="10.436" transform="translate(39.059 6.832) rotate(-34.54)" fill="#1c4591"/>
        <path id="Path_47250" data-name="Path 47250" d="M847.126,2575.719l38.683-23.1,11.354,17.421-38.906,23.277Z" transform="translate(-841.913 -2549.101)" fill="#1c4591"/>
        <ellipse id="Ellipse_1061" data-name="Ellipse 1061" cx="6.025" cy="10.436" rx="6.025" ry="10.436" transform="translate(0 30.178) rotate(-34.54)" fill="#0f2f69"/>
      </g>
      <path id="Path_47251" data-name="Path 47251" d="M838.77,2721.4c1.271-.874,3.119-.908,5.243.1a16.31,16.31,0,0,1,8.366,12.158,5.715,5.715,0,0,1-1.169,4.4" transform="translate(-834.71 -2649.74)" fill="none" stroke="#fff" stroke-linecap="round" stroke-linejoin="round" stroke-width="3.906"/>
      <path id="Path_47252" data-name="Path 47252" d="M1282.506,2224.324c-6.717-13.57-31.216-21.427-54.72-17.55s-37.113,18.021-30.4,31.592,31.216,21.428,54.72,17.55S1289.223,2237.894,1282.506,2224.324Zm-32.442,26.89c-20.124,3.32-41.1-3.407-46.85-15.026s5.9-23.729,26.024-27.049,41.1,3.407,46.85,15.026S1270.188,2247.894,1250.065,2251.214Z" transform="translate(-1142.404 -2205.784)" fill="#1c4591"/>
      <g id="Group_21345" data-name="Group 21345" transform="translate(98.397 13.165)">
        <path id="Path_47253" data-name="Path 47253" d="M1571.606,2343.525l.3.056a1.684,1.684,0,0,0,1.7-.878l8.423-16.985a.863.863,0,0,0-.616-1.313l-.3-.056a1.684,1.684,0,0,0-1.7.878l-8.422,16.986A.863.863,0,0,0,1571.606,2343.525Z" transform="translate(-1564.26 -2321.147)" fill="#fff"/>
        <path id="Path_47254" data-name="Path 47254" d="M1523.289,2320.452l.142.026a.8.8,0,0,0,.811-.418l8.991-18.133a.411.411,0,0,0-.293-.626l-.142-.026a.8.8,0,0,0-.811.418L1523,2319.826A.411.411,0,0,0,1523.289,2320.452Z" transform="translate(-1522.938 -2301.265)" fill="#fff"/>
      </g>
      <path id="Path_47255" data-name="Path 47255" d="M1169.2,2552.617s5.242,1.525,7.9,11.247" transform="translate(-1119.581 -2504.794)" fill="none" stroke="#fff" stroke-linecap="round" stroke-linejoin="round" stroke-width="3.906"/>
    </g>
    <path id="Path_47279" data-name="Path 47279" d="M1318.105,1284.928h0a1.877,1.877,0,0,0-.335-2.625l-1.515-1.173a1.877,1.877,0,0,0-2.625.335h0a1.877,1.877,0,0,0,.335,2.625l1.515,1.173A1.877,1.877,0,0,0,1318.105,1284.928Z" transform="translate(-943.909 -977.91)" fill="#ffaa82"/>
    <ellipse id="Ellipse_1063" data-name="Ellipse 1063" cx="16.039" cy="7.968" rx="16.039" ry="7.968" transform="matrix(1, -0.031, 0.031, 1, 394.113, 402.755)" fill="#e0e6ff" style="mix-blend-mode: multiply;isolation: isolate"/>
    <path id="Path_47280" data-name="Path 47280" d="M1631.583,1988.561l-4.017-.506c-2.688-1.22-3.943-2.137-5.141-1.445l-.34.2c-1.2.692-1.047,1.912.335,2.711l5.9,4.7a3.894,3.894,0,0,0,4.349-.421s.661-.6.19-3.109C1632.595,1989.252,1632.689,1989.2,1631.583,1988.561Z" transform="translate(-1209.473 -1586.246)" fill="#191791"/>
    <path id="Path_47281" data-name="Path 47281" d="M1506.931,2059.672l-3.935,1.381c-3.043.154-4.625-.078-5.407,1.071l-.221.326c-.782,1.148-.077,2.147,1.568,2.218l8.56,1.431c1.645.072,2.3-1,2.871-2.347a5.749,5.749,0,0,0-.584-3.406C1509.116,2059.054,1508.246,2059.729,1506.931,2059.672Z" transform="translate(-1102.372 -1649.331)" fill="#191791"/>
    <path id="Path_47282" data-name="Path 47282" d="M1556.231,2032.277c0,1.88,4.573,1.88,4.573,0v-6.111h-4.573Z" transform="translate(-1153.395 -1620.553)" fill="#fff"/>
    <path id="Path_47283" data-name="Path 47283" d="M1534.124,1648.7c.576,2.382,5.332,2.208,6.258.668a258.483,258.483,0,0,1,7.387-63.649h-16.507A594.983,594.983,0,0,0,1534.124,1648.7Z" transform="translate(-1131.865 -1240.837)" fill="#1c4591"/>
    <path id="Path_47284" data-name="Path 47284" d="M1667.02,1970.348c.1,1.7,4.678,1.7,4.573,0l-.339-5.534h-4.573Z" transform="translate(-1248.616 -1567.661)" fill="#fff"/>
    <path id="Path_47285" data-name="Path 47285" d="M1613.843,1640.719c1.827,1.88,5.421,1.077,6.113-.28l-2.422-55.122-11.494,1.7Z" transform="translate(-1196.335 -1240.49)" fill="#1c4591"/>
    <path id="Path_47286" data-name="Path 47286" d="M1549.171,1206.027c1.176,3.674,5.189,4.9,7.452,2.405s3.144-7.488,1.969-11.162-3.963-4.634-6.226-2.144S1548,1202.353,1549.171,1206.027Z" transform="translate(-1147.019 -902.907)" fill="#ffaa82"/>
    <path id="Path_47287" data-name="Path 47287" d="M1587.332,1280.043l.395-.1a2.508,2.508,0,0,0,1.805-3.041l-1.917-7.515a2.508,2.508,0,0,0-3.041-1.805l-.395.1a2.508,2.508,0,0,0-1.805,3.041l.78,7.492C1583.494,1279.547,1586,1280.383,1587.332,1280.043Z" transform="translate(-1175.867 -966.498)" fill="#ffaa82"/>
    <path id="Path_47288" data-name="Path 47288" d="M1556.454,1200.482s-.248,2.357-3.757,2.294c-3.372-.06-2.544-5.829-5.9-6.273-3.689-.488-4.491-5-3.1-6.787s5.409-2.817,8.376-1.614S1559.8,1189.574,1556.454,1200.482Z" transform="translate(-1142.04 -897.598)" fill="#191791"/>
    <path id="Path_47289" data-name="Path 47289" d="M1571.957,1254.772a1.7,1.7,0,1,0,1.1-2.135A1.7,1.7,0,0,0,1571.957,1254.772Z" transform="translate(-1166.883 -953.612)" fill="#ffaa82"/>
    <path id="Path_47290" data-name="Path 47290" d="M1543.134,1351.232c-1.35-7.4,1.433-12.449,1.316-20.319.64-13.133-3.595-16.722-8.132-16.248,0,0-4.1,1.21-5.033,1.689-9.86,5.08-12.492,6.647-12.059,12.54-.044,9.706,1.386,20.592,1.59,25.367C1522.847,1360.972,1540.878,1356.035,1543.134,1351.232Z" transform="translate(-1121.454 -1007.122)" fill="#60bfff"/>
    <path id="Path_47291" data-name="Path 47291" d="M1574.262,1303.866l.374-.942a2.551,2.551,0,0,1-2.064.605A3.27,3.27,0,0,0,1574.262,1303.866Z" transform="translate(-1167.483 -997.035)" fill="#ea8a6c"/>
    <path id="Path_47292" data-name="Path 47292" d="M1624.765,1687.314l4.848-6.962-4.848,2.133Z" transform="translate(-1212.479 -1322.422)" fill="#0f2f69"/>
    <path id="Path_47293" data-name="Path 47293" d="M1330.787,1301.425l10.807,9.328,15.784,7.121,6.238-13.262-18.574-.637-11.555-6.2Z" transform="translate(-959.037 -992.595)" fill="#60bfff"/>
    <path id="Path_47294" data-name="Path 47294" d="M1574.421,1317.034c5.32-.348,8.751-.148,9.645-3.937h0a1.842,1.842,0,0,0-2.114-.153,12.215,12.215,0,0,1-5.372,1.838,2.316,2.316,0,0,0-1.57,1.091Z" transform="translate(-1169.077 -1005.442)" fill="#46a6e8"/>
    <path id="Path_47295" data-name="Path 47295" d="M1519.181,1441.539l1.634,22.137s.745,3.5,5.217,3.271Z" transform="translate(-1121.454 -1116.537)" fill="#46a6e8"/>
    <path id="Path_47296" data-name="Path 47296" d="M2059.624,366.954c.153-.367,21.387-36.317,21.387-36.317" transform="translate(-1587.378 -158.811)" fill="none" stroke="#dee5ff" stroke-linecap="round" stroke-linejoin="round" stroke-width="6.792"/>
    <path id="Path_47297" data-name="Path 47297" d="M252.6,1434.489c.153-.367,10.693-18.2,10.693-18.2" transform="translate(-29.515 -1094.767)" fill="none" stroke="#dee5ff" stroke-linecap="round" stroke-linejoin="round" stroke-width="6.792"/>
    <path id="Path_47298" data-name="Path 47298" d="M2810.522,1511.365c.153-.367,10.693-18.2,10.693-18.2" transform="translate(-2234.739 -1161.043)" fill="none" stroke="#dee5ff" stroke-linecap="round" stroke-linejoin="round" stroke-width="6.792"/>
    <path id="Path_47299" data-name="Path 47299" d="M1520.983,163.069c.14-.335,9.777-16.643,9.777-16.643" transform="translate(-1123.007)" fill="none" stroke="#dee5ff" stroke-linecap="round" stroke-linejoin="round" stroke-width="6.211"/>
    <path id="Path_47300" data-name="Path 47300" d="M718.962,451.566c.153-.367,10.693-18.2,10.693-18.2" transform="translate(-431.572 -247.374)" fill="none" stroke="#dee5ff" stroke-linecap="round" stroke-linejoin="round" stroke-width="6.792"/>
    <path id="Path_47301" data-name="Path 47301" d="M2562.211,965.039c.153-.367,21.387-36.317,21.387-36.317" transform="translate(-2020.666 -674.43)" fill="none" stroke="#dee5ff" stroke-linecap="round" stroke-linejoin="round" stroke-width="6.792"/>
    <path id="Path_47302" data-name="Path 47302" d="M218.365,1958.063c.153-.367,21.387-36.316,21.387-36.316" transform="translate(0 -1530.531)" fill="none" stroke="#dee5ff" stroke-linecap="round" stroke-linejoin="round" stroke-width="6.792"/>
    <path id="Path_47303" data-name="Path 47303" d="M1647.278,364.082l-67.222,38.262v-42.7l67.222-38.262Z" transform="translate(-1173.935 -150.832)" fill="#729ce3" opacity="0.74"/>
    <g id="Group_21352" data-name="Group 21352" transform="translate(413.4 178.615)">
      <path id="Path_47304" data-name="Path 47304" d="M1700.069,422.574l-67.222,38.262v-42.7l67.222-38.262Z" transform="translate(-1632.847 -379.874)" fill="url(#linear-gradient)"/>
      <ellipse id="Ellipse_1064" data-name="Ellipse 1064" cx="15.48" cy="10.671" rx="15.48" ry="10.671" transform="matrix(0.373, -0.928, 0.928, 0.373, 19.942, 50.863)" fill="none" stroke="#fff" stroke-linecap="round" stroke-linejoin="round" stroke-width="3.637"/>
      <path id="Path_47305" data-name="Path 47305" d="M1648.52,453.266l1.968-4.561,59.034-33.548,2.267,1.662v32.037l-1.813,4.41-58.634,33.37-2.822-1.746Z" transform="translate(-1646.359 -410.292)" fill="none" stroke="#fff" stroke-linecap="round" stroke-linejoin="round" stroke-width="3.105"/>
      <g id="Group_21351" data-name="Group 21351" transform="translate(32.291 32.416)">
        <path id="Path_47306" data-name="Path 47306" d="M1870.059,629.417a5.119,5.119,0,0,1-3.026,1.286l.677-1.609a4.206,4.206,0,0,0,2.759-1.23,5.062,5.062,0,0,0,1.976-3.568c0-2.884-4.967,2.1-4.967-1.371a8.362,8.362,0,0,1,2.581-5.221v-1.8l1.068-.938v1.762a3.081,3.081,0,0,1,2.528-.866l-.783,1.56a2.585,2.585,0,0,0-2.172.892,4.814,4.814,0,0,0-1.78,3.272c0,2.581,4.967-2.492,4.967,1.336a8.666,8.666,0,0,1-2.759,5.52v1.8l-1.068.938Z" transform="translate(-1867.033 -614.968)" fill="#fff"/>
      </g>
    </g>
  </g>
</svg>
