<svg xmlns="http://www.w3.org/2000/svg" xmlns:xlink="http://www.w3.org/1999/xlink" width="144.41" height="144.41" viewBox="0 0 144.41 144.41">
  <defs>
    <radialGradient id="radial-gradient" cx="0.5" cy="0.5" r="0.5" gradientUnits="objectBoundingBox">
      <stop offset="0" stop-color="#fff"/>
      <stop offset="1" stop-color="#fae7b7"/>
    </radialGradient>
  </defs>
  <g id="Grupo_26380" data-name="Grupo 26380" transform="translate(-486 -2353)">
    <g id="Elipse_1117" data-name="Elipse 1117" transform="translate(490 2357)" stroke="#fff" stroke-width="4" fill="url(#radial-gradient)">
      <circle cx="68.205" cy="68.205" r="68.205" stroke="none"/>
      <circle cx="68.205" cy="68.205" r="70.205" fill="none"/>
    </g>
    <g id="Grupo_25813" data-name="Grupo 25813" transform="translate(256.094 46.094)">
      <path id="Trazado_47102" data-name="Trazado 47102" d="M3337.34,4239.489v22.69h-67.754v-22.69l31.262-22.981a3.649,3.649,0,0,1,4.282-.029Z" transform="translate(-3007.911 -1861.667)" fill="#d8d8d8"/>
      <path id="Trazado_47103" data-name="Trazado 47103" d="M3337.505,4239.528V4243l-32.191-23a3.683,3.683,0,0,0-4.321.029L3269.751,4243v-3.472l31.242-22.966a3.682,3.682,0,0,1,4.321-.03Z" transform="translate(-3008.05 -1861.708)" fill="#e8e8e8"/>
      <rect id="Rectángulo_4626" data-name="Rectángulo 4626" width="67.754" height="39.598" transform="translate(261.675 2378.151)" fill="#070707" opacity="0.2"/>
      <path id="Trazado_47104" data-name="Trazado 47104" d="M3468.224,4391.567l32.538-15.808-28.088,15.808Z" transform="translate(-3174.783 -1996.048)" fill="#070707" opacity="0.2"/>
      <path id="Trazado_47105" data-name="Trazado 47105" d="M3324.922,4392.494l-31.976-15.632,27.526,15.632Z" transform="translate(-3027.535 -1996.974)" fill="#070707" opacity="0.2"/>
      <g id="Grupo_18152" data-name="Grupo 18152" transform="translate(290.9 2343.726)">
        <path id="Trazado_47106" data-name="Trazado 47106" d="M3475.79,4212.875l-21.973-9.5c-.06-.026-.118-.054-.176-.084a2.455,2.455,0,0,1-1.1-3.144l20.728-47.924a2.455,2.455,0,0,1,3.043-1.353c.061.021.122.044.182.07l21.973,9.5.076.035a2.453,2.453,0,0,1,1.2,3.193l-20.728,47.925a2.453,2.453,0,0,1-3.147,1.313Z" transform="translate(-3452.34 -4150.735)" fill="#dde4e8"/>
        <path id="Trazado_47107" data-name="Trazado 47107" d="M3475.87,4212.908a2.453,2.453,0,0,0,3.147-1.314l3.183-7.359,14.362-33.206,3.183-7.359a2.454,2.454,0,0,0-1.2-3.194l-.076-.034-6.029-2.607-9.915-4.288h0l-6.029-2.608-.077-.031h0c-.034-.014-.069-.027-.1-.039l-.009,0-.018,0-.1-.03-.031-.008-.083-.021-.04-.009-.075-.015-.046-.008-.069-.01-.05-.006-.065-.007-.053,0-.062,0h-.115l-.057,0-.058,0-.058,0-.056,0-.058.007-.055.008-.058.01-.054.01-.058.012-.052.013-.058.015-.052.015-.057.018-.051.017-.057.02-.05.02-.056.022-.049.022-.054.025-.048.024-.053.028-.047.026-.051.03-.046.029-.05.032-.046.032-.047.034-.045.034-.046.036-.044.037-.044.038-.042.04-.042.039-.041.042-.039.041-.04.045-.037.042-.039.048-.034.043c-.013.017-.025.034-.038.052l-.031.043-.036.056-.029.044-.036.061-.025.043c-.013.023-.025.047-.037.07s-.013.024-.019.037c-.018.036-.035.073-.051.11h0l-3.183,7.36-14.362,33.205-3.183,7.359c-.016.038-.031.076-.046.114,0,.012-.009.025-.013.038s-.018.051-.026.077-.009.031-.014.046-.014.046-.02.069-.008.033-.012.05-.011.044-.016.066-.007.035-.01.052-.009.042-.012.064-.005.035-.008.052-.007.042-.009.063,0,.036-.005.054,0,.041-.006.062,0,.037,0,.055,0,.041,0,.061,0,.037,0,.055,0,.04,0,.061,0,.037,0,.055,0,.039,0,.059,0,.037,0,.056,0,.039.006.058.005.037.008.056.005.039.009.057.006.037.01.056.007.038.011.057.009.037.013.055l.014.055c0,.019.01.037.015.055s.01.036.016.054l.018.054c.006.018.012.036.019.054l.02.053.021.052.023.053.023.051.025.052.026.05.027.05.028.049.03.049.031.048.032.047.033.047.033.044c.012.016.024.032.036.047l.035.043.04.045.036.041.043.045.037.038.047.044.037.034.051.044.037.031c.019.016.038.03.057.044l.035.027.064.045.032.022.073.046.026.017.088.05.016.008.008,0,.1.049h0l.076.035h0l6.029,2.608,9.915,4.288,6.029,2.608Zm-15.542-9.517a12.94,12.94,0,0,0-.165-3.172,12.222,12.222,0,0,0-2.584-5.72l15.028-34.745a12.215,12.215,0,0,0,5.937-2.034,12.816,12.816,0,0,0,2.828-2.513l10.65,4.606a12.829,12.829,0,0,0,.106,3.782,12.215,12.215,0,0,0,2.592,5.729L3479.7,4204.06a12.217,12.217,0,0,0-5.95,2.035,12.932,12.932,0,0,0-2.425,2.053Z" transform="translate(-3452.343 -4150.737)" fill="#73bcc4"/>
        <path id="Trazado_47108" data-name="Trazado 47108" d="M3543.941,4279.464q.466-.239.958-.435a10.7,10.7,0,0,1,8.259.12,10.817,10.817,0,0,1-8.588,19.856,10.824,10.824,0,0,1-.629-19.542Zm9.686,18.935a10.435,10.435,0,1,0-8.927.306h0A10.434,10.434,0,0,0,3553.627,4298.4Z" transform="translate(-3524.357 -4257.865)" fill="#73bcc4"/>
        <ellipse id="Elipse_1013" data-name="Elipse 1013" cx="9.316" cy="9.292" rx="9.316" ry="9.292" transform="matrix(0.398, -0.917, 0.917, 0.398, 12.274, 36.056)" fill="#73bcc4"/>
        <path id="Trazado_47109" data-name="Trazado 47109" d="M3558.7,4308.774a10.821,10.821,0,0,1,2.337-3.166l2.761,1.194a13.12,13.12,0,0,0-1.728,1.747,7.944,7.944,0,0,0-1.19,1.851,2.584,2.584,0,0,0-.278,1.112.643.643,0,0,0,.427.575.63.63,0,0,0,.569-.036,4.013,4.013,0,0,0,.775-.6q.481-.45,1.23-1.245a7.369,7.369,0,0,1,1.616-1.33,3.334,3.334,0,0,1,1.5-.475,3.692,3.692,0,0,1,1.629.353,2.942,2.942,0,0,1,1.763,1.812,5.116,5.116,0,0,1-.191,3.065l1.845.8-.747,1.726-1.828-.791a10.69,10.69,0,0,1-2.261,2.992l-1.941-2.017a8.5,8.5,0,0,0,2.141-2.806,2.126,2.126,0,0,0,.244-1.008.571.571,0,0,0-.361-.478.636.636,0,0,0-.538,0,2.982,2.982,0,0,0-.693.506q-.43.388-1.092,1.122a7.086,7.086,0,0,1-2.483,1.9,3.045,3.045,0,0,1-2.353-.117,3.316,3.316,0,0,1-1.886-1.87,4.716,4.716,0,0,1,.039-3.056l-2.225-.962.746-1.727Z" transform="translate(-3539.238 -4280.841)" fill="#dde4e8"/>
      </g>
      <g id="Grupo_18153" data-name="Grupo 18153" transform="translate(264.696 2345.083)">
        <rect id="Rectángulo_4627" data-name="Rectángulo 4627" width="38.767" height="30.664" rx="8.628" transform="translate(0 20.806)" fill="#4d5666"/>
        <path id="Rectángulo_4628" data-name="Rectángulo 4628" d="M8.7,0h1.975a8.7,8.7,0,0,1,8.7,8.7V28.06a2.6,2.6,0,0,1-2.6,2.6H8.7a8.7,8.7,0,0,1-8.7-8.7V8.7A8.7,8.7,0,0,1,8.7,0Z" transform="translate(0 20.806)" fill="#5b6375"/>
        <path id="Rectángulo_4629" data-name="Rectángulo 4629" d="M6.98,0H31.788a6.98,6.98,0,0,1,6.98,6.98v0a0,0,0,0,1,0,0H0a0,0,0,0,1,0,0v0A6.98,6.98,0,0,1,6.98,0Z" transform="translate(0 20.806)" fill="#73bcc4"/>
        <path id="Rectángulo_4630" data-name="Rectángulo 4630" d="M6.98,0h12.4a0,0,0,0,1,0,0V6.98a0,0,0,0,1,0,0H0a0,0,0,0,1,0,0v0A6.98,6.98,0,0,1,6.98,0Z" transform="translate(0 20.806)" fill="#5ba6aa"/>
        <path id="Trazado_47110" data-name="Trazado 47110" d="M3386.349,4353.224c0-2.52-2.451-4.562-5.512-4.562s-5.458,2.042-5.458,4.562a4.435,4.435,0,0,0,2.658,3.85v8.059c0,.591.441.855,1.16.855h3.421c.718,0,1.176-.265,1.176-.855v-8.1A4.307,4.307,0,0,0,3386.349,4353.224Z" transform="translate(-3361.481 -4318.367)" fill="#fff"/>
        <path id="Trazado_47111" data-name="Trazado 47111" d="M3381.136,4348.665v17.325h-1.719c-.717,0-1.159-.264-1.159-.856v-8.058a4.39,4.39,0,0,1-2.616-3.85C3375.641,4350.709,3378.257,4348.668,3381.136,4348.665Z" transform="translate(-3361.702 -4318.369)" fill="#efefef"/>
        <path id="Trazado_47112" data-name="Trazado 47112" d="M3338.5,4166.478a15.905,15.905,0,0,0-12.433-7.08c-.528-.024-1.056-.017-1.584,0a15.7,15.7,0,0,0-12.433,7.08,17.547,17.547,0,0,0-2.851,9.461v8.422a.782.782,0,0,0,.4.68,5.157,5.157,0,0,0,4.851-.008.776.776,0,0,0,.431-.7l-.013-7.861a11,11,0,0,1,2.519-7.449,10.769,10.769,0,0,1,7.882-3.706h.012a10.77,10.77,0,0,1,7.881,3.706,11,11,0,0,1,2.519,7.449l-.013,7.909a.7.7,0,0,0,.377.621,5.163,5.163,0,0,0,4.969,0,.689.689,0,0,0,.336-.6v-8.467A17.547,17.547,0,0,0,3338.5,4166.478Z" transform="translate(-3305.882 -4159.356)" fill="#707987"/>
        <path id="Trazado_47113" data-name="Trazado 47113" d="M3341.144,4175.774v8.468a.743.743,0,0,1-.385.6,4.206,4.206,0,0,1-2.334.648v-9.515a14.648,14.648,0,0,0-2.35-7.919,13.275,13.275,0,0,0-10.387-5.925c-.442-.021-.875-.015-1.318,0a13.158,13.158,0,0,0-10.415,5.925,14.692,14.692,0,0,0-2.4,7.919v9.513a4.723,4.723,0,0,1-2.188-.61.752.752,0,0,1-.371-.679v-8.422a17.532,17.532,0,0,1,2.834-9.461,15.687,15.687,0,0,1,12.425-7.079c.527-.017,1.053-.024,1.58,0a15.933,15.933,0,0,1,12.444,7.079A17.557,17.557,0,0,1,3341.144,4175.774Z" transform="translate(-3305.717 -4159.219)" fill="#4d5666"/>
      </g>
      <path id="Trazado_47114" data-name="Trazado 47114" d="M3337.34,4403.865h-67.755v-39.928l33.877,18.558,33.877-18.558Z" transform="translate(-3007.911 -1986.116)" fill="#fdffff"/>
      <path id="Trazado_47115" data-name="Trazado 47115" d="M3269.586,4491.441l31.134-20.854-31.134,22.872Z" transform="translate(-3007.911 -2075.711)" fill="#070707" opacity="0.2"/>
      <path id="Trazado_47116" data-name="Trazado 47116" d="M3303.463,4457.983l-33.877,24.888h67.755Z" transform="translate(-3007.911 -2065.123)" fill="#efefef"/>
      <path id="Trazado_47117" data-name="Trazado 47117" d="M3529.717,4491.421l-31.134-20.834,31.134,22.872Z" transform="translate(-3200.288 -2075.711)" fill="#070707" opacity="0.2"/>
    </g>
  </g>
</svg>
