<svg xmlns="http://www.w3.org/2000/svg" width="141.367" height="141.367" viewBox="0 0 141.367 141.367">
  <g id="Group_18154" data-name="Group 18154" transform="translate(-3114.703 -4026.9)">
    <circle id="Ellipse_1012" data-name="Ellipse 1012" cx="70.684" cy="70.684" r="70.684" transform="translate(3114.703 4026.9)" fill="#57e1ec"/>
    <path id="Path_47102" data-name="Path 47102" d="M3350.762,4244.181v27.185h-81.176v-27.185l37.455-27.534a4.372,4.372,0,0,1,5.13-.035Z" transform="translate(-125.208 -152.706)" fill="#d8d8d8"/>
    <path id="Path_47103" data-name="Path 47103" d="M3350.926,4244.219v4.16l-38.567-27.553a4.413,4.413,0,0,0-5.177.035l-37.431,27.518v-4.16l37.431-27.516a4.412,4.412,0,0,1,5.177-.036Z" transform="translate(-125.342 -152.745)" fill="#e8e8e8"/>
    <rect id="Rectangle_4626" data-name="Rectangle 4626" width="81.176" height="47.442" transform="translate(3144.377 4091.87)" fill="#070707" opacity="0.2"/>
    <path id="Path_47104" data-name="Path 47104" d="M3468.223,4394.7l38.983-18.94-33.651,18.94Z" transform="translate(-285.788 -282.019)" fill="#070707" opacity="0.2"/>
    <path id="Path_47105" data-name="Path 47105" d="M3331.256,4395.59l-38.31-18.729,32.979,18.729Z" transform="translate(-144.093 -282.911)" fill="#070707" opacity="0.2"/>
    <g id="Group_18152" data-name="Group 18152" transform="translate(3179.392 4050.626)">
      <path id="Path_47106" data-name="Path 47106" d="M3480.435,4225.184l-26.326-11.386c-.072-.031-.142-.064-.21-.1a2.941,2.941,0,0,1-1.316-3.767l24.834-57.417a2.941,2.941,0,0,1,3.646-1.621c.073.025.146.053.218.084l26.326,11.386.091.042a2.939,2.939,0,0,1,1.435,3.826l-24.834,57.417a2.939,2.939,0,0,1-3.771,1.574Z" transform="translate(-3452.34 -4150.735)" fill="#dde4e8"/>
      <path id="Path_47107" data-name="Path 47107" d="M3480.531,4225.223a2.939,2.939,0,0,0,3.771-1.574l3.814-8.817,17.207-39.783,3.814-8.817a2.94,2.94,0,0,0-1.435-3.826l-.091-.041-7.224-3.124-11.879-5.138h0l-7.224-3.125-.093-.038h0c-.041-.016-.082-.032-.124-.046l-.011,0-.021-.006-.115-.036-.037-.01-.1-.025-.047-.01-.09-.018-.055-.009-.083-.013-.06-.007-.078-.008-.064,0-.074,0h-.138l-.068,0-.069,0-.069,0-.067.006-.07.008-.065.009-.07.012-.064.012-.07.015-.063.015-.069.018-.062.018-.069.021-.061.021-.068.024-.06.023-.067.027-.059.026-.065.03-.058.029-.063.033-.057.032-.062.036-.056.035-.059.038-.055.038-.057.041-.054.041-.055.043-.052.044-.052.045-.051.047-.05.047-.05.051-.047.049-.048.054-.044.051-.047.058-.041.051c-.016.02-.03.041-.045.062l-.038.052-.043.066c-.011.018-.023.035-.034.053s-.029.048-.043.073-.02.034-.03.051-.03.056-.044.084-.016.029-.022.044c-.021.043-.042.087-.061.132h0l-3.814,8.817-17.207,39.783-3.813,8.817c-.02.045-.038.09-.055.136l-.016.045c-.011.03-.022.061-.032.092s-.011.037-.017.055-.017.055-.024.083-.01.04-.015.06-.013.052-.019.079-.008.042-.012.062-.01.051-.014.077-.006.042-.009.063-.008.05-.01.076,0,.043-.007.065,0,.049-.007.074,0,.044,0,.066,0,.049,0,.073,0,.044,0,.066,0,.048,0,.072,0,.044,0,.066,0,.047,0,.071,0,.044.006.067,0,.046.007.07.006.044.009.067.007.046.01.068.008.044.012.066.009.045.013.068l.015.066c.005.022.011.044.016.066s.012.044.018.066.012.043.02.065.014.044.021.065.015.043.022.064l.024.064.025.063c.009.021.018.042.027.063l.028.061.03.062.031.06.033.06.034.059c.012.02.023.04.036.059l.037.058.038.057.04.057.04.054c.014.019.029.038.044.056l.042.052.047.055.043.048.051.054.044.045.056.053.045.042.061.053.044.038c.022.019.045.036.068.053l.042.033.077.054.039.027c.029.02.058.038.088.056l.031.02.105.06.019.01.01.006c.039.021.078.04.118.059h0l.091.042h0l7.224,3.125,11.879,5.138,7.223,3.124Zm-18.621-11.4a15.5,15.5,0,0,0-.2-3.8,14.643,14.643,0,0,0-3.1-6.853l18-41.627a14.634,14.634,0,0,0,7.114-2.437,15.353,15.353,0,0,0,3.388-3.011l12.76,5.519a15.366,15.366,0,0,0,.126,4.531,14.635,14.635,0,0,0,3.105,6.863l-18,41.615a14.634,14.634,0,0,0-7.128,2.438,15.493,15.493,0,0,0-2.905,2.459Z" transform="translate(-3452.343 -4150.737)" fill="#73bcc4"/>
      <path id="Path_47108" data-name="Path 47108" d="M3545.1,4279.7q.558-.286,1.148-.521a12.824,12.824,0,0,1,9.9.144,12.96,12.96,0,0,1-10.29,23.79,12.968,12.968,0,0,1-.754-23.413Zm11.605,22.685a12.5,12.5,0,1,0-10.695.366h0A12.5,12.5,0,0,0,3556.71,4302.388Z" transform="translate(-3521.641 -4253.826)" fill="#73bcc4"/>
      <ellipse id="Ellipse_1013" data-name="Ellipse 1013" cx="11.162" cy="11.132" rx="11.162" ry="11.132" transform="matrix(0.398, -0.917, 0.917, 0.398, 14.705, 43.198)" fill="#73bcc4"/>
      <path id="Path_47109" data-name="Path 47109" d="M3559.28,4309.4a12.962,12.962,0,0,1,2.8-3.793l3.308,1.431a15.688,15.688,0,0,0-2.07,2.093,9.508,9.508,0,0,0-1.426,2.217,3.1,3.1,0,0,0-.333,1.332.772.772,0,0,0,.512.69.756.756,0,0,0,.681-.043,4.827,4.827,0,0,0,.928-.725q.576-.54,1.473-1.492a8.859,8.859,0,0,1,1.937-1.593,4,4,0,0,1,1.8-.569,4.428,4.428,0,0,1,1.952.423,3.526,3.526,0,0,1,2.113,2.17,6.129,6.129,0,0,1-.229,3.672l2.211.956-.895,2.068-2.191-.948a12.805,12.805,0,0,1-2.709,3.584l-2.325-2.417a10.185,10.185,0,0,0,2.565-3.361,2.546,2.546,0,0,0,.292-1.208.683.683,0,0,0-.432-.572.763.763,0,0,0-.645,0,3.574,3.574,0,0,0-.83.607q-.515.465-1.308,1.343a8.481,8.481,0,0,1-2.975,2.271,3.647,3.647,0,0,1-2.819-.14,3.971,3.971,0,0,1-2.26-2.24,5.65,5.65,0,0,1,.046-3.662l-2.666-1.153.894-2.068Z" transform="translate(-3535.961 -4275.935)" fill="#dde4e8"/>
    </g>
    <g id="Group_18153" data-name="Group 18153" transform="translate(3147.996 4052.252)">
      <rect id="Rectangle_4627" data-name="Rectangle 4627" width="46.447" height="36.738" rx="8.628" transform="translate(0 24.927)" fill="#4d5666"/>
      <path id="Rectangle_4628" data-name="Rectangle 4628" d="M8.7,0h5.814a8.7,8.7,0,0,1,8.7,8.7v25.43a2.6,2.6,0,0,1-2.6,2.6H8.7a8.7,8.7,0,0,1-8.7-8.7V8.7A8.7,8.7,0,0,1,8.7,0Z" transform="translate(0 24.927)" fill="#5b6375"/>
      <path id="Rectangle_4629" data-name="Rectangle 4629" d="M8.362,0H38.084a8.362,8.362,0,0,1,8.362,8.362v0a0,0,0,0,1,0,0H0a0,0,0,0,1,0,0v0A8.362,8.362,0,0,1,8.362,0Z" transform="translate(0 24.927)" fill="#73bcc4"/>
      <path id="Rectangle_4630" data-name="Rectangle 4630" d="M8.362,0H23.223a0,0,0,0,1,0,0V8.362a0,0,0,0,1,0,0H0a0,0,0,0,1,0,0v0A8.362,8.362,0,0,1,8.362,0Z" transform="translate(0 24.927)" fill="#5ba6aa"/>
      <path id="Path_47110" data-name="Path 47110" d="M3388.522,4354.127c0-3.018-2.936-5.465-6.6-5.465s-6.539,2.447-6.539,5.465a5.314,5.314,0,0,0,3.185,4.612v9.655c0,.708.529,1.025,1.39,1.025h4.1c.86,0,1.408-.317,1.408-1.025v-9.705A5.16,5.16,0,0,0,3388.522,4354.127Z" transform="translate(-3358.728 -4312.366)" fill="#fff"/>
      <path id="Path_47111" data-name="Path 47111" d="M3382.224,4348.665v20.756h-2.06c-.859,0-1.389-.316-1.389-1.025v-9.654a5.26,5.26,0,0,1-3.134-4.613C3375.641,4351.114,3378.775,4348.669,3382.224,4348.665Z" transform="translate(-3358.94 -4312.368)" fill="#efefef"/>
      <path id="Path_47112" data-name="Path 47112" d="M3344.3,4167.883a19.055,19.055,0,0,0-14.9-8.482c-.632-.029-1.266-.021-1.9,0a18.809,18.809,0,0,0-14.9,8.482,21.022,21.022,0,0,0-3.416,11.335v10.09a.938.938,0,0,0,.48.815,6.18,6.18,0,0,0,5.812-.009.931.931,0,0,0,.516-.835l-.016-9.417a13.182,13.182,0,0,1,3.018-8.924,12.9,12.9,0,0,1,9.443-4.44h.014a12.9,12.9,0,0,1,9.442,4.44,13.182,13.182,0,0,1,3.018,8.924l-.016,9.476a.832.832,0,0,0,.451.744,6.188,6.188,0,0,0,5.954,0,.827.827,0,0,0,.4-.716v-10.145A21.022,21.022,0,0,0,3344.3,4167.883Z" transform="translate(-3305.226 -4159.351)" fill="#707987"/>
      <path id="Path_47113" data-name="Path 47113" d="M3347.511,4179.054V4189.2a.89.89,0,0,1-.461.716,5.037,5.037,0,0,1-2.8.776v-11.4a17.549,17.549,0,0,0-2.816-9.488,15.906,15.906,0,0,0-12.445-7.1c-.53-.024-1.049-.017-1.579,0a15.765,15.765,0,0,0-12.477,7.1,17.6,17.6,0,0,0-2.871,9.488v11.4a5.66,5.66,0,0,1-2.622-.731.9.9,0,0,1-.444-.814v-10.091a21.007,21.007,0,0,1,3.4-11.335,18.794,18.794,0,0,1,14.886-8.481c.631-.021,1.261-.03,1.893,0a19.088,19.088,0,0,1,14.909,8.481A21.036,21.036,0,0,1,3347.511,4179.054Z" transform="translate(-3305.067 -4159.219)" fill="#4d5666"/>
    </g>
    <path id="Path_47114" data-name="Path 47114" d="M3350.761,4411.774h-81.176v-47.837l40.588,22.234,40.588-22.234Z" transform="translate(-125.208 -272.462)" fill="#fdffff"/>
    <path id="Path_47115" data-name="Path 47115" d="M3269.586,4495.572l37.3-24.986-37.3,27.4Z" transform="translate(-125.208 -358.678)" fill="#070707" opacity="0.2"/>
    <path id="Path_47116" data-name="Path 47116" d="M3310.174,4457.983l-40.588,29.818h81.176Z" transform="translate(-125.208 -348.489)" fill="#efefef"/>
    <path id="Path_47117" data-name="Path 47117" d="M3535.884,4495.548l-37.3-24.961,37.3,27.4Z" transform="translate(-310.331 -358.678)" fill="#070707" opacity="0.2"/>
  </g>
</svg>
