<svg xmlns="http://www.w3.org/2000/svg" width="144" height="144" viewBox="0 0 144 144">
  <g id="Group_18150" data-name="Group 18150" transform="translate(-3114.7 -1089.28)">
    <path id="Path_47076" data-name="Path 47076" d="M3258.7,1161.279q0,1.03-.03,2.055a71.992,71.992,0,1,1,.03-2.055Z" fill="#73bcc4"/>
    <path id="Path_47077" data-name="Path 47077" d="M3398.483,1221.7a13.291,13.291,0,0,1-2.914-2.589,3.237,3.237,0,0,1-.281-3.654c1-1.386,3.115-1.218,4.735-.666s3.361,1.349,4.963.749a9.473,9.473,0,0,0,2.307-1.62,3.075,3.075,0,0,1,2.609-.793c1.4.4,1.971,2.324,3.394,2.644,1.823.41,3-2.029,4.8-2.552,1.857-.541,3.626,1.1,5.546,1.34,1.514.187,2.985-.515,4.5-.7s3.419.542,3.52,2.064a2.428,2.428,0,0,1-1.129,2.045,6.978,6.978,0,0,1-2.257.9,18.039,18.039,0,0,0-4.954,1.823,5.725,5.725,0,0,0-2.885,4.211c-.066.876.144,1.749.16,2.627a2.751,2.751,0,0,1-.935,2.35,3.531,3.531,0,0,1-2.34.353l-6.906-.557c-1.547-.125-3.928.148-5.338-.59-1.23-.644-1.877-2.442-2.7-3.5A43.091,43.091,0,0,0,3398.483,1221.7Z" transform="translate(-225.466 -99.614)" fill="#707987"/>
    <path id="Path_47078" data-name="Path 47078" d="M3369.427,1327.573c0,18.678-16.488,33.82-36.826,33.82s-36.826-15.142-36.826-33.82c0-16.854,15.025-36.695,31.27-42.824,1.758-.663,5.37.283,5.37.283s3.5-.88,5.3-.164C3353.5,1291.159,3369.427,1310.8,3369.427,1327.573Z" transform="translate(-145.735 -157.131)" fill="#5b6375"/>
    <path id="Path_47079" data-name="Path 47079" d="M3345.572,1306.5c0,18.679-16.488,33.82-36.826,33.82a39.856,39.856,0,0,1-10.855-1.493,31.3,31.3,0,0,1-2.117-11.328c0-16.855,15.025-36.695,31.27-42.824,1.758-.663,5.37.283,5.37.283s3.5-.88,5.3-.163q.31.124.62.254C3342.76,1291.9,3345.572,1299.452,3345.572,1306.5Z" transform="translate(-145.735 -157.068)" fill="#707987"/>
    <path id="Path_47080" data-name="Path 47080" d="M3409.2,1356.871c0,18.679-16.488,33.82-36.826,33.82a38.27,38.27,0,0,1-27.182-11,38.72,38.72,0,0,0,23.318,7.642c20.338,0,36.826-15.142,36.826-33.82,0-11.192-7.1-23.666-16.512-32.6C3400.095,1329.867,3409.2,1344.192,3409.2,1356.871Z" transform="translate(-185.512 -186.429)" fill="#4d5666"/>
    <path id="Path_47081" data-name="Path 47081" d="M3423.23,1313.589c1.3-4.161,2.882-7.368,3.534-7.164s.128,3.742-1.171,7.9-2.882,7.368-3.534,7.164S3421.931,1317.75,3423.23,1313.589Z" transform="translate(-247.149 -174.759)" fill="#221f1f" opacity="0.08"/>
    <path id="Path_47082" data-name="Path 47082" d="M3406.524,1304.868c1.712-3,3.482-5.223,3.954-4.954s-.535,2.922-2.247,5.927-3.482,5.223-3.954,4.954S3404.812,1307.873,3406.524,1304.868Z" transform="translate(-232.969 -169.509)" fill="#221f1f" opacity="0.08"/>
    <path id="Path_47083" data-name="Path 47083" d="M3442.369,1280.142a1.443,1.443,0,0,0-.847-1.349,1.581,1.581,0,0,0,.306-.949c0-1.6-1.65-1.668-2.824-1.846q-2.537-.383-5.1-.587a72.7,72.7,0,0,0-10.256-.09q-.666.041-1.331.094c-1.434.115-4.233.416-4.233,2.429a1.594,1.594,0,0,0,.258.88,1.469,1.469,0,0,0,.078,2.848c1.258.414,5.9.721,11.438.721,5.734,0,10.51-.329,11.56-.765A1.427,1.427,0,0,0,3442.369,1280.142Z" transform="translate(-243.525 -149.621)" fill="#39424f"/>
    <path id="Path_47084" data-name="Path 47084" d="M3445.908,1426.331a23.687,23.687,0,0,1-8.412-1.954v-6.618a28.707,28.707,0,0,0,5.024,1.963,17.372,17.372,0,0,0,4.764.787,5.66,5.66,0,0,0,2.482-.409,1.418,1.418,0,0,0,.788-1.365,1.389,1.389,0,0,0-.568-1.116,8.818,8.818,0,0,0-1.894-1.037q-1.326-.578-3.578-1.4a16.2,16.2,0,0,1-4.087-2.1,7.339,7.339,0,0,1-2.262-2.611,8.151,8.151,0,0,1-.708-3.6,6.483,6.483,0,0,1,2.113-5.143,11.21,11.21,0,0,1,6.339-2.292v-4.424h4.127v4.384a23.4,23.4,0,0,1,7.994,1.953l-2.372,5.681a18.6,18.6,0,0,0-7.515-1.874,4.658,4.658,0,0,0-2.243.389,1.256,1.256,0,0,0-.648,1.146,1.408,1.408,0,0,0,.469,1.086,6.572,6.572,0,0,0,1.624.957q1.156.528,3.21,1.226a15.518,15.518,0,0,1,5.98,3.359,6.711,6.711,0,0,1,1.814,4.854,7.3,7.3,0,0,1-2.123,5.442,10.336,10.336,0,0,1-6.19,2.592v5.334h-4.127Z" transform="translate(-259.766 -246.068)" fill="#fff"/>
    <path id="Path_47085" data-name="Path 47085" d="M3588.531,1459.236l-1.111-.013s-.01-.057-.031-.158a7.761,7.761,0,0,0-2.981-4.627,16.052,16.052,0,0,0-5.61-2.335,20.948,20.948,0,0,1,.546,2.362l-.62.267a6.279,6.279,0,0,1-2.731.508l-15.706-.615a2.253,2.253,0,0,0-1.4.42,1.639,1.639,0,0,0-.732,1.508,2.175,2.175,0,0,0,.655,1.543c.562.669,2.39.515,2.8.532l12.907.463-13.6-.488a2.074,2.074,0,0,0-1.705.889,1.43,1.43,0,0,0-.358.89,2.875,2.875,0,0,0,.173,1.066c.041.115.077.214.091.245.448,1.069,1.292,1.2,2.451,1.229l11.926.276-11.574-.28a1.776,1.776,0,0,0-1.667,1.036,1.66,1.66,0,0,0-.146.789,2.011,2.011,0,0,0,1.706,2.055,2.465,2.465,0,0,0,.541.073l11.693.34-9.34-.324a1.626,1.626,0,0,0-1.371.69,1.717,1.717,0,0,0-.35,1.572,1.985,1.985,0,0,0,2.369,1.71h14.908l2.5.12s.944.086,2.112-1.369c0,0,.538-.58.562-.866l3.1,0Z" transform="translate(-356.904 -292.014)" fill="#fff"/>
    <rect id="Rectangle_4624" data-name="Rectangle 4624" width="4.53" height="15.389" rx="2.265" transform="translate(3231.411 1164.068)" fill="#efefef"/>
    <path id="Path_47086" data-name="Path 47086" d="M3754.564,1468.682a72.016,72.016,0,0,1-.732,8.441,71.27,71.27,0,0,1-1.754,8.439l-5.431,0-15.18-.01c-.346,0-.626-.46-.626-1.031l0-7.408,0-7.408c0-.57.281-1.032.626-1.032Z" transform="translate(-495.893 -305.348)" fill="#5b6375"/>
    <path id="Path_47087" data-name="Path 47087" d="M3753.9,1511.932a71.272,71.272,0,0,1-1.754,8.439l-5.431,0-15.182-.008c-.336,0-.593-.449-.593-1v-.029l-.014-7.408Z" transform="translate(-495.965 -340.157)" fill="#4d5666"/>
    <path id="Path_47088" data-name="Path 47088" d="M3231.963,1413.931c-16.419-12.318-15.4-39.445-4.28-50.557a3.058,3.058,0,0,0,.282.582,7.334,7.334,0,0,0,1.084,1.109c1.467,1.2,2.511.7,3.112.1a2.939,2.939,0,0,0,.737-1.324c.8-2.973,2.19-9.094.607-10.309-1.926-1.478-7.072.2-10.08,1.048-1.431.4-2.48,1.277-2.084,2.779.219.832,1.261,1.448,2.1,2.339-1.248,2.392-2.362,3.326-3.847,6.1-6.038,10.97-5.313,21.478-.937,32.725a28.29,28.29,0,0,0,8.639,12.111C3228.791,1411.8,3230.4,1412.834,3231.963,1413.931Z" transform="translate(-80.902 -217.205)" fill="#fff"/>
  </g>
</svg>
