<svg xmlns="http://www.w3.org/2000/svg" xmlns:xlink="http://www.w3.org/1999/xlink" width="226.246" height="236.299" viewBox="0 0 226.246 236.299">
  <defs>
    <linearGradient id="linear-gradient" x1="0.906" y1="2.731" x2="0.906" y2="2.726" gradientUnits="objectBoundingBox">
      <stop offset="0" stop-color="#0b5b96"/>
      <stop offset="1" stop-color="#482c5b"/>
    </linearGradient>
    <linearGradient id="linear-gradient-2" x1="3.015" y1="9.708" x2="3.033" y2="9.725" gradientUnits="objectBoundingBox">
      <stop offset="0" stop-color="#232d59"/>
      <stop offset="1" stop-color="#303c84"/>
    </linearGradient>
    <linearGradient id="linear-gradient-3" x1="-0.329" y1="4.937" x2="-0.333" y2="4.952" xlink:href="#linear-gradient-2"/>
  </defs>
  <g id="Grupo_21368" data-name="Grupo 21368" transform="translate(-117.101 -498.423)">
    <g id="Grupo_21355" data-name="Grupo 21355" opacity="0.16">
      <path id="Trazado_47528" data-name="Trazado 47528" d="M322.7,688.587l-.463.366-1.819-2.735-20.7-41.674a18.952,18.952,0,0,0-1.736-2.9c-2.566-3.471-5.581-4.2-10.749-6.123l-.879-.328.1-99.617a7.734,7.734,0,0,0-6.572-7.625l.045-10.239a2.783,2.783,0,0,0-2.761-2.785l-2.156-.009a2.78,2.78,0,0,0-2.788,2.762l-.022,5.033a2.036,2.036,0,0,0-1.973,2.025l-.014,3.112-28.161-.028v-1.934c0-1.235-.731-2.237-1.634-2.237h-27.8c-.9,0-1.634,1-1.634,2.237v1.9l-39.027-.038a7.735,7.735,0,0,0-7.72,7.7l-.119,118.044-9.657,7.487-1.6,1.247c-.976.757-1.865,1.423-2.676,2.048l2.685-2.073-3.1,2.369a24.011,24.011,0,0,0-2.922,2.587,11.07,11.07,0,0,0-2.13,3.261,16.591,16.591,0,0,0-1.06,3.76L141.14,689.6,136,720.39l-.163.541-5.9,13.791h32.25v-3.68l-1.605-.686c.113-.2.215-.4.332-.59a42.325,42.325,0,0,1,2.707-3.911l8.672-11.555a24.655,24.655,0,0,0,2.676-4.129,20.958,20.958,0,0,0,1.679-4.658c.116-.488.207-.982.286-1.479.1,1.776,2.086,3.167,4.469,3.04,2.583-.138,4.594-1.813,4.549-3.79v-.142a4.164,4.164,0,0,0,2.757.792,3.987,3.987,0,0,0,3.716-2.4l86.146.084a7.736,7.736,0,0,0,7.72-7.7v-2.11l10.866,7.881a37.569,37.569,0,0,1,5.42,4.8l-5.32,4.2a13.084,13.084,0,0,0-2.153,18.379l6.1,7.652h42.144V714.712Z" fill="#224d8f" opacity="0.41" style="isolation: isolate"/>
    </g>
    <g id="Grupo_21356" data-name="Grupo 21356" opacity="0.16">
      <path id="Trazado_47529" data-name="Trazado 47529" d="M149.779,664.588l.294-.227c-.166.129-.324.253-.483.379Z" fill="#224d8f"/>
    </g>
    <g id="Grupo_21357" data-name="Grupo 21357">
      <rect id="Rectángulo_4635" data-name="Rectángulo 4635" width="1.463" height="6.971" transform="translate(266.689 537.423) rotate(-89.771)" fill="#54bded"/>
      <path id="Trazado_47530" data-name="Trazado 47530" d="M270.215,609.6l.01-2.378a.361.361,0,0,0-.722-.005v.005l-.01,2.378a.361.361,0,0,0,.722,0Z" fill="#302c6f"/>
      <path id="Trazado_47531" data-name="Trazado 47531" d="M269.456,609.279l-.616-1.884,2.062-.03-.645,1.917Z" fill="#54bded"/>
      <path id="Trazado_47532" data-name="Trazado 47532" d="M266.283,599.565l7.235.032-2.614,7.769-2.062.03Z" fill="#54bded"/>
      <path id="Trazado_47533" data-name="Trazado 47533" d="M266.757,537.346l6.961.031a.372.372,0,0,1,.369.372l-.27,61.608a.833.833,0,0,1-.836.829l-6.037-.027a.832.832,0,0,1-.829-.836l.27-61.608A.371.371,0,0,1,266.757,537.346Z" fill="#302c6f"/>
      <path id="Trazado_47534" data-name="Trazado 47534" d="M266.389,535.588l.151-34.4a2.781,2.781,0,0,1,2.785-2.76l2.157.009a2.782,2.782,0,0,1,2.76,2.785l-.151,34.4a.371.371,0,0,1-.372.369l-6.961-.03a.37.37,0,0,1-.369-.373Z" fill="#302c6f"/>
    </g>
    <path id="Trazado_47535" data-name="Trazado 47535" d="M269.342,516.426l.049-11.207a1.04,1.04,0,1,0-2.079-.072q0,.031,0,.063l-.049,11.207a1.04,1.04,0,1,0,2.078.073C269.342,516.468,269.342,516.447,269.342,516.426Z" fill="#54bded"/>
    <path id="Trazado_47536" data-name="Trazado 47536" d="M155.56,671.6a6.284,6.284,0,0,0,7.4-4.868l3.359-16.259a6.266,6.266,0,0,0-12.273-2.536l-3.36,16.259A6.282,6.282,0,0,0,155.56,671.6Z" fill="#f88b79"/>
    <path id="Trazado_47537" data-name="Trazado 47537" d="M163,653.4a4.784,4.784,0,0,1,5.125-.469l1.382.642a5.833,5.833,0,0,0-1.591,2.5l-3.056,9.577-4.145,3.724L159,656.495Z" fill="#ffb29f"/>
    <path id="Trazado_47538" data-name="Trazado 47538" d="M148.789,644.485l10.145-7.864L160.65,649.5l-3.965,3.563Z" fill="#ffb29f"/>
    <path id="Trazado_47539" data-name="Trazado 47539" d="M179.892,675.462l.227,9.961c.045,1.978-1.966,3.653-4.549,3.79-2.54.136-4.628-1.454-4.464-3.4l1.325-15.641Z" fill="#fb9e8c"/>
    <path id="Trazado_47540" data-name="Trazado 47540" d="M186.517,674.478l.191,8.4c.038,1.667-1.657,3.079-3.836,3.2-2.141.114-3.9-1.226-3.763-2.863l1.117-13.188Z" fill="#fb9e8c"/>
    <path id="Trazado_47541" data-name="Trazado 47541" d="M272.895,685.12l-106.784-.1a7.733,7.733,0,0,1-7.7-7.72l.155-158.335a7.733,7.733,0,0,1,7.72-7.7l106.784.1a7.736,7.736,0,0,1,7.7,7.72l-.155,158.335A7.736,7.736,0,0,1,272.895,685.12Z" fill="url(#linear-gradient)"/>
    <path id="Trazado_47542" data-name="Trazado 47542" d="M267.367,674.143l-98.651-2.475L165.5,523.982H267.367Z" fill="#0f2c4f"/>
    <rect id="Rectángulo_4636" data-name="Rectángulo 4636" width="101.864" height="150.161" transform="translate(168.395 521.507)" fill="#fff"/>
    <path id="Trazado_47543" data-name="Trazado 47543" d="M130.6,703.984l-3.35,11.449,23.624,6.358.117-.383a37.535,37.535,0,0,1,3.624-8.185L130.677,703.5Z" fill="#fff"/>
    <path id="Trazado_47544" data-name="Trazado 47544" d="M175.24,632.333a5.882,5.882,0,0,0-7.33,3.821l-3.055,9.577-6.18,19.368a1.125,1.125,0,0,1-2.128.043l-2.358-6.469a3.949,3.949,0,0,1,1.066-4.287l1.6-1.442-8-8.5-1.664,1.29c-5.362,4.157-8.158,5.6-9.224,12.3l-7.29,45.462,23.937,9.726a37.22,37.22,0,0,1,2.2-3.308L166.8,696.54a20.759,20.759,0,0,0,4.12-12.146l.192-14.751a16.649,16.649,0,0,1,.644-4.38l7.313-25.526A5.988,5.988,0,0,0,175.24,632.333Z" fill="#ffb29f"/>
    <g id="Grupo_21358" data-name="Grupo 21358">
      <path id="Trazado_47545" data-name="Trazado 47545" d="M135.636,673.132l2.435-15.428a16.483,16.483,0,0,1,1.03-3.748,11.009,11.009,0,0,1,2.1-3.258,23.928,23.928,0,0,1,2.9-2.6l3.091-2.385-3.1,2.368a24.013,24.013,0,0,0-2.922,2.587,11.061,11.061,0,0,0-2.126,3.262,16.587,16.587,0,0,0-1.056,3.759L135.466,673.1l-5.056,30.289.551.223Z" fill="#fb9e8c"/>
      <path id="Trazado_47546" data-name="Trazado 47546" d="M179.614,637a6.349,6.349,0,0,0-2.625-4.229,6.146,6.146,0,0,0-4.873-.883,6.22,6.22,0,0,0-3.938,2.956,6.019,6.019,0,0,0-.507,1.154l-.359,1.151-.715,2.3-1.431,4.6-5.736,18.39-.726,2.3a1.3,1.3,0,0,1-.6.924,1.087,1.087,0,0,1-1.068-.043,1.7,1.7,0,0,1-.575-.971l-.42-1.141-.831-2.26-.831-2.26a4.176,4.176,0,0,1-.321-2.326,3.881,3.881,0,0,1,1.05-2.093c.577-.549,1.184-1.081,1.775-1.622l.029-.027c-.055.01-.1.027-.153.034-.572.517-1.151,1.02-1.716,1.552a3.981,3.981,0,0,0-1.088,2.139,4.291,4.291,0,0,0,.313,2.383l1.637,4.529.409,1.132c.074.19.124.374.216.57a1.178,1.178,0,0,0,.414.482,1.247,1.247,0,0,0,1.23.057,1.46,1.46,0,0,0,.686-1.018l.738-2.292,5.974-18.314,2.245-6.867.374-1.142a5.456,5.456,0,0,1,.475-1.04,5.618,5.618,0,0,1,3.6-2.617,5.474,5.474,0,0,1,4.322.842,5.6,5.6,0,0,1,2.261,3.766,5.8,5.8,0,0,1-.108,2.235c-.192.742-.444,1.532-.663,2.3l-2.719,9.24-2.707,9.243-1.339,4.626a17.481,17.481,0,0,0-.772,4.89l-.152,9.63-.076,4.815a20.44,20.44,0,0,1-.559,4.635,20,20,0,0,1-1.6,4.374,23.258,23.258,0,0,1-2.535,3.952l-5.738,7.736-2.869,3.868a43.431,43.431,0,0,0-2.749,4.021c-.064.107-.12.219-.182.326l1.07.435c.033-.055.062-.114.1-.169a42.322,42.322,0,0,1,2.707-3.911l8.672-11.555a24.657,24.657,0,0,0,2.676-4.129,20.957,20.957,0,0,0,1.679-4.658,21.685,21.685,0,0,0,.566-4.909l.049-4.816.1-9.631a16.333,16.333,0,0,1,.7-4.6l1.313-4.633,2.6-9.275,2.587-9.278c.212-.782.439-1.526.638-2.34A6.611,6.611,0,0,0,179.614,637Z" fill="#fb9e8c"/>
      <path id="Trazado_47547" data-name="Trazado 47547" d="M150.514,721.106l-22.787-5.965,3.161-11.1.006-.02.063-.411-.551-.223-.084.5L126.895,715.3l-.11.368.375.1,23.58,6.521.513.142.153-.51a37.305,37.305,0,0,1,3.741-8.486l-1.07-.435A38.432,38.432,0,0,0,150.514,721.106Z" fill="#fff"/>
    </g>
    <path id="Trazado_47548" data-name="Trazado 47548" d="M168.738,638.831l.451-1.83c.082-.3.135-.612.227-.917a1.96,1.96,0,0,1,.508-.8,2.243,2.243,0,0,1,1.781-.62c.651.1,1.233.281,1.853.417l1.834.439.917.22a2.48,2.48,0,0,1,.946.43,2.335,2.335,0,0,1,.941,1.853,2.194,2.194,0,0,1-.07.541l-.128.462-.258.905-.269.9a6.159,6.159,0,0,1-.346.931,5.24,5.24,0,0,1-1.194,1.581,4.686,4.686,0,0,1-3.623,1.26,4.124,4.124,0,0,1-3.064-2.121A4.873,4.873,0,0,1,168.738,638.831Zm0,0a4.613,4.613,0,0,0,.584,3.6,3.883,3.883,0,0,0,3.016,1.846,4.3,4.3,0,0,0,3.212-1.341,4.923,4.923,0,0,0,1.017-1.445,13.98,13.98,0,0,0,.556-1.744l.27-.9.129-.444a1.565,1.565,0,0,0,.056-.391,1.773,1.773,0,0,0-.663-1.41,2.109,2.109,0,0,0-.738-.384l-.9-.277-1.8-.555c-.6-.172-1.21-.4-1.794-.526a2.056,2.056,0,0,0-1.7.486,1.894,1.894,0,0,0-.518.755c-.1.294-.173.6-.254.9Z" fill="#fb9e8c"/>
    <path id="Trazado_47549" data-name="Trazado 47549" d="M194.774,518.848a5.773,5.773,0,0,0,5.745,5.463h40.642a5.774,5.774,0,0,0,5.745-5.463Z" fill="#0f2c4f"/>
    <path id="Trazado_47550" data-name="Trazado 47550" d="M234.738,507.154h-27.8c-.9,0-1.633,1-1.633,2.237v12.69c0,1.235.731,2.237,1.633,2.237h27.8c.9,0,1.634-1,1.634-2.237v-12.69C236.372,508.155,235.64,507.154,234.738,507.154Z" fill="#92b9eb"/>
    <rect id="Rectángulo_4637" data-name="Rectángulo 4637" width="3.974" height="1.245" transform="translate(178.358 592.31)" fill="#d8dffa"/>
    <rect id="Rectángulo_4638" data-name="Rectángulo 4638" width="17.465" height="1.245" transform="translate(213.591 599.175)" fill="#d8dffa"/>
    <path id="Trazado_47551" data-name="Trazado 47551" d="M178.357,587.445v1.245h17.526l-1.411-1.245Z" fill="#d8dffa"/>
    <path id="Trazado_47552" data-name="Trazado 47552" d="M210.672,585.907H192.465l2.192,1.934h16.014Z" fill="#d8dffa"/>
    <rect id="Rectángulo_4639" data-name="Rectángulo 4639" width="16.777" height="1.934" transform="translate(214.815 585.872)" fill="#d8dffa"/>
    <path id="Trazado_47553" data-name="Trazado 47553" d="M178.357,589.877v1.245h20.282l-1.411-1.245Z" fill="#d8dffa"/>
    <path id="Trazado_47554" data-name="Trazado 47554" d="M231.591,589.687H196.749l2.192,1.934h32.65Z" fill="#d8dffa"/>
    <path id="Trazado_47555" data-name="Trazado 47555" d="M188.989,592.31v1.245H201.4l-1.411-1.245Z" fill="#d8dffa"/>
    <path id="Trazado_47556" data-name="Trazado 47556" d="M231.591,593.468H201.033l2.192,1.934H231.59Z" fill="#d8dffa"/>
    <rect id="Rectángulo_4640" data-name="Rectángulo 4640" width="52.697" height="1.245" transform="translate(178.358 596.787)" fill="#d8dffa"/>
    <rect id="Rectángulo_4641" data-name="Rectángulo 4641" width="32.71" height="1.245" transform="translate(178.358 599.22)" fill="#d8dffa"/>
    <rect id="Rectángulo_4642" data-name="Rectángulo 4642" width="51.054" height="1.245" transform="translate(178.358 601.653)" fill="#d8dffa"/>
    <rect id="Rectángulo_4643" data-name="Rectángulo 4643" width="7.739" height="1.245" transform="translate(178.358 604.601)" fill="#d8dffa"/>
    <rect id="Rectángulo_4644" data-name="Rectángulo 4644" width="42.368" height="1.245" transform="translate(188.688 604.587)" fill="#d8dffa"/>
    <rect id="Rectángulo_4645" data-name="Rectángulo 4645" width="12.643" height="1.156" transform="translate(249.475 533.053)" fill="#d8dffa"/>
    <rect id="Rectángulo_4646" data-name="Rectángulo 4646" width="12.643" height="1.156" transform="translate(249.475 535.311)" fill="#d8dffa"/>
    <rect id="Rectángulo_4647" data-name="Rectángulo 4647" width="12.643" height="1.156" transform="translate(249.475 537.57)" fill="#d8dffa"/>
    <rect id="Rectángulo_4648" data-name="Rectángulo 4648" width="30.125" height="1.156" transform="translate(231.993 539.828)" fill="#d8dffa"/>
    <rect id="Rectángulo_4649" data-name="Rectángulo 4649" width="23.688" height="1.156" transform="translate(238.431 543.985)" fill="#d8dffa"/>
    <path id="Trazado_47557" data-name="Trazado 47557" d="M238.431,547.4h1.051l-1.051-.743Z" fill="#d8dffa"/>
    <path id="Trazado_47558" data-name="Trazado 47558" d="M262.119,546.243H238.431v.413l1.051.743h22.637Z" fill="#d8dffa"/>
    <path id="Trazado_47559" data-name="Trazado 47559" d="M242.677,549.658l-.4-.285.075.285Z" fill="#d8dffa"/>
    <path id="Trazado_47560" data-name="Trazado 47560" d="M242.27,549.373l-1.232-.871h-2.611v1.156h3.918Z" fill="#d8dffa"/>
    <path id="Trazado_47561" data-name="Trazado 47561" d="M241.042,548.5l1.232.871-.229-.871Z" fill="#d8dffa"/>
    <path id="Trazado_47562" data-name="Trazado 47562" d="M262.119,549.658V548.5H242.044l.229.871.4.285Z" fill="#d8dffa"/>
    <rect id="Rectángulo_4650" data-name="Rectángulo 4650" width="14.348" height="1.156" transform="translate(231.993 533.053)" fill="#d8dffa"/>
    <rect id="Rectángulo_4651" data-name="Rectángulo 4651" width="14.348" height="1.156" transform="translate(231.993 535.311)" fill="#d8dffa"/>
    <rect id="Rectángulo_4652" data-name="Rectángulo 4652" width="14.348" height="1.156" transform="translate(231.993 537.57)" fill="#d8dffa"/>
    <path id="Trazado_47563" data-name="Trazado 47563" d="M235.292,543.985h-.645l.645.456Z" fill="#d8dffa"/>
    <path id="Trazado_47564" data-name="Trazado 47564" d="M249.4,551.24h-6.635l.3,1.156H249.4Z" fill="#d8dffa"/>
    <path id="Trazado_47565" data-name="Trazado 47565" d="M249.4,553.5h-6.04l.3,1.156h5.74Z" fill="#d8dffa"/>
    <path id="Trazado_47566" data-name="Trazado 47566" d="M249.4,555.756h-5.445l.3,1.156H249.4Z" fill="#d8dffa"/>
    <path id="Trazado_47567" data-name="Trazado 47567" d="M262.119,558.016H244.55l.3,1.156h17.264Z" fill="#d8dffa"/>
    <path id="Trazado_47568" data-name="Trazado 47568" d="M262.118,560.274H245.145l.3,1.156h16.669Z" fill="#d8dffa"/>
    <path id="Trazado_47569" data-name="Trazado 47569" d="M262.119,562.533H245.74l.3,1.156h16.074Z" fill="#d8dffa"/>
    <path id="Trazado_47570" data-name="Trazado 47570" d="M262.118,564.791H246.33l.3,1.156h15.48Z" fill="#d8dffa"/>
    <path id="Trazado_47571" data-name="Trazado 47571" d="M248.057,568.355V567.2h-1.089l.3,1.156Z" fill="#d8dffa"/>
    <path id="Trazado_47572" data-name="Trazado 47572" d="M247.563,569.457h-.2l-.208,1.156h.71Z" fill="#d8dffa"/>
    <path id="Trazado_47573" data-name="Trazado 47573" d="M248.058,570.612v-1.156h-.491l.3,1.156Z" fill="#d8dffa"/>
    <path id="Trazado_47574" data-name="Trazado 47574" d="M248.057,571.716h-1.1l-.208,1.156h1.305Z" fill="#d8dffa"/>
    <path id="Trazado_47575" data-name="Trazado 47575" d="M248.057,573.974h-1.5l-.208,1.156h1.711Z" fill="#d8dffa"/>
    <path id="Trazado_47576" data-name="Trazado 47576" d="M248.057,578.491h-2.315l-.208,1.156h2.523Z" fill="#d8dffa"/>
    <g id="Grupo_21359" data-name="Grupo 21359">
      <path id="Trazado_47577" data-name="Trazado 47577" d="M236.354,541.495h-4.361v1.9h5.413v-1.148Z" fill="#d8dffa"/>
      <rect id="Rectángulo_4653" data-name="Rectángulo 4653" width="5.418" height="1.895" transform="translate(231.993 543.954)" fill="#d8dffa"/>
      <rect id="Rectángulo_4654" data-name="Rectángulo 4654" width="8.73" height="1.895" transform="translate(231.993 548.207)" fill="#d8dffa"/>
      <rect id="Rectángulo_4655" data-name="Rectángulo 4655" width="14.594" height="1.895" transform="translate(231.993 553.394)" fill="#d8dffa"/>
      <rect id="Rectángulo_4656" data-name="Rectángulo 4656" width="14.594" height="1.895" transform="translate(231.993 557.098)" fill="#d8dffa"/>
      <rect id="Rectángulo_4657" data-name="Rectángulo 4657" width="14.594" height="1.895" transform="translate(231.993 560.802)" fill="#d8dffa"/>
      <rect id="Rectángulo_4658" data-name="Rectángulo 4658" width="4.28" height="1.895" transform="translate(242.307 564.507)" fill="#d8dffa"/>
      <rect id="Rectángulo_4659" data-name="Rectángulo 4659" width="14.594" height="1.896" transform="translate(231.993 568.211)" fill="#d8dffa"/>
      <rect id="Rectángulo_4660" data-name="Rectángulo 4660" width="6.32" height="1.895" transform="translate(231.993 575.619)" fill="#d8dffa"/>
      <rect id="Rectángulo_4661" data-name="Rectángulo 4661" width="14.594" height="1.895" transform="translate(231.993 579.568)" fill="#d8dffa"/>
    </g>
    <path id="Trazado_47578" data-name="Trazado 47578" d="M262.119,580.749H245.337l-.208,1.156h16.989Z" fill="#d8dffa"/>
    <g id="Grupo_21360" data-name="Grupo 21360">
      <circle id="Elipse_1065" data-name="Elipse 1065" cx="1.968" cy="1.968" r="1.968" transform="translate(207.866 511.465)" fill="#0f2c4f"/>
      <circle id="Elipse_1066" data-name="Elipse 1066" cx="1.968" cy="1.968" r="1.968" transform="translate(229.878 511.465)" fill="#0f2c4f"/>
    </g>
    <path id="Trazado_47579" data-name="Trazado 47579" d="M166.393,734.722a12.62,12.62,0,0,0-7.294-14.589l-30.236-12.925L117.1,734.722Z" fill="url(#linear-gradient-2)"/>
    <circle id="Elipse_1067" data-name="Elipse 1067" cx="2.948" cy="2.948" r="2.948" transform="translate(154.102 726.837)" fill="#172635"/>
    <g id="Grupo_21361" data-name="Grupo 21361">
      <path id="Trazado_47580" data-name="Trazado 47580" d="M264.4,541.458a.617.617,0,0,1-.616-.618h0l.143-32.6a2.66,2.66,0,0,1,2.657-2.645l1.456.007a.616.616,0,0,1,0,1.232h0l-1.447-.007a1.428,1.428,0,0,0-1.431,1.419l-.143,32.6a.616.616,0,0,1-.619.613Z" fill="#54bded"/>
    </g>
    <path id="Trazado_47581" data-name="Trazado 47581" d="M217.226,538.219l-1.23,1.23,2.277-.092C217.937,538.97,217.592,538.589,217.226,538.219Z" fill="#fec558"/>
    <path id="Trazado_47582" data-name="Trazado 47582" d="M222.687,536.144l-2.638.106-10.14,10.14c.148.132.3.258.442.4a10.732,10.732,0,0,1,.1,15.072l11.054,11A27.057,27.057,0,0,0,222.687,536.144Z" fill="#fec558"/>
    <path id="Trazado_47583" data-name="Trazado 47583" d="M210.452,561.863c-.034.035-.063.074-.1.109a10.735,10.735,0,0,1-15.181,0c-.142-.142-.267-.294-.4-.442l-7.006,7.006-.864,7.614A27.061,27.061,0,0,0,221.378,573c.044-.043.083-.089.126-.132Z" fill="#4877bc"/>
    <path id="Trazado_47584" data-name="Trazado 47584" d="M216.613,537.638a21.6,21.6,0,0,0-15.343-6.347l.139,11.088,5.347-3.164-2.268.091,2.268-.091,1.609-.952-1.609.952,8.794-.355,1.141-1.141C216.664,537.692,216.64,537.664,216.613,537.638Z" fill="#a4b9dd"/>
    <path id="Trazado_47585" data-name="Trazado 47585" d="M202.4,540.644l.038,3.018a10.689,10.689,0,0,1,7.478,2.729l10.14-10.14-10.98.443Z" fill="#a4b9dd"/>
    <path id="Trazado_47586" data-name="Trazado 47586" d="M201.27,531.287a21.6,21.6,0,0,0-15.276,6.315l8.755,8.715.028-.017.617-1.184-.617,1.184,6.632-3.925Z" fill="#4877bc"/>
    <path id="Trazado_47587" data-name="Trazado 47587" d="M193.58,547.489c.014.014.03-.018.03-.018Z" fill="#4877bc"/>
    <path id="Trazado_47588" data-name="Trazado 47588" d="M200.789,545.843l-.032-2.6-7.147,4.23-.017.032.991.987A9.223,9.223,0,0,1,200.789,545.843Z" fill="#4877bc"/>
    <path id="Trazado_47589" data-name="Trazado 47589" d="M195.245,546.724l-1.148-1.143-4.762,9.137-1.568,13.816,7.006-7.006a10.724,10.724,0,0,1,.4-14.739C195.2,546.766,195.222,546.747,195.245,546.724Z" fill="#4877bc"/>
    <path id="Trazado_47590" data-name="Trazado 47590" d="M189.878,555.705l1.07-2.054.122-1.077-.122,1.077,3.814-7.317c-.013-.013-1.008.576-1.008.576l.995-.589-8.755-8.715-.034.032a21.674,21.674,0,0,0,0,30.652h0c.026.027.055.051.081.077l3.651-3.651,1.256-11.065Z" fill="#4877bc"/>
    <g id="Grupo_21362" data-name="Grupo 21362">
      <rect id="Rectángulo_4662" data-name="Rectángulo 4662" width="6.855" height="14.996" transform="translate(184.045 646.269)" fill="#4877bc"/>
      <rect id="Rectángulo_4663" data-name="Rectángulo 4663" width="6.855" height="20.562" transform="translate(194.302 640.703)" fill="#fec558"/>
      <rect id="Rectángulo_4664" data-name="Rectángulo 4664" width="6.855" height="11.117" transform="translate(204.559 650.148)" fill="#a4b9dd"/>
      <rect id="Rectángulo_4665" data-name="Rectángulo 4665" width="6.855" height="39.073" transform="translate(214.817 622.192)" fill="#4877bc"/>
      <rect id="Rectángulo_4666" data-name="Rectángulo 4666" width="6.855" height="23.81" transform="translate(225.074 637.455)" fill="#fec558"/>
      <rect id="Rectángulo_4667" data-name="Rectángulo 4667" width="6.855" height="37.252" transform="translate(235.331 624.013)" fill="#a4b9dd"/>
      <rect id="Rectángulo_4668" data-name="Rectángulo 4668" width="6.855" height="48.392" transform="translate(245.588 612.873)" fill="#4877bc"/>
    </g>
    <g id="Grupo_21363" data-name="Grupo 21363" opacity="0.16">
      <path id="Trazado_47591" data-name="Trazado 47591" d="M279.506,635.692c-1.109-.421-2.337-.851-3.724-1.368l-1.972-.736L261.784,629.1l-4.742-1.77a4.775,4.775,0,0,0-4.088.364l-6.129-9.016a8.884,8.884,0,0,0-10.31-3.347l-3.656-5.8a33.458,33.458,0,0,0,7.458-43.869,33.062,33.062,0,0,0-45.61-10.292c-.067.042-.134.084-.2.127a33.469,33.469,0,0,0-10.423,46,33.037,33.037,0,0,0,43.446,11.529l4.124,6.545a8.878,8.878,0,0,0,.522,9.071l7.433,10.934-4.484,5.288a3.432,3.432,0,0,0,.766,4.5c.128.1.26.2.394.291a5.919,5.919,0,0,0,6.193.132l-.4,13.17a2.9,2.9,0,0,0,2.19,2.9,4.567,4.567,0,0,0,4.971-1.074l.108-.112a14.625,14.625,0,0,0,1.41-1.71l-.027.092,4.782,8.519a3.858,3.858,0,0,0,3.791,2,3.311,3.311,0,0,0,2.42-1.471l1.026,1.51a6.717,6.717,0,0,0,.613.763l1.28,3.925a20.749,20.749,0,0,0,2.966,5.8c.219.3.457.588.692.876h2.013a9.2,9.2,0,0,0,9.2-9.2h0Zm-53.547-28.084a27.842,27.842,0,1,1,.215-.129l-.215.129Z" fill="#224d8f"/>
    </g>
    <g id="Grupo_21367" data-name="Grupo 21367">
      <path id="Trazado_47592" data-name="Trazado 47592" d="M281.271,646.236a6.283,6.283,0,0,1-8.518-2.444l-8.047-14.522a6.266,6.266,0,0,1,10.962-6.074h0l8.047,14.522A6.285,6.285,0,0,1,281.271,646.236Z" fill="#f88b79"/>
      <path id="Trazado_47593" data-name="Trazado 47593" d="M262.811,612.033a4.783,4.783,0,0,0-5.033,1.077l-1.127,1.024a5.838,5.838,0,0,1,2.264,1.917l5.768,8.233,5.065,2.321-2.2-12.8Z" fill="#ffb29f"/>
      <path id="Trazado_47594" data-name="Trazado 47594" d="M256.495,647.75l4.877,8.689a3.673,3.673,0,0,0,4.886,1.468,3.245,3.245,0,0,0,1.394-4.372,3.187,3.187,0,0,0-.194-.328L258.7,640.23Z" fill="#f08c7a"/>
      <g id="Grupo_21364" data-name="Grupo 21364">
        <path id="Trazado_47595" data-name="Trazado 47595" d="M239.962,608.3l5.373-3.424-7.665-12.166-5.373,3.424Z" fill="#423d88"/>
        <path id="Trazado_47596" data-name="Trazado 47596" d="M235.662,596.358a33.47,33.47,0,0,0,10.423-46,33.062,33.062,0,0,0-45.61-10.292c-.067.042-.134.084-.2.127a33.469,33.469,0,0,0-10.423,46,33.062,33.062,0,0,0,45.609,10.293Zm-42.092-13.47a28.067,28.067,0,0,1,17.455-41.562,27.65,27.65,0,0,1,30.328,12.663,28.031,28.031,0,0,1-19.624,41.988A27.626,27.626,0,0,1,193.57,582.888Z" fill="#302c6f"/>
      </g>
      <path id="Trazado_47597" data-name="Trazado 47597" d="M248.306,632.555l-.462,15.1a2.9,2.9,0,0,0,2.19,2.9,4.567,4.567,0,0,0,4.971-1.074l.108-.111a14.6,14.6,0,0,0,3.973-8.267l-7.219-10.6Z" fill="#fb9e8c"/>
      <path id="Trazado_47598" data-name="Trazado 47598" d="M245.542,624.077l-4.649,5.484a3.432,3.432,0,0,0,.766,4.5q.192.155.394.291a5.941,5.941,0,0,0,6.376.037l3-1.814Z" fill="#ffb29f"/>
      <path id="Trazado_47599" data-name="Trazado 47599" d="M281.334,657.946l-3.223,2.191a6.929,6.929,0,0,1-9.6-1.83l-30.567-44.968a8.857,8.857,0,0,1,14.65-9.959l30.569,44.969A6.93,6.93,0,0,1,281.334,657.946Z" fill="#17416d"/>
      <path id="Trazado_47600" data-name="Trazado 47600" d="M314.741,669.722l-20.7-41.674c-3.012-6.08-6.112-6.63-12.469-9l-1.972-.736-5.111,10.5,1.956.9a3.953,3.953,0,0,1,2.294,3.775l-.326,6.878a1.124,1.124,0,0,1-2.044.592L264.7,624.306l-5.768-8.233a5.882,5.882,0,0,0-8.135-1.466,5.987,5.987,0,0,0-1.446,8.2L263.935,645a16.743,16.743,0,0,1,1.919,3.989l4.574,14.025a20.754,20.754,0,0,0,7.548,10.369l13.513,9.8a37.673,37.673,0,0,1,2.987,2.42l20.35-15.765Z" fill="#ffb29f"/>
      <path id="Trazado_47601" data-name="Trazado 47601" d="M314.819,669.841l-20.35,15.766a37.59,37.59,0,0,1,5.991,6.82l.225.331,20.661-13.1Z" fill="#fff"/>
      <g id="Grupo_21365" data-name="Grupo 21365">
        <path id="Trazado_47602" data-name="Trazado 47602" d="M274.5,628.807l.017-.035-.036-.016Z" fill="#fb9e8c"/>
        <path id="Trazado_47603" data-name="Trazado 47603" d="M301.121,692.428c-.1-.146-.206-.284-.3-.428l-.439.274Z" fill="#fb9e8c"/>
        <path id="Trazado_47604" data-name="Trazado 47604" d="M321.128,679.314l-.326.2.213.326Z" fill="#fb9e8c"/>
        <path id="Trazado_47605" data-name="Trazado 47605" d="M294.741,685.065a43.753,43.753,0,0,0-3.821-3.02l-3.89-2.839-7.781-5.677a23.247,23.247,0,0,1-3.6-3.018,19.974,19.974,0,0,1-2.829-3.7,20.328,20.328,0,0,1-1.914-4.258l-1.506-4.575-3.012-9.148a17.523,17.523,0,0,0-2.193-4.439l-2.655-4.018-5.337-8.018-5.346-8.012c-.436-.664-.911-1.343-1.316-1.995a5.787,5.787,0,0,1-.768-2.1,5.6,5.6,0,0,1,1.038-4.268,5.469,5.469,0,0,1,3.876-2.09,5.62,5.62,0,0,1,4.205,1.431,5.514,5.514,0,0,1,.763.852l.7.979,1.4,1.962,2.791,3.924L274.7,638.744l1.387,1.968a1.46,1.46,0,0,0,.958.767,1.248,1.248,0,0,0,1.157-.42,1.2,1.2,0,0,0,.253-.584c.029-.214.023-.4.037-.608l.053-1.2.107-2.406.107-2.406a4.3,4.3,0,0,0-.41-2.368,3.991,3.991,0,0,0-1.675-1.718c-.715-.348-1.435-.663-2.154-.995l-.016.035-.019-.052.037.016,5.062-10.474,1.97.729-1.97-.741c-.008,0-5.148,10.488-5.148,10.488l-.017.035.036.017c.725.341,1.463.668,2.178,1.021a3.888,3.888,0,0,1,1.625,1.685,4.184,4.184,0,0,1,.386,2.316l-.121,2.405-.12,2.4-.06,1.2a1.7,1.7,0,0,1-.26,1.1,1.087,1.087,0,0,1-1.007.359,1.291,1.291,0,0,1-.846-.7l-1.376-1.976L263.9,622.788l-2.734-3.964-1.369-1.982-.685-.993a6.073,6.073,0,0,0-.826-.95,6.23,6.23,0,0,0-4.641-1.65,6.149,6.149,0,0,0-4.389,2.294,6.348,6.348,0,0,0-1.248,4.819,6.621,6.621,0,0,0,.84,2.4c.434.718.871,1.36,1.306,2.044l5.231,8.088,5.24,8.082,2.633,4.032a16.3,16.3,0,0,1,2.038,4.178l2.961,9.165,1.48,4.583a21.763,21.763,0,0,0,2,4.518,20.961,20.961,0,0,0,2.989,3.947,24.6,24.6,0,0,0,3.784,3.145l7.813,5.634,3.9,2.817a42.542,42.542,0,0,1,3.748,2.928l.037.035.917-.711C294.867,685.188,294.807,685.121,294.741,685.065Z" fill="#fb9e8c"/>
        <path id="Trazado_47606" data-name="Trazado 47606" d="M321.645,679.424l-6.6-9.763-.466.361,6.218,9.5.326-.2-.113.529-.213-.325L300.82,692c.1.145.208.283.3.428l-.744-.154.439-.274a38.479,38.479,0,0,0-5.884-6.753l-.917.711a37.386,37.386,0,0,1,6.2,7.087l.3.441.447-.288,20.57-13.244.327-.211Z" fill="#fff"/>
        <path id="Trazado_47607" data-name="Trazado 47607" d="M288.758,622a11.017,11.017,0,0,1,2.973,2.486,16.557,16.557,0,0,1,2.1,3.272l6.917,14,13.716,28.068c.018.032.122.19.122.19l.466-.361-.073-.108.009.018-.018-.032c.009.013-14.064-27.854-14.064-27.854l-7-13.966a16.642,16.642,0,0,0-2.127-3.275,11.075,11.075,0,0,0-3-2.481,24.073,24.073,0,0,0-3.56-1.6l-3.669-1.337,3.661,1.357A24.1,24.1,0,0,1,288.758,622Z" fill="#fb9e8c"/>
        <path id="Trazado_47608" data-name="Trazado 47608" d="M314.987,669.572l-.009-.018C314.968,669.54,314.987,669.572,314.987,669.572Z" fill="#fb9e8c"/>
      </g>
      <g id="Grupo_21366" data-name="Grupo 21366">
        <path id="Trazado_47609" data-name="Trazado 47609" d="M258.936,618.875l-1-1.6c-.168-.265-.33-.538-.512-.788a1.907,1.907,0,0,0-.72-.567,2.055,2.055,0,0,0-1.763.041c-.519.3-1.037.694-1.555,1.036l-1.556,1.065-.778.533a2.079,2.079,0,0,0-.591.587,1.769,1.769,0,0,0-.213,1.544,1.478,1.478,0,0,0,.169.357l.256.385.527.783a13.666,13.666,0,0,0,1.05,1.5,4.872,4.872,0,0,0,1.4,1.077,4.3,4.3,0,0,0,3.466.324,3.887,3.887,0,0,0,2.33-2.66A4.619,4.619,0,0,0,258.936,618.875Zm0,0a4.875,4.875,0,0,1,.6,3.637,4.128,4.128,0,0,1-2.294,2.937,4.682,4.682,0,0,1-3.834-.124,5.224,5.224,0,0,1-1.611-1.154,5.986,5.986,0,0,1-.607-.786l-.525-.782-.515-.788-.26-.4a2.114,2.114,0,0,1-.228-.495,2.33,2.33,0,0,1,.347-2.049,2.459,2.459,0,0,1,.775-.692l.81-.483,1.62-.966c.552-.315,1.054-.66,1.645-.95a2.243,2.243,0,0,1,1.885.062,1.979,1.979,0,0,1,.723.615c.179.264.321.541.49.808Z" fill="#fb9e8c"/>
      </g>
      <path id="Trazado_47610" data-name="Trazado 47610" d="M279.579,618.29,267.553,613.8l2.2,12.8,4.846,2.221Z" fill="#ffb29f"/>
    </g>
    <path id="Trazado_47611" data-name="Trazado 47611" d="M308.664,734.722h34.681V706.373l-26.323-34.282-25.44,20.1a13.086,13.086,0,0,0-2.16,18.38l.007.008Z" fill="url(#linear-gradient-3)"/>
    <circle id="Elipse_1068" data-name="Elipse 1068" cx="4.01" cy="4.01" r="4.01" transform="translate(293.027 699.114)" fill="#172635"/>
  </g>
</svg>
