<svg xmlns="http://www.w3.org/2000/svg" xmlns:xlink="http://www.w3.org/1999/xlink" width="144.41" height="144.41" viewBox="0 0 144.41 144.41">
  <defs>
    <radialGradient id="radial-gradient" cx="0.5" cy="0.5" r="0.5" gradientUnits="objectBoundingBox">
      <stop offset="0" stop-color="#fff"/>
      <stop offset="1" stop-color="#fae7b7"/>
    </radialGradient>
  </defs>
  <g id="Grupo_26379" data-name="Grupo 26379" transform="translate(-486 -2175)">
    <g id="Elipse_1117" data-name="Elipse 1117" transform="translate(490 2179)" stroke="#fff" stroke-width="4" fill="url(#radial-gradient)">
      <circle cx="68.205" cy="68.205" r="68.205" stroke="none"/>
      <circle cx="68.205" cy="68.205" r="70.205" fill="none"/>
    </g>
    <g id="Grupo_25811" data-name="Grupo 25811" transform="translate(160.999 24.932)">
      <path id="Trazado_47090" data-name="Trazado 47090" d="M3398.483,1221.7a13.3,13.3,0,0,1-2.915-2.589,3.236,3.236,0,0,1-.281-3.654c1-1.386,3.115-1.218,4.734-.666s3.361,1.349,4.963.749a9.467,9.467,0,0,0,2.307-1.621,3.075,3.075,0,0,1,2.609-.793c1.4.4,1.971,2.324,3.394,2.644,1.824.41,3-2.03,4.8-2.552,1.857-.541,3.627,1.1,5.546,1.34,1.514.187,2.986-.515,4.5-.7s3.419.542,3.52,2.064a2.428,2.428,0,0,1-1.129,2.045,6.978,6.978,0,0,1-2.257.9,18.032,18.032,0,0,0-4.954,1.823,5.724,5.724,0,0,0-2.885,4.211c-.066.876.144,1.749.16,2.627a2.751,2.751,0,0,1-.935,2.35,3.53,3.53,0,0,1-2.34.353l-6.905-.557c-1.548-.125-3.928.148-5.338-.59-1.23-.644-1.877-2.442-2.7-3.5A43.054,43.054,0,0,0,3398.483,1221.7Z" transform="translate(-3020.166 964.105)" fill="#707987"/>
      <path id="Trazado_47091" data-name="Trazado 47091" d="M3369.427,1327.573c0,18.678-16.488,33.82-36.826,33.82s-36.826-15.142-36.826-33.82c0-16.854,15.025-36.695,31.27-42.824,1.758-.663,5.37.283,5.37.283s3.5-.88,5.3-.164C3353.5,1291.159,3369.427,1310.8,3369.427,1327.573Z" transform="translate(-2940.436 906.589)" fill="#5b6375"/>
      <path id="Trazado_47092" data-name="Trazado 47092" d="M3345.572,1306.5c0,18.679-16.488,33.82-36.826,33.82a39.851,39.851,0,0,1-10.855-1.493,31.294,31.294,0,0,1-2.117-11.328c0-16.854,15.025-36.695,31.27-42.824,1.758-.663,5.37.283,5.37.283s3.5-.88,5.3-.163q.31.123.62.254C3342.761,1291.9,3345.572,1299.452,3345.572,1306.5Z" transform="translate(-2940.436 906.652)" fill="#707987"/>
      <path id="Trazado_47093" data-name="Trazado 47093" d="M3409.2,1356.871c0,18.679-16.488,33.82-36.826,33.82a38.27,38.27,0,0,1-27.181-11,38.72,38.72,0,0,0,23.318,7.642c20.338,0,36.826-15.142,36.826-33.82,0-11.192-7.1-23.666-16.512-32.6C3400.1,1329.867,3409.2,1344.192,3409.2,1356.871Z" transform="translate(-2980.213 877.291)" fill="#4d5666"/>
      <path id="Trazado_47094" data-name="Trazado 47094" d="M3423.231,1313.589c1.3-4.161,2.882-7.368,3.534-7.164s.128,3.742-1.171,7.9-2.882,7.368-3.534,7.164S3421.931,1317.75,3423.231,1313.589Z" transform="translate(-3041.849 888.961)" fill="#221f1f" opacity="0.08"/>
      <path id="Trazado_47095" data-name="Trazado 47095" d="M3406.524,1304.868c1.712-3,3.482-5.223,3.954-4.954s-.535,2.922-2.247,5.927-3.482,5.223-3.953,4.954S3404.812,1307.873,3406.524,1304.868Z" transform="translate(-3027.67 894.211)" fill="#221f1f" opacity="0.08"/>
      <path id="Trazado_47096" data-name="Trazado 47096" d="M3442.37,1280.142a1.442,1.442,0,0,0-.847-1.349,1.579,1.579,0,0,0,.306-.949c0-1.6-1.65-1.669-2.824-1.846q-2.537-.384-5.1-.587a72.7,72.7,0,0,0-10.256-.09q-.666.041-1.331.095c-1.435.115-4.233.416-4.233,2.429a1.592,1.592,0,0,0,.258.88,1.469,1.469,0,0,0,.079,2.848c1.257.414,5.9.721,11.438.721,5.734,0,10.51-.329,11.56-.765A1.428,1.428,0,0,0,3442.37,1280.142Z" transform="translate(-3038.225 914.099)" fill="#39424f"/>
      <path id="Trazado_47097" data-name="Trazado 47097" d="M3445.908,1426.331a23.684,23.684,0,0,1-8.412-1.954v-6.618a28.69,28.69,0,0,0,5.024,1.964,17.366,17.366,0,0,0,4.764.787,5.661,5.661,0,0,0,2.482-.409,1.418,1.418,0,0,0,.788-1.365,1.389,1.389,0,0,0-.568-1.116,8.814,8.814,0,0,0-1.894-1.037q-1.326-.578-3.578-1.4a16.189,16.189,0,0,1-4.087-2.1,7.339,7.339,0,0,1-2.263-2.611,8.151,8.151,0,0,1-.708-3.6,6.483,6.483,0,0,1,2.113-5.143,11.21,11.21,0,0,1,6.339-2.292v-4.423h4.126v4.384a23.4,23.4,0,0,1,7.994,1.953l-2.372,5.681a18.6,18.6,0,0,0-7.515-1.874,4.656,4.656,0,0,0-2.243.389,1.256,1.256,0,0,0-.648,1.146,1.408,1.408,0,0,0,.468,1.087,6.573,6.573,0,0,0,1.625.957q1.156.528,3.21,1.226a15.518,15.518,0,0,1,5.98,3.359,6.71,6.71,0,0,1,1.814,4.854,7.305,7.305,0,0,1-2.123,5.442,10.334,10.334,0,0,1-6.19,2.591v5.334h-4.126Z" transform="translate(-3054.467 817.651)" fill="#fff"/>
      <path id="Trazado_47098" data-name="Trazado 47098" d="M3588.531,1459.236l-1.111-.012s-.01-.057-.031-.158a7.76,7.76,0,0,0-2.981-4.628,16.056,16.056,0,0,0-5.61-2.335,20.958,20.958,0,0,1,.546,2.362l-.62.267a6.282,6.282,0,0,1-2.731.508l-15.706-.615a2.251,2.251,0,0,0-1.4.42,1.64,1.64,0,0,0-.732,1.508,2.176,2.176,0,0,0,.655,1.543c.562.669,2.39.515,2.8.532l12.908.463-13.6-.488a2.074,2.074,0,0,0-1.705.889,1.431,1.431,0,0,0-.358.89,2.88,2.88,0,0,0,.173,1.066c.041.115.077.214.091.246.448,1.069,1.292,1.2,2.451,1.229l11.926.276-11.574-.28a1.777,1.777,0,0,0-1.668,1.036,1.663,1.663,0,0,0-.146.789,2.011,2.011,0,0,0,1.706,2.055,2.47,2.47,0,0,0,.541.073l11.693.34-9.34-.324a1.627,1.627,0,0,0-1.372.69,1.718,1.718,0,0,0-.35,1.573,1.985,1.985,0,0,0,2.369,1.71h14.908l2.5.12s.944.087,2.112-1.369c0,0,.538-.58.562-.867l3.1,0Z" transform="translate(-3151.604 771.706)" fill="#fff"/>
      <rect id="Rectángulo_4625" data-name="Rectángulo 4625" width="4.53" height="15.389" rx="2.265" transform="translate(436.711 2227.788)" fill="#efefef"/>
      <path id="Trazado_47099" data-name="Trazado 47099" d="M3754.564,1468.682a72.173,72.173,0,0,1-2.486,16.88l-5.431,0-15.18-.01c-.345,0-.626-.461-.626-1.031l0-7.408,0-7.408c0-.57.281-1.032.626-1.032Z" transform="translate(-3290.594 758.372)" fill="#5b6375"/>
      <path id="Trazado_47100" data-name="Trazado 47100" d="M3753.9,1511.932a71.281,71.281,0,0,1-1.754,8.439l-5.431,0-15.181-.008c-.336,0-.594-.449-.594-1v-.029l-.013-7.408Z" transform="translate(-3290.666 723.563)" fill="#4d5666"/>
      <path id="Trazado_47101" data-name="Trazado 47101" d="M3231.963,1352.941c-16.418,12.317-15.4,39.445-4.28,50.557a3.1,3.1,0,0,1,.282-.581,7.348,7.348,0,0,1,1.084-1.109c1.467-1.2,2.511-.7,3.112-.1a2.937,2.937,0,0,1,.736,1.324c.8,2.973,2.19,9.095.607,10.309-1.926,1.478-7.072-.2-10.08-1.048-1.431-.4-2.48-1.276-2.084-2.779.22-.832,1.261-1.448,2.1-2.339-1.248-2.392-2.362-3.326-3.847-6.1-6.037-10.97-5.313-21.478-.937-32.725a28.294,28.294,0,0,1,8.639-12.111C3228.791,1355.068,3230.4,1354.038,3231.963,1352.941Z" transform="translate(-2875.602 851.515)" fill="#b93737"/>
    </g>
  </g>
</svg>
