<svg xmlns="http://www.w3.org/2000/svg" width="211" height="211" viewBox="0 0 211 211">
  <g id="Group_17974" data-name="Group 17974" transform="translate(-1095 -1107)">
    <circle id="Ellipse_994" data-name="Ellipse 994" cx="105.5" cy="105.5" r="105.5" transform="translate(1095 1107)" fill="#fff"/>
    <g id="Group_17907" data-name="Group 17907" transform="translate(315.256 1013.986)">
      <path id="Path_46411" data-name="Path 46411" d="M876.291,254.841a39.274,39.274,0,1,1-39.274-39.274A39.274,39.274,0,0,1,876.291,254.841Z" transform="translate(0 -34.486)" fill="#cae1fc"/>
      <path id="Path_46412" data-name="Path 46412" d="M972.832,202.612a62.044,62.044,0,1,1-62.044-62.045A62.044,62.044,0,0,1,972.832,202.612Z" transform="translate(-18.288 -7.592)" fill="#cbcfff" opacity="0.6"/>
      <path id="Path_46413" data-name="Path 46413" d="M1012.073,349.679c0,1.3-10.226,2.363-22.843,2.363s-22.843-1.058-22.843-2.363,10.227-2.364,22.843-2.364S1012.073,348.374,1012.073,349.679Z" transform="translate(-60.472 -81.728)" fill="#a8bcff" opacity="0.3"/>
      <ellipse id="Ellipse_988" data-name="Ellipse 988" cx="12.481" cy="1.388" rx="12.481" ry="1.388" transform="translate(930.387 275.542)" fill="#daa6ac" opacity="0.3"/>
      <path id="Path_46414" data-name="Path 46414" d="M850.915,139.894a6.84,6.84,0,1,1-6.84-6.84A6.84,6.84,0,0,1,850.915,139.894Z" transform="translate(-14.16 -4.898)" fill="#7ab6f6"/>
      <path id="Path_46415" data-name="Path 46415" d="M943.378,170.186a15,15,0,1,1-15-15A15,15,0,0,1,943.378,170.186Z" transform="translate(-41.465 -12.834)" fill="#bfd4f8"/>
      <path id="Path_46416" data-name="Path 46416" d="M906.624,131.46a12.066,12.066,0,1,1-12.066-12.066A12.066,12.066,0,0,1,906.624,131.46Z" transform="translate(-30.389 0)" fill="#93c8f6"/>
      <circle id="Ellipse_989" data-name="Ellipse 989" cx="5.131" cy="5.131" r="5.131" transform="translate(867.823 172.379)" fill="#fff" opacity="0.3"/>
      <circle id="Ellipse_990" data-name="Ellipse 990" cx="3.849" cy="3.849" r="3.849" transform="translate(842.166 190.98)" fill="#fff" opacity="0.6"/>
      <circle id="Ellipse_991" data-name="Ellipse 991" cx="8.178" cy="8.178" r="8.178" transform="translate(825.008 207.817)" fill="#fff" opacity="0.3"/>
      <path id="Path_46417" data-name="Path 46417" d="M1066.252,261.387c0,1.765-.6,2.234-3.172,3.2s-3.977,1.443-3.977,1.443a3.184,3.184,0,0,1-3.172-3.2V126.669a3.185,3.185,0,0,1,3.172-3.2,9.544,9.544,0,0,1,3.378.492c2.171.631,3.458,1.752,3.458,3.517Z" transform="translate(-92.581 -1.458)" fill="#b0bcd8"/>
      <path id="Path_46418" data-name="Path 46418" d="M1037.459,263.3a2.683,2.683,0,0,1-2.495,2.836l-41.087-14.218a2.683,2.683,0,0,1-2.5-2.836L990.1,137.371a2.681,2.681,0,0,1,2.5-2.834l42.37-11.076a2.682,2.682,0,0,1,2.495,2.835Z" transform="translate(-68.975 -1.458)" fill="#b0bcd8"/>
      <path id="Path_46419" data-name="Path 46419" d="M1065.752,257.887c0,1.765-.6,2.234-3.172,3.2s-3.977,1.443-3.977,1.443a3.184,3.184,0,0,1-3.172-3.2V123.169a3.185,3.185,0,0,1,3.172-3.2,9.545,9.545,0,0,1,3.379.492c2.17.63,3.458,1.752,3.458,3.517Z" transform="translate(-92.402 -0.202)" fill="#0b1238"/>
      <path id="Path_46420" data-name="Path 46420" d="M1036.959,259.8a2.683,2.683,0,0,1-2.5,2.836l-41.086-14.218a2.683,2.683,0,0,1-2.5-2.836L989.6,133.871a2.681,2.681,0,0,1,2.5-2.834l42.369-11.076a2.683,2.683,0,0,1,2.5,2.835Z" transform="translate(-68.796 -0.203)" fill="#2e3054"/>
      <path id="Path_46421" data-name="Path 46421" d="M989.6,133.945l.938,81.751,43.532-95.018c-.033-.174-.077-.338-.111-.511l-41.864,10.944A2.681,2.681,0,0,0,989.6,133.945Z" transform="translate(-68.796 -0.277)" fill="#fff" opacity="0.2"/>
      <path id="Path_46422" data-name="Path 46422" d="M844.5,361.558c0,.668-8.659,1.208-19.339,1.208s-19.34-.54-19.34-1.208,8.658-1.206,19.34-1.206S844.5,360.891,844.5,361.558Z" transform="translate(-2.896 -86.403)" fill="#a8bcff" opacity="0.3"/>
      <path id="Path_46423" data-name="Path 46423" d="M1034.129,248.542a2.163,2.163,0,0,1-2.2,2.124l-31.884-7.8a2.162,2.162,0,0,1-2.2-2.124l-1.784-86.873a2.163,2.163,0,0,1,2.2-2.124l33.668-8.028a2.164,2.164,0,0,1,2.2,2.124Z" transform="translate(-71.113 -8.72)" fill="#fff"/>
      <path id="Path_46424" data-name="Path 46424" d="M1034.129,248.542a2.163,2.163,0,0,1-2.2,2.124l-31.884-7.8a2.162,2.162,0,0,1-2.2-2.124l-1.784-86.873a2.163,2.163,0,0,1,2.2-2.124l33.668-8.028a2.164,2.164,0,0,1,2.2,2.124Z" transform="translate(-71.113 -8.72)" fill="#a8bcff" opacity="0.3"/>
      <g id="Group_17863" data-name="Group 17863" transform="translate(835.729 168.001)">
        <path id="Path_46425" data-name="Path 46425" d="M946.494,248.854c2.174-1.2,4.027-5.488,6.8-7.21,0,0-.79-.738-2.57.014s-2.357,2.012-3.1,2.8Z" transform="translate(-889.068 -211.721)" fill="#e99a7e"/>
        <path id="Path_46426" data-name="Path 46426" d="M936.055,250.07c2.521-.657,5.2-4.907,8.442-5.959,0,0-.722-1.091-2.748-.816s-2.847,1.514-3.765,2.171Z" transform="translate(-885.325 -212.413)" fill="#e99a7e"/>
        <path id="Path_46427" data-name="Path 46427" d="M928.528,248.346c2.452-.62,5.015-4.809,8.165-5.813a2.711,2.711,0,0,0-2.693-.845c-1.976.247-2.761,1.468-3.649,2.108Z" transform="translate(-882.626 -211.84)" fill="#c6966d"/>
        <path id="Path_46428" data-name="Path 46428" d="M922.047,245.436c2.452-.62,5.015-4.808,8.165-5.813a2.709,2.709,0,0,0-2.693-.844c-1.974.247-2.762,1.466-3.65,2.108Z" transform="translate(-880.302 -210.797)" fill="#c6966d"/>
        <g id="Group_17855" data-name="Group 17855" transform="translate(22.319 27.548)">
          <path id="Path_46429" data-name="Path 46429" d="M976.148,260.934l7.218,60.191-7.606,4.908Z" transform="translate(-921.882 -246.303)" fill="#2e3054"/>
          <path id="Path_46430" data-name="Path 46430" d="M945.64,326.034l-52.854,1.436-1.026-64.254,54.267-2.282Z" transform="translate(-891.761 -246.303)" fill="#7ab6f6"/>
          <path id="Path_46431" data-name="Path 46431" d="M956.113,273.853a1.363,1.363,0,1,1-1.391-1.2A1.3,1.3,0,0,1,956.113,273.853Z" transform="translate(-913.863 -250.504)" fill="#e4edf1"/>
          <path id="Path_46432" data-name="Path 46432" d="M910.3,275.308a1.333,1.333,0,1,1-1.363-1.2A1.288,1.288,0,0,1,910.3,275.308Z" transform="translate(-897.456 -251.026)" fill="#e4edf1"/>
          <path id="Path_46433" data-name="Path 46433" d="M975.761,359.1l3.324-5.946,4.282,1.038Z" transform="translate(-921.882 -279.372)" fill="#0b1238"/>
          <path id="Path_46434" data-name="Path 46434" d="M939.36,261.432c0-.061,0-.144-.006-.246-.071-3-1.09-23.035-15.337-23.063a11.581,11.581,0,0,0-7.576,2.616c-6.865,5.637-7.285,18.493-7.3,20.987,0,.083-.041.309-.04.359a.35.35,0,0,0,.389.3.362.362,0,0,0,.366-.27h.04c0-.01,0-.1,0-.255.014-2.005.372-15.184,7.083-20.692a10.8,10.8,0,0,1,7.03-2.43c13.507.026,14.521,20.042,14.6,22.546,0,.059,0,.215,0,.227a.371.371,0,0,0,.384.262.379.379,0,0,0,.361-.241S939.36,261.44,939.36,261.432Z" transform="translate(-897.978 -238.123)" fill="#0b1238"/>
        </g>
        <g id="Group_17856" data-name="Group 17856" transform="translate(0 27.806)">
          <path id="Path_46435" data-name="Path 46435" d="M958.122,276.619l-14.369,58.9-8.845,1.926Z" transform="translate(-884.913 -252.185)" fill="#2e3054"/>
          <path id="Path_46436" data-name="Path 46436" d="M906.958,327.987l-49.994-17.209,21.594-60.524,51.615,16.911Z" transform="translate(-856.964 -242.731)" fill="#2a2b7c"/>
          <path id="Path_46437" data-name="Path 46437" d="M947.316,281.822a1.362,1.362,0,1,1-.88-1.613A1.3,1.3,0,0,1,947.316,281.822Z" transform="translate(-888.42 -253.443)" fill="#e4edf1"/>
          <path id="Path_46438" data-name="Path 46438" d="M903.909,267.1a1.333,1.333,0,1,1-.855-1.6A1.288,1.288,0,0,1,903.909,267.1Z" transform="translate(-872.874 -248.169)" fill="#e4edf1"/>
          <path id="Path_46439" data-name="Path 46439" d="M934.907,368.983l5.2-4.4,3.646,2.475Z" transform="translate(-884.913 -283.727)" fill="#0b1238"/>
          <path id="Path_46440" data-name="Path 46440" d="M931.564,266.563c.02-.058.047-.137.081-.233.987-2.834,7.066-21.952-6.266-26.979a11.578,11.578,0,0,0-8.013-.21c-8.406,2.869-13.313,14.759-14.2,17.087-.028.079-.147.275-.164.323a.351.351,0,0,0,.26.416.361.361,0,0,0,.438-.124l.037.013c0-.01.033-.093.089-.239.718-1.872,5.678-14.087,13.9-16.889a10.8,10.8,0,0,1,7.435.192c12.639,4.765,6.562,23.865,5.753,26.235-.021.056-.073.2-.076.216a.371.371,0,0,0,.267.379.379.379,0,0,0,.423-.1S931.561,266.57,931.564,266.563Z" transform="translate(-873.466 -238.525)" fill="#0b1238"/>
        </g>
        <g id="Group_17857" data-name="Group 17857" transform="translate(26.285 24.007)">
          <path id="Path_46441" data-name="Path 46441" d="M981.626,250.51,995.5,309.525l-7.013,5.724Z" transform="translate(-927.951 -239.024)" fill="#eab2b4"/>
          <path id="Path_46442" data-name="Path 46442" d="M958.478,315.249l-52.366,7.307-8.169-63.74,53.676-8.306Z" transform="translate(-897.943 -239.024)" fill="#fa7071"/>
          <path id="Path_46443" data-name="Path 46443" d="M963.01,265.513a1.362,1.362,0,1,1-1.516-1.04A1.3,1.3,0,0,1,963.01,265.513Z" transform="translate(-920.308 -244.025)" fill="#e4edf1"/>
          <path id="Path_46444" data-name="Path 46444" d="M917.646,272.058a1.333,1.333,0,1,1-1.489-1.042A1.288,1.288,0,0,1,917.646,272.058Z" transform="translate(-904.06 -246.372)" fill="#e4edf1"/>
          <path id="Path_46445" data-name="Path 46445" d="M992.319,347.931l2.641-6.279,4.372.555Z" transform="translate(-931.785 -271.705)" fill="#eab2b4" style="mix-blend-mode: multiply;isolation: isolate"/>
          <path id="Path_46446" data-name="Path 46446" d="M967.659,263.835l-3.489,3.627.1,3.713,9.381,9.029,3.949-4.1-.749-7.036-5.478-5.271Zm.207,2.89a.737.737,0,1,1-.02-1.041A.736.736,0,0,1,967.866,266.725Z" transform="translate(-921.691 -243.787)" fill="#c3cfce" style="mix-blend-mode: multiply;isolation: isolate"/>
          <path id="Path_46447" data-name="Path 46447" d="M967.868,262.96l-3.489,3.627.1,3.713,9.381,9.029,7.1-7.381-9.383-9.029Zm-.21,3.29a.454.454,0,1,1-.012-.641A.453.453,0,0,1,967.658,266.25Z" transform="translate(-921.766 -243.473)" fill="#fff"/>
          <path id="Path_46448" data-name="Path 46448" d="M967.784,266.45a.935.935,0,1,0,1.323-.026A.937.937,0,0,0,967.784,266.45Zm1,.963a.454.454,0,1,1-.012-.641A.453.453,0,0,1,968.786,267.413Z" transform="translate(-922.894 -244.636)" fill="#3d3942"/>
          <path id="Path_46449" data-name="Path 46449" d="M960.163,257.92l-.166-.08-.073.174c-.343.806.721,2.483,1.2,3.167a13.012,13.012,0,0,0,2.449,2.762l.267-.348a11.644,11.644,0,0,1-2.425-2.648,5.692,5.692,0,0,1-1.191-2.562c1.047.548,5.768,3.156,5.3,5.4a.916.916,0,0,1-.239.45c.011.065.021.05.08.14s.137.154.165.133a.99.99,0,0,0,.353-.627C966.469,261.057,960.419,258.047,960.163,257.92Z" transform="translate(-920.144 -241.652)" fill="#2e3054"/>
          <path id="Path_46450" data-name="Path 46450" d="M946.272,254.147c-.008-.061-.02-.142-.033-.244-.4-2.973-3.646-22.77-17.808-21.213a11.585,11.585,0,0,0-7.238,3.442C915,242.5,916.01,255.32,916.27,257.8c.01.083-.006.311,0,.362a.352.352,0,0,0,.421.253.362.362,0,0,0,.334-.309l.04-.005c0-.01-.013-.1-.03-.253-.208-1.994-1.32-15.13,4.738-21.352a10.8,10.8,0,0,1,6.715-3.2c13.427-1.478,16.662,18.3,17.014,20.782.007.059.027.213.03.226a.368.368,0,0,0,.41.217.376.376,0,0,0,.332-.279S946.273,254.154,946.272,254.147Z" transform="translate(-904.435 -232.602)" fill="#0b1238"/>
          <path id="Path_46451" data-name="Path 46451" d="M961.724,261.745c-.258-.372-.776-1.354-.955-1.682-.013.387.064.709-.041.773a12.183,12.183,0,0,0,.7,1.142c.232.335.511.7.816,1.07a1.341,1.341,0,0,0,.264-.269C962.243,262.455,961.978,262.109,961.724,261.745Z" transform="translate(-920.457 -242.449)" fill="#2e3054"/>
        </g>
        <path id="Path_46452" data-name="Path 46452" d="M992.65,195.174l-54.49,8.059c-4.258,1.192-9.048,8.519-10.061,10.461l-8.193,12.2s-1.652,2.817.548,3.8c1.622.726,2.856-2.269,4.108-3.888s4.08-6.315,4.08-6.315-3.2,6.591-4,8.1-1.363,3.2.09,3.907c.943.566,2.144-.443,3.275-1.945s5.383-9.167,5.383-9.167-3.266,6.675-3.7,8.169-1.189,3.2-.088,4.041,2.875-1.379,3.5-2.428,4.7-8.07,4.7-8.07-1.571,4.754-2.2,6.488-.381,3.781.7,3.874a2.024,2.024,0,0,0,2.069-1.309c1.641-3.639,1.241-4.013,4.28-12.7.647-1.848,1.323-6.336,4.813-6.369,7.521-.874,37.07,1.577,44.553.935v-.035a.9.9,0,0,0,.212.035c1.536,0,2.78-4.02,2.78-8.98C995.013,199.541,993.987,195.826,992.65,195.174Z" transform="translate(-879.32 -195.174)" fill="#f5b29c"/>
        <g id="Group_17861" data-name="Group 17861" transform="translate(42.003 24.653)">
          <g id="Group_17860" data-name="Group 17860">
            <g id="Group_17858" data-name="Group 17858" transform="translate(6.897)">
              <path id="Path_46453" data-name="Path 46453" d="M933.463,233.61c-.068.142-.156.324-.262.538l.313-.538Z" transform="translate(-933.201 -233.61)" fill="#e99a7e"/>
            </g>
            <g id="Group_17859" data-name="Group 17859" transform="translate(0 0.004)">
              <path id="Path_46454" data-name="Path 46454" d="M927.711,235.365c-.808,1.437-3.919,6.151-5.262,8.173,1.214-.394,2.739-2.257,3.684-3.632,1.227-1.784,2.766-5.192,3.433-6.29C929.311,233.645,928.553,233.864,927.711,235.365Z" transform="translate(-922.449 -233.616)" fill="#e99a7e"/>
            </g>
          </g>
        </g>
        <path id="Path_46455" data-name="Path 46455" d="M934.35,237.206c-.871,1.548-3.614,7.194-5.688,8.839a3.492,3.492,0,0,0,2.795-1.679,31.712,31.712,0,0,0,2.028-3.239l2.238-4.526c.3-.538.559-1,.736-1.317C936.309,235.283,935.389,235.355,934.35,237.206Z" transform="translate(-882.674 -209.557)" fill="#e99a7e"/>
        <path id="Path_46456" data-name="Path 46456" d="M938.712,245.837l4.923-8.412s-1.019-.112-2.168,1.911c-.845,1.493-3.51,7.581-5.579,8.578C936.811,248.13,938.018,246.822,938.712,245.837Z" transform="translate(-885.265 -210.324)" fill="#e99a7e"/>
        <path id="Path_46457" data-name="Path 46457" d="M930.036,237.107c1.609-3.16,1.074-3.463.911-3.489-.66,1.355-3.494,6.394-4.181,7.7-.655,1.243-.809,2.679-.147,3.518C926.5,243.592,928.357,240.4,930.036,237.107Z" transform="translate(-881.788 -208.959)" fill="#fce0dc"/>
        <path id="Path_46458" data-name="Path 46458" d="M934.888,246.931c-.052-1.35,1.117-4.423,2.522-7.755,1.449-3.432,1.225-3.772,1.09-3.772a50,50,0,0,0-3.636,7.269C934.443,244.113,933.952,246.061,934.888,246.931Z" transform="translate(-884.714 -209.599)" fill="#fce0dc"/>
        <g id="Group_17862" data-name="Group 17862" transform="translate(55.939 27.163)">
          <path id="Path_46459" data-name="Path 46459" d="M947.915,237.526l-.011.033c.008-.012.013-.023.02-.035Z" transform="translate(-945.512 -237.523)" fill="#fce0dc"/>
          <path id="Path_46460" data-name="Path 46460" d="M944.689,247.4c-.219-1.177.2-3.444,1.2-5.993,1.372-3.5.91-3.842.755-3.879-.323.973-1.578,4.749-2.128,6.254C944.005,245.181,944.073,246.785,944.689,247.4Z" transform="translate(-944.175 -237.524)" fill="#fce0dc"/>
        </g>
      </g>
      <path id="Path_46461" data-name="Path 46461" d="M951.512,301.589a13.256,13.256,0,1,1-13.256-13.256A13.256,13.256,0,0,1,951.512,301.589Z" transform="translate(-45.632 -60.579)" fill="#eab2b4"/>
      <g id="Group_17864" data-name="Group 17864" transform="translate(906.901 213.816)">
        <path id="Path_46462" data-name="Path 46462" d="M968.109,266.8a.659.659,0,1,0,.932-.017A.662.662,0,0,0,968.109,266.8Zm.806.97a.454.454,0,1,1-.013-.641A.454.454,0,0,1,968.916,267.774Z" transform="translate(-967.925 -266.603)" fill="#c3cfce" style="mix-blend-mode: multiply;isolation: isolate"/>
      </g>
      <path id="Path_46463" data-name="Path 46463" d="M830,335.462c-1.028-10.274-3.018-21.013-1.961-31.431.289-2.845,2.712-15.564,7.3-12.636,3.682,2.352,1.258,10.95,1.231,14.524a108.793,108.793,0,0,1-4.6,28.885Z" transform="translate(-10.756 -61.521)" fill="#2a2b7c"/>
      <path id="Path_46464" data-name="Path 46464" d="M830,335.462c-1.028-10.274-3.018-21.013-1.961-31.431.289-2.845,2.712-15.564,7.3-12.636,3.682,2.352,1.258,10.95,1.231,14.524a108.793,108.793,0,0,1-4.6,28.885Z" transform="translate(-10.756 -61.521)" fill="#fff" opacity="0.3"/>
      <g id="Group_17866" data-name="Group 17866" transform="translate(820.302 251.568)">
        <g id="Group_17865" data-name="Group 17865">
          <path id="Path_46465" data-name="Path 46465" d="M832.913,349.7l.057-.435a62.567,62.567,0,0,1,2.131-9.022c.365-1.267.742-2.576,1.07-3.836.109-.426.228-1.091.368-1.86.649-3.618,1.634-9.085,4.513-9.085a2.714,2.714,0,0,1,1.2.3c4.051,1.994,1.883,9.674-.077,14.695a3.617,3.617,0,0,1,1.679-.468,2.008,2.008,0,0,1,1.78.956,3.61,3.61,0,0,1-.31,3.508c-1.093,2.033-3.32,3.074-5.283,3.991l-.455.2Zm8.138-23.582c-2.329,0-3.33,5.558-3.868,8.545-.141.783-.262,1.459-.379,1.909-.328,1.268-.706,2.583-1.072,3.854a65.779,65.779,0,0,0-2.053,8.488l5.755-.908.323-.152c1.963-.917,3.993-1.866,4.983-3.707a3.044,3.044,0,0,0,.326-2.86,1.351,1.351,0,0,0-1.217-.637,3.588,3.588,0,0,0-2.169.915l-.98.769.474-1.152c1.563-3.8,4.771-12.864.783-14.827A2.068,2.068,0,0,0,841.051,326.116Z" transform="translate(-832.913 -325.46)" fill="#2a2b7c"/>
        </g>
      </g>
      <path id="Path_46466" data-name="Path 46466" d="M823.711,345.629c1.44-6.625-1.835-17.359-4.45-23.728-.855-2.081-5.5-8.972-8.431-7.557-2.792,1.348,1.078,8.691,2.145,10.4a5.21,5.21,0,0,0-3.945-1.82c-2.873.047-2.258.6-1.971,2.952.443,3.632,3.195,5.652,5.715,7.8-1.878-.7-4.858-.58-4.757,2.155S823.711,345.629,823.711,345.629Z" transform="translate(-3.247 -69.838)" fill="#2a2b7c"/>
      <rect id="Rectangle_4539" data-name="Rectangle 4539" width="47.465" height="28.65" rx="5" transform="translate(811.592 149.93)" fill="#7ab6f6"/>
      <rect id="Rectangle_4540" data-name="Rectangle 4540" width="37.523" height="3.287" transform="translate(815.227 165.657)" fill="#cae1fc"/>
      <rect id="Rectangle_4541" data-name="Rectangle 4541" width="25.015" height="1.438" transform="translate(827.734 171.553)" fill="#cae1fc"/>
      <rect id="Rectangle_4542" data-name="Rectangle 4542" width="8.018" height="1.438" transform="translate(815.227 171.553)" fill="#cae1fc"/>
      <rect id="Rectangle_4543" data-name="Rectangle 4543" width="8.338" height="6.735" transform="translate(816.189 156.183)" fill="#cae1fc"/>
      <circle id="Ellipse_992" data-name="Ellipse 992" cx="4.009" cy="4.009" r="4.009" transform="translate(841.845 154.419)" fill="#fa7071"/>
      <circle id="Ellipse_993" data-name="Ellipse 993" cx="4.009" cy="4.009" r="4.009" transform="translate(847.297 154.419)" fill="#fff"/>
      <g id="Group_17884" data-name="Group 17884" transform="translate(877.324 148.657)">
        <g id="Group_17874" data-name="Group 17874">
          <g id="Group_17867" data-name="Group 17867">
            <path id="Path_46467" data-name="Path 46467" d="M930.683,182.753a8.869,8.869,0,1,1,6.268-15.214,8.6,8.6,0,0,1,2.6,6.2.323.323,0,0,1-.646,0,8.068,8.068,0,0,0-8.224-8.082,8.224,8.224,0,1,0,3.827,15.506.322.322,0,1,1,.3.571A8.888,8.888,0,0,1,930.683,182.753Z" transform="translate(-921.813 -165.016)" fill="#fff"/>
          </g>
          <g id="Group_17868" data-name="Group 17868" transform="translate(4.199 0.053)">
            <path id="Path_46468" data-name="Path 46468" d="M933.029,182.729c-2.617,0-4.669-3.872-4.669-8.815s2.052-8.815,4.669-8.815,4.671,3.809,4.671,8.673a.323.323,0,1,1-.645,0c0-4.426-1.806-8.027-4.026-8.027-2.182,0-4.024,3.741-4.024,8.17s1.843,8.17,4.024,8.17a2.168,2.168,0,0,0,1.772-.865.323.323,0,1,1,.482.43A2.813,2.813,0,0,1,933.029,182.729Z" transform="translate(-928.36 -165.099)" fill="#fff"/>
          </g>
          <g id="Group_17870" data-name="Group 17870" transform="translate(0.812 5.053)">
            <g id="Group_17869" data-name="Group 17869">
              <path id="Path_46469" data-name="Path 46469" d="M938.871,173.539H923.4a.322.322,0,1,1,0-.645h15.47a.322.322,0,1,1,0,.645Z" transform="translate(-923.079 -172.894)" fill="#fff"/>
            </g>
          </g>
          <g id="Group_17872" data-name="Group 17872" transform="translate(0.797 12.039)">
            <g id="Group_17871" data-name="Group 17871">
              <path id="Path_46470" data-name="Path 46470" d="M932.992,184.431h-9.615a.322.322,0,0,1,0-.645h9.615a.322.322,0,0,1,0,.645Z" transform="translate(-923.055 -183.786)" fill="#fff"/>
            </g>
          </g>
          <g id="Group_17873" data-name="Group 17873" transform="translate(8.547 0.133)">
            <path id="Path_46471" data-name="Path 46471" d="M935.461,182.693a.322.322,0,0,1-.323-.322V165.547a.323.323,0,1,1,.645,0v16.824A.322.322,0,0,1,935.461,182.693Z" transform="translate(-935.138 -165.224)" fill="#fff"/>
          </g>
        </g>
        <g id="Group_17883" data-name="Group 17883" transform="translate(10.404 8.484)">
          <g id="Group_17875" data-name="Group 17875">
            <path id="Path_46472" data-name="Path 46472" d="M949.258,186.428H938.764a.732.732,0,0,1-.731-.731v-6.725a.731.731,0,0,1,.731-.729h10.494a.73.73,0,0,1,.731.729V185.7A.732.732,0,0,1,949.258,186.428Zm-10.494-7.54a.085.085,0,0,0-.085.085V185.7a.085.085,0,0,0,.085.086h10.494a.085.085,0,0,0,.085-.086v-6.725a.085.085,0,0,0-.085-.085Z" transform="translate(-938.033 -178.243)" fill="#fff"/>
          </g>
          <g id="Group_17876" data-name="Group 17876" transform="translate(1.053 2.661)">
            <path id="Path_46473" data-name="Path 46473" d="M942.34,185.277H940.4a.731.731,0,0,1-.73-.731V183.12a.73.73,0,0,1,.73-.729h1.935a.731.731,0,0,1,.731.729v1.427A.731.731,0,0,1,942.34,185.277Zm-1.935-2.242a.085.085,0,0,0-.085.085v1.427a.084.084,0,0,0,.085.085h1.935a.086.086,0,0,0,.086-.085V183.12a.087.087,0,0,0-.086-.085Z" transform="translate(-939.675 -182.391)" fill="#fff"/>
          </g>
          <g id="Group_17881" data-name="Group 17881" transform="translate(1.114 6.231)">
            <g id="Group_17877" data-name="Group 17877">
              <path id="Path_46474" data-name="Path 46474" d="M941.6,188.6h-1.511a.323.323,0,0,1,0-.646H941.6a.323.323,0,1,1,0,.646Z" transform="translate(-939.77 -187.958)" fill="#fff"/>
            </g>
            <g id="Group_17878" data-name="Group 17878" transform="translate(2.591)">
              <path id="Path_46475" data-name="Path 46475" d="M945.643,188.6h-1.511a.323.323,0,0,1,0-.646h1.511a.323.323,0,1,1,0,.646Z" transform="translate(-943.81 -187.958)" fill="#fff"/>
            </g>
            <g id="Group_17879" data-name="Group 17879" transform="translate(5.183)">
              <path id="Path_46476" data-name="Path 46476" d="M949.684,188.6h-1.512a.323.323,0,0,1,0-.646h1.512a.323.323,0,0,1,0,.646Z" transform="translate(-947.85 -187.958)" fill="#fff"/>
            </g>
            <g id="Group_17880" data-name="Group 17880" transform="translate(7.774)">
              <path id="Path_46477" data-name="Path 46477" d="M953.723,188.6h-1.511a.323.323,0,0,1,0-.646h1.511a.323.323,0,1,1,0,.646Z" transform="translate(-951.89 -187.958)" fill="#fff"/>
            </g>
          </g>
          <g id="Group_17882" data-name="Group 17882" transform="translate(5.792 1.459)">
            <path id="Path_46478" data-name="Path 46478" d="M951.374,181.163h-3.989a.323.323,0,0,1,0-.645h3.989a.323.323,0,0,1,0,.645Z" transform="translate(-947.063 -180.518)" fill="#fff"/>
          </g>
        </g>
      </g>
      <g id="Group_17886" data-name="Group 17886" transform="translate(828 130.512)">
        <g id="Group_17885" data-name="Group 17885" transform="translate(0 0)">
          <path id="Path_46479" data-name="Path 46479" d="M847.15,145.933l-.1-1.124a3.55,3.55,0,0,1-1.828-.346l.215-.768a3.268,3.268,0,0,0,1.722.343c.828-.067,1.347-.568,1.29-1.2-.054-.613-.542-.954-1.434-1.219-1.23-.351-2.009-.8-2.095-1.772a1.851,1.851,0,0,1,1.6-1.934l-.1-1.125.723-.058.1,1.081a3.249,3.249,0,0,1,1.55.266l-.228.759a2.93,2.93,0,0,0-1.5-.26c-.9.072-1.191.612-1.152,1.058.051.578.509.833,1.558,1.153,1.244.369,1.9.9,1.988,1.892a1.96,1.96,0,0,1-1.676,2.04l.1,1.158Z" transform="translate(-844.915 -136.727)" fill="#e4edf1"/>
        </g>
      </g>
      <g id="Group_17903" data-name="Group 17903" transform="translate(857.593 124.248)">
        <g id="Group_17893" data-name="Group 17893">
          <g id="Group_17892" data-name="Group 17892">
            <g id="Group_17891" data-name="Group 17891">
              <g id="Group_17887" data-name="Group 17887">
                <path id="Path_46480" data-name="Path 46480" d="M898.817,142.051h-6.3a1.468,1.468,0,0,1-1.466-1.466V128.428a1.468,1.468,0,0,1,1.466-1.466h6.3a1.468,1.468,0,0,1,1.466,1.466v3.595a.25.25,0,1,1-.5,0v-3.595a.966.966,0,0,0-.965-.965h-6.3a.967.967,0,0,0-.965.965v12.157a.967.967,0,0,0,.965.965h6.3a.966.966,0,0,0,.965-.965v-2.523a.25.25,0,0,1,.5,0v2.523A1.468,1.468,0,0,1,898.817,142.051Z" transform="translate(-891.052 -126.962)" fill="#fff"/>
              </g>
              <g id="Group_17888" data-name="Group 17888" transform="translate(0.091 1.905)">
                <path id="Path_46481" data-name="Path 46481" d="M899.993,130.434h-8.549a.251.251,0,0,1,0-.5h8.549a.251.251,0,0,1,0,.5Z" transform="translate(-891.194 -129.932)" fill="#fff"/>
              </g>
              <g id="Group_17889" data-name="Group 17889" transform="translate(0.091 12.776)">
                <path id="Path_46482" data-name="Path 46482" d="M899.993,147.383h-8.549a.251.251,0,0,1,0-.5h8.549a.251.251,0,0,1,0,.5Z" transform="translate(-891.194 -146.881)" fill="#fff"/>
              </g>
              <g id="Group_17890" data-name="Group 17890" transform="translate(3.389 13.52)">
                <path id="Path_46483" data-name="Path 46483" d="M898.538,148.542h-1.951a.251.251,0,1,1,0-.5h1.951a.251.251,0,1,1,0,.5Z" transform="translate(-896.336 -148.04)" fill="#fff"/>
              </g>
            </g>
          </g>
        </g>
        <g id="Group_17902" data-name="Group 17902" transform="translate(5.174 4.927)">
          <g id="Group_17894" data-name="Group 17894">
            <path id="Path_46484" data-name="Path 46484" d="M907.624,140.854h-7.947a.56.56,0,0,1-.559-.559V135.2a.56.56,0,0,1,.559-.559h7.947a.56.56,0,0,1,.559.559v5.092A.56.56,0,0,1,907.624,140.854Zm-7.947-5.709a.058.058,0,0,0-.058.058v5.092a.058.058,0,0,0,.058.058h7.947a.058.058,0,0,0,.058-.058V135.2a.058.058,0,0,0-.058-.058Z" transform="translate(-899.119 -134.644)" fill="#fff"/>
          </g>
          <g id="Group_17895" data-name="Group 17895" transform="translate(0.797 2.015)">
            <path id="Path_46485" data-name="Path 46485" d="M902.386,139.983H900.92a.56.56,0,0,1-.559-.559v-1.08a.56.56,0,0,1,.559-.559h1.466a.56.56,0,0,1,.559.559v1.08A.56.56,0,0,1,902.386,139.983Zm-1.466-1.7a.058.058,0,0,0-.057.058v1.08a.058.058,0,0,0,.057.058h1.466a.057.057,0,0,0,.058-.058v-1.08a.057.057,0,0,0-.058-.058Z" transform="translate(-900.361 -137.785)" fill="#fff"/>
          </g>
          <g id="Group_17900" data-name="Group 17900" transform="translate(0.843 4.718)">
            <g id="Group_17896" data-name="Group 17896">
              <path id="Path_46486" data-name="Path 46486" d="M901.828,142.5h-1.144a.251.251,0,0,1,0-.5h1.144a.251.251,0,1,1,0,.5Z" transform="translate(-900.434 -142)" fill="#fff"/>
            </g>
            <g id="Group_17897" data-name="Group 17897" transform="translate(1.961)">
              <path id="Path_46487" data-name="Path 46487" d="M904.887,142.5h-1.144a.251.251,0,1,1,0-.5h1.144a.251.251,0,1,1,0,.5Z" transform="translate(-903.492 -142)" fill="#fff"/>
            </g>
            <g id="Group_17898" data-name="Group 17898" transform="translate(3.924)">
              <path id="Path_46488" data-name="Path 46488" d="M907.946,142.5H906.8a.251.251,0,0,1,0-.5h1.145a.251.251,0,0,1,0,.5Z" transform="translate(-906.551 -142)" fill="#fff"/>
            </g>
            <g id="Group_17899" data-name="Group 17899" transform="translate(5.884)">
              <path id="Path_46489" data-name="Path 46489" d="M911,142.5h-1.144a.251.251,0,1,1,0-.5H911a.251.251,0,1,1,0,.5Z" transform="translate(-909.608 -142)" fill="#fff"/>
            </g>
          </g>
          <g id="Group_17901" data-name="Group 17901" transform="translate(4.385 1.105)">
            <path id="Path_46490" data-name="Path 46490" d="M909.225,136.868h-3.02a.25.25,0,0,1,0-.5h3.02a.25.25,0,1,1,0,.5Z" transform="translate(-905.955 -136.367)" fill="#fff"/>
          </g>
        </g>
      </g>
      <g id="Group_17905" data-name="Group 17905" transform="translate(833.359 135.875)">
        <g id="Group_17904" data-name="Group 17904">
          <path id="Path_46491" data-name="Path 46491" d="M858.634,153.86a1.129,1.129,0,0,1-.888-.428l-1.8-2.275-.548.435a.94.94,0,0,1-.582.22.823.823,0,0,1-.794-.764l-.734-4.965a.9.9,0,0,1,.183-.732.846.846,0,0,1,.976-.188l4.668,1.846a.816.816,0,0,1,.217,1.464l-.549.435,1.805,2.275a1.133,1.133,0,0,1-.183,1.589l-1.063.843A1.131,1.131,0,0,1,858.634,153.86Zm-2.616-3.846a.477.477,0,0,1,.373.18l2.1,2.647a.181.181,0,0,0,.143.068.175.175,0,0,0,.111-.038l1.063-.843a.184.184,0,0,0,.03-.254l-2.1-2.647a.477.477,0,0,1,.077-.668l.79-.626-4.356-1.723.685,4.634.791-.626A.47.47,0,0,1,856.019,150.014Z" transform="translate(-853.27 -145.088)" fill="#2a2b7c"/>
        </g>
      </g>
      <g id="Group_17906" data-name="Group 17906" transform="translate(897.488 121.967)">
        <path id="Path_46492" data-name="Path 46492" d="M958.862,140.433l-.535-.808c-.52-.785-5.078-7.752-5.078-10.607a5.613,5.613,0,1,1,11.225,0c0,2.856-4.558,9.822-5.078,10.607Zm0-15.745a4.335,4.335,0,0,0-4.33,4.33c0,1.856,2.761,6.6,4.33,9.072,1.568-2.475,4.33-7.217,4.33-9.072A4.335,4.335,0,0,0,958.862,124.688Zm0,8.079a3.749,3.749,0,1,1,3.748-3.748A3.753,3.753,0,0,1,958.862,132.766Zm0-6.215a2.466,2.466,0,1,0,2.466,2.466A2.469,2.469,0,0,0,958.862,126.552Z" transform="translate(-953.249 -123.405)" fill="#fa7071"/>
      </g>
    </g>
  </g>
</svg>
