<svg xmlns="http://www.w3.org/2000/svg" width="211" height="211" viewBox="0 0 211 211">
  <g id="Group_18034" data-name="Group 18034" transform="translate(-585 -1588)">
    <circle id="Ellipse_995" data-name="Ellipse 995" cx="105.5" cy="105.5" r="105.5" transform="translate(585 1588)" fill="#fff"/>
    <g id="Group_18033" data-name="Group 18033" transform="translate(167.256 1507.789)">
      <path id="Path_46656" data-name="Path 46656" d="M641.084,223.744a47.995,47.995,0,1,1-47.995-47.995A47.994,47.994,0,0,1,641.084,223.744Z" transform="translate(-39.736 -27.245)" fill="#cae1fc"/>
      <path id="Path_46657" data-name="Path 46657" d="M632.57,155.624a47.995,47.995,0,1,1-48-48A47.995,47.995,0,0,1,632.57,155.624Z" transform="translate(-36.33 0)" fill="#daa6ac" opacity="0.3"/>
      <path id="Path_46658" data-name="Path 46658" d="M561.828,172.61a58.042,58.042,0,1,1-58.042-58.043A58.042,58.042,0,0,1,561.828,172.61Z" transform="translate(0 -2.775)" fill="#cbcfff" opacity="0.6"/>
      <path id="Path_46659" data-name="Path 46659" d="M521.423,356.043c0,1.22-14.466,2.21-32.314,2.21s-32.314-.99-32.314-2.21,14.469-2.212,32.314-2.212S521.423,354.822,521.423,356.043Z" transform="translate(-4.42 -98.47)" fill="#cbcfff" opacity="0.6"/>
      <ellipse id="Ellipse_996" data-name="Ellipse 996" cx="19.154" cy="1.982" rx="19.154" ry="1.982" transform="translate(538.592 260.322)" fill="#a8bcff" opacity="0.3"/>
      <ellipse id="Ellipse_997" data-name="Ellipse 997" cx="19.154" cy="1.982" rx="19.154" ry="1.982" transform="translate(458.486 258.221)" fill="#cbcfff" opacity="0.6"/>
      <path id="Path_46660" data-name="Path 46660" d="M600.856,339.86c0,1.228-19.453,2.223-43.449,2.223s-43.451-.995-43.451-2.223,19.455-2.22,43.451-2.22S600.856,338.634,600.856,339.86Z" transform="translate(-27.282 -91.994)" fill="#b0bcd8"/>
      <path id="Path_46661" data-name="Path 46661" d="M662.95,211.153c1.8-1.2,2.072,1.112,2.072,1.112s.275-2.31,2.071-1.112-2.053,3.936-2.053,3.936H665S661.153,212.352,662.95,211.153Z" transform="translate(-86.682 -41.267)" fill="#fa7071"/>
      <circle id="Ellipse_998" data-name="Ellipse 998" cx="7.651" cy="7.651" r="7.651" transform="translate(457.448 157.205)" fill="#fff" opacity="0.3"/>
      <circle id="Ellipse_999" data-name="Ellipse 999" cx="5.25" cy="5.25" r="5.25" transform="translate(470.049 182.407)" fill="#fff" opacity="0.3"/>
      <circle id="Ellipse_1000" data-name="Ellipse 1000" cx="3.75" cy="3.75" r="3.75" transform="translate(576.857 135.604)" fill="#fff" opacity="0.3"/>
      <path id="Path_46662" data-name="Path 46662" d="M598.372,249.717a2.637,2.637,0,0,1-2.619,2.653H519.816a2.636,2.636,0,0,1-2.619-2.653V121.552a2.636,2.636,0,0,1,2.619-2.652h75.937a2.636,2.636,0,0,1,2.619,2.652Z" transform="translate(-28.578 -4.508)" fill="#2e3054"/>
      <path id="Path_46663" data-name="Path 46663" d="M595.753,118.9H519.816a2.636,2.636,0,0,0-2.619,2.652V224.8S597.2,118.9,595.753,118.9Z" transform="translate(-28.578 -4.508)" fill="#fff" opacity="0.2"/>
      <path id="Path_46664" data-name="Path 46664" d="M596.771,240.719a2.165,2.165,0,0,1-2.309,1.986H527.507a2.165,2.165,0,0,1-2.309-1.986V144.64a2.166,2.166,0,0,1,2.309-1.988h66.955a2.166,2.166,0,0,1,2.309,1.988Z" transform="translate(-31.778 -14.008)" fill="#fff"/>
      <rect id="Rectangle_4544" data-name="Rectangle 4544" width="47.06" height="36.572" transform="translate(505.894 187.985)" fill="#cbcfff" opacity="0.6"/>
      <circle id="Ellipse_1001" data-name="Ellipse 1001" cx="7.395" cy="7.395" r="7.395" transform="matrix(0.925, -0.38, 0.38, 0.925, 543.17, 195.74)" fill="#fff" opacity="0.3"/>
      <path id="Path_46665" data-name="Path 46665" d="M563.176,266.764A3.765,3.765,0,1,1,559.411,263,3.765,3.765,0,0,1,563.176,266.764Z" transform="translate(-43.956 -62.141)" fill="#fff" opacity="0.4"/>
      <g id="Group_17996" data-name="Group 17996" transform="translate(513.614 192.258)">
        <g id="Group_17995" data-name="Group 17995" transform="translate(0)">
          <g id="Group_17990" data-name="Group 17990" transform="translate(0 10.663)">
            <g id="Group_17975" data-name="Group 17975" transform="translate(7.229 11.71)">
              <path id="Path_46666" data-name="Path 46666" d="M582.732,290.215h-9.978a2.152,2.152,0,0,1,0-4.262h9.978a.441.441,0,0,1,0,.881h-9.978a1.289,1.289,0,0,0,0,2.5h9.978a.441.441,0,0,1,0,.881Z" transform="translate(-570.9 -285.953)" fill="#2a2b7c"/>
            </g>
            <g id="Group_17976" data-name="Group 17976" transform="translate(0.662)">
              <path id="Path_46667" data-name="Path 46667" d="M567.712,278.83a.441.441,0,0,1-.414-.289c-.931-2.534-3.6-9.369-4.758-10.557a1.8,1.8,0,0,0-1.212-.665.9.9,0,0,0-.61.247.442.442,0,0,1-.62.023.436.436,0,0,1-.032-.614,1.756,1.756,0,0,1,1.23-.536,2.574,2.574,0,0,1,1.876.931c1.521,1.564,4.814,10.489,4.953,10.867a.44.44,0,0,1-.413.593Z" transform="translate(-559.954 -266.438)" fill="#2a2b7c"/>
            </g>
            <g id="Group_17977" data-name="Group 17977" transform="translate(7.729 15.08)">
              <path id="Path_46668" data-name="Path 46668" d="M573.913,295.931a2.181,2.181,0,1,1,2.181-2.181A2.183,2.183,0,0,1,573.913,295.931Zm0-3.48a1.3,1.3,0,1,0,1.3,1.3A1.3,1.3,0,0,0,573.913,292.451Z" transform="translate(-571.732 -291.57)" fill="#2a2b7c"/>
            </g>
            <g id="Group_17978" data-name="Group 17978" transform="translate(16.864 15.08)">
              <path id="Path_46669" data-name="Path 46669" d="M589.138,295.931a2.181,2.181,0,1,1,2.181-2.181A2.183,2.183,0,0,1,589.138,295.931Zm0-3.48a1.3,1.3,0,1,0,1.3,1.3A1.3,1.3,0,0,0,589.138,292.451Z" transform="translate(-586.957 -291.57)" fill="#2a2b7c"/>
            </g>
            <g id="Group_17979" data-name="Group 17979" transform="translate(5.151 3.954)">
              <path id="Path_46670" data-name="Path 46670" d="M583.759,273.909H567.877a.441.441,0,1,1,0-.881h15.882a.441.441,0,0,1,0,.881Z" transform="translate(-567.436 -273.028)" fill="#2a2b7c"/>
            </g>
            <g id="Group_17980" data-name="Group 17980" transform="translate(18.622 3.954)">
              <path id="Path_46671" data-name="Path 46671" d="M590.326,281.665a.448.448,0,0,1-.13-.02.442.442,0,0,1-.29-.551l2.412-7.756a.441.441,0,1,1,.842.262l-2.411,7.756A.441.441,0,0,1,590.326,281.665Z" transform="translate(-589.886 -273.027)" fill="#2a2b7c"/>
            </g>
            <g id="Group_17985" data-name="Group 17985" transform="translate(8.367 4.018)">
              <g id="Group_17981" data-name="Group 17981">
                <path id="Path_46672" data-name="Path 46672" d="M573.236,281.562a.44.44,0,0,1-.44-.441v-7.545a.44.44,0,1,1,.881,0v7.545A.441.441,0,0,1,573.236,281.562Z" transform="translate(-572.796 -273.135)" fill="#2a2b7c"/>
              </g>
              <g id="Group_17982" data-name="Group 17982" transform="translate(3.396)">
                <path id="Path_46673" data-name="Path 46673" d="M578.9,281.562a.441.441,0,0,1-.44-.441v-7.545a.441.441,0,1,1,.881,0v7.545A.44.44,0,0,1,578.9,281.562Z" transform="translate(-578.455 -273.135)" fill="#2a2b7c"/>
              </g>
              <g id="Group_17983" data-name="Group 17983" transform="translate(6.792)">
                <path id="Path_46674" data-name="Path 46674" d="M584.556,281.562a.44.44,0,0,1-.441-.441v-7.545a.44.44,0,1,1,.881,0v7.545A.44.44,0,0,1,584.556,281.562Z" transform="translate(-584.115 -273.135)" fill="#2a2b7c"/>
              </g>
              <g id="Group_17984" data-name="Group 17984" transform="translate(10.188)">
                <path id="Path_46675" data-name="Path 46675" d="M590.215,281.562a.441.441,0,0,1-.441-.441v-7.545a.441.441,0,0,1,.882,0v7.545A.441.441,0,0,1,590.215,281.562Z" transform="translate(-589.774 -273.135)" fill="#2a2b7c"/>
              </g>
            </g>
            <g id="Group_17988" data-name="Group 17988" transform="translate(6.204 6.444)">
              <g id="Group_17986" data-name="Group 17986">
                <path id="Path_46676" data-name="Path 46676" d="M583.514,278.059H569.633a.44.44,0,1,1,0-.881h13.881a.44.44,0,1,1,0,.881Z" transform="translate(-569.192 -277.178)" fill="#2a2b7c"/>
              </g>
              <g id="Group_17987" data-name="Group 17987" transform="translate(1.126 2.587)">
                <path id="Path_46677" data-name="Path 46677" d="M583.318,282.37H571.51a.441.441,0,1,1,0-.881h11.808a.441.441,0,0,1,0,.881Z" transform="translate(-571.069 -281.489)" fill="#2a2b7c"/>
              </g>
            </g>
            <g id="Group_17989" data-name="Group 17989" transform="translate(0 0.357)">
              <path id="Path_46678" data-name="Path 46678" d="M560.425,270.178A1.572,1.572,0,1,1,562,268.605,1.574,1.574,0,0,1,560.425,270.178Zm0-2.264a.691.691,0,1,0,.691.691A.692.692,0,0,0,560.425,267.914Z" transform="translate(-558.852 -267.033)" fill="#2a2b7c"/>
            </g>
          </g>
          <g id="Group_17991" data-name="Group 17991" transform="translate(18.604)">
            <path id="Path_46679" data-name="Path 46679" d="M590.772,262.639a.441.441,0,0,1-.423-.565l1.156-3.951a5.52,5.52,0,0,1,3.866-9.456,5.823,5.823,0,0,1,.587.031,5.522,5.522,0,0,1-.574,11.013,5.83,5.83,0,0,1-.588-.031l-.078-.009-3.674,2.874A.444.444,0,0,1,590.772,262.639Zm4.6-13.091a4.639,4.639,0,0,0-3.074,8.11.441.441,0,0,1,.13.452l-.848,2.9,2.743-2.145a.434.434,0,0,1,.339-.088c.076.011.151.021.227.029a4.739,4.739,0,0,0,.5.026,4.64,4.64,0,0,0,.482-9.254A4.723,4.723,0,0,0,595.372,249.548Z" transform="translate(-589.856 -248.667)" fill="#2a2b7c"/>
          </g>
          <g id="Group_17994" data-name="Group 17994" transform="translate(21.632 2.698)">
            <g id="Group_17992" data-name="Group 17992" transform="translate(2.224)">
              <path id="Path_46680" data-name="Path 46680" d="M598.609,253.163l.011,5.3h.835v-5.3Z" transform="translate(-598.609 -253.163)" fill="#2a2b7c"/>
            </g>
            <g id="Group_17993" data-name="Group 17993" transform="translate(0 2.225)">
              <path id="Path_46681" data-name="Path 46681" d="M600.2,256.872l-5.294.01v.835H600.2Z" transform="translate(-594.902 -256.872)" fill="#2a2b7c"/>
            </g>
          </g>
        </g>
      </g>
      <path id="Path_46682" data-name="Path 46682" d="M491.9,328.339h-29l.393-40.431,29.788-.509Z" transform="translate(-6.86 -71.9)" fill="#d55765"/>
      <path id="Path_46683" data-name="Path 46683" d="M512.408,287.4l3.061,37.982-4.242,2.958Z" transform="translate(-26.19 -71.9)" fill="#2e3054"/>
      <path id="Path_46684" data-name="Path 46684" d="M499.085,292.469a.772.772,0,1,1-.761-.641A.709.709,0,0,1,499.085,292.469Z" transform="translate(-20.726 -73.671)" fill="#fff"/>
      <path id="Path_46685" data-name="Path 46685" d="M475.9,292.362a.771.771,0,1,1-.76-.641A.708.708,0,0,1,475.9,292.362Z" transform="translate(-11.454 -73.629)" fill="#fff"/>
      <path id="Path_46686" data-name="Path 46686" d="M489.557,286.057c-.019-1.43-.414-9.745-7.042-9.915a5.96,5.96,0,0,0-4.018,1.294c-3.3,2.673-3.414,8.486-3.417,8.732a.214.214,0,0,0,.194.124.177.177,0,0,0,.177-.121c.005-.058.118-5.927,3.306-8.507a5.529,5.529,0,0,1,3.746-1.207c6.229.161,6.653,8.066,6.676,9.559a1.189,1.189,0,0,0,.026.242.185.185,0,0,0,.362-.014C489.567,286.229,489.557,286.115,489.557,286.057Z" transform="translate(-11.733 -67.397)" fill="#0b1238"/>
      <g id="Group_18000" data-name="Group 18000" transform="translate(482.025 211.479)">
        <path id="Path_46687" data-name="Path 46687" d="M532.911,332.328h-26.7l.363-38.742L534,293.1Z" transform="translate(-506.208 -285.658)" fill="#ffdcd8"/>
        <path id="Path_46688" data-name="Path 46688" d="M548.909,305.31l-2.362-3.059-2.456-.319,2.059,11.34.226.009,2.362-1.824Z" transform="translate(-521.359 -289.191)" fill="#c3cfce" style="mix-blend-mode: multiply;isolation: isolate"/>
        <path id="Path_46689" data-name="Path 46689" d="M551.8,293.1l2.819,36.4-3.907,2.834Z" transform="translate(-524.006 -285.658)" fill="#2e3054"/>
        <path id="Path_46690" data-name="Path 46690" d="M537.735,301.446a.641.641,0,1,1-.641-.641A.642.642,0,0,1,537.735,301.446Z" transform="translate(-518.305 -288.741)" fill="#f9e0e9"/>
        <path id="Path_46691" data-name="Path 46691" d="M516.753,301.34a.641.641,0,1,1-.641-.641A.641.641,0,0,1,516.753,301.34Z" transform="translate(-509.912 -288.698)" fill="#f9e0e9"/>
        <g id="Group_17997" data-name="Group 17997" transform="translate(19.617 12.681)">
          <path id="Path_46692" data-name="Path 46692" d="M542.024,304.269a.421.421,0,1,0,.59.076A.421.421,0,0,0,542.024,304.269Zm.418.688a.29.29,0,1,1,.052-.406A.29.29,0,0,1,542.442,304.957Z" transform="translate(-540.084 -302.771)" fill="#c3cfce" style="mix-blend-mode: multiply;isolation: isolate"/>
          <path id="Path_46693" data-name="Path 46693" d="M541.727,301.832l-2.542,1.964-.283,2.355,5.081,6.579,5.177-4-5.081-6.579Zm-.44,2.058a.29.29,0,1,1,.052-.407A.29.29,0,0,1,541.287,303.89Z" transform="translate(-538.901 -301.832)" fill="#fff"/>
          <path id="Path_46694" data-name="Path 46694" d="M541.818,304.009a.6.6,0,1,0,.838.107A.6.6,0,0,0,541.818,304.009Zm.542.7a.29.29,0,1,1,.052-.407A.29.29,0,0,1,542.361,304.711Z" transform="translate(-539.975 -302.653)" fill="#3d3942"/>
        </g>
        <path id="Path_46695" data-name="Path 46695" d="M537.034,297.374l-.106-.067-.069.1c-.32.481.245,1.652.5,2.133a8.927,8.927,0,0,0,1.484,2.044l.209-.161a8.164,8.164,0,0,1-1.466-2,3.457,3.457,0,0,1-.562-1.747c.668.449,3.666,2.558,3.111,3.946a.43.43,0,0,1-.168.225.3.3,0,0,0,.03.126c0,.032.008.062.008.094,0,.015,0,.029,0,.043a.616.616,0,0,0,.372-.393C541.074,299.971,537.2,297.479,537.034,297.374Z" transform="translate(-518.429 -287.341)" fill="#2e3054"/>
        <g id="Group_17998" data-name="Group 17998" transform="translate(6.082)">
          <path id="Path_46696" data-name="Path 46696" d="M529.274,293.568l-.317-.006c0-.005,0-.236,0-.631-.006-.262-.017-.6-.038-.985-.182-3.227-1.124-10.751-5.94-10.927a3.973,3.973,0,0,0-2.988,1.163c-3.214,3.07-3.324,11.186-3.324,11.268l-.317,0c0-.338.112-8.33,3.422-11.493a4.3,4.3,0,0,1,3.219-1.251c5.076.186,6.058,7.913,6.244,11.226.022.392.034.731.04,1C529.279,293.326,529.274,293.562,529.274,293.568Z" transform="translate(-516.344 -280.699)" fill="#0b1238"/>
        </g>
        <g id="Group_17999" data-name="Group 17999" transform="translate(22.388 15.376)">
          <path id="Path_46697" data-name="Path 46697" d="M545.641,306.5c.322-.284.688-.231,1.033.161s.353.76.031,1.045l-1.028.908c-.323.284-.688.232-1.034-.161s-.353-.761-.03-1.045Zm-.7,1.326a.236.236,0,0,0-.016.379.239.239,0,0,0,.377.032l1.074-.948a.273.273,0,0,0-.361-.41Zm3.1.425.326.37-4.518,1.192-.326-.37Zm-1.8,1.233c.322-.284.686-.232,1.033.161s.353.761.031,1.045l-1.03.908c-.322.284-.687.232-1.033-.161s-.353-.761-.031-1.046Zm-.7,1.326a.236.236,0,0,0-.016.379.239.239,0,0,0,.377.031l1.073-.947a.273.273,0,0,0-.361-.409Z" transform="translate(-543.519 -306.324)" fill="#2e3054"/>
        </g>
        <path id="Path_46698" data-name="Path 46698" d="M537.7,299.974a4.534,4.534,0,0,1-.519-1.289c-.087.013-.076.368-.143.425a11.824,11.824,0,0,0,.463,1.091c.028.053.06.109.091.164a.526.526,0,0,0,.2-.178C537.762,300.152,537.715,300.011,537.7,299.974Z" transform="translate(-518.537 -287.893)" fill="#2e3054"/>
        <path id="Path_46699" data-name="Path 46699" d="M516.645,301.8a.16.16,0,1,1-.16-.16A.16.16,0,0,1,516.645,301.8Z" transform="translate(-510.254 -289.075)" fill="#0b1238"/>
        <path id="Path_46700" data-name="Path 46700" d="M537.687,301.98a.16.16,0,1,1-.16-.161A.161.161,0,0,1,537.687,301.98Z" transform="translate(-518.67 -289.146)" fill="#0b1238"/>
      </g>
      <path id="Path_46701" data-name="Path 46701" d="M550.833,356.006l1.552-3.1,2.076.512Z" transform="translate(-42.031 -98.098)" fill="#0b1238"/>
      <g id="Group_18001" data-name="Group 18001" transform="translate(464.583 219.344)">
        <path id="Path_46702" data-name="Path 46702" d="M520.692,307.11l2.693,31.293-3.732,2.437Z" transform="translate(-494.143 -299.127)" fill="#2e3054"/>
        <path id="Path_46703" data-name="Path 46703" d="M502.65,340.84H477.14l.347-33.311,26.2-.419Z" transform="translate(-477.14 -299.127)" fill="#ebf7ff"/>
        <path id="Path_46704" data-name="Path 46704" d="M508.756,313.928a.641.641,0,1,1-.641-.641A.641.641,0,0,1,508.756,313.928Z" transform="translate(-489.272 -301.598)" fill="#e4edf1"/>
        <path id="Path_46705" data-name="Path 46705" d="M488.041,313.628a.641.641,0,1,1-.641-.641A.642.642,0,0,1,488.041,313.628Z" transform="translate(-480.987 -301.478)" fill="#e4edf1"/>
        <path id="Path_46706" data-name="Path 46706" d="M519.653,361.3l1.68-3.035,2.052.6Z" transform="translate(-494.143 -319.587)" fill="#0b1238"/>
        <path id="Path_46707" data-name="Path 46707" d="M500.276,306.105c0-.032,0-.075,0-.128,0-1.555-.2-11.952-6.191-12.167a4.288,4.288,0,0,0-3.218,1.249c-2.954,2.825-3.279,9.481-3.313,10.773,0,.044-.021.16-.021.186a.16.16,0,0,0,.318.025c.016,0,.016-.051.019-.131.029-1.039.33-7.863,3.217-10.623a4,4,0,0,1,2.987-1.16c5.684.2,5.882,10.591,5.885,11.889,0,.031,0,.111,0,.118a.162.162,0,0,0,.158.141.16.16,0,0,0,.154-.119S500.276,306.109,500.276,306.105Z" transform="translate(-481.297 -293.807)" fill="#0b1238"/>
      </g>
      <g id="Group_18022" data-name="Group 18022" transform="translate(513.614 192.258)" opacity="0.3">
        <g id="Group_18017" data-name="Group 18017" transform="translate(0 10.663)">
          <g id="Group_18002" data-name="Group 18002" transform="translate(7.229 11.71)">
            <path id="Path_46708" data-name="Path 46708" d="M582.732,290.215h-9.978a2.152,2.152,0,0,1,0-4.262h9.978a.441.441,0,0,1,0,.881h-9.978a1.289,1.289,0,0,0,0,2.5h9.978a.441.441,0,0,1,0,.881Z" transform="translate(-570.9 -285.953)" fill="#fff"/>
          </g>
          <g id="Group_18003" data-name="Group 18003" transform="translate(0.662)">
            <path id="Path_46709" data-name="Path 46709" d="M567.712,278.83a.441.441,0,0,1-.414-.289c-.931-2.534-3.6-9.369-4.758-10.557a1.8,1.8,0,0,0-1.212-.665.9.9,0,0,0-.61.247.442.442,0,0,1-.62.023.436.436,0,0,1-.032-.614,1.756,1.756,0,0,1,1.23-.536,2.574,2.574,0,0,1,1.876.931c1.521,1.564,4.814,10.489,4.953,10.867a.44.44,0,0,1-.413.593Z" transform="translate(-559.954 -266.438)" fill="#fff"/>
          </g>
          <g id="Group_18004" data-name="Group 18004" transform="translate(7.729 15.08)">
            <path id="Path_46710" data-name="Path 46710" d="M573.913,295.931a2.181,2.181,0,1,1,2.181-2.181A2.183,2.183,0,0,1,573.913,295.931Zm0-3.48a1.3,1.3,0,1,0,1.3,1.3A1.3,1.3,0,0,0,573.913,292.451Z" transform="translate(-571.732 -291.57)" fill="#fff"/>
          </g>
          <g id="Group_18005" data-name="Group 18005" transform="translate(16.864 15.08)">
            <path id="Path_46711" data-name="Path 46711" d="M589.138,295.931a2.181,2.181,0,1,1,2.181-2.181A2.183,2.183,0,0,1,589.138,295.931Zm0-3.48a1.3,1.3,0,1,0,1.3,1.3A1.3,1.3,0,0,0,589.138,292.451Z" transform="translate(-586.957 -291.57)" fill="#fff"/>
          </g>
          <g id="Group_18006" data-name="Group 18006" transform="translate(5.151 3.954)">
            <path id="Path_46712" data-name="Path 46712" d="M583.759,273.909H567.877a.441.441,0,1,1,0-.881h15.882a.441.441,0,0,1,0,.881Z" transform="translate(-567.436 -273.028)" fill="#fff"/>
          </g>
          <g id="Group_18007" data-name="Group 18007" transform="translate(18.622 3.954)">
            <path id="Path_46713" data-name="Path 46713" d="M590.326,281.665a.448.448,0,0,1-.13-.02.442.442,0,0,1-.29-.551l2.412-7.756a.441.441,0,1,1,.842.262l-2.411,7.756A.441.441,0,0,1,590.326,281.665Z" transform="translate(-589.886 -273.027)" fill="#fff"/>
          </g>
          <g id="Group_18012" data-name="Group 18012" transform="translate(8.367 4.018)">
            <g id="Group_18008" data-name="Group 18008">
              <path id="Path_46714" data-name="Path 46714" d="M573.236,281.562a.44.44,0,0,1-.44-.441v-7.545a.44.44,0,1,1,.881,0v7.545A.441.441,0,0,1,573.236,281.562Z" transform="translate(-572.796 -273.135)" fill="#fff"/>
            </g>
            <g id="Group_18009" data-name="Group 18009" transform="translate(3.396)">
              <path id="Path_46715" data-name="Path 46715" d="M578.9,281.562a.441.441,0,0,1-.44-.441v-7.545a.441.441,0,1,1,.881,0v7.545A.44.44,0,0,1,578.9,281.562Z" transform="translate(-578.455 -273.135)" fill="#fff"/>
            </g>
            <g id="Group_18010" data-name="Group 18010" transform="translate(6.792)">
              <path id="Path_46716" data-name="Path 46716" d="M584.556,281.562a.44.44,0,0,1-.441-.441v-7.545a.44.44,0,1,1,.881,0v7.545A.44.44,0,0,1,584.556,281.562Z" transform="translate(-584.115 -273.135)" fill="#fff"/>
            </g>
            <g id="Group_18011" data-name="Group 18011" transform="translate(10.188)">
              <path id="Path_46717" data-name="Path 46717" d="M590.215,281.562a.441.441,0,0,1-.441-.441v-7.545a.441.441,0,0,1,.882,0v7.545A.441.441,0,0,1,590.215,281.562Z" transform="translate(-589.774 -273.135)" fill="#fff"/>
            </g>
          </g>
          <g id="Group_18015" data-name="Group 18015" transform="translate(6.204 6.444)">
            <g id="Group_18013" data-name="Group 18013">
              <path id="Path_46718" data-name="Path 46718" d="M583.514,278.059H569.633a.44.44,0,1,1,0-.881h13.881a.44.44,0,1,1,0,.881Z" transform="translate(-569.192 -277.178)" fill="#fff"/>
            </g>
            <g id="Group_18014" data-name="Group 18014" transform="translate(1.126 2.587)">
              <path id="Path_46719" data-name="Path 46719" d="M583.318,282.37H571.51a.441.441,0,1,1,0-.881h11.808a.441.441,0,0,1,0,.881Z" transform="translate(-571.069 -281.489)" fill="#fff"/>
            </g>
          </g>
          <g id="Group_18016" data-name="Group 18016" transform="translate(0 0.357)">
            <path id="Path_46720" data-name="Path 46720" d="M560.425,270.178A1.572,1.572,0,1,1,562,268.605,1.574,1.574,0,0,1,560.425,270.178Zm0-2.264a.691.691,0,1,0,.691.691A.692.692,0,0,0,560.425,267.914Z" transform="translate(-558.852 -267.033)" fill="#fff"/>
          </g>
        </g>
        <g id="Group_18018" data-name="Group 18018" transform="translate(18.604)">
          <path id="Path_46721" data-name="Path 46721" d="M590.772,262.639a.441.441,0,0,1-.423-.565l1.156-3.951a5.52,5.52,0,0,1,3.866-9.456,5.823,5.823,0,0,1,.587.031,5.522,5.522,0,0,1-.574,11.013,5.83,5.83,0,0,1-.588-.031l-.078-.009-3.674,2.874A.444.444,0,0,1,590.772,262.639Zm4.6-13.091a4.639,4.639,0,0,0-3.074,8.11.441.441,0,0,1,.13.452l-.848,2.9,2.743-2.145a.434.434,0,0,1,.339-.088c.076.011.151.021.227.029a4.739,4.739,0,0,0,.5.026,4.64,4.64,0,0,0,.482-9.254A4.723,4.723,0,0,0,595.372,249.548Z" transform="translate(-589.856 -248.667)" fill="#fff"/>
        </g>
        <g id="Group_18021" data-name="Group 18021" transform="translate(21.632 2.698)">
          <g id="Group_18019" data-name="Group 18019" transform="translate(2.224)">
            <path id="Path_46722" data-name="Path 46722" d="M598.609,253.163l.011,5.3h.835v-5.3Z" transform="translate(-598.609 -253.163)" fill="#fff"/>
          </g>
          <g id="Group_18020" data-name="Group 18020" transform="translate(0 2.225)">
            <path id="Path_46723" data-name="Path 46723" d="M600.2,256.872l-5.294.01v.835H600.2Z" transform="translate(-594.902 -256.872)" fill="#fff"/>
          </g>
        </g>
      </g>
      <path id="Path_46724" data-name="Path 46724" d="M586.944,321.053a6.4,6.4,0,1,1-6.4-6.4A6.4,6.4,0,0,1,586.944,321.053Z" transform="translate(-51.357 -82.801)" fill="#596a83"/>
      <path id="Path_46725" data-name="Path 46725" d="M586.432,322.076a4.861,4.861,0,1,1-4.862-4.862A4.86,4.86,0,0,1,586.432,322.076Z" transform="translate(-52.381 -83.825)" fill="#2e3054"/>
      <path id="Path_46726" data-name="Path 46726" d="M657.449,245.8s2.958,7.485,3.092,12.908c.046,1.867-2.957,8.324-2.957,8.716S653.407,246.846,657.449,245.8Z" transform="translate(-83.968 -55.263)" fill="#f5b29c"/>
      <path id="Path_46727" data-name="Path 46727" d="M647.026,235.438a12.217,12.217,0,0,1-.783,5,4,4,0,0,0,4.3-.227l-.522-5.226Z" transform="translate(-80.191 -50.936)" fill="#f5b29c"/>
      <rect id="Rectangle_4545" data-name="Rectangle 4545" width="44.774" height="7.933" rx="0.896" transform="translate(509.076 174.629)" fill="#e4d9eb" style="mix-blend-mode: multiply;isolation: isolate"/>
      <rect id="Rectangle_4546" data-name="Rectangle 4546" width="44.774" height="7.933" rx="0.896" transform="translate(508.18 173.553)" fill="#fa7071"/>
      <path id="Path_46728" data-name="Path 46728" d="M598.372,171.887l-5.134-3.631v-.181h-71.4l-4.638,3.279V190.97a7.147,7.147,0,0,0,4.638-6.688,7.151,7.151,0,1,0,14.3,0,7.149,7.149,0,0,0,14.247.857,7.149,7.149,0,0,0,14.246-.857,7.152,7.152,0,0,0,14.3,0,7.149,7.149,0,0,0,14.174,1.331,7.156,7.156,0,0,0,5.262,5.6Z" transform="translate(-28.578 -24.176)" fill="#99add1" opacity="0.3" style="mix-blend-mode: multiply;isolation: isolate"/>
      <path id="Path_46729" data-name="Path 46729" d="M515.059,165.585v14.148c0,3.448-3.216,6.243-7.184,6.243s-7.184-2.795-7.184-6.243v-5.318Z" transform="translate(-21.977 -23.18)" fill="#d55765"/>
      <path id="Path_46730" data-name="Path 46730" d="M515.06,167.148H500.692l10.1-19.734h4.271Z" transform="translate(-21.977 -15.912)" fill="#fa7071"/>
      <path id="Path_46731" data-name="Path 46731" d="M539,165.585v14.148c0,3.448-3.217,6.243-7.184,6.243s-7.184-2.795-7.184-6.243V165.585Z" transform="translate(-31.553 -23.18)" fill="#ebf7ff"/>
      <rect id="Rectangle_4547" data-name="Rectangle 4547" width="14.367" height="19.733" transform="translate(493.083 131.502)" fill="#fff"/>
      <path id="Path_46732" data-name="Path 46732" d="M562.948,165.585v14.148c0,3.448-3.216,6.243-7.184,6.243s-7.184-2.795-7.184-6.243V165.585Z" transform="translate(-41.13 -23.18)" fill="#d55765"/>
      <rect id="Rectangle_4548" data-name="Rectangle 4548" width="14.368" height="19.733" transform="translate(507.451 131.502)" fill="#fa7071"/>
      <path id="Path_46733" data-name="Path 46733" d="M586.7,165.585v14.148c0,3.448-3.216,6.243-7.183,6.243s-7.184-2.795-7.184-6.243V165.585Z" transform="translate(-50.632 -23.18)" fill="#ebf7ff"/>
      <rect id="Rectangle_4549" data-name="Rectangle 4549" width="14.367" height="19.733" transform="translate(521.706 131.502)" fill="#fff"/>
      <path id="Path_46734" data-name="Path 46734" d="M610.65,165.585v14.148c0,3.448-3.217,6.243-7.184,6.243s-7.184-2.795-7.184-6.243V165.585Z" transform="translate(-60.208 -23.18)" fill="#d55765"/>
      <rect id="Rectangle_4550" data-name="Rectangle 4550" width="14.368" height="19.733" transform="translate(536.073 131.502)" fill="#fa7071"/>
      <path id="Path_46735" data-name="Path 46735" d="M658.108,174.415v5.318c0,3.448-3.217,6.243-7.183,6.243s-7.186-2.795-7.186-6.243V165.585Z" transform="translate(-79.189 -23.18)" fill="#d55765"/>
      <path id="Path_46736" data-name="Path 46736" d="M658.108,167.148H643.739V147.415h5.567Z" transform="translate(-79.189 -15.912)" fill="#fa7071"/>
      <path id="Path_46737" data-name="Path 46737" d="M634.594,165.585v14.148c0,3.448-3.216,6.243-7.184,6.243s-7.183-2.795-7.183-6.243V165.585Z" transform="translate(-69.785 -23.18)" fill="#ebf7ff"/>
      <rect id="Rectangle_4551" data-name="Rectangle 4551" width="14.367" height="19.733" transform="translate(550.441 131.502)" fill="#fff"/>
      <rect id="Rectangle_4552" data-name="Rectangle 4552" width="81.71" height="3.515" transform="translate(488.481 128.265)" fill="#93c8f6"/>
      <rect id="Rectangle_4553" data-name="Rectangle 4553" width="11.025" height="2.151" transform="translate(524.987 120.039)" fill="#596a83"/>
      <g id="Group_18023" data-name="Group 18023" transform="translate(545.966 175.197)">
        <path id="Path_46738" data-name="Path 46738" d="M632.578,322.795,621.465,346.4l-6.74.838s2.031-2.88,4.946-2.288l3.708-13.055,3.441-13.167S632.354,315.491,632.578,322.795Z" transform="translate(-613.551 -259.342)" fill="#f5b29c"/>
        <path id="Path_46739" data-name="Path 46739" d="M652.967,321.362s1.1,16.921-3.855,27.354c0,0-6.42-2.052-5.826-2.421,0,0,1.987-.807,3.292.236,0,0,3-12.65,1.173-20.866C645.953,317.573,650.1,320.188,652.967,321.362Z" transform="translate(-624.959 -260.139)" fill="#f5b29c"/>
        <path id="Path_46740" data-name="Path 46740" d="M635.625,249.03l-2.087,5.738a5.862,5.862,0,0,1,2.217,4.564c-.2,3.266-6.523,26.191-6.523,26.191s12.262,7.013,18.913,1.667c.338-.272-.013-3.12-.016-3.532q-.031-4.218-.115-8.434c-.032-1.561-1.059-4.042-1.281-5.589-.149-1.037-1.276-4.191-1.344-5.244-.217-3.33.134-2.42,1.751-8.333.82-2.8.05-7.194-2.753-8.714A7.386,7.386,0,0,0,635.625,249.03Z" transform="translate(-619.353 -230.762)" fill="#e4e9f6"/>
        <path id="Path_46741" data-name="Path 46741" d="M648.734,232.291c-.667,3.174-5.617,2.073-6.456.068a7.72,7.72,0,0,1,.269-6.812c.939-3.051,1.792-3.585,4.034-3.72C646.581,221.827,650.707,222.9,648.734,232.291Z" transform="translate(-624.31 -220.871)" fill="#f5b29c"/>
        <path id="Path_46742" data-name="Path 46742" d="M631.631,274.858s-5.719,12.029-6.136,13c-1.174,2.73-2.243,5.6-3.3,8.4-1.111,2.951-1.921,6.392-.466,9.376,1.581,3.241,6.568,2.514,9.187,4.043,2.8,1.635,7.927,2.013,10.63-.121,4.551-3.591,4.169.561,7.25-1.983s-.578-9.936-1.882-15.866a81.491,81.491,0,0,0-4.841-16.538S635.934,277.279,631.631,274.858Z" transform="translate(-616.038 -242.081)" fill="#7ab6f6"/>
        <path id="Path_46743" data-name="Path 46743" d="M631.511,242.4c-1.881-1.088-6.77,6.736-8.034,6.6-1.512-.167-5.483-7.463-5.8-8.552-.293-.994-.163-4.081-1.1-4.535s.373,1.515-.179,1.614-2.756-4.325-3.227-4.124,1.621,3.9,1.345,3.944a4.067,4.067,0,0,0-.881.451c-.269.134-.672.2-.807.47s-.158,1.443,1.444,2.342c1.707.957,7.044,12.923,7.863,13.23,1.123.422,8.078-4.827,8.078-4.827S636.275,245.157,631.511,242.4Z" transform="translate(-612.769 -225.496)" fill="#f5b29c"/>
        <path id="Path_46744" data-name="Path 46744" d="M642.327,226.042a2.438,2.438,0,0,0,2.729-.2,1.652,1.652,0,0,1-.109,1.931s1.079-.787,1.3.636c.094.612-1.406,1.4-1.406,1.4s-2.73,5.69-2.73,8.84c0,3.189,3.464,8.857,9.607,6.6a5.088,5.088,0,0,0,3.134-4.47s3.092,1.21,4.033-.941c3.726-8.515-4.11-13.081-4.11-13.081s-.436-6.909-7.424-6.5C642.739,220.519,640.469,224.517,642.327,226.042Z" transform="translate(-624.331 -220.233)" fill="#0b1238"/>
        <path id="Path_46745" data-name="Path 46745" d="M616.971,363.541a6.749,6.749,0,0,0-2.134,1.84l6.74-.838.553-1.174A5.893,5.893,0,0,1,616.971,363.541Z" transform="translate(-613.596 -277.481)" fill="#2e3054"/>
        <path id="Path_46746" data-name="Path 46746" d="M649.681,365.019a25.919,25.919,0,0,1-4.2-.9c-.708-.32-.077-.584.311-.7a4.381,4.381,0,0,0-2.393.2c-.594.368,5.826,2.421,5.826,2.421Q649.462,365.541,649.681,365.019Z" transform="translate(-625.004 -277.463)" fill="#2e3054"/>
        <path id="Path_46747" data-name="Path 46747" d="M637.824,276.492l-.231.488a21.733,21.733,0,0,0,7.281,1.561,7.085,7.085,0,0,0,4.442-1.289c-.075-.191-.143-.366-.206-.52C645.824,279.529,638.7,276.84,637.824,276.492Z" transform="translate(-622.697 -242.734)" fill="#2e3054"/>
      </g>
      <g id="Group_18024" data-name="Group 18024" transform="translate(512.887 175.346)">
        <path id="Path_46748" data-name="Path 46748" d="M558.667,223.463l-.367.833h-.661l1.615-3.664h.661l1.615,3.664h-.661l-.367-.833Zm1.584-.571-.666-1.51-.666,1.51Z" transform="translate(-557.64 -220.543)" fill="#fff"/>
        <path id="Path_46749" data-name="Path 46749" d="M567.743,221.112a1.708,1.708,0,0,1,.529,1.334,1.8,1.8,0,0,1-.514,1.352,2.182,2.182,0,0,1-1.573.5H564.97v-3.664h1.258A2.178,2.178,0,0,1,567.743,221.112Zm-.094,1.349q0-1.258-1.442-1.258h-.619v2.512h.686a1.48,1.48,0,0,0,1.02-.317A1.192,1.192,0,0,0,567.649,222.462Z" transform="translate(-560.572 -220.543)" fill="#fff"/>
        <path id="Path_46750" data-name="Path 46750" d="M574.575,221.112a1.708,1.708,0,0,1,.53,1.334,1.8,1.8,0,0,1-.514,1.352,2.182,2.182,0,0,1-1.573.5H571.8v-3.664h1.258A2.178,2.178,0,0,1,574.575,221.112Zm-.094,1.349q0-1.258-1.442-1.258h-.619v2.512h.686a1.481,1.481,0,0,0,1.02-.317A1.192,1.192,0,0,0,574.481,222.462Z" transform="translate(-563.304 -220.543)" fill="#fff"/>
        <path id="Path_46751" data-name="Path 46751" d="M582.181,221.2v3.1h-.618v-3.1h-1.112v-.566h2.842v.566Z" transform="translate(-566.763 -220.543)" fill="#fff"/>
        <path id="Path_46752" data-name="Path 46752" d="M589.049,223.731a2.01,2.01,0,0,1-2.747,0,1.924,1.924,0,0,1,0-2.705,2.009,2.009,0,0,1,2.747,0,1.924,1.924,0,0,1,0,2.705Zm-.454-2.293a1.284,1.284,0,0,0-1.84,0,1.368,1.368,0,0,0,0,1.882,1.284,1.284,0,0,0,1.84,0,1.367,1.367,0,0,0,0-1.882Z" transform="translate(-568.881 -220.483)" fill="#fff"/>
        <path id="Path_46753" data-name="Path 46753" d="M597.387,223.676a1.3,1.3,0,0,0,.55-.107,1.9,1.9,0,0,0,.482-.344l.4.409a1.834,1.834,0,0,1-1.413.645,1.893,1.893,0,0,1-1.378-.535,1.942,1.942,0,0,1,.01-2.716,1.937,1.937,0,0,1,1.411-.545,1.845,1.845,0,0,1,1.423.629l-.393.43a1.73,1.73,0,0,0-.5-.351,1.392,1.392,0,0,0-.548-.1,1.3,1.3,0,0,0-.933.359,1.209,1.209,0,0,0-.377.917,1.269,1.269,0,0,0,.374.934A1.216,1.216,0,0,0,597.387,223.676Z" transform="translate(-572.774 -220.483)" fill="#fff"/>
        <path id="Path_46754" data-name="Path 46754" d="M602.483,223.463l-.367.833h-.661l1.615-3.664h.661l1.614,3.664h-.66l-.367-.833Zm1.583-.571-.666-1.51-.665,1.51Z" transform="translate(-575.164 -220.543)" fill="#fff"/>
        <path id="Path_46755" data-name="Path 46755" d="M611.71,221.822a1.064,1.064,0,0,1-.791,1.143l.959,1.332h-.786l-.875-1.232H609.4V224.3h-.619v-3.664h1.363a1.98,1.98,0,0,1,1.2.283A1.082,1.082,0,0,1,611.71,221.822Zm-.823.519a.652.652,0,0,0,.188-.521.557.557,0,0,0-.194-.493,1.285,1.285,0,0,0-.691-.134H609.4V222.5h.771A1.128,1.128,0,0,0,610.887,222.341Z" transform="translate(-578.096 -220.543)" fill="#fff"/>
        <path id="Path_46756" data-name="Path 46756" d="M616.211,221.2v3.1h-.619v-3.1h-1.112v-.566h2.842v.566Z" transform="translate(-580.374 -220.543)" fill="#fff"/>
      </g>
      <g id="Group_18028" data-name="Group 18028" transform="translate(501.973 186.059)">
        <g id="Group_18025" data-name="Group 18025" transform="translate(3.204 0)">
          <path id="Path_46757" data-name="Path 46757" d="M545.528,249.888a.376.376,0,1,1-.736,0v-1.473a.376.376,0,1,1,.736,0Z" transform="translate(-544.792 -242.186)" fill="#2e3054"/>
          <path id="Path_46758" data-name="Path 46758" d="M545.528,240.262a.376.376,0,1,1-.736,0v-1.473a.376.376,0,1,1,.736,0Z" transform="translate(-544.792 -238.336)" fill="#2e3054"/>
        </g>
        <g id="Group_18026" data-name="Group 18026" transform="translate(0 1.874)">
          <path id="Path_46759" data-name="Path 46759" d="M549.682,247.082a.376.376,0,1,1-.368.638l-1.275-.736a.376.376,0,1,1,.367-.638Z" transform="translate(-542.787 -243.385)" fill="#2e3054"/>
          <path id="Path_46760" data-name="Path 46760" d="M541.345,242.268a.376.376,0,1,1-.368.638l-1.275-.736a.376.376,0,1,1,.368-.637Z" transform="translate(-539.452 -241.46)" fill="#2e3054"/>
        </g>
        <g id="Group_18027" data-name="Group 18027" transform="translate(0 1.874)">
          <path id="Path_46761" data-name="Path 46761" d="M549.314,241.532a.376.376,0,1,1,.368.637l-1.276.736a.376.376,0,1,1-.367-.638Z" transform="translate(-542.787 -241.46)" fill="#2e3054"/>
          <path id="Path_46762" data-name="Path 46762" d="M540.977,246.346a.376.376,0,1,1,.368.637l-1.275.736a.376.376,0,1,1-.368-.637Z" transform="translate(-539.452 -243.385)" fill="#2e3054"/>
        </g>
      </g>
      <g id="Group_18032" data-name="Group 18032" transform="translate(469.919 122.285)">
        <g id="Group_18031" data-name="Group 18031">
          <g id="Group_18029" data-name="Group 18029" transform="translate(0 2.01)">
            <path id="Path_46763" data-name="Path 46763" d="M491.428,146.194a5.395,5.395,0,1,1,1.2-10.655.406.406,0,1,1-.18.791,4.577,4.577,0,1,0,3.408,3.274.405.405,0,0,1,.782-.212,5.4,5.4,0,0,1-5.21,6.8Z" transform="translate(-486.032 -135.403)" fill="#fa7071"/>
          </g>
          <g id="Group_18030" data-name="Group 18030" transform="translate(1.986)">
            <path id="Path_46764" data-name="Path 46764" d="M492.689,140.621a.406.406,0,0,1-.272-.1l-2.943-2.662a.405.405,0,1,1,.544-.6l2.641,2.388,6.676-7.453a.405.405,0,1,1,.6.541l-6.947,7.757a.408.408,0,0,1-.281.134Z" transform="translate(-489.341 -132.054)" fill="#fa7071"/>
          </g>
        </g>
      </g>
    </g>
  </g>
</svg>
