<svg xmlns="http://www.w3.org/2000/svg" width="567.358" height="294.129" viewBox="0 0 567.358 294.129">
  <g id="Group_22931" data-name="Group 22931" transform="translate(-221.625 -247.483)">
    <path id="Path_50512" data-name="Path 50512" d="M652.715,323.629a136.526,136.526,0,0,0-37.107,5.111A165.839,165.839,0,0,0,322.8,393.854a32.684,32.684,0,0,0-38.737,38.507A83.256,83.256,0,0,0,233.368,555.6H749.714a136.266,136.266,0,0,0-97-231.974Z" transform="translate(0 -13.991)" fill="#ffe7b9"/>
    <path id="Path_50513" data-name="Path 50513" d="M2386.326,872.695s-11.538-59.63-50.726-59.316C2335.6,813.379,2375.668,841.248,2386.326,872.695Z" transform="translate(-1734.033 -464.188)" fill="#adb1cc"/>
    <path id="Path_50514" data-name="Path 50514" d="M2404.2,743.992s.328-78.622-49.516-88.067C2354.687,655.925,2398.569,701.381,2404.2,743.992Z" transform="translate(-1749.69 -335.033)" fill="#adb1cc"/>
    <g id="Group_22833" data-name="Group 22833" transform="translate(365.836 427.922)">
      <path id="Path_50515" data-name="Path 50515" d="M1079.244,1350.688a57.46,57.46,0,0,0-55.236,41.642H1134.48A57.46,57.46,0,0,0,1079.244,1350.688Z" transform="translate(-1024.008 -1332.849)" fill="#ccc"/>
      <path id="Path_50516" data-name="Path 50516" d="M1917.682,1350.688a57.46,57.46,0,0,0-55.236,41.642h110.472A57.46,57.46,0,0,0,1917.682,1350.688Z" transform="translate(-1711.755 -1332.849)" fill="#ccc"/>
      <path id="Path_50517" data-name="Path 50517" d="M1410.235,1251.434a82.075,82.075,0,0,0-78.9,59.48h157.8A82.076,82.076,0,0,0,1410.235,1251.434Z" transform="translate(-1276.101 -1251.434)" fill="#ccc"/>
    </g>
    <g id="Group_22834" data-name="Group 22834" transform="translate(457.128 472.14)">
      <path id="Path_50518" data-name="Path 50518" d="M1547.2,1524.867a15.865,15.865,0,0,0-15.251,11.5h30.5A15.866,15.866,0,0,0,1547.2,1524.867Z" transform="translate(-1531.953 -1519.942)" fill="#b8b8b8"/>
      <path id="Path_50519" data-name="Path 50519" d="M1778.705,1524.867a15.866,15.866,0,0,0-15.251,11.5h30.5A15.865,15.865,0,0,0,1778.705,1524.867Z" transform="translate(-1721.847 -1519.942)" fill="#b8b8b8"/>
      <path id="Path_50520" data-name="Path 50520" d="M1638.594,1497.462a22.662,22.662,0,0,0-21.784,16.423h43.569A22.662,22.662,0,0,0,1638.594,1497.462Z" transform="translate(-1601.559 -1497.462)" fill="#b8b8b8"/>
    </g>
    <g id="Group_22845" data-name="Group 22845" transform="translate(681.36 365.444)">
      <g id="Group_22835" data-name="Group 22835" transform="translate(34.08 0)">
        <path id="Path_50521" data-name="Path 50521" d="M2969.734,923.521a16.54,16.54,0,0,0,.054-11.807c-2.381-6.592,2.939-9.359,5.565-7.159S2979.1,914.065,2969.734,923.521Z" transform="translate(-2969.189 -903.811)" fill="#f2bf80"/>
      </g>
      <g id="Group_22836" data-name="Group 22836" transform="translate(18.227 5.315)">
        <path id="Path_50522" data-name="Path 50522" d="M2892.2,951.575a16.54,16.54,0,0,0-7.49-9.128c-6.039-3.558-3.705-9.083-.28-9.063S2893.386,938.316,2892.2,951.575Z" transform="translate(-2880.981 -933.384)" fill="#f2bf80"/>
      </g>
      <g id="Group_22837" data-name="Group 22837" transform="translate(30.023 22.191)">
        <path id="Path_50523" data-name="Path 50523" d="M2946.613,1029.193a16.542,16.542,0,0,1,10.691,5.012c4.935,4.977,9.716,1.356,8.854-1.959S2959.173,1024.781,2946.613,1029.193Z" transform="translate(-2946.613 -1027.279)" fill="#f2bf80"/>
      </g>
      <g id="Group_22838" data-name="Group 22838" transform="translate(22.122 31.417)">
        <path id="Path_50524" data-name="Path 50524" d="M2902.654,1080.529a16.539,16.539,0,0,1,10.69,5.013c4.936,4.977,9.716,1.356,8.854-1.959S2915.214,1076.117,2902.654,1080.529Z" transform="translate(-2902.654 -1078.614)" fill="#f2bf80"/>
      </g>
      <g id="Group_22839" data-name="Group 22839" transform="translate(17.184 41.516)">
        <path id="Path_50525" data-name="Path 50525" d="M2875.178,1136.72a16.539,16.539,0,0,1,10.69,5.012c4.935,4.978,9.716,1.356,8.854-1.959S2887.738,1132.308,2875.178,1136.72Z" transform="translate(-2875.178 -1134.805)" fill="#f2bf80"/>
      </g>
      <g id="Group_22840" data-name="Group 22840" transform="translate(11.612 54.278)">
        <path id="Path_50526" data-name="Path 50526" d="M2844.173,1207.727a16.54,16.54,0,0,1,10.69,5.012c4.935,4.978,9.716,1.356,8.853-1.959S2856.732,1203.315,2844.173,1207.727Z" transform="translate(-2844.173 -1205.813)" fill="#f2bf80"/>
      </g>
      <g id="Group_22841" data-name="Group 22841" transform="translate(10.988 15.072)">
        <path id="Path_50527" data-name="Path 50527" d="M2851.921,1005.865a16.54,16.54,0,0,0-7.489-9.128c-6.039-3.558-3.706-9.084-.281-9.063S2853.106,992.606,2851.921,1005.865Z" transform="translate(-2840.702 -987.674)" fill="#f2bf80"/>
      </g>
      <g id="Group_22842" data-name="Group 22842" transform="translate(4.997 26.143)">
        <path id="Path_50528" data-name="Path 50528" d="M2818.59,1067.459a16.541,16.541,0,0,0-7.489-9.128c-6.039-3.558-3.706-9.083-.281-9.063S2819.775,1054.2,2818.59,1067.459Z" transform="translate(-2807.37 -1049.268)" fill="#f2bf80"/>
      </g>
      <g id="Group_22843" data-name="Group 22843" transform="translate(0 37.743)">
        <path id="Path_50529" data-name="Path 50529" d="M2790.786,1132a16.538,16.538,0,0,0-7.489-9.128c-6.039-3.558-3.706-9.083-.28-9.063S2791.972,1118.744,2790.786,1132Z" transform="translate(-2779.567 -1113.812)" fill="#f2bf80"/>
      </g>
      <g id="Group_22844" data-name="Group 22844" transform="translate(0.335 16.747)">
        <path id="Path_50530" data-name="Path 50530" d="M2782.069,1089.394a.6.6,0,0,0,.553-.585,171.575,171.575,0,0,1,4.679-33.367c4.069-17.027,12.6-40.811,30.135-57.424a.595.595,0,0,0-.818-.864c-17.753,16.821-26.374,40.846-30.479,58.038a172.72,172.72,0,0,0-4.706,33.6.6.6,0,0,0,.586.6Z" transform="translate(-2781.433 -996.992)" fill="#f2bf80"/>
      </g>
    </g>
    <g id="Group_22856" data-name="Group 22856" transform="translate(702.708 404.002)">
      <g id="Group_22846" data-name="Group 22846" transform="translate(46.336)">
        <path id="Path_50531" data-name="Path 50531" d="M3156.157,1133.551a13.751,13.751,0,0,0,2.534-9.483c-.524-5.8,4.339-6.906,5.986-4.583S3165.687,1127.924,3156.157,1133.551Z" transform="translate(-3156.157 -1118.349)" fill="#f2bf80"/>
      </g>
      <g id="Group_22847" data-name="Group 22847" transform="translate(35.272 0.805)">
        <path id="Path_50532" data-name="Path 50532" d="M3100.693,1139.183a13.75,13.75,0,0,0-4.1-8.92c-4.1-4.136-1.063-8.086,1.687-7.347S3104.444,1128.771,3100.693,1139.183Z" transform="translate(-3094.594 -1122.826)" fill="#f2bf80"/>
      </g>
      <g id="Group_22848" data-name="Group 22848" transform="translate(41.708 17.652)">
        <path id="Path_50533" data-name="Path 50533" d="M3130.407,1216.674a13.753,13.753,0,0,1,7.539,6.287c2.918,5.044,7.527,3.14,7.533.293S3141.437,1215.777,3130.407,1216.674Z" transform="translate(-3130.407 -1216.561)" fill="#f2bf80"/>
      </g>
      <g id="Group_22849" data-name="Group 22849" transform="translate(33.408 23.404)">
        <path id="Path_50534" data-name="Path 50534" d="M3084.226,1248.679a13.75,13.75,0,0,1,7.539,6.286c2.918,5.044,7.527,3.141,7.533.293S3095.257,1247.781,3084.226,1248.679Z" transform="translate(-3084.226 -1248.566)" fill="#f2bf80"/>
      </g>
      <g id="Group_22850" data-name="Group 22850" transform="translate(27.306 30.483)">
        <path id="Path_50535" data-name="Path 50535" d="M3050.275,1288.066a13.749,13.749,0,0,1,7.539,6.286c2.918,5.044,7.527,3.141,7.532.293S3061.306,1287.168,3050.275,1288.066Z" transform="translate(-3050.275 -1287.953)" fill="#f2bf80"/>
      </g>
      <g id="Group_22851" data-name="Group 22851" transform="translate(20.132 39.569)">
        <path id="Path_50536" data-name="Path 50536" d="M3010.36,1338.623a13.751,13.751,0,0,1,7.539,6.286c2.918,5.044,7.527,3.141,7.533.293S3021.391,1337.726,3010.36,1338.623Z" transform="translate(-3010.36 -1338.51)" fill="#f2bf80"/>
      </g>
      <g id="Group_22852" data-name="Group 22852" transform="translate(27.391 7.123)">
        <path id="Path_50537" data-name="Path 50537" d="M3056.848,1174.34a13.75,13.75,0,0,0-4.1-8.92c-4.105-4.135-1.063-8.086,1.687-7.347S3060.6,1163.929,3056.848,1174.34Z" transform="translate(-3050.749 -1157.983)" fill="#f2bf80"/>
      </g>
      <g id="Group_22853" data-name="Group 22853" transform="translate(20.238 14.761)">
        <path id="Path_50538" data-name="Path 50538" d="M3017.049,1216.836a13.751,13.751,0,0,0-4.1-8.92c-4.105-4.135-1.063-8.086,1.687-7.347S3020.8,1206.425,3017.049,1216.836Z" transform="translate(-3010.949 -1200.479)" fill="#f2bf80"/>
      </g>
      <g id="Group_22854" data-name="Group 22854" transform="translate(13.772 23.035)">
        <path id="Path_50539" data-name="Path 50539" d="M2981.073,1262.871a13.751,13.751,0,0,0-4.1-8.92c-4.1-4.136-1.063-8.086,1.688-7.347S2984.824,1252.459,2981.073,1262.871Z" transform="translate(-2974.973 -1246.514)" fill="#f2bf80"/>
      </g>
      <g id="Group_22855" data-name="Group 22855" transform="translate(0 13.078)">
        <path id="Path_50540" data-name="Path 50540" d="M2898.747,1258.059a.494.494,0,0,0,.568-.353,142.656,142.656,0,0,1,10.8-25.844c6.865-12.833,18.743-30.158,36.348-39.818a.495.495,0,0,0-.476-.867c-17.825,9.78-29.827,27.28-36.756,40.239a143.684,143.684,0,0,0-10.874,26.025.5.5,0,0,0,.344.609Z" transform="translate(-2898.344 -1191.116)" fill="#f2bf80"/>
      </g>
    </g>
    <g id="Group_22857" data-name="Group 22857" transform="translate(579.679 455.717)">
      <path id="Path_50541" data-name="Path 50541" d="M2244.323,1460.894a31.731,31.731,0,0,0-30.5,23h61A31.731,31.731,0,0,0,2244.323,1460.894Z" transform="translate(-2213.821 -1451.043)" fill="#f6d2a6"/>
      <path id="Path_50542" data-name="Path 50542" d="M2707.327,1460.894a31.731,31.731,0,0,0-30.5,23h61A31.731,31.731,0,0,0,2707.327,1460.894Z" transform="translate(-2593.61 -1451.043)" fill="#f6d2a6"/>
      <path id="Path_50543" data-name="Path 50543" d="M2427.1,1406.084a45.324,45.324,0,0,0-43.569,32.846h87.139A45.324,45.324,0,0,0,2427.1,1406.084Z" transform="translate(-2353.033 -1406.084)" fill="#f6d2a6"/>
    </g>
    <g id="Group_22858" data-name="Group 22858" transform="translate(344.593 487.601)">
      <path id="Path_50544" data-name="Path 50544" d="M1217.155,1603.649H915.9a10.081,10.081,0,0,1,0-20.162h301.259a10.081,10.081,0,0,1,0,20.162Z" transform="translate(-905.815 -1583.487)" fill="#8987a8"/>
    </g>
    <g id="Group_22859" data-name="Group 22859" transform="translate(638.621 291.986)">
      <path id="Path_50545" data-name="Path 50545" d="M2571.4,548.34a30.825,30.825,0,0,0-29.632,22.339h59.264A30.825,30.825,0,0,0,2571.4,548.34Z" transform="translate(-2541.77 -538.77)" fill="#e2e2e2"/>
      <path id="Path_50546" data-name="Path 50546" d="M3021.192,548.34a30.825,30.825,0,0,0-29.632,22.339h59.264A30.824,30.824,0,0,0,3021.192,548.34Z" transform="translate(-2910.72 -538.77)" fill="#e2e2e2"/>
      <path id="Path_50547" data-name="Path 50547" d="M2748.966,495.093A44.03,44.03,0,0,0,2706.64,527h84.652A44.03,44.03,0,0,0,2748.966,495.093Z" transform="translate(-2677.008 -495.093)" fill="#e2e2e2"/>
    </g>
    <g id="Group_22860" data-name="Group 22860" transform="translate(507.355 498.88)">
      <path id="Path_50548" data-name="Path 50548" d="M1826.559,1673.462a15.756,15.756,0,0,0-15.146,11.419h30.293A15.757,15.757,0,0,0,1826.559,1673.462Z" transform="translate(-1811.412 -1668.57)" fill="#adb1cc"/>
      <path id="Path_50549" data-name="Path 50549" d="M2056.473,1673.462a15.757,15.757,0,0,0-15.147,11.419h30.293A15.757,15.757,0,0,0,2056.473,1673.462Z" transform="translate(-2000.004 -1668.57)" fill="#adb1cc"/>
      <path id="Path_50550" data-name="Path 50550" d="M1917.322,1646.245a22.507,22.507,0,0,0-21.635,16.31h43.271A22.507,22.507,0,0,0,1917.322,1646.245Z" transform="translate(-1880.54 -1646.245)" fill="#adb1cc"/>
    </g>
    <g id="Group_22861" data-name="Group 22861" transform="translate(252.253 286.987)">
      <path id="Path_50551" data-name="Path 50551" d="M425.577,527.555a34.893,34.893,0,0,0-33.542,25.287h67.083A34.892,34.892,0,0,0,425.577,527.555Z" transform="translate(-392.035 -516.722)" fill="#f6d2a6"/>
      <path id="Path_50552" data-name="Path 50552" d="M934.715,527.555a34.893,34.893,0,0,0-33.542,25.287h67.083A34.892,34.892,0,0,0,934.715,527.555Z" transform="translate(-809.666 -516.722)" fill="#f6d2a6"/>
      <path id="Path_50553" data-name="Path 50553" d="M626.57,467.283A49.84,49.84,0,0,0,578.66,503.4h95.821A49.84,49.84,0,0,0,626.57,467.283Z" transform="translate(-545.118 -467.283)" fill="#f6d2a6"/>
    </g>
    <g id="Group_22862" data-name="Group 22862" transform="translate(270.626 308.254)">
      <path id="Path_50554" data-name="Path 50554" d="M513.969,621.018a20.5,20.5,0,0,0-19.7,14.855h39.409A20.5,20.5,0,0,0,513.969,621.018Z" transform="translate(-494.264 -614.654)" fill="#6f728a"/>
      <path id="Path_50555" data-name="Path 50555" d="M813.07,621.018a20.5,20.5,0,0,0-19.7,14.855h39.409A20.5,20.5,0,0,0,813.07,621.018Z" transform="translate(-739.608 -614.654)" fill="#6f728a"/>
      <path id="Path_50556" data-name="Path 50556" d="M632.046,585.61A29.279,29.279,0,0,0,603.9,606.829h56.292A29.279,29.279,0,0,0,632.046,585.61Z" transform="translate(-584.195 -585.61)" fill="#6f728a"/>
    </g>
    <g id="Group_22863" data-name="Group 22863" transform="translate(653.254 320.088)">
      <path id="Path_50557" data-name="Path 50557" d="M2786.566,669.6a10.5,10.5,0,0,1,10.1,7.613h-20.2A10.5,10.5,0,0,1,2786.566,669.6Z" transform="translate(-2748.92 -666.339)" fill="#454a5f"/>
      <path id="Path_50558" data-name="Path 50558" d="M2633.287,669.6a10.5,10.5,0,0,1,10.1,7.613h-20.2A10.5,10.5,0,0,1,2633.287,669.6Z" transform="translate(-2623.189 -666.339)" fill="#454a5f"/>
      <path id="Path_50559" data-name="Path 50559" d="M2686.57,651.454a15,15,0,0,1,14.424,10.874h-28.848A15,15,0,0,1,2686.57,651.454Z" transform="translate(-2663.347 -651.454)" fill="#454a5f"/>
    </g>
    <g id="Group_22864" data-name="Group 22864" transform="translate(366.59 351.308)">
      <path id="Path_50560" data-name="Path 50560" d="M1157.027,839.468a8.283,8.283,0,0,1,7.962,6h-15.925A8.283,8.283,0,0,1,1157.027,839.468Z" transform="translate(-1127.343 -836.897)" fill="#454a5f"/>
      <path id="Path_50561" data-name="Path 50561" d="M1036.166,839.468a8.283,8.283,0,0,1,7.962,6H1028.2A8.283,8.283,0,0,1,1036.166,839.468Z" transform="translate(-1028.204 -836.897)" fill="#454a5f"/>
      <path id="Path_50562" data-name="Path 50562" d="M1078.18,825.16a11.831,11.831,0,0,1,11.373,8.574h-22.746A11.831,11.831,0,0,1,1078.18,825.16Z" transform="translate(-1059.869 -825.16)" fill="#454a5f"/>
    </g>
    <path id="Path_50563" data-name="Path 50563" d="M726.325,1030.121a36.276,36.276,0,0,0-10.657,5.423l-.111-.446c-.958-3.82-2.145-8.108-3.6-12.7a36.27,36.27,0,0,0,11.406-4.4,35.769,35.769,0,0,0,9.743-8.935,35.766,35.766,0,0,0-12.4,4.576,36.273,36.273,0,0,0-9,7.964c-1.219-3.8-2.622-7.812-4.227-11.937a36.3,36.3,0,0,0,9.826-7.135,35.767,35.767,0,0,0,7.134-11.129,35.77,35.77,0,0,0-10.82,7.6,36.241,36.241,0,0,0-6.523,9.688c-1.625-4.11-3.456-8.328-5.509-12.57a36.286,36.286,0,0,0,8.633-8.557,35.764,35.764,0,0,0,5.354-12.087,35.766,35.766,0,0,0-9.535,9.157,36.24,36.24,0,0,0-4.944,10.479c-1.4-2.851-2.907-5.71-4.52-8.552a36.287,36.287,0,0,0,4.741-11.16,35.763,35.763,0,0,0,.387-13.214,34.1,34.1,0,0,0-6.067,22.746q-1.733-2.966-3.627-5.891a34.106,34.106,0,0,0-13.285-19.454A34.1,34.1,0,0,0,690.482,979.9q1.964,3.02,3.748,6.094a36.238,36.238,0,0,0-11.257-2.579,35.77,35.77,0,0,0-13.092,1.833,35.768,35.768,0,0,0,12.81,3.265A36.277,36.277,0,0,0,694.814,987c1.629,2.849,3.145,5.717,4.56,8.579a36.273,36.273,0,0,0-12.006.734,35.763,35.763,0,0,0-12,5.536,35.767,35.767,0,0,0,13.207-.574,36.273,36.273,0,0,0,11.172-4.952c2.124,4.35,4.009,8.678,5.679,12.893a36.27,36.27,0,0,0-11.961-.316,35.768,35.768,0,0,0-12.446,4.455,35.766,35.766,0,0,0,13.206.594,36.285,36.285,0,0,0,11.52-3.921c1.628,4.164,3.046,8.209,4.277,12.048a36.274,36.274,0,0,0-11.879-.733,35.765,35.765,0,0,0-12.6,4,35.762,35.762,0,0,0,13.176,1.07,36.277,36.277,0,0,0,11.58-3.466c1.432,4.533,2.6,8.763,3.55,12.534.047.189.094.376.14.564a34.247,34.247,0,0,0-24.848,6.167,35.766,35.766,0,0,0,13.207-.574,36.127,36.127,0,0,0,11.708-5.321,190.7,190.7,0,0,1,4.779,26.642l1.749-.146a191.6,191.6,0,0,0-4.7-26.393,36.273,36.273,0,0,0,11.924-1.421,35.771,35.771,0,0,0,11.668-6.214A35.767,35.767,0,0,0,726.325,1030.121Z" transform="translate(-367.692 -584.111)" fill="#999"/>
    <path id="Path_50564" data-name="Path 50564" d="M545.8,1228.007a23.247,23.247,0,0,0-5.543,5.29l-.15-.253c-1.291-2.169-2.809-4.582-4.546-7.135a23.25,23.25,0,0,0,6.191-4.8,22.922,22.922,0,0,0,4.336-7.277,22.915,22.915,0,0,0-6.77,5.091,23.241,23.241,0,0,0-4.059,6.545c-1.448-2.111-3.047-4.313-4.791-6.549a23.26,23.26,0,0,0,4.718-6.188,22.92,22.92,0,0,0,2.331-8.144,22.917,22.917,0,0,0-5.244,6.653,23.222,23.222,0,0,0-2.221,7.147c-1.754-2.224-3.654-4.476-5.694-6.7a23.258,23.258,0,0,0,3.724-6.841,22.92,22.92,0,0,0,1.062-8.4,22.92,22.92,0,0,0-4.168,7.375,23.223,23.223,0,0,0-1.106,7.342c-1.386-1.492-2.835-2.97-4.348-4.417a23.254,23.254,0,0,0,.856-7.723,22.918,22.918,0,0,0-2.194-8.182,21.856,21.856,0,0,0,.462,15.078q-1.609-1.5-3.31-2.949a21.855,21.855,0,0,0-11.734-9.5,21.85,21.85,0,0,0,10.958,10.312q1.761,1.492,3.422,3.051a23.226,23.226,0,0,0-7.384.489,22.913,22.913,0,0,0-7.7,3.535,22.92,22.92,0,0,0,8.464-.353,23.252,23.252,0,0,0,7.163-3.16c1.524,1.449,2.983,2.93,4.378,4.426a23.254,23.254,0,0,0-7.235,2.66,22.923,22.923,0,0,0-6.35,5.607,22.922,22.922,0,0,0,8-2.782,23.252,23.252,0,0,0,5.946-5.1c2.1,2.279,4.057,4.589,5.858,6.869a23.248,23.248,0,0,0-7.4,2.007,22.921,22.921,0,0,0-6.82,5.025,22.917,22.917,0,0,0,8.215-2.065,23.252,23.252,0,0,0,6.349-4.527c1.765,2.256,3.381,4.478,4.843,6.608a23.248,23.248,0,0,0-7.426,1.736,22.92,22.92,0,0,0-7,4.775,22.919,22.919,0,0,0,8.285-1.767,23.246,23.246,0,0,0,6.47-4.259c1.713,2.519,3.211,4.9,4.485,7.041l.19.32a21.943,21.943,0,0,0-14.117,8.358,21.945,21.945,0,0,0,14.208-8.2,122.239,122.239,0,0,1,7.836,15.474l1.047-.411a122.729,122.729,0,0,0-7.739-15.336,23.252,23.252,0,0,0,7.058-3.067,22.919,22.919,0,0,0,6.018-5.962A22.919,22.919,0,0,0,545.8,1228.007Z" transform="translate(-230.719 -773.803)" fill="#999"/>
    <g id="Group_22865" data-name="Group 22865" transform="translate(294.235 463.747)">
      <path id="Path_50565" data-name="Path 50565" d="M648.257,1491.438a23.546,23.546,0,0,0-22.634,17.064h45.268A23.545,23.545,0,0,0,648.257,1491.438Z" transform="translate(-625.623 -1484.128)" fill="#6f728a"/>
      <path id="Path_50566" data-name="Path 50566" d="M991.827,1491.438a23.546,23.546,0,0,0-22.634,17.064h45.268A23.545,23.545,0,0,0,991.827,1491.438Z" transform="translate(-907.444 -1484.128)" fill="#6f728a"/>
      <path id="Path_50567" data-name="Path 50567" d="M783.889,1450.766a33.633,33.633,0,0,0-32.33,24.374H816.22A33.632,33.632,0,0,0,783.889,1450.766Z" transform="translate(-728.925 -1450.766)" fill="#6f728a"/>
    </g>
    <g id="Group_22866" data-name="Group 22866" transform="translate(273.447 480.936)">
      <path id="Path_50568" data-name="Path 50568" d="M520.356,1565.079a10.813,10.813,0,0,0-10.394,7.836H530.75A10.812,10.812,0,0,0,520.356,1565.079Z" transform="translate(-509.962 -1561.722)" fill="#9a98b5"/>
      <path id="Path_50569" data-name="Path 50569" d="M678.126,1565.079a10.813,10.813,0,0,0-10.394,7.836H688.52A10.813,10.813,0,0,0,678.126,1565.079Z" transform="translate(-639.376 -1561.722)" fill="#9a98b5"/>
      <path id="Path_50570" data-name="Path 50570" d="M582.639,1546.4a15.444,15.444,0,0,0-14.846,11.192h29.693A15.444,15.444,0,0,0,582.639,1546.4Z" transform="translate(-557.399 -1546.403)" fill="#9a98b5"/>
    </g>
    <circle id="Ellipse_1234" data-name="Ellipse 1234" cx="3.002" cy="3.002" r="3.002" transform="translate(417.105 323.857)" fill="#fff"/>
    <circle id="Ellipse_1235" data-name="Ellipse 1235" cx="3.002" cy="3.002" r="3.002" transform="translate(601.143 367.757)" fill="#fff"/>
    <circle id="Ellipse_1236" data-name="Ellipse 1236" cx="3.002" cy="3.002" r="3.002" transform="translate(383.179 381.717)" fill="#fff"/>
    <circle id="Ellipse_1237" data-name="Ellipse 1237" cx="5.379" cy="5.379" r="5.379" transform="translate(469.285 354.468)" fill="#fff"/>
    <circle id="Ellipse_1238" data-name="Ellipse 1238" cx="5.379" cy="5.379" r="5.379" transform="translate(498.551 441.426)" fill="#fff"/>
    <g id="Group_22867" data-name="Group 22867" transform="translate(490.25 247.483)">
      <path id="Path_50571" data-name="Path 50571" d="M1716.239,247.483V390.244h96.837V247.483Z" transform="translate(-1716.239 -247.483)" fill="#fff"/>
      <rect id="Rectangle_5218" data-name="Rectangle 5218" width="69.476" height="1.896" transform="translate(13.68 57.146)" fill="#999"/>
      <rect id="Rectangle_5219" data-name="Rectangle 5219" width="69.476" height="11.649" transform="translate(13.68 24.2)" fill="#f6d2a6"/>
      <rect id="Rectangle_5220" data-name="Rectangle 5220" width="25.73" height="5.825" transform="translate(13.68 11.57)" fill="#ccc"/>
      <rect id="Rectangle_5221" data-name="Rectangle 5221" width="69.476" height="1.896" transform="translate(13.68 65.07)" fill="#999"/>
      <rect id="Rectangle_5222" data-name="Rectangle 5222" width="69.476" height="1.896" transform="translate(13.68 72.994)" fill="#999"/>
      <rect id="Rectangle_5223" data-name="Rectangle 5223" width="69.476" height="1.896" transform="translate(13.68 80.918)" fill="#999"/>
      <rect id="Rectangle_5224" data-name="Rectangle 5224" width="69.476" height="1.896" transform="translate(13.68 88.842)" fill="#999"/>
      <rect id="Rectangle_5225" data-name="Rectangle 5225" width="56.935" height="1.896" transform="translate(13.68 96.765)" fill="#999"/>
      <circle id="Ellipse_1239" data-name="Ellipse 1239" cx="10.411" cy="10.411" r="10.411" transform="translate(58.023 119.227) rotate(-45)" fill="#ccc"/>
      <circle id="Ellipse_1240" data-name="Ellipse 1240" cx="4.94" cy="4.94" r="4.94" transform="translate(67.806 114.287)" fill="#fff"/>
      <path id="Path_50572" data-name="Path 50572" d="M1941,919.779a30.53,30.53,0,0,1,8.813-8.766c1.063-.692,2.433-1.326,3.541-.71a3.427,3.427,0,0,1,1.379,2.539,17.5,17.5,0,0,1,.207,4.448,3.071,3.071,0,0,1-.625,1.878,1.2,1.2,0,0,1-1.764.072,1.625,1.625,0,0,1-.241-.862,10.3,10.3,0,0,1,.576-4.181,4.806,4.806,0,0,1,1.439-2.222,2.361,2.361,0,0,1,2.511-.336c1.2.656,1.284,2.305,1.317,3.671s.439,3.062,1.776,3.343a2.876,2.876,0,0,0,2.442-1.06,12.773,12.773,0,0,1,2.554-2.342,2.461,2.461,0,0,1,3.149.392" transform="translate(-1900.602 -790.971)" fill="none" stroke="#6f728a" stroke-linecap="round" stroke-linejoin="round" stroke-width="3.34"/>
    </g>
    <g id="Group_22868" data-name="Group 22868" transform="translate(565.114 262.814)">
      <path id="Path_50573" data-name="Path 50573" d="M2148.98,361.9a16.856,16.856,0,0,0-16.2,12.215h32.407A16.856,16.856,0,0,0,2148.98,361.9Z" transform="translate(-2132.777 -356.664)" fill="#adb1cc"/>
      <path id="Path_50574" data-name="Path 50574" d="M2394.937,361.9a16.856,16.856,0,0,0-16.2,12.215h32.407A16.856,16.856,0,0,0,2394.937,361.9Z" transform="translate(-2334.528 -356.664)" fill="#adb1cc"/>
      <path id="Path_50575" data-name="Path 50575" d="M2246.077,332.781a24.077,24.077,0,0,0-23.145,17.448h46.29A24.077,24.077,0,0,0,2246.077,332.781Z" transform="translate(-2206.729 -332.781)" fill="#adb1cc"/>
    </g>
    <g id="Group_22869" data-name="Group 22869" transform="translate(607.672 274.549)">
      <path id="Path_50576" data-name="Path 50576" d="M2380.461,417.649a11.331,11.331,0,0,0-10.892,8.212h21.785A11.331,11.331,0,0,0,2380.461,417.649Z" transform="translate(-2369.569 -414.131)" fill="#f6d2a6"/>
      <path id="Path_50577" data-name="Path 50577" d="M2545.8,417.649a11.331,11.331,0,0,0-10.892,8.212h21.785A11.331,11.331,0,0,0,2545.8,417.649Z" transform="translate(-2505.189 -414.131)" fill="#f6d2a6"/>
      <path id="Path_50578" data-name="Path 50578" d="M2445.732,398.077a16.185,16.185,0,0,0-15.559,11.729h31.117A16.185,16.185,0,0,0,2445.732,398.077Z" transform="translate(-2419.281 -398.077)" fill="#f6d2a6"/>
    </g>
    <g id="Group_22876" data-name="Group 22876" transform="translate(531.299 384.389)">
      <g id="Group_22875" data-name="Group 22875">
        <path id="Path_50579" data-name="Path 50579" d="M2066.693,1148.653s-6.122,38.75-9.823,43.815c0,0,4.481,4.131,8.641,2.965,6.862-1.923,5.5-27.8,3.68-40.411A12.731,12.731,0,0,0,2066.693,1148.653Z" transform="translate(-2036.698 -1123.593)" fill="#454a5f"/>
        <path id="Path_50580" data-name="Path 50580" d="M1950.573,1168.477s-4.465-2.734-5.705-2.285,2.715,3.532,5.88,3.563Z" transform="translate(-1944.635 -1137.938)" fill="#af7d61"/>
        <g id="Group_22870" data-name="Group 22870" transform="translate(5.108 18.222)">
          <path id="Path_50581" data-name="Path 50581" d="M1973.8,1122.5c-.266.849-.526,1.662-.747,2.5,14.9,4.251,22.078.477,30.931-11.16,1.354-1.78.881-2.359-.91-2.92.078-.42.08-.419,0,0-1.791-.56-1.936-.1-3.148,1.5C1992,1122.878,1987.261,1125.077,1973.8,1122.5Z" transform="translate(-1973.054 -1110.603)" fill="#454a5f"/>
        </g>
        <g id="Group_22871" data-name="Group 22871" transform="translate(36.32 18.576)">
          <path id="Path_50582" data-name="Path 50582" d="M2157.1,1144.822c.908.489,1.654.885,2.49,1.269,4.4-17.6,4.613-22.408-10.507-33.145-2.313-1.642-3.8,2.546-.2,4.3C2161.538,1123.41,2159.743,1132.806,2157.1,1144.822Z" transform="translate(-2146.718 -1112.572)" fill="#454a5f"/>
        </g>
        <g id="Group_22872" data-name="Group 22872" transform="translate(29.284 43.552)">
          <path id="Path_50583" data-name="Path 50583" d="M2107.57,1311.584c1.02.458,1.08,1.294,2.148,1.626,3.208-18.816,3.165-42.894,7.536-59.9-2.825-.61-5.656-1.187-8.488-1.767C2105.375,1271.382,2111.815,1289.127,2107.57,1311.584Z" transform="translate(-2107.57 -1251.541)" fill="#af7d61"/>
        </g>
        <path id="Path_50584" data-name="Path 50584" d="M2109.523,1251.541c2.832.579,5.663,1.157,8.488,1.767-4.056,15.786-4.023,37.616-6.6,55.722l-2.69.319C2112.152,1287.94,2106.245,1270.72,2109.523,1251.541Z" transform="translate(-2079.043 -1207.989)" fill="#2d334a"/>
        <g id="Group_22873" data-name="Group 22873" transform="translate(33.955 43.846)">
          <path id="Path_50585" data-name="Path 50585" d="M2136.626,1313.169c1.048.391,1.162,1.221,2.249,1.483,1.983-18.984.383-43.009,3.643-60.264-2.859-.426-5.722-.819-8.584-1.214C2131.833,1273.194,2139.408,1290.485,2136.626,1313.169Z" transform="translate(-2133.56 -1253.175)" fill="#af7d61"/>
        </g>
        <path id="Path_50586" data-name="Path 50586" d="M2133.933,1253.175c2.863.395,5.726.788,8.584,1.214-3.027,16.015-1.581,37.8-2.983,56.033l-2.665.493C2138.912,1289.327,2131.9,1272.526,2133.933,1253.175Z" transform="translate(-2099.605 -1209.329)" fill="#2d334a"/>
        <path id="Path_50587" data-name="Path 50587" d="M2099.843,1163.518q-.376-1.217-.74-2.475a304.633,304.633,0,0,1-6.747-30.861c-1.648-9.7-1.156-13.975-2.726-18.691-.659-1.977-.776-3.146-2.371-4.128a6.607,6.607,0,0,0-.607-.33,4.006,4.006,0,0,0-.915-.321c-3.135-.665-5.016,3.517-5.534,6.361-.1.555-.2.98-.3,1.334v0c-.424,1.628-.6,1.721.817,5.767.614,1.75-.758,11.976-1.372,15.424-.2,1.118-.331,3.1-.771,5.134-2.637,12.2-4.331,25.224-5.736,37.8-.049.44-.1.88-.147,1.318a12.908,12.908,0,0,0,3.816-.51c2.951-.839,5.66-2.256,8.685-2.858a15.651,15.651,0,0,1,6.04.107,29.779,29.779,0,0,0,3.658.862,8.046,8.046,0,0,0,5.221-1.124c1.11-.714,2.776-.812,3.785-2.275A68.253,68.253,0,0,1,2099.843,1163.518Z" transform="translate(-2049.679 -1089.132)" fill="#6f728a"/>
        <path id="Path_50588" data-name="Path 50588" d="M2152.17,1166.162a16.723,16.723,0,0,0,7.462-1.822,304.666,304.666,0,0,1-6.747-30.861c-1.648-9.7-1.156-13.975-2.726-18.691-.659-1.977-.776-3.146-2.372-4.127.075,3.112-1.015,9.865-1.285,22.409C2146.161,1148.849,2152.17,1166.162,2152.17,1166.162Z" transform="translate(-2110.209 -1092.428)" fill="#454a5f"/>
        <g id="Group_22874" data-name="Group 22874" transform="translate(29.539 50.314)">
          <rect id="Rectangle_5226" data-name="Rectangle 5226" width="17.302" height="25.914" transform="translate(0 16.525) rotate(-72.763)" fill="#f6d2a6"/>
          <rect id="Rectangle_5227" data-name="Rectangle 5227" width="8.053" height="4.798" transform="matrix(0.296, -0.955, 0.955, 0.296, 5.591, 11.207)" fill="#f0b56c"/>
        </g>
        <path id="Path_50589" data-name="Path 50589" d="M2082.387,1579.882a7.9,7.9,0,0,1-4.043,5.132s-1.506.99.672.675,5.275-1.949,5.993-3.32c0,0,1.231,2.066,1.254,1.333s.1-4.075.1-4.075Z" transform="translate(-2053.896 -1477.108)" fill="#f2bf80"/>
        <path id="Path_50590" data-name="Path 50590" d="M2126.489,1579.882a7.9,7.9,0,0,1-4.043,5.132s-1.506.99.673.675,5.275-1.949,5.993-3.32c0,0,1.232,2.066,1.254,1.333s.1-4.075.1-4.075Z" transform="translate(-2090.072 -1477.108)" fill="#f2bf80"/>
        <path id="Path_50591" data-name="Path 50591" d="M2112.812,1114.407v0s2.963-5.981,4.863-7.047a6.1,6.1,0,0,0,.969-.652c-3.135-.665-5.016,3.517-5.534,6.361C2113.008,1113.629,2112.9,1114.054,2112.812,1114.407Z" transform="translate(-2082.586 -1089.132)" fill="#454a5f"/>
        <path id="Path_50592" data-name="Path 50592" d="M2130.865,1036.006c.04-.4.342-.739.439-1.113a8.032,8.032,0,0,1,.161-1.185c.158-.361.553-.594.763-.921s.262-.785.521-1.076.708-.393,1.01-.64.489-.665.828-.863a7.965,7.965,0,0,1,1.158-.3c.362-.142.668-.482,1.054-.565a8.06,8.06,0,0,1,1.194.076,7.7,7.7,0,0,1,1.177-.211c.4.04.74.342,1.113.439a8.087,8.087,0,0,1,1.185.161c.361.158.594.552.921.763s.785.262,1.076.522.393.708.64,1.01.666.489.864.827a8.006,8.006,0,0,1,.3,1.158c.142.362.482.669.565,1.054a8.047,8.047,0,0,1-.076,1.194,7.641,7.641,0,0,1,.211,1.177c-.04.4-.342.739-.439,1.112a8.062,8.062,0,0,1-.161,1.185c-.158.361-.553.594-.762.921s-.262.785-.522,1.076-.708.393-1.01.64-.49.665-.828.864a8,8,0,0,1-1.158.3c-.362.142-.669.482-1.054.565a8.1,8.1,0,0,1-1.194-.076,7.658,7.658,0,0,1-1.177.211c-.4-.04-.739-.342-1.112-.439a8.1,8.1,0,0,1-1.185-.162c-.361-.158-.594-.552-.922-.763s-.785-.262-1.076-.521-.393-.708-.64-1.01-.666-.489-.864-.828a7.943,7.943,0,0,1-.3-1.158c-.142-.362-.482-.668-.565-1.054a8.01,8.01,0,0,1,.076-1.194A7.675,7.675,0,0,1,2130.865,1036.006Z" transform="translate(-2097.39 -1025.613)" fill="#2d334a"/>
        <path id="Path_50593" data-name="Path 50593" d="M2119.97,1032.521c-.148.338-.515.555-.712.861s-.245.732-.488,1-.659.366-.942.6-.457.621-.772.805a7.415,7.415,0,0,1-1.08.28,1.12,1.12,0,0,0-.135.063,3.735,3.735,0,0,1-.849.464,7.636,7.636,0,0,1-1.114-.072,7.052,7.052,0,0,1-1.1.2c-.37-.037-.691-.319-1.038-.411a7.563,7.563,0,0,1-1.107-.15c-.336-.148-.554-.515-.86-.711s-.733-.245-1-.488-.367-.659-.6-.942-.621-.457-.807-.772a7.568,7.568,0,0,1-.278-1.082c-.132-.338-.448-.623-.527-.984a7.512,7.512,0,0,1,.07-1.113,7.215,7.215,0,0,1-.2-1.1c.037-.369.319-.691.409-1.038a7.605,7.605,0,0,1,.152-1.107,3,3,0,0,1,.582-.692,1.435,1.435,0,0,0,.129-.168c.2-.308.245-.733.487-1s.661-.367.943-.6.457-.621.772-.807a7.557,7.557,0,0,1,1.081-.278c.339-.132.625-.448.983-.527a4.574,4.574,0,0,1,1.021.072c.032,0,.063,0,.094,0a7.168,7.168,0,0,1,1.1-.2c.369.037.691.319,1.038.409a7.63,7.63,0,0,1,1.107.152c.336.148.553.515.86.711s.732.245,1,.486.366.661.6.944.621.457.807.772a7.579,7.579,0,0,1,.278,1.081c.131.336.445.621.526.978,0,0,0,0,0,.006a7.661,7.661,0,0,1-.072,1.115,7.052,7.052,0,0,1,.2,1.1c-.037.369-.319.691-.411,1.038A7.6,7.6,0,0,1,2119.97,1032.521Z" transform="translate(-2077.351 -1020.213)" fill="#2d334a"/>
        <path id="Path_50594" data-name="Path 50594" d="M2135.261,1019.827c-.159.36-.553.594-.763.921s-.262.786-.522,1.076-.708.393-1.011.64-.489.666-.826.865a8.163,8.163,0,0,1-1.159.3c-.362.141-.669.481-1.053.564a8.087,8.087,0,0,1-1.194-.075,7.69,7.69,0,0,1-1.178.21,2.176,2.176,0,0,1-.731-.283,2.126,2.126,0,0,0-.381-.156,8.053,8.053,0,0,1-1.185-.162c-.361-.158-.6-.553-.922-.762s-.784-.262-1.075-.523-.393-.707-.641-1.01-.664-.489-.863-.828a7.979,7.979,0,0,1-.3-1.158c-.141-.362-.482-.669-.565-1.054a3.177,3.177,0,0,1,.068-.95,1.49,1.49,0,0,0,.008-.244,7.627,7.627,0,0,1-.211-1.177c.039-.4.343-.74.44-1.112a8.094,8.094,0,0,1,.161-1.186c.158-.36.553-.594.763-.921s.262-.786.521-1.076.707-.393,1.01-.641a2.214,2.214,0,0,0,.323-.351,1.931,1.931,0,0,1,.505-.514,8.147,8.147,0,0,1,1.159-.3c.361-.142.668-.481,1.054-.564a8.043,8.043,0,0,1,1.193.075,7.629,7.629,0,0,1,1.176-.21c.4.04.74.341,1.114.439a8.043,8.043,0,0,1,1.185.162c.36.158.594.551.921.762a2.694,2.694,0,0,0,.529.233,1.691,1.691,0,0,1,.549.288c.291.261.392.709.639,1.011s.666.489.865.828a8.009,8.009,0,0,1,.3,1.157c.142.362.481.669.566,1.054a8.293,8.293,0,0,1-.077,1.195,7.629,7.629,0,0,1,.212,1.177c-.04.4-.343.74-.44,1.112A8.337,8.337,0,0,1,2135.261,1019.827Z" transform="translate(-2089.1 -1009.218)" fill="#2d334a"/>
        <path id="Path_50595" data-name="Path 50595" d="M2124.229,1054.616c-1.572,2.639-4.685,3.684-6.3,2.724s-1.116-3.563.456-6.2,3.679-3.2,5.292-2.244S2125.8,1051.977,2124.229,1054.616Z" transform="translate(-2085.971 -1041.404)" fill="#af7d61"/>
        <path id="Path_50596" data-name="Path 50596" d="M2138.312,1079.99l-3.185-.518a51.368,51.368,0,0,0-.613,6.178c.087.493.871.766,1.753.611.792-.139,1.388-.578,1.438-1.023h0A42.452,42.452,0,0,1,2138.312,1079.99Z" transform="translate(-2100.384 -1066.845)" fill="#af7d61"/>
        <path id="Path_50597" data-name="Path 50597" d="M2118.947,1047.177s2.306,2.561,7.24.165A4.912,4.912,0,0,0,2118.947,1047.177Z" transform="translate(-2087.618 -1039.084)" fill="#2d334a"/>
        <path id="Path_50598" data-name="Path 50598" d="M2143.053,1049.411a14.725,14.725,0,0,1,2.428,6.218c.2,2.146,3.872-4.058,3.872-4.058S2145.684,1046.674,2143.053,1049.411Z" transform="translate(-2107.392 -1041.505)" fill="#2d334a"/>
        <path id="Path_50599" data-name="Path 50599" d="M2151.3,1085.014c-.366.614-1.444,1.037-1.889.772s-.26-.829.106-1.443,1.069-.974,1.513-.71A.922.922,0,0,1,2151.3,1085.014Z" transform="translate(-2112.391 -1070.186)" fill="#af7d61"/>
        <path id="Path_50600" data-name="Path 50600" d="M2194.856,1293.586c-.944,1.218-2.952,3.962-2.732,5,.248,1.171,3.1-1.409,4.194-4.253C2195.836,1294.1,2195.365,1293.858,2194.856,1293.586Z" transform="translate(-2147.63 -1242.477)" fill="#af7d61"/>
      </g>
    </g>
    <g id="Group_22885" data-name="Group 22885" transform="translate(589.168 385.314)">
      <path id="Path_50601" data-name="Path 50601" d="M2306.6,1035.317s4.653-2.934,4.807-4.311-4.59.915-6.092,3.882Z" transform="translate(-2298.36 -1027.679)" fill="#fff"/>
      <g id="Group_22877" data-name="Group 22877" transform="translate(0 5.867)">
        <path id="Path_50602" data-name="Path 50602" d="M2275.338,1049.073c-.649-.673-1.3-1.344-1.925-2.061-16.321,17.056.274,24.273,13,10.461,1.948-2.113,1.289-2.142-.417-3.278.123-.379.128-.377,0,0-1.706-1.136-2.357-.535-3.517.969C2274.908,1064.994,2262.282,1063.31,2275.338,1049.073Z" transform="translate(-2266.618 -1047.012)" fill="#6f728a"/>
      </g>
      <g id="Group_22878" data-name="Group 22878" transform="translate(10.751 96.5)">
        <path id="Path_50603" data-name="Path 50603" d="M2329.033,1560.94a1.068,1.068,0,0,0,1.047-1.28l-1.531-7.518a1.067,1.067,0,1,0-2.091.426l1.531,7.518A1.068,1.068,0,0,0,2329.033,1560.94Z" transform="translate(-2326.436 -1551.288)" fill="#fff"/>
      </g>
      <g id="Group_22879" data-name="Group 22879" transform="translate(6.138 38.28)">
        <path id="Path_50604" data-name="Path 50604" d="M2305.629,1290.857a27.862,27.862,0,0,0,3.4-.313c-3.381-18.073-5.94-42.329,3.1-59.221q-4.118-2.02-8.271-3.965C2297.251,1242.075,2302.878,1275.31,2305.629,1290.857Z" transform="translate(-2300.768 -1227.357)" fill="#454a5f"/>
      </g>
      <path id="Path_50605" data-name="Path 50605" d="M2301.634,1596.433s.66,2.743,0,2.819-10.168.365-10.224-.076c-.19-1.506,7.582-2.9,8.344-2.743S2301.547,1596.034,2301.634,1596.433Z" transform="translate(-2286.951 -1491.698)" fill="#f0b267"/>
      <g id="Group_22880" data-name="Group 22880" transform="translate(24.614 96.5)">
        <path id="Path_50606" data-name="Path 50606" d="M2406.167,1560.94a1.068,1.068,0,0,0,1.046-1.28l-1.531-7.518a1.067,1.067,0,1,0-2.091.426l1.531,7.518A1.068,1.068,0,0,0,2406.167,1560.94Z" transform="translate(-2403.57 -1551.288)" fill="#fff"/>
      </g>
      <g id="Group_22881" data-name="Group 22881" transform="translate(11.187 41.162)">
        <path id="Path_50607" data-name="Path 50607" d="M2342.394,1303.612c1.158.215,2.319.363,3.492.464-1.244-19.474-8.288-43.1-8-60.687q-4.515.17-9.027.41C2329.382,1262.847,2342.527,1279.464,2342.394,1303.612Z" transform="translate(-2328.863 -1243.389)" fill="#454a5f"/>
      </g>
      <path id="Path_50608" data-name="Path 50608" d="M2378.768,1596.433s.661,2.743,0,2.819-10.168.365-10.223-.076c-.191-1.506,7.582-2.9,8.344-2.743S2378.682,1596.034,2378.768,1596.433Z" transform="translate(-2350.223 -1491.698)" fill="#f0b267"/>
      <g id="Group_22882" data-name="Group 22882" transform="translate(6.955 11.554)">
        <path id="Path_50609" data-name="Path 50609" d="M2305.315,1110.009a35.3,35.3,0,0,1,6.046-.191,21.847,21.847,0,0,1,7.309,1.305q.739-1.817,1.338-3.553c.146-.414.281-.829.415-1.237q.325-1,.6-1.962c.123-.424.24-.845.35-1.26.252-.942.473-1.862.667-2.772.091-.431.175-.861.256-1.286.2-1.052.359-2.082.489-3.1.055-.437.107-.868.149-1.3a52.479,52.479,0,0,0,.191-8.083,29.117,29.117,0,0,0-.48-4.032,4.815,4.815,0,0,0-7.662-2.889l-.612.47a5.394,5.394,0,0,0-2.031,5.107c.34,2.276.1,5.583-1.438,10.7-.13.421-.266.852-.408,1.3-.2.625-.428,1.279-.667,1.956-.146.408-.3.823-.457,1.25-.281.754-.583,1.538-.913,2.354-.162.4-.33.816-.505,1.237-.178.437-.369.887-.563,1.344-.172.4-.347.8-.528,1.217Q2306.144,1108.222,2305.315,1110.009Z" transform="translate(-2305.315 -1078.654)" fill="#6f728a"/>
      </g>
      <g id="Group_22883" data-name="Group 22883" transform="translate(6.229 27.208)">
        <rect id="Rectangle_5228" data-name="Rectangle 5228" width="17.302" height="25.914" transform="translate(0 9.242) rotate(-32.286)" fill="#adb1cc"/>
        <rect id="Rectangle_5229" data-name="Rectangle 5229" width="8.053" height="4.798" transform="translate(7.705 8.826) rotate(-32.286)" fill="#8987a8"/>
      </g>
      <path id="Path_50610" data-name="Path 50610" d="M2348.145,1024.687c-2.022,2.516-5.414,3.147-6.951,1.911s-.639-3.87,1.383-6.386,4.3-2.794,5.834-1.559S2350.167,1022.171,2348.145,1024.687Z" transform="translate(-2327.155 -1017.298)" fill="#fff"/>
      <path id="Path_50611" data-name="Path 50611" d="M2366.732,1049.936l-3.374-.33a53.908,53.908,0,0,0-.228,6.518c.124.511.965.745,1.879.523.822-.2,1.417-.7,1.439-1.169h0A44.586,44.586,0,0,1,2366.732,1049.936Z" transform="translate(-2345.747 -1043.272)" fill="#fff"/>
      <path id="Path_50612" data-name="Path 50612" d="M2364.151,1020.725a5.21,5.21,0,0,0-.029-3.634c-.793-1.6-3.3-3.448-5.621-1.64,0,0-1.529,1.435.358,3.132s2.274.352,2.579,2.073,1.74,1.591,1.767,1.957Z" transform="translate(-2341.508 -1014.645)" fill="#3b3e54"/>
      <path id="Path_50613" data-name="Path 50613" d="M2369.492,1247.2s-4.141,3.622-4.079,5.006,4.393-1.617,5.415-4.781Z" transform="translate(-2347.656 -1205.354)" fill="#fff"/>
      <g id="Group_22884" data-name="Group 22884" transform="translate(21.006 13.885)">
        <path id="Path_50614" data-name="Path 50614" d="M2383.692,1119.6c.512.729,1.091,1.481,1.488,2.153,12.8-9.171,14.21-18.892,2.442-29.218-2.178-1.911-3.293-.264-3.337-.2-1.24,1.9-1.031,2.5.694,3.9C2396.566,1105.675,2392.634,1110.409,2383.692,1119.6Z" transform="translate(-2383.493 -1091.62)" fill="#6f728a"/>
      </g>
      <path id="Path_50615" data-name="Path 50615" d="M2371.783,1014.432s1.908,6.393,2.907,7.681c0,0,.854-.214,1.685-2.5,0,0,1.677-.31,1.861-1.4S2374.75,1013.869,2371.783,1014.432Z" transform="translate(-2352.882 -1014.367)" fill="#f0b267"/>
      <path id="Path_50616" data-name="Path 50616" d="M2377.784,1054.047a1.882,1.882,0,0,1-2.078.526c-.424-.341-.148-.9.322-1.486s1.255-.857,1.679-.516A.968.968,0,0,1,2377.784,1054.047Z" transform="translate(-2355.927 -1045.582)" fill="#fff"/>
      <path id="Path_50617" data-name="Path 50617" d="M2343.079,1044.581s-.51-.521-1.372.106a2.623,2.623,0,0,1-2.7.6c-.911-.437-1.032-.713-1.766-1.069s-.22-2.517-.045-2.893c.428-.919-.247-.316-.636.237s-1.661,2.126-.451,3.6,1.746,1.785,2.988,1.651S2342.15,1046.624,2343.079,1044.581Z" transform="translate(-2323.201 -1036.092)" fill="#3b3e54"/>
    </g>
    <g id="Group_22896" data-name="Group 22896" transform="translate(388.821 382.46)">
      <g id="Group_22895" data-name="Group 22895">
        <g id="Group_22894" data-name="Group 22894">
          <path id="Path_50618" data-name="Path 50618" d="M1246.617,1019.471a8.284,8.284,0,0,1-4.482-5.261c-.846-3.7,2.724-6.21,5.862-5.787s3.4,2.96,3.162,3.542S1246.617,1019.471,1246.617,1019.471Z" transform="translate(-1225.813 -1006.6)" fill="#2d334a"/>
          <path id="Path_50619" data-name="Path 50619" d="M1280.375,1014.556s2.51.769,2.037,2.358-2.895-.917-2.895-.917S1279.24,1014.014,1280.375,1014.556Z" transform="translate(-1256.556 -1011.591)" fill="#2d334a"/>
          <g id="Group_22886" data-name="Group 22886" transform="translate(36.781 98.945)">
            <path id="Path_50620" data-name="Path 50620" d="M1359.945,1558.495a1.069,1.069,0,0,1-1.5-.7l-1.874-7.448a1.068,1.068,0,1,1,2.071-.521l1.874,7.448A1.069,1.069,0,0,1,1359.945,1558.495Z" transform="translate(-1356.539 -1549.016)" fill="#d1a58c"/>
          </g>
          <g id="Group_22887" data-name="Group 22887" transform="translate(20.936 41.159)">
            <path id="Path_50621" data-name="Path 50621" d="M1288.288,1289.718a33.568,33.568,0,0,1-3.058,1.608c-6.794-20.236-10.166-41.984-16.848-61.156q4.343-1.408,8.734-2.675C1282.79,1248.045,1279.985,1266.364,1288.288,1289.718Z" transform="translate(-1268.381 -1227.495)" fill="#383e56"/>
          </g>
          <path id="Path_50622" data-name="Path 50622" d="M1363.041,1596.415s-.661,2.746,0,2.823,10.178.365,10.234-.076c.191-1.507-7.59-2.9-8.353-2.746S1363.128,1596.017,1363.041,1596.415Z" transform="translate(-1324.851 -1488.829)" fill="#383e56"/>
          <g id="Group_22888" data-name="Group 22888" transform="translate(7.637 98.945)">
            <path id="Path_50623" data-name="Path 50623" d="M1194.988,1558.495a1.069,1.069,0,0,0,1.5-.7l1.874-7.448a1.068,1.068,0,1,0-2.071-.521l-1.874,7.448A1.069,1.069,0,0,0,1194.988,1558.495Z" transform="translate(-1194.383 -1549.016)" fill="#d1a58c"/>
          </g>
          <g id="Group_22889" data-name="Group 22889" transform="translate(7.585 41.159)">
            <path id="Path_50624" data-name="Path 50624" d="M1194.095,1289.718a33.49,33.49,0,0,0,3.059,1.608c6.793-20.236,10.166-41.984,16.848-61.156q-4.343-1.408-8.734-2.675C1199.593,1248.045,1202.4,1266.364,1194.095,1289.718Z" transform="translate(-1194.095 -1227.495)" fill="#383e56"/>
          </g>
          <path id="Path_50625" data-name="Path 50625" d="M1162.131,1596.415s.661,2.746,0,2.823-10.178.365-10.234-.076c-.191-1.507,7.59-2.9,8.352-2.746S1162.045,1596.017,1162.131,1596.415Z" transform="translate(-1151.894 -1488.829)" fill="#383e56"/>
          <g id="Group_22890" data-name="Group 22890" transform="translate(16.322 13.804)">
            <path id="Path_50626" data-name="Path 50626" d="M1253.592,1111.94a16.75,16.75,0,0,0,4.747-.286c-1.435-7.9-3.906-22.038-4.307-29.64-.158-3.044-1.158-4.659-2.237-5.49a4.267,4.267,0,0,0-.791-.474,5.321,5.321,0,0,0-5.038-.22,5.206,5.206,0,0,0-2.463,3.5,11.46,11.46,0,0,0-.1,3.959,178.259,178.259,0,0,1-.692,29.6c2.609-.158,6.843-1.666,9.486-1.13.2.045.424.079.661.107" transform="translate(-1242.711 -1075.296)" fill="#828392"/>
          </g>
          <path id="Path_50627" data-name="Path 50627" d="M1257.838,1020.7c1.762,2.708,5.077,3.677,6.732,2.6s1.024-3.791-.738-6.5-4-3.214-5.655-2.137S1256.076,1018,1257.838,1020.7Z" transform="translate(-1237.871 -1011.329)" fill="#d1a58c"/>
          <path id="Path_50628" data-name="Path 50628" d="M1265.17,1046.657l3.377-.33a53.951,53.951,0,0,1,.228,6.525c-.124.511-.966.745-1.881.524-.822-.2-1.418-.7-1.441-1.17h0A44.739,44.739,0,0,0,1265.17,1046.657Z" transform="translate(-1244.811 -1037.729)" fill="#d1a58c"/>
          <path id="Path_50629" data-name="Path 50629" d="M1271.329,1045.484c.5-.539.966-.053,2.165.619s3.34.5,3.489-2.3c.063-1.187.528-.3.834.435a7.8,7.8,0,0,1,1.156,3.111,1.969,1.969,0,0,1-1.141,2.133c-1.709.918-3.9-.172-5.187-1.086a3.152,3.152,0,0,1-1.5-2.372A.85.85,0,0,1,1271.329,1045.484Z" transform="translate(-1249.712 -1035.181)" fill="#2d334a"/>
          <path id="Path_50630" data-name="Path 50630" d="M1287.3,1045.852l-.115.061c-.59.319-3.266,1.821-3.537,2.928-.305,1.245,1.439-.481,1.967-1.279s1.166-.69,1.739-.858S1288.193,1045.82,1287.3,1045.852Z" transform="translate(-1259.942 -1037.339)" fill="#2d334a"/>
          <path id="Path_50631" data-name="Path 50631" d="M1253.819,1016.7a5.215,5.215,0,0,1,.393-3.617c.949-1.509,3.635-3.1,5.762-1.07,0,0,1.379,1.583-.671,3.084s-2.3.122-2.776,1.806-1.893,1.41-1.956,1.772Z" transform="translate(-1235.368 -1008.797)" fill="#2d334a"/>
          <path id="Path_50632" data-name="Path 50632" d="M1257.454,1052.046c.41.631,1.56,1.03,2.017.733s.238-.882-.172-1.513-1.164-.979-1.62-.682A.969.969,0,0,0,1257.454,1052.046Z" transform="translate(-1238.294 -1041.133)" fill="#d1a58c"/>
          <path id="Path_50633" data-name="Path 50633" d="M1325.181,1244.487s-2.989,4.95-4.432,5.14.868-4.842,3.955-6.481Z" transform="translate(-1290.039 -1199.174)" fill="#d1a58c"/>
          <g id="Group_22891" data-name="Group 22891" transform="translate(21.653 15.746)">
            <path id="Path_50634" data-name="Path 50634" d="M1286.332,1116.439c-.807-.509-1.677-1-2.541-1.527,8.41-12.146,9.767-22.7-8.784-24.194-2.838-.229-3.072-.875-2.166-2.97-.411-.274-.416-.268,0,0,.907-2.1,1.66-1.851,4.369-1.123C1294.921,1091.384,1297.311,1102.489,1286.332,1116.439Z" transform="translate(-1272.369 -1086.101)" fill="#828392"/>
          </g>
          <path id="Path_50635" data-name="Path 50635" d="M1241,1002.558s-1.13,0-.937-1.791,1.212-2.4,1.984-2.259a1.889,1.889,0,0,1,1.708,2.383C1243.426,1002.613,1241,1002.558,1241,1002.558Z" transform="translate(-1224.199 -998.489)" fill="#2d334a"/>
          <g id="Group_22892" data-name="Group 22892" transform="translate(3.657 43.992)">
            <rect id="Rectangle_5230" data-name="Rectangle 5230" width="17.302" height="25.914" transform="translate(21.811 25.464) rotate(169.305)" fill="#adb1cc"/>
            <rect id="Rectangle_5231" data-name="Rectangle 5231" width="8.053" height="4.798" transform="translate(14.494 23.015) rotate(169.305)" fill="#8987a8"/>
          </g>
          <path id="Path_50636" data-name="Path 50636" d="M1214.717,1252.824s3.578,4.542,5.034,4.551-1.46-4.7-4.727-5.942Z" transform="translate(-1203.426 -1205.972)" fill="#d1a58c"/>
          <g id="Group_22893" data-name="Group 22893" transform="translate(2.366 16.112)">
            <path id="Path_50637" data-name="Path 50637" d="M1173.609,1119.7c.738-.6,1.54-1.2,2.332-1.83-9.849-11.011-12.5-21.317,5.722-25.1,2.787-.578,2.94-1.248,1.781-3.215.374-.323.38-.317,0,0-1.159-1.967-1.876-1.631-4.474-.573C1161.984,1095.9,1160.987,1107.216,1173.609,1119.7Z" transform="translate(-1165.058 -1088.136)" fill="#828392"/>
          </g>
        </g>
      </g>
    </g>
    <g id="Group_22908" data-name="Group 22908" transform="translate(424.451 368.556)">
      <path id="Path_50638" data-name="Path 50638" d="M1569.786,928.354a2.09,2.09,0,0,1-.687-1.725c.135-1.67.5-4.811,1.331-5.418,1.147-.835,1.513,4.55-.367,7.391Z" transform="translate(-1529.74 -921.124)" fill="#af7d61"/>
      <g id="Group_22897" data-name="Group 22897" transform="translate(17.639 6.021)">
        <path id="Path_50639" data-name="Path 50639" d="M1469.219,954.627c.979.283,1.866.509,2.918.855-2.787,11.842-9.658,23.637-22,27.818-2.786.944-2.323-3.329.668-4.631C1461.058,974.205,1466.36,965.225,1469.219,954.627Z" transform="translate(-1448.282 -954.627)" fill="#fff"/>
      </g>
      <g id="Group_22898" data-name="Group 22898" transform="translate(16.815 113.048)">
        <path id="Path_50640" data-name="Path 50640" d="M1444.856,1560.084a1.095,1.095,0,0,1-1.151-1.242l1.088-7.784a1.093,1.093,0,0,1,2.165.3l-1.088,7.784A1.094,1.094,0,0,1,1444.856,1560.084Z" transform="translate(-1443.695 -1550.116)" fill="#af7d61"/>
      </g>
      <path id="Path_50641" data-name="Path 50641" d="M1441.5,1597.474a2.6,2.6,0,0,1-1.583.468,2.86,2.86,0,0,1-1.439-.317.2.2,0,0,0-.3.138c-.145.754-.42,2.489.11,2.543.678.069,10.42.232,10.471-.22C1448.892,1598.869,1443.98,1597.8,1441.5,1597.474Z" transform="translate(-1422.187 -1475.915)" fill="#515770"/>
      <g id="Group_22900" data-name="Group 22900" transform="translate(14.706 56.336)">
        <g id="Group_22899" data-name="Group 22899">
          <path id="Path_50642" data-name="Path 50642" d="M1438.735,1234.573l4.791,31.012.3,1.909.016.1c.011.067.02.134.028.2.019.155.017.218.022.31l0,.131v.1l-.006.2-.024.338-.031.3c-.045.39-.1.74-.16,1.089-.236,1.378-.518,2.667-.806,3.965-.579,2.585-1.2,5.134-1.827,7.68l-1.889,7.618c-.312,1.267-.623,2.533-.921,3.795-.149.631-.295,1.261-.431,1.884-.068.311-.134.621-.193.922l-.081.436-.048.316-3.281-.1.008-.2.012-.164c.008-.11.019-.2.028-.3.021-.184.043-.36.066-.533.047-.344.1-.677.15-1.009.105-.662.217-1.314.331-1.964q.343-1.949.706-3.878l1.444-7.713c.475-2.565.944-5.132,1.362-7.68.205-1.269.406-2.551.541-3.761.032-.3.061-.6.075-.858l.008-.185v-.152l0-.045a.118.118,0,0,0,0-.018.022.022,0,0,0,0,.008.289.289,0,0,0,0,.065c0,.027.006.053.011.079l0,.02,0-.01-.007-.031-.424-1.945-6.55-30.708Z" transform="translate(-1431.962 -1234.573)" fill="#383e56"/>
        </g>
      </g>
      <g id="Group_22901" data-name="Group 22901" transform="translate(29.37 113.048)">
        <path id="Path_50643" data-name="Path 50643" d="M1514.712,1560.084a1.095,1.095,0,0,1-1.151-1.242l1.088-7.784a1.093,1.093,0,0,1,2.165.3l-1.088,7.784A1.094,1.094,0,0,1,1514.712,1560.084Z" transform="translate(-1513.55 -1550.116)" fill="#af7d61"/>
      </g>
      <path id="Path_50644" data-name="Path 50644" d="M1511.356,1597.474a2.6,2.6,0,0,1-1.583.468,2.859,2.859,0,0,1-1.439-.317.2.2,0,0,0-.3.138c-.145.754-.42,2.489.11,2.543.678.069,10.42.232,10.471-.22C1518.747,1598.869,1513.835,1597.8,1511.356,1597.474Z" transform="translate(-1479.486 -1475.915)" fill="#515770"/>
      <g id="Group_22903" data-name="Group 22903" transform="translate(20.163 54.938)">
        <g id="Group_22902" data-name="Group 22902">
          <path id="Path_50645" data-name="Path 50645" d="M1468.745,1226.8q2.737,7.677,5.435,15.358l2.682,7.7c.887,2.572,1.769,5.139,2.624,7.752l.318.99.158.5.157.517.08.273.08.284.02.071.025.1.05.208.047.212c.021.126.041.269.05.384l.012.258c0,.082,0,.138,0,.208,0,.143-.008.241-.014.36l-.023.316-.029.295c-.083.762-.191,1.454-.3,2.147s-.235,1.371-.36,2.048c-.5,2.7-1.052,5.367-1.607,8.03l-1.684,7.965-.827,3.969c-.134.66-.266,1.319-.39,1.973-.062.326-.122.652-.177.97l-.076.464-.029.21-.019.153-3.281-.1.007-.193.01-.161.024-.3.056-.544c.04-.354.083-.7.128-1.041.09-.685.185-1.363.282-2.038l.6-4.038,1.222-8.04c.4-2.675.792-5.352,1.129-8.005.083-.663.162-1.323.231-1.976s.13-1.3.159-1.893l.008-.212,0-.192c0-.05,0-.121,0-.148s0-.043,0-.046,0,0,0,0a.713.713,0,0,0,.016.132.311.311,0,0,1-.016-.035l-.013-.038-.025-.075-.069-.2-.074-.211-.162-.448-.173-.461-.355-.929c-.967-2.495-1.984-5.007-3-7.511l-3.079-7.516q-3.1-7.512-6.235-15.012Z" transform="translate(-1462.325 -1226.799)" fill="#383e56"/>
        </g>
      </g>
      <g id="Group_22904" data-name="Group 22904" transform="translate(11.711 26.624)">
        <path id="Path_50646" data-name="Path 50646" d="M1417.4,1099.942c-.2-.69-.394-1.382-.57-2.06-.116-.448-.219-.9-.312-1.328-.211-.981-.382-1.966-.554-2.933-.081-.457-.134-.9-.193-1.333-.146-1.072-.262-2.132-.355-3.189-.04-.457-.1-.888-.1-1.331a83.5,83.5,0,0,1,.25-8.784,31.2,31.2,0,0,1,.5-4.777c1.162-4.456,3.006-6,7.474-4.23a1.606,1.606,0,0,1,.664.5c1.761,2.311,2.429,3.637,2.324,6.791a48.251,48.251,0,0,0,.627,11.294c.048.222.132.585.213.865.115.4.228.815.362,1.261.188.624.394,1.288.623,1.945.138.4.289.829.455,1.261.3.764.661,1.574,1.041,2.321.106.208.246.46.359.652s.208.355.316.531c.258.417.546.843.8,1.246s.5.754.752,1.146c.11.171.22.34.326.517a10.188,10.188,0,0,1-2.273.806c-2.107.4-4.384.389-6.456.871a33.488,33.488,0,0,0-5.039,2.019c-.268-.914-.568-1.854-.844-2.764C1417.655,1100.8,1417.519,1100.366,1417.4,1099.942Z" transform="translate(-1415.296 -1069.26)" fill="#fff"/>
      </g>
      <path id="Path_50647" data-name="Path 50647" d="M1448.012,1011.158s2.583.147,2.5,1.779-2.986-.2-2.986-.2S1446.8,1010.906,1448.012,1011.158Z" transform="translate(-1429.847 -994.957)" fill="#2d334a"/>
      <path id="Path_50648" data-name="Path 50648" d="M1430.15,1019.14c2.322,2.179,5.721,2.328,7.053.909s.091-3.868-2.231-6.047-4.582-2.138-5.914-.719S1427.828,1016.961,1430.15,1019.14Z" transform="translate(-1414.168 -995.898)" fill="#af7d61"/>
      <path id="Path_50649" data-name="Path 50649" d="M1437.79,1042.388l3.31-.473a53.118,53.118,0,0,1,.511,6.414c-.1.509-.918.776-1.828.6-.818-.16-1.427-.626-1.47-1.089h0A44.091,44.091,0,0,0,1437.79,1042.388Z" transform="translate(-1422.037 -1020.206)" fill="#af7d61"/>
      <path id="Path_50650" data-name="Path 50650" d="M1448.732,1037.063c.35-.632.912-.278,2.217.085s3.314-.306,2.8-3.025c-.218-1.15.436-.408.9.221a3.611,3.611,0,0,1,.694,1.552,2.428,2.428,0,0,1-.7,2.194,4.8,4.8,0,0,1-4.123,1.159,2.1,2.1,0,0,1-1.839-1.63A.84.84,0,0,1,1448.732,1037.063Z" transform="translate(-1430.953 -1013.32)" fill="#2d334a"/>
      <path id="Path_50651" data-name="Path 50651" d="M1426.172,1015.356a5.139,5.139,0,0,1-.472-3.554c.555-1.667,2.752-3.823,5.264-2.376,0,0,1.691,1.191.081,3.109s-2.173.657-2.233,2.38-1.481,1.793-1.457,2.155Z" transform="translate(-1411.984 -993.165)" fill="#2d334a"/>
      <path id="Path_50652" data-name="Path 50652" d="M1433.689,1050.443a1.856,1.856,0,0,0,2.1.228c.367-.391.021-.9-.519-1.407s-1.344-.665-1.711-.273A.955.955,0,0,0,1433.689,1050.443Z" transform="translate(-1418.341 -1025.829)" fill="#af7d61"/>
      <g id="Group_22905" data-name="Group 22905" transform="translate(17.745 29.651)">
        <path id="Path_50653" data-name="Path 50653" d="M1449.753,1086.231c.922,6.864-2.738,13.165.449,19.52,1.123.549,2.248,1.092,3.369,1.642.391-1.213.754-2.432,1.117-3.653-4.136-5.622-1.9-11.279-3.49-17.64C1450.716,1086.137,1450.235,1086.185,1449.753,1086.231Z" transform="translate(-1448.872 -1086.101)" fill="#383e56"/>
      </g>
      <g id="Group_22906" data-name="Group 22906" transform="translate(0 56.771)">
        <rect id="Rectangle_5232" data-name="Rectangle 5232" width="17.302" height="25.914" transform="matrix(0.893, 0.449, -0.449, 0.893, 11.644, 0)" fill="#f6d2a6"/>
        <rect id="Rectangle_5233" data-name="Rectangle 5233" width="8.053" height="4.798" transform="translate(15.97 6.39) rotate(26.702)" fill="#f0b56c"/>
      </g>
      <path id="Path_50654" data-name="Path 50654" d="M1389.041,1246.714a2.088,2.088,0,0,1,1.359,1.266c.592,1.567,1.608,4.561,1.114,5.466-.68,1.246-3.313-3.466-2.829-6.838Z" transform="translate(-1381.708 -1188.109)" fill="#af7d61"/>
      <g id="Group_22907" data-name="Group 22907" transform="translate(1.435 28.209)">
        <path id="Path_50655" data-name="Path 50655" d="M1365.6,1109.145c-1,.325-1.8.846-2.8,1.25-5.8-13.1-9-26.274,7.756-32.086,3.781-1.312,3.134,3.261-.662,4.369C1356.876,1086.477,1362.21,1099.711,1365.6,1109.145Z" transform="translate(-1358.123 -1078.075)" fill="#fff"/>
      </g>
    </g>
    <g id="Group_22915" data-name="Group 22915" transform="translate(358.746 390.42)">
      <g id="Group_22914" data-name="Group 22914" transform="translate(0)">
        <path id="Path_50656" data-name="Path 50656" d="M1116.877,1167.269s5.877,37.2,9.43,42.061c0,0-4.3,3.966-8.3,2.847-6.587-1.846-5.281-26.69-3.532-38.794A12.224,12.224,0,0,1,1116.877,1167.269Z" transform="translate(-1089.966 -1144.894)" fill="#454a5f"/>
        <path id="Path_50657" data-name="Path 50657" d="M1245.268,1153.852s3.529-3.579,4.788-3.447-1.715,3.918-4.657,4.677Z" transform="translate(-1198.411 -1131.059)" fill="#fff"/>
        <g id="Group_22909" data-name="Group 22909" transform="translate(20.835 16.462)">
          <path id="Path_50658" data-name="Path 50658" d="M1126.825,1139.968c.541.655,1.073,1.283,1.582,1.931-12.334,8.823-17.765,6.773-27.062-4.429-1.422-1.713-1.015-2.165.7-2.8-.087-.4-.089-.4,0,0,1.713-.635,1.966-.148,3.139,1.331C1112.854,1145.673,1116.207,1146.238,1126.825,1139.968Z" transform="translate(-1100.482 -1134.371)" fill="#454a5f"/>
        </g>
        <g id="Group_22910" data-name="Group 22910" transform="translate(5.987 16.15)">
          <path id="Path_50659" data-name="Path 50659" d="M1022.761,1163.592c-.872.47-1.588.85-2.39,1.219-4.22-16.9-4.428-21.511,10.087-31.818,2.22-1.577,3.65,2.444.19,4.129C1018.5,1143.037,1020.22,1152.057,1022.761,1163.592Z" transform="translate(-1017.872 -1132.632)" fill="#454a5f"/>
        </g>
        <g id="Group_22911" data-name="Group 22911" transform="translate(18.297 40.127)">
          <path id="Path_50660" data-name="Path 50660" d="M1095.661,1323.677c-.979.44-1.037,1.242-2.062,1.561-3.079-18.062-3.038-41.177-7.234-57.5,2.712-.585,5.43-1.14,8.148-1.7C1097.769,1285.085,1091.586,1302.12,1095.661,1323.677Z" transform="translate(-1086.365 -1266.038)" fill="#fff"/>
        </g>
        <path id="Path_50661" data-name="Path 50661" d="M1094.513,1266.038c-2.718.556-5.436,1.111-8.148,1.7,3.894,15.154,3.862,36.11,6.339,53.492l2.583.306C1091.99,1300.98,1097.66,1284.449,1094.513,1266.038Z" transform="translate(-1068.068 -1225.912)" fill="#2d334a"/>
        <g id="Group_22912" data-name="Group 22912" transform="translate(14.51 40.409)">
          <path id="Path_50662" data-name="Path 50662" d="M1070.949,1325.2c-1.005.376-1.115,1.172-2.159,1.424-1.9-18.224-.367-41.287-3.5-57.851,2.744-.409,5.493-.786,8.241-1.165C1075.55,1286.826,1068.278,1303.424,1070.949,1325.2Z" transform="translate(-1065.293 -1267.608)" fill="#fff"/>
        </g>
        <path id="Path_50663" data-name="Path 50663" d="M1073.534,1267.607c-2.748.379-5.5.756-8.241,1.165,2.906,15.374,1.517,36.284,2.864,53.79l2.557.473C1068.754,1302.312,1075.483,1286.183,1073.534,1267.607Z" transform="translate(-1050.783 -1227.199)" fill="#2d334a"/>
        <path id="Path_50664" data-name="Path 50664" d="M1008.79,1181.539q.362-1.168.711-2.376a292.378,292.378,0,0,0,6.477-29.626c1.582-9.316,1.109-13.415,2.617-17.943.633-1.9.745-3.02,2.276-3.962a6.346,6.346,0,0,1,.582-.317,3.872,3.872,0,0,1,.878-.308c3.01-.638,4.815,3.376,5.313,6.107.1.533.2.941.285,1.281v0c.407,1.563.578,1.652-.784,5.536-.589,1.68.728,11.5,1.317,14.807.191,1.073.317,2.972.741,4.929,2.531,11.708,4.157,24.214,5.507,36.285.047.422.095.845.141,1.265a12.375,12.375,0,0,1-3.663-.49c-2.833-.8-5.433-2.165-8.337-2.743a15.023,15.023,0,0,0-5.8.1,28.546,28.546,0,0,1-3.512.827,7.722,7.722,0,0,1-5.011-1.079c-1.066-.686-2.665-.78-3.634-2.184A65.507,65.507,0,0,0,1008.79,1181.539Z" transform="translate(-1001.24 -1111.813)" fill="#f4c68e"/>
        <path id="Path_50665" data-name="Path 50665" d="M1037.685,1184.077a16.055,16.055,0,0,1-7.163-1.749A292.377,292.377,0,0,0,1037,1152.7c1.582-9.316,1.109-13.415,2.617-17.943.633-1.9.745-3.02,2.276-3.962-.071,2.987.975,9.47,1.234,21.512C1043.453,1167.457,1037.685,1184.077,1037.685,1184.077Z" transform="translate(-1022.261 -1114.977)" fill="#454a5f"/>
        <g id="Group_22913" data-name="Group 22913" transform="translate(0 45.957)">
          <rect id="Rectangle_5234" data-name="Rectangle 5234" width="22.306" height="33.408" transform="matrix(0.916, -0.402, 0.402, 0.916, 0, 8.965)" fill="#fff"/>
          <rect id="Rectangle_5235" data-name="Rectangle 5235" width="15.657" height="0.84" transform="matrix(0.916, -0.402, 0.402, 0.916, 5.071, 12.038)" fill="#999"/>
          <rect id="Rectangle_5236" data-name="Rectangle 5236" width="15.657" height="0.84" transform="matrix(0.916, -0.402, 0.402, 0.916, 6.349, 14.949)" fill="#999"/>
          <rect id="Rectangle_5237" data-name="Rectangle 5237" width="15.657" height="0.84" transform="matrix(0.916, -0.402, 0.402, 0.916, 7.626, 17.859)" fill="#999"/>
          <rect id="Rectangle_5238" data-name="Rectangle 5238" width="15.657" height="0.84" transform="matrix(0.916, -0.402, 0.402, 0.916, 8.904, 20.77)" fill="#999"/>
          <rect id="Rectangle_5239" data-name="Rectangle 5239" width="15.657" height="0.84" transform="matrix(0.916, -0.402, 0.402, 0.916, 10.181, 23.68)" fill="#999"/>
          <rect id="Rectangle_5240" data-name="Rectangle 5240" width="15.657" height="0.84" transform="translate(11.458 26.591) rotate(-23.697)" fill="#999"/>
          <rect id="Rectangle_5241" data-name="Rectangle 5241" width="15.657" height="0.84" transform="matrix(0.916, -0.402, 0.402, 0.916, 12.736, 29.501)" fill="#999"/>
        </g>
        <path id="Path_50666" data-name="Path 50666" d="M1124.891,1581.236a7.583,7.583,0,0,0,3.881,4.926s1.446.951-.645.648-5.064-1.871-5.753-3.187c0,0-1.182,1.983-1.2,1.28s-.1-3.912-.1-3.912Z" transform="translate(-1096.535 -1484.259)" fill="#383e56"/>
        <path id="Path_50667" data-name="Path 50667" d="M1082.554,1581.236a7.584,7.584,0,0,0,3.881,4.926s1.446.951-.646.648-5.064-1.871-5.753-3.187c0,0-1.182,1.983-1.2,1.28s-.1-3.912-.1-3.912Z" transform="translate(-1061.807 -1484.259)" fill="#383e56"/>
        <path id="Path_50668" data-name="Path 50668" d="M1107.509,1134.395v0s-2.844-5.742-4.668-6.764a5.9,5.9,0,0,1-.93-.626c3.01-.638,4.815,3.376,5.313,6.107C1107.321,1133.647,1107.42,1134.055,1107.509,1134.395Z" transform="translate(-1080.82 -1111.813)" fill="#454a5f"/>
        <path id="Path_50669" data-name="Path 50669" d="M1035.85,1306.4c.906,1.169,2.833,3.8,2.622,4.8-.238,1.124-2.98-1.353-4.026-4.083C1034.91,1306.9,1035.361,1306.661,1035.85,1306.4Z" transform="translate(-1025.48 -1259.019)" fill="#fff"/>
        <path id="Path_50670" data-name="Path 50670" d="M1067.214,1071.326s-.85,3.419-4.986,2.349-4.564-5.348-4.029-7.273,3.756-5.173,7.681-2.774S1067.214,1071.326,1067.214,1071.326Z" transform="translate(-1044.812 -1059.183)" fill="#2d334a"/>
        <path id="Path_50671" data-name="Path 50671" d="M1083.916,1077.583c1.868,2.379,5.039,3.007,6.494,1.866s.64-3.62-1.228-6-4-2.665-5.451-1.523S1082.049,1075.2,1083.916,1077.583Z" transform="translate(-1064.961 -1066.156)" fill="#fff"/>
        <path id="Path_50672" data-name="Path 50672" d="M1092.433,1100.153l3.136-.51a50.57,50.57,0,0,1,.6,6.083c-.085.485-.858.755-1.726.6-.78-.137-1.367-.569-1.416-1.007h0A41.853,41.853,0,0,0,1092.433,1100.153Z" transform="translate(-1073.045 -1089.422)" fill="#fff"/>
        <path id="Path_50673" data-name="Path 50673" d="M1035.3,1055.207a3.708,3.708,0,0,0-2.757-4c-3.209-1.044-6.888.138-6.49,3.5s3.679,7.339,7.458,6.1S1035.3,1055.207,1035.3,1055.207Z" transform="translate(-1018.568 -1049.387)" fill="#2d334a"/>
        <path id="Path_50674" data-name="Path 50674" d="M1007.978,1046.086a2.808,2.808,0,0,0-2.089-3.032c-2.43-.791-5.217.1-4.915,2.651s2.786,5.558,5.648,4.617S1007.978,1046.086,1007.978,1046.086Z" transform="translate(-998.005 -1042.776)" fill="#2d334a"/>
        <path id="Path_50675" data-name="Path 50675" d="M1075.012,1070.732a5.612,5.612,0,0,0-2.132,6.665c.705,2.087-5.284-3.511-5.284-3.511S1071.425,1068.367,1075.012,1070.732Z" transform="translate(-1052.672 -1065.224)" fill="#2d334a"/>
        <path id="Path_50676" data-name="Path 50676" d="M1086.387,1108.662a1.762,1.762,0,0,0,1.942.516c.4-.315.149-.843-.286-1.4s-1.167-.817-1.568-.5A.907.907,0,0,0,1086.387,1108.662Z" transform="translate(-1067.861 -1095.575)" fill="#fff"/>
      </g>
    </g>
    <g id="Group_22924" data-name="Group 22924" transform="translate(457.919 382.273)">
      <path id="Path_50677" data-name="Path 50677" d="M1642.855,1044.3s.675,2.637,1.729,2.437.761-2.151.246-2.437A4.447,4.447,0,0,0,1642.855,1044.3Z" transform="translate(-1623.714 -1035.773)" fill="#2d334a"/>
      <g id="Group_22916" data-name="Group 22916" transform="translate(34.156 99.022)">
        <path id="Path_50678" data-name="Path 50678" d="M1730.185,1558.3a1.123,1.123,0,0,1-1.592-.7l-2.154-7.779a1.122,1.122,0,1,1,2.163-.6l2.154,7.779A1.123,1.123,0,0,1,1730.185,1558.3Z" transform="translate(-1726.398 -1548.399)" fill="#fff"/>
      </g>
      <g id="Group_22917" data-name="Group 22917" transform="translate(18.741 38.066)">
        <path id="Path_50679" data-name="Path 50679" d="M1659.944,1275.2a34.8,34.8,0,0,1-3.243,1.677c-5.459-18.678-8.815-48.337-16.072-64.354,2.984-1.125,5.985-2.2,8.987-3.277C1656.13,1227.536,1652.872,1252.689,1659.944,1275.2Z" transform="translate(-1640.629 -1209.246)" fill="#383e56"/>
      </g>
      <path id="Path_50680" data-name="Path 50680" d="M1733.046,1595.533s-.695,2.886,0,2.966,10.7.383,10.756-.08c.2-1.584-7.977-3.047-8.779-2.886S1733.137,1595.114,1733.046,1595.533Z" transform="translate(-1697.441 -1487.912)" fill="#515770"/>
      <g id="Group_22918" data-name="Group 22918" transform="translate(7.809 99.022)">
        <path id="Path_50681" data-name="Path 50681" d="M1580.414,1558.3a1.123,1.123,0,0,0,1.592-.7l2.155-7.779a1.122,1.122,0,1,0-2.163-.6l-2.154,7.779A1.122,1.122,0,0,0,1580.414,1558.3Z" transform="translate(-1579.802 -1548.399)" fill="#fff"/>
      </g>
      <g id="Group_22919" data-name="Group 22919" transform="translate(8.308 38.066)">
        <path id="Path_50682" data-name="Path 50682" d="M1582.581,1275.2a34.809,34.809,0,0,0,3.244,1.677c5.459-18.678,8.815-48.337,16.071-64.354-2.984-1.125-5.985-2.2-8.987-3.277C1586.395,1227.536,1589.653,1252.689,1582.581,1275.2Z" transform="translate(-1582.581 -1209.246)" fill="#383e56"/>
      </g>
      <path id="Path_50683" data-name="Path 50683" d="M1547.115,1595.533s.695,2.886,0,2.966-10.7.383-10.756-.08c-.2-1.584,7.977-3.047,8.779-2.886S1547.024,1595.114,1547.115,1595.533Z" transform="translate(-1536.355 -1487.912)" fill="#515770"/>
      <g id="Group_22920" data-name="Group 22920" transform="translate(15.48 11.693)">
        <path id="Path_50684" data-name="Path 50684" d="M1622.676,1078.532c-.028.41-.033.891-.057,1.341-.055,1.042-.081,2.124-.092,3.192,0,.432-.009.881,0,1.335.011.96.032,1.921.075,2.9.018.43.044.876.073,1.333.045.692.106,1.4.187,2.11.05.438.106.885.168,1.348.173,1.29-.733,3.434-.506,4.721,1-.126,2.592-1.032,3.721-1.046a34.352,34.352,0,0,1,5.242.437c.076.012.223.036.3.05a42.128,42.128,0,0,1,5.9,1.426c-.313-1.267-.616-2.579-.9-3.841-.108-.48-.2-.919-.292-1.375-.106-.522-.2-1.014-.293-1.523-.04-.215-.076-.418-.112-.621-.047-.262-.093-.542-.134-.79-.146-.891-.287-1.815-.41-2.686-.07-.492-.133-.977-.192-1.429-.1-.749-.187-1.514-.265-2.219-.056-.5-.105-1.024-.154-1.458-.034-.305-.062-.779-.085-.987a55.271,55.271,0,0,1-.431-10.746c.309-2.865-.457-3.869-2.036-5.781a3.815,3.815,0,0,0-.634-.517c-3.107-2.264-7.07-1.3-8.093,2.6a21.681,21.681,0,0,0-.477,4.071C1623,1072.964,1622.855,1075.855,1622.676,1078.532Z" transform="translate(-1622.484 -1062.504)" fill="#f6d2a6"/>
      </g>
      <path id="Path_50685" data-name="Path 50685" d="M1608.182,1228.357s4.25,3.928,4.146,5.382-4.573-1.827-5.557-5.184Z" transform="translate(-1594.114 -1186.856)" fill="#fff"/>
      <g id="Group_22921" data-name="Group 22921" transform="translate(3.399 12.489)">
        <path id="Path_50686" data-name="Path 50686" d="M1566.454,1095.856a14.135,14.135,0,0,0-2.013,2.05c-12.613-14.024-13.581-23.95,5.71-30.684,4.354-1.52,5.483,3.446.233,4.763C1552.384,1076.5,1559.138,1084.948,1566.454,1095.856Z" transform="translate(-1555.266 -1066.937)" fill="#f6d2a6"/>
      </g>
      <path id="Path_50687" data-name="Path 50687" d="M1817.983,1134.541s4.363-3.8,5.8-3.541-2.309,4.349-5.753,4.966Z" transform="translate(-1767.366 -1106.986)" fill="#fff"/>
      <g id="Group_22922" data-name="Group 22922" transform="translate(23.083 14.652)">
        <path id="Path_50688" data-name="Path 50688" d="M1692.488,1091.472a18.089,18.089,0,0,0,1.69,2.354c-16.388,10.367-25.71,9.244-29.3-11.459-.811-4.672,4.2-4.632,4.687.762C1671.24,1101.622,1679.648,1097.5,1692.488,1091.472Z" transform="translate(-1664.787 -1078.967)" fill="#f6d2a6"/>
      </g>
      <path id="Path_50689" data-name="Path 50689" d="M1661.823,1000.989s2.541.778,2.062,2.386-2.93-.928-2.93-.928S1660.675,1000.44,1661.823,1000.989Z" transform="translate(-1638.536 -1000.274)" fill="#2d334a"/>
      <path id="Path_50690" data-name="Path 50690" d="M1639.012,1007.212c1.783,2.741,5.138,3.721,6.813,2.632s1.036-3.836-.747-6.577-4.048-3.253-5.723-2.163S1637.229,1004.471,1639.012,1007.212Z" transform="translate(-1619.625 -1000.008)" fill="#fff"/>
      <path id="Path_50691" data-name="Path 50691" d="M1646.434,1033.479l3.418-.334a54.627,54.627,0,0,1,.231,6.6c-.125.517-.978.755-1.9.53-.832-.2-1.435-.708-1.458-1.184h0A45.252,45.252,0,0,0,1646.434,1033.479Z" transform="translate(-1626.649 -1026.729)" fill="#fff"/>
      <path id="Path_50692" data-name="Path 50692" d="M1652.664,1032.292c.5-.545.978-.054,2.191.627s3.381.5,3.531-2.333c.064-1.2.534-.3.844.44a3.71,3.71,0,0,1,.313,1.717,2.5,2.5,0,0,1-1.231,2.019,4.933,4.933,0,0,1-4.4.148,2.158,2.158,0,0,1-1.436-2.076A.861.861,0,0,1,1652.664,1032.292Z" transform="translate(-1631.607 -1024.149)" fill="#2d334a"/>
      <path id="Path_50693" data-name="Path 50693" d="M1634.945,1003.163a5.278,5.278,0,0,1,.4-3.66c.961-1.528,3.679-3.141,5.832-1.083,0,0,1.4,1.6-.679,3.121s-2.328.124-2.809,1.828-1.916,1.427-1.98,1.794Z" transform="translate(-1617.092 -997.446)" fill="#2d334a"/>
      <path id="Path_50694" data-name="Path 50694" d="M1638.625,1038.934c.415.638,1.579,1.042,2.041.741s.241-.893-.174-1.531-1.178-.991-1.64-.691A.981.981,0,0,0,1638.625,1038.934Z" transform="translate(-1620.053 -1030.174)" fill="#fff"/>
      <g id="Group_22923" data-name="Group 22923" transform="translate(19.769 15.007)">
        <path id="Path_50695" data-name="Path 50695" d="M1648.577,1081.243c2.575,9.62-3.693,11-1.9,18.985l2.831,2.508,2.08-3.246c-3.066-7.5,1.922-9.96-1.585-18.546C1649.527,1081.034,1649.052,1081.143,1648.577,1081.243Z" transform="translate(-1646.35 -1080.945)" fill="#383e56"/>
      </g>
      <path id="Path_50696" data-name="Path 50696" d="M1671.983,1035.07a8.8,8.8,0,0,1,.89-2.183c.418-.488,1.4-.141,1.606-.228s-.63-.8-1.175-.746a2.36,2.36,0,0,0-1.456,1.518C1671.648,1034.24,1671.383,1035.448,1671.983,1035.07Z" transform="translate(-1647.304 -1025.716)" fill="#2d334a"/>
    </g>
    <g id="Group_22925" data-name="Group 22925" transform="translate(513.296 402.275)">
      <rect id="Rectangle_5242" data-name="Rectangle 5242" width="19.126" height="19.126" transform="translate(0 1.425)" fill="#454a5f"/>
      <path id="Path_50697" data-name="Path 50697" d="M1860.782,1117.282l6.32,6.32,14.865-14.865" transform="translate(-1857.85 -1108.738)" fill="none" stroke="#fff" stroke-linecap="round" stroke-linejoin="round" stroke-width="7.976"/>
    </g>
    <g id="Group_22926" data-name="Group 22926" transform="translate(412.839 341.218)">
      <path id="Path_50698" data-name="Path 50698" d="M1326.643,782.391c-2.813,6.656-6.147,13.025-8.923,19.666-12.54-5.885-19.994-5.593-32.192-14.908,4.208-6.11,8.615-12.087,12.922-18.128C1308.794,776.962,1315.2,777.4,1326.643,782.391Z" transform="translate(-1285.528 -769.022)" fill="#fff"/>
      <path id="Path_50699" data-name="Path 50699" d="M1327.849,800.48c-2.833,4.341-5.839,8.558-8.658,12.908-.238-.2-.476-.39-.713-.587,2.831-4.356,5.964-8.5,8.8-12.851Z" transform="translate(-1312.557 -794.391)" fill="#999"/>
      <path id="Path_50700" data-name="Path 50700" d="M1342.361,811.327c-2.706,4.409-5.521,8.726-8.112,13.2-.254-.185-.5-.379-.75-.569,2.681-4.427,5.51-8.733,8.275-13.109C1341.967,811.011,1342.157,811.179,1342.361,811.327Z" transform="translate(-1324.876 -803.334)" fill="#999"/>
      <path id="Path_50701" data-name="Path 50701" d="M1358.2,820.477c-2.489,4.528-5.027,9.021-7.381,13.621l-.809-.513c2.353-4.6,5.081-8.982,7.566-13.507Z" transform="translate(-1338.421 -810.902)" fill="#999"/>
      <path id="Path_50702" data-name="Path 50702" d="M1375.077,827.945c-2.3,4.659-4.532,9.316-6.728,14.023a8.916,8.916,0,0,1-.878-.366c2.333-4.619,4.434-9.334,6.877-13.9C1374.592,827.779,1374.835,827.859,1375.077,827.945Z" transform="translate(-1352.744 -817.154)" fill="#999"/>
      <path id="Path_50703" data-name="Path 50703" d="M1393.24,833.215c-2.2,4.617-4.011,9.349-6.028,14.04l-.913-.218c2.027-4.717,3.927-9.43,6.2-14.044A4.49,4.49,0,0,0,1393.24,833.215Z" transform="translate(-1368.188 -821.496)" fill="#999"/>
      <path id="Path_50704" data-name="Path 50704" d="M1412.275,836.329c-2.1,4.568-3.755,9.324-5.674,13.971a8.665,8.665,0,0,1-.942-.041c1.985-4.668,3.664-9.443,5.764-14.064C1411.709,836.228,1411.991,836.279,1412.275,836.329Z" transform="translate(-1384.068 -824.122)" fill="#999"/>
      <path id="Path_50705" data-name="Path 50705" d="M1431.29,839.525c-1.991,4.491-3.648,9.132-5.53,13.674l-.879-.093c1.895-4.572,3.554-9.242,5.544-13.77Z" transform="translate(-1399.835 -826.699)" fill="#999"/>
    </g>
    <g id="Group_22927" data-name="Group 22927" transform="translate(436.422 317.461)">
      <path id="Path_50706" data-name="Path 50706" d="M1429.476,674.971c-4.41-5.724-8.314-11.761-12.729-17.446,11.294-8.02,14.708-14.653,28.82-20.688,3.249,6.67,6.283,13.448,9.422,20.17C1442.987,662.1,1439.456,667.463,1429.476,674.971Z" transform="translate(-1416.747 -636.837)" fill="#fff"/>
      <path id="Path_50707" data-name="Path 50707" d="M1561.7,678.971c-2.385-4.6-4.577-9.294-6.977-13.889.287-.111.574-.223.862-.331,2.4,4.608,4.466,9.375,6.856,13.987Z" transform="translate(-1529.927 -659.733)" fill="#999"/>
      <path id="Path_50708" data-name="Path 50708" d="M1544.079,685.686c-2.506-4.525-4.88-9.1-7.5-13.56.286-.13.576-.249.865-.373,2.535,4.512,4.891,9.094,7.34,13.654C1544.547,685.5,1544.307,685.581,1544.079,685.686Z" transform="translate(-1515.04 -665.478)" fill="#999"/>
      <path id="Path_50709" data-name="Path 50709" d="M1526.828,694.08c-2.717-4.395-5.379-8.815-8.225-13.128l.845-.452c2.845,4.312,5.319,8.843,8.035,13.233Z" transform="translate(-1500.297 -672.652)" fill="#999"/>
      <path id="Path_50710" data-name="Path 50710" d="M1510.878,704.206c-2.926-4.292-5.88-8.529-8.9-12.757a8.891,8.891,0,0,1,.751-.585c2.873,4.3,5.944,8.453,8.719,12.828C1511.261,703.866,1511.072,704.038,1510.878,704.206Z" transform="translate(-1486.662 -681.154)" fill="#999"/>
      <path id="Path_50711" data-name="Path 50711" d="M1497.3,717.107c-2.934-4.191-6.165-8.093-9.255-12.157l.639-.687c3.108,4.086,6.276,8.059,9.174,12.31A4.5,4.5,0,0,0,1497.3,717.107Z" transform="translate(-1475.231 -692.144)" fill="#999"/>
      <path id="Path_50712" data-name="Path 50712" d="M1485.78,732.1c-2.941-4.079-6.27-7.858-9.37-11.814a8.7,8.7,0,0,1,.5-.8c3.087,4.025,6.418,7.837,9.407,11.939C1486.146,731.657,1485.963,731.877,1485.78,732.1Z" transform="translate(-1465.686 -704.631)" fill="#999"/>
      <path id="Path_50713" data-name="Path 50713" d="M1474.747,747.741c-2.93-3.944-6.155-7.669-9.183-11.543l.513-.72c3.047,3.9,6.3,7.642,9.259,11.6Z" transform="translate(-1456.79 -717.75)" fill="#999"/>
    </g>
    <g id="Group_22928" data-name="Group 22928" transform="translate(419.393 267.783)">
      <path id="Path_50714" data-name="Path 50714" d="M1342.7,400.5c-6.979-1.871-13.746-4.3-20.706-6.135,4.105-13.23,2.791-20.573,10.341-33.936,6.631,3.328,13.157,6.872,19.732,10.308C1345.626,382.075,1346.075,388.477,1342.7,400.5Z" transform="translate(-1321.996 -360.431)" fill="#fff"/>
      <path id="Path_50715" data-name="Path 50715" d="M1393.8,400.872c-4.689-2.21-9.28-4.607-13.976-6.8.161-.262.321-.525.483-.787,4.7,2.205,9.241,4.738,13.939,6.952Z" transform="translate(-1369.428 -387.379)" fill="#999"/>
      <path id="Path_50716" data-name="Path 50716" d="M1383.985,416.9c-4.739-2.074-9.4-4.269-14.193-6.22.148-.277.307-.548.46-.822,4.753,2.047,9.408,4.258,14.122,6.394C1384.244,416.466,1384.1,416.677,1383.985,416.9Z" transform="translate(-1361.202 -400.974)" fill="#999"/>
      <path id="Path_50717" data-name="Path 50717" d="M1375.592,434.1c-4.827-1.843-9.626-3.739-14.506-5.439l.4-.872c4.878,1.7,9.595,3.8,14.418,5.638Z" transform="translate(-1354.061 -415.679)" fill="#999"/>
      <path id="Path_50718" data-name="Path 50718" d="M1369.434,452.087c-4.93-1.634-9.85-3.208-14.815-4.736a8.854,8.854,0,0,1,.241-.92c4.9,1.675,9.855,3.109,14.716,4.9C1369.532,451.584,1369.486,451.836,1369.434,452.087Z" transform="translate(-1348.756 -430.974)" fill="#999"/>
      <path id="Path_50719" data-name="Path 50719" d="M1366.76,470.891c-4.876-1.549-9.812-2.688-14.735-4.041q.045-.467.09-.934c4.951,1.36,9.88,2.593,14.764,4.212A4.5,4.5,0,0,0,1366.76,470.891Z" transform="translate(-1346.628 -446.957)" fill="#999"/>
      <path id="Path_50720" data-name="Path 50720" d="M1366.612,490.186c-4.813-1.456-9.752-2.438-14.618-3.7a8.657,8.657,0,0,1-.089-.939c4.9,1.325,9.857,2.331,14.724,3.776C1366.636,489.612,1366.624,489.9,1366.612,490.186Z" transform="translate(-1346.53 -463.061)" fill="#999"/>
      <path id="Path_50721" data-name="Path 50721" d="M1367.392,509.275c-4.722-1.355-9.547-2.358-14.3-3.6q-.015-.442-.029-.883c4.789,1.248,9.643,2.25,14.4,3.6Q1367.425,508.834,1367.392,509.275Z" transform="translate(-1347.475 -478.848)" fill="#999"/>
    </g>
    <g id="Group_22929" data-name="Group 22929" transform="translate(626.13 401.514)">
      <path id="Path_50722" data-name="Path 50722" d="M2571.8,1194.249h-24.264l7.948-89.745h8.367Z" transform="translate(-2534.009 -1104.504)" fill="#454a5f"/>
      <path id="Path_50723" data-name="Path 50723" d="M2472.269,1318.368c0-6.141,11.488-13.461,25.659-13.461s25.659,7.319,25.659,13.461-11.488,8.779-25.659,8.779S2472.269,1324.509,2472.269,1318.368Z" transform="translate(-2472.269 -1268.889)" fill="#454a5f"/>
      <path id="Path_50724" data-name="Path 50724" d="M2472.27,1413.558c0-9.578,11.488-20.992,25.659-20.992s25.659,11.415,25.659,20.992-11.488,13.691-25.659,13.691S2472.27,1423.136,2472.27,1413.558Z" transform="translate(-2472.27 -1340.793)" fill="#454a5f"/>
    </g>
    <g id="Group_22930" data-name="Group 22930" transform="translate(645.447 482.672)">
      <path id="Path_50725" data-name="Path 50725" d="M2590.689,1575.722a11.382,11.382,0,0,0-10.941,8.248h21.882A11.382,11.382,0,0,0,2590.689,1575.722Z" transform="translate(-2579.747 -1572.189)" fill="#f2bf80"/>
      <path id="Path_50726" data-name="Path 50726" d="M2756.767,1575.722a11.382,11.382,0,0,0-10.941,8.248h21.882A11.382,11.382,0,0,0,2756.767,1575.722Z" transform="translate(-2715.978 -1572.189)" fill="#f2bf80"/>
      <path id="Path_50727" data-name="Path 50727" d="M2656.251,1556.062a16.258,16.258,0,0,0-15.628,11.782h31.257A16.258,16.258,0,0,0,2656.251,1556.062Z" transform="translate(-2629.682 -1556.062)" fill="#f2bf80"/>
    </g>
  </g>
</svg>
