<svg xmlns="http://www.w3.org/2000/svg" width="340.618" height="179.51" viewBox="0 0 340.618 179.51">
  <g id="Grupo_22832" data-name="Grupo 22832" transform="translate(-66.289 -47.666)">
    <path id="Trazado_50378" data-name="Trazado 50378" d="M428.683,225.006a45.964,45.964,0,0,1-7.059,24.551H137.751A73.736,73.736,0,0,1,185.6,139.822c-.065-.8-.1-1.608-.1-2.425a29.4,29.4,0,0,1,45.829-24.371,99.246,99.246,0,0,1,173.106,66.3q0,2.5-.124,4.962A46.18,46.18,0,0,1,428.683,225.006Z" transform="translate(-42.215 -22.381)" fill="#ffe7b9"/>
    <g id="Grupo_22780" data-name="Grupo 22780" transform="translate(141.47 104.121)">
      <path id="Trazado_50379" data-name="Trazado 50379" d="M343.529,288.8V230.178" transform="translate(-332.954 -230.178)" fill="none" stroke="#3d7e9c" stroke-miterlimit="10" stroke-width="5"/>
      <path id="Trazado_50380" data-name="Trazado 50380" d="M343.187,280.613s2.381-9.5,11.871-10.669" transform="translate(-332.718 -257.643)" fill="none" stroke="#3d7e9c" stroke-miterlimit="10" stroke-width="5"/>
      <path id="Trazado_50381" data-name="Trazado 50381" d="M319.81,304.131s-2.87-8.527-10.469-10.456" transform="translate(-309.341 -274.034)" fill="none" stroke="#3d7e9c" stroke-miterlimit="10" stroke-width="5"/>
    </g>
    <g id="Grupo_22781" data-name="Grupo 22781" transform="translate(73.389 175.339)">
      <path id="Trazado_50382" data-name="Trazado 50382" d="M107.051,479.013a18.527,18.527,0,0,0-17.81,13.427h35.62A18.527,18.527,0,0,0,107.051,479.013Z" transform="translate(-89.241 -473.261)" fill="#fec558"/>
      <path id="Trazado_50383" data-name="Trazado 50383" d="M264.132,479.013a18.528,18.528,0,0,0-17.81,13.427h35.621A18.527,18.527,0,0,0,264.132,479.013Z" transform="translate(-197.733 -473.261)" fill="#fec558"/>
      <path id="Trazado_50384" data-name="Trazado 50384" d="M172.259,460.418a26.464,26.464,0,0,0-25.44,19.179H197.7A26.464,26.464,0,0,0,172.259,460.418Z" transform="translate(-129.009 -460.418)" fill="#fec558"/>
    </g>
    <g id="Grupo_22782" data-name="Grupo 22782" transform="translate(66.289 60.684)">
      <path id="Trazado_50385" data-name="Trazado 50385" d="M93.755,118.428a28.572,28.572,0,0,0-27.466,20.706H121.22A28.571,28.571,0,0,0,93.755,118.428Z" transform="translate(-66.289 -109.558)" fill="#ededed"/>
      <path id="Trazado_50386" data-name="Trazado 50386" d="M335.995,118.428a28.572,28.572,0,0,0-27.466,20.706H363.46A28.572,28.572,0,0,0,335.995,118.428Z" transform="translate(-233.599 -109.558)" fill="#ededed"/>
      <path id="Trazado_50387" data-name="Trazado 50387" d="M194.314,89.751a40.812,40.812,0,0,0-39.232,29.576h78.463A40.812,40.812,0,0,0,194.314,89.751Z" transform="translate(-127.616 -89.751)" fill="#ededed"/>
    </g>
    <g id="Grupo_22783" data-name="Grupo 22783" transform="translate(70.98 81.513)">
      <path id="Trazado_50388" data-name="Trazado 50388" d="M95.945,172.221a15.076,15.076,0,0,0-14.492,10.926h28.985A15.076,15.076,0,0,0,95.945,172.221Z" transform="translate(-81.453 -167.541)" fill="#3d7e9c"/>
      <path id="Trazado_50389" data-name="Trazado 50389" d="M223.764,172.221a15.076,15.076,0,0,0-14.492,10.926h28.985A15.076,15.076,0,0,0,223.764,172.221Z" transform="translate(-169.735 -167.541)" fill="#3d7e9c"/>
      <path id="Trazado_50390" data-name="Trazado 50390" d="M149.006,157.09A21.534,21.534,0,0,0,128.3,172.7h41.4A21.534,21.534,0,0,0,149.006,157.09Z" transform="translate(-113.813 -157.09)" fill="#3d7e9c"/>
    </g>
    <path id="Trazado_50391" data-name="Trazado 50391" d="M480.548,532.414H307.721a5.783,5.783,0,0,1-5.783-5.783h0a5.783,5.783,0,0,1,5.783-5.783H480.548a5.783,5.783,0,0,1,5.783,5.783h0A5.783,5.783,0,0,1,480.548,532.414Z" transform="translate(-162.758 -326.817)" fill="#fec558"/>
    <g id="Grupo_22784" data-name="Grupo 22784" transform="translate(353.756 162.118)">
      <path id="Trazado_50392" data-name="Trazado 50392" d="M1006.878,429.415a11.694,11.694,0,0,0-11.242,8.475h22.483A11.694,11.694,0,0,0,1006.878,429.415Z" transform="translate(-995.636 -425.784)" fill="#ffe3ad"/>
      <path id="Trazado_50393" data-name="Trazado 50393" d="M1106.025,429.415a11.694,11.694,0,0,0-11.241,8.475h22.483A11.694,11.694,0,0,0,1106.025,429.415Z" transform="translate(-1064.115 -425.784)" fill="#ffe3ad"/>
      <path id="Trazado_50394" data-name="Trazado 50394" d="M1048.036,417.677a16.7,16.7,0,0,0-16.057,12.106h32.114A16.7,16.7,0,0,0,1048.036,417.677Z" transform="translate(-1020.737 -417.677)" fill="#ffe3ad"/>
    </g>
    <path id="Trazado_50395" data-name="Trazado 50395" d="M321.011,437.855H296.14l-4.106-38.461h33.085Z" transform="translate(-155.917 -242.931)" fill="#5be4e8"/>
    <g id="Grupo_22791" data-name="Grupo 22791" transform="translate(180.381 50.167)">
      <rect id="Rectángulo_5200" data-name="Rectángulo 5200" width="101.992" height="134.696" rx="16.826" transform="translate(0 13.652)" fill="#2b596e"/>
      <rect id="Rectángulo_5201" data-name="Rectángulo 5201" width="121.086" height="88.574" transform="translate(95.283 20.457) rotate(90)" fill="#fff"/>
      <path id="Trazado_50396" data-name="Trazado 50396" d="M569.977,66.963H555.224a2.195,2.195,0,0,1-2.195-2.195h0a2.224,2.224,0,0,1,.291-1.087A5.336,5.336,0,1,0,544,63.673a2.255,2.255,0,0,1,.295,1.1,2.2,2.2,0,0,1-2.195,2.195H527.342a1.675,1.675,0,0,0-1.675,1.676v9.872h45.986V68.639A1.675,1.675,0,0,0,569.977,66.963Zm-21.318-4.6a1.585,1.585,0,1,1,1.585-1.585A1.585,1.585,0,0,1,548.66,62.362Z" transform="translate(-497.664 -55.75)" fill="#fe5e5a"/>
      <rect id="Rectángulo_5202" data-name="Rectángulo 5202" width="9.206" height="9.206" transform="translate(17.146 38.433)" fill="none" stroke="#e0e0e0" stroke-miterlimit="10" stroke-width="7"/>
      <path id="Trazado_50397" data-name="Trazado 50397" d="M498.389,165.364a22.069,22.069,0,0,0-6.518,11.057s-1.981-5.678-4.934-8.375" transform="translate(-470.914 -131.458)" fill="none" stroke="#fe5e5a" stroke-linecap="round" stroke-linejoin="round" stroke-width="6"/>
      <rect id="Rectángulo_5203" data-name="Rectángulo 5203" width="9.206" height="9.206" transform="translate(17.146 61.394)" fill="none" stroke="#e0e0e0" stroke-miterlimit="10" stroke-width="7"/>
      <path id="Trazado_50398" data-name="Trazado 50398" d="M498.389,239.6a22.068,22.068,0,0,0-6.518,11.056s-1.981-5.678-4.934-8.375" transform="translate(-470.914 -182.728)" fill="none" stroke="#fe5e5a" stroke-linecap="round" stroke-linejoin="round" stroke-width="6"/>
      <rect id="Rectángulo_5204" data-name="Rectángulo 5204" width="9.206" height="9.206" transform="translate(17.146 84.355)" fill="none" stroke="#e0e0e0" stroke-miterlimit="10" stroke-width="7"/>
      <path id="Trazado_50399" data-name="Trazado 50399" d="M498.389,313.825a22.07,22.07,0,0,0-6.518,11.057s-1.981-5.678-4.934-8.375" transform="translate(-470.914 -233.997)" fill="none" stroke="#fe5e5a" stroke-linecap="round" stroke-linejoin="round" stroke-width="6"/>
      <rect id="Rectángulo_5205" data-name="Rectángulo 5205" width="9.206" height="9.206" transform="translate(17.146 107.316)" fill="none" stroke="#e0e0e0" stroke-miterlimit="10" stroke-width="7"/>
      <g id="Grupo_22785" data-name="Grupo 22785" transform="translate(33.852 38.433)">
        <path id="Trazado_50400" data-name="Trazado 50400" d="M571.2,182.263H545.705a1.131,1.131,0,0,1-1.131-1.131h0A1.131,1.131,0,0,1,545.705,180H571.2a1.132,1.132,0,0,1,1.131,1.132h0A1.132,1.132,0,0,1,571.2,182.263Z" transform="translate(-544.574 -180)" fill="#969696"/>
        <path id="Trazado_50401" data-name="Trazado 50401" d="M666.661,182.263H650.917a1.132,1.132,0,0,1-1.131-1.131h0A1.132,1.132,0,0,1,650.917,180h15.744a1.132,1.132,0,0,1,1.131,1.132h0A1.132,1.132,0,0,1,666.661,182.263Z" transform="translate(-617.242 -180)" fill="#cbcbcb"/>
        <path id="Trazado_50402" data-name="Trazado 50402" d="M589.663,197.144H545.705a1.131,1.131,0,0,1-1.131-1.132h0a1.131,1.131,0,0,1,1.131-1.132h43.958a1.132,1.132,0,0,1,1.132,1.132h0A1.132,1.132,0,0,1,589.663,197.144Z" transform="translate(-544.574 -190.278)" fill="#cbcbcb"/>
        <path id="Trazado_50403" data-name="Trazado 50403" d="M556.153,212.025H545.705a1.131,1.131,0,0,1-1.131-1.132h0a1.131,1.131,0,0,1,1.131-1.132h10.448a1.132,1.132,0,0,1,1.131,1.132h0A1.132,1.132,0,0,1,556.153,212.025Z" transform="translate(-544.574 -200.556)" fill="#cbcbcb"/>
        <path id="Trazado_50404" data-name="Trazado 50404" d="M602.819,212.025H592.371a1.132,1.132,0,0,1-1.131-1.132h0a1.132,1.132,0,0,1,1.131-1.132h10.448a1.131,1.131,0,0,1,1.131,1.132h0A1.131,1.131,0,0,1,602.819,212.025Z" transform="translate(-576.805 -200.556)" fill="#cbcbcb"/>
        <path id="Trazado_50405" data-name="Trazado 50405" d="M659.442,212.025H640.464a1.132,1.132,0,0,1-1.131-1.132h0a1.132,1.132,0,0,1,1.131-1.132h18.977a1.132,1.132,0,0,1,1.132,1.132h0A1.132,1.132,0,0,1,659.442,212.025Z" transform="translate(-610.022 -200.556)" fill="#cbcbcb"/>
      </g>
      <g id="Grupo_22786" data-name="Grupo 22786" transform="translate(33.852 61.394)">
        <path id="Trazado_50406" data-name="Trazado 50406" d="M593.994,256.493H545.705a1.131,1.131,0,0,1-1.131-1.132h0a1.131,1.131,0,0,1,1.131-1.131h48.288a1.132,1.132,0,0,1,1.131,1.131h0A1.132,1.132,0,0,1,593.994,256.493Z" transform="translate(-544.574 -254.23)" fill="#969696"/>
        <path id="Trazado_50407" data-name="Trazado 50407" d="M579.971,271.375H545.705a1.131,1.131,0,0,1-1.131-1.132h0a1.131,1.131,0,0,1,1.131-1.131h34.266a1.131,1.131,0,0,1,1.131,1.131h0A1.132,1.132,0,0,1,579.971,271.375Z" transform="translate(-544.574 -264.509)" fill="#cbcbcb"/>
        <path id="Trazado_50408" data-name="Trazado 50408" d="M681.543,271.375h-9.079a1.132,1.132,0,0,1-1.132-1.132h0a1.131,1.131,0,0,1,1.132-1.131h9.079a1.131,1.131,0,0,1,1.132,1.131h0A1.132,1.132,0,0,1,681.543,271.375Z" transform="translate(-632.124 -264.509)" fill="#cbcbcb"/>
        <path id="Trazado_50409" data-name="Trazado 50409" d="M571.2,286.256H545.705a1.131,1.131,0,0,1-1.131-1.131h0a1.131,1.131,0,0,1,1.131-1.131H571.2a1.131,1.131,0,0,1,1.131,1.131h0A1.131,1.131,0,0,1,571.2,286.256Z" transform="translate(-544.574 -274.787)" fill="#cbcbcb"/>
      </g>
      <g id="Grupo_22787" data-name="Grupo 22787" transform="translate(17.146 128.759)">
        <path id="Trazado_50410" data-name="Trazado 50410" d="M523.66,473.527H491.326a.758.758,0,0,1-.758-.758h0a.758.758,0,0,1,.758-.758H523.66a.758.758,0,0,1,.757.758h0A.758.758,0,0,1,523.66,473.527Z" transform="translate(-490.568 -472.012)" fill="#fe8784"/>
        <path id="Trazado_50411" data-name="Trazado 50411" d="M514.27,483.492H491.326a.758.758,0,0,1-.758-.758h0a.758.758,0,0,1,.758-.758H514.27a.758.758,0,0,1,.758.758h0A.758.758,0,0,1,514.27,483.492Z" transform="translate(-490.568 -478.895)" fill="#fe8784"/>
      </g>
      <g id="Grupo_22788" data-name="Grupo 22788" transform="translate(33.852 84.355)">
        <path id="Trazado_50412" data-name="Trazado 50412" d="M563.088,330.723H545.705a1.131,1.131,0,0,1-1.131-1.131h0a1.131,1.131,0,0,1,1.131-1.132h17.382a1.131,1.131,0,0,1,1.131,1.132h0A1.131,1.131,0,0,1,563.088,330.723Z" transform="translate(-544.574 -328.46)" fill="#969696"/>
        <path id="Trazado_50413" data-name="Trazado 50413" d="M643.556,330.723H617.464a1.131,1.131,0,0,1-1.131-1.131h0a1.132,1.132,0,0,1,1.131-1.132h26.092a1.132,1.132,0,0,1,1.131,1.132h0A1.131,1.131,0,0,1,643.556,330.723Z" transform="translate(-594.136 -328.46)" fill="#969696"/>
        <rect id="Rectángulo_5206" data-name="Rectángulo 5206" width="27.754" height="2.263" rx="1.131" transform="translate(0 4.603)" fill="#cbcbcb"/>
        <rect id="Rectángulo_5207" data-name="Rectángulo 5207" width="18.007" height="2.263" rx="1.131" transform="translate(32.544 4.603)" fill="#cbcbcb"/>
      </g>
      <g id="Grupo_22789" data-name="Grupo 22789" transform="translate(33.852 107.316)">
        <path id="Trazado_50414" data-name="Trazado 50414" d="M580.59,404.954H545.705a1.131,1.131,0,0,1-1.131-1.131h0a1.131,1.131,0,0,1,1.131-1.132H580.59a1.131,1.131,0,0,1,1.132,1.132h0A1.131,1.131,0,0,1,580.59,404.954Z" transform="translate(-544.574 -402.691)" fill="#969696"/>
        <path id="Trazado_50415" data-name="Trazado 50415" d="M564.108,419.835h-18.4a1.131,1.131,0,0,1-1.131-1.132h0a1.131,1.131,0,0,1,1.131-1.132h18.4a1.132,1.132,0,0,1,1.132,1.132h0A1.132,1.132,0,0,1,564.108,419.835Z" transform="translate(-544.574 -412.969)" fill="#cbcbcb"/>
        <path id="Trazado_50416" data-name="Trazado 50416" d="M645.628,419.835H620.464a1.132,1.132,0,0,1-1.131-1.132h0a1.132,1.132,0,0,1,1.131-1.132h25.164a1.132,1.132,0,0,1,1.132,1.132h0A1.132,1.132,0,0,1,645.628,419.835Z" transform="translate(-596.208 -412.969)" fill="#cbcbcb"/>
        <path id="Trazado_50417" data-name="Trazado 50417" d="M578.734,434.716H545.705a1.131,1.131,0,0,1-1.131-1.132h0a1.131,1.131,0,0,1,1.131-1.131h33.029a1.132,1.132,0,0,1,1.132,1.131h0A1.132,1.132,0,0,1,578.734,434.716Z" transform="translate(-544.574 -423.247)" fill="#cbcbcb"/>
        <path id="Trazado_50418" data-name="Trazado 50418" d="M678.551,434.716H668.132A1.132,1.132,0,0,1,667,433.584h0a1.132,1.132,0,0,1,1.132-1.131h10.419a1.132,1.132,0,0,1,1.131,1.131h0A1.132,1.132,0,0,1,678.551,434.716Z" transform="translate(-629.131 -423.247)" fill="#cbcbcb"/>
      </g>
      <g id="Grupo_22790" data-name="Grupo 22790" transform="translate(19.034 101.661)">
        <path id="Trazado_50419" data-name="Trazado 50419" d="M498.346,393.678a2.191,2.191,0,0,1-.1-.721c0-2.565,2.012-2.8,2.012-5.717,0-.838-.335-1.157-.922-1.157s-.922.319-.922,1.157v1.274h-1.743v-1.157c0-1.878.922-2.951,2.716-2.951s2.716,1.073,2.716,2.951c0,3.051-2.179,3.521-2.179,5.667a2.9,2.9,0,0,0,.067.654Zm1.693.822v1.777h-1.777V394.5Z" transform="translate(-496.669 -384.407)" fill="#fe8784"/>
      </g>
    </g>
    <g id="Grupo_22793" data-name="Grupo 22793" transform="translate(290.183 115.695)">
      <path id="Trazado_50420" data-name="Trazado 50420" d="M804.42,274.75a7.154,7.154,0,1,0-9.2,6.856l2.046,5.231,2.045-5.231A7.156,7.156,0,0,0,804.42,274.75Z" transform="translate(-790.111 -267.596)" fill="#fff"/>
      <g id="Grupo_22792" data-name="Grupo 22792" transform="translate(4.438 1.4)">
        <path id="Trazado_50421" data-name="Trazado 50421" d="M806.136,281.393a2.2,2.2,0,0,1-.1-.721c0-2.565,2.012-2.8,2.012-5.717,0-.838-.335-1.157-.922-1.157s-.922.319-.922,1.157v1.274h-1.744v-1.157c0-1.878.922-2.951,2.716-2.951s2.716,1.073,2.716,2.951c0,3.051-2.18,3.521-2.18,5.666a2.881,2.881,0,0,0,.067.654Zm1.693.822v1.777h-1.777v-1.777Z" transform="translate(-804.459 -272.122)" fill="#fe8784"/>
      </g>
    </g>
    <g id="Grupo_22794" data-name="Grupo 22794" transform="translate(288.078 98.98)">
      <path id="Trazado_50422" data-name="Trazado 50422" d="M785.412,253.847l-2.1,3.645h4.209Z" transform="translate(-783.308 -241.385)" fill="#5be4e8"/>
      <path id="Trazado_50423" data-name="Trazado 50423" d="M785.412,233.7l-2.1,3.645h4.209Z" transform="translate(-783.308 -227.472)" fill="#5be4e8"/>
      <path id="Trazado_50424" data-name="Trazado 50424" d="M785.412,213.559l-2.1,3.645h4.209Z" transform="translate(-783.308 -213.559)" fill="#5be4e8"/>
    </g>
    <g id="Grupo_22795" data-name="Grupo 22795" transform="translate(306.652 118.313)">
      <path id="Trazado_50425" data-name="Trazado 50425" d="M845.458,316.347l-2.1,3.645h4.209Z" transform="translate(-843.354 -303.885)" fill="#bef6f7"/>
      <path id="Trazado_50426" data-name="Trazado 50426" d="M845.458,296.2l-2.1,3.645h4.209Z" transform="translate(-843.354 -289.972)" fill="#bef6f7"/>
      <path id="Trazado_50427" data-name="Trazado 50427" d="M845.458,276.058l-2.1,3.645h4.209Z" transform="translate(-843.354 -276.058)" fill="#bef6f7"/>
    </g>
    <g id="Grupo_22796" data-name="Grupo 22796" transform="translate(301.826 76.252)">
      <path id="Trazado_50428" data-name="Trazado 50428" d="M829.857,180.369l-2.1,3.645h4.209Z" transform="translate(-827.753 -167.907)" fill="#a1f5f7"/>
      <path id="Trazado_50429" data-name="Trazado 50429" d="M829.857,160.225l-2.1,3.645h4.209Z" transform="translate(-827.753 -153.993)" fill="#a1f5f7"/>
      <path id="Trazado_50430" data-name="Trazado 50430" d="M829.857,140.08l-2.1,3.645h4.209Z" transform="translate(-827.753 -140.08)" fill="#a1f5f7"/>
    </g>
    <g id="Grupo_22798" data-name="Grupo 22798" transform="translate(254.311 141.774)">
      <rect id="Rectángulo_5208" data-name="Rectángulo 5208" width="2.311" height="27.218" transform="matrix(0.887, -0.461, 0.461, 0.887, 23.54, 30.966)" fill="#3b3e54"/>
      <rect id="Rectángulo_5209" data-name="Rectángulo 5209" width="3.704" height="19.752" transform="translate(26.685 38.522) rotate(-27.483)" fill="#e65551"/>
      <g id="Grupo_22797" data-name="Grupo 22797" transform="translate(0 0)">
        <path id="Trazado_50431" data-name="Trazado 50431" d="M693.7,365.26a14.579,14.579,0,1,0,19.661,6.206A14.578,14.578,0,0,0,693.7,365.26Zm12.849,24.7a13.265,13.265,0,1,1,5.647-17.89A13.265,13.265,0,0,1,706.55,389.961Z" transform="translate(-682.227 -359.991)" fill="#3b3e54"/>
        <circle id="Elipse_1229" data-name="Elipse 1229" cx="13.265" cy="13.265" r="13.265" transform="translate(0 13.662) rotate(-30.996)" fill="#fff" opacity="0.61"/>
      </g>
    </g>
    <rect id="Rectángulo_5210" data-name="Rectángulo 5210" width="30.998" height="20.628" transform="translate(237.943 178.086)" fill="#fe716d"/>
    <path id="Trazado_50432" data-name="Trazado 50432" d="M657.25,463.543V459.75H666.1v4.1" transform="translate(-408.164 -284.618)" fill="none" stroke="#458fb0" stroke-linecap="round" stroke-linejoin="round" stroke-width="5"/>
    <path id="Rectángulo_5211" data-name="Rectángulo 5211" d="M0,0H28.973a0,0,0,0,1,0,0V3.119a7.2,7.2,0,0,1-7.2,7.2H7.2A7.2,7.2,0,0,1,0,3.119V0A0,0,0,0,1,0,0Z" transform="translate(238.956 178.086)" fill="#e65551"/>
    <path id="Trazado_50433" data-name="Trazado 50433" d="M668.888,505.588h-1.556a.318.318,0,0,1-.316-.277l-.35-2.67h2.887l-.35,2.67A.318.318,0,0,1,668.888,505.588Z" transform="translate(-414.668 -314.241)" fill="#2b596e"/>
    <g id="Grupo_22799" data-name="Grupo 22799" transform="translate(112.009 133.248)">
      <path id="Trazado_50434" data-name="Trazado 50434" d="M448.205,327.943l-1.231-.465.249,1.341Z" transform="translate(-374.94 -326.508)" fill="#fe8784"/>
      <path id="Trazado_50435" data-name="Trazado 50435" d="M441.782,326.765l-.249-1.341-2.437-.92.743,4Z" transform="translate(-369.498 -324.453)" fill="#fff"/>
      <path id="Trazado_50436" data-name="Trazado 50436" d="M283.693,324.392l-.132-.05L214.1,337.26l.77,4.14,69.465-12.917.1-.094Z" transform="translate(-214.096 -324.342)" fill="#fe5e5a"/>
    </g>
    <g id="Grupo_22801" data-name="Grupo 22801" transform="translate(217.294 202.957)">
      <path id="Trazado_50437" data-name="Trazado 50437" d="M785.8,561.433v3.51H763.966" transform="translate(-699.165 -557.805)" fill="none" stroke="#fe716d" stroke-miterlimit="10" stroke-width="6"/>
      <rect id="Rectángulo_5212" data-name="Rectángulo 5212" width="3.475" height="4.528" transform="translate(90.451 4.09) rotate(-90)" fill="#fe8784"/>
      <path id="Trazado_50438" data-name="Trazado 50438" d="M557.952,556.258h0a.471.471,0,0,1-.471.471h-2.538a.471.471,0,0,1-.471-.471h0a.471.471,0,0,1,.471-.471h2.538A.471.471,0,0,1,557.952,556.258Z" transform="translate(-554.472 -553.905)" fill="#3d4061"/>
      <g id="Grupo_22800" data-name="Grupo 22800" transform="translate(1.985)">
        <path id="Trazado_50439" data-name="Trazado 50439" d="M560.889,551.336v1.44l3.509,1.633V549.7Z" transform="translate(-560.889 -549.703)" fill="#fe8784"/>
        <rect id="Rectángulo_5213" data-name="Rectángulo 5213" width="85.782" height="4.706" transform="translate(3.509)" fill="#5a4825"/>
      </g>
    </g>
    <g id="Grupo_22802" data-name="Grupo 22802" transform="translate(284.946 76.344)">
      <path id="Trazado_50440" data-name="Trazado 50440" d="M787.489,147.532a7.154,7.154,0,1,0-9.2,6.856l2.046,5.23,2.045-5.23A7.157,7.157,0,0,0,787.489,147.532Z" transform="translate(-773.18 -140.378)" fill="#fff"/>
      <path id="Trazado_50441" data-name="Trazado 50441" d="M793.645,153.74l-.228-4.115v-4.749h1.789v4.749l-.228,4.115Zm1.529.8v1.724h-1.724v-1.724Z" transform="translate(-787.157 -143.485)" fill="#fe8784"/>
    </g>
    <g id="Grupo_22804" data-name="Grupo 22804" transform="translate(297.337 96.626)">
      <path id="Trazado_50442" data-name="Trazado 50442" d="M827.549,213.1a7.154,7.154,0,1,0-9.2,6.856l2.046,5.23,2.046-5.23A7.156,7.156,0,0,0,827.549,213.1Z" transform="translate(-813.24 -205.947)" fill="#fff"/>
      <g id="Grupo_22803" data-name="Grupo 22803" transform="translate(3.032 6.936)">
        <path id="Trazado_50443" data-name="Trazado 50443" d="M824.767,228.371v1.724h-1.724v-1.724Z" transform="translate(-823.043 -228.371)" fill="#fe8784"/>
        <path id="Trazado_50444" data-name="Trazado 50444" d="M834.547,228.371v1.724h-1.724v-1.724Z" transform="translate(-829.798 -228.371)" fill="#fe8784"/>
        <path id="Trazado_50445" data-name="Trazado 50445" d="M844.328,228.371v1.724H842.6v-1.724Z" transform="translate(-836.553 -228.371)" fill="#fe8784"/>
      </g>
    </g>
    <g id="Grupo_22806" data-name="Grupo 22806" transform="translate(318.295 138.639)">
      <g id="Grupo_22805" data-name="Grupo 22805">
        <rect id="Rectángulo_5214" data-name="Rectángulo 5214" width="15.003" height="41.801" fill="#fe716d"/>
        <rect id="Rectángulo_5215" data-name="Rectángulo 5215" width="15.003" height="41.801" transform="translate(15.003)" fill="#e65551"/>
      </g>
      <ellipse id="Elipse_1230" data-name="Elipse 1230" cx="9.668" cy="6.298" rx="9.668" ry="6.298" transform="translate(24.509 21.808) rotate(-69.799)" fill="none" stroke="#e65551" stroke-miterlimit="10" stroke-width="6"/>
    </g>
    <path id="Trazado_50446" data-name="Trazado 50446" d="M941.834,144.175c0-6.854,4.331-6.854,4.331-13.708s-4.331-6.855-4.331-13.709,4.331-6.855,4.331-13.709-4.331-6.855-4.331-13.709,4.331-6.855,4.331-13.711-4.331-6.855-4.331-13.711" transform="translate(-604.72 -9.844)" fill="none" stroke="#fff" stroke-linecap="round" stroke-linejoin="round" stroke-width="3"/>
    <path id="Trazado_50447" data-name="Trazado 50447" d="M922.917,174.789c0-6.854,4.331-6.854,4.331-13.708s-4.331-6.855-4.331-13.709,4.331-6.855,4.331-13.709-4.331-6.855-4.331-13.709,4.331-6.855,4.331-13.711" transform="translate(-591.655 -40.458)" fill="none" stroke="#fff" stroke-linecap="round" stroke-linejoin="round" stroke-width="3"/>
    <g id="Grupo_22807" data-name="Grupo 22807" transform="translate(302.029 166.57)">
      <path id="Trazado_50448" data-name="Trazado 50448" d="M846.414,450.869a18.732,18.732,0,0,0-18.006,13.575h36.013A18.732,18.732,0,0,0,846.414,450.869Z" transform="translate(-828.408 -445.054)" fill="#fec558"/>
      <path id="Trazado_50449" data-name="Trazado 50449" d="M1005.228,450.869a18.731,18.731,0,0,0-18.007,13.575h36.013A18.731,18.731,0,0,0,1005.228,450.869Z" transform="translate(-938.097 -445.054)" fill="#fec558"/>
      <path id="Trazado_50450" data-name="Trazado 50450" d="M912.341,432.069a26.756,26.756,0,0,0-25.72,19.39h51.44A26.756,26.756,0,0,0,912.341,432.069Z" transform="translate(-868.614 -432.069)" fill="#fec558"/>
    </g>
    <g id="Grupo_22815" data-name="Grupo 22815" transform="translate(284.423 132.367)">
      <g id="Grupo_22808" data-name="Grupo 22808" transform="translate(28.789 55.539)">
        <path id="Trazado_50451" data-name="Trazado 50451" d="M869.47,504.541a.631.631,0,0,0-.116-.969l-3.823-2.428a.63.63,0,0,0-.675,1.063l3.823,2.428A.63.63,0,0,0,869.47,504.541Z" transform="translate(-864.564 -501.046)" fill="#fff"/>
      </g>
      <path id="Trazado_50452" data-name="Trazado 50452" d="M873.219,508.6s1.436.843,1.2,1.155-4.009,4.472-4.219,4.315c-.718-.536,1.874-4.409,2.251-4.67S873.014,508.473,873.219,508.6Z" transform="translate(-839.58 -450.712)" fill="#3c6063"/>
      <path id="Trazado_50453" data-name="Trazado 50453" d="M773.059,325.179s-.413-3.22-1.112-3.645-.652,2.685.563,4.227Z" transform="translate(-771.492 -321.494)" fill="#fff"/>
      <g id="Grupo_22809" data-name="Grupo 22809" transform="translate(0.485 3.314)">
        <path id="Trazado_50454" data-name="Trazado 50454" d="M774.444,332.209c-.467.243-.929.459-1.383.687,3.429,7.364,7.58,9.947,15.5,9.137,1.212-.124,1.307-.543,1.105-1.538.143-.123.147-.108,0,0-.2-1-.485-1.151-1.716-1.026C779.908,340.28,779.009,338.828,774.444,332.209Z" transform="translate(-773.061 -332.209)" fill="#3c6063"/>
      </g>
      <g id="Grupo_22810" data-name="Grupo 22810" transform="translate(13.525 59.522)">
        <path id="Trazado_50455" data-name="Trazado 50455" d="M816.749,519.62a.631.631,0,0,0,.618-.756l-.9-4.437a.63.63,0,0,0-1.234.251l.9,4.438A.63.63,0,0,0,816.749,519.62Z" transform="translate(-815.216 -513.923)" fill="#fff"/>
      </g>
      <g id="Grupo_22811" data-name="Grupo 22811" transform="translate(10.802 25.158)">
        <path id="Trazado_50456" data-name="Trazado 50456" d="M809.282,440.307a16.44,16.44,0,0,0,2.005-.185c-2-10.668-3.506-24.985,1.831-34.956q-2.43-1.192-4.881-2.341C804.337,411.513,807.658,431.13,809.282,440.307Z" transform="translate(-806.413 -402.826)" fill="#3d4061"/>
      </g>
      <g id="Grupo_22812" data-name="Grupo 22812" transform="translate(13.523 24.972)">
        <path id="Trazado_50457" data-name="Trazado 50457" d="M832.665,435.895c.472-.517.93-1.042,1.356-1.6-11.875-9.037-15.355-16.166-13.357-31.277q-2.722-.433-5.454-.8C815.408,418.91,820.329,425.633,832.665,435.895Z" transform="translate(-815.211 -402.226)" fill="#292b3b"/>
      </g>
      <path id="Trazado_50458" data-name="Trazado 50458" d="M809.238,529.442s.39,1.619,0,1.664-6,.215-6.035-.045c-.112-.889,4.476-1.709,4.925-1.619S809.187,529.207,809.238,529.442Z" transform="translate(-793.393 -465.059)" fill="#3c6063"/>
      <g id="Grupo_22813" data-name="Grupo 22813" transform="translate(11.284 9.382)">
        <path id="Trazado_50459" data-name="Trazado 50459" d="M815.856,370.992a12.863,12.863,0,0,0-4.314-.77,20.669,20.669,0,0,0-3.569.111c3.83-8.22,4.494-12.317,4.147-14.625a3.188,3.188,0,0,1,1.2-3.013l.36-.277a2.843,2.843,0,0,1,4.523,1.706,17.168,17.168,0,0,1,.284,2.378A32.748,32.748,0,0,1,815.856,370.992Z" transform="translate(-807.972 -351.827)" fill="#5c9399"/>
      </g>
      <path id="Trazado_50460" data-name="Trazado 50460" d="M819.749,361.18s.367-3.39-.243-3.995-1.323,2.582-.461,4.453Z" transform="translate(-804.06 -346.093)" fill="#fff"/>
      <g id="Grupo_22814" data-name="Grupo 22814" transform="translate(14.604 10.992)">
        <path id="Trazado_50461" data-name="Trazado 50461" d="M820.387,361.032c-.557.077-1.107.158-1.681.219,2.008,12.874,13.656,6.954,7.019-3.2-1.015-1.553-1.583-.966-2.157-.586-.432.286-.843,1.141.02,2.256C829.235,367.008,822.177,370.441,820.387,361.032Z" transform="translate(-818.706 -357.029)" fill="#3c6063"/>
      </g>
      <path id="Trazado_50462" data-name="Trazado 50462" d="M825.84,334.248c-.718,1.765-2.529,2.695-3.608,2.256s-1.016-2.081-.3-3.845,1.958-2.307,3.036-1.868S826.558,332.483,825.84,334.248Z" transform="translate(-805.967 -327.815)" fill="#fff"/>
      <path id="Trazado_50463" data-name="Trazado 50463" d="M834.617,343.4c-.167.41-.789.77-1.086.649s-.236-.484-.069-.9.565-.7.862-.576A.572.572,0,0,1,834.617,343.4Z" transform="translate(-814.197 -336.038)" fill="#fff"/>
      <path id="Trazado_50464" data-name="Trazado 50464" d="M828.6,332.581a3.076,3.076,0,0,0-.631-2.05,2.23,2.23,0,0,0-3.456.023s-.622,1.07.732,1.711,1.346-.186,1.809.736,1.253.605,1.33.808Z" transform="translate(-808.015 -327.168)" fill="#1a1a1a"/>
      <path id="Trazado_50465" data-name="Trazado 50465" d="M829.938,342.058l-1.991-.195a31.86,31.86,0,0,0-.135,3.848c.073.3.57.44,1.109.309.485-.118.836-.412.85-.69h0A26.343,26.343,0,0,1,829.938,342.058Z" transform="translate(-810.372 -335.563)" fill="#fff"/>
      <path id="Trazado_50466" data-name="Trazado 50466" d="M824.112,343.146c-.348-.256-.566.077-1.184.6s-1.878.661-2.277-.946c-.254-1.024-.511.78-.512.781a1.593,1.593,0,0,0,1.014,1.6,3.141,3.141,0,0,0,3.1-.831C824.354,343.9,824.349,343.321,824.112,343.146Z" transform="translate(-805.091 -335.993)" fill="#1a1a1a"/>
      <path id="Trazado_50467" data-name="Trazado 50467" d="M820.908,343.34l.073.023c.377.119,2.094.69,2.374,1.3.315.687-.887-.118-1.281-.521s-.752-.27-1.1-.3S820.39,343.42,820.908,343.34Z" transform="translate(-805.414 -336.583)" fill="#1a1a1a"/>
    </g>
    <g id="Grupo_22816" data-name="Grupo 22816" transform="translate(108.424 188.302)">
      <path id="Trazado_50468" data-name="Trazado 50468" d="M218.393,518.912a16.526,16.526,0,0,0-15.886,11.976h31.772A16.525,16.525,0,0,0,218.393,518.912Z" transform="translate(-202.507 -513.782)" fill="#fffaf0"/>
      <path id="Trazado_50469" data-name="Trazado 50469" d="M358.5,518.912a16.526,16.526,0,0,0-15.886,11.976H374.39A16.526,16.526,0,0,0,358.5,518.912Z" transform="translate(-299.279 -513.782)" fill="#fffaf0"/>
      <path id="Trazado_50470" data-name="Trazado 50470" d="M276.556,502.326a23.6,23.6,0,0,0-22.691,17.106h45.383A23.605,23.605,0,0,0,276.556,502.326Z" transform="translate(-237.979 -502.326)" fill="#fffaf0"/>
    </g>
    <g id="Grupo_22825" data-name="Grupo 22825" transform="translate(120.66 134.76)">
      <g id="Grupo_22817" data-name="Grupo 22817" transform="translate(26.119 56.998)">
        <path id="Trazado_50471" data-name="Trazado 50471" d="M327.133,519.2a.632.632,0,0,1-.618-.756l.9-4.438a.63.63,0,0,1,1.234.251l-.9,4.438A.63.63,0,0,1,327.133,519.2Z" transform="translate(-326.502 -513.498)" fill="#fff"/>
      </g>
      <path id="Trazado_50472" data-name="Trazado 50472" d="M325.607,529.02s-.39,1.619,0,1.664,6,.215,6.035-.045c.112-.889-4.476-1.709-4.926-1.619S325.658,528.785,325.607,529.02Z" transform="translate(-299.646 -467.161)" fill="#1a1c2e"/>
      <path id="Trazado_50473" data-name="Trazado 50473" d="M393.42,345.367s-.628-3.186-1.354-3.563-.471,2.723.844,4.18Z" transform="translate(-345.392 -337.893)" fill="#fff"/>
      <g id="Grupo_22818" data-name="Grupo 22818" transform="translate(36.039 7.155)">
        <path id="Trazado_50474" data-name="Trazado 50474" d="M371.1,352.6c-.58-.1-1.178-.169-1.777-.238-.438,9.107-4.876,14.146-7.971,2.555-.473-1.773-1.41-.812-2.133-.2-.146-.253-.143-.257,0,0-.723.608-.919.4-.152,2.173C364.077,368.459,371.325,363.929,371.1,352.6Z" transform="translate(-358.574 -352.362)" fill="#292b3b"/>
      </g>
      <g id="Grupo_22819" data-name="Grupo 22819" transform="translate(37.095 56.998)">
        <path id="Trazado_50475" data-name="Trazado 50475" d="M362.618,519.2a.631.631,0,0,1-.618-.756l.9-4.438a.63.63,0,0,1,1.234.251l-.9,4.438A.631.631,0,0,1,362.618,519.2Z" transform="translate(-361.987 -513.498)" fill="#fff"/>
      </g>
      <g id="Grupo_22820" data-name="Grupo 22820" transform="translate(35.275 22.628)">
        <path id="Trazado_50476" data-name="Trazado 50476" d="M359.941,439.872a16.444,16.444,0,0,1-2.006-.185c2-10.669,3.507-24.989-1.831-34.961q2.43-1.192,4.882-2.341C364.887,411.075,361.565,430.694,359.941,439.872Z" transform="translate(-356.104 -402.386)" fill="#292b3b"/>
      </g>
      <g id="Grupo_22821" data-name="Grupo 22821" transform="translate(26.088 22.705)">
        <path id="Trazado_50477" data-name="Trazado 50477" d="M328.378,439.742a20.662,20.662,0,0,1-1.977-.674c4.993-9.758,8.648-25.118,7.775-36.228,1.815-.094,3.634-.154,5.451-.206C338.946,413.752,332.7,429.72,328.378,439.742Z" transform="translate(-326.401 -402.634)" fill="#3b3e54"/>
      </g>
      <path id="Trazado_50478" data-name="Trazado 50478" d="M361.092,529.02s-.39,1.619,0,1.664,6,.215,6.035-.045c.113-.889-4.476-1.709-4.926-1.619S361.143,528.785,361.092,529.02Z" transform="translate(-324.154 -467.161)" fill="#1a1c2e"/>
      <g id="Grupo_22822" data-name="Grupo 22822" transform="translate(32.99 6.809)">
        <path id="Trazado_50479" data-name="Trazado 50479" d="M357.343,370.688c-1.064-.355-3.256.214-4.313,0a12.285,12.285,0,0,0-3.864-.109c-.2-4.83-.029-9.884-.382-14.62a6.8,6.8,0,0,1,.059-2.336,3.077,3.077,0,0,1,1.451-2.066,3.14,3.14,0,0,1,2.97.129,2.417,2.417,0,0,1,.467.282,4.1,4.1,0,0,1,1.319,3.235A141.86,141.86,0,0,0,357.343,370.688Z" transform="translate(-348.716 -351.244)" fill="#292b3b"/>
      </g>
      <path id="Trazado_50480" data-name="Trazado 50480" d="M327.361,420.082s.721,3.333.178,4-1.587-2.429-.926-4.381Z" transform="translate(-300.313 -391.716)" fill="#fff"/>
      <g id="Grupo_22823" data-name="Grupo 22823" transform="translate(25.904 9.121)">
        <path id="Trazado_50481" data-name="Trazado 50481" d="M327.356,378.363c-.522-.049-1.035-.116-1.549-.192,1.326-8.7,1.657-11.29,6.571-18.611.752-1.12,1.067-1.031,1.938-.276.2-.094.183-.109,0,0,.871.755.746,1.007-.082,2.12C328.824,368.683,329.727,369.841,327.356,378.363Z" transform="translate(-325.807 -358.717)" fill="#292b3b"/>
      </g>
      <path id="Trazado_50482" data-name="Trazado 50482" d="M357.258,351.97l-.091,3.023-.112,3.8-1.578-3.529-1.657-3.7a3.14,3.14,0,0,1,2.97.129A2.416,2.416,0,0,1,357.258,351.97Z" transform="translate(-319.251 -344.435)" fill="#bef6f7"/>
      <path id="Trazado_50483" data-name="Trazado 50483" d="M353.077,334.159c1.039,1.6,2.994,2.168,3.97,1.534s.6-2.235-.435-3.833-2.359-1.9-3.335-1.26S352.038,332.562,353.077,334.159Z" transform="translate(-318.278 -329.961)" fill="#fff"/>
      <path id="Trazado_50484" data-name="Trazado 50484" d="M353.09,344.023c.242.371.92.607,1.189.432s.14-.52-.1-.892-.686-.578-.955-.4A.572.572,0,0,0,353.09,344.023Z" transform="translate(-318.654 -338.808)" fill="#fff"/>
      <path id="Trazado_50485" data-name="Trazado 50485" d="M355.31,341.512l1.992-.195a31.816,31.816,0,0,1,.134,3.848c-.073.3-.57.44-1.109.309-.485-.118-.836-.412-.85-.69h0A26.371,26.371,0,0,0,355.31,341.512Z" transform="translate(-320.28 -337.579)" fill="#fff"/>
      <path id="Trazado_50486" data-name="Trazado 50486" d="M357.465,341.588c.294-.317.57-.031,1.277.365s1.97.294,2.058-1.359c.056-1.054.65.669.651.67a1.593,1.593,0,0,1-.694,1.763,3.142,3.142,0,0,1-3.205-.229C357.37,342.375,357.265,341.8,357.465,341.588Z" transform="translate(-321.694 -336.844)" fill="#1a1c2e"/>
      <path id="Trazado_50487" data-name="Trazado 50487" d="M363.806,341.155l-.068.036c-.348.188-1.926,1.074-2.086,1.727-.18.734.848-.284,1.159-.754s.688-.407,1.026-.506S364.33,341.136,363.806,341.155Z" transform="translate(-324.646 -337.466)" fill="#1a1c2e"/>
      <path id="Trazado_50488" data-name="Trazado 50488" d="M351.461,332.562a3.073,3.073,0,0,1,.232-2.133,2.23,2.23,0,0,1,3.4-.631,1.188,1.188,0,0,1-.4,1.818c-1.209.886-1.357.072-1.637,1.065s-1.116.831-1.153,1.045Z" transform="translate(-317.556 -329.231)" fill="#1a1c2e"/>
      <path id="Trazado_50489" data-name="Trazado 50489" d="M360.866,358.819l-.112,3.8-1.578-3.529.062-2.3h.7Z" transform="translate(-322.951 -348.26)" fill="#fe5e5a"/>
      <g id="Grupo_22824" data-name="Grupo 22824" transform="translate(0 28.302)">
        <rect id="Rectángulo_5216" data-name="Rectángulo 5216" width="48.8" height="7.68" transform="translate(0.684) rotate(5.109)" fill="#fff"/>
        <path id="Trazado_50490" data-name="Trazado 50490" d="M257.716,427.746l.523,1.352,1.41.335-1.124.915.117,1.445-1.218-.786-1.338.558.371-1.4-.944-1.1,1.448-.08Z" transform="translate(-251.353 -425.575)" fill="#5be4e8"/>
        <path id="Trazado_50491" data-name="Trazado 50491" d="M281.1,429.837l.523,1.352,1.41.335-1.124.915.117,1.445-1.218-.786-1.338.558.371-1.4-.944-1.1,1.448-.08Z" transform="translate(-267.503 -427.019)" fill="#57dade"/>
        <path id="Trazado_50492" data-name="Trazado 50492" d="M304.482,431.928l.523,1.352,1.41.335-1.124.915.117,1.445-1.218-.786-1.338.558.371-1.4-.944-1.1,1.448-.08Z" transform="translate(-283.653 -428.463)" fill="#4dc1c4"/>
        <path id="Trazado_50493" data-name="Trazado 50493" d="M327.865,434.018l.523,1.352,1.41.335-1.124.915.117,1.445-1.218-.786-1.338.558.371-1.4-.944-1.1,1.448-.08Z" transform="translate(-299.803 -429.907)" fill="#44abad"/>
        <path id="Trazado_50494" data-name="Trazado 50494" d="M351.248,436.109l.523,1.352,1.41.335-1.124.915.117,1.445-1.218-.786-1.338.558.371-1.4-.944-1.1,1.448-.08Z" transform="translate(-315.954 -431.351)" fill="#3b9596"/>
        <path id="Trazado_50495" data-name="Trazado 50495" d="M374.631,438.2l.523,1.352,1.41.335-1.124.915.117,1.445-1.218-.786-1.338.558.371-1.4-.944-1.1,1.448-.08Z" transform="translate(-332.104 -432.795)" fill="#3c6063"/>
      </g>
    </g>
    <g id="Grupo_22826" data-name="Grupo 22826" transform="translate(161.027 109.627)">
      <path id="Trazado_50496" data-name="Trazado 50496" d="M386.61,264.245c7.267-1.421,10.637-4.186,10.147-6.688l-24.191,4.729S379.343,265.666,386.61,264.245Z" transform="translate(-372.566 -254.594)" fill="#3c6063"/>
      <path id="Trazado_50497" data-name="Trazado 50497" d="M384.838,248.567c-7.267,1.421-12.272,7.1-12.272,7.1l24.191-4.729C396.268,248.439,392.105,247.147,384.838,248.567Z" transform="translate(-372.566 -247.979)" fill="#5c9399"/>
    </g>
    <g id="Grupo_22827" data-name="Grupo 22827" transform="translate(161.047 96.724)">
      <path id="Trazado_50498" data-name="Trazado 50498" d="M384.143,219.624c4.264-6.054,4.783-10.381,2.7-11.85l-14.193,20.153S379.879,225.678,384.143,219.624Z" transform="translate(-372.643 -207.307)" fill="#3c6063"/>
      <path id="Trazado_50499" data-name="Trazado 50499" d="M376.581,213.264c-4.264,6.054-3.945,13.62-3.945,13.62l14.193-20.153C384.744,205.263,380.845,207.21,376.581,213.264Z" transform="translate(-372.631 -206.265)" fill="#5c9399"/>
    </g>
    <g id="Grupo_22828" data-name="Grupo 22828" transform="translate(143.851 82.088)">
      <path id="Trazado_50500" data-name="Trazado 50500" d="M332.9,168.881c-1.719-7.2-4.62-10.455-7.1-9.863l5.722,23.976S334.615,176.083,332.9,168.881Z" transform="translate(-323.087 -158.949)" fill="#3c6063"/>
      <path id="Trazado_50501" data-name="Trazado 50501" d="M317.867,171.177c1.719,7.2,7.6,11.969,7.6,11.969l-5.722-23.976C317.268,159.762,316.148,163.974,317.867,171.177Z" transform="translate(-317.039 -159.102)" fill="#5c9399"/>
    </g>
    <g id="Grupo_22829" data-name="Grupo 22829" transform="translate(119.925 107.671)">
      <path id="Trazado_50502" data-name="Trazado 50502" d="M253,245.347c-6.143-4.134-10.481-4.562-11.9-2.446l20.45,13.762S259.139,249.481,253,245.347Z" transform="translate(-240.657 -241.654)" fill="#3c6063"/>
      <path id="Trazado_50503" data-name="Trazado 50503" d="M246.87,255.79c6.143,4.134,13.7,3.655,13.7,3.655l-20.45-13.762C238.7,247.8,240.727,251.656,246.87,255.79Z" transform="translate(-239.687 -244.437)" fill="#5c9399"/>
    </g>
    <g id="Grupo_22830" data-name="Grupo 22830" transform="translate(118.318 121.187)">
      <path id="Trazado_50504" data-name="Trazado 50504" d="M244.4,285.887c-7.2,1.743-10.44,4.655-9.839,7.134l23.956-5.8S251.6,284.143,244.4,285.887Z" transform="translate(-234.494 -285.352)" fill="#3c6063"/>
      <path id="Trazado_50505" data-name="Trazado 50505" d="M246.734,299.028c7.2-1.743,11.944-7.643,11.944-7.643l-23.956,5.8C235.321,299.666,239.537,300.771,246.734,299.028Z" transform="translate(-234.651 -289.519)" fill="#5c9399"/>
    </g>
    <g id="Grupo_22831" data-name="Grupo 22831" transform="translate(152.007 85.39)">
      <path id="Trazado_50506" data-name="Trazado 50506" d="M354.918,182.98c4.264-6.054,4.783-10.381,2.7-11.849l-14.193,20.152S350.654,189.035,354.918,182.98Z" transform="translate(-343.418 -170.664)" fill="#3c6063"/>
      <path id="Trazado_50507" data-name="Trazado 50507" d="M347.356,176.621c-4.264,6.054-3.945,13.62-3.945,13.62L357.6,170.089C355.519,168.62,351.62,170.567,347.356,176.621Z" transform="translate(-343.406 -169.622)" fill="#5c9399"/>
    </g>
    <circle id="Elipse_1231" data-name="Elipse 1231" cx="3.259" cy="3.259" r="3.259" transform="translate(178.347 51.268)" fill="#fff"/>
    <circle id="Elipse_1232" data-name="Elipse 1232" cx="3.259" cy="3.259" r="3.259" transform="translate(106.689 160.438)" fill="#fff"/>
    <circle id="Elipse_1233" data-name="Elipse 1233" cx="3.259" cy="3.259" r="3.259" transform="translate(320.006 147.046)" fill="#fff"/>
    <path id="Trazado_50508" data-name="Trazado 50508" d="M456.825,49.541a1.875,1.875,0,1,1,3.75,0,1.875,1.875,0,0,1-3.75,0Z" transform="translate(-269.735)" fill="#fff"/>
    <path id="Trazado_50509" data-name="Trazado 50509" d="M179.529,438.737a1.875,1.875,0,0,0,1.875-1.875,1.875,1.875,0,0,1,0,3.75A1.875,1.875,0,0,0,179.529,438.737Z" transform="translate(-78.212 -268.809)" fill="#fff"/>
    <path id="Trazado_50510" data-name="Trazado 50510" d="M861.528,390.7a1.875,1.875,0,1,1,3.75,0,1.875,1.875,0,0,1-3.75,0Z" transform="translate(-549.255 -235.634)" fill="#fff"/>
    <path id="Trazado_50511" data-name="Trazado 50511" d="M651.188,102.057a1.875,1.875,0,0,1,3.75,0,1.875,1.875,0,1,1-3.75,0Z" transform="translate(-403.977 -36.272)" fill="#fff"/>
  </g>
</svg>
