<svg xmlns="http://www.w3.org/2000/svg" width="169.646" height="219.755" viewBox="0 0 169.646 219.755">
  <g id="Group_17829" data-name="Group 17829" transform="translate(-343.388 -296.161)">
    <g id="Group_17819" data-name="Group 17819" transform="translate(345.452 321.629)">
      <g id="Group_17817" data-name="Group 17817" transform="translate(39.441 106.179)">
        <g id="Group_17816" data-name="Group 17816">
          <g id="Group_17815" data-name="Group 17815">
            <path id="Path_46368" data-name="Path 46368" d="M448.452,435.625a34.446,34.446,0,0,1-3.6,8.695l5.987,6.4a43.557,43.557,0,0,1-12.123,12.123l-6.4-5.984a34.414,34.414,0,0,1-8.693,3.6v0l-.291,8.757a43.749,43.749,0,0,1-17.144,0l-.291-8.757a34.525,34.525,0,0,1-8.693-3.6l-6.4,5.984a43.5,43.5,0,0,1-12.126-12.126l5.987-6.4a34.444,34.444,0,0,1-3.6-8.695h0l-8.757-.291a43.752,43.752,0,0,1,0-17.144l8.757-.291h0a34.412,34.412,0,0,1,3.6-8.693l-5.984-6.4A43.474,43.474,0,0,1,390.8,390.683l6.4,5.984a34.531,34.531,0,0,1,8.693-3.606l.291-8.757a43.83,43.83,0,0,1,17.144,0l.291,8.757v0a34.249,34.249,0,0,1,8.693,3.6l6.4-5.987a43.476,43.476,0,0,1,12.12,12.126l-5.984,6.4a34.415,34.415,0,0,1,3.6,8.693h0l8.757.291a43.752,43.752,0,0,1,0,17.144l-8.757.291Z" transform="translate(-371.453 -383.458)" fill="none" stroke="#39b551" stroke-linejoin="round" stroke-width="3"/>
          </g>
        </g>
        <circle id="Ellipse_977" data-name="Ellipse 977" cx="21.262" cy="21.262" r="21.262" transform="translate(22.041 22.042)" fill="none" stroke="#39b551" stroke-linejoin="round" stroke-width="3"/>
      </g>
      <path id="Path_46369" data-name="Path 46369" d="M345.452,389.194s22.543-36.588,48.657,0" transform="translate(-345.452 -282.72)" fill="none" stroke="#fdac29" stroke-linecap="round" stroke-linejoin="round" stroke-width="3"/>
      <g id="Group_17818" data-name="Group 17818">
        <path id="Path_46370" data-name="Path 46370" d="M377.528,411.85c0-45.7,15.262-82.745,34.088-82.745S445.7,366.151,445.7,411.85" transform="translate(-328.871 -305.375)" fill="none" stroke="#fdac29" stroke-linecap="round" stroke-linejoin="round" stroke-width="3"/>
        <path id="Path_46371" data-name="Path 46371" d="M377.528,389.194s31.587-36.588,68.176,0" transform="translate(-328.871 -282.72)" fill="none" stroke="#fdac29" stroke-linecap="round" stroke-linejoin="round" stroke-width="3"/>
        <path id="Path_46372" data-name="Path 46372" d="M422.472,389.194s22.543-36.588,48.657,0" transform="translate(-305.639 -282.72)" fill="none" stroke="#fdac29" stroke-linecap="round" stroke-linejoin="round" stroke-width="3"/>
        <path id="Path_46373" data-name="Path 46373" d="M345.452,411.85a82.745,82.745,0,1,1,165.49,0" transform="translate(-345.452 -305.375)" fill="none" stroke="#fdac29" stroke-linecap="round" stroke-linejoin="round" stroke-width="3"/>
        <circle id="Ellipse_978" data-name="Ellipse 978" cx="11.397" cy="11.397" r="11.397" transform="translate(71.348)" fill="none" stroke="#fdac29" stroke-linecap="round" stroke-linejoin="round" stroke-width="3"/>
      </g>
    </g>
    <g id="Group_17828" data-name="Group 17828" transform="translate(375.441 297.661)">
      <g id="Group_17820" data-name="Group 17820">
        <line id="Line_3" data-name="Line 3" y2="3.034" fill="none" stroke="#fdac29" stroke-linecap="round" stroke-linejoin="round" stroke-width="3"/>
        <line id="Line_4" data-name="Line 4" y2="42.222" transform="translate(0 8.663)" fill="none" stroke="#fdac29" stroke-linecap="round" stroke-linejoin="round" stroke-width="3" stroke-dasharray="3.711 3.711"/>
        <line id="Line_5" data-name="Line 5" y2="3.034" transform="translate(0 53.7)" fill="none" stroke="#fdac29" stroke-linecap="round" stroke-linejoin="round" stroke-width="3"/>
      </g>
      <g id="Group_17821" data-name="Group 17821" transform="translate(15.073)">
        <line id="Line_6" data-name="Line 6" y2="3.034" fill="none" stroke="#fdac29" stroke-linecap="round" stroke-linejoin="round" stroke-width="3"/>
        <line id="Line_7" data-name="Line 7" y2="31.974" transform="translate(0 8.847)" fill="none" stroke="#fdac29" stroke-linecap="round" stroke-linejoin="round" stroke-width="3" stroke-dasharray="3.832 3.832"/>
        <line id="Line_8" data-name="Line 8" y2="3.034" transform="translate(0 43.728)" fill="none" stroke="#fdac29" stroke-linecap="round" stroke-linejoin="round" stroke-width="3"/>
      </g>
      <g id="Group_17822" data-name="Group 17822" transform="translate(30.146)">
        <line id="Line_9" data-name="Line 9" y2="3.034" fill="none" stroke="#fdac29" stroke-linecap="round" stroke-linejoin="round" stroke-width="3"/>
        <line id="Line_10" data-name="Line 10" y2="20.507" transform="translate(0 8.893)" fill="none" stroke="#fdac29" stroke-linecap="round" stroke-linejoin="round" stroke-width="3" stroke-dasharray="3.863 3.863"/>
        <line id="Line_11" data-name="Line 11" y2="3.034" transform="translate(0 32.33)" fill="none" stroke="#fdac29" stroke-linecap="round" stroke-linejoin="round" stroke-width="3"/>
      </g>
      <g id="Group_17823" data-name="Group 17823" transform="translate(45.219)">
        <line id="Line_12" data-name="Line 12" y2="3.034" fill="none" stroke="#fdac29" stroke-linecap="round" stroke-linejoin="round" stroke-width="3"/>
        <line id="Line_13" data-name="Line 13" y2="6.236" transform="translate(0 7.191)" fill="none" stroke="#fdac29" stroke-linecap="round" stroke-linejoin="round" stroke-width="3" stroke-dasharray="2.741 2.741"/>
        <line id="Line_14" data-name="Line 14" y2="3.034" transform="translate(0 15.506)" fill="none" stroke="#fdac29" stroke-linecap="round" stroke-linejoin="round" stroke-width="3"/>
      </g>
      <g id="Group_17824" data-name="Group 17824" transform="translate(60.292)">
        <line id="Line_15" data-name="Line 15" y2="3.034" fill="none" stroke="#fdac29" stroke-linecap="round" stroke-linejoin="round" stroke-width="3"/>
        <line id="Line_16" data-name="Line 16" y2="6.236" transform="translate(0 7.191)" fill="none" stroke="#fdac29" stroke-linecap="round" stroke-linejoin="round" stroke-width="3" stroke-dasharray="2.741 2.741"/>
        <line id="Line_17" data-name="Line 17" y2="3.034" transform="translate(0 15.506)" fill="none" stroke="#fdac29" stroke-linecap="round" stroke-linejoin="round" stroke-width="3"/>
      </g>
      <g id="Group_17825" data-name="Group 17825" transform="translate(75.365)">
        <line id="Line_18" data-name="Line 18" y2="3.034" fill="none" stroke="#fdac29" stroke-linecap="round" stroke-linejoin="round" stroke-width="3"/>
        <line id="Line_19" data-name="Line 19" y2="20.507" transform="translate(0 8.893)" fill="none" stroke="#fdac29" stroke-linecap="round" stroke-linejoin="round" stroke-width="3" stroke-dasharray="3.863 3.863"/>
        <line id="Line_20" data-name="Line 20" y2="3.034" transform="translate(0 32.33)" fill="none" stroke="#fdac29" stroke-linecap="round" stroke-linejoin="round" stroke-width="3"/>
      </g>
      <g id="Group_17826" data-name="Group 17826" transform="translate(90.438)">
        <line id="Line_21" data-name="Line 21" y2="3.034" fill="none" stroke="#fdac29" stroke-linecap="round" stroke-linejoin="round" stroke-width="3"/>
        <line id="Line_22" data-name="Line 22" y2="31.974" transform="translate(0 8.847)" fill="none" stroke="#fdac29" stroke-linecap="round" stroke-linejoin="round" stroke-width="3" stroke-dasharray="3.832 3.832"/>
        <line id="Line_23" data-name="Line 23" y2="3.034" transform="translate(0 43.728)" fill="none" stroke="#fdac29" stroke-linecap="round" stroke-linejoin="round" stroke-width="3"/>
      </g>
      <g id="Group_17827" data-name="Group 17827" transform="translate(105.511)">
        <line id="Line_24" data-name="Line 24" y2="3.034" fill="none" stroke="#fdac29" stroke-linecap="round" stroke-linejoin="round" stroke-width="3"/>
        <line id="Line_25" data-name="Line 25" y2="42.222" transform="translate(0 8.663)" fill="none" stroke="#fdac29" stroke-linecap="round" stroke-linejoin="round" stroke-width="3" stroke-dasharray="3.711 3.711"/>
        <line id="Line_26" data-name="Line 26" y2="3.034" transform="translate(0 53.7)" fill="none" stroke="#fdac29" stroke-linecap="round" stroke-linejoin="round" stroke-width="3"/>
      </g>
    </g>
  </g>
</svg>
