<svg xmlns="http://www.w3.org/2000/svg" width="168" height="168" viewBox="0 0 168 168">
  <g id="Group_23646" data-name="Group 23646" transform="translate(-491 -5450)">
    <circle id="Ellipse_983" data-name="Ellipse 983" cx="84" cy="84" r="84" transform="translate(491 5450)" fill="#ededed"/>
    <g id="Group_17852" data-name="Group 17852" transform="translate(-5108.629 4014.802)">
      <g id="Group_17843" data-name="Group 17843" transform="translate(5636.912 1464.562)">
        <g id="Group_17842" data-name="Group 17842" transform="translate(0 0)">
          <path id="Path_46389" data-name="Path 46389" d="M5700.57,1574.818l-4.76-35.1,35.911-24.35,40.84,27.325-4.76,33.913-37.287,26.946" transform="translate(-5682.409 -1503.805)" fill="#c7ddeb"/>
          <path id="Path_46390" data-name="Path 46390" d="M5686.039,1572.476l-49.126-26.863v-53.819l.555-.309,48.208-26.923,49.49,27.228v53.823Zm-46.962-28.146,46.962,25.679L5733,1544.331V1493.07l-47.318-26.033-46.606,26.028Z" transform="translate(-5636.912 -1464.562)" fill="#3d4451"/>
          <path id="Path_46391" data-name="Path 46391" d="M5711.923,1479.534l20.232,39.047,26.973,37.661-46.9.715-41.378-4.183,17.282-36.275,24.166-36.965" transform="translate(-5663.125 -1476.127)" fill="#67aeba"/>
          <path id="Path_46392" data-name="Path 46392" d="M5688.828,1664.641h-1.785v-53.512l-46.754-24.684.829-1.581,47.483,24.752,47.94-24.754.819,1.586-48.532,25.059Z" transform="translate(-5639.521 -1557.49)" fill="#3d4451"/>
          <g id="Group_17841" data-name="Group 17841" transform="translate(9.831 3.407)">
            <path id="Path_46393" data-name="Path 46393" d="M5977.2,1756.946l-.879,6.27-10.572,7.64,21.184-.323Z" transform="translate(-5900.755 -1693.826)" fill="#9cd2db"/>
            <path id="Path_46394" data-name="Path 46394" d="M5851.749,1479.534h-.37l.164.316Z" transform="translate(-5812.412 -1479.534)" fill="#9cd2db"/>
            <path id="Path_46395" data-name="Path 46395" d="M5688.451,1737.107l-1.58-11.65-6.75,15.22,14.445,2.3Z" transform="translate(-5680.122 -1669.501)" fill="#9cd2db"/>
            <path id="Path_46396" data-name="Path 46396" d="M5820.262,1488.76l5.68,3.8-6.029-11.636-9.481,14.5Z" transform="translate(-5780.781 -1480.608)" fill="#9cd2db"/>
          </g>
        </g>
        <path id="Path_46397" data-name="Path 46397" d="M5735.905,1727.53l-48.556-26.273-46.906,25.676-.926-1.693,47.827-26.181,49.48,26.773Z" transform="translate(-5638.924 -1645.703)" fill="#3d4451"/>
        <rect id="Rectangle_4530" data-name="Rectangle 4530" width="2.594" height="51.583" transform="translate(47.356 1.264) rotate(-0.472)" fill="#3d4451"/>
      </g>
      <g id="Group_17848" data-name="Group 17848" transform="translate(5651.938 1490.318)">
        <g id="Group_17844" data-name="Group 17844" transform="translate(1.005 2.587)">
          <ellipse id="Ellipse_984" data-name="Ellipse 984" cx="8.398" cy="8.073" rx="8.398" ry="8.073" transform="translate(24.126 0.734)" fill="#f5fafc"/>
          <path id="Path_46398" data-name="Path 46398" d="M5774.094,1594.264a5.348,5.348,0,0,0-10.688,0,5.178,5.178,0,0,0,3.967,4.964c-3.548,5.595,1.683,10.741,1.683,10.741-7.052-6.779-16.007-2.276-18.814-.574h-19.022c-2.807-1.7-11.762-6.205-18.813.574,0,0,5.231-5.147,1.683-10.741a5.178,5.178,0,0,0,3.966-4.964,5.348,5.348,0,0,0-10.688,0l.153,21.723h18.133l5.181,17.718h20.422l3.445-17.718h19.24Z" transform="translate(-5707.367 -1589.127)" fill="#f5fafc"/>
        </g>
        <g id="Group_17845" data-name="Group 17845" transform="translate(3.372 4.124)">
          <ellipse id="Ellipse_985" data-name="Ellipse 985" cx="6.942" cy="6.9" rx="6.942" ry="6.9" transform="translate(23.141 2.718)" fill="#c7ddeb"/>
          <path id="Path_46399" data-name="Path 46399" d="M5778.473,1600.507a3.622,3.622,0,1,0-4.254,2.539l-.7,4.877c-3.3,4.928,1.564,9.461,1.564,9.461-6.552-5.971-14.871-2-17.479-.505h-17.672c-2.608-1.5-10.927-5.466-17.479.505,0,0,4.86-4.534,1.563-9.461l-.7-4.884a3.626,3.626,0,1,0-4.276-2.506,4.292,4.292,0,0,0-1.266,3.018l.142,17.378h18.1l3.489,13.044a5.7,5.7,0,0,0,5.469,4.224l7.333.043a5.7,5.7,0,0,0,5.586-4.429l2.937-12.882h18.792l.142-17.378A4.294,4.294,0,0,0,5778.473,1600.507Z" transform="translate(-5717.769 -1595.883)" fill="#c7ddeb"/>
        </g>
        <g id="Group_17846" data-name="Group 17846" transform="translate(0 0)">
          <path id="Path_46400" data-name="Path 46400" d="M5818.045,1608.363a9.5,9.5,0,1,1,9.5-9.5A9.514,9.514,0,0,1,5818.045,1608.363Zm0-16.8a7.293,7.293,0,1,0,7.292,7.293A7.3,7.3,0,0,0,5818.045,1591.566Z" transform="translate(-5784.516 -1586.717)" fill="#3d4451"/>
          <path id="Path_46401" data-name="Path 46401" d="M5745.82,1625.8H5728.5a3.537,3.537,0,0,1-3.457-2.741l-3.6-15.345h-18.335l-.159-23.6a6.35,6.35,0,1,1,9.147,5.692,9.16,9.16,0,0,1,.213,7.065c6.458-3,13.252.425,15.785,1.972h18.448c2.531-1.547,9.325-4.974,15.784-1.972a9.16,9.16,0,0,1,.213-7.065,6.349,6.349,0,1,1,9.147-5.7v.007l-.159,23.6h-19.4l-2.812,15.181A3.552,3.552,0,0,1,5745.82,1625.8Zm-40.715-20.1h17.931l3.961,16.9a1.534,1.534,0,0,0,1.5,1.189h17.323a1.54,1.54,0,0,0,1.515-1.26l3.118-16.825h19.077l.146-21.6a4.34,4.34,0,1,0-5.458,4.2l1.3.346-.7,1.148c-3.09,5.068,1.355,9.753,1.546,9.95l-1.431,1.411a11.335,11.335,0,0,0-10.142-3.323,20,20,0,0,0-7.425,2.866l-.246.155h-19.6l-.246-.155a20,20,0,0,0-7.425-2.866,11.334,11.334,0,0,0-10.142,3.323l-1.43-1.413c.189-.2,4.634-4.88,1.544-9.949l-.7-1.148,1.3-.346a4.34,4.34,0,1,0-5.458-4.193Zm65.577-21.594h0Z" transform="translate(-5702.949 -1577.759)" fill="#3d4451"/>
        </g>
        <g id="Group_17847" data-name="Group 17847" transform="translate(29.638 22.217)">
          <path id="Path_46402" data-name="Path 46402" d="M5838.155,1678.254h6.951l-2.5,3.845,1.946,11.023-3.059,4.358-3.336-4.358,2.224-11.023Z" transform="translate(-5837.029 -1677.604)" fill="#f04f4c"/>
          <path id="Path_46403" data-name="Path 46403" d="M5837.691,1696.373l-4.054-5.3,2.234-11.071-2.665-4.607h9.274l-3.016,4.634,1.949,11.036Zm-2.664-5.616,2.619,3.421,2.4-3.412-1.944-11.01,1.988-3.056h-4.627l1.783,3.083Z" transform="translate(-5833.206 -1675.4)" fill="#3d4451"/>
        </g>
        <path id="Path_46404" data-name="Path 46404" d="M5711.239,1625.286h-6.709a.866.866,0,1,1,0-1.732h6.709a.866.866,0,0,1,0,1.732Z" transform="translate(-5703.501 -1613.134)" fill="#3d4451"/>
        <path id="Path_46405" data-name="Path 46405" d="M5971.9,1625.286h-6.71a.866.866,0,1,1,0-1.732h6.71a.866.866,0,1,1,0,1.732Z" transform="translate(-5904.849 -1613.134)" fill="#3d4451"/>
      </g>
      <g id="Group_17851" data-name="Group 17851" transform="translate(5667.997 1524.989)">
        <g id="Group_17850" data-name="Group 17850" transform="translate(0 0)">
          <path id="Path_46406" data-name="Path 46406" d="M5836.889,1741.86l-4.976-.006.005-4.724s0-1.991,0-2.381a.827.827,0,0,0-.352-.625l-2.85,0c-.469,0-.586.234-.586.234s-2.583,5.892-3.718,7.8a4.074,4.074,0,0,1-3.438,1.831l-.011,10.152,3.358,0,2.185,1.876,9.252.01a2.425,2.425,0,0,0,1.56-.565l1.112-.93a2.427,2.427,0,0,0,.87-1.859l.01-8.387a2.427,2.427,0,0,0-1.173-2.081h0A2.428,2.428,0,0,0,5836.889,1741.86Z" transform="translate(-5810.173 -1733.214)" fill="#f5fafc"/>
          <path id="Path_46407" data-name="Path 46407" d="M5835.958,1763.179l-4.686-.005,0-3.542s0-1.493,0-1.786-.332-.469-.332-.469l-2.685,0c-.441,0-.551.175-.551.175s-2.432,4.418-3.5,5.851a4.279,4.279,0,0,1-3.238,1.372l-.009,7.613,3.163,0,2.058,1.407,8.715.01a2.662,2.662,0,0,0,1.469-.423l1.047-.7a1.7,1.7,0,0,0,.819-1.394l.007-6.289a1.783,1.783,0,0,0-1.105-1.561h0A2.74,2.74,0,0,0,5835.958,1763.179Z" transform="translate(-5810.171 -1751.177)" fill="#fdc345"/>
          <path id="Path_46408" data-name="Path 46408" d="M5832.684,1753.86h0l-9.588-.011-2.185-1.876-3.929,0,.013-12,.938.033a3.145,3.145,0,0,0,2.626-1.387c1.093-1.842,3.642-7.647,3.667-7.7l.019-.042a1.5,1.5,0,0,1,1.4-.734h0l3.124,0,.228.152a1.717,1.717,0,0,1,.755,1.38l-.007,6.2,4.069,0a3.334,3.334,0,0,1,3.33,3.337l-.009,8.388a3.326,3.326,0,0,1-1.2,2.553l-1.111.93A3.341,3.341,0,0,1,5832.684,1753.86Zm-8.919-1.823,8.917.01h0a1.522,1.522,0,0,0,.975-.354l1.112-.929a1.517,1.517,0,0,0,.545-1.165l.009-8.387a1.52,1.52,0,0,0-1.518-1.522l-5.882-.007.009-7.73-2.186,0c-.555,1.255-2.622,5.889-3.632,7.593a4.71,4.71,0,0,1-3.312,2.192l-.01,8.422,2.787,0Z" transform="translate(-5807.092 -1730.136)" fill="#3d4451"/>
          <g id="Group_17849" data-name="Group 17849" transform="translate(0 8.315)">
            <rect id="Rectangle_4531" data-name="Rectangle 4531" width="13.352" height="11.161" transform="translate(0.908 14.26) rotate(-89.935)" fill="#7eb9c7"/>
            <path id="Path_46409" data-name="Path 46409" d="M5786.5,1781.859l-12.975-.015.018-15.165,12.974.015Zm-11.159-1.826,9.347.011.013-11.539-9.348-.011Z" transform="translate(-5773.528 -1766.679)" fill="#3d4451"/>
          </g>
          <rect id="Rectangle_4532" data-name="Rectangle 4532" width="9.37" height="3.185" transform="translate(1.838 10.061) rotate(0.065)" fill="#f5fafc"/>
        </g>
      </g>
    </g>
  </g>
</svg>
