<svg xmlns="http://www.w3.org/2000/svg" width="168" height="168" viewBox="0 0 168 168">
  <g id="Group_23647" data-name="Group 23647" transform="translate(-491 -5726)">
    <circle id="Ellipse_982" data-name="Ellipse 982" cx="84" cy="84" r="84" transform="translate(491 5726)" fill="#ededed"/>
    <g id="Group_17840" data-name="Group 17840" transform="translate(-3461.281 4262.511)">
      <path id="Path_46374" data-name="Path 46374" d="M4040.919,1636.183l-2.049-1.138,10.149-18.269,5.167,5.4,9.033-15.928,5.339,7.428,10.6-20.727,5.3,8.193,6.508-9.558,1.938,1.319-8.5,12.477-5.013-7.748-10.5,20.531-5.444-7.575-8.783,15.485-5.147-5.381Z" transform="translate(-33.087 -71.866)" fill="#3d4451"/>
      <g id="Group_17837" data-name="Group 17837" transform="translate(3997.281 1501.256)">
        <ellipse id="Ellipse_979" data-name="Ellipse 979" cx="31.956" cy="3.735" rx="31.956" ry="3.735" transform="translate(0 82.419)" fill="#7eb9c7"/>
        <g id="Group_17835" data-name="Group 17835" transform="translate(6.364 34.747)">
          <g id="Group_17834" data-name="Group 17834">
            <g id="Group_17830" data-name="Group 17830" transform="translate(40.585)">
              <rect id="Rectangle_4526" data-name="Rectangle 4526" width="11.018" height="48.056" transform="translate(1.022 1.022)" fill="#fdc345"/>
              <path id="Path_46375" data-name="Path 46375" d="M4240.016,1721.335h-13.062v-50.1h13.062ZM4229,1719.291h8.974v-46.012H4229Z" transform="translate(-4226.954 -1671.234)" fill="#3d4451"/>
            </g>
            <g id="Group_17831" data-name="Group 17831" transform="translate(25.926 12.19)">
              <rect id="Rectangle_4527" data-name="Rectangle 4527" width="9.917" height="35.867" transform="translate(1.022 1.022)" fill="#f04f4c"/>
              <path id="Path_46376" data-name="Path 46376" d="M4167.2,1768.778h-11.961v-37.911H4167.2Zm-9.917-2.044h7.873v-33.822h-7.873Z" transform="translate(-4155.243 -1730.867)" fill="#3d4451"/>
            </g>
            <g id="Group_17832" data-name="Group 17832" transform="translate(0 33.492)">
              <rect id="Rectangle_4528" data-name="Rectangle 4528" width="8.057" height="14.769" transform="translate(0.818 0.818)" fill="#c7ddeb"/>
              <path id="Path_46377" data-name="Path 46377" d="M4038.106,1851.481h-9.692v-16.4h9.692Zm-8.056-1.635h6.421v-13.133h-6.421Z" transform="translate(-4028.414 -1835.077)" fill="#3d4451"/>
            </g>
            <g id="Group_17833" data-name="Group 17833" transform="translate(12.778 22.231)">
              <rect id="Rectangle_4529" data-name="Rectangle 4529" width="9.035" height="26.03" transform="translate(0.818 0.818)" fill="#7eb9c7"/>
              <path id="Path_46378" data-name="Path 46378" d="M4101.593,1807.654h-10.669v-27.665h10.669Zm-9.034-1.635h7.4v-24.394h-7.4Z" transform="translate(-4090.923 -1779.989)" fill="#3d4451"/>
            </g>
          </g>
        </g>
        <g id="Group_17836" data-name="Group 17836" transform="translate(8.286)">
          <path id="Path_46379" data-name="Path 46379" d="M4106.373,1517.115a35.284,35.284,0,1,0,0,49.9A35.284,35.284,0,0,0,4106.373,1517.115Zm-4.093,45.807a29.5,29.5,0,1,1,0-41.714A29.5,29.5,0,0,1,4102.28,1562.922Z" transform="translate(-4044.437 -1505.651)" fill="#c7ddeb"/>
          <path id="Path_46380" data-name="Path 46380" d="M4393.281,1860.385a3.4,3.4,0,0,1,.349,4.726l-3.205,3.206a3.4,3.4,0,0,1-4.726-.35l-12.194-12.194a3.314,3.314,0,0,1-.285-4.661l3.206-3.206a3.314,3.314,0,0,1,4.662.285Z" transform="translate(-4303.998 -1776.385)" fill="#c7ddeb"/>
          <path id="Path_46381" data-name="Path 46381" d="M4074.244,1574.1a36.4,36.4,0,1,1,25.76-10.653A36.313,36.313,0,0,1,4074.244,1574.1Zm0-70.552a34.139,34.139,0,1,0,24.139,10A33.916,33.916,0,0,0,4074.245,1503.548Z" transform="translate(-4037.814 -1501.256)" fill="#3d4451"/>
          <path id="Path_46382" data-name="Path 46382" d="M4097.712,1591.554a30.318,30.318,0,0,1-21.506-8.894h0a30.451,30.451,0,1,1,21.506,8.894Zm0-59.072A28.671,28.671,0,1,0,4118,1540.87,28.594,28.594,0,0,0,4097.713,1532.483Z" transform="translate(-4061.282 -1524.724)" fill="#3d4451"/>
          <path id="Path_46383" data-name="Path 46383" d="M4337.623,1795.519l-9.893-9.893,6.344-6.344,9.893,9.893Zm-7.927-9.893,7.927,7.927,4.378-4.378-7.927-7.927Z" transform="translate(-4268.466 -1722.449)" fill="#3d4451"/>
          <path id="Path_46384" data-name="Path 46384" d="M4388.146,1847.875c-.061,0-.123,0-.184,0a4.311,4.311,0,0,1-2.866-1.268L4372.9,1834.41a4.167,4.167,0,0,1-1.236-2.844,3.81,3.81,0,0,1,1.112-2.823l3.441-3.442a3.8,3.8,0,0,1,2.824-1.112,4.164,4.164,0,0,1,2.844,1.236l12.194,12.194a4.313,4.313,0,0,1,1.268,2.866,3.766,3.766,0,0,1-1.08,2.867l-3.442,3.442A3.742,3.742,0,0,1,4388.146,1847.875Zm-9.207-22.493a2.619,2.619,0,0,0-1.874.763l-3.442,3.442a2.626,2.626,0,0,0-.762,1.948,2.974,2.974,0,0,0,.887,2.03l12.194,12.194a3.161,3.161,0,0,0,2.073.919,2.572,2.572,0,0,0,1.969-.73l3.442-3.442a2.581,2.581,0,0,0,.73-1.97,3.162,3.162,0,0,0-.918-2.073l-12.194-12.194a2.975,2.975,0,0,0-2.03-.886Z" transform="translate(-4303.42 -1758.174)" fill="#3d4451"/>
          <path id="Path_46385" data-name="Path 46385" d="M4386.234,1846.456c-.068,0-.137,0-.206,0a4.8,4.8,0,0,1-3.192-1.411l-12.193-12.194a4.652,4.652,0,0,1-1.38-3.179,4.3,4.3,0,0,1,1.256-3.184l3.442-3.442a4.31,4.31,0,0,1,3.184-1.256,4.655,4.655,0,0,1,3.18,1.38l12.194,12.194a4.8,4.8,0,0,1,1.411,3.193,4.249,4.249,0,0,1-1.223,3.235l-3.441,3.442A4.229,4.229,0,0,1,4386.234,1846.456Zm-9.208-22.493a2.135,2.135,0,0,0-1.526.619l-3.442,3.442a2.141,2.141,0,0,0-.618,1.587,2.484,2.484,0,0,0,.743,1.695l12.193,12.194a2.667,2.667,0,0,0,1.747.775,2.093,2.093,0,0,0,1.6-.586l3.441-3.442a2.1,2.1,0,0,0,.587-1.6,2.665,2.665,0,0,0-.775-1.746l-12.194-12.194a2.485,2.485,0,0,0-1.695-.742Z" transform="translate(-4301.507 -1756.263)" fill="#3d4451"/>
          <path id="Path_46386" data-name="Path 46386" d="M4402.293,1872.335a.6.6,0,0,1-.423-.175l-11.437-11.438a.6.6,0,0,1,.845-.845l11.438,11.437a.6.6,0,0,1-.423,1.02Z" transform="translate(-4318.212 -1786.43)" fill="#3d4451"/>
        </g>
      </g>
      <g id="Group_17838" data-name="Group 17838" transform="translate(4054.277 1518.623)">
        <circle id="Ellipse_980" data-name="Ellipse 980" cx="2.579" cy="2.579" r="2.579" transform="translate(0.264 2.238) rotate(-22.5)" fill="#f04f4c"/>
        <path id="Path_46387" data-name="Path 46387" d="M4279.739,1593.48a3.633,3.633,0,1,1,3.633-3.634A3.638,3.638,0,0,1,4279.739,1593.48Zm0-5.157a1.524,1.524,0,1,0,1.523,1.524A1.526,1.526,0,0,0,4279.739,1588.323Z" transform="translate(-4276.105 -1586.213)" fill="#3d4451"/>
      </g>
      <g id="Group_17839" data-name="Group 17839" transform="translate(4003.76 1559.998)">
        <circle id="Ellipse_981" data-name="Ellipse 981" cx="2.579" cy="2.579" r="2.579" transform="translate(0.675 5.766) rotate(-80.783)" fill="#f04f4c"/>
        <path id="Path_46388" data-name="Path 46388" d="M4032.609,1795.886a3.633,3.633,0,1,1,3.634-3.633A3.637,3.637,0,0,1,4032.609,1795.886Zm0-5.157a1.524,1.524,0,1,0,1.524,1.524A1.526,1.526,0,0,0,4032.609,1790.729Z" transform="translate(-4028.975 -1788.619)" fill="#3d4451"/>
      </g>
    </g>
  </g>
</svg>
