<svg xmlns="http://www.w3.org/2000/svg" xmlns:xlink="http://www.w3.org/1999/xlink" width="169" height="169" viewBox="0 0 169 169">
  <defs>
    <radialGradient id="radial-gradient" cx="0.5" cy="0.5" r="0.5" gradientUnits="objectBoundingBox">
      <stop offset="0" stop-color="#fff"/>
      <stop offset="1" stop-color="#fae7b7"/>
    </radialGradient>
  </defs>
  <g id="Grupo_26376" data-name="Grupo 26376" transform="translate(-482 -4945)">
    <g id="Elipse_1117" data-name="Elipse 1117" transform="translate(490 4953)" stroke="#fff" stroke-width="8" fill="url(#radial-gradient)">
      <circle cx="76.5" cy="76.5" r="76.5" stroke="none"/>
      <circle cx="76.5" cy="76.5" r="80.5" fill="none"/>
    </g>
    <g id="Grupo_17852" data-name="Grupo 17852" transform="translate(522.492 4981.165)">
      <g id="Grupo_17843" data-name="Grupo 17843" transform="translate(0)">
        <g id="Grupo_17842" data-name="Grupo 17842" transform="translate(0 0)">
          <path id="Trazado_46389" data-name="Trazado 46389" d="M5700.074,1568.623l-4.264-31.445,32.169-21.813,36.585,24.478-4.264,30.379-33.4,24.139" transform="translate(-5683.805 -1505.01)" fill="#c7ddeb"/>
          <path id="Trazado_46390" data-name="Trazado 46390" d="M5680.92,1561.232l-44.008-24.064v-48.211l.5-.277,43.185-24.118,44.334,24.391v48.215Zm-42.069-25.213,42.069,23,42.068-23V1490.1l-42.387-23.32-41.751,23.316Z" transform="translate(-5636.912 -1464.562)" fill="#3d4451"/>
          <path id="Trazado_46391" data-name="Trazado 46391" d="M5707.643,1479.534l18.125,34.979,24.163,33.736-42.017.64-37.067-3.747,15.481-32.495,21.647-33.114" transform="translate(-5663.93 -1476.482)" fill="#67aeba"/>
          <path id="Trazado_46392" data-name="Trazado 46392" d="M5683.77,1656.328h-1.6v-47.936l-41.882-22.112.743-1.416,42.535,22.173,42.945-22.174.733,1.421-43.475,22.448Z" transform="translate(-5639.601 -1560.342)" fill="#3d4451"/>
          <g id="Grupo_17841" data-name="Grupo 17841" transform="translate(8.807 3.052)">
            <path id="Trazado_46393" data-name="Trazado 46393" d="M5976,1756.946l-.788,5.617-9.471,6.844,18.976-.289Z" transform="translate(-5907.527 -1700.402)" fill="#9cd2db"/>
            <path id="Trazado_46394" data-name="Trazado 46394" d="M5851.71,1479.534h-.331l.146.283Z" transform="translate(-5816.472 -1479.534)" fill="#9cd2db"/>
            <path id="Trazado_46395" data-name="Trazado 46395" d="M5687.583,1735.893l-1.415-10.436-6.046,13.634,12.939,2.059Z" transform="translate(-5680.122 -1675.331)" fill="#9cd2db"/>
            <path id="Trazado_46396" data-name="Trazado 46396" d="M5819.237,1487.944l5.088,3.4-5.4-10.424-8.493,12.991Z" transform="translate(-5783.87 -1480.641)" fill="#9cd2db"/>
          </g>
        </g>
        <path id="Trazado_46397" data-name="Trazado 46397" d="M5725.862,1724.563l-43.5-23.536-42.019,23-.83-1.517,42.844-23.453,44.324,23.984Z" transform="translate(-5638.985 -1651.262)" fill="#3d4451"/>
        <rect id="Rectángulo_4530" data-name="Rectángulo 4530" width="2.324" height="46.208" transform="translate(42.422 1.132) rotate(-0.472)" fill="#3d4451"/>
      </g>
      <g id="Grupo_17848" data-name="Grupo 17848" transform="translate(13.46 23.072)">
        <g id="Grupo_17844" data-name="Grupo 17844" transform="translate(0.9 2.317)">
          <ellipse id="Elipse_984" data-name="Elipse 984" cx="7.523" cy="7.232" rx="7.523" ry="7.232" transform="translate(21.612 0.657)" fill="#f5fafc"/>
          <path id="Trazado_46398" data-name="Trazado 46398" d="M5767.141,1593.729a4.791,4.791,0,0,0-9.575,0,4.638,4.638,0,0,0,3.554,4.447c-3.179,5.012,1.508,9.622,1.508,9.622-6.317-6.073-14.339-2.039-16.854-.514h-17.04c-2.515-1.525-10.536-5.559-16.854.514,0,0,4.686-4.611,1.508-9.622a4.639,4.639,0,0,0,3.553-4.447,4.791,4.791,0,0,0-9.575,0l.137,19.46h16.244l4.641,15.872h18.294l3.086-15.872H5767Z" transform="translate(-5707.367 -1589.127)" fill="#f5fafc"/>
        </g>
        <g id="Grupo_17845" data-name="Grupo 17845" transform="translate(3.02 3.694)">
          <ellipse id="Elipse_985" data-name="Elipse 985" cx="6.219" cy="6.181" rx="6.219" ry="6.181" transform="translate(20.729 2.434)" fill="#c7ddeb"/>
          <path id="Trazado_46399" data-name="Trazado 46399" d="M5772.147,1600.025a3.245,3.245,0,1,0-3.811,2.274l-.628,4.368c-2.954,4.414,1.4,8.476,1.4,8.476-5.869-5.349-13.322-1.8-15.658-.452H5737.62c-2.336-1.344-9.789-4.9-15.658.452,0,0,4.354-4.061,1.4-8.476l-.629-4.375a3.248,3.248,0,1,0-3.831-2.245,3.845,3.845,0,0,0-1.134,2.7l.127,15.568h16.217l3.125,11.685a5.1,5.1,0,0,0,4.9,3.784l6.569.038a5.1,5.1,0,0,0,5-3.968l2.631-11.539h16.834l.127-15.568A3.847,3.847,0,0,0,5772.147,1600.025Z" transform="translate(-5717.769 -1595.883)" fill="#c7ddeb"/>
        </g>
        <g id="Grupo_17846" data-name="Grupo 17846" transform="translate(0 0)">
          <path id="Trazado_46400" data-name="Trazado 46400" d="M5817.055,1606.382a8.513,8.513,0,1,1,8.513-8.513A8.523,8.523,0,0,1,5817.055,1606.382Zm0-15.046a6.533,6.533,0,1,0,6.532,6.533A6.541,6.541,0,0,0,5817.055,1591.336Z" transform="translate(-5787.019 -1586.992)" fill="#3d4451"/>
          <path id="Trazado_46401" data-name="Trazado 46401" d="M5741.354,1620.792h-15.519a3.168,3.168,0,0,1-3.1-2.455l-3.222-13.746h-16.425l-.143-21.138a5.688,5.688,0,1,1,8.194,5.1,8.208,8.208,0,0,1,.19,6.329c5.785-2.689,11.872.381,14.141,1.767H5742c2.268-1.386,8.354-4.456,14.14-1.767a8.208,8.208,0,0,1,.19-6.329,5.688,5.688,0,1,1,8.194-5.105v.006l-.143,21.138H5747l-2.52,13.6A3.181,3.181,0,0,1,5741.354,1620.792Zm-36.473-18h16.063l3.549,15.135a1.373,1.373,0,0,0,1.343,1.065h15.519a1.38,1.38,0,0,0,1.357-1.129l2.793-15.072h17.089l.131-19.347a3.888,3.888,0,1,0-4.89,3.759l1.164.31-.627,1.029c-2.769,4.54,1.214,8.737,1.385,8.913l-1.282,1.265a10.154,10.154,0,0,0-9.085-2.977,17.919,17.919,0,0,0-6.651,2.568l-.22.139h-17.561l-.221-.139a17.919,17.919,0,0,0-6.651-2.568,10.152,10.152,0,0,0-9.085,2.977l-1.28-1.266c.169-.175,4.15-4.372,1.383-8.912l-.627-1.029,1.164-.31a3.887,3.887,0,1,0-4.89-3.756Zm58.744-19.344h0Z" transform="translate(-5702.949 -1577.759)" fill="#3d4451"/>
        </g>
        <g id="Grupo_17847" data-name="Grupo 17847" transform="translate(26.55 19.902)">
          <path id="Trazado_46402" data-name="Trazado 46402" d="M5838.154,1678.254h6.227l-2.241,3.444,1.743,9.874-2.74,3.9-2.988-3.9,1.992-9.874Z" transform="translate(-5837.146 -1677.672)" fill="#f04f4c"/>
          <path id="Trazado_46403" data-name="Trazado 46403" d="M5837.224,1694.187l-3.632-4.743,2-9.917-2.388-4.127h8.308l-2.7,4.151,1.745,9.886Zm-2.387-5.031,2.346,3.064,2.146-3.057-1.741-9.863,1.781-2.738h-4.145l1.6,2.762Z" transform="translate(-5833.206 -1675.4)" fill="#3d4451"/>
        </g>
        <path id="Trazado_46404" data-name="Trazado 46404" d="M5710.45,1625.105h-6.01a.776.776,0,1,1,0-1.551h6.01a.776.776,0,1,1,0,1.551Z" transform="translate(-5703.518 -1614.22)" fill="#3d4451"/>
        <path id="Trazado_46405" data-name="Trazado 46405" d="M5971.105,1625.105h-6.011a.776.776,0,1,1,0-1.551h6.011a.776.776,0,1,1,0,1.551Z" transform="translate(-5911.045 -1614.22)" fill="#3d4451"/>
      </g>
      <g id="Grupo_17851" data-name="Grupo 17851" transform="translate(27.846 54.131)">
        <g id="Grupo_17850" data-name="Grupo 17850" transform="translate(0 0)">
          <path id="Trazado_46406" data-name="Trazado 46406" d="M5835.229,1741.054l-4.457-.005,0-4.232s0-1.784,0-2.133a.74.74,0,0,0-.315-.56l-2.553,0c-.42,0-.525.209-.525.209s-2.314,5.278-3.331,6.991a3.649,3.649,0,0,1-3.08,1.64l-.01,9.094,3.008,0,1.957,1.681,8.289.009a2.172,2.172,0,0,0,1.4-.506l1-.833a2.175,2.175,0,0,0,.779-1.665l.009-7.513a2.173,2.173,0,0,0-1.051-1.864h0A2.174,2.174,0,0,0,5835.229,1741.054Z" transform="translate(-5811.297 -1733.309)" fill="#f5fafc"/>
          <path id="Trazado_46407" data-name="Trazado 46407" d="M5834.4,1762.574l-4.2,0,0-3.173s0-1.338,0-1.6-.3-.42-.3-.42l-2.4,0c-.4,0-.494.157-.494.157s-2.179,3.958-3.135,5.241a3.833,3.833,0,0,1-2.9,1.229l-.008,6.819,2.834,0,1.843,1.26,7.807.009a2.382,2.382,0,0,0,1.315-.379l.938-.624a1.521,1.521,0,0,0,.733-1.248l.007-5.634a1.6,1.6,0,0,0-.99-1.4h0A2.458,2.458,0,0,0,5834.4,1762.574Z" transform="translate(-5811.295 -1751.822)" fill="#fdc345"/>
          <path id="Trazado_46408" data-name="Trazado 46408" d="M5831.047,1751.388h0l-8.589-.01-1.957-1.681-3.521,0,.012-10.747.841.03a2.817,2.817,0,0,0,2.353-1.243c.979-1.651,3.263-6.85,3.285-6.9l.017-.037a1.341,1.341,0,0,1,1.25-.658h0l2.8,0,.205.136a1.538,1.538,0,0,1,.676,1.237l-.006,5.553,3.646,0a2.988,2.988,0,0,1,2.982,2.99l-.009,7.514a2.978,2.978,0,0,1-1.071,2.287l-1,.833A2.994,2.994,0,0,1,5831.047,1751.388Zm-7.989-1.634,7.988.009h0a1.365,1.365,0,0,0,.874-.317l1-.833a1.355,1.355,0,0,0,.488-1.043l.009-7.514a1.361,1.361,0,0,0-1.36-1.363l-5.269-.006.008-6.925-1.958,0c-.5,1.125-2.349,5.276-3.254,6.8a4.22,4.22,0,0,1-2.968,1.964l-.009,7.545,2.5,0Z" transform="translate(-5808.122 -1730.136)" fill="#3d4451"/>
          <g id="Grupo_17849" data-name="Grupo 17849" transform="translate(0 7.448)">
            <rect id="Rectángulo_4531" data-name="Rectángulo 4531" width="11.961" height="9.998" transform="translate(0.813 12.774) rotate(-89.935)" fill="#7eb9c7"/>
            <path id="Trazado_46409" data-name="Trazado 46409" d="M5785.15,1780.277l-11.623-.013.017-13.585,11.622.013Zm-10-1.636,8.373.01.012-10.336-8.373-.01Z" transform="translate(-5773.527 -1766.679)" fill="#3d4451"/>
          </g>
          <rect id="Rectángulo_4532" data-name="Rectángulo 4532" width="8.394" height="2.853" transform="translate(1.646 9.013) rotate(0.065)" fill="#f5fafc"/>
        </g>
      </g>
    </g>
  </g>
</svg>
