<svg xmlns="http://www.w3.org/2000/svg" width="168" height="168" viewBox="0 0 168 168">
  <g id="Group_23641" data-name="Group 23641" transform="translate(-495 -1762)">
    <circle id="Ellipse_972" data-name="Ellipse 972" cx="84" cy="84" r="84" transform="translate(495 1762)" fill="#ededed"/>
    <g id="Group_17776" data-name="Group 17776" transform="translate(-1111.621 256.035)">
      <g id="Group_17766" data-name="Group 17766" transform="translate(1634.856 1574.116)">
        <g id="Group_17750" data-name="Group 17750" transform="translate(0 0)">
          <path id="Path_46288" data-name="Path 46288" d="M1654.972,1656.919v5.781l42.167,49.139-.17-54.92Z" transform="translate(-1650.848 -1652.504)" fill="#c7ddeb"/>
          <path id="Path_46289" data-name="Path 46289" d="M1897.108,1661.065v51.009l41.488,2.551-.984-53.56Z" transform="translate(-1843.334 -1655.8)" fill="#c7ddeb"/>
          <g id="Group_17749" data-name="Group 17749">
            <g id="Group_17742" data-name="Group 17742">
              <rect id="Rectangle_4504" data-name="Rectangle 4504" width="2.483" height="62.108" transform="translate(48.68 0.375)" fill="#3d4451"/>
              <path id="Path_46290" data-name="Path 46290" d="M1711.219,1706.117h-27.893v-26.934h27.893Zm-26.5-1.392h25.109v-24.15h-25.109Z" transform="translate(-1673.387 -1670.202)" fill="#3d4451"/>
              <path id="Path_46291" data-name="Path 46291" d="M1734.242,1698.234h-99.386v-62.849h99.386Zm-97.257-2.128h95.129v-58.592h-95.129Z" transform="translate(-1634.856 -1635.386)" fill="#3d4451"/>
              <rect id="Rectangle_4505" data-name="Rectangle 4505" width="27.838" height="2.088" transform="translate(10.633 42.733)" fill="#3d4451"/>
              <rect id="Rectangle_4506" data-name="Rectangle 4506" width="27.838" height="2.088" transform="translate(10.633 48.127)" fill="#3d4451"/>
            </g>
            <g id="Group_17744" data-name="Group 17744" transform="translate(59.353 8.243)">
              <g id="Group_17743" data-name="Group 17743">
                <path id="Path_46292" data-name="Path 46292" d="M1926.836,1677.687h-.037l-2.068.973-.414-1.759,2.8-1.315h2.143v11.1h-2.425Z" transform="translate(-1924.317 -1675.587)" fill="#3d4451"/>
              </g>
            </g>
            <g id="Group_17746" data-name="Group 17746" transform="translate(59.367 25.18)">
              <g id="Group_17745" data-name="Group 17745">
                <path id="Path_46293" data-name="Path 46293" d="M1924.386,1769.424v-1.5l1.222-1.417c1.579-1.827,2.876-3.347,2.876-4.935a1.427,1.427,0,0,0-1.56-1.52,3.692,3.692,0,0,0-1.842.563l-.432-1.741a5.884,5.884,0,0,1,2.726-.683c2.67,0,3.534,1.622,3.534,3.21,0,2.083-1.429,3.756-2.839,5.242l-.733.785v.034h3.741v1.964Z" transform="translate(-1924.386 -1758.189)" fill="#3d4451"/>
              </g>
            </g>
            <g id="Group_17748" data-name="Group 17748" transform="translate(59.708 43.108)">
              <g id="Group_17747" data-name="Group 17747">
                <path id="Path_46294" data-name="Path 46294" d="M1926.409,1854.738a4.109,4.109,0,0,0,1.824.427c1.184,0,1.842-.666,1.842-1.605,0-1.229-1.034-1.759-2.293-1.759h-.339v-1.639h.244c.9-.017,2.068-.359,2.068-1.434a1.264,1.264,0,0,0-1.429-1.281,3.207,3.207,0,0,0-1.542.444l-.319-1.69a5.6,5.6,0,0,1,2.519-.581c2.143,0,3.215,1.263,3.215,2.681a2.706,2.706,0,0,1-1.748,2.493v.034a2.811,2.811,0,0,1,2.087,2.817c0,1.69-1.429,3.347-4.08,3.347a5.6,5.6,0,0,1-2.406-.5Z" transform="translate(-1926.052 -1845.62)" fill="#3d4451"/>
              </g>
            </g>
          </g>
          <rect id="Rectangle_4507" data-name="Rectangle 4507" width="20.149" height="1.811" transform="translate(71.967 46.791)" fill="#3d4451"/>
          <rect id="Rectangle_4508" data-name="Rectangle 4508" width="20.149" height="1.811" transform="translate(71.967 52.018)" fill="#3d4451"/>
          <rect id="Rectangle_4509" data-name="Rectangle 4509" width="20.149" height="1.811" transform="translate(71.967 28.337)" fill="#3d4451"/>
          <rect id="Rectangle_4510" data-name="Rectangle 4510" width="20.149" height="1.811" transform="translate(71.967 33.564)" fill="#3d4451"/>
          <rect id="Rectangle_4511" data-name="Rectangle 4511" width="20.149" height="1.811" transform="translate(71.967 9.883)" fill="#3d4451"/>
          <rect id="Rectangle_4512" data-name="Rectangle 4512" width="20.149" height="1.811" transform="translate(71.967 17.16)" fill="#3d4451"/>
        </g>
        <g id="Group_17765" data-name="Group 17765" transform="translate(14.685 13.683)">
          <g id="Group_17764" data-name="Group 17764">
            <g id="Group_17762" data-name="Group 17762">
              <g id="Group_17753" data-name="Group 17753" transform="translate(0.636 0.636)">
                <g id="Group_17752" data-name="Group 17752">
                  <g id="Group_17751" data-name="Group 17751">
                    <path id="Path_46295" data-name="Path 46295" d="M1733.69,1715.071a4.929,4.929,0,1,1,4.663-4.668A4.929,4.929,0,0,1,1733.69,1715.071Z" transform="translate(-1724.622 -1705.22)" fill="#f5fafc"/>
                    <path id="Path_46296" data-name="Path 46296" d="M1711.2,1766.121a1.623,1.623,0,0,1-1.59-1.944c.849-4.277,4.336-8.106,8.513-8.11s7.671,3.817,8.529,8.092a1.623,1.623,0,0,1-1.586,1.947Z" transform="translate(-1709.576 -1745.641)" fill="#f5fafc"/>
                  </g>
                </g>
              </g>
              <g id="Group_17756" data-name="Group 17756" transform="translate(3.15 2.499)">
                <g id="Group_17755" data-name="Group 17755">
                  <g id="Group_17754" data-name="Group 17754">
                    <path id="Path_46297" data-name="Path 46297" d="M1739.714,1721.836a3.78,3.78,0,1,1,3.259-3.567A3.616,3.616,0,0,1,1739.714,1721.836Z" transform="translate(-1733.166 -1714.309)" fill="#7eb9c7"/>
                    <path id="Path_46298" data-name="Path 46298" d="M1722.993,1772.206a1.216,1.216,0,0,1-1.133-1.481c.6-3.258,3.087-6.175,6.062-6.178s5.463,2.908,6.074,6.166a1.217,1.217,0,0,1-1.13,1.484Z" transform="translate(-1721.837 -1754.245)" fill="#7eb9c7"/>
                  </g>
                </g>
              </g>
              <g id="Group_17758" data-name="Group 17758">
                <g id="Group_17757" data-name="Group 17757">
                  <path id="Path_46299" data-name="Path 46299" d="M1730.973,1713.248a5.558,5.558,0,1,1,.285-.007C1731.164,1713.245,1731.068,1713.248,1730.973,1713.248Zm-.013-9.857q-.111,0-.222.006a4.293,4.293,0,0,0,.456,8.574h0a4.293,4.293,0,0,0-.234-8.58Z" transform="translate(-1721.522 -1702.119)" fill="#3d4451"/>
                  <path id="Path_46300" data-name="Path 46300" d="M1708.732,1764.291a2.258,2.258,0,0,1-2.212-2.7c.975-4.911,4.9-8.618,9.135-8.622h.008c4.229,0,8.16,3.7,9.145,8.6a2.258,2.258,0,0,1-2.209,2.708l-13.865.015Zm6.931-10.054h-.007c-3.995,0-7.149,3.866-7.89,7.6a.991.991,0,0,0,.206.825.979.979,0,0,0,.759.359h0l13.865-.015a.98.98,0,0,0,.759-.36.991.991,0,0,0,.2-.826C1722.813,1758.091,1719.654,1754.237,1715.663,1754.237Z" transform="translate(-1706.476 -1742.54)" fill="#3d4451"/>
                </g>
              </g>
              <g id="Group_17761" data-name="Group 17761" transform="translate(0.096 0.096)">
                <g id="Group_17760" data-name="Group 17760">
                  <g id="Group_17759" data-name="Group 17759">
                    <path id="Path_46301" data-name="Path 46301" d="M1731.347,1713.525a5.461,5.461,0,1,1,.28-.007h0Q1731.487,1713.525,1731.347,1713.525Zm-.014-9.857q-.113,0-.227.006a4.389,4.389,0,0,0,.465,8.767h0a4.389,4.389,0,0,0-.239-8.772Z" transform="translate(-1721.991 -1702.589)" fill="#3d4451"/>
                    <path id="Path_46302" data-name="Path 46302" d="M1709.105,1764.569a2.163,2.163,0,0,1-2.118-2.588c.966-4.867,4.853-8.54,9.041-8.544h.008c4.185,0,8.074,3.663,9.051,8.526a2.162,2.162,0,0,1-2.115,2.592l-13.865.015Zm6.931-10.054h-.006c-3.683,0-7.116,3.3-7.984,7.676a1.087,1.087,0,0,0,.226.905,1.074,1.074,0,0,0,.833.394h0l13.865-.015a1.074,1.074,0,0,0,.833-.4,1.087,1.087,0,0,0,.224-.906C1723.152,1757.806,1719.716,1754.515,1716.036,1754.515Z" transform="translate(-1706.945 -1743.01)" fill="#3d4451"/>
                  </g>
                </g>
              </g>
            </g>
            <g id="Group_17763" data-name="Group 17763" transform="translate(6.951 12.084)">
              <path id="Path_46303" data-name="Path 46303" d="M1746.018,1770.569l-1.233-5.548,1.13-2.466h-3.391l1.233,2.466-1.438,5.548Z" transform="translate(-1741.921 -1762.247)" fill="#f04f4c"/>
              <path id="Path_46304" data-name="Path 46304" d="M1744.858,1769.683h-4.482l1.51-5.822-1.4-2.809h4.37l-1.287,2.808Zm-3.685-.616h2.916l-1.172-5.275.973-2.123h-2.412l1.062,2.123Z" transform="translate(-1740.376 -1761.052)" fill="#3d4451"/>
            </g>
          </g>
        </g>
      </g>
      <g id="Group_17772" data-name="Group 17772" transform="translate(1714.259 1553.994)">
        <g id="Group_17770" data-name="Group 17770" transform="translate(0)">
          <ellipse id="Ellipse_961" data-name="Ellipse 961" cx="15.62" cy="15.177" rx="15.62" ry="15.177" transform="translate(5.033 5.172)" fill="#7eb9c7"/>
          <ellipse id="Ellipse_962" data-name="Ellipse 962" cx="13.714" cy="12.961" rx="13.714" ry="12.961" transform="translate(8.623 9.604)" fill="#f5fafc"/>
          <g id="Group_17769" data-name="Group 17769">
            <g id="Group_17767" data-name="Group 17767" transform="translate(0.17 0.241)">
              <path id="Path_46305" data-name="Path 46305" d="M2038.292,1598.075a19.8,19.8,0,1,0,0,28A19.8,19.8,0,0,0,2038.292,1598.075Zm-3.03,24.97a15.514,15.514,0,1,1,0-21.94A15.514,15.514,0,0,1,2035.261,1623.046Z" transform="translate(-2003.877 -1591.661)" fill="#fdc345"/>
              <path id="Path_46306" data-name="Path 46306" d="M2021.906,1630.1a20.4,20.4,0,1,1,14.435-5.97A20.352,20.352,0,0,1,2021.906,1630.1Zm0-39.589a19.185,19.185,0,1,0,13.565,5.619h0A19.057,19.057,0,0,0,2021.906,1590.506Zm0,35.314a16.13,16.13,0,1,1,11.405-4.724A16.024,16.024,0,0,1,2021.906,1625.82Zm0-31.028a14.9,14.9,0,1,0,10.535,25.434h0a14.9,14.9,0,0,0-10.535-25.434Z" transform="translate(-2001.492 -1589.276)" fill="#3d4451"/>
            </g>
            <path id="Path_46307" data-name="Path 46307" d="M2198.336,1787.295a1.8,1.8,0,0,1,.184,2.494l-1.691,1.692a1.8,1.8,0,0,1-2.494-.185l-6.435-6.435a1.749,1.749,0,0,1-.151-2.46l1.692-1.692a1.749,1.749,0,0,1,2.46.15Z" transform="translate(-2149.04 -1740.868)" fill="#7eb9c7"/>
            <path id="Path_46308" data-name="Path 46308" d="M2021.27,1629.308a20.592,20.592,0,1,1,14.573-6.026A20.543,20.543,0,0,1,2021.27,1629.308Zm0-39.589a18.991,18.991,0,1,0,13.428,5.562A18.867,18.867,0,0,0,2021.27,1589.719Z" transform="translate(-2000.662 -1588.101)" fill="#3d4451"/>
            <g id="Group_17768" data-name="Group 17768" transform="translate(33.033 31.669)">
              <rect id="Rectangle_4513" data-name="Rectangle 4513" width="4.001" height="6.649" transform="translate(0.94 3.769) rotate(-45)" fill="#f5fafc"/>
              <path id="Path_46309" data-name="Path 46309" d="M2167.4,1751.96l-5.642-5.642,3.769-3.769,5.642,5.642Zm-3.762-5.642,3.762,3.762,1.889-1.889-3.762-3.762Z" transform="translate(-2161.761 -1742.549)" fill="#3d4451"/>
            </g>
            <path id="Path_46310" data-name="Path 46310" d="M2195.628,1780.731l-.1,0a2.273,2.273,0,0,1-1.512-.669l-6.435-6.435a2.2,2.2,0,0,1-.653-1.5,2.011,2.011,0,0,1,.587-1.49l1.817-1.816a2.011,2.011,0,0,1,1.49-.587,2.2,2.2,0,0,1,1.5.652l6.435,6.435a2.275,2.275,0,0,1,.669,1.513,1.986,1.986,0,0,1-.57,1.513l-1.816,1.816A1.975,1.975,0,0,1,2195.628,1780.731Zm-4.859-11.87a1.382,1.382,0,0,0-.989.4l-1.817,1.816a1.386,1.386,0,0,0-.4,1.028,1.569,1.569,0,0,0,.468,1.071l6.435,6.435a1.667,1.667,0,0,0,1.094.485,1.375,1.375,0,0,0,1.04-.385l1.816-1.816a1.363,1.363,0,0,0,.385-1.039,1.669,1.669,0,0,0-.485-1.094l-6.435-6.435a1.568,1.568,0,0,0-1.071-.468Z" transform="translate(-2148.737 -1731.295)" fill="#3d4451"/>
            <path id="Path_46311" data-name="Path 46311" d="M2194.274,1779.726l-.113,0a2.625,2.625,0,0,1-1.745-.771l-6.435-6.435a2.545,2.545,0,0,1-.755-1.739,2.358,2.358,0,0,1,.689-1.746l1.817-1.816a2.359,2.359,0,0,1,1.746-.689,2.545,2.545,0,0,1,1.739.754l6.435,6.435a2.622,2.622,0,0,1,.771,1.744,2.331,2.331,0,0,1-.672,1.775l-1.816,1.816A2.321,2.321,0,0,1,2194.274,1779.726Zm-4.859-11.87a1.037,1.037,0,0,0-.742.3l-1.816,1.816a1.042,1.042,0,0,0-.3.772,1.222,1.222,0,0,0,.366.833l6.435,6.435a1.316,1.316,0,0,0,.862.383,1.014,1.014,0,0,0,.777-.283l1.816-1.816a1.018,1.018,0,0,0,.284-.777,1.316,1.316,0,0,0-.383-.862l-6.435-6.435a1.223,1.223,0,0,0-.833-.365Z" transform="translate(-2147.383 -1729.941)" fill="#3d4451"/>
          </g>
        </g>
        <g id="Group_17771" data-name="Group 17771" transform="translate(10.102 12.662)">
          <path id="Path_46312" data-name="Path 46312" d="M2061.182,1668.359a1.761,1.761,0,0,1-1.181-.541l-5.741-5.824a1.277,1.277,0,0,1,.167-1.968,1.771,1.771,0,0,1,2.251.144l4.5,4.534,9.728-10.385a1.765,1.765,0,0,1,2.246-.2,1.266,1.266,0,0,1,.234,1.949l-10.932,11.724a1.693,1.693,0,0,1-1.217.567Z" transform="translate(-2053.064 -1652.997)" fill="#4ece46"/>
          <path id="Path_46313" data-name="Path 46313" d="M2058.119,1666.025h-.086a2.561,2.561,0,0,1-1.742-.78l-5.742-5.826a2.1,2.1,0,0,1-.615-1.631,2.148,2.148,0,0,1,.874-1.554,2.575,2.575,0,0,1,3.309.222l3.9,3.939,9.154-9.772a2.567,2.567,0,0,1,3.3-.307,2.166,2.166,0,0,1,.923,1.537,2.052,2.052,0,0,1-.565,1.626l-10.93,11.722A2.479,2.479,0,0,1,2058.119,1666.025Zm-5.783-8.67a.944.944,0,0,0-.561.176.526.526,0,0,0-.228.377.474.474,0,0,0,.152.373l5.743,5.826a.957.957,0,0,0,.619.3h.063a.906.906,0,0,0,.6-.311l10.931-11.723a.454.454,0,0,0,.137-.359.545.545,0,0,0-.248-.379.96.96,0,0,0-1.187.092l-10.3,11-5.087-5.131A.894.894,0,0,0,2052.336,1657.355Z" transform="translate(-2049.928 -1649.853)" fill="#3d4451"/>
        </g>
      </g>
      <g id="Group_17775" data-name="Group 17775" transform="translate(1637.938 1545.197)">
        <g id="Group_17774" data-name="Group 17774" transform="translate(0 4.157)">
          <g id="Group_17773" data-name="Group 17773" transform="translate(56.248)">
            <path id="Path_46314" data-name="Path 46314" d="M1925.594,1570.516l13.821,3.795-13.821,3.795" transform="translate(-1925.31 -1569.481)" fill="#f2f2f2"/>
            <path id="Path_46315" data-name="Path 46315" d="M1924.776,1575.128l-.568-2.07,10.052-2.76-10.052-2.76.568-2.07,13.821,3.795a1.073,1.073,0,0,1,0,2.069Z" transform="translate(-1924.208 -1565.469)" fill="#3d4451"/>
          </g>
          <rect id="Rectangle_4514" data-name="Rectangle 4514" width="56.06" height="4.101" transform="translate(0.823 4.825)" fill="#7eb9c7"/>
          <path id="Path_46316" data-name="Path 46316" d="M1706.77,1575.2h-56.012a.871.871,0,0,1-.871-.871v-7.589a.871.871,0,0,1,.871-.871h56.012a.871.871,0,0,1,.871.871v7.589A.871.871,0,0,1,1706.77,1575.2Zm-55.141-1.742H1705.9v-5.847h-54.269Z" transform="translate(-1649.887 -1565.784)" fill="#3d4451"/>
        </g>
        <path id="Path_46317" data-name="Path 46317" d="M1700.1,1550.859v-4.61c0-.582.79-1.053,1.764-1.053h21.365c.974,0,1.764.471,1.764,1.053v.241c0,.581-.79,1.053-1.764,1.053h-17.832c-.974,0-1.764.472-1.764,1.053v2.263" transform="translate(-1689.8 -1545.197)" fill="#3d4451"/>
        <rect id="Rectangle_4515" data-name="Rectangle 4515" width="1.753" height="8.23" transform="translate(10.465 4.853)" fill="#3d4451"/>
      </g>
    </g>
  </g>
</svg>
