<svg xmlns="http://www.w3.org/2000/svg" width="168" height="168" viewBox="0 0 168 168">
  <g id="Group_23645" data-name="Group 23645" transform="translate(-497 -2668)">
    <circle id="Ellipse_976" data-name="Ellipse 976" cx="84" cy="84" r="84" transform="translate(497 2668)" fill="#ededed"/>
    <g id="Group_17813" data-name="Group 17813" transform="translate(-1666.238 1087.807)">
      <g id="Group_17811" data-name="Group 17811" transform="translate(2200.656 1620.608)">
        <g id="Group_17807" data-name="Group 17807" transform="translate(0)">
          <g id="Group_17805" data-name="Group 17805">
            <g id="Group_17802" data-name="Group 17802" transform="translate(9.185 5.175)">
              <g id="Group_17801" data-name="Group 17801">
                <g id="Group_17800" data-name="Group 17800">
                  <path id="Path_46354" data-name="Path 46354" d="M2298.128,1672.131c-8.752.477-15.946-7.167-15.512-16.482.372-7.977,6.456-14.465,13.952-14.876,8.757-.48,15.958,7.17,15.519,16.489C2311.711,1665.238,2305.624,1671.722,2298.128,1672.131Z" transform="translate(-2270.73 -1640.75)" fill="#c7ddeb"/>
                  <path id="Path_46355" data-name="Path 46355" d="M2241.537,1798.938c-3.243,0-5.661-3.276-5.03-6.789,2.685-14.937,13.709-28.309,26.919-28.323s24.259,13.335,26.976,28.266c.639,3.512-1.773,6.8-5.016,6.8Z" transform="translate(-2236.406 -1732.205)" fill="#c7ddeb"/>
                </g>
              </g>
            </g>
            <g id="Group_17804" data-name="Group 17804">
              <g id="Group_17803" data-name="Group 17803">
                <path id="Path_46356" data-name="Path 46356" d="M2272.781,1658.535a18.808,18.808,0,1,1,.972-.025h0Q2273.266,1658.535,2272.781,1658.535Zm-.048-34.674q-.405,0-.812.021a15.712,15.712,0,0,0,1.665,31.38h0a15.711,15.711,0,0,0-.853-31.4Z" transform="translate(-2240.142 -1620.607)" fill="#3d4451"/>
                <path id="Path_46357" data-name="Path 46357" d="M2207.983,1801.974a7.336,7.336,0,0,1-7.184-8.781,40.693,40.693,0,0,1,11.031-20.736c5.892-5.862,13.175-9.094,20.508-9.1h.026c7.323,0,14.6,3.216,20.5,9.059a40.7,40.7,0,0,1,11.074,20.714,7.336,7.336,0,0,1-7.173,8.8l-48.773.051Zm0-3.253,0,1.627,0-1.627,48.773-.051a4.05,4.05,0,0,0,3.141-1.49,4.1,4.1,0,0,0,.846-3.413,37.407,37.407,0,0,0-10.175-19.043c-5.282-5.234-11.749-8.117-18.208-8.117h-.022c-6.469.007-12.938,2.9-18.217,8.155a37.406,37.406,0,0,0-10.135,19.064,4.094,4.094,0,0,0,.853,3.411,4.049,4.049,0,0,0,3.14,1.484Z" transform="translate(-2200.656 -1726.679)" fill="#3d4451"/>
              </g>
            </g>
          </g>
          <g id="Group_17806" data-name="Group 17806" transform="translate(23.843 41.897)">
            <path id="Path_46358" data-name="Path 46358" d="M2311.925,1816.093l-4.337-19.517,3.976-8.674h-11.927l4.337,8.674-5.06,19.517Z" transform="translate(-2297.512 -1786.817)" fill="#f04f4c"/>
            <path id="Path_46359" data-name="Path 46359" d="M2309.224,1814.041h-15.765l5.31-20.48-4.94-9.88H2309.2l-4.528,9.879Zm-12.962-2.169h10.259l-4.123-18.553,3.424-7.469h-8.483l3.734,7.468Z" transform="translate(-2293.459 -1783.681)" fill="#3d4451"/>
          </g>
        </g>
        <g id="Group_17810" data-name="Group 17810" transform="translate(46.875 50.172)">
          <g id="Group_17808" data-name="Group 17808" transform="translate(0 6.519)">
            <rect id="Rectangle_4521" data-name="Rectangle 4521" width="36.016" height="24.917" rx="4.554" transform="translate(1.723 1.818) rotate(-0.152)" fill="#fdc345"/>
            <path id="Path_46360" data-name="Path 46360" d="M2386.058,1869.719a2.9,2.9,0,0,1-2.9-2.888l-.059-22.577a2.9,2.9,0,0,1,2.888-2.9l33.676-.089h.008a2.9,2.9,0,0,1,2.9,2.888l.06,22.577a2.9,2.9,0,0,1-2.888,2.9h0l-33.676.089Zm.5-24.918.057,21.465,32.564-.086-.056-21.465Zm33.177,21.377h0Z" transform="translate(-2383.103 -1841.261)" fill="#3d4451"/>
          </g>
          <path id="Path_46361" data-name="Path 46361" d="M2408.987,1824.417l-.009-2.439a5.722,5.722,0,0,1,5.546-5.71l14.988-.378a5.672,5.672,0,0,1,5.814,5.646l.012,2.806-3.684.016-.011-2.806a1.989,1.989,0,0,0-2.039-1.979l-14.987.378a2.018,2.018,0,0,0-1.956,2.013l.009,2.439Z" transform="translate(-2402.33 -1815.888)" fill="#3d4451"/>
          <circle id="Ellipse_968" data-name="Ellipse 968" cx="2.775" cy="2.775" r="2.775" transform="matrix(0.371, -0.929, 0.929, 0.371, 15.679, 20.189)" fill="#3d4451"/>
          <g id="Group_17809" data-name="Group 17809" transform="translate(1.585 19.786)">
            <line id="Line_2" data-name="Line 2" y1="0.209" x2="35.729" transform="translate(0.007 1.151)" fill="#fdc345"/>
            <rect id="Rectangle_4522" data-name="Rectangle 4522" width="35.729" height="2.301" transform="translate(0 0.21) rotate(-0.337)" fill="#3d4451"/>
          </g>
        </g>
      </g>
      <g id="Group_17812" data-name="Group 17812" transform="translate(2259.893 1632.74)">
        <path id="Path_46362" data-name="Path 46362" d="M2450.009,1699.144a3.132,3.132,0,0,1-2.111-.873l-10.441-9.783a2.192,2.192,0,0,1,.181-3.42,3.157,3.157,0,0,1,3.971.127l8.175,7.616,16.522-18.518a3.143,3.143,0,0,1,3.941-.466,2.176,2.176,0,0,1,.525,3.365l-18.564,20.9a2.989,2.989,0,0,1-2.109,1.048Z" transform="translate(-2435.308 -1671.923)" fill="#4ece46"/>
        <path id="Path_46363" data-name="Path 46363" d="M2445.886,1696.462a4.536,4.536,0,0,1-3.041-1.253l-10.443-9.786a3.638,3.638,0,0,1-1.18-2.809,3.721,3.721,0,0,1,1.455-2.755,4.564,4.564,0,0,1,5.805.206l7.118,6.632,15.56-17.441a4.546,4.546,0,0,1,5.766-.71,3.765,3.765,0,0,1,1.716,2.633,3.544,3.544,0,0,1-.907,2.858l-18.561,20.9a4.351,4.351,0,0,1-3.147,1.523h-.142Zm-10.416-14.717a1.713,1.713,0,0,0-1.049.34.89.89,0,0,0-.374.65.8.8,0,0,0,.285.623l10.444,9.786a1.717,1.717,0,0,0,1.125.492h.1a1.6,1.6,0,0,0,1.065-.574l18.563-20.9a.754.754,0,0,0,.216-.606.937.937,0,0,0-.456-.636,1.733,1.733,0,0,0-2.113.222l-17.484,19.6-9.231-8.6A1.6,1.6,0,0,0,2435.469,1681.745Z" transform="translate(-2431.219 -1667.828)" fill="#3d4451"/>
      </g>
    </g>
  </g>
</svg>
