<svg xmlns="http://www.w3.org/2000/svg" xmlns:xlink="http://www.w3.org/1999/xlink" width="169" height="169" viewBox="0 0 169 169">
  <defs>
    <radialGradient id="radial-gradient" cx="0.5" cy="0.5" r="0.5" gradientUnits="objectBoundingBox">
      <stop offset="0" stop-color="#fff"/>
      <stop offset="1" stop-color="#fae7b7"/>
    </radialGradient>
  </defs>
  <g id="Grupo_26377" data-name="Grupo 26377" transform="translate(-482 -5211)">
    <g id="Elipse_1362" data-name="Elipse 1362" transform="translate(490 5219)" stroke="#fff" stroke-width="8" fill="url(#radial-gradient)">
      <circle cx="76.5" cy="76.5" r="76.5" stroke="none"/>
      <circle cx="76.5" cy="76.5" r="80.5" fill="none"/>
    </g>
    <g id="Grupo_17840" data-name="Grupo 17840" transform="translate(526.891 5253.965)">
      <path id="Trazado_46374" data-name="Trazado 46374" d="M4040.705,1631.537l-1.836-1.02,9.092-16.365,4.629,4.839,8.092-14.268,4.783,6.654,9.495-18.567,4.749,7.339,5.83-8.562,1.736,1.182-7.61,11.177-4.491-6.941-9.405,18.392-4.877-6.786-7.868,13.871-4.611-4.821Z" transform="translate(-4031.253 -1575.046)" fill="#3d4451"/>
      <g id="Grupo_17837" data-name="Grupo 17837" transform="translate(0.001)">
        <ellipse id="Elipse_979" data-name="Elipse 979" cx="28.626" cy="3.345" rx="28.626" ry="3.345" transform="translate(0 73.831)" fill="#7eb9c7"/>
        <g id="Grupo_17835" data-name="Grupo 17835" transform="translate(5.701 31.126)">
          <g id="Grupo_17834" data-name="Grupo 17834">
            <g id="Grupo_17830" data-name="Grupo 17830" transform="translate(36.356)">
              <rect id="Rectángulo_4526" data-name="Rectángulo 4526" width="9.87" height="43.049" transform="translate(0.916 0.916)" fill="#fdc345"/>
              <path id="Trazado_46375" data-name="Trazado 46375" d="M4238.655,1716.115h-11.7v-44.881h11.7Zm-9.87-1.831h8.039v-41.218h-8.039Z" transform="translate(-4226.954 -1671.234)" fill="#3d4451"/>
            </g>
            <g id="Grupo_17831" data-name="Grupo 17831" transform="translate(23.225 10.92)">
              <rect id="Rectángulo_4527" data-name="Rectángulo 4527" width="8.884" height="32.129" transform="translate(0.916 0.916)" fill="#f04f4c"/>
              <path id="Trazado_46376" data-name="Trazado 46376" d="M4165.958,1764.827h-10.715v-33.96h10.715Zm-8.884-1.831h7.053v-30.3h-7.053Z" transform="translate(-4155.243 -1730.867)" fill="#3d4451"/>
            </g>
            <g id="Grupo_17832" data-name="Grupo 17832" transform="translate(0 30.003)">
              <rect id="Rectángulo_4528" data-name="Rectángulo 4528" width="7.217" height="13.23" transform="translate(0.733 0.732)" fill="#c7ddeb"/>
              <path id="Trazado_46377" data-name="Trazado 46377" d="M4037.1,1849.772h-8.682v-14.695h8.682Zm-7.217-1.465h5.752v-11.765h-5.752Z" transform="translate(-4028.414 -1835.077)" fill="#3d4451"/>
            </g>
            <g id="Grupo_17833" data-name="Grupo 17833" transform="translate(11.447 19.915)">
              <rect id="Rectángulo_4529" data-name="Rectángulo 4529" width="8.093" height="23.317" transform="translate(0.732 0.732)" fill="#7eb9c7"/>
              <path id="Trazado_46378" data-name="Trazado 46378" d="M4100.481,1804.771h-9.558v-24.782h9.558Zm-8.093-1.465h6.628v-21.852h-6.628Z" transform="translate(-4090.923 -1779.989)" fill="#3d4451"/>
            </g>
          </g>
        </g>
        <g id="Grupo_17836" data-name="Grupo 17836" transform="translate(7.422)">
          <path id="Trazado_46379" data-name="Trazado 46379" d="M4100.1,1516.038a31.608,31.608,0,1,0,0,44.7A31.607,31.607,0,0,0,4100.1,1516.038Zm-3.666,41.034a26.423,26.423,0,1,1,0-37.368A26.424,26.424,0,0,1,4096.43,1557.072Z" transform="translate(-4044.614 -1505.768)" fill="#c7ddeb"/>
          <path id="Trazado_46380" data-name="Trazado 46380" d="M4391.1,1859a3.047,3.047,0,0,1,.313,4.234l-2.871,2.872a3.047,3.047,0,0,1-4.233-.313l-10.923-10.923a2.969,2.969,0,0,1-.255-4.176l2.872-2.872a2.969,2.969,0,0,1,4.176.255Z" transform="translate(-4311.124 -1783.751)" fill="#c7ddeb"/>
          <path id="Trazado_46381" data-name="Trazado 46381" d="M4070.448,1566.51a32.609,32.609,0,1,1,23.076-9.543A32.529,32.529,0,0,1,4070.448,1566.51Zm0-63.2a30.581,30.581,0,1,0,21.624,8.957A30.382,30.382,0,0,0,4070.449,1503.31Z" transform="translate(-4037.814 -1501.256)" fill="#3d4451"/>
          <path id="Trazado_46382" data-name="Trazado 46382" d="M4094.545,1585.219a27.158,27.158,0,0,1-19.265-7.967h0a27.277,27.277,0,1,1,19.265,7.967Zm0-52.917a25.684,25.684,0,1,0,18.17,7.514A25.614,25.614,0,0,0,4094.545,1532.3Z" transform="translate(-4061.911 -1525.352)" fill="#3d4451"/>
          <path id="Trazado_46383" data-name="Trazado 46383" d="M4336.592,1793.827l-8.862-8.862,5.683-5.683,8.862,8.862Zm-7.1-8.862,7.1,7.1,3.922-3.922-7.1-7.1Z" transform="translate(-4274.642 -1728.37)" fill="#3d4451"/>
          <path id="Trazado_46384" data-name="Trazado 46384" d="M4386.429,1845.407c-.055,0-.11,0-.165,0a3.861,3.861,0,0,1-2.567-1.135l-10.923-10.923a3.732,3.732,0,0,1-1.107-2.548,3.413,3.413,0,0,1,1-2.529l3.083-3.083a3.4,3.4,0,0,1,2.53-1,3.729,3.729,0,0,1,2.547,1.107l10.924,10.923a3.863,3.863,0,0,1,1.136,2.567,3.373,3.373,0,0,1-.967,2.568l-3.083,3.083A3.353,3.353,0,0,1,4386.429,1845.407Zm-8.248-20.149a2.348,2.348,0,0,0-1.679.684l-3.083,3.083a2.352,2.352,0,0,0-.683,1.745,2.663,2.663,0,0,0,.794,1.818l10.923,10.923a2.833,2.833,0,0,0,1.857.823,2.3,2.3,0,0,0,1.764-.654l3.083-3.083a2.314,2.314,0,0,0,.654-1.764,2.835,2.835,0,0,0-.823-1.857l-10.924-10.923a2.666,2.666,0,0,0-1.818-.794Z" transform="translate(-4310.531 -1765.052)" fill="#3d4451"/>
          <path id="Trazado_46385" data-name="Trazado 46385" d="M4384.466,1843.886c-.062,0-.123,0-.185,0a4.3,4.3,0,0,1-2.86-1.264l-10.923-10.923a4.17,4.17,0,0,1-1.237-2.848,3.852,3.852,0,0,1,1.125-2.852l3.083-3.083a3.861,3.861,0,0,1,2.852-1.125,4.168,4.168,0,0,1,2.848,1.236l10.923,10.923a4.3,4.3,0,0,1,1.264,2.86,3.808,3.808,0,0,1-1.1,2.9l-3.083,3.083A3.79,3.79,0,0,1,4384.466,1843.886Zm-8.248-20.15a1.912,1.912,0,0,0-1.367.555l-3.084,3.083a1.916,1.916,0,0,0-.554,1.422,2.226,2.226,0,0,0,.666,1.518l10.922,10.923a2.389,2.389,0,0,0,1.564.694,1.875,1.875,0,0,0,1.435-.525l3.083-3.083a1.881,1.881,0,0,0,.525-1.434,2.384,2.384,0,0,0-.694-1.564l-10.923-10.923a2.227,2.227,0,0,0-1.518-.665Z" transform="translate(-4308.566 -1763.09)" fill="#3d4451"/>
          <path id="Trazado_46386" data-name="Trazado 46386" d="M4401.039,1871.018a.536.536,0,0,1-.379-.156l-10.245-10.246a.535.535,0,0,1,.757-.757l10.246,10.246a.535.535,0,0,1-.378.914Z" transform="translate(-4325.719 -1794.064)" fill="#3d4451"/>
        </g>
      </g>
      <g id="Grupo_17838" data-name="Grupo 17838" transform="translate(51.059 15.557)">
        <circle id="Elipse_980" data-name="Elipse 980" cx="2.31" cy="2.31" r="2.31" transform="translate(0.237 2.005) rotate(-22.5)" fill="#f04f4c"/>
        <path id="Trazado_46387" data-name="Trazado 46387" d="M4279.36,1592.723a3.255,3.255,0,1,1,3.254-3.255A3.259,3.259,0,0,1,4279.36,1592.723Zm0-4.62a1.365,1.365,0,1,0,1.364,1.365A1.367,1.367,0,0,0,4279.36,1588.1Z" transform="translate(-4276.105 -1586.213)" fill="#3d4451"/>
      </g>
      <g id="Grupo_17839" data-name="Grupo 17839" transform="translate(5.805 52.621)">
        <circle id="Elipse_981" data-name="Elipse 981" cx="2.31" cy="2.31" r="2.31" transform="translate(0.605 5.165) rotate(-80.783)" fill="#f04f4c"/>
        <path id="Trazado_46388" data-name="Trazado 46388" d="M4032.23,1795.129a3.255,3.255,0,1,1,3.255-3.255A3.258,3.258,0,0,1,4032.23,1795.129Zm0-4.62a1.365,1.365,0,1,0,1.365,1.365A1.367,1.367,0,0,0,4032.23,1790.509Z" transform="translate(-4028.975 -1788.619)" fill="#3d4451"/>
      </g>
    </g>
  </g>
</svg>
