<svg xmlns="http://www.w3.org/2000/svg" xmlns:xlink="http://www.w3.org/1999/xlink" width="169" height="169" viewBox="0 0 169 169">
  <defs>
    <radialGradient id="radial-gradient" cx="0.5" cy="0.5" r="0.5" gradientUnits="objectBoundingBox">
      <stop offset="0" stop-color="#fff"/>
      <stop offset="1" stop-color="#fae7b7"/>
    </radialGradient>
  </defs>
  <g id="Grupo_26378" data-name="Grupo 26378" transform="translate(-482 -5485)">
    <g id="Elipse_1361" data-name="Elipse 1361" transform="translate(490 5493)" stroke="#fff" stroke-width="8" fill="url(#radial-gradient)">
      <circle cx="76.5" cy="76.5" r="76.5" stroke="none"/>
      <circle cx="76.5" cy="76.5" r="80.5" fill="none"/>
    </g>
    <g id="Grupo_17854" data-name="Grupo 17854" transform="translate(513.691 5539.017)">
      <g id="Grupo_17723" data-name="Grupo 17723" transform="translate(25.839 3.023)">
        <ellipse id="Elipse_959" data-name="Elipse 959" cx="33.288" cy="4.582" rx="33.288" ry="4.582" transform="translate(0 58.882)" fill="#c7ddeb"/>
        <g id="Grupo_17722" data-name="Grupo 17722">
          <path id="Trazado_46244" data-name="Trazado 46244" d="M3869.1,1655.136l2.18-7.5a1.316,1.316,0,0,0-1.294-1.664H3862.7a1.315,1.315,0,0,0-1.29,1.677l.517,1.711" transform="translate(-3810.822 -1634.877)" fill="#fdc345"/>
          <path id="Trazado_46245" data-name="Trazado 46245" d="M3827.374,1754.458h-2.618c-8.192,0-14.407-6.548-13.012-13.708l1.309-6.718c1.094-5.616,6.587-9.719,13.012-9.719h0c6.426,0,11.919,4.1,13.013,9.719l1.309,6.718C3841.781,1747.91,3835.566,1754.458,3827.374,1754.458Z" transform="translate(-3770.031 -1699.042)" fill="#fdc345"/>
          <path id="Trazado_46246" data-name="Trazado 46246" d="M3805.448,1737.163h-2.836a15.611,15.611,0,0,1-12.131-5.513,12.8,12.8,0,0,1-2.832-10.705l1.418-7.434c1.268-6.648,7.561-11.472,14.964-11.472s13.7,4.825,14.963,11.472l1.418,7.434a12.8,12.8,0,0,1-2.832,10.705A15.611,15.611,0,0,1,3805.448,1737.163Zm-1.418-33.358c-6.555,0-12.119,4.221-13.229,10.037l-1.417,7.434a11.061,11.061,0,0,0,2.458,9.248,13.852,13.852,0,0,0,10.77,4.872h2.836a13.85,13.85,0,0,0,10.77-4.872,11.058,11.058,0,0,0,2.458-9.249l-1.417-7.434C3816.149,1708.027,3810.585,1703.806,3804.03,1703.806Z" transform="translate(-3750.269 -1680.799)" fill="#3d4451"/>
          <g id="Grupo_17717" data-name="Grupo 17717" transform="translate(49.243 30.648)">
            <path id="Trazado_46247" data-name="Trazado 46247" d="M3859.778,1767.928v1.872h-1.47v-1.821a9.338,9.338,0,0,1-3.806-.793v-2.39a6.277,6.277,0,0,0,1.742.751,9.183,9.183,0,0,0,2.064.4V1762.8a8.1,8.1,0,0,1-3.217-1.626,3,3,0,0,1,.257-4.444,5.1,5.1,0,0,1,2.96-1.109v-1.6h1.47v1.57a8.519,8.519,0,0,1,3.172.587v2.33a8.516,8.516,0,0,0-3.172-.9v3.27a8.456,8.456,0,0,1,3.162,1.558,2.769,2.769,0,0,1,.957,2.118,2.839,2.839,0,0,1-1.067,2.308A5.566,5.566,0,0,1,3859.778,1767.928Zm-1.47-7.55v-2.735q-1.4.216-1.4,1.251Q3856.909,1759.783,3858.309,1760.378Zm1.47,2.917v2.614q1.44-.189,1.44-1.234Q3861.218,1763.829,3859.778,1763.294Z" transform="translate(-3854.231 -1754.019)" fill="#3d4451"/>
          </g>
          <path id="Trazado_46248" data-name="Trazado 46248" d="M3851.556,1643.108l-1.469-.427,2.6-8.939h-9.694l.81,2.679-1.464.443-1.406-4.651h13.792Z" transform="translate(-3794.093 -1623.613)" fill="#3d4451"/>
          <g id="Grupo_17718" data-name="Grupo 17718" transform="translate(48.013 19.624)">
            <rect id="Rectángulo_4499" data-name="Rectángulo 4499" width="9.749" height="2.77" rx="1.385" transform="translate(0.628 0.628)" fill="#f04f4c"/>
            <path id="Trazado_46249" data-name="Trazado 46249" d="M3856.655,1697.142h-7.433a1.788,1.788,0,0,1-1.786-1.786v-.453a1.788,1.788,0,0,1,1.786-1.786h7.433a1.788,1.788,0,0,1,1.786,1.786v.453A1.788,1.788,0,0,1,3856.655,1697.142Zm-7.433-2.77a.53.53,0,0,0-.53.53v.453a.53.53,0,0,0,.53.53h7.433a.531.531,0,0,0,.53-.53v-.453a.531.531,0,0,0-.53-.53Z" transform="translate(-3847.436 -1693.116)" fill="#3d4451"/>
          </g>
          <g id="Grupo_17721" data-name="Grupo 17721">
            <g id="Grupo_17720" data-name="Grupo 17720" transform="translate(12.11)">
              <g id="Grupo_17719" data-name="Grupo 17719">
                <path id="Trazado_46250" data-name="Trazado 46250" d="M3657,1601.379a8.345,8.345,0,1,0-7.9-7.9A8.345,8.345,0,0,0,3657,1601.379Z" transform="translate(-3649.088 -1584.7)" fill="#3d4451"/>
              </g>
            </g>
            <path id="Trazado_46251" data-name="Trazado 46251" d="M3594.013,1686.21l-4.133,10.193a4,4,0,0,1-5.059,2.23,4.212,4.212,0,0,1-2.43-2.338c-.491-1.185,0-2.523.364-3.691l3.979-12.672c1.123-3.575,2.307-7.677,5.041-10.4a13.89,13.89,0,0,1,9.588-4.368c1.547,0,7.79-.021,11.3.2,0,0,18.417-4.709,19.5-4.888a4.643,4.643,0,0,1,3.192.5,2.857,2.857,0,0,1,1.3,1.757,3.838,3.838,0,0,1-.949,3.414c-1.636,1.8-4.325,2.508-6.529,3.327l-7.843,2.911c-1.583.588-3.165.94-4.289,2.272a9.576,9.576,0,0,0-1.828,3.737,26.543,26.543,0,0,0-.665,5.362c-.312,5.636-.777,11.289-.774,16.928,0,2.682.085,5.364.086,8.047a4.112,4.112,0,0,1-3.45,4.092,4.069,4.069,0,0,1-4.668-4.014v-14.043h-3.73v13.516a4.116,4.116,0,0,1-3.437,4.1,4.069,4.069,0,0,1-4.681-4.012V1686.21" transform="translate(-3582.183 -1646.694)" fill="#3d4451"/>
            <path id="Trazado_46252" data-name="Trazado 46252" d="M3688.977,1700.064l1.441-3.744h-4.484l1.441,3.744-1.761,9.262,2.562,4.139,2.562-4.139Z" transform="translate(-3666.893 -1676.116)" fill="#f04f4c"/>
          </g>
        </g>
      </g>
      <path id="Trazado_46253" data-name="Trazado 46253" d="M3445.6,1757.323l-1.378,1.937,4.6.469.292.208.118-.166,5.488.56-4.456-9.561-1.88,2.643a12.424,12.424,0,0,1-1.869-16.159,11.9,11.9,0,0,1,7.289-4.736l2.376-.5-1.214-4.729-2.376.5a16.538,16.538,0,0,0-10.13,6.581C3437.385,1741.5,3438.869,1751.426,3445.6,1757.323Z" transform="translate(-3439.433 -1698.458)" fill="#f04f4c"/>
      <path id="Trazado_46254" data-name="Trazado 46254" d="M3938.09,1574.921l.65.342a11.86,11.86,0,0,1,6.343,12.623,11.388,11.388,0,0,1-3.79,6.58l-1.77,1.534,3.256,3.446,1.77-1.534a15.83,15.83,0,0,0,5.27-9.146,16.48,16.48,0,0,0-8.816-17.539l-2.027-1.068.4-2.159-9.65,3.335,7.807,6.579Z" transform="translate(-3840.979 -1568)" fill="#7eb9c7"/>
    </g>
  </g>
</svg>
