<svg xmlns="http://www.w3.org/2000/svg" width="142.857" height="190.083" viewBox="0 0 142.857 190.083">
  <g id="Group_22993" data-name="Group 22993" transform="translate(-908.163 -205.348)">
    <g id="Group_22979" data-name="Group 22979" transform="translate(938.31 308.531)">
      <g id="Group_22933" data-name="Group 22933" transform="translate(0 9.412)">
        <rect id="Rectangle_5248" data-name="Rectangle 5248" width="109.681" height="74.459" transform="translate(1.515 1.514)" fill="#fff"/>
        <path id="Path_50728" data-name="Path 50728" d="M1040.777,357.175H928.067V279.687h112.71ZM931.1,354.145h106.651V282.716H931.1Z" transform="translate(-928.067 -279.687)" fill="#42566b"/>
      </g>
      <g id="Group_22974" data-name="Group 22974" transform="translate(11.511 22.689)">
        <g id="Group_22935" data-name="Group 22935">
          <g id="Group_22934" data-name="Group 22934">
            <rect id="Rectangle_5249" data-name="Rectangle 5249" width="11.456" height="9.421" transform="translate(1.514 1.514)" fill="#fff"/>
            <path id="Path_50729" data-name="Path 50729" d="M950.151,300.9H935.667V288.453h14.484ZM938.7,297.872h8.426v-6.39H938.7Z" transform="translate(-935.667 -288.453)" fill="#42566b"/>
          </g>
        </g>
        <g id="Group_22937" data-name="Group 22937" transform="translate(18.802)">
          <g id="Group_22936" data-name="Group 22936">
            <rect id="Rectangle_5250" data-name="Rectangle 5250" width="11.454" height="9.421" transform="translate(1.514 1.514)" fill="#00a0d8"/>
            <path id="Path_50730" data-name="Path 50730" d="M962.565,300.9H948.081V288.453h14.484Zm-11.455-3.029h8.426v-6.39H951.11Z" transform="translate(-948.081 -288.453)" fill="#42566b"/>
          </g>
        </g>
        <g id="Group_22939" data-name="Group 22939" transform="translate(37.602)">
          <g id="Group_22938" data-name="Group 22938">
            <rect id="Rectangle_5251" data-name="Rectangle 5251" width="11.456" height="9.421" transform="translate(1.515 1.514)" fill="#fff"/>
            <path id="Path_50731" data-name="Path 50731" d="M974.979,300.9H960.493V288.453h14.486Zm-11.457-3.029h8.427v-6.39h-8.427Z" transform="translate(-960.493 -288.453)" fill="#42566b"/>
          </g>
        </g>
        <g id="Group_22941" data-name="Group 22941" transform="translate(56.404)">
          <g id="Group_22940" data-name="Group 22940">
            <rect id="Rectangle_5252" data-name="Rectangle 5252" width="11.454" height="9.421" transform="translate(1.515 1.514)" fill="#fff"/>
            <path id="Path_50732" data-name="Path 50732" d="M987.391,300.9H972.907V288.453h14.484Zm-11.455-3.029h8.426v-6.39h-8.426Z" transform="translate(-972.907 -288.453)" fill="#42566b"/>
          </g>
        </g>
        <g id="Group_22943" data-name="Group 22943" transform="translate(75.204)">
          <g id="Group_22942" data-name="Group 22942">
            <rect id="Rectangle_5253" data-name="Rectangle 5253" width="11.456" height="9.421" transform="translate(1.516 1.514)" fill="#fff"/>
            <path id="Path_50733" data-name="Path 50733" d="M999.806,300.9H985.319V288.453h14.487Zm-11.458-3.029h8.429v-6.39h-8.429Z" transform="translate(-985.319 -288.453)" fill="#42566b"/>
          </g>
        </g>
        <g id="Group_22945" data-name="Group 22945" transform="translate(0 14.112)">
          <g id="Group_22944" data-name="Group 22944">
            <rect id="Rectangle_5254" data-name="Rectangle 5254" width="11.456" height="9.421" transform="translate(1.514 1.515)" fill="#fff"/>
            <path id="Path_50734" data-name="Path 50734" d="M950.151,310.22H935.667V297.77h14.484ZM938.7,307.191h8.426V300.8H938.7Z" transform="translate(-935.667 -297.77)" fill="#42566b"/>
          </g>
        </g>
        <g id="Group_22947" data-name="Group 22947" transform="translate(18.802 14.112)">
          <g id="Group_22946" data-name="Group 22946">
            <rect id="Rectangle_5255" data-name="Rectangle 5255" width="11.454" height="9.421" transform="translate(1.514 1.515)" fill="#fff"/>
            <path id="Path_50735" data-name="Path 50735" d="M962.565,310.22H948.081V297.77h14.484Zm-11.455-3.029h8.426V300.8H951.11Z" transform="translate(-948.081 -297.77)" fill="#42566b"/>
          </g>
        </g>
        <g id="Group_22949" data-name="Group 22949" transform="translate(37.602 14.112)">
          <g id="Group_22948" data-name="Group 22948">
            <rect id="Rectangle_5256" data-name="Rectangle 5256" width="11.456" height="9.421" transform="translate(1.515 1.515)" fill="#fff"/>
            <path id="Path_50736" data-name="Path 50736" d="M974.979,310.22H960.493V297.77h14.486Zm-11.457-3.029h8.427V300.8h-8.427Z" transform="translate(-960.493 -297.77)" fill="#42566b"/>
          </g>
        </g>
        <g id="Group_22951" data-name="Group 22951" transform="translate(56.404 14.112)">
          <g id="Group_22950" data-name="Group 22950">
            <rect id="Rectangle_5257" data-name="Rectangle 5257" width="11.454" height="9.421" transform="translate(1.515 1.515)" fill="#00a0d8"/>
            <path id="Path_50737" data-name="Path 50737" d="M987.391,310.22H972.907V297.77h14.484Zm-11.455-3.029h8.426V300.8h-8.426Z" transform="translate(-972.907 -297.77)" fill="#42566b"/>
          </g>
        </g>
        <g id="Group_22953" data-name="Group 22953" transform="translate(75.204 14.112)">
          <g id="Group_22952" data-name="Group 22952">
            <rect id="Rectangle_5258" data-name="Rectangle 5258" width="11.456" height="9.421" transform="translate(1.516 1.515)" fill="#fff"/>
            <path id="Path_50738" data-name="Path 50738" d="M999.806,310.22H985.319V297.77h14.487Zm-11.458-3.029h8.429V300.8h-8.429Z" transform="translate(-985.319 -297.77)" fill="#42566b"/>
          </g>
        </g>
        <g id="Group_22955" data-name="Group 22955" transform="translate(0 28.223)">
          <g id="Group_22954" data-name="Group 22954">
            <rect id="Rectangle_5259" data-name="Rectangle 5259" width="11.456" height="9.421" transform="translate(1.514 1.513)" fill="#fff"/>
            <path id="Path_50739" data-name="Path 50739" d="M950.151,319.536H935.667V307.087h14.484ZM938.7,316.506h8.426v-6.39H938.7Z" transform="translate(-935.667 -307.087)" fill="#42566b"/>
          </g>
        </g>
        <g id="Group_22957" data-name="Group 22957" transform="translate(18.802 28.223)">
          <g id="Group_22956" data-name="Group 22956">
            <rect id="Rectangle_5260" data-name="Rectangle 5260" width="11.454" height="9.421" transform="translate(1.514 1.513)" fill="#fff"/>
            <path id="Path_50740" data-name="Path 50740" d="M962.565,319.536H948.081V307.087h14.484Zm-11.455-3.029h8.426v-6.39H951.11Z" transform="translate(-948.081 -307.087)" fill="#42566b"/>
          </g>
        </g>
        <g id="Group_22959" data-name="Group 22959" transform="translate(37.602 28.223)">
          <g id="Group_22958" data-name="Group 22958">
            <rect id="Rectangle_5261" data-name="Rectangle 5261" width="11.456" height="9.421" transform="translate(1.515 1.513)" fill="#00a0d8"/>
            <path id="Path_50741" data-name="Path 50741" d="M974.979,319.536H960.493V307.087h14.486Zm-11.457-3.029h8.427v-6.39h-8.427Z" transform="translate(-960.493 -307.087)" fill="#42566b"/>
          </g>
        </g>
        <g id="Group_22961" data-name="Group 22961" transform="translate(56.404 28.223)">
          <g id="Group_22960" data-name="Group 22960">
            <rect id="Rectangle_5262" data-name="Rectangle 5262" width="11.454" height="9.421" transform="translate(1.515 1.513)" fill="#00a0d8"/>
            <path id="Path_50742" data-name="Path 50742" d="M987.391,319.536H972.907V307.087h14.484Zm-11.455-3.029h8.426v-6.39h-8.426Z" transform="translate(-972.907 -307.087)" fill="#42566b"/>
          </g>
        </g>
        <g id="Group_22963" data-name="Group 22963" transform="translate(75.204 28.223)">
          <g id="Group_22962" data-name="Group 22962">
            <rect id="Rectangle_5263" data-name="Rectangle 5263" width="11.456" height="9.421" transform="translate(1.516 1.513)" fill="#fff"/>
            <path id="Path_50743" data-name="Path 50743" d="M999.806,319.536H985.319V307.087h14.487Zm-11.458-3.029h8.429v-6.39h-8.429Z" transform="translate(-985.319 -307.087)" fill="#42566b"/>
          </g>
        </g>
        <g id="Group_22965" data-name="Group 22965" transform="translate(0 42.335)">
          <g id="Group_22964" data-name="Group 22964">
            <rect id="Rectangle_5264" data-name="Rectangle 5264" width="11.456" height="9.421" transform="translate(1.514 1.514)" fill="#fff"/>
            <path id="Path_50744" data-name="Path 50744" d="M950.151,328.854H935.667V316.4h14.484ZM938.7,325.825h8.426v-6.392H938.7Z" transform="translate(-935.667 -316.404)" fill="#42566b"/>
          </g>
        </g>
        <g id="Group_22967" data-name="Group 22967" transform="translate(18.802 42.335)">
          <g id="Group_22966" data-name="Group 22966">
            <rect id="Rectangle_5265" data-name="Rectangle 5265" width="11.454" height="9.421" transform="translate(1.514 1.514)" fill="#fff"/>
            <path id="Path_50745" data-name="Path 50745" d="M962.565,328.854H948.081V316.4h14.484Zm-11.455-3.029h8.426v-6.392H951.11Z" transform="translate(-948.081 -316.404)" fill="#42566b"/>
          </g>
        </g>
        <g id="Group_22969" data-name="Group 22969" transform="translate(37.602 42.335)">
          <g id="Group_22968" data-name="Group 22968">
            <rect id="Rectangle_5266" data-name="Rectangle 5266" width="11.456" height="9.421" transform="translate(1.515 1.514)" fill="#fff"/>
            <path id="Path_50746" data-name="Path 50746" d="M974.979,328.854H960.493V316.4h14.486Zm-11.457-3.029h8.427v-6.392h-8.427Z" transform="translate(-960.493 -316.404)" fill="#42566b"/>
          </g>
        </g>
        <g id="Group_22971" data-name="Group 22971" transform="translate(56.404 42.335)">
          <g id="Group_22970" data-name="Group 22970">
            <rect id="Rectangle_5267" data-name="Rectangle 5267" width="11.454" height="9.421" transform="translate(1.515 1.514)" fill="#fff"/>
            <path id="Path_50747" data-name="Path 50747" d="M987.391,328.854H972.907V316.4h14.484Zm-11.455-3.029h8.426v-6.392h-8.426Z" transform="translate(-972.907 -316.404)" fill="#42566b"/>
          </g>
        </g>
        <g id="Group_22973" data-name="Group 22973" transform="translate(75.204 42.335)">
          <g id="Group_22972" data-name="Group 22972">
            <rect id="Rectangle_5268" data-name="Rectangle 5268" width="11.456" height="9.421" transform="translate(1.516 1.514)" fill="#fff"/>
            <path id="Path_50748" data-name="Path 50748" d="M999.806,328.854H985.319V316.4h14.487Zm-11.458-3.029h8.429v-6.392h-8.429Z" transform="translate(-985.319 -316.404)" fill="#42566b"/>
          </g>
        </g>
      </g>
      <g id="Group_22976" data-name="Group 22976" transform="translate(7.977)">
        <g id="Group_22975" data-name="Group 22975">
          <path id="Path_50749" data-name="Path 50749" d="M937.868,293.034a3.534,3.534,0,0,1-3.534-3.532v-11.5a3.533,3.533,0,0,1,7.066,0v11.5A3.533,3.533,0,0,1,937.868,293.034Z" transform="translate(-932.819 -272.958)" fill="#fff"/>
          <path id="Path_50750" data-name="Path 50750" d="M938.382,295.064a5.054,5.054,0,0,1-5.048-5.048V278.521a5.047,5.047,0,1,1,10.095,0v11.494A5.053,5.053,0,0,1,938.382,295.064Zm0-18.562a2.021,2.021,0,0,0-2.019,2.019v11.494a2.018,2.018,0,1,0,4.036,0V278.521A2.021,2.021,0,0,0,938.382,276.5Z" transform="translate(-933.334 -273.473)" fill="#42566b"/>
        </g>
      </g>
      <g id="Group_22978" data-name="Group 22978" transform="translate(94.639)">
        <g id="Group_22977" data-name="Group 22977">
          <path id="Path_50751" data-name="Path 50751" d="M995.083,293.034a3.534,3.534,0,0,1-3.532-3.532v-11.5a3.533,3.533,0,0,1,7.066,0v11.5A3.534,3.534,0,0,1,995.083,293.034Z" transform="translate(-990.036 -272.958)" fill="#fff"/>
          <path id="Path_50752" data-name="Path 50752" d="M995.6,295.064a5.054,5.054,0,0,1-5.048-5.048V278.521a5.047,5.047,0,1,1,10.095,0v11.494A5.053,5.053,0,0,1,995.6,295.064Zm0-18.562a2.02,2.02,0,0,0-2.019,2.019v11.494a2.018,2.018,0,1,0,4.036,0V278.521A2.021,2.021,0,0,0,995.6,276.5Z" transform="translate(-990.551 -273.473)" fill="#42566b"/>
        </g>
      </g>
    </g>
    <g id="Group_22992" data-name="Group 22992" transform="translate(908.163 205.348)">
      <g id="Group_22989" data-name="Group 22989">
        <path id="Path_50753" data-name="Path 50753" d="M922.57,265.534a32.392,32.392,0,1,0,.56-45.811A32.406,32.406,0,0,0,922.57,265.534Z" transform="translate(-905.489 -202.69)" fill="#fff" opacity="0.1"/>
        <g id="Group_22981" data-name="Group 22981">
          <g id="Group_22980" data-name="Group 22980">
            <path id="Path_50754" data-name="Path 50754" d="M909.164,244.793a38.746,38.746,0,1,1,43.583,38.744l-.245,31.783-8.761-.079.253-31.6A38.794,38.794,0,0,1,909.164,244.793Zm16.308,22.06a31.248,31.248,0,1,0-8.818-22,31.176,31.176,0,0,0,8.818,22Z" transform="translate(-907.648 -204.833)" fill="#fff"/>
            <path id="Path_50755" data-name="Path 50755" d="M954.519,317.361l-11.791-.1.256-31.752a40.27,40.27,0,1,1,11.782-.136Zm-8.738-3.106,5.733.052.242-31.593,1.316-.164a37.231,37.231,0,0,0-4.356-74.169c-.1,0-.2,0-.307,0a37.277,37.277,0,0,0-37.216,36.941h0a37.053,37.053,0,0,0,33.469,37.332l1.372.139Zm2.619-35.874-.247,0a32.524,32.524,0,0,1-23.252-9.956h0a32.762,32.762,0,0,1,23.527-55.576h.268a32.766,32.766,0,0,1-.3,65.531Zm-21.326-12.067a29.513,29.513,0,0,0,21.1,9.036l.223,0a29.737,29.737,0,0,0,.271-59.473h-.244a29.733,29.733,0,0,0-21.353,50.437Z" transform="translate(-908.163 -205.348)" fill="#42566b"/>
          </g>
        </g>
        <g id="Group_22982" data-name="Group 22982" transform="translate(22.286 91.182)">
          <path id="Path_50756" data-name="Path 50756" d="M929.339,357.461V276.467h-5.461V266.55H956.8v9.917h-5.461v80.994Z" transform="translate(-922.362 -265.034)" fill="#00a0d8"/>
          <path id="Path_50757" data-name="Path 50757" d="M953.366,359.49H928.339V278.5h-5.462V265.549h35.949V278.5h-5.46Zm-22-3.029h18.969V275.467h5.46v-6.888H925.906v6.888h5.462Z" transform="translate(-922.877 -265.549)" fill="#42566b"/>
        </g>
        <g id="Group_22984" data-name="Group 22984" transform="translate(22.286 177.136)">
          <g id="Group_22983" data-name="Group 22983">
            <rect id="Rectangle_5269" data-name="Rectangle 5269" width="32.92" height="9.917" transform="translate(1.515 1.515)" fill="#fff"/>
            <path id="Path_50758" data-name="Path 50758" d="M958.826,335.246H922.877V322.3h35.949Zm-32.92-3.029H955.8v-6.888H925.906Z" transform="translate(-922.877 -322.299)" fill="#42566b"/>
          </g>
        </g>
        <g id="Group_22988" data-name="Group 22988" transform="translate(33.076 137.366)">
          <g id="Group_22985" data-name="Group 22985">
            <rect id="Rectangle_5270" data-name="Rectangle 5270" width="14.37" height="1.568" fill="#fff"/>
          </g>
          <g id="Group_22986" data-name="Group 22986" transform="translate(0 3.656)">
            <rect id="Rectangle_5271" data-name="Rectangle 5271" width="14.37" height="1.568" fill="#fff"/>
          </g>
          <g id="Group_22987" data-name="Group 22987" transform="translate(0 7.315)">
            <rect id="Rectangle_5272" data-name="Rectangle 5272" width="14.37" height="1.568" fill="#fff"/>
          </g>
        </g>
      </g>
      <g id="Group_22991" data-name="Group 22991" transform="translate(24.472 24.48)">
        <circle id="Ellipse_1241" data-name="Ellipse 1241" cx="13.123" cy="13.123" r="13.123" transform="matrix(0.23, -0.973, 0.973, 0.23, 0, 25.544)" fill="#fff"/>
        <g id="Group_22990" data-name="Group 22990" transform="translate(1.149 1.149)">
          <path id="Path_50759" data-name="Path 50759" d="M939.716,251.543c-.218,0-.435,0-.653-.014l.139-3.028a11.716,11.716,0,0,0,2.666-.186l.559,2.976A14.6,14.6,0,0,1,939.716,251.543Zm-2.327-.185a14.605,14.605,0,0,1-3.247-.915l1.154-2.8a11.542,11.542,0,0,0,2.572.727Zm6.681-.473-.906-2.89a11.711,11.711,0,0,0,2.446-1.086l1.537,2.608A14.742,14.742,0,0,1,944.071,250.886Zm-11.451-1.177a14.6,14.6,0,0,1-2.741-1.964l2.039-2.242a11.674,11.674,0,0,0,2.172,1.559Zm15.932-1.13-1.834-2.411a11.741,11.741,0,0,0,1.936-1.851l2.331,1.934A14.943,14.943,0,0,1,948.553,248.579ZM928.7,246.544a14.642,14.642,0,0,1-1.913-2.773l2.675-1.422a11.591,11.591,0,0,0,1.519,2.2Zm23.289-1.652-2.538-1.654a11.653,11.653,0,0,0,1.192-2.393l2.849,1.03A14.682,14.682,0,0,1,951.988,244.891Zm-25.907-2.654a14.742,14.742,0,0,1-.856-3.261l3-.429a11.675,11.675,0,0,0,.679,2.585Zm27.89-1.987-2.949-.686a11.7,11.7,0,0,0,.3-2.658c0-.206-.006-.412-.017-.618l3.026-.154c.014.256.02.513.02.772A14.684,14.684,0,0,1,953.97,240.251Zm-28.887-2.958,0-.386a14.742,14.742,0,0,1,.3-2.969l2.967.613a11.653,11.653,0,0,0-.239,2.355l0,.309Zm26.08-2.334a11.61,11.61,0,0,0-.745-2.563l2.788-1.178a14.552,14.552,0,0,1,.944,3.238Zm-22.471-1.7-2.876-.953a14.663,14.663,0,0,1,1.422-3.055l2.582,1.581A11.535,11.535,0,0,0,928.693,233.258Zm21.135-2.061a11.587,11.587,0,0,0-1.577-2.16l2.225-2.055a14.616,14.616,0,0,1,1.987,2.72Zm-19.24-1.46-2.381-1.872a14.721,14.721,0,0,1,2.372-2.395l1.893,2.367A11.516,11.516,0,0,0,930.588,229.736Zm16.7-1.63a11.644,11.644,0,0,0-2.216-1.5l1.4-2.685a14.793,14.793,0,0,1,2.79,1.889Zm-13.727-1.045-1.61-2.564A14.4,14.4,0,0,1,935,223.048l.972,2.869A11.577,11.577,0,0,0,933.562,227.061Zm10.287-1.007a11.494,11.494,0,0,0-2.587-.654l.4-3a14.435,14.435,0,0,1,3.273.83Zm-6.585-.5-.636-2.961a14.55,14.55,0,0,1,3.067-.326h.024l.262,0-.056,3.029-.209,0H939.7A11.658,11.658,0,0,0,937.264,225.556Z" transform="translate(-925.079 -222.269)" fill="#42566b"/>
        </g>
      </g>
    </g>
  </g>
</svg>
