<svg xmlns="http://www.w3.org/2000/svg" width="899.339" height="312.185" viewBox="0 0 899.339 312.185">
  <g id="Group_23057" data-name="Group 23057" transform="translate(-0.661 -101.566)">
    <g id="Group_23034" data-name="Group 23034">
      <path id="Path_50839" data-name="Path 50839" d="M464.143,351.791H656.728a8.615,8.615,0,0,1,8.612,8.611,7.33,7.33,0,0,1-.038.79,8.613,8.613,0,0,1-8.574,7.822H490.872l30.161,20.4L522.2,390l-1.121,17.758-.893-.177-3.1-2.114.408.93-58.124-38.827a8.611,8.611,0,0,1,4.774-15.777Z" fill="#3b5263"/>
      <g id="Group_23033" data-name="Group 23033">
        <path id="Path_50840" data-name="Path 50840" d="M463.027,351.791l12.229,8.183,14.758,9.867,31.061,20.775H707.9l.009.01,11.717,1.441-58.122-38.825a8.57,8.57,0,0,0-4.78-1.451Z" fill="#678cab"/>
        <g id="Group_23032" data-name="Group 23032">
          <path id="Path_50841" data-name="Path 50841" d="M496.479,356.793l44.145,29.526H677.468l-44.136-29.526Z" fill="#d3ffff"/>
          <path id="Path_50842" data-name="Path 50842" d="M496.479,356.793l44.145,29.526H653.68l-44.136-29.526Z" fill="#ace2e2"/>
        </g>
      </g>
      <path id="Path_50843" data-name="Path 50843" d="M513.664,399.228a8.6,8.6,0,0,0,8.6,8.612H714.86a8.607,8.607,0,1,0,0-17.214H522.266A8.6,8.6,0,0,0,513.664,399.228Z" fill="#435c70"/>
      <path id="Path_50844" data-name="Path 50844" d="M513.664,399.228a8.6,8.6,0,0,0,8.6,8.612H714.86a8.611,8.611,0,0,0,8.611-8.612Z" fill="#c9c9c9" style="mix-blend-mode: multiply;isolation: isolate"/>
      <path id="Path_50845" data-name="Path 50845" d="M508.1,376.253a3.693,3.693,0,0,0,2.043.617h3.674a.646.646,0,0,0,.352-1.188l-14.017-9.129a3.791,3.791,0,0,0-2.35-.6l-2.811.206a.648.648,0,0,0-.311,1.186Z" fill="#435c70"/>
    </g>
    <path id="Path_50846" data-name="Path 50846" d="M.661,371.929H129.929s-5.421-7.518,6.358-7.337c10.263.157,49.47,31,59.391,38.941H392.646l4.048,4.911a3.243,3.243,0,0,1-2.5,5.307H194.9a21.325,21.325,0,0,1-12.448-4.014l-14.592-10.505H.661Z" fill="#b8d8d5"/>
    <path id="Path_50847" data-name="Path 50847" d="M733.5,379.307c20.573,19.441,30.451,19.929,46.511,19.929H900V371.925H739.164C734.659,371.925,728.147,374.246,733.5,379.307Z" fill="#b8d8d5"/>
    <path id="Path_50848" data-name="Path 50848" d="M141.743,351.791H334.328a8.616,8.616,0,0,1,8.611,8.611,7.371,7.371,0,0,1-.037.791,8.614,8.614,0,0,1-8.574,7.821H168.472l30.161,20.4,1.162.581-1.12,17.758-.893-.177-3.1-2.114.408.93-58.124-38.827a8.61,8.61,0,0,1,4.774-15.777Z" fill="#3b5263"/>
    <g id="Group_23041" data-name="Group 23041">
      <g id="Group_23040" data-name="Group 23040">
        <g id="Group_23036" data-name="Group 23036">
          <g id="Group_23035" data-name="Group 23035">
            <path id="Path_50849" data-name="Path 50849" d="M536.463,386.4l-47.97-32.647,160.1,0,47.959,32.646Z" fill="#fff"/>
            <path id="Path_50850" data-name="Path 50850" d="M491.177,354.584l157.161,0,45.53,30.994-157.151,0-45.54-30.993m-5.367-1.654,50.4,34.3,163.026,0-50.387-34.3-163.037,0Z" fill="#678cab"/>
          </g>
        </g>
        <path id="Path_50851" data-name="Path 50851" d="M511.433,347.684l5.366,3.591,15.908,10.641h.008l14.378,9.618H672.265l-8.8-5.889-17.29-11.565-9.56-6.4Z" fill="#bde288"/>
        <g id="Group_23038" data-name="Group 23038">
          <g id="Group_23037" data-name="Group 23037">
            <path id="Path_50852" data-name="Path 50852" d="M634.841,350.191l28.172,18.84H548.86l-28.17-18.839H634.841m.373-1.23H516.639l31.848,21.3H667.064l-31.85-21.3Z" fill="#79b236"/>
          </g>
        </g>
        <g id="Group_23039" data-name="Group 23039">
          <path id="Path_50853" data-name="Path 50853" d="M614.334,368.242c9.435-1.94,7.952-7.393-4.2-12.152s-29.705-7.052-39.139-5.111-7.228,7.392,4.92,12.151S604.9,370.184,614.334,368.242Z" fill="#79b236" stroke="#79b236" stroke-miterlimit="10" stroke-width="1.858"/>
        </g>
        <path id="Path_50854" data-name="Path 50854" d="M643.486,367.873h15.4L650,361.932Z" fill="#7fb540"/>
        <path id="Path_50855" data-name="Path 50855" d="M619.13,350.122h15.4l8.884,5.941Z" fill="#b3dd72"/>
        <path id="Path_50856" data-name="Path 50856" d="M566.349,367.033h-15.4l-8.884-5.942Z" fill="#7fb540"/>
        <path id="Path_50857" data-name="Path 50857" d="M536.9,350.008h-15.4l8.884,5.941Z" fill="#b3dd72"/>
      </g>
      <rect id="Rectangle_5279" data-name="Rectangle 5279" width="125.173" height="10.575" transform="translate(547.092 371.533)" fill="#64a53a"/>
      <path id="Path_50858" data-name="Path 50858" d="M547.089,371.534l-35.655-23.846v10.089l35.655,24.336Z" fill="#99c93d"/>
    </g>
    <g id="Group_23043" data-name="Group 23043">
      <path id="Path_50859" data-name="Path 50859" d="M140.627,351.791l12.229,8.183,14.758,9.867,31.061,20.776H385.5l.009.009,11.717,1.441-58.122-38.825a8.572,8.572,0,0,0-4.78-1.451Z" fill="#678cab"/>
      <g id="Group_23042" data-name="Group 23042">
        <path id="Path_50860" data-name="Path 50860" d="M188.028,356.793l44.145,29.526H369.017l-44.136-29.526Z" fill="#fff"/>
        <path id="Path_50861" data-name="Path 50861" d="M188.028,356.793l44.145,29.526H345.229l-44.136-29.526Z" fill="#ffe252"/>
      </g>
      <path id="Path_50862" data-name="Path 50862" d="M201.254,356.793,245.4,386.32h57.966l-44.136-29.526Z" fill="#90ba49"/>
      <path id="Path_50863" data-name="Path 50863" d="M262.308,375.31,251.087,367.8h-7.329l11.223,7.507Z" fill="#fff"/>
    </g>
    <path id="Path_50864" data-name="Path 50864" d="M532.709,361.981v7.232l-11.2-7.732-.16-7.26Z" fill="#c9c9c9" style="mix-blend-mode: multiply;isolation: isolate"/>
    <path id="Path_50865" data-name="Path 50865" d="M516.8,351.275l15.908,10.641h.008l70.112,3.205,60.639.524-17.29-11.565Z" fill="#5d547f" opacity="0.78" style="mix-blend-mode: multiply;isolation: isolate"/>
    <g id="Group_23047" data-name="Group 23047">
      <g id="Group_23046" data-name="Group 23046">
        <path id="Path_50866" data-name="Path 50866" d="M548.565,329.037a311.353,311.353,0,0,0-10.684,31.155,646.514,646.514,0,0,0,133.089-2.4c-8.143-12.287-15.952-24.723-23.436-37.422C614.741,327.064,582.012,329.611,548.565,329.037Z" fill="#bde288"/>
        <path id="Path_50867" data-name="Path 50867" d="M541.96,358.812a637.1,637.1,0,0,0,124.386-2.589q-10.547-16.369-20.092-33.357a464.021,464.021,0,0,1-95.5,7.895Q545.695,344.569,541.96,358.812Z" fill="none" stroke="#79b236" stroke-miterlimit="10" stroke-width="1.367"/>
        <g id="Group_23045" data-name="Group 23045">
          <path id="Path_50868" data-name="Path 50868" d="M615.476,357.412c9.269-2.029,14.767-11.971,6.927-19.237-7.55-7-18.851-8.425-28.389-5.357-6.806,2.19-17.135,10.336-11.309,17.8C589.435,359.25,604.994,360.273,615.476,357.412Z" fill="#f7ffc7" stroke="#79b236" stroke-miterlimit="10" stroke-width="1.858"/>
          <g id="Group_23044" data-name="Group 23044">
            <path id="Path_50869" data-name="Path 50869" d="M602.383,351.547a13.761,13.761,0,0,1-2.918-.416,6.386,6.386,0,0,1-1.81-.807,3.9,3.9,0,0,1-1.038-.931,3.186,3.186,0,0,1-.446-.938,2.194,2.194,0,0,1-.079-.924,3.937,3.937,0,0,1,.182-.779,1.817,1.817,0,0,1,.578-.718l.665-.58a4.813,4.813,0,0,1,1-.538c.4-.184.592-.275.984-.46.194-.087.608-.235,1.237-.444s1.017-.338,1.167-.389.564-.193,1.229-.42a15.888,15.888,0,0,0,3.2-1.382c.659-.42.877-.922.671-1.5A2.339,2.339,0,0,0,605.043,339a10.813,10.813,0,0,0-3.479-.082,21.469,21.469,0,0,0-5.821,1.937c-.331-.767-.492-1.15-.81-1.915a15.963,15.963,0,0,1,2.735-.982,25.669,25.669,0,0,1,3.659-.747A16.5,16.5,0,0,1,605,337.1a8.189,8.189,0,0,1,2.686.648,6.419,6.419,0,0,1,1.673,1.094,3.547,3.547,0,0,1,.9,1.294,1.815,1.815,0,0,1,.052,1.3,2.7,2.7,0,0,1-.616,1.015,5.252,5.252,0,0,1-1.424.9c-.686.327-1.242.568-1.662.722s-1.1.4-2.051.74c-.871.311-1.583.559-2.128.748a11.806,11.806,0,0,0-1.618.7,2.7,2.7,0,0,0-1.091.885,1.186,1.186,0,0,0-.116,1.019c.227.717.921,1.2,2.091,1.447a13.581,13.581,0,0,0,4.146.126,13.723,13.723,0,0,0,6.583-2.188c.533.859.8,1.29,1.354,2.151a21.139,21.139,0,0,1-7.235,1.727A27.072,27.072,0,0,1,602.383,351.547Z" fill="#79b236"/>
          </g>
          <path id="Path_50870" data-name="Path 50870" d="M600.613,335.485a185.35,185.35,0,0,0,6.013,17.832" fill="none" stroke="#79b236" stroke-linecap="round" stroke-miterlimit="10" stroke-width="2.908"/>
        </g>
        <path id="Path_50871" data-name="Path 50871" d="M647.688,356.8c6.183-.614,9.251-.962,15.33-1.741-2.324-3.731-3.464-5.6-5.7-9.317A87.365,87.365,0,0,1,647.688,356.8Z" fill="#7fb540"/>
        <path id="Path_50872" data-name="Path 50872" d="M633.64,327.136c4.78-.775,7.143-1.195,11.806-2.1,2.025,3.7,3.06,5.552,5.177,9.262C643.405,331.452,640.01,330.013,633.64,327.136Z" fill="#79b236" opacity="0.63"/>
        <path id="Path_50873" data-name="Path 50873" d="M560.936,358.708c-6.578-.315-9.88-.519-16.5-1.018.762-3.2,1.161-4.786,2.006-7.956C551.821,353.292,554.719,355.093,560.936,358.708Z" fill="#79b236" opacity="0.63"/>
        <path id="Path_50874" data-name="Path 50874" d="M566.41,332.346c-5.276.018-7.935-.011-13.283-.145-1.031,3.113-1.526,4.676-2.473,7.815A155.3,155.3,0,0,0,566.41,332.346Z" fill="#b3dd72"/>
      </g>
    </g>
    <path id="Path_50875" data-name="Path 50875" d="M670.97,357.792a646.514,646.514,0,0,1-133.089,2.4" fill="none" stroke="#7ca541" stroke-miterlimit="10" stroke-width="0.818"/>
    <path id="Path_50876" data-name="Path 50876" d="M641.358,333.61l9.265,10.791s-98.564,16.568-112.047,13.391l2.185-8.1Z" fill="#5d547f" opacity="0.61" style="mix-blend-mode: multiply;isolation: isolate"/>
    <g id="Group_23051" data-name="Group 23051">
      <g id="Group_23050" data-name="Group 23050">
        <path id="Path_50877" data-name="Path 50877" d="M516.97,357a646.811,646.811,0,0,0,131.045-23.391q-14.979-16.268-29.058-33.246-10.477,3.951-21.06,7.287a465.51,465.51,0,0,1-75.3,16.9q-1.644,7.213-2.936,14.5Q518.053,347.979,516.97,357Z" fill="#bde288"/>
        <path id="Path_50878" data-name="Path 50878" d="M520.782,354.992a636.509,636.509,0,0,0,122.413-22.2q-13-14.492-25.108-29.763A463.789,463.789,0,0,1,525.031,325.9Q522.22,340.338,520.782,354.992Z" fill="none" stroke="#79b236" stroke-miterlimit="10" stroke-width="1.367"/>
        <g id="Group_23049" data-name="Group 23049">
          <path id="Path_50879" data-name="Path 50879" d="M593.15,342c8.833-3.464,12.695-14.153,3.806-20.088-8.562-5.716-19.945-5.345-28.88-.807-6.375,3.237-15.289,12.915-8.355,19.367C567.728,347.924,583.252,346.483,593.15,342Z" fill="#f7ffc7" stroke="#79b236" stroke-miterlimit="10" stroke-width="1.858"/>
          <g id="Group_23048" data-name="Group 23048">
            <path id="Path_50880" data-name="Path 50880" d="M579.3,338.275a13.7,13.7,0,0,1-2.946.051,6.38,6.38,0,0,1-1.914-.51,3.92,3.92,0,0,1-1.172-.755,3.233,3.233,0,0,1-.591-.858,2.23,2.23,0,0,1-.224-.9,3.871,3.871,0,0,1,.055-.8,1.8,1.8,0,0,1,.46-.8c.227-.271.341-.408.565-.679a4.889,4.889,0,0,1,.9-.689c.361-.243.543-.365.9-.61.178-.116.564-.328,1.152-.633s.952-.5,1.092-.57.525-.277,1.146-.606a15.9,15.9,0,0,0,2.943-1.872,1.206,1.206,0,0,0,.426-1.586,2.344,2.344,0,0,0-2.152-1,10.8,10.8,0,0,0-3.446.468,21.45,21.45,0,0,0-5.445,2.832c-.448-.705-.668-1.058-1.1-1.763a15.9,15.9,0,0,1,2.544-1.4,25.785,25.785,0,0,1,3.5-1.318,16.45,16.45,0,0,1,3.614-.687,8.162,8.162,0,0,1,2.754.216,6.405,6.405,0,0,1,1.825.814,3.537,3.537,0,0,1,1.093,1.136,1.826,1.826,0,0,1,.256,1.276,2.737,2.737,0,0,1-.448,1.1,5.261,5.261,0,0,1-1.263,1.111c-.626.431-1.139.757-1.53.976s-1.022.57-1.9,1.053c-.811.444-1.475.8-1.985,1.075a12.03,12.03,0,0,0-1.489.944,2.7,2.7,0,0,0-.937,1.047,1.185,1.185,0,0,0,.047,1.025,2.471,2.471,0,0,0,2.3,1.1,13.578,13.578,0,0,0,4.113-.531,13.72,13.72,0,0,0,6.155-3.2c.662.764,1,1.145,1.676,1.909a21.09,21.09,0,0,1-6.874,2.847A26.8,26.8,0,0,1,579.3,338.275Z" fill="#79b236"/>
          </g>
          <path id="Path_50881" data-name="Path 50881" d="M575.013,322.7a185.037,185.037,0,0,0,8.754,16.66" fill="none" stroke="#79b236" stroke-linecap="round" stroke-miterlimit="10" stroke-width="2.908"/>
        </g>
        <path id="Path_50882" data-name="Path 50882" d="M624.863,336.313c6.008-1.582,8.984-2.411,14.865-4.14-2.884-3.318-4.306-4.978-7.1-8.3A87.413,87.413,0,0,1,624.863,336.313Z" fill="#7fb540"/>
        <path id="Path_50883" data-name="Path 50883" d="M606.307,309.235c4.6-1.52,6.864-2.308,11.327-3.939,2.583,3.334,3.9,5,6.575,8.33C616.632,311.955,613.051,311.071,606.307,309.235Z" fill="#7fb540"/>
        <path id="Path_50884" data-name="Path 50884" d="M540.939,351.663c-6.545.728-9.839,1.05-16.46,1.6.248-3.275.393-4.91.727-8.174C531.084,347.756,534.228,349.076,540.939,351.663Z" fill="#7fb540"/>
        <path id="Path_50885" data-name="Path 50885" d="M540.741,325c-5.208.852-7.837,1.243-13.139,1.955-.526,3.237-.764,4.858-1.2,8.107A155.494,155.494,0,0,0,540.741,325Z" fill="#79b236" opacity="0.63"/>
      </g>
    </g>
    <path id="Path_50886" data-name="Path 50886" d="M648.012,333.61A646.927,646.927,0,0,1,516.97,357" fill="none" stroke="#7ca541" stroke-miterlimit="10" stroke-width="0.818"/>
    <g id="Group_23055" data-name="Group 23055">
      <g id="Group_23054" data-name="Group 23054">
        <path id="Path_50887" data-name="Path 50887" d="M430.163,213.519c12.132,16.918,28,29.372,45.487,40.323,36.956-22.34,73.442-51.4,89.817-92.8-18.49-4.041-34.4-9.921-50.258-20.323C499.558,176.163,463.783,197.891,430.163,213.519Z" fill="#bde288"/>
        <path id="Path_50888" data-name="Path 50888" d="M476.39,249.831c34.695-21.306,68.506-48.562,84.91-87.02-16-3.934-31.185-9.116-44.842-18.6-15.869,33.424-48.863,54.378-80.878,70.1C447.519,228.7,460.677,239.736,476.39,249.831Z" fill="none" stroke="#79b236" stroke-miterlimit="10" stroke-width="1.554"/>
        <g id="Group_23053" data-name="Group 23053">
          <path id="Path_50889" data-name="Path 50889" d="M533.294,197.594c3.249-11.711-8.37-20.224-18.442-22.218a27.8,27.8,0,0,0-29.2,13.31c-6.511,11.164-.028,23.573,12.537,25.685C511.045,216.533,528.678,211.169,533.294,197.594Z" fill="#f7ffc7" stroke="#79b236" stroke-miterlimit="10" stroke-width="1.858"/>
          <g id="Group_23052" data-name="Group 23052">
            <path id="Path_50890" data-name="Path 50890" d="M515.666,201.629a11.421,11.421,0,0,1-2.85,1.64,8.569,8.569,0,0,1-2.548.517,7.961,7.961,0,0,1-2.108-.139,8.368,8.368,0,0,1-1.634-.564,5.674,5.674,0,0,1-1.3-.812,7.526,7.526,0,0,1-.878-.862,2.193,2.193,0,0,1-.453-1.084c-.076-.4-.116-.607-.192-1.012a3.48,3.48,0,0,1,.153-1.2c.1-.448.146-.672.242-1.119a11.151,11.151,0,0,1,.476-1.274c.264-.633.425-1.023.487-1.174s.229-.572.5-1.245a11.747,11.747,0,0,0,.969-3.532,1.984,1.984,0,0,0-1.181-1.948,3.359,3.359,0,0,0-3.111-.012,8.794,8.794,0,0,0-3.026,2.26,15.427,15.427,0,0,0-2.772,5.908c-1.22-.553-1.821-.835-3.011-1.41a11.634,11.634,0,0,1,1.293-2.858,19.781,19.781,0,0,1,2.365-3.242,13.316,13.316,0,0,1,3.024-2.582,7.8,7.8,0,0,1,2.939-1.134,8.659,8.659,0,0,1,2.552-.006,6.915,6.915,0,0,1,2.15.7,4.193,4.193,0,0,1,2.187,2.674,4.586,4.586,0,0,1-.071,1.839,14.765,14.765,0,0,1-.46,1.828c-.149.435-.389,1.138-.735,2.106-.319.894-.586,1.617-.792,2.168a8.029,8.029,0,0,0-.431,1.772,2.433,2.433,0,0,0,.251,1.585,2.639,2.639,0,0,0,1.237,1.036,4.153,4.153,0,0,0,3.586-.1,9.621,9.621,0,0,0,3.4-2.733,8.765,8.765,0,0,0,2.208-6.5c1.461.431,2.2.638,3.7,1.038-.122,1.813-1.123,3.983-3.141,6.5A16.979,16.979,0,0,1,515.666,201.629Z" fill="#79b236"/>
          </g>
          <path id="Path_50891" data-name="Path 50891" d="M494.569,187.139a134.2,134.2,0,0,0,26.739,13.125" fill="none" stroke="#79b236" stroke-linecap="round" stroke-miterlimit="10" stroke-width="2.908"/>
        </g>
        <path id="Path_50892" data-name="Path 50892" d="M552.474,175.308a103.391,103.391,0,0,0,5.759-11.258,118.236,118.236,0,0,1-13.955-4.015C547.647,166.1,549.286,169.15,552.474,175.308Z" fill="#7fb540"/>
        <path id="Path_50893" data-name="Path 50893" d="M512.341,156.575a79.426,79.426,0,0,0,5.413-9.522,88.617,88.617,0,0,0,11.065,6.459A137.928,137.928,0,0,1,512.341,156.575Z" fill="#7fb540"/>
        <path id="Path_50894" data-name="Path 50894" d="M493.912,235.647c-6.17,4.3-9.429,6.4-16.282,10.5a134.472,134.472,0,0,1-13.16-8.9Q479.218,237.168,493.912,235.647Z" fill="#7fb540"/>
        <path id="Path_50895" data-name="Path 50895" d="M456.325,206.318c-5.931,3.418-9.059,5.078-15.646,8.26a106.742,106.742,0,0,0,9.686,10.586C452.855,217.619,454.046,213.85,456.325,206.318Z" fill="#7fb540"/>
      </g>
    </g>
    <path id="Path_50896" data-name="Path 50896" d="M565.467,161.038c-16.375,41.407-52.861,70.464-89.817,92.8-17.491-10.951-33.355-23.4-45.487-40.323" fill="none" stroke="#7ca541" stroke-miterlimit="10" stroke-width="0.818"/>
    <path id="Path_50897" data-name="Path 50897" d="M152.856,359.974l14.758,9.867h72.611a5.249,5.249,0,1,0,0-10.5H155.357A5.264,5.264,0,0,0,152.856,359.974Z" fill="#8e8580" style="mix-blend-mode: multiply;isolation: isolate"/>
    <path id="Path_50898" data-name="Path 50898" d="M468.542,172.017c-13.243-30.625-45.171-67.3-86.92-67.3-77.906,0-105.388,90.95-105.388,232.131" fill="none" stroke="#64a53a" stroke-miterlimit="10" stroke-width="6.298" stroke-dasharray="15.745"/>
    <path id="Path_50899" data-name="Path 50899" d="M519.661,339.048c26.449,6.952,90.013-16.177,90.013-16.177L597.9,307.65a465.51,465.51,0,0,1-75.3,16.9Q520.953,331.76,519.661,339.048Z" fill="#c9c9c9" style="mix-blend-mode: multiply;isolation: isolate"/>
    <g id="Group_23056" data-name="Group 23056">
      <path id="Path_50900" data-name="Path 50900" d="M132.558,304.043c-2.759,3.113-1.265,8.942,3.339,13.021h0c4.6,4.076,10.569,4.856,13.325,1.744l16.109-18.182c2.759-3.113,1.264-8.942-3.339-13.02h0c-4.6-4.077-10.569-4.858-13.326-1.745Z" fill="#b96741"/>
      <path id="Path_50901" data-name="Path 50901" d="M158.642,306.408V287.674h22.43v18.734h.06v11.127a11.3,11.3,0,0,1-11.3,11.3h-29.86v-8A14.427,14.427,0,0,1,154.4,306.408Z" fill="#d78a60"/>
      <path id="Path_50902" data-name="Path 50902" d="M9.044,255.8v44.972H71.8l.009.019L124.833,334.8l10.22,6.556,3.943,2.52,1.665,1.079c3.655,2.232,12.731,1.785,16.571-4.5,2.1-3.441,2.215-7.914,1.285-11.625-.772-3.087-2.261-5.654-3.925-6.667,0,0-2.288-1.5-5.18-3.562-2.3-1.646-4.967-3.645-7.18-5.533-2.3-1.981-4.082-3.831-4.426-5.059-3.72-13.28,9.672-15.7,16.311-13.364a34.989,34.989,0,0,1,4.529,1.925,33.144,33.144,0,0,1,6.436,4.334c4.11,3.422,8.7,8.416,16.05,16.293,1.87,2.008,3.916,4.2,6.176,6.6,11.5,12.221,15.65,19.167,27.257,33.451,7.439,9.16,21.7,12.257,28.847,10.081,7.059-2.139,7.4-6.724,7.4-6.724l-1.144-1.478-.958-1.247s-3.98-3.617-9.774-9.727a238.726,238.726,0,0,1-25.76-32.083C197.426,292.11,173.5,261.087,173.5,261.087a13.325,13.325,0,0,0-10.648-5.189c-.092,0-.185-.019-.288-.019H53.3V255.8Z" fill="#ffb287"/>
      <rect id="Rectangle_5280" data-name="Rectangle 5280" width="39.11" height="64.912" transform="translate(0.661 255.796)" fill="#3b5263"/>
      <rect id="Rectangle_5281" data-name="Rectangle 5281" width="13.536" height="44.976" transform="translate(39.768 255.796)" fill="#d4ffff"/>
      <path id="Path_50903" data-name="Path 50903" d="M61.7,300.775H53.3V255.882h2.442Z" fill="#e69b71"/>
      <path id="Path_50904" data-name="Path 50904" d="M.661,278.328v42.381h39.11V300.778l0-22.449Z" fill="#d3d2d1" style="mix-blend-mode: multiply;isolation: isolate"/>
    </g>
    <path id="Path_50905" data-name="Path 50905" d="M45.274,278.328H53.3v22.444H39.768V255.8Z" fill="#d3d2d1" style="mix-blend-mode: multiply;isolation: isolate"/>
    <path id="Path_50906" data-name="Path 50906" d="M232.958,346.51a1.042,1.042,0,0,0-.157,1.531l7.308,8.189c2.212,2.478,5.2,3.431,6.68,2.109a2.1,2.1,0,0,0,.551-.785l-1.091-1.418L235.87,344.647A10.847,10.847,0,0,1,232.958,346.51Z" fill="#e6a079"/>
    <path id="Path_50907" data-name="Path 50907" d="M233.916,346.569a1.049,1.049,0,0,0-.2,1.6l7.558,8.059c2.212,2.478,5.2,3.431,6.681,2.109a2.084,2.084,0,0,0,.55-.785l-1.091-1.418a123.368,123.368,0,0,0-11.126-11.074Z" fill="#ffc4a3"/>
    <path id="Path_50908" data-name="Path 50908" d="M191.263,399.228a8.6,8.6,0,0,0,8.6,8.612H392.459a8.607,8.607,0,1,0,0-17.214H199.865A8.6,8.6,0,0,0,191.263,399.228Z" fill="#435c70"/>
    <path id="Path_50909" data-name="Path 50909" d="M191.263,399.228a8.6,8.6,0,0,0,8.6,8.612H392.459a8.611,8.611,0,0,0,8.612-8.612Z" fill="#c9c9c9" style="mix-blend-mode: multiply;isolation: isolate"/>
    <path id="Path_50910" data-name="Path 50910" d="M360.225,376.253a3.693,3.693,0,0,0,2.042.617h3.675a.646.646,0,0,0,.352-1.188l-14.017-9.129a3.791,3.791,0,0,0-2.35-.6l-2.811.206a.648.648,0,0,0-.311,1.186Z" fill="#435c70"/>
  </g>
</svg>
