<svg xmlns="http://www.w3.org/2000/svg" width="174.984" height="158.424" viewBox="0 0 174.984 158.424">
  <g id="Group_23006" data-name="Group 23006" transform="translate(-418.849 -285.826)">
    <g id="Group_22994" data-name="Group 22994" transform="translate(477.69 285.826)">
      <path id="Path_50760" data-name="Path 50760" d="M490.2,316.009v-9.526c0-10.775-24.26-19.447-35.006-19.574V286.9l95.226-.077v.007c10.745.127,17.588,8.874,17.588,19.649v9.526Z" transform="translate(-453.533 -285.161)" fill="#bfdeff"/>
      <path id="Path_50761" data-name="Path 50761" d="M570.341,318.337H489.206V307.148c0-9.228-22.662-17.783-33.362-17.909l-1.646-.02v-3.308l1.663-.007,96.89-.078v.093c10.287.951,17.59,9.62,17.59,21.228Zm-77.806-3.329h74.477v-7.86c0-10.479-6.557-17.874-15.943-17.984l-.506-.007-78.9.063c10.374,3.624,20.872,9.987,20.872,17.928Z" transform="translate(-454.198 -285.826)" fill="#42566b"/>
    </g>
    <g id="Group_22995" data-name="Group 22995" transform="translate(441.519 285.828)">
      <path id="Path_50762" data-name="Path 50762" d="M451.692,417.127V306.482a19.652,19.652,0,0,1,19.419-19.649v-.007h93.313v.007c-10.747.127-16.013,8.874-16.013,19.649V417.127a24.789,24.789,0,0,1-24.792,24.789l-90.151,0v-.891A24.79,24.79,0,0,0,451.692,417.127Z" transform="translate(-431.803 -285.162)" fill="#fff"/>
      <path id="Path_50763" data-name="Path 50763" d="M434.133,444.249a1.665,1.665,0,0,1-1.665-1.665v-.891a1.666,1.666,0,0,1,1.223-1.606,23.167,23.167,0,0,0,17-22.3V307.147a21.39,21.39,0,0,1,20.909-21.31,1.489,1.489,0,0,1,.173-.01h93.315a1.668,1.668,0,0,1,.018,3.336c-10.592.125-14.365,9.372-14.365,17.984V417.79a26.489,26.489,0,0,1-26.458,26.455Zm37.789-155.093c-.042,0-.085.007-.128.007a18.05,18.05,0,0,0-17.773,17.984V417.79A26.532,26.532,0,0,1,440.4,440.92l83.88,0a23.156,23.156,0,0,0,23.129-23.126V307.147c0-8.085,2.755-14.4,7.481-17.991Z" transform="translate(-432.468 -285.827)" fill="#42566b"/>
    </g>
    <g id="Group_22996" data-name="Group 22996" transform="translate(418.849 418.966)">
      <path id="Path_50764" data-name="Path 50764" d="M516.57,366.81v2.3c0,10.775,6.885,19.521,17.63,19.647v.007H439.268v-.007a19.65,19.65,0,0,1-19.419-19.647v-2.3Z" transform="translate(-418.184 -365.145)" fill="#fff"/>
      <path id="Path_50765" data-name="Path 50765" d="M534.864,391.093H439.933a1.5,1.5,0,0,1-.175-.01,21.392,21.392,0,0,1-20.909-21.31v-2.3a1.664,1.664,0,0,1,1.665-1.665h96.721a1.664,1.664,0,0,1,1.665,1.665v2.3c0,10.477,6.575,17.874,15.985,17.984a1.668,1.668,0,0,1-.02,3.336Zm-94.783-3.329H524.2c-5.313-3.694-8.629-10.176-8.629-17.991v-.634H422.178v.634a18.049,18.049,0,0,0,17.773,17.984C440,387.758,440.038,387.761,440.081,387.764Z" transform="translate(-418.849 -365.81)" fill="#42566b"/>
    </g>
    <g id="Group_23000" data-name="Group 23000" transform="translate(478.758 301.982)">
      <g id="Group_22997" data-name="Group 22997" transform="translate(7.109)">
        <path id="Path_50766" data-name="Path 50766" d="M460.523,305.926a29.305,29.305,0,0,1,41.418-1.593l-19.912,21.506Z" transform="translate(-458.171 -294.87)" fill="#bfdeff"/>
        <path id="Path_50767" data-name="Path 50767" d="M483.058,328.854,459.11,306.678l1.13-1.222a30.974,30.974,0,0,1,43.772-1.683l1.222,1.13Zm-19.208-22.322,19.026,17.618,17.618-19.028a27.65,27.65,0,0,0-36.644,1.41Z" transform="translate(-459.11 -295.532)" fill="#42566b"/>
      </g>
      <g id="Group_22998" data-name="Group 22998" transform="translate(29.302 7.795)">
        <path id="Path_50768" data-name="Path 50768" d="M493.355,301.217a29.312,29.312,0,0,1,7.108,32.862l-27.02-11.356Z" transform="translate(-471.778 -299.549)" fill="#fff"/>
        <path id="Path_50769" data-name="Path 50769" d="M501.127,336.41a1.67,1.67,0,0,1-.646-.13l-27.02-11.356a1.665,1.665,0,0,1-.576-2.667L492.8,300.751a1.664,1.664,0,0,1,1.157-.531,1.6,1.6,0,0,1,1.2.441,30.975,30.975,0,0,1,7.511,34.73,1.675,1.675,0,0,1-.906.9A1.649,1.649,0,0,1,501.127,336.41Zm-24.183-13.633,23.246,9.769a27.64,27.64,0,0,0-6.112-28.275Z" transform="translate(-472.443 -300.215)" fill="#42566b"/>
      </g>
      <g id="Group_22999" data-name="Group 22999" transform="translate(0 8.704)">
        <path id="Path_50770" data-name="Path 50770" d="M512.165,333.443a29.309,29.309,0,1,1-48.526-31.269l21.506,19.913Z" transform="translate(-454.178 -299.822)" fill="#00a0d8"/>
        <path id="Path_50771" data-name="Path 50771" d="M485.767,353.994a30.97,30.97,0,0,1-22.688-52.013l1.13-1.22L486.72,321.6l28.286,11.888-.646,1.535a30.965,30.965,0,0,1-28.594,18.966Zm-21.338-48.5A27.645,27.645,0,1,0,510.6,335.251l-25.71-10.8Z" transform="translate(-454.839 -300.761)" fill="#42566b"/>
      </g>
    </g>
    <g id="Group_23005" data-name="Group 23005" transform="translate(474.36 381.365)">
      <g id="Group_23001" data-name="Group 23001" transform="translate(1.243 0.228)">
        <path id="Path_50772" data-name="Path 50772" d="M520.137,346.687h-3.329v-3.329h3.329Zm-6.658,0H496.832v-3.329h16.646Zm-19.975,0h-3.329v-3.329H493.5Zm-19.975,0H470.2v-3.329h3.329Zm-6.658,0H452.944v-3.329H466.87Z" transform="translate(-452.944 -343.358)" fill="#42566b"/>
      </g>
      <g id="Group_23002" data-name="Group 23002" transform="translate(1.243 11.094)">
        <path id="Path_50773" data-name="Path 50773" d="M520.137,353.215h-3.329v-3.329h3.329Zm-6.658,0H496.832v-3.329h16.646Zm-19.975,0h-3.329v-3.329H493.5Zm-19.975,0H470.2v-3.329h3.329Zm-6.658,0H452.944v-3.329H466.87Z" transform="translate(-452.944 -349.886)" fill="#42566b"/>
      </g>
      <g id="Group_23003" data-name="Group 23003" transform="translate(1.243 21.959)">
        <path id="Path_50774" data-name="Path 50774" d="M520.137,359.742h-3.329v-3.329h3.329Zm-6.658,0H496.832v-3.329h16.646Zm-19.975,0h-3.329v-3.329H493.5Zm-19.975,0H470.2v-3.329h3.329Zm-6.658,0H452.944v-3.329H466.87Z" transform="translate(-452.944 -356.413)" fill="#42566b"/>
      </g>
      <g id="Group_23004" data-name="Group 23004">
        <rect id="Rectangle_5273" data-name="Rectangle 5273" width="25.803" height="22.283" transform="translate(1.665 1.664)" fill="#fff"/>
        <path id="Path_50775" data-name="Path 50775" d="M479.664,368.832h-25.8a1.664,1.664,0,0,1-1.665-1.665V344.886a1.664,1.664,0,0,1,1.665-1.665h25.8a1.663,1.663,0,0,1,1.665,1.665v22.282A1.663,1.663,0,0,1,479.664,368.832ZM455.526,365.5H478V346.55H455.526Z" transform="translate(-452.197 -343.221)" fill="#42566b"/>
      </g>
    </g>
  </g>
</svg>
