<svg xmlns="http://www.w3.org/2000/svg" width="340.62" height="176.584" viewBox="0 0 340.62 176.584">
  <g id="Grupo_22931" data-name="Grupo 22931" transform="translate(-221.625 -247.483)">
    <path id="Trazado_50512" data-name="Trazado 50512" d="M480.435,299.949a82.107,82.107,0,0,0-22.277,3.063A99.632,99.632,0,0,0,282.366,342.03a19.59,19.59,0,0,0-23.257,23.075,49.852,49.852,0,0,0-30.434,73.852H538.669a81.625,81.625,0,0,0-58.235-139.009Z" transform="translate(0 -14.891)" fill="#ffe7b9"/>
    <path id="Trazado_50513" data-name="Trazado 50513" d="M2371.437,855.285s-8.151-42.128-35.837-41.906C2335.6,813.379,2363.907,833.068,2371.437,855.285Z" transform="translate(-1889.831 -507.56)" fill="#adb1cc"/>
    <path id="Trazado_50514" data-name="Trazado 50514" d="M2389.669,718.143s.232-55.545-34.982-62.218C2354.687,655.925,2385.689,688.039,2389.669,718.143Z" transform="translate(-1906.79 -367.7)" fill="#adb1cc"/>
    <g id="Grupo_22833" data-name="Grupo 22833" transform="translate(295.15 350.957)">
      <path id="Trazado_50515" data-name="Trazado 50515" d="M1063.031,1350.688a40.6,40.6,0,0,0-39.023,29.419h78.047A40.6,40.6,0,0,0,1063.031,1350.688Z" transform="translate(-1024.008 -1338.085)" fill="#ccc"/>
      <path id="Trazado_50516" data-name="Trazado 50516" d="M1901.469,1350.688a40.6,40.6,0,0,0-39.023,29.419h78.047A40.6,40.6,0,0,0,1901.469,1350.688Z" transform="translate(-1755.985 -1338.085)" fill="#ccc"/>
      <path id="Trazado_50517" data-name="Trazado 50517" d="M1387.078,1251.434a57.985,57.985,0,0,0-55.74,42.022h111.481A57.985,57.985,0,0,0,1387.078,1251.434Z" transform="translate(-1292.314 -1251.434)" fill="#ccc"/>
    </g>
    <g id="Grupo_22834" data-name="Grupo 22834" transform="translate(359.373 380.948)">
      <path id="Trazado_50518" data-name="Trazado 50518" d="M1542.728,1524.867a11.209,11.209,0,0,0-10.775,8.123h21.55A11.209,11.209,0,0,0,1542.728,1524.867Z" transform="translate(-1531.953 -1521.387)" fill="#b8b8b8"/>
      <path id="Trazado_50519" data-name="Trazado 50519" d="M1774.229,1524.867a11.209,11.209,0,0,0-10.775,8.123H1785A11.209,11.209,0,0,0,1774.229,1524.867Z" transform="translate(-1734.059 -1521.387)" fill="#b8b8b8"/>
      <path id="Trazado_50520" data-name="Trazado 50520" d="M1632.2,1497.462a16.01,16.01,0,0,0-15.39,11.6h30.781A16.011,16.011,0,0,0,1632.2,1497.462Z" transform="translate(-1606.035 -1497.462)" fill="#b8b8b8"/>
    </g>
    <g id="Grupo_22845" data-name="Grupo 22845" transform="translate(486.211 310.915)">
      <g id="Grupo_22835" data-name="Grupo 22835" transform="translate(24.077 0)">
        <path id="Trazado_50521" data-name="Trazado 50521" d="M2969.574,917.736a11.685,11.685,0,0,0,.038-8.342c-1.682-4.657,2.077-6.612,3.931-5.058S2976.193,911.056,2969.574,917.736Z" transform="translate(-2969.189 -903.811)" fill="#f2bf80"/>
      </g>
      <g id="Grupo_22836" data-name="Grupo 22836" transform="translate(12.877 3.755)">
        <path id="Trazado_50522" data-name="Trazado 50522" d="M2888.907,946.236a11.685,11.685,0,0,0-5.291-6.449c-4.266-2.514-2.618-6.417-.2-6.4S2889.745,936.868,2888.907,946.236Z" transform="translate(-2880.981 -933.384)" fill="#f2bf80"/>
      </g>
      <g id="Grupo_22837" data-name="Grupo 22837" transform="translate(21.211 15.677)">
        <path id="Trazado_50523" data-name="Trazado 50523" d="M2946.613,1028.631a11.687,11.687,0,0,1,7.553,3.541c3.486,3.516,6.864.958,6.255-1.384S2955.486,1025.515,2946.613,1028.631Z" transform="translate(-2946.613 -1027.279)" fill="#f2bf80"/>
      </g>
      <g id="Grupo_22838" data-name="Grupo 22838" transform="translate(15.629 22.196)">
        <path id="Trazado_50524" data-name="Trazado 50524" d="M2902.654,1079.967a11.685,11.685,0,0,1,7.552,3.541c3.487,3.516,6.864.958,6.255-1.384S2911.527,1076.85,2902.654,1079.967Z" transform="translate(-2902.654 -1078.614)" fill="#f2bf80"/>
      </g>
      <g id="Grupo_22839" data-name="Grupo 22839" transform="translate(12.14 29.331)">
        <path id="Trazado_50525" data-name="Trazado 50525" d="M2875.178,1136.158a11.685,11.685,0,0,1,7.552,3.541c3.487,3.516,6.864.958,6.255-1.384S2884.052,1133.041,2875.178,1136.158Z" transform="translate(-2875.178 -1134.805)" fill="#f2bf80"/>
      </g>
      <g id="Grupo_22840" data-name="Grupo 22840" transform="translate(8.203 38.347)">
        <path id="Trazado_50526" data-name="Trazado 50526" d="M2844.173,1207.166a11.686,11.686,0,0,1,7.552,3.541c3.487,3.517,6.864.958,6.255-1.384S2853.046,1204.048,2844.173,1207.166Z" transform="translate(-2844.173 -1205.813)" fill="#f2bf80"/>
      </g>
      <g id="Grupo_22841" data-name="Grupo 22841" transform="translate(7.763 10.648)">
        <path id="Trazado_50527" data-name="Trazado 50527" d="M2848.628,1000.526a11.685,11.685,0,0,0-5.291-6.449c-4.266-2.514-2.618-6.417-.2-6.4S2849.465,991.158,2848.628,1000.526Z" transform="translate(-2840.702 -987.674)" fill="#f2bf80"/>
      </g>
      <g id="Grupo_22842" data-name="Grupo 22842" transform="translate(3.53 18.469)">
        <path id="Trazado_50528" data-name="Trazado 50528" d="M2815.3,1062.119a11.686,11.686,0,0,0-5.291-6.449c-4.266-2.514-2.618-6.417-.2-6.4S2816.134,1052.752,2815.3,1062.119Z" transform="translate(-2807.37 -1049.268)" fill="#f2bf80"/>
      </g>
      <g id="Grupo_22843" data-name="Grupo 22843" transform="translate(0 26.665)">
        <path id="Trazado_50529" data-name="Trazado 50529" d="M2787.493,1126.663a11.684,11.684,0,0,0-5.291-6.449c-4.266-2.514-2.618-6.417-.2-6.4S2788.331,1117.3,2787.493,1126.663Z" transform="translate(-2779.567 -1113.812)" fill="#f2bf80"/>
      </g>
      <g id="Grupo_22844" data-name="Grupo 22844" transform="translate(0.237 11.832)">
        <path id="Trazado_50530" data-name="Trazado 50530" d="M2781.883,1062.272a.421.421,0,0,0,.391-.413,121.193,121.193,0,0,1,3.306-23.573c2.875-12.029,8.9-28.832,21.29-40.569a.42.42,0,1,0-.578-.61c-12.542,11.884-18.633,28.857-21.533,41a122.03,122.03,0,0,0-3.324,23.737.42.42,0,0,0,.414.426Z" transform="translate(-2781.433 -996.992)" fill="#f2bf80"/>
      </g>
    </g>
    <g id="Grupo_22856" data-name="Grupo 22856" transform="translate(501.293 335.242)">
      <g id="Grupo_22846" data-name="Grupo 22846" transform="translate(32.736)">
        <path id="Trazado_50531" data-name="Trazado 50531" d="M3156.157,1129.089a9.715,9.715,0,0,0,1.791-6.7c-.37-4.1,3.065-4.879,4.229-3.238S3162.889,1125.113,3156.157,1129.089Z" transform="translate(-3156.157 -1118.349)" fill="#f2bf80"/>
      </g>
      <g id="Grupo_22847" data-name="Grupo 22847" transform="translate(24.919 0.569)">
        <path id="Trazado_50532" data-name="Trazado 50532" d="M3098.9,1134.382a9.717,9.717,0,0,0-2.894-6.3c-2.9-2.922-.751-5.713,1.192-5.191S3101.553,1127.026,3098.9,1134.382Z" transform="translate(-3094.594 -1122.826)" fill="#f2bf80"/>
      </g>
      <g id="Grupo_22848" data-name="Grupo 22848" transform="translate(29.466 12.471)">
        <path id="Trazado_50533" data-name="Trazado 50533" d="M3130.407,1216.641a9.715,9.715,0,0,1,5.326,4.441c2.062,3.563,5.318,2.219,5.322.207S3138.2,1216.007,3130.407,1216.641Z" transform="translate(-3130.407 -1216.561)" fill="#f2bf80"/>
      </g>
      <g id="Grupo_22849" data-name="Grupo 22849" transform="translate(23.602 16.534)">
        <path id="Trazado_50534" data-name="Trazado 50534" d="M3084.226,1248.646a9.713,9.713,0,0,1,5.326,4.441c2.062,3.563,5.318,2.219,5.322.207S3092.019,1248.012,3084.226,1248.646Z" transform="translate(-3084.226 -1248.566)" fill="#f2bf80"/>
      </g>
      <g id="Grupo_22850" data-name="Grupo 22850" transform="translate(19.291 21.536)">
        <path id="Trazado_50535" data-name="Trazado 50535" d="M3050.275,1288.033a9.713,9.713,0,0,1,5.326,4.441c2.062,3.563,5.318,2.219,5.322.207S3058.068,1287.4,3050.275,1288.033Z" transform="translate(-3050.275 -1287.953)" fill="#f2bf80"/>
      </g>
      <g id="Grupo_22851" data-name="Grupo 22851" transform="translate(14.223 27.955)">
        <path id="Trazado_50536" data-name="Trazado 50536" d="M3010.36,1338.59a9.715,9.715,0,0,1,5.326,4.441c2.062,3.563,5.318,2.219,5.322.207S3018.153,1337.956,3010.36,1338.59Z" transform="translate(-3010.36 -1338.51)" fill="#f2bf80"/>
      </g>
      <g id="Grupo_22852" data-name="Grupo 22852" transform="translate(19.352 5.033)">
        <path id="Trazado_50537" data-name="Trazado 50537" d="M3055.057,1169.539a9.715,9.715,0,0,0-2.894-6.3c-2.9-2.922-.751-5.713,1.192-5.191S3057.708,1162.184,3055.057,1169.539Z" transform="translate(-3050.749 -1157.983)" fill="#f2bf80"/>
      </g>
      <g id="Grupo_22853" data-name="Grupo 22853" transform="translate(14.298 10.429)">
        <path id="Trazado_50538" data-name="Trazado 50538" d="M3015.258,1212.035a9.714,9.714,0,0,0-2.894-6.3c-2.9-2.922-.751-5.713,1.192-5.191S3017.908,1204.68,3015.258,1212.035Z" transform="translate(-3010.949 -1200.479)" fill="#f2bf80"/>
      </g>
      <g id="Grupo_22854" data-name="Grupo 22854" transform="translate(9.73 16.274)">
        <path id="Trazado_50539" data-name="Trazado 50539" d="M2979.283,1258.07a9.715,9.715,0,0,0-2.895-6.3c-2.9-2.922-.751-5.713,1.192-5.191S2981.933,1250.714,2979.283,1258.07Z" transform="translate(-2974.973 -1246.514)" fill="#f2bf80"/>
      </g>
      <g id="Grupo_22855" data-name="Grupo 22855" transform="translate(0 9.24)">
        <path id="Trazado_50540" data-name="Trazado 50540" d="M2898.629,1238.411a.349.349,0,0,0,.4-.25,100.791,100.791,0,0,1,7.632-18.258c4.85-9.066,13.242-21.306,25.68-28.13a.349.349,0,1,0-.336-.613c-12.593,6.91-21.072,19.273-25.968,28.428a101.528,101.528,0,0,0-7.682,18.386.35.35,0,0,0,.243.43Z" transform="translate(-2898.344 -1191.116)" fill="#f2bf80"/>
      </g>
    </g>
    <g id="Grupo_22857" data-name="Grupo 22857" transform="translate(414.375 369.72)">
      <path id="Trazado_50541" data-name="Trazado 50541" d="M2235.371,1460.894a22.418,22.418,0,0,0-21.55,16.246h43.1A22.418,22.418,0,0,0,2235.371,1460.894Z" transform="translate(-2213.821 -1453.934)" fill="#f6d2a6"/>
      <path id="Trazado_50542" data-name="Trazado 50542" d="M2698.374,1460.894a22.418,22.418,0,0,0-21.549,16.246h43.1A22.418,22.418,0,0,0,2698.374,1460.894Z" transform="translate(-2618.035 -1453.934)" fill="#f6d2a6"/>
      <path id="Trazado_50543" data-name="Trazado 50543" d="M2414.316,1406.084a32.021,32.021,0,0,0-30.781,23.205H2445.1A32.021,32.021,0,0,0,2414.316,1406.084Z" transform="translate(-2361.986 -1406.084)" fill="#f6d2a6"/>
    </g>
    <g id="Grupo_22858" data-name="Grupo 22858" transform="translate(278.395 385.909)">
      <path id="Trazado_50544" data-name="Trazado 50544" d="M1125.772,1597.731H912.937a7.122,7.122,0,0,1,0-14.244h212.836a7.122,7.122,0,0,1,0,14.244Z" transform="translate(-905.815 -1583.487)" fill="#8987a8"/>
    </g>
    <g id="Grupo_22859" data-name="Grupo 22859" transform="translate(456.017 273.626)">
      <path id="Trazado_50545" data-name="Trazado 50545" d="M2562.7,548.34a21.778,21.778,0,0,0-20.935,15.782h41.869A21.778,21.778,0,0,0,2562.7,548.34Z" transform="translate(-2541.77 -541.579)" fill="#e2e2e2"/>
      <path id="Trazado_50546" data-name="Trazado 50546" d="M3012.495,548.34a21.777,21.777,0,0,0-20.935,15.782h41.869A21.776,21.776,0,0,0,3012.495,548.34Z" transform="translate(-2934.448 -541.579)" fill="#e2e2e2"/>
      <path id="Trazado_50547" data-name="Trazado 50547" d="M2736.543,495.093a31.107,31.107,0,0,0-29.9,22.543h59.805A31.106,31.106,0,0,0,2736.543,495.093Z" transform="translate(-2685.706 -495.093)" fill="#e2e2e2"/>
    </g>
    <g id="Grupo_22860" data-name="Grupo 22860" transform="translate(388.786 393.878)">
      <path id="Trazado_50548" data-name="Trazado 50548" d="M1822.113,1673.462a11.132,11.132,0,0,0-10.7,8.067h21.4A11.132,11.132,0,0,0,1822.113,1673.462Z" transform="translate(-1811.412 -1670.006)" fill="#adb1cc"/>
      <path id="Trazado_50549" data-name="Trazado 50549" d="M2052.027,1673.462a11.132,11.132,0,0,0-10.7,8.067h21.4A11.132,11.132,0,0,0,2052.027,1673.462Z" transform="translate(-2012.132 -1670.006)" fill="#adb1cc"/>
      <path id="Trazado_50550" data-name="Trazado 50550" d="M1910.972,1646.245a15.9,15.9,0,0,0-15.285,11.523h30.57A15.9,15.9,0,0,0,1910.972,1646.245Z" transform="translate(-1884.986 -1646.245)" fill="#adb1cc"/>
    </g>
    <g id="Grupo_22861" data-name="Grupo 22861" transform="translate(243.263 275.392)">
      <path id="Trazado_50551" data-name="Trazado 50551" d="M415.732,527.555a24.651,24.651,0,0,0-23.7,17.865h47.394A24.651,24.651,0,0,0,415.732,527.555Z" transform="translate(-392.035 -519.902)" fill="#f6d2a6"/>
      <path id="Trazado_50552" data-name="Trazado 50552" d="M924.87,527.555a24.651,24.651,0,0,0-23.7,17.865h47.394A24.651,24.651,0,0,0,924.87,527.555Z" transform="translate(-836.525 -519.902)" fill="#f6d2a6"/>
      <path id="Trazado_50553" data-name="Trazado 50553" d="M612.508,467.283A35.211,35.211,0,0,0,578.66,492.8h67.7A35.211,35.211,0,0,0,612.508,467.283Z" transform="translate(-554.963 -467.283)" fill="#f6d2a6"/>
    </g>
    <g id="Grupo_22862" data-name="Grupo 22862" transform="translate(256.244 283.466)">
      <path id="Trazado_50554" data-name="Trazado 50554" d="M508.185,621.018a14.482,14.482,0,0,0-13.921,10.495h27.842A14.482,14.482,0,0,0,508.185,621.018Z" transform="translate(-494.264 -616.522)" fill="#6f728a"/>
      <path id="Trazado_50555" data-name="Trazado 50555" d="M807.286,621.018a14.482,14.482,0,0,0-13.921,10.495h27.842A14.482,14.482,0,0,0,807.286,621.018Z" transform="translate(-755.386 -616.522)" fill="#6f728a"/>
      <path id="Trazado_50556" data-name="Trazado 50556" d="M623.785,585.61A20.685,20.685,0,0,0,603.9,600.6h39.769A20.686,20.686,0,0,0,623.785,585.61Z" transform="translate(-589.979 -585.61)" fill="#6f728a"/>
    </g>
    <g id="Grupo_22863" data-name="Grupo 22863" transform="translate(476.55 290.777)">
      <path id="Trazado_50557" data-name="Trazado 50557" d="M2783.6,669.6a7.421,7.421,0,0,1,7.134,5.378h-14.268A7.422,7.422,0,0,1,2783.6,669.6Z" transform="translate(-2757.006 -667.296)" fill="#454a5f"/>
      <path id="Trazado_50558" data-name="Trazado 50558" d="M2630.323,669.6a7.421,7.421,0,0,1,7.134,5.378h-14.268A7.421,7.421,0,0,1,2630.323,669.6Z" transform="translate(-2623.189 -667.296)" fill="#454a5f"/>
      <path id="Trazado_50559" data-name="Trazado 50559" d="M2682.336,651.454a10.6,10.6,0,0,1,10.19,7.682h-20.381A10.6,10.6,0,0,1,2682.336,651.454Z" transform="translate(-2665.93 -651.454)" fill="#454a5f"/>
    </g>
    <g id="Grupo_22864" data-name="Grupo 22864" transform="translate(307.563 309.485)">
      <path id="Trazado_50560" data-name="Trazado 50560" d="M1154.69,839.468a5.852,5.852,0,0,1,5.625,4.241h-11.25A5.852,5.852,0,0,1,1154.69,839.468Z" transform="translate(-1133.719 -837.651)" fill="#454a5f"/>
      <path id="Trazado_50561" data-name="Trazado 50561" d="M1033.829,839.468a5.852,5.852,0,0,1,5.625,4.241H1028.2A5.852,5.852,0,0,1,1033.829,839.468Z" transform="translate(-1028.204 -837.651)" fill="#454a5f"/>
      <path id="Trazado_50562" data-name="Trazado 50562" d="M1074.842,825.16a8.359,8.359,0,0,1,8.035,6.057h-16.07A8.358,8.358,0,0,1,1074.842,825.16Z" transform="translate(-1061.905 -825.16)" fill="#454a5f"/>
    </g>
    <path id="Trazado_50563" data-name="Trazado 50563" d="M709.758,1009.415a25.629,25.629,0,0,0-7.529,3.832l-.078-.315c-.677-2.7-1.515-5.728-2.542-8.974a25.625,25.625,0,0,0,8.058-3.11,25.27,25.27,0,0,0,6.883-6.312,25.267,25.267,0,0,0-8.762,3.233,25.626,25.626,0,0,0-6.359,5.626c-.861-2.688-1.852-5.519-2.987-8.433a25.646,25.646,0,0,0,6.942-5.041,25.268,25.268,0,0,0,5.04-7.863,25.27,25.27,0,0,0-7.644,5.366,25.6,25.6,0,0,0-4.609,6.844c-1.148-2.9-2.441-5.883-3.892-8.88a25.64,25.64,0,0,0,6.1-6.046,25.268,25.268,0,0,0,3.782-8.539,25.267,25.267,0,0,0-6.736,6.469,25.6,25.6,0,0,0-3.493,7.4c-.991-2.015-2.054-4.034-3.194-6.042a25.637,25.637,0,0,0,3.349-7.884,25.265,25.265,0,0,0,.274-9.335,24.1,24.1,0,0,0-4.286,16.07q-1.224-2.1-2.562-4.162a24.1,24.1,0,0,0-9.385-13.744,24.093,24.093,0,0,0,8.307,14.36q1.388,2.133,2.648,4.306a25.6,25.6,0,0,0-7.953-1.822,25.271,25.271,0,0,0-9.249,1.3,25.269,25.269,0,0,0,9.05,2.307,25.631,25.631,0,0,0,8.565-1.069c1.151,2.013,2.222,4.039,3.221,6.061a25.626,25.626,0,0,0-8.482.519,25.266,25.266,0,0,0-8.481,3.911,25.267,25.267,0,0,0,9.331-.406,25.624,25.624,0,0,0,7.893-3.5c1.5,3.073,2.832,6.131,4.012,9.109a25.62,25.62,0,0,0-8.451-.224,25.27,25.27,0,0,0-8.793,3.147,25.267,25.267,0,0,0,9.33.42,25.634,25.634,0,0,0,8.139-2.77c1.15,2.942,2.152,5.8,3.022,8.511a25.628,25.628,0,0,0-8.392-.518,25.268,25.268,0,0,0-8.9,2.828,25.266,25.266,0,0,0,9.309.756,25.627,25.627,0,0,0,8.181-2.449c1.012,3.2,1.839,6.191,2.508,8.855.033.133.066.266.1.4a25.524,25.524,0,0,0-9.074.445,25.269,25.269,0,0,0-8.481,3.911,25.267,25.267,0,0,0,9.331-.406,25.522,25.522,0,0,0,8.271-3.759,134.723,134.723,0,0,1,3.377,18.822l1.236-.1a135.357,135.357,0,0,0-3.318-18.646,25.626,25.626,0,0,0,8.424-1,25.272,25.272,0,0,0,8.243-4.39A25.269,25.269,0,0,0,709.758,1009.415Z" transform="translate(-391.338 -642.62)" fill="#999"/>
    <path id="Trazado_50564" data-name="Trazado 50564" d="M533.207,1217.1a16.422,16.422,0,0,0-3.916,3.737l-.106-.179c-.912-1.532-1.984-3.237-3.212-5.041a16.424,16.424,0,0,0,4.374-3.392,16.193,16.193,0,0,0,3.063-5.141,16.19,16.19,0,0,0-4.783,3.6,16.417,16.417,0,0,0-2.868,4.624c-1.023-1.492-2.152-3.047-3.385-4.627a16.429,16.429,0,0,0,3.333-4.372,16.193,16.193,0,0,0,1.647-5.754,16.19,16.19,0,0,0-3.7,4.7,16.406,16.406,0,0,0-1.569,5.049c-1.239-1.571-2.581-3.162-4.023-4.735a16.43,16.43,0,0,0,2.631-4.833,16.192,16.192,0,0,0,.75-5.937,16.193,16.193,0,0,0-2.944,5.21,16.405,16.405,0,0,0-.781,5.187c-.979-1.054-2-2.1-3.072-3.121a16.43,16.43,0,0,0,.605-5.456,16.192,16.192,0,0,0-1.55-5.781,15.44,15.44,0,0,0,.326,10.652q-1.137-1.061-2.339-2.083a15.441,15.441,0,0,0-8.29-6.709,15.437,15.437,0,0,0,7.742,7.286q1.244,1.054,2.417,2.156a16.4,16.4,0,0,0-5.217.345,16.188,16.188,0,0,0-5.439,2.5,16.194,16.194,0,0,0,5.979-.249,16.428,16.428,0,0,0,5.061-2.233c1.077,1.024,2.107,2.07,3.093,3.127a16.428,16.428,0,0,0-5.111,1.879,16.2,16.2,0,0,0-4.486,3.962,16.192,16.192,0,0,0,5.653-1.966,16.423,16.423,0,0,0,4.2-3.6c1.487,1.61,2.867,3.242,4.139,4.853a16.431,16.431,0,0,0-5.228,1.418,16.194,16.194,0,0,0-4.818,3.55,16.191,16.191,0,0,0,5.8-1.459,16.426,16.426,0,0,0,4.486-3.2c1.247,1.594,2.388,3.164,3.421,4.668a16.423,16.423,0,0,0-5.247,1.226,16.193,16.193,0,0,0-4.943,3.374,16.194,16.194,0,0,0,5.853-1.249,16.421,16.421,0,0,0,4.571-3.009c1.21,1.779,2.268,3.462,3.169,4.974l.134.226a15.5,15.5,0,0,0-9.973,5.9,16.2,16.2,0,0,0,5.653-1.966,16.362,16.362,0,0,0,4.385-3.829,86.356,86.356,0,0,1,5.536,10.932l.74-.291a86.721,86.721,0,0,0-5.468-10.834,16.425,16.425,0,0,0,4.986-2.167,16.193,16.193,0,0,0,4.252-4.212A16.19,16.19,0,0,0,533.207,1217.1Z" transform="translate(-245.557 -846.048)" fill="#999"/>
    <g id="Grupo_22865" data-name="Grupo 22865" transform="translate(272.923 375.246)">
      <path id="Trazado_50565" data-name="Trazado 50565" d="M641.614,1491.438a16.635,16.635,0,0,0-15.991,12.055H657.6A16.634,16.634,0,0,0,641.614,1491.438Z" transform="translate(-625.623 -1486.274)" fill="#6f728a"/>
      <path id="Trazado_50566" data-name="Trazado 50566" d="M985.184,1491.438a16.635,16.635,0,0,0-15.991,12.055h31.981A16.634,16.634,0,0,0,985.184,1491.438Z" transform="translate(-925.568 -1486.274)" fill="#6f728a"/>
      <path id="Trazado_50567" data-name="Trazado 50567" d="M774.4,1450.766a23.761,23.761,0,0,0-22.841,17.22h45.682A23.761,23.761,0,0,0,774.4,1450.766Z" transform="translate(-735.568 -1450.766)" fill="#6f728a"/>
    </g>
    <g id="Grupo_22866" data-name="Grupo 22866" transform="translate(258.237 386.659)">
      <path id="Trazado_50568" data-name="Trazado 50568" d="M517.305,1565.079a7.639,7.639,0,0,0-7.343,5.536h14.686A7.639,7.639,0,0,0,517.305,1565.079Z" transform="translate(-509.962 -1562.708)" fill="#9a98b5"/>
      <path id="Trazado_50569" data-name="Trazado 50569" d="M675.075,1565.079a7.639,7.639,0,0,0-7.343,5.536h14.686A7.639,7.639,0,0,0,675.075,1565.079Z" transform="translate(-647.699 -1562.708)" fill="#9a98b5"/>
      <path id="Trazado_50570" data-name="Trazado 50570" d="M578.282,1546.4a10.911,10.911,0,0,0-10.489,7.907h20.978A10.911,10.911,0,0,0,578.282,1546.4Z" transform="translate(-560.45 -1546.403)" fill="#9a98b5"/>
    </g>
    <circle id="Elipse_1234" data-name="Elipse 1234" cx="2.121" cy="2.121" r="2.121" transform="translate(338.762 293.166)" fill="#fff"/>
    <circle id="Elipse_1235" data-name="Elipse 1235" cx="2.121" cy="2.121" r="2.121" transform="translate(449.042 319.425)" fill="#fff"/>
    <circle id="Elipse_1236" data-name="Elipse 1236" cx="2.121" cy="2.121" r="2.121" transform="translate(318.432 327.775)" fill="#fff"/>
    <circle id="Elipse_1237" data-name="Elipse 1237" cx="3.8" cy="3.8" r="3.8" transform="translate(369.803 311.282)" fill="#fff"/>
    <circle id="Elipse_1238" data-name="Elipse 1238" cx="3.8" cy="3.8" r="3.8" transform="translate(387.313 363.138)" fill="#fff"/>
    <g id="Grupo_22867" data-name="Grupo 22867" transform="translate(377.03 247.483)">
      <path id="Trazado_50571" data-name="Trazado 50571" d="M1716.239,247.483V348.342h68.414V247.483Z" transform="translate(-1716.239 -247.483)" fill="#fff"/>
      <rect id="Rectángulo_5218" data-name="Rectángulo 5218" width="49.084" height="1.339" transform="translate(9.665 40.373)" fill="#999"/>
      <rect id="Rectángulo_5219" data-name="Rectángulo 5219" width="49.084" height="8.23" transform="translate(9.665 17.097)" fill="#f6d2a6"/>
      <rect id="Rectángulo_5220" data-name="Rectángulo 5220" width="18.178" height="4.115" transform="translate(9.665 8.174)" fill="#ccc"/>
      <rect id="Rectángulo_5221" data-name="Rectángulo 5221" width="49.084" height="1.339" transform="translate(9.665 45.971)" fill="#999"/>
      <rect id="Rectángulo_5222" data-name="Rectángulo 5222" width="49.084" height="1.339" transform="translate(9.665 51.569)" fill="#999"/>
      <rect id="Rectángulo_5223" data-name="Rectángulo 5223" width="49.084" height="1.339" transform="translate(9.665 57.167)" fill="#999"/>
      <rect id="Rectángulo_5224" data-name="Rectángulo 5224" width="49.084" height="1.339" transform="translate(9.665 62.765)" fill="#999"/>
      <rect id="Rectángulo_5225" data-name="Rectángulo 5225" width="40.224" height="1.339" transform="translate(9.665 68.363)" fill="#999"/>
      <circle id="Elipse_1239" data-name="Elipse 1239" cx="7.355" cy="7.355" r="7.355" transform="translate(40.992 84.232) rotate(-45)" fill="#ccc"/>
      <circle id="Elipse_1240" data-name="Elipse 1240" cx="3.49" cy="3.49" r="3.49" transform="translate(47.904 80.742)" fill="#fff"/>
      <path id="Trazado_50572" data-name="Trazado 50572" d="M1941,916.925a21.57,21.57,0,0,1,6.227-6.193,2.545,2.545,0,0,1,2.5-.5,2.421,2.421,0,0,1,.974,1.794,12.354,12.354,0,0,1,.146,3.142,2.169,2.169,0,0,1-.442,1.326.847.847,0,0,1-1.246.051,1.148,1.148,0,0,1-.17-.609,7.279,7.279,0,0,1,.407-2.954,3.4,3.4,0,0,1,1.017-1.57,1.668,1.668,0,0,1,1.774-.238c.847.463.907,1.629.93,2.594s.31,2.163,1.255,2.362a2.032,2.032,0,0,0,1.725-.749,9.025,9.025,0,0,1,1.8-1.655,1.739,1.739,0,0,1,2.225.277" transform="translate(-1912.458 -825.923)" fill="none" stroke="#6f728a" stroke-linecap="round" stroke-linejoin="round" stroke-width="3.34"/>
    </g>
    <g id="Grupo_22868" data-name="Grupo 22868" transform="translate(422.152 258.314)">
      <path id="Trazado_50573" data-name="Trazado 50573" d="M2144.225,361.9a11.908,11.908,0,0,0-11.448,8.63h22.9A11.909,11.909,0,0,0,2144.225,361.9Z" transform="translate(-2132.777 -358.2)" fill="#adb1cc"/>
      <path id="Trazado_50574" data-name="Trazado 50574" d="M2390.181,361.9a11.908,11.908,0,0,0-11.448,8.63h22.9A11.908,11.908,0,0,0,2390.181,361.9Z" transform="translate(-2347.503 -358.2)" fill="#adb1cc"/>
      <path id="Trazado_50575" data-name="Trazado 50575" d="M2239.283,332.781a17.01,17.01,0,0,0-16.351,12.327h32.7A17.01,17.01,0,0,0,2239.283,332.781Z" transform="translate(-2211.485 -332.781)" fill="#adb1cc"/>
    </g>
    <g id="Grupo_22869" data-name="Grupo 22869" transform="translate(449.303 266.605)">
      <path id="Trazado_50576" data-name="Trazado 50576" d="M2377.264,417.649a8.005,8.005,0,0,0-7.7,5.8h15.391A8.006,8.006,0,0,0,2377.264,417.649Z" transform="translate(-2369.569 -415.164)" fill="#f6d2a6"/>
      <path id="Trazado_50577" data-name="Trazado 50577" d="M2542.6,417.649a8.005,8.005,0,0,0-7.7,5.8H2550.3A8.005,8.005,0,0,0,2542.6,417.649Z" transform="translate(-2513.911 -415.164)" fill="#f6d2a6"/>
      <path id="Trazado_50578" data-name="Trazado 50578" d="M2441.166,398.077a11.435,11.435,0,0,0-10.992,8.287h21.984A11.435,11.435,0,0,0,2441.166,398.077Z" transform="translate(-2422.478 -398.077)" fill="#f6d2a6"/>
    </g>
    <g id="Grupo_22876" data-name="Grupo 22876" transform="translate(403.697 321.166)">
      <g id="Grupo_22875" data-name="Grupo 22875">
        <path id="Trazado_50579" data-name="Trazado 50579" d="M2063.81,1148.653s-4.325,27.376-6.94,30.954c0,0,3.166,2.918,6.1,2.094,4.848-1.359,3.886-19.642,2.6-28.55A8.994,8.994,0,0,0,2063.81,1148.653Z" transform="translate(-2042.619 -1130.948)" fill="#454a5f"/>
        <path id="Trazado_50580" data-name="Trazado 50580" d="M1948.831,1167.792s-3.155-1.932-4.031-1.615,1.918,2.5,4.154,2.517Z" transform="translate(-1944.635 -1146.217)" fill="#af7d61"/>
        <g id="Grupo_22870" data-name="Grupo 22870" transform="translate(3.609 12.873)">
          <path id="Trazado_50581" data-name="Trazado 50581" d="M1973.582,1119.006c-.188.6-.372,1.174-.528,1.766,10.524,3,15.6.337,21.852-7.884.957-1.257.622-1.667-.643-2.063.055-.3.056-.3,0,0-1.265-.4-1.368-.068-2.224,1.063C1986.44,1119.275,1983.091,1120.829,1973.582,1119.006Z" transform="translate(-1973.054 -1110.603)" fill="#454a5f"/>
        </g>
        <g id="Grupo_22871" data-name="Grupo 22871" transform="translate(25.66 13.123)">
          <path id="Trazado_50582" data-name="Trazado 50582" d="M2154.05,1135.356c.641.346,1.168.625,1.759.9,3.105-12.435,3.259-15.831-7.423-23.417-1.634-1.16-2.686,1.8-.139,3.039C2157.188,1120.229,2155.92,1126.867,2154.05,1135.356Z" transform="translate(-2146.718 -1112.572)" fill="#454a5f"/>
        </g>
        <g id="Grupo_22872" data-name="Grupo 22872" transform="translate(20.689 30.769)">
          <path id="Trazado_50583" data-name="Trazado 50583" d="M2107.57,1293.96c.721.324.763.914,1.518,1.149,2.266-13.293,2.236-30.3,5.324-42.32-2-.431-4-.839-6-1.248C2106.019,1265.559,2110.569,1278.095,2107.57,1293.96Z" transform="translate(-2107.57 -1251.541)" fill="#af7d61"/>
        </g>
        <path id="Trazado_50584" data-name="Trazado 50584" d="M2109.221,1251.541c2,.409,4,.818,6,1.248-2.866,11.153-2.843,26.575-4.665,39.367l-1.9.225C2111.078,1277.256,2106.905,1265.09,2109.221,1251.541Z" transform="translate(-2087.687 -1220.772)" fill="#2d334a"/>
        <g id="Grupo_22873" data-name="Grupo 22873" transform="translate(23.989 30.977)">
          <path id="Trazado_50585" data-name="Trazado 50585" d="M2135.726,1295.56c.74.276.821.863,1.589,1.048,1.4-13.412.27-30.385,2.574-42.575-2.02-.3-4.042-.579-6.065-.858C2132.34,1267.318,2137.692,1279.534,2135.726,1295.56Z" transform="translate(-2133.56 -1253.175)" fill="#af7d61"/>
        </g>
        <path id="Trazado_50586" data-name="Trazado 50586" d="M2133.824,1253.175c2.022.279,4.045.557,6.065.858-2.138,11.315-1.117,26.7-2.108,39.586l-1.882.348C2137.341,1278.716,2132.39,1266.846,2133.824,1253.175Z" transform="translate(-2109.571 -1222.198)" fill="#2d334a"/>
        <path id="Trazado_50587" data-name="Trazado 50587" d="M2091.874,1146.824q-.266-.859-.523-1.748a215.24,215.24,0,0,1-4.767-21.8c-1.164-6.856-.817-9.873-1.926-13.2-.466-1.4-.548-2.222-1.675-2.916a4.652,4.652,0,0,0-.428-.233,2.837,2.837,0,0,0-.646-.227c-2.215-.47-3.543,2.485-3.91,4.494-.071.392-.144.693-.209.943v0c-.3,1.15-.425,1.216.577,4.074.434,1.237-.536,8.461-.969,10.9-.14.79-.234,2.187-.545,3.627-1.863,8.616-3.06,17.82-4.052,26.7-.035.311-.07.622-.1.931a9.119,9.119,0,0,0,2.7-.36c2.085-.593,4-1.594,6.135-2.019a11.058,11.058,0,0,1,4.267.076,21.037,21.037,0,0,0,2.584.609,5.683,5.683,0,0,0,3.688-.794c.785-.5,1.961-.574,2.674-1.607A48.223,48.223,0,0,1,2091.874,1146.824Z" transform="translate(-2056.435 -1094.271)" fill="#6f728a"/>
        <path id="Trazado_50588" data-name="Trazado 50588" d="M2150.5,1149.871a11.817,11.817,0,0,0,5.272-1.287,215.273,215.273,0,0,1-4.767-21.8c-1.164-6.856-.816-9.873-1.926-13.2-.466-1.4-.548-2.222-1.676-2.916.053,2.2-.718,6.97-.908,15.832C2146.257,1137.64,2150.5,1149.871,2150.5,1149.871Z" transform="translate(-2120.857 -1097.779)" fill="#454a5f"/>
        <g id="Grupo_22874" data-name="Grupo 22874" transform="translate(20.869 35.546)">
          <rect id="Rectángulo_5226" data-name="Rectángulo 5226" width="12.224" height="18.308" transform="translate(0 11.675) rotate(-72.763)" fill="#f6d2a6"/>
          <rect id="Rectángulo_5227" data-name="Rectángulo 5227" width="5.689" height="3.39" transform="matrix(0.296, -0.955, 0.955, 0.296, 3.95, 7.918)" fill="#f0b56c"/>
        </g>
        <path id="Trazado_50589" data-name="Trazado 50589" d="M2081.051,1579.807a5.582,5.582,0,0,1-2.856,3.625s-1.064.7.475.477,3.727-1.377,4.234-2.346c0,0,.87,1.46.886.942s.073-2.879.073-2.879Z" transform="translate(-2060.923 -1507.199)" fill="#f2bf80"/>
        <path id="Trazado_50590" data-name="Trazado 50590" d="M2125.153,1579.807a5.582,5.582,0,0,1-2.857,3.625s-1.064.7.475.477,3.727-1.377,4.234-2.346c0,0,.87,1.46.886.942s.073-2.879.073-2.879Z" transform="translate(-2099.425 -1507.199)" fill="#f2bf80"/>
        <path id="Trazado_50591" data-name="Trazado 50591" d="M2112.812,1112.128v0s2.093-4.226,3.435-4.978a4.315,4.315,0,0,0,.684-.46c-2.215-.47-3.543,2.485-3.91,4.494C2112.95,1111.578,2112.877,1111.878,2112.812,1112.128Z" transform="translate(-2091.458 -1094.271)" fill="#454a5f"/>
        <path id="Trazado_50592" data-name="Trazado 50592" d="M2130.864,1034.01c.028-.28.241-.522.311-.786a5.689,5.689,0,0,1,.114-.837c.112-.255.391-.42.539-.651s.185-.555.368-.76.5-.277.714-.453.345-.47.585-.61a5.613,5.613,0,0,1,.818-.211c.256-.1.472-.34.745-.4a5.69,5.69,0,0,1,.843.054,5.436,5.436,0,0,1,.832-.149c.28.028.522.242.786.31a5.725,5.725,0,0,1,.837.114c.255.112.42.39.651.539s.555.185.76.369.277.5.452.714.47.346.61.584a5.661,5.661,0,0,1,.211.818c.1.256.34.473.4.744a5.692,5.692,0,0,1-.054.843,5.43,5.43,0,0,1,.149.832c-.028.28-.242.522-.311.786a5.687,5.687,0,0,1-.114.837c-.112.255-.391.42-.539.651s-.185.555-.369.76-.5.278-.714.452-.346.47-.585.61a5.629,5.629,0,0,1-.818.211c-.256.1-.473.34-.745.4a5.721,5.721,0,0,1-.843-.054,5.422,5.422,0,0,1-.832.149c-.279-.028-.522-.241-.786-.31a5.738,5.738,0,0,1-.837-.114c-.255-.112-.42-.39-.651-.539s-.555-.185-.76-.368-.277-.5-.452-.714-.47-.346-.61-.585a5.6,5.6,0,0,1-.21-.818c-.1-.256-.34-.472-.4-.744a5.656,5.656,0,0,1,.053-.843A5.434,5.434,0,0,1,2130.864,1034.01Z" transform="translate(-2107.214 -1026.667)" fill="#2d334a"/>
        <path id="Trazado_50593" data-name="Trazado 50593" d="M2116,1029.615c-.1.239-.364.392-.5.609s-.173.517-.344.709-.466.259-.666.422-.323.439-.545.569a5.262,5.262,0,0,1-.763.2.8.8,0,0,0-.095.044,2.641,2.641,0,0,1-.6.328,5.388,5.388,0,0,1-.787-.051,4.967,4.967,0,0,1-.776.139c-.261-.026-.488-.225-.734-.29a5.363,5.363,0,0,1-.782-.106c-.238-.1-.391-.364-.607-.5s-.518-.173-.709-.345-.26-.466-.422-.666-.439-.323-.57-.546a5.349,5.349,0,0,1-.2-.765c-.093-.239-.317-.44-.372-.695a5.314,5.314,0,0,1,.049-.786,5.066,5.066,0,0,1-.138-.776c.026-.261.225-.488.289-.734a5.4,5.4,0,0,1,.107-.782,2.115,2.115,0,0,1,.411-.489,1.03,1.03,0,0,0,.091-.118c.14-.217.173-.518.344-.709s.467-.26.667-.422.323-.439.546-.57a5.335,5.335,0,0,1,.763-.2c.24-.093.441-.317.695-.372a3.236,3.236,0,0,1,.721.051h.066a5.065,5.065,0,0,1,.776-.138c.261.026.488.225.733.289a5.4,5.4,0,0,1,.782.107c.238.1.391.364.608.5s.517.173.709.344.259.467.422.667.438.323.57.545a5.339,5.339,0,0,1,.2.764c.093.237.314.439.372.691,0,0,0,0,0,0a5.392,5.392,0,0,1-.051.787,4.986,4.986,0,0,1,.139.776c-.026.261-.225.488-.29.734A5.338,5.338,0,0,1,2116,1029.615Z" transform="translate(-2085.886 -1020.92)" fill="#2d334a"/>
        <path id="Trazado_50594" data-name="Trazado 50594" d="M2131,1016.713c-.112.254-.39.419-.539.651s-.185.555-.369.76-.5.278-.714.453-.346.471-.584.611a5.77,5.77,0,0,1-.819.211c-.256.1-.473.34-.744.4a5.711,5.711,0,0,1-.844-.053,5.42,5.42,0,0,1-.832.148,1.536,1.536,0,0,1-.516-.2,1.5,1.5,0,0,0-.27-.11,5.687,5.687,0,0,1-.837-.115c-.255-.112-.421-.391-.652-.538s-.554-.185-.76-.369-.278-.5-.453-.713-.469-.346-.609-.585a5.623,5.623,0,0,1-.211-.818c-.1-.256-.341-.473-.4-.744a2.244,2.244,0,0,1,.048-.671,1.076,1.076,0,0,0,.006-.173,5.389,5.389,0,0,1-.149-.831c.028-.279.242-.522.311-.785a5.745,5.745,0,0,1,.114-.838c.112-.254.391-.419.539-.651s.185-.555.368-.76.5-.278.713-.453a1.56,1.56,0,0,0,.228-.248,1.365,1.365,0,0,1,.357-.363,5.754,5.754,0,0,1,.819-.211c.255-.1.472-.34.744-.4a5.689,5.689,0,0,1,.843.053,5.4,5.4,0,0,1,.831-.148c.279.028.523.241.787.31a5.684,5.684,0,0,1,.837.115c.255.112.42.389.651.538a1.9,1.9,0,0,0,.373.165,1.2,1.2,0,0,1,.388.2c.205.184.277.5.451.714s.471.346.611.585a5.656,5.656,0,0,1,.211.818c.1.256.34.473.4.744a5.868,5.868,0,0,1-.054.844,5.392,5.392,0,0,1,.15.831c-.028.279-.242.523-.311.785A5.884,5.884,0,0,1,2131,1016.713Z" transform="translate(-2098.391 -1009.218)" fill="#2d334a"/>
        <path id="Trazado_50595" data-name="Trazado 50595" d="M2122.089,1052.808c-1.111,1.865-3.31,2.6-4.449,1.924s-.788-2.517.322-4.382,2.6-2.264,3.739-1.585S2123.2,1050.943,2122.089,1052.808Z" transform="translate(-2095.06 -1043.474)" fill="#af7d61"/>
        <path id="Trazado_50596" data-name="Trazado 50596" d="M2137.2,1079.838l-2.25-.366a36.256,36.256,0,0,0-.433,4.365c.061.348.615.541,1.238.432.56-.1.98-.408,1.016-.723h0A29.964,29.964,0,0,1,2137.2,1079.838Z" transform="translate(-2110.4 -1070.552)" fill="#af7d61"/>
        <path id="Trazado_50597" data-name="Trazado 50597" d="M2118.947,1046.722s1.63,1.81,5.115.117A3.47,3.47,0,0,0,2118.947,1046.722Z" transform="translate(-2096.814 -1041.004)" fill="#2d334a"/>
        <path id="Trazado_50598" data-name="Trazado 50598" d="M2143.053,1049.167a10.4,10.4,0,0,1,1.716,4.393c.143,1.516,2.735-2.867,2.735-2.867S2144.912,1047.233,2143.053,1049.167Z" transform="translate(-2117.859 -1043.582)" fill="#2d334a"/>
        <path id="Trazado_50599" data-name="Trazado 50599" d="M2150.666,1084.583c-.259.434-1.02.733-1.334.546s-.184-.586.075-1.02.755-.688,1.069-.5A.651.651,0,0,1,2150.666,1084.583Z" transform="translate(-2123.18 -1074.107)" fill="#af7d61"/>
        <path id="Trazado_50600" data-name="Trazado 50600" d="M2194.05,1293.586c-.667.86-2.085,2.8-1.93,3.534.175.827,2.194-1,2.963-3C2194.742,1293.951,2194.409,1293.778,2194.05,1293.586Z" transform="translate(-2160.685 -1257.479)" fill="#af7d61"/>
      </g>
    </g>
    <g id="Grupo_22885" data-name="Grupo 22885" transform="translate(439.743 321.779)">
      <path id="Trazado_50601" data-name="Trazado 50601" d="M2306.223,1033.931s3.287-2.073,3.4-3.046-3.243.646-4.3,2.743Z" transform="translate(-2300.401 -1028.535)" fill="#fff"/>
      <g id="Grupo_22877" data-name="Grupo 22877" transform="translate(0 4.145)">
        <path id="Trazado_50602" data-name="Trazado 50602" d="M2272.778,1048.468c-.459-.475-.921-.949-1.36-1.456-11.531,12.05.194,17.148,9.188,7.391,1.376-1.493.91-1.513-.295-2.316.087-.268.091-.266,0,0-1.205-.8-1.665-.378-2.484.684C2272.475,1059.716,2263.555,1058.526,2272.778,1048.468Z" transform="translate(-2266.618 -1047.012)" fill="#6f728a"/>
      </g>
      <g id="Grupo_22878" data-name="Grupo 22878" transform="translate(7.595 68.176)">
        <path id="Trazado_50603" data-name="Trazado 50603" d="M2328.271,1558.107a.754.754,0,0,0,.739-.9l-1.082-5.311a.754.754,0,1,0-1.477.3l1.082,5.312A.755.755,0,0,0,2328.271,1558.107Z" transform="translate(-2326.436 -1551.288)" fill="#fff"/>
      </g>
      <g id="Grupo_22879" data-name="Grupo 22879" transform="translate(4.336 27.045)">
        <path id="Trazado_50604" data-name="Trazado 50604" d="M2304.2,1272.219a19.69,19.69,0,0,0,2.4-.221c-2.388-12.768-4.2-29.905,2.191-41.839q-2.909-1.427-5.843-2.8C2298.283,1237.755,2302.258,1261.235,2304.2,1272.219Z" transform="translate(-2300.767 -1227.357)" fill="#454a5f"/>
      </g>
      <path id="Trazado_50605" data-name="Trazado 50605" d="M2298.632,1596.39s.466,1.938,0,1.992-7.183.258-7.223-.054c-.135-1.064,5.357-2.046,5.9-1.938S2298.571,1596.108,2298.632,1596.39Z" transform="translate(-2288.259 -1522.396)" fill="#f0b267"/>
      <g id="Grupo_22880" data-name="Grupo 22880" transform="translate(17.39 68.176)">
        <path id="Trazado_50606" data-name="Trazado 50606" d="M2405.4,1558.107a.755.755,0,0,0,.739-.9l-1.082-5.311a.754.754,0,1,0-1.477.3l1.082,5.312A.754.754,0,0,0,2405.4,1558.107Z" transform="translate(-2403.57 -1551.288)" fill="#fff"/>
      </g>
      <g id="Grupo_22881" data-name="Grupo 22881" transform="translate(7.904 29.08)">
        <path id="Trazado_50607" data-name="Trazado 50607" d="M2338.422,1285.936c.818.152,1.638.257,2.467.328-.879-13.758-5.855-30.453-5.65-42.874q-3.19.12-6.377.29C2329.229,1257.136,2338.516,1268.876,2338.422,1285.936Z" transform="translate(-2328.863 -1243.389)" fill="#454a5f"/>
      </g>
      <path id="Trazado_50608" data-name="Trazado 50608" d="M2375.766,1596.39s.467,1.938,0,1.992-7.183.258-7.223-.054c-.135-1.064,5.356-2.046,5.895-1.938S2375.705,1596.108,2375.766,1596.39Z" transform="translate(-2355.6 -1522.396)" fill="#f0b267"/>
      <g id="Grupo_22882" data-name="Grupo 22882" transform="translate(4.914 8.163)">
        <path id="Trazado_50609" data-name="Trazado 50609" d="M2305.315,1100.806a24.935,24.935,0,0,1,4.272-.135,15.432,15.432,0,0,1,5.163.922q.522-1.284.945-2.51c.1-.293.2-.586.293-.874q.229-.7.426-1.386c.087-.3.169-.6.247-.89.178-.666.334-1.316.471-1.959.064-.3.124-.609.181-.908.139-.744.254-1.471.345-2.187.039-.309.075-.613.105-.917a37.107,37.107,0,0,0,.135-5.711,20.6,20.6,0,0,0-.339-2.848,3.4,3.4,0,0,0-5.413-2.041l-.433.332a3.811,3.811,0,0,0-1.435,3.608c.24,1.608.073,3.944-1.016,7.559-.092.3-.188.6-.288.917-.144.442-.3.9-.471,1.382-.1.288-.21.581-.323.883-.2.533-.412,1.087-.645,1.663q-.172.429-.357.874c-.125.309-.26.627-.4.95-.122.281-.245.567-.373.86Q2305.9,1099.543,2305.315,1100.806Z" transform="translate(-2305.315 -1078.654)" fill="#6f728a"/>
      </g>
      <g id="Grupo_22883" data-name="Grupo 22883" transform="translate(4.401 19.222)">
        <rect id="Rectángulo_5228" data-name="Rectángulo 5228" width="12.224" height="18.308" transform="translate(0 6.529) rotate(-32.286)" fill="#adb1cc"/>
        <rect id="Rectángulo_5229" data-name="Rectángulo 5229" width="5.689" height="3.39" transform="translate(5.444 6.236) rotate(-32.286)" fill="#8987a8"/>
      </g>
      <path id="Trazado_50610" data-name="Trazado 50610" d="M2345.877,1022.706c-1.429,1.777-3.825,2.223-4.911,1.35s-.451-2.734.977-4.511,3.036-1.974,4.122-1.1S2347.306,1020.929,2345.877,1022.706Z" transform="translate(-2331.048 -1017.486)" fill="#fff"/>
      <path id="Trazado_50611" data-name="Trazado 50611" d="M2365.662,1049.839l-2.384-.233a38.108,38.108,0,0,0-.161,4.605c.087.361.682.526,1.327.37.58-.141,1-.494,1.017-.826h0A31.458,31.458,0,0,1,2365.662,1049.839Z" transform="translate(-2350.835 -1045.131)" fill="#fff"/>
      <path id="Trazado_50612" data-name="Trazado 50612" d="M2362.321,1018.958a3.68,3.68,0,0,0-.021-2.568c-.56-1.127-2.333-2.436-3.971-1.159a1.422,1.422,0,0,0,.253,2.213c1.333,1.2,1.606.249,1.822,1.464s1.229,1.124,1.248,1.383Z" transform="translate(-2346.324 -1014.663)" fill="#3b3e54"/>
      <path id="Trazado_50613" data-name="Trazado 50613" d="M2368.294,1247.2s-2.925,2.559-2.882,3.536,3.1-1.142,3.825-3.378Z" transform="translate(-2352.868 -1217.637)" fill="#fff"/>
      <g id="Grupo_22884" data-name="Grupo 22884" transform="translate(14.84 9.809)">
        <path id="Trazado_50614" data-name="Trazado 50614" d="M2383.633,1111.391c.362.515.771,1.047,1.051,1.521,9.042-6.479,10.039-13.347,1.725-20.642-1.539-1.35-2.327-.187-2.358-.139-.876,1.339-.728,1.764.49,2.756C2392.729,1101.55,2389.951,1104.894,2383.633,1111.391Z" transform="translate(-2383.493 -1091.62)" fill="#6f728a"/>
      </g>
      <path id="Trazado_50615" data-name="Trazado 50615" d="M2371.783,1014.413s1.348,4.516,2.054,5.426c0,0,.6-.151,1.19-1.764,0,0,1.185-.219,1.314-.992S2373.879,1014.015,2371.783,1014.413Z" transform="translate(-2358.43 -1014.367)" fill="#f0b267"/>
      <path id="Trazado_50616" data-name="Trazado 50616" d="M2377.112,1053.57a1.33,1.33,0,0,1-1.469.372c-.3-.241-.1-.636.228-1.05s.886-.606,1.186-.365A.684.684,0,0,1,2377.112,1053.57Z" transform="translate(-2361.671 -1047.59)" fill="#fff"/>
      <path id="Trazado_50617" data-name="Trazado 50617" d="M2340.884,1043.487s-.36-.368-.969.075a1.853,1.853,0,0,1-1.908.425c-.644-.309-.729-.5-1.248-.755s-.156-1.778-.032-2.044c.3-.649-.174-.223-.449.167s-1.173,1.5-.319,2.544,1.234,1.261,2.111,1.166A2.917,2.917,0,0,0,2340.884,1043.487Z" transform="translate(-2326.84 -1037.489)" fill="#3b3e54"/>
    </g>
    <g id="Grupo_22896" data-name="Grupo 22896" transform="translate(320.347 319.889)">
      <g id="Grupo_22895" data-name="Grupo 22895">
        <g id="Grupo_22894" data-name="Grupo 22894">
          <path id="Trazado_50618" data-name="Trazado 50618" d="M1245.265,1016.214a5.852,5.852,0,0,1-3.166-3.717c-.6-2.614,1.924-4.387,4.142-4.088s2.4,2.091,2.234,2.5S1245.265,1016.214,1245.265,1016.214Z" transform="translate(-1230.567 -1007.121)" fill="#2d334a"/>
          <path id="Trazado_50619" data-name="Trazado 50619" d="M1280.115,1014.528s1.773.544,1.439,1.666-2.045-.648-2.045-.648S1279.313,1014.146,1280.115,1014.528Z" transform="translate(-1263.286 -1012.434)" fill="#2d334a"/>
          <g id="Grupo_22886" data-name="Grupo 22886" transform="translate(25.985 69.904)">
            <path id="Trazado_50620" data-name="Trazado 50620" d="M1358.945,1555.713a.755.755,0,0,1-1.059-.5l-1.324-5.262a.754.754,0,1,1,1.463-.368l1.324,5.262A.755.755,0,0,1,1358.945,1555.713Z" transform="translate(-1356.54 -1549.016)" fill="#d1a58c"/>
          </g>
          <g id="Grupo_22887" data-name="Grupo 22887" transform="translate(14.791 29.078)">
            <path id="Trazado_50621" data-name="Trazado 50621" d="M1282.445,1271.455a23.721,23.721,0,0,1-2.161,1.136c-4.8-14.3-7.182-29.661-11.9-43.206q3.068-.995,6.171-1.89C1278.561,1242.013,1276.579,1254.955,1282.445,1271.455Z" transform="translate(-1268.381 -1227.495)" fill="#383e56"/>
          </g>
          <path id="Trazado_50622" data-name="Trazado 50622" d="M1362.955,1596.372s-.467,1.94,0,1.994,7.191.258,7.23-.054c.135-1.065-5.362-2.048-5.9-1.94S1363.016,1596.09,1362.955,1596.372Z" transform="translate(-1335.974 -1520.364)" fill="#383e56"/>
          <g id="Grupo_22888" data-name="Grupo 22888" transform="translate(5.395 69.904)">
            <path id="Trazado_50623" data-name="Trazado 50623" d="M1194.811,1555.713a.764.764,0,0,0,.143.052.754.754,0,0,0,.916-.548l1.324-5.262a.754.754,0,1,0-1.463-.368l-1.324,5.262A.755.755,0,0,0,1194.811,1555.713Z" transform="translate(-1194.384 -1549.016)" fill="#d1a58c"/>
          </g>
          <g id="Grupo_22889" data-name="Grupo 22889" transform="translate(5.359 29.078)">
            <path id="Trazado_50624" data-name="Trazado 50624" d="M1194.095,1271.455a23.657,23.657,0,0,0,2.161,1.136c4.8-14.3,7.182-29.661,11.9-43.206q-3.068-.995-6.171-1.89C1197.979,1242.013,1199.961,1254.955,1194.095,1271.455Z" transform="translate(-1194.095 -1227.495)" fill="#383e56"/>
          </g>
          <path id="Trazado_50625" data-name="Trazado 50625" d="M1159.126,1596.372s.467,1.94,0,1.994-7.19.258-7.23-.054c-.135-1.065,5.362-2.048,5.9-1.94S1159.065,1596.09,1159.126,1596.372Z" transform="translate(-1151.894 -1520.364)" fill="#383e56"/>
          <g id="Grupo_22890" data-name="Grupo 22890" transform="translate(11.532 9.753)">
            <path id="Trazado_50626" data-name="Trazado 50626" d="M1250.4,1101.184a11.834,11.834,0,0,0,3.354-.2c-1.014-5.582-2.76-15.569-3.043-20.94-.112-2.151-.818-3.292-1.58-3.878a3.012,3.012,0,0,0-.559-.335,3.759,3.759,0,0,0-3.559-.156,3.679,3.679,0,0,0-1.74,2.474,8.1,8.1,0,0,0-.072,2.8,125.947,125.947,0,0,1-.489,20.915c1.844-.112,4.834-1.177,6.7-.8.144.032.3.056.467.076" transform="translate(-1242.711 -1075.296)" fill="#828392"/>
          </g>
          <path id="Trazado_50627" data-name="Trazado 50627" d="M1257.506,1018.778c1.245,1.913,3.587,2.6,4.756,1.837s.723-2.678-.521-4.591-2.826-2.271-3.995-1.51S1256.262,1016.865,1257.506,1018.778Z" transform="translate(-1243.4 -1012.154)" fill="#d1a58c"/>
          <path id="Trazado_50628" data-name="Trazado 50628" d="M1265.17,1046.56l2.386-.233a38.118,38.118,0,0,1,.161,4.61c-.088.361-.683.527-1.329.37-.581-.141-1-.494-1.018-.827h0A31.6,31.6,0,0,0,1265.17,1046.56Z" transform="translate(-1250.787 -1040.253)" fill="#d1a58c"/>
          <path id="Trazado_50629" data-name="Trazado 50629" d="M1271.275,1044.82c.352-.381.683-.038,1.529.437s2.36.353,2.465-1.628c.045-.838.373-.21.589.307a5.514,5.514,0,0,1,.817,2.2,1.391,1.391,0,0,1-.806,1.507c-1.207.648-2.759-.122-3.665-.767a2.227,2.227,0,0,1-1.058-1.676A.6.6,0,0,1,1271.275,1044.82Z" transform="translate(-1256.003 -1037.54)" fill="#2d334a"/>
          <path id="Trazado_50630" data-name="Trazado 50630" d="M1286.221,1045.852l-.081.043c-.417.226-2.307,1.287-2.5,2.069-.216.879,1.017-.34,1.389-.9s.824-.488,1.229-.606S1286.849,1045.829,1286.221,1045.852Z" transform="translate(-1266.891 -1039.838)" fill="#2d334a"/>
          <path id="Trazado_50631" data-name="Trazado 50631" d="M1253.772,1015.046a3.684,3.684,0,0,1,.278-2.555c.671-1.066,2.568-2.192,4.071-.756a1.424,1.424,0,0,1-.474,2.179c-1.448,1.061-1.625.087-1.961,1.276s-1.337,1-1.382,1.252Z" transform="translate(-1240.736 -1009.46)" fill="#2d334a"/>
          <path id="Trazado_50632" data-name="Trazado 50632" d="M1257.387,1051.586c.29.445,1.1.727,1.425.518s.168-.623-.121-1.069-.822-.692-1.145-.482A.685.685,0,0,0,1257.387,1051.586Z" transform="translate(-1243.85 -1043.875)" fill="#d1a58c"/>
          <path id="Trazado_50633" data-name="Trazado 50633" d="M1323.75,1244.094s-2.111,3.5-3.131,3.631.613-3.421,2.794-4.579Z" transform="translate(-1298.923 -1212.081)" fill="#d1a58c"/>
          <g id="Grupo_22891" data-name="Grupo 22891" transform="translate(15.297 11.125)">
            <path id="Trazado_50634" data-name="Trazado 50634" d="M1282.234,1107.534c-.57-.359-1.185-.706-1.8-1.079,5.942-8.581,6.9-16.037-6.205-17.093-2-.161-2.171-.618-1.53-2.1-.291-.194-.294-.189,0,0,.641-1.48,1.172-1.308,3.086-.793C1288.3,1089.833,1289.99,1097.679,1282.234,1107.534Z" transform="translate(-1272.369 -1086.101)" fill="#828392"/>
          </g>
          <path id="Trazado_50635" data-name="Trazado 50635" d="M1240.719,1001.364s-.8,0-.662-1.265.857-1.694,1.4-1.6a1.334,1.334,0,0,1,1.207,1.683C1242.432,1001.4,1240.719,1001.364,1240.719,1001.364Z" transform="translate(-1228.849 -998.489)" fill="#2d334a"/>
          <g id="Grupo_22892" data-name="Grupo 22892" transform="translate(2.583 31.079)">
            <rect id="Rectángulo_5230" data-name="Rectángulo 5230" width="12.224" height="18.308" transform="translate(15.409 17.99) rotate(169.305)" fill="#adb1cc"/>
            <rect id="Rectángulo_5231" data-name="Rectángulo 5231" width="5.689" height="3.39" transform="translate(10.239 16.26) rotate(169.305)" fill="#8987a8"/>
          </g>
          <path id="Trazado_50636" data-name="Trazado 50636" d="M1214.717,1252.416s2.528,3.209,3.557,3.215-1.032-3.319-3.339-4.2Z" transform="translate(-1206.74 -1219.316)" fill="#d1a58c"/>
          <g id="Grupo_22893" data-name="Grupo 22893" transform="translate(1.672 11.383)">
            <path id="Trazado_50637" data-name="Trazado 50637" d="M1171.1,1110.435c.521-.427,1.088-.847,1.648-1.293-6.958-7.779-8.833-15.06,4.042-17.73,1.969-.408,2.077-.882,1.259-2.272.265-.228.268-.224,0,0-.819-1.39-1.325-1.152-3.161-.405C1162.886,1093.621,1162.182,1101.616,1171.1,1110.435Z" transform="translate(-1165.058 -1088.136)" fill="#828392"/>
          </g>
        </g>
      </g>
    </g>
    <g id="Grupo_22908" data-name="Grupo 22908" transform="translate(341.689 310.743)">
      <path id="Trazado_50638" data-name="Trazado 50638" d="M1569.582,926.232a1.476,1.476,0,0,1-.485-1.219c.1-1.18.351-3.4.94-3.827.811-.59,1.069,3.215-.259,5.221Z" transform="translate(-1541.29 -921.124)" fill="#af7d61"/>
      <g id="Grupo_22897" data-name="Grupo 22897" transform="translate(12.462 4.254)">
        <path id="Trazado_50639" data-name="Trazado 50639" d="M1463.073,954.627c.691.2,1.318.36,2.062.6-1.969,8.366-6.823,16.7-15.544,19.653-1.968.667-1.641-2.352.472-3.272C1457.308,968.459,1461.054,962.114,1463.073,954.627Z" transform="translate(-1448.282 -954.627)" fill="#fff"/>
      </g>
      <g id="Grupo_22898" data-name="Grupo 22898" transform="translate(11.879 79.867)">
        <path id="Trazado_50640" data-name="Trazado 50640" d="M1444.515,1557.158a.773.773,0,0,1-.813-.877l.769-5.5a.772.772,0,0,1,1.529.214l-.769,5.5A.773.773,0,0,1,1444.515,1557.158Z" transform="translate(-1443.695 -1550.116)" fill="#af7d61"/>
      </g>
      <path id="Trazado_50641" data-name="Trazado 50641" d="M1440.465,1597.474a1.838,1.838,0,0,1-1.119.33,2.02,2.02,0,0,1-1.016-.224.144.144,0,0,0-.215.1c-.1.532-.3,1.758.078,1.8.479.049,7.362.164,7.4-.156C1445.687,1598.459,1442.217,1597.7,1440.465,1597.474Z" transform="translate(-1426.82 -1511.594)" fill="#515770"/>
      <g id="Grupo_22900" data-name="Grupo 22900" transform="translate(10.39 39.8)">
        <g id="Grupo_22899" data-name="Grupo 22899">
          <path id="Trazado_50642" data-name="Trazado 50642" d="M1436.747,1234.573l3.385,21.909.214,1.349.011.071c.008.047.014.094.02.142.013.109.012.154.015.219l0,.093v.074l0,.142-.017.239-.022.214c-.032.276-.072.523-.113.769-.167.974-.366,1.884-.569,2.8-.409,1.826-.849,3.627-1.291,5.426l-1.334,5.382c-.221.9-.44,1.79-.651,2.681-.105.446-.208.891-.3,1.331-.048.22-.095.439-.136.652l-.057.308-.034.223-2.318-.07.006-.141.008-.116c.006-.078.013-.139.02-.209.015-.13.03-.254.047-.377.033-.243.069-.478.106-.713.075-.467.153-.928.234-1.387q.242-1.377.5-2.74l1.02-5.449c.335-1.812.667-3.625.963-5.426.145-.9.287-1.8.382-2.657.023-.211.043-.422.053-.606l.006-.131v-.107l0-.031a.089.089,0,0,0,0-.013.018.018,0,0,0,0,.006.217.217,0,0,0,0,.046c0,.019,0,.037.008.056l0,.014v-.007l0-.022-.3-1.374-4.627-21.695Z" transform="translate(-1431.962 -1234.573)" fill="#383e56"/>
        </g>
      </g>
      <g id="Grupo_22901" data-name="Grupo 22901" transform="translate(20.749 79.867)">
        <path id="Trazado_50643" data-name="Trazado 50643" d="M1514.371,1557.158a.773.773,0,0,1-.813-.877l.769-5.5a.772.772,0,1,1,1.529.214l-.769,5.5A.773.773,0,0,1,1514.371,1557.158Z" transform="translate(-1513.55 -1550.116)" fill="#af7d61"/>
      </g>
      <path id="Trazado_50644" data-name="Trazado 50644" d="M1510.32,1597.474a1.839,1.839,0,0,1-1.119.33,2.02,2.02,0,0,1-1.016-.224.144.144,0,0,0-.215.1c-.1.532-.3,1.758.078,1.8.479.049,7.362.164,7.4-.156C1515.542,1598.459,1512.072,1597.7,1510.32,1597.474Z" transform="translate(-1487.805 -1511.594)" fill="#515770"/>
      <g id="Grupo_22903" data-name="Grupo 22903" transform="translate(14.245 38.813)">
        <g id="Grupo_22902" data-name="Grupo 22902">
          <path id="Trazado_50645" data-name="Trazado 50645" d="M1466.861,1226.8q1.934,5.424,3.84,10.85l1.895,5.438c.626,1.817,1.25,3.631,1.854,5.477l.225.7.111.354.111.366.056.193.056.2.014.05.018.069.035.147.033.149c.015.089.029.19.035.271l.009.182c0,.058,0,.1,0,.147,0,.1-.006.17-.01.254l-.017.223-.02.208c-.059.538-.135,1.027-.215,1.517s-.166.969-.254,1.447c-.354,1.91-.743,3.792-1.135,5.673l-1.19,5.627-.584,2.8c-.095.466-.188.932-.276,1.394-.044.23-.086.461-.125.685l-.053.328-.021.148-.013.108-2.318-.069,0-.136.007-.114.017-.209.04-.384c.028-.25.059-.493.091-.735.063-.484.131-.963.2-1.44l.425-2.853.864-5.68c.282-1.89.56-3.781.8-5.656.059-.468.115-.935.163-1.4s.092-.921.113-1.337l.006-.15,0-.136c0-.035,0-.085,0-.1s0-.031,0-.032,0,0,0,0a.508.508,0,0,0,.011.093.209.209,0,0,1-.011-.025l-.01-.027-.018-.053-.049-.143-.052-.149-.115-.316-.122-.325-.25-.657c-.683-1.762-1.4-3.537-2.12-5.307l-2.176-5.31q-2.188-5.307-4.405-10.605Z" transform="translate(-1462.325 -1226.799)" fill="#383e56"/>
        </g>
      </g>
      <g id="Grupo_22904" data-name="Grupo 22904" transform="translate(8.273 18.81)">
        <path id="Trazado_50646" data-name="Trazado 50646" d="M1416.78,1090.936c-.141-.487-.278-.976-.4-1.456-.082-.317-.155-.634-.22-.938-.149-.693-.27-1.389-.392-2.072-.057-.323-.095-.636-.136-.942-.1-.757-.185-1.506-.251-2.253-.029-.323-.068-.628-.072-.94a58.973,58.973,0,0,1,.176-6.206,22.055,22.055,0,0,1,.356-3.375c.821-3.148,2.124-4.237,5.28-2.988a1.136,1.136,0,0,1,.469.353,6.222,6.222,0,0,1,1.642,4.8,34.1,34.1,0,0,0,.443,7.979c.034.157.093.414.151.611.082.281.161.576.256.891.133.441.279.91.44,1.374.1.28.2.586.322.891a17.945,17.945,0,0,0,.735,1.64c.075.147.174.325.253.461s.147.251.224.375c.182.294.385.6.565.88s.352.533.531.81c.078.121.155.24.23.365a7.2,7.2,0,0,1-1.606.569c-1.489.286-3.1.275-4.561.615a23.655,23.655,0,0,0-3.56,1.427c-.189-.646-.4-1.31-.6-1.953C1416.963,1091.542,1416.867,1091.236,1416.78,1090.936Z" transform="translate(-1415.296 -1069.26)" fill="#fff"/>
      </g>
      <path id="Trazado_50647" data-name="Trazado 50647" d="M1447.807,1011.151s1.825.1,1.768,1.257-2.109-.14-2.109-.14S1446.949,1010.973,1447.807,1011.151Z" transform="translate(-1434.973 -999.705)" fill="#2d334a"/>
      <path id="Trazado_50648" data-name="Trazado 50648" d="M1429.577,1017.127c1.64,1.539,4.042,1.645,4.983.642s.064-2.733-1.576-4.272-3.237-1.51-4.178-.508S1427.937,1015.587,1429.577,1017.127Z" transform="translate(-1418.286 -1000.707)" fill="#af7d61"/>
      <path id="Trazado_50649" data-name="Trazado 50649" d="M1437.79,1042.249l2.339-.334a37.526,37.526,0,0,1,.361,4.531c-.07.359-.649.549-1.292.423-.578-.113-1.008-.443-1.038-.769h0A31.15,31.15,0,0,0,1437.79,1042.249Z" transform="translate(-1426.661 -1026.578)" fill="#af7d61"/>
      <path id="Trazado_50650" data-name="Trazado 50650" d="M1448.711,1036.023c.247-.447.645-.2,1.566.06s2.341-.216,1.977-2.137c-.154-.813.308-.288.636.156a2.55,2.55,0,0,1,.49,1.1,1.715,1.715,0,0,1-.491,1.55,3.393,3.393,0,0,1-2.913.819,1.484,1.484,0,0,1-1.3-1.152A.593.593,0,0,1,1448.711,1036.023Z" transform="translate(-1436.151 -1019.25)" fill="#2d334a"/>
      <path id="Trazado_50651" data-name="Trazado 50651" d="M1425.985,1013.476a3.631,3.631,0,0,1-.333-2.511c.392-1.178,1.944-2.7,3.719-1.679a1.4,1.4,0,0,1,.057,2.2c-1.137,1.355-1.535.464-1.578,1.681s-1.046,1.267-1.029,1.522Z" transform="translate(-1415.962 -997.798)" fill="#2d334a"/>
      <path id="Trazado_50652" data-name="Trazado 50652" d="M1433.57,1049.952a1.311,1.311,0,0,0,1.485.161c.259-.276.015-.636-.367-.994s-.949-.469-1.209-.193A.675.675,0,0,0,1433.57,1049.952Z" transform="translate(-1422.727 -1032.563)" fill="#af7d61"/>
      <g id="Grupo_22905" data-name="Grupo 22905" transform="translate(12.537 20.948)">
        <path id="Trazado_50653" data-name="Trazado 50653" d="M1449.495,1086.193c.651,4.85-1.935,9.3.317,13.791.793.388,1.588.772,2.38,1.16.276-.857.533-1.718.789-2.581-2.922-3.972-1.342-7.968-2.466-12.462C1450.175,1086.126,1449.835,1086.161,1449.495,1086.193Z" transform="translate(-1448.872 -1086.101)" fill="#383e56"/>
      </g>
      <g id="Grupo_22906" data-name="Grupo 22906" transform="translate(0 40.108)">
        <rect id="Rectángulo_5232" data-name="Rectángulo 5232" width="12.224" height="18.308" transform="matrix(0.893, 0.449, -0.449, 0.893, 8.227, 0)" fill="#f6d2a6"/>
        <rect id="Rectángulo_5233" data-name="Rectángulo 5233" width="5.689" height="3.39" transform="translate(11.283 4.514) rotate(26.702)" fill="#f0b56c"/>
      </g>
      <path id="Trazado_50654" data-name="Trazado 50654" d="M1388.919,1246.683a1.475,1.475,0,0,1,.96.894c.418,1.107,1.136,3.222.787,3.862-.481.88-2.341-2.449-2-4.831Z" transform="translate(-1383.739 -1205.279)" fill="#af7d61"/>
      <g id="Grupo_22907" data-name="Grupo 22907" transform="translate(1.014 19.929)">
        <path id="Trazado_50655" data-name="Trazado 50655" d="M1363.4,1100.026c-.706.229-1.271.6-1.981.883-4.1-9.258-6.357-18.562,5.479-22.668,2.671-.927,2.214,2.3-.467,3.087C1357.242,1084.011,1361.011,1093.361,1363.4,1100.026Z" transform="translate(-1358.123 -1078.075)" fill="#fff"/>
      </g>
    </g>
    <g id="Grupo_22915" data-name="Grupo 22915" transform="translate(302.481 325.169)">
      <g id="Grupo_22914" data-name="Grupo 22914" transform="translate(0)">
        <path id="Trazado_50656" data-name="Trazado 50656" d="M1115.757,1167.269s4.152,26.28,6.662,29.715c0,0-3.039,2.8-5.861,2.011-4.654-1.3-3.731-18.856-2.5-27.407A8.635,8.635,0,0,1,1115.757,1167.269Z" transform="translate(-1096.745 -1151.461)" fill="#454a5f"/>
        <path id="Trazado_50657" data-name="Trazado 50657" d="M1245.268,1152.84s2.493-2.528,3.383-2.435-1.211,2.768-3.29,3.3Z" transform="translate(-1212.165 -1136.736)" fill="#fff"/>
        <g id="Grupo_22909" data-name="Grupo 22909" transform="translate(14.719 11.63)">
          <path id="Trazado_50658" data-name="Trazado 50658" d="M1119.093,1138.326c.383.463.758.907,1.117,1.364-8.714,6.234-12.55,4.785-19.119-3.129-1-1.21-.717-1.529.494-1.978-.062-.281-.063-.281,0,0,1.21-.449,1.389-.1,2.218.94C1109.222,1142.356,1111.591,1142.755,1119.093,1138.326Z" transform="translate(-1100.482 -1134.371)" fill="#454a5f"/>
        </g>
        <g id="Grupo_22910" data-name="Grupo 22910" transform="translate(4.23 11.41)">
          <path id="Trazado_50659" data-name="Trazado 50659" d="M1021.326,1154.5c-.616.332-1.122.6-1.689.861-2.981-11.937-3.128-15.2,7.126-22.479,1.568-1.114,2.579,1.727.134,2.917C1018.314,1139.983,1019.531,1146.355,1021.326,1154.5Z" transform="translate(-1017.872 -1132.632)" fill="#454a5f"/>
        </g>
        <g id="Grupo_22911" data-name="Grupo 22911" transform="translate(12.927 28.349)">
          <path id="Trazado_50660" data-name="Trazado 50660" d="M1092.933,1306.759c-.692.311-.733.877-1.457,1.1-2.175-12.761-2.146-29.091-5.111-40.625,1.916-.414,3.836-.805,5.757-1.2C1094.422,1279.495,1090.054,1291.529,1092.933,1306.759Z" transform="translate(-1086.365 -1266.038)" fill="#fff"/>
        </g>
        <path id="Trazado_50661" data-name="Trazado 50661" d="M1092.122,1266.038c-1.92.393-3.841.785-5.757,1.2,2.751,10.706,2.729,25.511,4.479,37.791l1.825.216C1090.339,1290.724,1094.345,1279.045,1092.122,1266.038Z" transform="translate(-1073.438 -1237.689)" fill="#2d334a"/>
        <g id="Grupo_22912" data-name="Grupo 22912" transform="translate(10.251 28.548)">
          <path id="Trazado_50662" data-name="Trazado 50662" d="M1069.289,1308.3c-.71.266-.788.828-1.525,1.006-1.345-12.875-.259-29.168-2.471-40.871,1.939-.289,3.881-.555,5.822-.823C1072.539,1281.185,1067.4,1292.912,1069.289,1308.3Z" transform="translate(-1065.293 -1267.608)" fill="#fff"/>
        </g>
        <path id="Trazado_50663" data-name="Trazado 50663" d="M1071.115,1267.607c-1.942.268-3.883.534-5.822.823,2.053,10.862,1.072,25.634,2.024,38l1.807.334C1067.738,1292.126,1072.492,1280.731,1071.115,1267.607Z" transform="translate(-1055.042 -1239.059)" fill="#2d334a"/>
        <path id="Trazado_50664" data-name="Trazado 50664" d="M1007.647,1165.513q.255-.825.5-1.678a206.546,206.546,0,0,0,4.576-20.93c1.118-6.581.784-9.478,1.849-12.676.447-1.341.526-2.133,1.608-2.8a4.542,4.542,0,0,1,.411-.224,2.741,2.741,0,0,1,.62-.218c2.126-.451,3.4,2.385,3.754,4.314.068.376.139.665.2.9v0c.287,1.1.408,1.167-.554,3.911-.416,1.187.514,8.122.931,10.461.135.758.224,2.1.523,3.482,1.788,8.271,2.937,17.107,3.89,25.635.033.3.067.6.1.894a8.741,8.741,0,0,1-2.588-.346c-2-.569-3.839-1.53-5.89-1.938a10.612,10.612,0,0,0-4.1.072,20.156,20.156,0,0,1-2.481.585,5.455,5.455,0,0,1-3.541-.762c-.753-.484-1.883-.551-2.567-1.543A46.282,46.282,0,0,0,1007.647,1165.513Z" transform="translate(-1002.313 -1116.253)" fill="#f4c68e"/>
        <path id="Trazado_50665" data-name="Trazado 50665" d="M1035.583,1168.439a11.343,11.343,0,0,1-5.061-1.236,206.574,206.574,0,0,0,4.576-20.93c1.118-6.582.784-9.478,1.849-12.677.447-1.341.526-2.133,1.608-2.8-.05,2.111.689,6.691.872,15.2C1039.658,1156.7,1035.583,1168.439,1035.583,1168.439Z" transform="translate(-1024.686 -1119.62)" fill="#454a5f"/>
        <g id="Grupo_22913" data-name="Grupo 22913" transform="translate(0 32.468)">
          <rect id="Rectángulo_5234" data-name="Rectángulo 5234" width="15.759" height="23.602" transform="matrix(0.916, -0.402, 0.402, 0.916, 0, 6.333)" fill="#fff"/>
          <rect id="Rectángulo_5235" data-name="Rectángulo 5235" width="11.062" height="0.593" transform="matrix(0.916, -0.402, 0.402, 0.916, 3.583, 8.505)" fill="#999"/>
          <rect id="Rectángulo_5236" data-name="Rectángulo 5236" width="11.062" height="0.593" transform="matrix(0.916, -0.402, 0.402, 0.916, 4.485, 10.561)" fill="#999"/>
          <rect id="Rectángulo_5237" data-name="Rectángulo 5237" width="11.062" height="0.593" transform="matrix(0.916, -0.402, 0.402, 0.916, 5.388, 12.617)" fill="#999"/>
          <rect id="Rectángulo_5238" data-name="Rectángulo 5238" width="11.062" height="0.593" transform="matrix(0.916, -0.402, 0.402, 0.916, 6.29, 14.674)" fill="#999"/>
          <rect id="Rectángulo_5239" data-name="Rectángulo 5239" width="11.062" height="0.593" transform="matrix(0.916, -0.402, 0.402, 0.916, 7.193, 16.73)" fill="#999"/>
          <rect id="Rectángulo_5240" data-name="Rectángulo 5240" width="11.062" height="0.593" transform="translate(8.095 18.786) rotate(-23.697)" fill="#999"/>
          <rect id="Rectángulo_5241" data-name="Rectángulo 5241" width="11.062" height="0.593" transform="matrix(0.916, -0.402, 0.402, 0.916, 8.998, 20.842)" fill="#999"/>
        </g>
        <path id="Trazado_50666" data-name="Trazado 50666" d="M1123.769,1581.164a5.357,5.357,0,0,0,2.742,3.48s1.021.672-.456.458-3.578-1.322-4.064-2.252c0,0-.835,1.4-.851.9s-.07-2.764-.07-2.764Z" transform="translate(-1103.736 -1512.651)" fill="#383e56"/>
        <path id="Trazado_50667" data-name="Trazado 50667" d="M1081.432,1581.164a5.358,5.358,0,0,0,2.742,3.48s1.021.672-.456.458-3.578-1.322-4.064-2.252c0,0-.835,1.4-.85.9s-.07-2.764-.07-2.764Z" transform="translate(-1066.775 -1512.651)" fill="#383e56"/>
        <path id="Trazado_50668" data-name="Trazado 50668" d="M1105.866,1132.206v0s-2.01-4.057-3.3-4.779a4.164,4.164,0,0,1-.657-.442c2.126-.451,3.4,2.385,3.754,4.314C1105.733,1131.678,1105.8,1131.966,1105.866,1132.206Z" transform="translate(-1087.01 -1116.253)" fill="#454a5f"/>
        <path id="Trazado_50669" data-name="Trazado 50669" d="M1035.438,1306.4c.64.826,2,2.687,1.852,3.393-.168.794-2.106-.956-2.844-2.884C1034.774,1306.75,1035.093,1306.584,1035.438,1306.4Z" transform="translate(-1028.112 -1272.926)" fill="#fff"/>
        <path id="Trazado_50670" data-name="Trazado 50670" d="M1064.513,1068.817s-.6,2.415-3.522,1.659-3.224-3.778-2.847-5.139a3.654,3.654,0,0,1,5.427-1.959C1066.344,1065.073,1064.513,1068.817,1064.513,1068.817Z" transform="translate(-1048.687 -1060.238)" fill="#2d334a"/>
        <path id="Trazado_50671" data-name="Trazado 50671" d="M1083.523,1075.733c1.32,1.681,3.56,2.125,4.588,1.318s.452-2.557-.867-4.238-2.824-1.883-3.851-1.076S1082.2,1074.052,1083.523,1075.733Z" transform="translate(-1070.132 -1067.66)" fill="#fff"/>
        <path id="Trazado_50672" data-name="Trazado 50672" d="M1092.433,1100l2.215-.361a35.738,35.738,0,0,1,.426,4.3c-.06.343-.606.533-1.219.425-.551-.1-.966-.4-1-.711h0A29.545,29.545,0,0,0,1092.433,1100Z" transform="translate(-1078.736 -1092.422)" fill="#fff"/>
        <path id="Trazado_50673" data-name="Trazado 50673" d="M1032.574,1053.924a2.619,2.619,0,0,0-1.948-2.828c-2.267-.738-4.866.1-4.585,2.472s2.6,5.185,5.269,4.307S1032.574,1053.924,1032.574,1053.924Z" transform="translate(-1020.755 -1049.812)" fill="#2d334a"/>
        <path id="Trazado_50674" data-name="Trazado 50674" d="M1005.915,1045.115a1.984,1.984,0,0,0-1.476-2.142c-1.717-.559-3.686.074-3.473,1.873s1.969,3.927,3.991,3.262S1005.915,1045.115,1005.915,1045.115Z" transform="translate(-998.87 -1042.776)" fill="#2d334a"/>
        <path id="Trazado_50675" data-name="Trazado 50675" d="M1072.835,1070.559a3.965,3.965,0,0,0-1.506,4.709c.5,1.475-3.733-2.481-3.733-2.481S1070.3,1068.889,1072.835,1070.559Z" transform="translate(-1057.052 -1066.668)" fill="#2d334a"/>
        <path id="Trazado_50676" data-name="Trazado 50676" d="M1086.306,1108.216a1.245,1.245,0,0,0,1.372.365c.283-.222.105-.6-.2-.987s-.824-.577-1.108-.355A.641.641,0,0,0,1086.306,1108.216Z" transform="translate(-1073.218 -1098.971)" fill="#fff"/>
      </g>
    </g>
    <g id="Grupo_22924" data-name="Grupo 22924" transform="translate(360.701 319.766)">
      <path id="Trazado_50677" data-name="Trazado 50677" d="M1642.855,1044.26s.477,1.863,1.222,1.722.537-1.52.174-1.722A3.142,3.142,0,0,0,1642.855,1044.26Z" transform="translate(-1629.332 -1038.238)" fill="#2d334a"/>
      <g id="Grupo_22916" data-name="Grupo 22916" transform="translate(24.131 69.958)">
        <path id="Trazado_50678" data-name="Trazado 50678" d="M1729.073,1555.395a.782.782,0,0,1-.149.058.793.793,0,0,1-.976-.552l-1.522-5.5a.793.793,0,1,1,1.528-.423l1.522,5.5A.793.793,0,0,1,1729.073,1555.395Z" transform="translate(-1726.398 -1548.399)" fill="#fff"/>
      </g>
      <g id="Grupo_22917" data-name="Grupo 22917" transform="translate(13.24 26.893)">
        <path id="Trazado_50679" data-name="Trazado 50679" d="M1654.275,1255.842a24.575,24.575,0,0,1-2.291,1.185c-3.857-13.2-6.228-34.15-11.354-45.465,2.108-.8,4.228-1.556,6.349-2.315C1651.581,1222.168,1649.279,1239.938,1654.275,1255.842Z" transform="translate(-1640.629 -1209.246)" fill="#383e56"/>
      </g>
      <path id="Trazado_50680" data-name="Trazado 50680" d="M1732.955,1595.487s-.491,2.039,0,2.1,7.558.271,7.6-.057c.142-1.119-5.636-2.152-6.2-2.039S1733.019,1595.191,1732.955,1595.487Z" transform="translate(-1707.801 -1519.455)" fill="#515770"/>
      <g id="Grupo_22918" data-name="Grupo 22918" transform="translate(5.517 69.958)">
        <path id="Trazado_50681" data-name="Trazado 50681" d="M1580.234,1555.395a.783.783,0,0,0,.149.058.793.793,0,0,0,.976-.552l1.522-5.5a.793.793,0,1,0-1.528-.423l-1.522,5.5A.793.793,0,0,0,1580.234,1555.395Z" transform="translate(-1579.802 -1548.399)" fill="#fff"/>
      </g>
      <g id="Grupo_22919" data-name="Grupo 22919" transform="translate(5.87 26.893)">
        <path id="Trazado_50682" data-name="Trazado 50682" d="M1582.581,1255.842a24.6,24.6,0,0,0,2.292,1.185c3.857-13.2,6.228-34.15,11.354-45.465-2.108-.8-4.228-1.556-6.349-2.315C1585.275,1222.168,1587.577,1239.938,1582.581,1255.842Z" transform="translate(-1582.581 -1209.246)" fill="#383e56"/>
      </g>
      <path id="Trazado_50683" data-name="Trazado 50683" d="M1543.957,1595.487s.491,2.039,0,2.1-7.558.271-7.6-.057c-.142-1.119,5.636-2.152,6.2-2.039S1543.892,1595.191,1543.957,1595.487Z" transform="translate(-1536.355 -1519.455)" fill="#515770"/>
      <g id="Grupo_22920" data-name="Grupo 22920" transform="translate(10.936 8.261)">
        <path id="Trazado_50684" data-name="Trazado 50684" d="M1622.62,1073.828c-.019.29-.023.63-.04.948-.039.736-.058,1.5-.065,2.255,0,.3-.006.623,0,.943.008.678.023,1.357.053,2.049.013.3.031.619.052.942.032.489.075.988.132,1.491.035.31.075.625.119.953.123.911-.518,2.426-.358,3.335a24.531,24.531,0,0,1,2.629-.739,24.254,24.254,0,0,1,3.7.309l.215.035a29.774,29.774,0,0,1,4.169,1.007c-.221-.9-.436-1.822-.635-2.714-.076-.339-.141-.649-.206-.971-.075-.369-.141-.716-.207-1.076-.028-.152-.054-.3-.079-.438-.033-.185-.066-.383-.095-.558-.1-.629-.2-1.282-.29-1.9-.049-.348-.094-.69-.135-1.009-.068-.529-.132-1.069-.187-1.568-.039-.357-.074-.723-.109-1.03-.024-.216-.044-.551-.06-.7a39.045,39.045,0,0,1-.3-7.592c.218-2.024-.323-2.733-1.438-4.084a2.7,2.7,0,0,0-.448-.366c-2.195-1.6-5-.922-5.717,1.838a15.322,15.322,0,0,0-.337,2.876C1622.851,1069.894,1622.746,1071.937,1622.62,1073.828Z" transform="translate(-1622.484 -1062.504)" fill="#f6d2a6"/>
      </g>
      <path id="Trazado_50685" data-name="Trazado 50685" d="M1607.767,1228.357s3,2.775,2.929,3.8-3.231-1.291-3.926-3.662Z" transform="translate(-1597.829 -1199.037)" fill="#fff"/>
      <g id="Grupo_22921" data-name="Grupo 22921" transform="translate(2.401 8.824)">
        <path id="Trazado_50686" data-name="Trazado 50686" d="M1563.17,1087.368a9.99,9.99,0,0,0-1.422,1.449c-8.911-9.908-9.594-16.92,4.034-21.678,3.076-1.073,3.874,2.434.164,3.365C1553.23,1073.7,1558,1079.661,1563.17,1087.368Z" transform="translate(-1555.266 -1066.937)" fill="#f6d2a6"/>
      </g>
      <path id="Trazado_50687" data-name="Trazado 50687" d="M1817.983,1133.5s3.083-2.686,4.1-2.5-1.632,3.073-4.064,3.508Z" transform="translate(-1782.223 -1114.03)" fill="#fff"/>
      <g id="Grupo_22922" data-name="Grupo 22922" transform="translate(16.308 10.351)">
        <path id="Trazado_50688" data-name="Trazado 50688" d="M1684.357,1087.8a12.789,12.789,0,0,0,1.194,1.663c-11.578,7.324-18.163,6.531-20.7-8.1-.573-3.3,2.966-3.272,3.311.538C1669.346,1094.972,1675.286,1092.064,1684.357,1087.8Z" transform="translate(-1664.787 -1078.967)" fill="#f6d2a6"/>
      </g>
      <path id="Trazado_50689" data-name="Trazado 50689" d="M1661.559,1000.961s1.795.55,1.457,1.686-2.07-.656-2.07-.656S1660.748,1000.573,1661.559,1000.961Z" transform="translate(-1645.107 -1000.456)" fill="#2d334a"/>
      <path id="Trazado_50690" data-name="Trazado 50690" d="M1638.677,1005.263c1.26,1.937,3.63,2.629,4.813,1.859s.732-2.71-.527-4.647-2.86-2.3-4.043-1.528S1637.417,1003.326,1638.677,1005.263Z" transform="translate(-1624.98 -1000.173)" fill="#fff"/>
      <path id="Trazado_50691" data-name="Trazado 50691" d="M1646.434,1033.381l2.415-.236a38.565,38.565,0,0,1,.163,4.666c-.089.365-.691.533-1.345.375-.588-.143-1.014-.5-1.03-.837h0A31.966,31.966,0,0,0,1646.434,1033.381Z" transform="translate(-1632.456 -1028.612)" fill="#fff"/>
      <path id="Trazado_50692" data-name="Trazado 50692" d="M1652.609,1031.619c.356-.385.691-.038,1.548.443s2.388.357,2.495-1.648c.045-.849.378-.212.6.311a2.622,2.622,0,0,1,.221,1.213,1.763,1.763,0,0,1-.87,1.426,3.485,3.485,0,0,1-3.106.1,1.524,1.524,0,0,1-1.014-1.467A.608.608,0,0,1,1652.609,1031.619Z" transform="translate(-1637.733 -1025.866)" fill="#2d334a"/>
      <path id="Trazado_50693" data-name="Trazado 50693" d="M1634.9,1001.485a3.728,3.728,0,0,1,.281-2.586c.679-1.079,2.6-2.219,4.12-.765a1.441,1.441,0,0,1-.48,2.205c-1.466,1.074-1.645.088-1.985,1.291s-1.354,1.008-1.4,1.267Z" transform="translate(-1622.284 -997.446)" fill="#2d334a"/>
      <path id="Trazado_50694" data-name="Trazado 50694" d="M1638.556,1038.467c.293.451,1.116.736,1.442.524s.17-.631-.123-1.082-.832-.7-1.158-.488A.693.693,0,0,0,1638.556,1038.467Z" transform="translate(-1625.436 -1032.279)" fill="#fff"/>
      <g id="Grupo_22923" data-name="Grupo 22923" transform="translate(13.967 10.602)">
        <path id="Trazado_50695" data-name="Trazado 50695" d="M1647.923,1081.156c1.819,6.8-2.609,7.774-1.341,13.413l2,1.772,1.47-2.293c-2.166-5.3,1.358-7.037-1.12-13.1C1648.594,1081.008,1648.259,1081.085,1647.923,1081.156Z" transform="translate(-1646.35 -1080.945)" fill="#383e56"/>
      </g>
      <path id="Trazado_50696" data-name="Trazado 50696" d="M1671.875,1034.142a6.218,6.218,0,0,1,.628-1.542c.3-.345.992-.1,1.134-.161s-.445-.568-.83-.527a1.667,1.667,0,0,0-1.029,1.073C1671.638,1033.556,1671.45,1034.41,1671.875,1034.142Z" transform="translate(-1654.439 -1027.534)" fill="#2d334a"/>
    </g>
    <g id="Grupo_22925" data-name="Grupo 22925" transform="translate(395.359 339.18)">
      <rect id="Rectángulo_5242" data-name="Rectángulo 5242" width="13.512" height="13.512" transform="translate(0 1.006)" fill="#454a5f"/>
      <path id="Trazado_50697" data-name="Trazado 50697" d="M1860.782,1114.774l4.465,4.465,10.5-10.5" transform="translate(-1858.71 -1108.738)" fill="none" stroke="#fff" stroke-linecap="round" stroke-linejoin="round" stroke-width="7.976"/>
    </g>
    <g id="Grupo_22926" data-name="Grupo 22926" transform="translate(334.837 302.5)">
      <path id="Trazado_50698" data-name="Trazado 50698" d="M1314.575,778.467c-1.987,4.7-4.343,9.2-6.3,13.894-8.859-4.158-14.126-3.951-22.743-10.532,2.973-4.317,6.087-8.539,9.129-12.807C1301.965,774.631,1306.488,774.94,1314.575,778.467Z" transform="translate(-1285.528 -769.022)" fill="#fff"/>
      <path id="Trazado_50699" data-name="Trazado 50699" d="M1325.1,800.324c-2,3.067-4.125,6.046-6.116,9.12-.168-.138-.336-.276-.5-.415,2-3.077,4.213-6.006,6.219-9.079Z" transform="translate(-1314.295 -796.023)" fill="#999"/>
      <path id="Trazado_50700" data-name="Trazado 50700" d="M1339.76,811.187c-1.911,3.115-3.9,6.165-5.731,9.328-.179-.131-.354-.268-.53-.4,1.894-3.128,3.893-6.17,5.846-9.261C1339.481,810.965,1339.615,811.083,1339.76,811.187Z" transform="translate(-1327.407 -805.541)" fill="#999"/>
      <path id="Trazado_50701" data-name="Trazado 50701" d="M1355.8,820.36c-1.758,3.2-3.551,6.373-5.215,9.623l-.572-.363c1.663-3.249,3.589-6.346,5.345-9.542Z" transform="translate(-1341.822 -813.595)" fill="#999"/>
      <path id="Trazado_50702" data-name="Trazado 50702" d="M1372.844,827.873c-1.622,3.291-3.2,6.581-4.753,9.907a6.29,6.29,0,0,1-.621-.258c1.648-3.263,3.132-6.595,4.859-9.822C1372.5,827.756,1372.674,827.812,1372.844,827.873Z" transform="translate(-1357.066 -820.249)" fill="#999"/>
      <path id="Trazado_50703" data-name="Trazado 50703" d="M1391.2,833.15c-1.558,3.262-2.834,6.605-4.259,9.919l-.645-.154c1.432-3.332,2.774-6.662,4.381-9.922A3.177,3.177,0,0,0,1391.2,833.15Z" transform="translate(-1373.504 -824.87)" fill="#999"/>
      <path id="Trazado_50704" data-name="Trazado 50704" d="M1410.333,836.29c-1.486,3.227-2.653,6.588-4.008,9.87a6.131,6.131,0,0,1-.666-.029c1.4-3.3,2.589-6.671,4.072-9.936C1409.934,836.218,1410.133,836.254,1410.333,836.29Z" transform="translate(-1390.405 -827.666)" fill="#999"/>
      <path id="Trazado_50705" data-name="Trazado 50705" d="M1429.409,839.469c-1.407,3.173-2.577,6.451-3.907,9.661l-.621-.065c1.339-3.23,2.511-6.529,3.917-9.729Z" transform="translate(-1407.187 -830.408)" fill="#999"/>
    </g>
    <g id="Grupo_22927" data-name="Grupo 22927" transform="translate(348.934 288.389)">
      <path id="Trazado_50706" data-name="Trazado 50706" d="M1425.74,663.778c-3.115-4.044-5.874-8.309-8.993-12.325,7.979-5.666,10.391-10.352,20.361-14.616,2.3,4.712,4.439,9.5,6.656,14.25C1435.285,654.688,1432.791,658.474,1425.74,663.778Z" transform="translate(-1416.747 -636.837)" fill="#fff"/>
      <path id="Trazado_50707" data-name="Trazado 50707" d="M1559.654,674.8c-1.685-3.252-3.234-6.566-4.929-9.813.2-.078.405-.157.609-.234,1.695,3.256,3.155,6.623,4.843,9.881Z" transform="translate(-1537.205 -661.206)" fill="#999"/>
      <path id="Trazado_50708" data-name="Trazado 50708" d="M1541.877,681.6c-1.771-3.2-3.448-6.429-5.3-9.58.2-.092.407-.176.611-.264,1.791,3.188,3.456,6.425,5.186,9.647C1542.207,681.464,1542.038,681.522,1541.877,681.6Z" transform="translate(-1521.361 -667.32)" fill="#999"/>
      <path id="Trazado_50709" data-name="Trazado 50709" d="M1524.414,690.094c-1.919-3.1-3.8-6.228-5.811-9.275l.6-.319c2.01,3.046,3.758,6.247,5.676,9.349Z" transform="translate(-1505.67 -674.955)" fill="#999"/>
      <path id="Trazado_50710" data-name="Trazado 50710" d="M1508.267,700.29c-2.067-3.032-4.154-6.026-6.286-9.013a6.283,6.283,0,0,1,.53-.413c2.03,3.04,4.2,5.972,6.16,9.063C1508.537,700.05,1508.4,700.172,1508.267,700.29Z" transform="translate(-1491.158 -684.004)" fill="#999"/>
      <path id="Trazado_50711" data-name="Trazado 50711" d="M1494.584,713.337c-2.073-2.961-4.355-5.718-6.539-8.589l.451-.486c2.2,2.887,4.434,5.693,6.482,8.7A3.17,3.17,0,0,0,1494.584,713.337Z" transform="translate(-1478.992 -695.701)" fill="#999"/>
      <path id="Trazado_50712" data-name="Trazado 50712" d="M1483.029,728.4c-2.078-2.882-4.429-5.551-6.62-8.347a6.133,6.133,0,0,1,.353-.565c2.181,2.844,4.534,5.536,6.646,8.435C1483.288,728.084,1483.159,728.24,1483.029,728.4Z" transform="translate(-1468.834 -708.991)" fill="#999"/>
      <path id="Trazado_50713" data-name="Trazado 50713" d="M1472.052,744.142c-2.07-2.786-4.348-5.418-6.488-8.155l.363-.508c2.153,2.755,4.448,5.4,6.542,8.2Z" transform="translate(-1459.365 -722.953)" fill="#999"/>
    </g>
    <g id="Grupo_22928" data-name="Grupo 22928" transform="translate(339.183 261.825)">
      <path id="Trazado_50714" data-name="Trazado 50714" d="M1336.625,388.741c-4.931-1.322-9.712-3.036-14.629-4.334,2.9-9.347,1.972-14.535,7.306-23.975,4.684,2.351,9.3,4.855,13.94,7.282C1338.691,375.722,1339.007,380.245,1336.625,388.741Z" transform="translate(-1321.996 -360.431)" fill="#fff"/>
      <path id="Trazado_50715" data-name="Trazado 50715" d="M1389.695,398.645c-3.313-1.561-6.556-3.255-9.874-4.805.114-.185.227-.371.342-.556,3.323,1.558,6.528,3.348,9.848,4.912Z" transform="translate(-1372.479 -389.112)" fill="#999"/>
      <path id="Trazado_50716" data-name="Trazado 50716" d="M1379.819,414.832c-3.348-1.465-6.642-3.016-10.027-4.395.1-.2.217-.387.325-.58,3.358,1.446,6.646,3.008,9.977,4.517C1380,414.526,1379.9,414.675,1379.819,414.832Z" transform="translate(-1363.723 -403.581)" fill="#999"/>
      <path id="Trazado_50717" data-name="Trazado 50717" d="M1371.335,432.243c-3.41-1.3-6.8-2.642-10.248-3.842l.28-.616c3.447,1.2,6.779,2.683,10.186,3.983Z" transform="translate(-1356.123 -419.232)" fill="#999"/>
      <path id="Trazado_50718" data-name="Trazado 50718" d="M1365.086,450.427c-3.483-1.155-6.959-2.267-10.467-3.346a6.277,6.277,0,0,1,.171-.65c3.459,1.184,6.963,2.2,10.4,3.462C1365.155,450.072,1365.122,450.25,1365.086,450.427Z" transform="translate(-1350.477 -435.511)" fill="#999"/>
      <path id="Trazado_50719" data-name="Trazado 50719" d="M1362.435,469.431c-3.445-1.095-6.932-1.9-10.41-2.855.021-.22.043-.44.064-.66,3.5.961,6.98,1.832,10.43,2.976A3.175,3.175,0,0,0,1362.435,469.431Z" transform="translate(-1348.212 -452.522)" fill="#999"/>
      <path id="Trazado_50720" data-name="Trazado 50720" d="M1362.3,488.825c-3.4-1.029-6.89-1.722-10.328-2.613a6.111,6.111,0,0,1-.063-.663c3.459.936,6.964,1.647,10.4,2.668C1362.312,488.419,1362.3,488.621,1362.3,488.825Z" transform="translate(-1348.107 -469.661)" fill="#999"/>
      <path id="Trazado_50721" data-name="Trazado 50721" d="M1363.185,507.96c-3.336-.958-6.745-1.666-10.106-2.542q-.01-.312-.021-.624c3.383.882,6.813,1.59,10.175,2.542Q1363.208,507.648,1363.185,507.96Z" transform="translate(-1349.114 -486.463)" fill="#999"/>
    </g>
    <g id="Grupo_22929" data-name="Grupo 22929" transform="translate(460.205 332.78)">
      <path id="Trazado_50722" data-name="Trazado 50722" d="M2564.678,1167.907h-17.142l5.615-63.4h5.911Z" transform="translate(-2537.979 -1104.504)" fill="#454a5f"/>
      <path id="Trazado_50723" data-name="Trazado 50723" d="M2472.269,1314.417c0-4.339,8.116-9.51,18.128-9.51s18.128,5.171,18.128,9.51-8.116,6.2-18.128,6.2S2472.269,1318.755,2472.269,1314.417Z" transform="translate(-2472.269 -1279.461)" fill="#454a5f"/>
      <path id="Trazado_50724" data-name="Trazado 50724" d="M2472.27,1407.4c0-6.766,8.116-14.831,18.128-14.831s18.128,8.064,18.128,14.831-8.116,9.672-18.128,9.672S2472.27,1414.163,2472.27,1407.4Z" transform="translate(-2472.27 -1355.989)" fill="#454a5f"/>
    </g>
    <g id="Grupo_22930" data-name="Grupo 22930" transform="translate(471.559 387.64)">
      <path id="Trazado_50725" data-name="Trazado 50725" d="M2587.477,1575.722a8.041,8.041,0,0,0-7.73,5.827h15.459A8.041,8.041,0,0,0,2587.477,1575.722Z" transform="translate(-2579.747 -1573.226)" fill="#f2bf80"/>
      <path id="Trazado_50726" data-name="Trazado 50726" d="M2753.556,1575.722a8.041,8.041,0,0,0-7.729,5.827h15.46A8.042,8.042,0,0,0,2753.556,1575.722Z" transform="translate(-2724.739 -1573.226)" fill="#f2bf80"/>
      <path id="Trazado_50727" data-name="Trazado 50727" d="M2651.664,1556.062a11.486,11.486,0,0,0-11.041,8.324h22.083A11.486,11.486,0,0,0,2651.664,1556.062Z" transform="translate(-2632.893 -1556.062)" fill="#f2bf80"/>
    </g>
  </g>
</svg>
