<svg xmlns="http://www.w3.org/2000/svg" width="200.865" height="134.601" viewBox="0 0 200.865 134.601">
  <g id="Group_12216" data-name="Group 12216" transform="translate(-616.745 -444.321)">
    <g id="Group_12210" data-name="Group 12210" transform="translate(616.745 444.321)">
      <g id="Group_12205" data-name="Group 12205">
        <path id="Path_45969" data-name="Path 45969" d="M632.212,468.114h-8.185a7.281,7.281,0,0,0-7.261,7.832l.831,10.916h13.352Z" transform="translate(-616.745 -443.063)" fill="#595569"/>
        <path id="Path_45970" data-name="Path 45970" d="M643.264,515.219h4.915l.646-8.5H619.136l.646,8.5H624.7l1.057,13.4h16.453Z" transform="translate(-616.619 -441.02)" fill="#595569"/>
        <path id="Path_45971" data-name="Path 45971" d="M625.421,527.521l1.728,21.9h13l1.728-21.9Z" transform="translate(-616.286 -439.92)" fill="#39cade"/>
        <path id="Path_45972" data-name="Path 45972" d="M633.628,464.671a7.827,7.827,0,0,0,7.826-7.827v-4.7a7.827,7.827,0,0,0-15.654,0v4.7A7.828,7.828,0,0,0,633.628,464.671Z" transform="translate(-616.266 -444.321)" fill="#595569"/>
        <path id="Path_45973" data-name="Path 45973" d="M650.574,485.921H637.221l.393,5.825-3.55,7.817-3.55-7.817.392-5.825H617.554l1.666,21.9h29.689Z" transform="translate(-616.702 -442.121)" fill="#595569"/>
        <path id="Path_45974" data-name="Path 45974" d="M650.479,475.947a7.279,7.279,0,0,0-7.26-7.832h-8.185l1.262,18.749h13.353Z" transform="translate(-615.778 -443.063)" fill="#595569"/>
      </g>
      <g id="Group_12206" data-name="Group 12206" transform="translate(40.853)">
        <path id="Path_45975" data-name="Path 45975" d="M686.979,515.219l.646-8.5H657.936l.646,8.5H663.5l1.057,13.4h16.453l1.057-13.4Z" transform="translate(-655.42 -441.02)" fill="#39cade"/>
        <path id="Path_45976" data-name="Path 45976" d="M672.428,464.671a7.827,7.827,0,0,0,7.827-7.827v-4.7a7.827,7.827,0,1,0-15.654,0v4.7A7.827,7.827,0,0,0,672.428,464.671Z" transform="translate(-655.067 -444.321)" fill="#595569"/>
        <path id="Path_45977" data-name="Path 45977" d="M689.28,475.947a7.279,7.279,0,0,0-7.261-7.832h-8.185l1.263,18.749H688.45Z" transform="translate(-654.579 -443.063)" fill="#595569"/>
        <path id="Path_45978" data-name="Path 45978" d="M687.709,507.821l1.665-21.9H676.022l.392,5.825-3.55,7.817-3.55-7.817.392-5.825H656.355l1.666,21.9Z" transform="translate(-655.503 -442.121)" fill="#595569"/>
        <path id="Path_45979" data-name="Path 45979" d="M664.222,527.521l1.728,21.9h13l1.728-21.9Z" transform="translate(-655.087 -439.92)" fill="#39cade"/>
        <path id="Path_45980" data-name="Path 45980" d="M671.013,468.114h-8.185a7.279,7.279,0,0,0-7.261,7.832l.831,10.916H669.75Z" transform="translate(-655.546 -443.063)" fill="#595569"/>
      </g>
      <g id="Group_12207" data-name="Group 12207" transform="translate(81.707)">
        <path id="Path_45981" data-name="Path 45981" d="M711.229,464.671a7.828,7.828,0,0,0,7.827-7.827v-4.7a7.827,7.827,0,0,0-15.654,0v4.7A7.827,7.827,0,0,0,711.229,464.671Z" transform="translate(-693.868 -444.321)" fill="#595569"/>
        <path id="Path_45982" data-name="Path 45982" d="M709.813,468.114h-8.185a7.279,7.279,0,0,0-7.26,7.832l.83,10.916h13.353Z" transform="translate(-694.347 -443.063)" fill="#595569"/>
        <path id="Path_45983" data-name="Path 45983" d="M728.081,475.947a7.281,7.281,0,0,0-7.261-7.832h-8.185l1.263,18.749H727.25Z" transform="translate(-693.38 -443.063)" fill="#595569"/>
        <path id="Path_45984" data-name="Path 45984" d="M726.51,507.821l1.665-21.9H714.823l.392,5.825-3.55,7.817-3.551-7.817.393-5.825H695.155l1.666,21.9Z" transform="translate(-694.304 -442.121)" fill="#39cade"/>
        <path id="Path_45985" data-name="Path 45985" d="M725.78,515.219l.646-8.5H696.737l.646,8.5H702.3l1.057,13.4h16.453l1.057-13.4Z" transform="translate(-694.221 -441.02)" fill="#39cade"/>
        <path id="Path_45986" data-name="Path 45986" d="M703.023,527.521l1.728,21.9h13l1.728-21.9Z" transform="translate(-693.888 -439.92)" fill="#39cade"/>
      </g>
      <g id="Group_12208" data-name="Group 12208" transform="translate(122.559)">
        <path id="Path_45987" data-name="Path 45987" d="M741.823,527.521l1.728,21.9h13l1.728-21.9Z" transform="translate(-732.688 -439.92)" fill="#39cade"/>
        <path id="Path_45988" data-name="Path 45988" d="M765.311,507.821l1.665-21.9H753.624l.392,5.825-3.55,7.817-3.55-7.817.393-5.825H733.956l1.666,21.9Z" transform="translate(-733.104 -442.121)" fill="#39cade"/>
        <path id="Path_45989" data-name="Path 45989" d="M750.03,464.671a7.827,7.827,0,0,0,7.826-7.827v-4.7a7.827,7.827,0,1,0-15.654,0v4.7A7.828,7.828,0,0,0,750.03,464.671Z" transform="translate(-732.668 -444.321)" fill="#595569"/>
        <path id="Path_45990" data-name="Path 45990" d="M766.881,475.947a7.279,7.279,0,0,0-7.26-7.832h-8.185l1.262,18.749h13.353Z" transform="translate(-732.18 -443.063)" fill="#39cade"/>
        <path id="Path_45991" data-name="Path 45991" d="M748.614,468.114h-8.185a7.281,7.281,0,0,0-7.261,7.832L734,486.863h13.352Z" transform="translate(-733.147 -443.063)" fill="#39cade"/>
        <path id="Path_45992" data-name="Path 45992" d="M764.581,515.219l.646-8.5H735.538l.646,8.5H741.1l1.057,13.4h16.453l1.057-13.4Z" transform="translate(-733.021 -441.02)" fill="#39cade"/>
      </g>
      <g id="Group_12209" data-name="Group 12209" transform="translate(163.412)">
        <path id="Path_45993" data-name="Path 45993" d="M788.83,464.671a7.827,7.827,0,0,0,7.827-7.827v-4.7a7.827,7.827,0,1,0-15.654,0v4.7A7.827,7.827,0,0,0,788.83,464.671Z" transform="translate(-771.469 -444.321)" fill="#39cade"/>
        <path id="Path_45994" data-name="Path 45994" d="M804.111,507.821l1.665-21.9H792.424l.393,5.825-3.55,7.817-3.55-7.817.392-5.825H772.757l1.666,21.9Z" transform="translate(-771.905 -442.121)" fill="#39cade"/>
        <path id="Path_45995" data-name="Path 45995" d="M803.381,515.219l.646-8.5H774.339l.646,8.5H779.9l1.057,13.4h16.453l1.057-13.4Z" transform="translate(-771.822 -441.02)" fill="#39cade"/>
        <path id="Path_45996" data-name="Path 45996" d="M782.352,549.421h13l1.728-21.9H780.624Z" transform="translate(-771.489 -439.92)" fill="#39cade"/>
        <path id="Path_45997" data-name="Path 45997" d="M805.682,475.947a7.279,7.279,0,0,0-7.26-7.832h-8.186l1.263,18.749h13.353Z" transform="translate(-770.981 -443.063)" fill="#39cade"/>
        <path id="Path_45998" data-name="Path 45998" d="M787.415,468.114H779.23a7.281,7.281,0,0,0-7.261,7.832l.831,10.916h13.352Z" transform="translate(-771.948 -443.063)" fill="#39cade"/>
      </g>
    </g>
    <g id="Group_12211" data-name="Group 12211" transform="translate(625.831 563.841)">
      <path id="Path_45999" data-name="Path 45999" d="M628.376,559.944c-.653,0-1.062.4-1.062,1.453v1.579h-1.938v-1.433c0-2.358,1.043-3.706,3.055-3.706s3.058,1.348,3.058,3.706c0,4.635-4.081,6.362-4.081,8.783a1.878,1.878,0,0,0,.018.317H631.3v2.106h-5.927v-1.812c0-4.338,4.062-5.055,4.062-9.309C629.437,560.3,629.028,559.944,628.376,559.944Z" transform="translate(-625.375 -557.837)" fill="#595569"/>
      <path id="Path_46000" data-name="Path 46000" d="M632.227,561.543c0-2.358,1.1-3.706,3.113-3.706s3.112,1.348,3.112,3.706v7.668c0,2.358-1.1,3.706-3.112,3.706s-3.113-1.348-3.113-3.706Zm2.051,7.815c0,1.053.409,1.453,1.062,1.453s1.061-.4,1.061-1.453V561.4c0-1.053-.41-1.453-1.061-1.453s-1.062.4-1.062,1.453Z" transform="translate(-625.013 -557.837)" fill="#595569"/>
      <path id="Path_46001" data-name="Path 46001" d="M639.234,560.257c0-1.517.691-2.36,1.976-2.36s1.975.842,1.975,2.36V565.1c0,1.517-.69,2.359-1.975,2.359s-1.976-.841-1.976-2.359Zm1.306,4.95c0,.653.242.927.671.927.41,0,.671-.274.671-.927V560.15c0-.653-.261-.927-.671-.927-.429,0-.671.274-.671.927Zm5.814-7.2h1.211l-5.142,14.744H641.21Zm-.652,7.646c0-1.517.689-2.358,1.975-2.358s1.975.841,1.975,2.358v4.843c0,1.517-.689,2.359-1.975,2.359s-1.975-.842-1.975-2.359Zm1.3,4.95c0,.653.243.927.672.927.411,0,.671-.274.671-.927v-5.056c0-.653-.26-.927-.671-.927-.428,0-.672.274-.672.927Z" transform="translate(-624.642 -557.834)" fill="#595569"/>
    </g>
    <g id="Group_12212" data-name="Group 12212" transform="translate(665.593 563.841)">
      <path id="Path_46002" data-name="Path 46002" d="M663.139,567.959,666.866,558H669.1v9.962h.969v2.106H669.1v2.675h-2.013v-2.675h-3.95Zm3.95,0V562.42l-2.069,5.539Z" transform="translate(-663.139 -557.828)" fill="#595569"/>
      <path id="Path_46003" data-name="Path 46003" d="M670.608,561.543c0-2.358,1.1-3.706,3.112-3.706s3.112,1.348,3.112,3.706v7.668c0,2.358-1.1,3.706-3.112,3.706s-3.112-1.348-3.112-3.706Zm2.051,7.815c0,1.053.408,1.453,1.061,1.453s1.062-.4,1.062-1.453V561.4c0-1.053-.41-1.453-1.062-1.453s-1.061.4-1.061,1.453Z" transform="translate(-662.744 -557.837)" fill="#595569"/>
      <path id="Path_46004" data-name="Path 46004" d="M677.616,560.257c0-1.517.69-2.36,1.976-2.36s1.975.842,1.975,2.36V565.1c0,1.517-.69,2.359-1.975,2.359s-1.976-.841-1.976-2.359Zm1.3,4.95c0,.653.243.927.672.927.41,0,.671-.274.671-.927V560.15c0-.653-.261-.927-.671-.927-.428,0-.672.274-.672.927Zm5.815-7.2h1.211L680.8,572.746h-1.212Zm-.652,7.646c0-1.517.689-2.358,1.975-2.358s1.975.841,1.975,2.358v4.843c0,1.517-.69,2.359-1.975,2.359s-1.975-.842-1.975-2.359Zm1.3,4.95c0,.653.242.927.672.927.41,0,.67-.274.67-.927v-5.056c0-.653-.26-.927-.67-.927-.43,0-.672.274-.672.927Z" transform="translate(-662.373 -557.834)" fill="#595569"/>
    </g>
    <g id="Group_12213" data-name="Group 12213" transform="translate(706.659 563.841)">
      <path id="Path_46005" data-name="Path 46005" d="M702.142,561.671c0-2.486,1.007-3.834,3.13-3.834,2.013,0,3.058,1.348,3.058,3.706v.38h-1.938V561.4c0-1.053-.411-1.453-1.063-1.453-.727,0-1.136.4-1.136,1.811v2.7a1.943,1.943,0,0,1,1.9-1.306c1.51,0,2.274,1.2,2.274,3.37v2.7c0,2.358-1.1,3.706-3.112,3.706s-3.112-1.348-3.112-3.706Zm2.05,5.034v2.653c0,1.053.41,1.433,1.062,1.433s1.061-.38,1.061-1.433V566.7c0-1.053-.41-1.453-1.061-1.453S704.192,565.652,704.192,566.7Z" transform="translate(-702.142 -557.837)" fill="#595569"/>
      <path id="Path_46006" data-name="Path 46006" d="M709.105,561.543c0-2.358,1.1-3.706,3.112-3.706s3.113,1.348,3.113,3.706v7.668c0,2.358-1.1,3.706-3.113,3.706s-3.112-1.348-3.112-3.706Zm2.051,7.815c0,1.053.409,1.453,1.061,1.453s1.062-.4,1.062-1.453V561.4c0-1.053-.41-1.453-1.062-1.453s-1.061.4-1.061,1.453Z" transform="translate(-701.774 -557.837)" fill="#595569"/>
      <path id="Path_46007" data-name="Path 46007" d="M716.113,560.257c0-1.517.691-2.36,1.976-2.36s1.975.842,1.975,2.36V565.1c0,1.517-.69,2.359-1.975,2.359s-1.976-.841-1.976-2.359Zm1.3,4.95c0,.653.243.927.672.927.41,0,.671-.274.671-.927V560.15c0-.653-.261-.927-.671-.927-.429,0-.672.274-.672.927Zm5.815-7.2h1.211L719.3,572.746h-1.212Zm-.652,7.646c0-1.517.689-2.358,1.975-2.358s1.975.841,1.975,2.358v4.843c0,1.517-.69,2.359-1.975,2.359s-1.975-.842-1.975-2.359Zm1.3,4.95c0,.653.243.927.672.927.41,0,.671-.274.671-.927v-5.056c0-.653-.261-.927-.671-.927-.429,0-.672.274-.672.927Z" transform="translate(-701.403 -557.834)" fill="#595569"/>
    </g>
    <g id="Group_12214" data-name="Group 12214" transform="translate(748.923 563.841)">
      <path id="Path_46008" data-name="Path 46008" d="M745.489,572.918c-2.069,0-3.206-1.348-3.206-3.706v-1.159a3.4,3.4,0,0,1,1.268-3.076,3.194,3.194,0,0,1-1.268-2.969v-.464c0-2.358,1.137-3.706,3.206-3.706s3.205,1.348,3.205,3.706v.464a3.235,3.235,0,0,1-1.267,2.969,3.4,3.4,0,0,1,1.267,3.076v1.159C748.694,571.57,747.558,572.918,745.489,572.918Zm-1.156-10.468c0,1.179.484,1.558,1.156,1.558.652,0,1.156-.379,1.156-1.558v-.821c0-1.327-.5-1.685-1.156-1.685s-1.156.358-1.156,1.685Zm1.156,8.361c.652,0,1.136-.358,1.156-1.664v-1.369c0-1.158-.429-1.665-1.156-1.665s-1.156.506-1.156,1.665v1.369C744.333,570.453,744.836,570.811,745.489,570.811Z" transform="translate(-742.283 -557.837)" fill="#595569"/>
      <path id="Path_46009" data-name="Path 46009" d="M749.4,561.543c0-2.358,1.1-3.706,3.112-3.706s3.113,1.348,3.113,3.706v7.668c0,2.358-1.1,3.706-3.113,3.706s-3.112-1.348-3.112-3.706Zm2.051,7.815c0,1.053.409,1.453,1.061,1.453s1.062-.4,1.062-1.453V561.4c0-1.053-.41-1.453-1.062-1.453s-1.061.4-1.061,1.453Z" transform="translate(-741.907 -557.837)" fill="#595569"/>
      <path id="Path_46010" data-name="Path 46010" d="M756.405,560.257c0-1.517.69-2.36,1.975-2.36s1.976.842,1.976,2.36V565.1c0,1.517-.69,2.359-1.976,2.359s-1.975-.841-1.975-2.359Zm1.3,4.95c0,.653.243.927.671.927.411,0,.672-.274.672-.927V560.15c0-.653-.261-.927-.672-.927-.427,0-.671.274-.671.927Zm5.815-7.2h1.211l-5.142,14.744H758.38Zm-.652,7.646c0-1.517.689-2.358,1.975-2.358s1.975.841,1.975,2.358v4.843c0,1.517-.691,2.359-1.975,2.359s-1.975-.842-1.975-2.359Zm1.3,4.95c0,.653.243.927.672.927.41,0,.67-.274.67-.927v-5.056c0-.653-.26-.927-.67-.927-.428,0-.672.274-.672.927Z" transform="translate(-741.536 -557.834)" fill="#595569"/>
    </g>
    <g id="Group_12215" data-name="Group 12215" transform="translate(787.093 563.841)">
      <path id="Path_46011" data-name="Path 46011" d="M778.535,559.851c1.585,0,1.94-.863,2.256-1.854h1.378v14.744h-2.05V561.493h-1.585Z" transform="translate(-778.535 -557.828)" fill="#595569"/>
      <path id="Path_46012" data-name="Path 46012" d="M783.636,561.543c0-2.358,1.1-3.706,3.112-3.706s3.112,1.348,3.112,3.706v7.668c0,2.358-1.1,3.706-3.112,3.706s-3.112-1.348-3.112-3.706Zm2.05,7.815c0,1.053.41,1.453,1.062,1.453s1.062-.4,1.062-1.453V561.4c0-1.053-.411-1.453-1.062-1.453s-1.062.4-1.062,1.453Z" transform="translate(-778.265 -557.837)" fill="#595569"/>
      <path id="Path_46013" data-name="Path 46013" d="M790.617,561.543c0-2.358,1.1-3.706,3.112-3.706s3.112,1.348,3.112,3.706v7.668c0,2.358-1.1,3.706-3.112,3.706s-3.112-1.348-3.112-3.706Zm2.05,7.815c0,1.053.41,1.453,1.062,1.453s1.062-.4,1.062-1.453V561.4c0-1.053-.411-1.453-1.062-1.453s-1.062.4-1.062,1.453Z" transform="translate(-777.896 -557.837)" fill="#595569"/>
      <path id="Path_46014" data-name="Path 46014" d="M797.624,560.257c0-1.517.69-2.36,1.975-2.36s1.976.842,1.976,2.36V565.1c0,1.517-.69,2.359-1.976,2.359s-1.975-.841-1.975-2.359Zm1.3,4.95c0,.653.243.927.671.927.411,0,.672-.274.672-.927V560.15c0-.653-.261-.927-.672-.927-.427,0-.671.274-.671.927Zm5.815-7.2h1.211l-5.143,14.744H799.6Zm-.652,7.646c0-1.517.689-2.358,1.975-2.358s1.975.841,1.975,2.358v4.843c0,1.517-.691,2.359-1.975,2.359s-1.975-.842-1.975-2.359Zm1.3,4.95c0,.653.242.927.672.927.41,0,.67-.274.67-.927v-5.056c0-.653-.26-.927-.67-.927-.43,0-.672.274-.672.927Z" transform="translate(-777.525 -557.834)" fill="#595569"/>
    </g>
  </g>
</svg>
