<svg xmlns="http://www.w3.org/2000/svg" width="244.529" height="131.117" viewBox="0 0 244.529 131.117">
  <g id="Group_12196" data-name="Group 12196" transform="translate(-75.602 -634.635)">
    <g id="Group_12191" data-name="Group 12191" transform="translate(91.321 641.86)">
      <path id="Path_45641" data-name="Path 45641" d="M90.418,763.4a90.182,90.182,0,1,1,180.365,0H90.418Z" transform="translate(-90.418 -639.508)" fill="#595569"/>
      <path id="Path_45642" data-name="Path 45642" d="M117.807,677.582a106.228,106.228,0,0,1,107.224-8.853l-46.1,95.585Z" transform="translate(-88.748 -640.422)" fill="#de5987"/>
      <path id="Path_45643" data-name="Path 45643" d="M204.874,641.445a127.367,127.367,0,0,1,97.861,123.892H175.418Z" transform="translate(-85.236 -641.445)" fill="#39cade"/>
    </g>
    <g id="Group_12192" data-name="Group 12192" transform="translate(111.257 677.161)">
      <path id="Path_45644" data-name="Path 45644" d="M124.329,724.772A1.975,1.975,0,0,1,126.3,726.9l-.852,11.208h-1.334l-.755,9.577h-3.526l-.756-9.577h-1.333l-.853-11.208a1.975,1.975,0,0,1,1.97-2.125h2.221l-.449,6.667.962,2.121.963-2.121-.449-6.667Zm-.611-4.672a2.124,2.124,0,1,0-4.247,0v1.274a2.124,2.124,0,0,0,4.247,0Zm13.456,18.006h-2.347l-.755,9.577h-3.527l-.755-9.577h-2.347l.875-11.507a1.974,1.974,0,0,1,1.969-1.826h.727l1.294,2.108,1.294-2.108h.727A1.975,1.975,0,0,1,136.3,726.6ZM134.431,720.1a2.123,2.123,0,1,0-4.246,0v3.4h4.246ZM116,741h-1.639l-.527,6.686h-2.461L110.847,741h-1.639l.611-8.035a1.379,1.379,0,0,1,1.375-1.275h.325a1.086,1.086,0,1,0,2.173,0h.325a1.379,1.379,0,0,1,1.375,1.275Zm-1.915-10.2h-2.964v-2.371a1.482,1.482,0,1,1,2.964,0Z" transform="translate(-109.208 -672.079)" fill="#fff"/>
      <path id="Path_45645" data-name="Path 45645" d="M235.949,690.979a4.726,4.726,0,0,1,4.713,5.085l-2.04,26.82h-3.19L233.623,745.8h-8.437l-1.808-22.917h-3.19l-2.04-26.82a4.726,4.726,0,0,1,4.714-5.085h5.313L227.1,706.932l2.3,5.075,2.3-5.075-1.075-15.953ZM234.486,679.8a5.081,5.081,0,1,0-10.162,0v3.048a5.081,5.081,0,1,0,10.162,0Z" transform="translate(-102.567 -674.717)" fill="#fff"/>
      <path id="Path_45646" data-name="Path 45646" d="M171.3,707.889h-3.354l-1.079,13.682h-5.038l-1.079-13.682H157.4l1.251-16.44a2.821,2.821,0,0,1,2.814-2.608H162.5l1.849,3.011,1.849-3.011h1.038a2.823,2.823,0,0,1,2.815,2.608Zm-3.918-25.723a3.033,3.033,0,1,0-6.067,0v4.854h6.067Z" transform="translate(-106.27 -674.448)" fill="#fff"/>
    </g>
    <g id="Group_12193" data-name="Group 12193" transform="translate(75.602 697.422)">
      <path id="Path_45647" data-name="Path 45647" d="M79.7,697.633c0-1.337-.413-1.7-1.069-1.7s-1.072.4-1.072,1.463v.956H75.6v-.807c0-2.377,1.051-3.735,3.08-3.735s3.079,1.358,3.079,3.735v.382c0,1.591-.451,2.59-1.446,3.057,1.033.509,1.446,1.614,1.446,3.12v1.167c0,2.377-1.051,3.736-3.079,3.736s-3.08-1.359-3.08-3.736v-1.231h1.952v1.379c0,1.061.414,1.464,1.072,1.464s1.069-.361,1.069-1.676v-1.167c0-1.38-.413-1.89-1.352-1.89h-.695v-2.122h.807c.77,0,1.239-.382,1.239-1.571Z" transform="translate(-75.602 -693.814)" fill="#595569"/>
      <path id="Path_45648" data-name="Path 45648" d="M82.5,697.549c0-2.377,1.109-3.735,3.136-3.735s3.136,1.358,3.136,3.735v7.726c0,2.377-1.108,3.736-3.136,3.736s-3.136-1.359-3.136-3.736Zm2.066,7.875c0,1.061.414,1.464,1.071,1.464s1.071-.4,1.071-1.464V697.4c0-1.061-.413-1.463-1.071-1.463s-1.071.4-1.071,1.463Z" transform="translate(-75.181 -693.814)" fill="#595569"/>
      <path id="Path_45649" data-name="Path 45649" d="M89.512,696.251c0-1.528.695-2.377,1.99-2.377s1.99.849,1.99,2.377v4.882c0,1.528-.695,2.377-1.99,2.377s-1.99-.849-1.99-2.377Zm1.313,4.988c0,.658.244.934.677.934.413,0,.676-.276.676-.934v-5.094c0-.658-.263-.934-.676-.934-.433,0-.677.276-.677.934Zm5.86-7.258h1.22l-5.183,14.857H91.5Zm-.658,7.7c0-1.528.7-2.377,1.991-2.377s1.99.849,1.99,2.377v4.882c0,1.528-.695,2.377-1.99,2.377s-1.991-.849-1.991-2.377Zm1.316,4.988c0,.659.244.934.676.934.413,0,.676-.275.676-.934v-5.094c0-.658-.263-.934-.676-.934-.432,0-.676.276-.676.934Z" transform="translate(-74.754 -693.81)" fill="#595569"/>
    </g>
    <g id="Group_12194" data-name="Group 12194" transform="translate(152.416 634.635)">
      <path id="Path_45650" data-name="Path 45650" d="M148,638.5c0-2.5,1.014-3.862,3.155-3.862,2.028,0,3.079,1.358,3.079,3.735v.383h-1.952v-.531c0-1.061-.414-1.464-1.07-1.464-.733,0-1.146.4-1.146,1.824V641.3a1.957,1.957,0,0,1,1.915-1.316c1.522,0,2.292,1.209,2.292,3.4V646.1c0,2.377-1.108,3.735-3.136,3.735S148,648.473,148,646.1Zm2.066,5.073v2.674c0,1.061.413,1.444,1.07,1.444s1.071-.383,1.071-1.444V643.57c0-1.061-.413-1.464-1.071-1.464S150.068,642.509,150.068,643.57Z" transform="translate(-148.002 -634.635)" fill="#de5987"/>
      <path id="Path_45651" data-name="Path 45651" d="M154.966,638.37c0-2.377,1.108-3.735,3.136-3.735s3.135,1.358,3.135,3.735V646.1c0,2.377-1.108,3.735-3.135,3.735s-3.136-1.358-3.136-3.735Zm2.066,7.875c0,1.061.413,1.464,1.071,1.464s1.071-.4,1.071-1.464v-8.022c0-1.061-.414-1.464-1.071-1.464s-1.071.4-1.071,1.464Z" transform="translate(-147.577 -634.635)" fill="#de5987"/>
      <path id="Path_45652" data-name="Path 45652" d="M161.974,637.072c0-1.528.694-2.377,1.99-2.377s1.99.849,1.99,2.377v4.881c0,1.529-.695,2.377-1.99,2.377s-1.99-.848-1.99-2.377Zm1.313,4.989c0,.658.244.934.677.934.413,0,.676-.276.676-.934v-5.095c0-.658-.263-.934-.676-.934-.433,0-.677.276-.677.934Zm5.86-7.259h1.22l-5.183,14.857h-1.22Zm-.658,7.7c0-1.529.695-2.378,1.991-2.378s1.99.849,1.99,2.378v4.88c0,1.529-.695,2.377-1.99,2.377s-1.991-.848-1.991-2.377Zm1.316,4.988c0,.658.243.934.676.934.413,0,.676-.276.676-.934V642.4c0-.658-.263-.934-.676-.934-.433,0-.676.276-.676.934Z" transform="translate(-147.15 -634.631)" fill="#de5987"/>
    </g>
    <g id="Group_12195" data-name="Group 12195" transform="translate(294.65 676.988)">
      <path id="Path_45653" data-name="Path 45653" d="M285.293,689.75c-2.085,0-3.231-1.358-3.231-3.736v-1.167a3.426,3.426,0,0,1,1.277-3.1,3.219,3.219,0,0,1-1.277-2.992v-.468c0-2.377,1.146-3.735,3.231-3.735s3.23,1.358,3.23,3.735v.468a3.26,3.26,0,0,1-1.276,2.992,3.428,3.428,0,0,1,1.276,3.1v1.167C288.522,688.392,287.376,689.75,285.293,689.75ZM284.128,679.2c0,1.188.488,1.57,1.165,1.57.657,0,1.164-.382,1.164-1.57v-.829c0-1.336-.507-1.7-1.164-1.7s-1.165.361-1.165,1.7Zm1.165,8.425c.657,0,1.145-.361,1.164-1.676v-1.379c0-1.167-.432-1.677-1.164-1.677s-1.165.51-1.165,1.677v1.379C284.128,687.267,284.635,687.627,285.293,687.627Z" transform="translate(-282.062 -674.554)" fill="#39cade"/>
      <path id="Path_45654" data-name="Path 45654" d="M289.176,678.289c0-2.377,1.108-3.735,3.136-3.735s3.136,1.358,3.136,3.735v7.726c0,2.378-1.109,3.736-3.136,3.736s-3.136-1.358-3.136-3.736Zm2.066,7.875c0,1.061.414,1.464,1.071,1.464s1.071-.4,1.071-1.464v-8.022c0-1.061-.414-1.464-1.071-1.464s-1.071.4-1.071,1.464Z" transform="translate(-281.628 -674.554)" fill="#39cade"/>
      <path id="Path_45655" data-name="Path 45655" d="M296.184,676.991c0-1.528.695-2.377,1.99-2.377s1.991.849,1.991,2.377v4.882c0,1.529-.695,2.377-1.991,2.377s-1.99-.848-1.99-2.377Zm1.315,4.989c0,.658.244.933.676.933.414,0,.677-.275.677-.933v-5.095c0-.658-.263-.934-.677-.934-.432,0-.676.276-.676.934Zm5.86-7.259h1.22L299.4,689.577h-1.221Zm-.658,7.7c0-1.529.695-2.378,1.991-2.378s1.99.849,1.99,2.378v4.88c0,1.529-.695,2.377-1.99,2.377s-1.991-.848-1.991-2.377Zm1.315,4.988c0,.658.244.934.677.934.413,0,.676-.276.676-.934v-5.095c0-.658-.263-.934-.676-.934-.433,0-.677.276-.677.934Z" transform="translate(-281.201 -674.55)" fill="#39cade"/>
    </g>
  </g>
</svg>
