<svg xmlns="http://www.w3.org/2000/svg" width="139.111" height="90.611" viewBox="0 0 139.111 90.611">
  <g id="Grupo_23639" data-name="Grupo 23639" transform="translate(-507 -1308.01)">
    <g id="Grupo_17724" data-name="Grupo 17724" transform="translate(-2932.434 -259.99)">
      <g id="Grupo_17723" data-name="Grupo 17723" transform="translate(3472.378 1571.854)">
        <ellipse id="Elipse_959" data-name="Elipse 959" cx="42.442" cy="5.842" rx="42.442" ry="5.842" transform="translate(0 75.074)" fill="#c7ddeb"/>
        <g id="Grupo_17722" data-name="Grupo 17722">
          <path id="Trazado_46244" data-name="Trazado 46244" d="M3871.227,1657.657l2.779-9.569a1.678,1.678,0,0,0-1.649-2.121h-9.286a1.677,1.677,0,0,0-1.644,2.139l.659,2.182" transform="translate(-3796.927 -1631.828)" fill="#fdc345"/>
          <path id="Trazado_46245" data-name="Trazado 46245" d="M3831.726,1762.747h-3.337c-10.445,0-18.37-8.348-16.591-17.478l1.669-8.565c1.4-7.161,8.4-12.391,16.591-12.391h0c8.193,0,15.2,5.231,16.591,12.391l1.669,8.565C3850.1,1754.4,3842.171,1762.747,3831.726,1762.747Z" transform="translate(-3758.614 -1692.092)" fill="#fdc345"/>
          <path id="Trazado_46246" data-name="Trazado 46246" d="M3810.406,1746.822h-3.615a19.9,19.9,0,0,1-15.467-7.029,16.316,16.316,0,0,1-3.611-13.649l1.808-9.478c1.617-8.476,9.641-14.627,19.079-14.627s17.462,6.152,19.078,14.627l1.808,9.478a16.316,16.316,0,0,1-3.611,13.649A19.9,19.9,0,0,1,3810.406,1746.822Zm-1.807-42.531c-8.358,0-15.452,5.382-16.866,12.8l-1.808,9.478a14.1,14.1,0,0,0,3.134,11.792,17.66,17.66,0,0,0,13.732,6.212h3.615a17.659,17.659,0,0,0,13.732-6.212,14.1,14.1,0,0,0,3.134-11.792l-1.807-9.478C3824.05,1709.673,3816.957,1704.291,3808.6,1704.291Z" transform="translate(-3740.052 -1674.959)" fill="#3d4451"/>
          <g id="Grupo_17717" data-name="Grupo 17717" transform="translate(62.785 39.076)">
            <path id="Trazado_46247" data-name="Trazado 46247" d="M3861.3,1771.753v2.387h-1.874v-2.322a11.9,11.9,0,0,1-4.853-1.012v-3.047a8,8,0,0,0,2.22.957,11.7,11.7,0,0,0,2.632.506v-4a10.321,10.321,0,0,1-4.1-2.073,3.831,3.831,0,0,1,.327-5.666,6.5,6.5,0,0,1,3.774-1.414v-2.046h1.874v2a10.861,10.861,0,0,1,4.044.748v2.97a10.852,10.852,0,0,0-4.044-1.144v4.169a10.781,10.781,0,0,1,4.031,1.986,3.529,3.529,0,0,1,1.22,2.7,3.62,3.62,0,0,1-1.361,2.943A7.1,7.1,0,0,1,3861.3,1771.753Zm-1.874-9.626v-3.487q-1.785.275-1.784,1.595Q3857.646,1761.368,3859.43,1762.126Zm1.874,3.719v3.333q1.836-.241,1.836-1.573Q3863.14,1766.527,3861.3,1765.845Z" transform="translate(-3854.231 -1754.019)" fill="#3d4451"/>
          </g>
          <path id="Trazado_46248" data-name="Trazado 46248" d="M3854.479,1646.1l-1.874-.544,3.311-11.4h-12.36l1.032,3.416-1.867.564-1.793-5.93h17.585Z" transform="translate(-3781.214 -1621.248)" fill="#3d4451"/>
          <g id="Grupo_17718" data-name="Grupo 17718" transform="translate(61.217 25.021)">
            <rect id="Rectángulo_4499" data-name="Rectángulo 4499" width="12.43" height="3.531" rx="1.766" transform="translate(0.801 0.801)" fill="#f04f4c"/>
            <path id="Trazado_46249" data-name="Trazado 46249" d="M3859.19,1698.249h-9.476a2.28,2.28,0,0,1-2.277-2.277v-.578a2.28,2.28,0,0,1,2.277-2.277h9.476a2.28,2.28,0,0,1,2.277,2.277v.578A2.28,2.28,0,0,1,3859.19,1698.249Zm-9.476-3.531a.676.676,0,0,0-.676.676v.578a.676.676,0,0,0,.676.676h9.476a.677.677,0,0,0,.676-.676v-.578a.677.677,0,0,0-.676-.676Z" transform="translate(-3847.436 -1693.116)" fill="#3d4451"/>
          </g>
          <g id="Grupo_17721" data-name="Grupo 17721">
            <g id="Grupo_17720" data-name="Grupo 17720" transform="translate(15.441)">
              <g id="Grupo_17719" data-name="Grupo 17719">
                <path id="Trazado_46250" data-name="Trazado 46250" d="M3659.178,1605.966A10.64,10.64,0,1,0,3649.1,1595.9,10.64,10.64,0,0,0,3659.178,1605.966Z" transform="translate(-3649.088 -1584.7)" fill="#3d4451"/>
              </g>
            </g>
            <path id="Trazado_46251" data-name="Trazado 46251" d="M3597.266,1693.308l-5.27,13a5.1,5.1,0,0,1-6.45,2.844,5.373,5.373,0,0,1-3.1-2.981c-.626-1.511,0-3.217.464-4.706l5.073-16.157c1.431-4.558,2.941-9.788,6.427-13.257,3.246-3.231,7.56-5.569,12.225-5.569,1.972,0,9.932-.026,14.408.254,0,0,23.481-6,24.865-6.232a5.92,5.92,0,0,1,4.071.637,3.642,3.642,0,0,1,1.66,2.24,4.893,4.893,0,0,1-1.21,4.353c-2.086,2.3-5.515,3.2-8.324,4.242l-10,3.712c-2.018.749-4.035,1.2-5.468,2.9a12.215,12.215,0,0,0-2.33,4.765,33.86,33.86,0,0,0-.847,6.837c-.4,7.186-.991,14.393-.987,21.583,0,3.42.109,6.839.11,10.26a5.242,5.242,0,0,1-4.4,5.218,5.189,5.189,0,0,1-5.952-5.118v-17.9h-4.756v17.233a5.248,5.248,0,0,1-4.383,5.228,5.189,5.189,0,0,1-5.968-5.116v-28.256" transform="translate(-3582.183 -1642.926)" fill="#3d4451"/>
            <path id="Trazado_46252" data-name="Trazado 46252" d="M3689.9,1701.094l1.837-4.774h-5.716l1.837,4.774-2.246,11.809,3.267,5.277,3.266-5.277Z" transform="translate(-3661.744 -1670.56)" fill="#f04f4c"/>
          </g>
        </g>
      </g>
      <path id="Trazado_46253" data-name="Trazado 46253" d="M3447.3,1765.582l-1.757,2.47,5.859.6.373.265.15-.212,7,.714-5.681-12.19-2.4,3.37c-5.746-5.455-6.908-14.239-2.383-20.6a15.174,15.174,0,0,1,9.293-6.038l3.029-.637-1.548-6.029-3.029.636a21.088,21.088,0,0,0-12.916,8.391C3436.821,1745.412,3438.713,1758.063,3447.3,1765.582Z" transform="translate(0 -122.529)" fill="#f04f4c"/>
      <path id="Trazado_46254" data-name="Trazado 46254" d="M3940.39,1576.824l.828.436a15.121,15.121,0,0,1,8.087,16.095,14.52,14.52,0,0,1-4.832,8.39l-2.257,1.956,4.151,4.393,2.257-1.956a20.183,20.183,0,0,0,6.719-11.661,21.011,21.011,0,0,0-11.24-22.362l-2.585-1.362.511-2.753-12.3,4.252,9.954,8.388Z" transform="translate(-377.14)" fill="#7eb9c7"/>
    </g>
  </g>
</svg>
