<svg xmlns="http://www.w3.org/2000/svg" width="103.11" height="105.368" viewBox="0 0 103.11 105.368">
  <g id="Grupo_23644" data-name="Grupo 23644" transform="translate(-527.999 -2460.763)">
    <g id="Grupo_17799" data-name="Grupo 17799" transform="translate(-2697.773 955.469)">
      <g id="Grupo_17788" data-name="Grupo 17788" transform="translate(3225.772 1557.32)">
        <g id="Grupo_17787" data-name="Grupo 17787" transform="translate(0 0)">
          <g id="Grupo_17786" data-name="Grupo 17786">
            <g id="Grupo_17783" data-name="Grupo 17783">
              <path id="Trazado_46326" data-name="Trazado 46326" d="M3230.585,1742.89c1.4-6.18,6.025-9.085,10.427-13.168,2.836-2.63,5.912-4.992,7.818-8.316a14.274,14.274,0,0,1,2.269-3.333,4.358,4.358,0,0,1,6.018-.088c1.76,1.792,1.594,4.618.639,6.744-1.05,2.337-3.533,3.59-4.668,5.89-.865,1.752-2.165,4.3-.425,5.412,6.367,4.072,10.844.413,13.347-2.168a29.6,29.6,0,0,1,6.094-4.889,27.36,27.36,0,0,1,3.619-1.8c.932-.381,3.21-.682,3.753-1.508,1.455-2.215,2.444-4.017,5.833-3.549,3.294.456,4.314,3,5.619,5.516,10.8,20.837-14.085,38.211-33.58,37.051-4.529-.269-8.992-1.351-13.528-1.392s-11.463,1.449-14.3,4.86" transform="translate(-3228.575 -1715.598)" fill="#c7ddeb"/>
              <path id="Trazado_46327" data-name="Trazado 46327" d="M3227.658,1765.306l-1.886-1.57c3.3-3.961,10.928-5.338,15.258-5.3a60.312,60.312,0,0,1,7.751.737c1.917.267,3.9.543,5.838.658,11.966.707,25.537-5.757,31.571-15.047,2.873-4.423,5.352-11.521.847-20.215-.109-.208-.215-.417-.32-.625-1.233-2.424-2.1-3.926-4.378-4.24-2.455-.339-3.114.671-4.428,2.685l-.211.323c-.634.964-2.058,1.341-3.313,1.674a10.394,10.394,0,0,0-1,.3,26.213,26.213,0,0,0-3.457,1.716,28.475,28.475,0,0,0-5.841,4.688c-1.236,1.274-4.247,4.378-8.632,4.378a11.538,11.538,0,0,1-6.257-2.031c-2.633-1.684-.961-5.071-.062-6.89l.048-.1a12.157,12.157,0,0,1,2.532-3.19,9.531,9.531,0,0,0,2.117-2.66c.708-1.576,1.029-3.931-.4-5.381a3.142,3.142,0,0,0-4.292.112,11.067,11.067,0,0,0-1.786,2.584q-.134.239-.27.476a29.753,29.753,0,0,1-6.4,7.112c-.545.487-1.109.991-1.65,1.494-.825.765-1.656,1.489-2.461,2.188-3.515,3.058-6.551,5.7-7.6,10.351l-2.393-.542c1.232-5.434,4.707-8.458,8.387-11.66.79-.687,1.607-1.4,2.4-2.137.558-.517,1.13-1.029,1.683-1.524a27.5,27.5,0,0,0,5.9-6.5q.132-.229.262-.461a13.064,13.064,0,0,1,2.22-3.145,5.59,5.59,0,0,1,7.745-.065c2.292,2.333,1.908,5.825.883,8.106a11.521,11.521,0,0,1-2.621,3.391,10.173,10.173,0,0,0-2.066,2.54l-.048.1c-.773,1.566-1.538,3.275-.816,3.737,5.4,3.455,9.147.752,11.806-1.989a30.908,30.908,0,0,1,6.349-5.09,28.721,28.721,0,0,1,3.781-1.877,11.309,11.309,0,0,1,1.3-.4,7.423,7.423,0,0,0,1.908-.676l.19-.29c1.389-2.127,2.823-4.327,6.819-3.774,3.659.506,5.024,3.19,6.229,5.558.1.2.206.406.312.609,5.049,9.742,2.26,17.711-.967,22.681a35.572,35.572,0,0,1-14.732,12.235,40.127,40.127,0,0,1-19.042,3.924c-2.035-.121-4.066-.4-6.031-.677a58.414,58.414,0,0,0-7.435-.713h-.212C3234.87,1760.887,3229.479,1763.118,3227.658,1765.306Zm48.019-43.981Z" transform="translate(-3225.772 -1711.964)" fill="#3d4451"/>
            </g>
            <path id="Trazado_46328" data-name="Trazado 46328" d="M3291.794,1797.166a1.227,1.227,0,0,1-.439-2.373c5.073-1.942,4.943-5.629,4.8-9.533-.007-.212-.015-.422-.021-.63a1.227,1.227,0,1,1,2.452-.076q.01.306.021.619c.139,3.942.329,9.342-6.38,11.91A1.226,1.226,0,0,1,3291.794,1797.166Z" transform="translate(-3274.256 -1765.392)" fill="#3d4451"/>
            <path id="Trazado_46329" data-name="Trazado 46329" d="M3313.784,1816.932q-.333,0-.679-.031c-2.754-.248-5.388-1.645-7.712-2.877-.667-.354-1.3-.688-1.913-.989-14.684-7.167-20.17-.01-20.223.063a1.227,1.227,0,0,1-1.978-1.452c.269-.366,6.772-8.871,23.277-.817.654.319,1.332.679,1.987,1.026,2.223,1.179,4.521,2.4,6.782,2.6,3.735.333,6.108-3.641,8.037-7.4,1.458-2.837,4.287-5.273,7.317-4.317a5.333,5.333,0,0,1,3.374,3.2,4,4,0,0,1-.355,3.568,1.227,1.227,0,0,1-2.056-1.339,1.559,1.559,0,0,0,.1-1.4,2.834,2.834,0,0,0-1.8-1.69,2.6,2.6,0,0,0-2.421.636,7.753,7.753,0,0,0-1.977,2.463C3321.954,1811.279,3319.049,1816.932,3313.784,1816.932Z" transform="translate(-3267.127 -1779.734)" fill="#3d4451"/>
            <g id="Grupo_17784" data-name="Grupo 17784" transform="translate(29.542 21.101)">
              <path id="Trazado_46330" data-name="Trazado 46330" d="M3348,1800.663a14.344,14.344,0,0,1,6.951,7.278" transform="translate(-3346.773 -1799.436)" fill="#fff"/>
              <path id="Trazado_46331" data-name="Trazado 46331" d="M3351.3,1805.52a1.227,1.227,0,0,1-1.129-.746,13.112,13.112,0,0,0-6.292-6.626,1.227,1.227,0,0,1,.939-2.266,15.512,15.512,0,0,1,7.61,7.931,1.227,1.227,0,0,1-1.128,1.708Z" transform="translate(-3343.126 -1795.788)" fill="#3d4451"/>
            </g>
            <path id="Trazado_46332" data-name="Trazado 46332" d="M3377.358,1762.53a1.227,1.227,0,0,1-.667-2.257c.119-.077,9.053-5.954,11.725-13.895a1.227,1.227,0,1,1,2.325.782c-2.952,8.776-12.32,14.915-12.717,15.172A1.22,1.22,0,0,1,3377.358,1762.53Z" transform="translate(-3338.28 -1737.09)" fill="#3d4451"/>
            <path id="Trazado_46333" data-name="Trazado 46333" d="M3402.487,1764.5a1.227,1.227,0,0,1-.657-2.264c4-2.529,9.4-6.934,12.416-13.563a19.984,19.984,0,0,0,1.908-6.925,1.228,1.228,0,0,1,1.226-1.195h.031a1.224,1.224,0,0,1,1.2,1.251c-.011.527-.451,13.006-15.466,22.5A1.22,1.22,0,0,1,3402.487,1764.5Z" transform="translate(-3357.083 -1733.354)" fill="#3d4451"/>
            <path id="Trazado_46334" data-name="Trazado 46334" d="M3459.825,1768.885a1.227,1.227,0,0,1-1.065-1.834c1.183-2.084,3.957-8.464,1.283-10.39-.679-.489-1.221-.655-1.612-.493-.842.349-1.5,2.171-1.684,3.292a1.227,1.227,0,0,1-2.423-.385c.067-.422.723-4.154,3.161-5.171a3.972,3.972,0,0,1,3.992.766c1.511,1.089,3.009,3.441,1.562,8.461a26.327,26.327,0,0,1-2.147,5.134A1.226,1.226,0,0,1,3459.825,1768.885Z" transform="translate(-3396.778 -1743.159)" fill="#3d4451"/>
            <g id="Grupo_17785" data-name="Grupo 17785" transform="translate(57.148 10.634)">
              <path id="Trazado_46335" data-name="Trazado 46335" d="M3462.336,1771.714s5.224-9.131.933-11.992c-4.188-2.793-5.607,4.368-5.607,4.368" transform="translate(-3456.435 -1757.85)" fill="#c7ddeb"/>
              <path id="Trazado_46336" data-name="Trazado 46336" d="M3458.687,1769.3a1.227,1.227,0,0,1-1.064-1.836h0c1.205-2.113,4.035-8.552,1.318-10.363-.927-.618-1.392-.425-1.546-.362-1.14.471-1.959,2.865-2.178,3.95a1.227,1.227,0,0,1-2.406-.479c.093-.471.989-4.635,3.642-5.736a3.948,3.948,0,0,1,3.849.586c1.565,1.043,3.12,3.354,1.639,8.433a26.775,26.775,0,0,1-2.188,5.189A1.226,1.226,0,0,1,3458.687,1769.3Z" transform="translate(-3452.788 -1754.208)" fill="#3d4451"/>
            </g>
          </g>
        </g>
      </g>
      <g id="Grupo_17790" data-name="Grupo 17790" transform="translate(3254.901 1538.959)">
        <ellipse id="Elipse_967" data-name="Elipse 967" cx="14.593" cy="13.47" rx="14.593" ry="13.47" transform="translate(3.733 4.935)" fill="#fdc345"/>
        <g id="Grupo_17789" data-name="Grupo 17789" transform="translate(12.037 7.691)">
          <path id="Trazado_46337" data-name="Trazado 46337" d="M3395.149,1686.692v2.3h-1.55v-2.24a8.657,8.657,0,0,1-4.013-.977v-2.941a6.18,6.18,0,0,0,1.836.924,8.453,8.453,0,0,0,2.177.489v-3.865a8.2,8.2,0,0,1-3.392-2,3.939,3.939,0,0,1-.908-2.628,3.86,3.86,0,0,1,1.178-2.84,4.953,4.953,0,0,1,3.121-1.364v-1.975h1.55v1.932a7.869,7.869,0,0,1,3.344.722v2.867a8.023,8.023,0,0,0-3.344-1.1v4.024a8.518,8.518,0,0,1,3.333,1.917,3.676,3.676,0,0,1,1.009,2.606,3.751,3.751,0,0,1-1.125,2.84A5.373,5.373,0,0,1,3395.149,1686.692Zm-1.55-9.29v-3.365q-1.476.265-1.475,1.539Q3392.123,1676.669,3393.6,1677.4Zm1.55,3.589v3.217q1.518-.233,1.518-1.518Q3396.667,1681.648,3395.149,1680.99Z" transform="translate(-3389.299 -1669.577)" fill="#3d4451"/>
        </g>
        <path id="Trazado_46338" data-name="Trazado 46338" d="M3358.58,1673.218a17.1,17.1,0,1,1,17.1-17.1A17.116,17.116,0,0,1,3358.58,1673.218Zm0-32.179a15.083,15.083,0,1,0,15.083,15.082A15.1,15.1,0,0,0,3358.58,1641.039Z" transform="translate(-3341.484 -1639.025)" fill="#3d4451"/>
        <path id="Trazado_46339" data-name="Trazado 46339" d="M3368.532,1679.822a13.748,13.748,0,1,1,13.748-13.748A13.764,13.764,0,0,1,3368.532,1679.822Zm0-26.238a12.49,12.49,0,1,0,12.49,12.49A12.5,12.5,0,0,0,3368.532,1653.583Z" transform="translate(-3351.436 -1648.977)" fill="#3d4451"/>
      </g>
      <g id="Grupo_17798" data-name="Grupo 17798" transform="translate(3251.235 1505.294)">
        <g id="Grupo_17793" data-name="Grupo 17793" transform="translate(10.888 1.185)">
          <g id="Grupo_17792" data-name="Grupo 17792">
            <g id="Grupo_17791" data-name="Grupo 17791">
              <path id="Trazado_46340" data-name="Trazado 46340" d="M3436.184,1516.514c-.591-2.151-4.205-1.7-6.407-1.27a17.6,17.6,0,0,1-8.853-.841c-3.741-1.269-5.773-1.766-9.4-3.141a23.52,23.52,0,0,0-3.927-1.055c-6.289-.558-31.368-1.467-33.012,19.325a4.17,4.17,0,0,1-.428,1.539c-1.382,2.76-5.949,12.325-3.024,12.74,3.42.485,9.708-1.149,11.783-3.782,1.866-2.368,6.679-7.3,7.631-8.271a4.246,4.246,0,0,1,.388-.349c1.138-.907,6.356-4.818,8.944-2.528,2.915,2.579,7.38,4.49,4.044,11.379-3.089,6.379,24.02-6.873,28.054-8.871a4.254,4.254,0,0,1,1.053-.359l.491-.1a4.223,4.223,0,0,0,3.259-5.253Z" transform="translate(-3370.171 -1510)" fill="#c7ddeb"/>
              <path id="Trazado_46341" data-name="Trazado 46341" d="M3502.149,1592.42c-3.826-.748-7.13,4.915-7.862,5.624a1.6,1.6,0,0,0-.2.231c-3.371,4.783-7.9,5.837-12.708,7.957-3.121,1.377-6.322,2.449-9,4.715a11.491,11.491,0,0,1-2.7,1.935c-1.818.844-4.223.338-4.816-1.584-.647-2.095.471-3.756,1.989-5.287,1.641-1.656,3.991-2.706,5.707-4.253a1.675,1.675,0,0,0,.165-.174l2.247-1.646a1.7,1.7,0,0,0,.269-.45c1.4-3.486,3.066-8.9,8.493-9" transform="translate(-3440.887 -1570.225)" fill="#c7ddeb"/>
            </g>
          </g>
        </g>
        <path id="Trazado_46342" data-name="Trazado 46342" d="M3399.033,1595.734a6.379,6.379,0,0,1-.822-.05l.242-1.877a5.844,5.844,0,0,0,5.934-3.291,11.4,11.4,0,0,1,6.141-6.088c2.889-1.924,6.091-4.266,6.514-4.906l1.578,1.044c-.832,1.257-5.679,4.531-7.145,5.5l-.113.075-.13.04a9.371,9.371,0,0,0-5.123,5.111A7.628,7.628,0,0,1,3399.033,1595.734Z" transform="translate(-3380.265 -1560.837)" fill="#3d4451"/>
        <g id="Grupo_17796" data-name="Grupo 17796" transform="translate(6.462 0)">
          <g id="Grupo_17795" data-name="Grupo 17795">
            <g id="Grupo_17794" data-name="Grupo 17794">
              <path id="Trazado_46343" data-name="Trazado 46343" d="M3385.144,1526.868l-2.381-.117c.3-6.164,2.552-11.116,6.689-14.719,8.69-7.572,23.376-6.915,27.67-6.534a24.156,24.156,0,0,1,4.244,1.128c2.206.836,3.78,1.332,5.6,1.906,1.137.359,2.314.73,3.761,1.22,3.555,1.206,8.587,1.7,12.048-.509l1.285,2.009c-4.173,2.668-10.018,2.141-14.1.758-1.423-.483-2.587-.85-3.712-1.2-1.78-.561-3.461-1.091-5.73-1.951a22.72,22.72,0,0,0-3.61-.982c-4.056-.36-17.914-1-25.894,5.957C3387.389,1516.991,3385.413,1521.378,3385.144,1526.868Z" transform="translate(-3375.168 -1505.294)" fill="#3d4451"/>
              <path id="Trazado_46344" data-name="Trazado 46344" d="M3465.548,1625.391a5.975,5.975,0,0,1-1.958-.324,4.557,4.557,0,0,1-2.681-2.333c-1.307-2.776-.245-6.161,1.482-8.07a9.784,9.784,0,0,1,3.634-2.268,8.792,8.792,0,0,0,2.661-1.516l5.957-9.736,2.034,1.245-6.1,9.969-.092.095a10.251,10.251,0,0,1-3.514,2.131,7.9,7.9,0,0,0-2.811,1.678,5.341,5.341,0,0,0-1.093,5.456,2.2,2.2,0,0,0,1.308,1.1,3.817,3.817,0,0,0,2.856-.192,8.876,8.876,0,0,0,2.19-1.65l.377-.347a29.35,29.35,0,0,1,8.052-4.73c.648-.292,1.318-.595,1.969-.9.99-.468,1.974-.9,2.926-1.309,4.163-1.809,7.759-3.371,10.189-7.415l.05-.082.062-.073c.2-.234,4.915-5.73,10.47-4.969l-.324,2.362c-4-.551-7.769,3.519-8.269,4.082-2.822,4.63-6.906,6.4-11.227,8.283-.935.406-1.9.826-2.858,1.278-.669.316-1.35.623-2.008.919a27.164,27.164,0,0,0-7.425,4.318l-.366.337a11.142,11.142,0,0,1-2.749,2.035A6.205,6.205,0,0,1,3465.548,1625.391Z" transform="translate(-3433.205 -1576.962)" fill="#3d4451"/>
              <path id="Trazado_46345" data-name="Trazado 46345" d="M3352.592,1605.465" transform="translate(-3352.592 -1580.249)" fill="none" stroke="#3d4451" stroke-miterlimit="10" stroke-width="9.47"/>
            </g>
          </g>
          <path id="Trazado_46346" data-name="Trazado 46346" d="M3364.417,1594.912a3.649,3.649,0,0,1-3.446-1.595c-1.312-2.327.339-6.823,5.353-14.576l2,1.295a48.3,48.3,0,0,0-4.879,9.038c-.766,2.148-.5,2.895-.4,3.072.238.421,1.2.392,1.836.373l.185,0c1.18-.029,3.378-.082,5.879-6.575,1.807-4.691,4.616-5.909,8.5-7.594a54.184,54.184,0,0,0,5.722-2.784l1.185,2.068a56.092,56.092,0,0,1-5.959,2.9c-3.727,1.616-5.779,2.506-7.227,6.264-3.074,7.981-6.432,8.063-8.046,8.1l-.17,0C3364.8,1594.907,3364.614,1594.912,3364.417,1594.912Z" transform="translate(-3358.54 -1557.872)" fill="#3d4451"/>
        </g>
        <g id="Grupo_17797" data-name="Grupo 17797" transform="translate(0 5.644)">
          <path id="Trazado_46347" data-name="Trazado 46347" d="M3363.08,1532.449c-.414.026-18.476,4.505-18.867,4.641-2.091.726-3.111,2.937-8.828,10.277-8.819,11.322.38,11.745,5.053,6.212,10.083-11.94,23.02-9.647,23.02-9.647s12.223.782,12.455,10.831" transform="translate(-3330.5 -1531.257)" fill="#c7ddeb"/>
          <path id="Trazado_46348" data-name="Trazado 46348" d="M3330.556,1554.7a3.819,3.819,0,0,1-2.452-.778c-3.023-2.453.432-7.835,2.761-10.825,1.636-2.1,2.885-3.777,3.887-5.125,2.585-3.471,3.654-4.908,5.49-5.546.123-.043,18.46-4.661,19.184-4.705a1.192,1.192,0,0,1,.228,2.372c-1.08.2-17.8,4.351-18.649,4.592-1.134.4-2.013,1.585-4.341,4.711-1.01,1.357-2.267,3.045-3.919,5.166-3.522,4.521-3.807,6.968-3.141,7.509.829.673,4-.029,6.343-2.8,10.147-12.015,22.928-10.25,24.074-10.063a20.218,20.218,0,0,1,6.5,1.754c4.473,2.1,6.893,5.644,7,10.235a1.192,1.192,0,0,1-2.384.055c-.084-3.659-1.959-6.386-5.573-8.106a17.966,17.966,0,0,0-5.769-1.564l-.13-.016a21.842,21.842,0,0,0-7.384.362,25.564,25.564,0,0,0-14.518,8.881C3335.7,1553.251,3332.842,1554.695,3330.556,1554.7Zm29.087-24.607-.067.006C3359.59,1530.094,3359.613,1530.093,3359.643,1530.088Z" transform="translate(-3326.921 -1527.713)" fill="#3d4451"/>
        </g>
        <path id="Trazado_46349" data-name="Trazado 46349" d="M3409.046,1584.907" transform="translate(-3388.372 -1564.866)" fill="#c7ddeb" stroke="#3d4451" stroke-linecap="round" stroke-miterlimit="10" stroke-width="9.47"/>
      </g>
      <path id="Trazado_46350" data-name="Trazado 46350" d="M3245.98,1670.615a1.493,1.493,0,0,1-1.471-1.737,28.829,28.829,0,0,1,14.225-19.081,1.49,1.49,0,0,1,1.435,2.613,26.293,26.293,0,0,0-12.722,16.967A1.492,1.492,0,0,1,3245.98,1670.615Z" transform="translate(-14.005 -107.989)" fill="#f04f4c"/>
      <path id="Trazado_46351" data-name="Trazado 46351" d="M3515.6,1699.5a1.491,1.491,0,0,1-.661-2.827,18.6,18.6,0,0,0,10.312-12.444,21.28,21.28,0,0,0,.531-7.8,1.49,1.49,0,0,1,2.94-.487,23.871,23.871,0,0,1-.553,8.9,21.7,21.7,0,0,1-11.911,14.5A1.483,1.483,0,0,1,3515.6,1699.5Z" transform="translate(-215.75 -126.762)" fill="#4ece46"/>
      <path id="Trazado_46352" data-name="Trazado 46352" d="M3281.084,1653.615a1.131,1.131,0,0,1-.164-.012,1.118,1.118,0,0,1-.944-1.268l.922-6.285-7.217.39a1.118,1.118,0,1,1-.121-2.232l9.947-.538-1.318,8.989A1.118,1.118,0,0,1,3281.084,1653.615Z" transform="translate(-34.967 -103.543)" fill="#f04f4c"/>
      <path id="Trazado_46353" data-name="Trazado 46353" d="M3505.249,1747.936l1.64-9.509a1.242,1.242,0,0,1,2.447.422l-1.11,6.439,8.618-.465a1.242,1.242,0,0,1,.134,2.48Z" transform="translate(-209.123 -173.674)" fill="#4ece46"/>
    </g>
  </g>
</svg>
