<svg xmlns="http://www.w3.org/2000/svg" width="168" height="168" viewBox="0 0 168 168">
  <g id="Group_23642" data-name="Group 23642" transform="translate(-495 -1986)">
    <circle id="Ellipse_973" data-name="Ellipse 973" cx="84" cy="84" r="84" transform="translate(495 1986)" fill="#ededed"/>
    <g id="Group_17716" data-name="Group 17716" transform="translate(-5828.332 449.683)">
      <g id="Group_17707" data-name="Group 17707" transform="translate(6359.332 1613.076)">
        <ellipse id="Ellipse_948" data-name="Ellipse 948" cx="45.092" cy="5.077" rx="45.092" ry="5.077" transform="translate(0 62.104)" fill="#c7ddeb"/>
        <g id="Group_17687" data-name="Group 17687" transform="translate(44.734 45.841)">
          <path id="Path_46204" data-name="Path 46204" d="M6535.555,1892.149v6.4c0,2.493-6.378,4.514-14.247,4.514s-14.248-2.021-14.248-4.514v-6.4" transform="translate(-6506.279 -1892.149)" fill="#fdc345"/>
          <path id="Path_46205" data-name="Path 46205" d="M6519.555,1903.847a35.538,35.538,0,0,1-10.311-1.359c-3.087-.978-4.718-2.338-4.718-3.935v-6.4h1.561v6.4c0,1.559,5.124,3.733,13.468,3.733s13.467-2.174,13.467-3.733v-6.4h1.561v6.4c0,1.6-1.631,2.957-4.718,3.935A35.534,35.534,0,0,1,6519.555,1903.847Z" transform="translate(-6504.526 -1892.149)" fill="#3d4451"/>
        </g>
        <g id="Group_17688" data-name="Group 17688" transform="translate(44.764 40.953)">
          <ellipse id="Ellipse_949" data-name="Ellipse 949" cx="14.248" cy="4.171" rx="14.248" ry="4.171" transform="translate(0.75 0.75)" fill="#fdc345"/>
          <path id="Path_46206" data-name="Path 46206" d="M6519.623,1886.127c-7.453,0-15-1.69-15-4.921s7.545-4.922,15-4.922,15,1.691,15,4.922S6527.075,1886.127,6519.623,1886.127Zm0-8.343c-8.239,0-13.5,2.026-13.5,3.421s5.258,3.421,13.5,3.421,13.5-2.026,13.5-3.421S6527.862,1877.784,6519.623,1877.784Z" transform="translate(-6504.625 -1876.284)" fill="#3d4451"/>
        </g>
        <g id="Group_17689" data-name="Group 17689" transform="translate(44.734 37.097)">
          <path id="Path_46207" data-name="Path 46207" d="M6532.2,1863.768v5.712c0,2.224-5.69,4.026-12.708,4.026s-12.709-1.8-12.709-4.026v-5.712" transform="translate(-6506.089 -1863.768)" fill="#fdc345"/>
          <path id="Path_46208" data-name="Path 46208" d="M6517.931,1874.2c-8.8,0-13.4-2.375-13.4-4.722v-5.712h1.392v5.712c0,1.39,4.57,3.33,12.012,3.33s12.012-1.939,12.012-3.33v-5.712h1.392v5.712C6531.334,1871.827,6526.731,1874.2,6517.931,1874.2Z" transform="translate(-6504.526 -1863.769)" fill="#3d4451"/>
        </g>
        <g id="Group_17690" data-name="Group 17690" transform="translate(44.761 32.737)">
          <ellipse id="Ellipse_950" data-name="Ellipse 950" cx="12.708" cy="3.721" rx="12.708" ry="3.721" transform="translate(0.669 0.669)" fill="#fdc345"/>
          <path id="Path_46209" data-name="Path 46209" d="M6517.991,1858.4c-6.647,0-13.377-1.508-13.377-4.39s6.729-4.39,13.377-4.39,13.377,1.508,13.377,4.39S6524.638,1858.4,6517.991,1858.4Zm0-7.441c-7.349,0-12.039,1.807-12.039,3.051s4.69,3.052,12.039,3.052,12.039-1.808,12.039-3.052S6525.34,1850.955,6517.991,1850.955Z" transform="translate(-6504.614 -1849.617)" fill="#3d4451"/>
        </g>
        <g id="Group_17691" data-name="Group 17691" transform="translate(16.19 44.534)">
          <path id="Path_46210" data-name="Path 46210" d="M6440.627,1887.908v5.933c0,2.309-5.91,4.182-13.2,4.182s-13.2-1.872-13.2-4.182v-5.933" transform="translate(-6413.504 -1887.908)" fill="#fdc345"/>
          <path id="Path_46211" data-name="Path 46211" d="M6425.8,1898.746a32.936,32.936,0,0,1-9.553-1.259c-2.858-.905-4.37-2.167-4.37-3.646v-5.933h1.446v5.933c0,1.444,4.747,3.459,12.477,3.459s12.477-2.014,12.477-3.459v-5.933h1.446v5.933c0,1.479-1.512,2.74-4.372,3.646A32.917,32.917,0,0,1,6425.8,1898.746Z" transform="translate(-6411.881 -1887.908)" fill="#3d4451"/>
        </g>
        <g id="Group_17692" data-name="Group 17692" transform="translate(16.218 40.006)">
          <ellipse id="Ellipse_951" data-name="Ellipse 951" cx="13.2" cy="3.865" rx="13.2" ry="3.865" transform="translate(0.695 0.695)" fill="#fdc345"/>
          <path id="Path_46212" data-name="Path 46212" d="M6425.867,1882.329c-6.905,0-13.895-1.566-13.895-4.56s6.989-4.559,13.895-4.559,13.9,1.566,13.9,4.559S6432.772,1882.329,6425.867,1882.329Zm0-7.729c-7.634,0-12.506,1.877-12.506,3.169s4.872,3.17,12.506,3.17,12.5-1.878,12.5-3.17S6433.5,1874.6,6425.867,1874.6Z" transform="translate(-6411.973 -1873.21)" fill="#3d4451"/>
        </g>
        <g id="Group_17693" data-name="Group 17693" transform="translate(28.872 54.338)">
          <path id="Path_46213" data-name="Path 46213" d="M6484.072,1919.729v6.4c0,2.493-6.378,4.514-14.247,4.514s-14.248-2.021-14.248-4.514v-6.4" transform="translate(-6454.796 -1919.729)" fill="#fdc345"/>
          <path id="Path_46214" data-name="Path 46214" d="M6468.071,1931.427a35.548,35.548,0,0,1-10.31-1.359c-3.085-.978-4.717-2.339-4.717-3.935v-6.4h1.561v6.4c0,1.559,5.123,3.733,13.466,3.733s13.468-2.174,13.468-3.733v-6.4h1.562v6.4c0,1.6-1.632,2.958-4.718,3.935A35.545,35.545,0,0,1,6468.071,1931.427Z" transform="translate(-6453.044 -1919.729)" fill="#3d4451"/>
        </g>
        <g id="Group_17694" data-name="Group 17694" transform="translate(28.903 49.45)">
          <ellipse id="Ellipse_952" data-name="Ellipse 952" cx="14.248" cy="4.171" rx="14.248" ry="4.171" transform="translate(0.75 0.75)" fill="#fdc345"/>
          <path id="Path_46215" data-name="Path 46215" d="M6468.14,1913.707c-7.453,0-15-1.69-15-4.922s7.544-4.922,15-4.922,15,1.69,15,4.922S6475.594,1913.707,6468.14,1913.707Zm0-8.343c-8.239,0-13.5,2.027-13.5,3.422s5.258,3.421,13.5,3.421,13.5-2.026,13.5-3.421S6476.38,1905.364,6468.14,1905.364Z" transform="translate(-6453.143 -1903.864)" fill="#3d4451"/>
        </g>
        <g id="Group_17695" data-name="Group 17695" transform="translate(28.959 44.131)">
          <path id="Path_46216" data-name="Path 46216" d="M6484.353,1886.6v6.4c0,2.493-6.379,4.513-14.248,4.513s-14.247-2.021-14.247-4.513v-6.4" transform="translate(-6455.077 -1886.6)" fill="#fdc345"/>
          <path id="Path_46217" data-name="Path 46217" d="M6468.352,1898.3a35.54,35.54,0,0,1-10.31-1.358c-3.087-.978-4.718-2.339-4.718-3.935v-6.4h1.562v6.4c0,1.559,5.124,3.733,13.467,3.733s13.467-2.174,13.467-3.733v-6.4h1.561v6.4c0,1.6-1.631,2.957-4.718,3.935A35.548,35.548,0,0,1,6468.352,1898.3Z" transform="translate(-6453.324 -1886.6)" fill="#3d4451"/>
        </g>
        <g id="Group_17696" data-name="Group 17696" transform="translate(28.989 39.243)">
          <ellipse id="Ellipse_953" data-name="Ellipse 953" cx="14.248" cy="4.171" rx="14.248" ry="4.171" transform="translate(0.75 0.75)" fill="#fdc345"/>
          <path id="Path_46218" data-name="Path 46218" d="M6468.42,1880.578c-7.453,0-15-1.69-15-4.922s7.545-4.922,15-4.922,15,1.691,15,4.922S6475.874,1880.578,6468.42,1880.578Zm0-8.343c-8.239,0-13.5,2.027-13.5,3.421s5.258,3.421,13.5,3.421,13.5-2.026,13.5-3.421S6476.66,1872.235,6468.42,1872.235Z" transform="translate(-6453.423 -1870.735)" fill="#3d4451"/>
        </g>
        <g id="Group_17698" data-name="Group 17698" transform="translate(28.282 0)">
          <ellipse id="Ellipse_954" data-name="Ellipse 954" cx="13.018" cy="13.065" rx="13.018" ry="13.065" transform="translate(5.53 5.722)" fill="#fdc345"/>
          <g id="Group_17697" data-name="Group 17697" transform="translate(10.349 5.697)">
            <path id="Path_46219" data-name="Path 46219" d="M6490.936,1780.036v2.448h-1.647v-2.38a9.2,9.2,0,0,1-4.264-1.038v-3.125a6.566,6.566,0,0,0,1.951.981,8.986,8.986,0,0,0,2.313.519v-4.106a8.712,8.712,0,0,1-3.6-2.126,4.185,4.185,0,0,1-.965-2.792,4.1,4.1,0,0,1,1.252-3.018,5.268,5.268,0,0,1,3.316-1.45v-2.1h1.647v2.053a8.358,8.358,0,0,1,3.553.767v3.046a8.53,8.53,0,0,0-3.553-1.173v4.275a9.048,9.048,0,0,1,3.541,2.036,3.9,3.9,0,0,1,1.072,2.769,3.985,3.985,0,0,1-1.2,3.017A5.707,5.707,0,0,1,6490.936,1780.036Zm-1.647-9.87v-3.575q-1.567.282-1.567,1.635Q6487.721,1769.387,6489.288,1770.165Zm1.647,3.813v3.417q1.613-.247,1.612-1.613Q6492.548,1774.678,6490.936,1773.978Z" transform="translate(-6484.72 -1761.852)" fill="#3d4451"/>
          </g>
          <path id="Path_46220" data-name="Path 46220" d="M6466.859,1774.823a15.73,15.73,0,1,1,15.73-15.73A15.748,15.748,0,0,1,6466.859,1774.823Zm0-29.854a14.123,14.123,0,1,0,14.123,14.123A14.139,14.139,0,0,0,6466.859,1744.969Z" transform="translate(-6451.129 -1743.362)" fill="#3d4451"/>
          <path id="Path_46221" data-name="Path 46221" d="M6473.821,1778.685a12.63,12.63,0,1,1,12.63-12.63A12.645,12.645,0,0,1,6473.821,1778.685Zm0-24.342a11.712,11.712,0,1,0,11.712,11.712A11.725,11.725,0,0,0,6473.821,1754.343Z" transform="translate(-6458.091 -1750.325)" fill="#3d4451"/>
        </g>
        <g id="Group_17699" data-name="Group 17699" transform="translate(28.872 33.945)">
          <path id="Path_46222" data-name="Path 46222" d="M6484.072,1853.537v6.4c0,2.493-6.378,4.513-14.247,4.513s-14.248-2.021-14.248-4.513v-6.4" transform="translate(-6454.796 -1853.537)" fill="#fdc345"/>
          <path id="Path_46223" data-name="Path 46223" d="M6468.071,1865.235a35.556,35.556,0,0,1-10.31-1.359c-3.085-.978-4.717-2.339-4.717-3.936v-6.4h1.561v6.4c0,1.559,5.123,3.733,13.466,3.733s13.468-2.174,13.468-3.733v-6.4h1.562v6.4c0,1.6-1.632,2.958-4.718,3.936A35.553,35.553,0,0,1,6468.071,1865.235Z" transform="translate(-6453.044 -1853.537)" fill="#3d4451"/>
        </g>
        <g id="Group_17700" data-name="Group 17700" transform="translate(28.903 29.057)">
          <ellipse id="Ellipse_955" data-name="Ellipse 955" cx="14.248" cy="4.171" rx="14.248" ry="4.171" transform="translate(0.75 0.75)" fill="#fdc345"/>
          <path id="Path_46224" data-name="Path 46224" d="M6468.14,1847.515c-7.453,0-15-1.69-15-4.921s7.544-4.922,15-4.922,15,1.69,15,4.922S6475.594,1847.515,6468.14,1847.515Zm0-8.343c-8.239,0-13.5,2.026-13.5,3.421s5.258,3.421,13.5,3.421,13.5-2.026,13.5-3.421S6476.38,1839.172,6468.14,1839.172Z" transform="translate(-6453.143 -1837.672)" fill="#3d4451"/>
        </g>
        <g id="Group_17701" data-name="Group 17701" transform="translate(29.801 24.774)">
          <path id="Path_46225" data-name="Path 46225" d="M6485.921,1823.77v6.164c0,2.4-6.139,4.344-13.713,4.344s-13.713-1.945-13.713-4.344v-6.164" transform="translate(-6457.744 -1823.77)" fill="#fdc345"/>
          <path id="Path_46226" data-name="Path 46226" d="M6470.522,1835.029a34.2,34.2,0,0,1-9.924-1.307c-2.97-.941-4.54-2.251-4.54-3.788v-6.163h1.5v6.163c0,1.5,4.931,3.593,12.962,3.593s12.962-2.092,12.962-3.593v-6.163h1.5v6.163c0,1.537-1.57,2.847-4.541,3.788A34.2,34.2,0,0,1,6470.522,1835.029Z" transform="translate(-6456.058 -1823.771)" fill="#3d4451"/>
        </g>
        <g id="Group_17702" data-name="Group 17702" transform="translate(29.83 20.069)">
          <ellipse id="Ellipse_956" data-name="Ellipse 956" cx="13.713" cy="4.015" rx="13.713" ry="4.015" transform="translate(0.722 0.722)" fill="#fdc345"/>
          <path id="Path_46227" data-name="Path 46227" d="M6470.586,1817.974c-7.172,0-14.435-1.627-14.435-4.737s7.263-4.737,14.435-4.737,14.436,1.627,14.436,4.737S6477.76,1817.974,6470.586,1817.974Zm0-8.03c-7.93,0-12.991,1.95-12.991,3.293s5.061,3.293,12.991,3.293,12.992-1.951,12.992-3.293S6478.517,1809.944,6470.586,1809.944Z" transform="translate(-6456.151 -1808.5)" fill="#3d4451"/>
        </g>
        <g id="Group_17703" data-name="Group 17703" transform="translate(4.187 56.577)">
          <path id="Path_46228" data-name="Path 46228" d="M6405.632,1926.995v6.751c0,2.628-6.725,4.759-15.021,4.759s-15.021-2.13-15.021-4.759v-6.751" transform="translate(-6374.768 -1926.995)" fill="#fdc345"/>
          <path id="Path_46229" data-name="Path 46229" d="M6388.764,1939.327a37.474,37.474,0,0,1-10.87-1.432c-3.254-1.031-4.974-2.465-4.974-4.149v-6.751h1.646v6.751c0,1.643,5.4,3.936,14.2,3.936s14.2-2.292,14.2-3.936v-6.751h1.646v6.751c0,1.684-1.72,3.118-4.975,4.149A37.468,37.468,0,0,1,6388.764,1939.327Z" transform="translate(-6372.92 -1926.995)" fill="#3d4451"/>
        </g>
        <g id="Group_17704" data-name="Group 17704" transform="translate(4.218 51.424)">
          <ellipse id="Ellipse_957" data-name="Ellipse 957" cx="15.021" cy="4.398" rx="15.021" ry="4.398" transform="translate(0.791 0.791)" fill="#fdc345"/>
          <path id="Path_46230" data-name="Path 46230" d="M6388.835,1920.646c-7.857,0-15.812-1.782-15.812-5.189s7.955-5.188,15.812-5.188,15.812,1.782,15.812,5.188S6396.692,1920.646,6388.835,1920.646Zm0-8.8c-8.687,0-14.229,2.136-14.229,3.607s5.543,3.607,14.229,3.607,14.23-2.136,14.23-3.607S6397.521,1911.851,6388.835,1911.851Z" transform="translate(-6373.023 -1910.269)" fill="#3d4451"/>
        </g>
        <g id="Group_17705" data-name="Group 17705" transform="translate(54.553 56.415)">
          <path id="Path_46231" data-name="Path 46231" d="M6567.425,1926.471v6.4c0,2.493-6.378,4.514-14.247,4.514s-14.248-2.021-14.248-4.514v-6.4" transform="translate(-6538.149 -1926.471)" fill="#fdc345"/>
          <path id="Path_46232" data-name="Path 46232" d="M6551.425,1938.169a35.549,35.549,0,0,1-10.311-1.358c-3.086-.978-4.717-2.339-4.717-3.935v-6.4h1.561v6.4c0,1.559,5.124,3.733,13.467,3.733s13.467-2.174,13.467-3.733v-6.4h1.561v6.4c0,1.6-1.632,2.958-4.718,3.935A35.547,35.547,0,0,1,6551.425,1938.169Z" transform="translate(-6536.397 -1926.472)" fill="#3d4451"/>
        </g>
        <g id="Group_17706" data-name="Group 17706" transform="translate(54.584 51.528)">
          <ellipse id="Ellipse_958" data-name="Ellipse 958" cx="14.248" cy="4.171" rx="14.248" ry="4.171" transform="translate(0.75 0.75)" fill="#fdc345"/>
          <path id="Path_46233" data-name="Path 46233" d="M6551.494,1920.449c-7.453,0-15-1.69-15-4.921s7.544-4.922,15-4.922,15,1.69,15,4.922S6558.946,1920.449,6551.494,1920.449Zm0-8.343c-8.24,0-13.5,2.026-13.5,3.421s5.258,3.421,13.5,3.421,13.5-2.027,13.5-3.421S6559.733,1912.106,6551.494,1912.106Z" transform="translate(-6536.496 -1910.606)" fill="#3d4451"/>
        </g>
      </g>
      <g id="Group_17715" data-name="Group 17715" transform="translate(6376.025 1555.061)">
        <g id="Group_17710" data-name="Group 17710" transform="translate(11.424 1.756)">
          <g id="Group_17709" data-name="Group 17709">
            <g id="Group_17708" data-name="Group 17708">
              <path id="Path_46234" data-name="Path 46234" d="M6508.543,1561.753c-1.154-2.006-4.57-.522-6.607.544a17.385,17.385,0,0,1-8.884,1.675c-4-.216-6.12-.138-10.039-.493a23,23,0,0,0-4.124.054c-6.3,1.23-31.076,7.466-27.123,28.957a4.551,4.551,0,0,1-.007,1.678c-.615,3.185-2.523,14.159.449,13.744,3.475-.485,9.189-3.931,10.515-7.186,1.191-2.926,4.581-9.286,5.252-10.54a4.6,4.6,0,0,1,.286-.464c.871-1.242,4.929-6.685,8.073-5.108,3.542,1.776,8.42,2.434,7,10.351-1.315,7.331,21.658-13.8,25.07-16.974a4.34,4.34,0,0,1,.934-.664l.454-.24a4.539,4.539,0,0,0,1.783-6.241Z" transform="translate(-6450.589 -1560.761)" fill="#c7ddeb"/>
              <path id="Path_46235" data-name="Path 46235" d="M6565.219,1619.84c-3.942.336-5.66,7-6.186,7.929a1.728,1.728,0,0,0-.13.289c-2.019,5.8-6.17,8.156-10.3,11.671-2.685,2.283-5.529,4.279-7.547,7.336a12.113,12.113,0,0,1-2.121,2.726c-1.552,1.372-4.04,1.547-5.135-.227-1.193-1.934-.543-3.933.532-5.914,1.161-2.142,3.18-3.875,4.445-5.927a1.881,1.881,0,0,0,.114-.223l1.758-2.3a1.872,1.872,0,0,0,.144-.532c.439-3.926.617-9.876,5.9-11.525" transform="translate(-6507.719 -1601.638)" fill="#c7ddeb"/>
            </g>
          </g>
        </g>
        <path id="Path_46236" data-name="Path 46236" d="M6474.449,1658.935l-.328-2.137a5.963,5.963,0,0,0,4.835-4.95,12.259,12.259,0,0,1,4.4-7.947c2.257-2.705,4.8-6.038,5.04-6.788l2.062.652c-.481,1.52-4.354,6.222-5.531,7.627l-.1.118-.128.086a9.925,9.925,0,0,0-3.607,6.58A8.111,8.111,0,0,1,6474.449,1658.935Z" transform="translate(-6455.448 -1611.833)" fill="#3d4451"/>
        <g id="Group_17713" data-name="Group 17713" transform="translate(5.161)">
          <g id="Group_17712" data-name="Group 17712">
            <g id="Group_17711" data-name="Group 17711">
              <path id="Path_46237" data-name="Path 46237" d="M6450.683,1589.559c-1.356-6.333-.439-11.975,2.726-16.77,6.489-9.829,20.739-13.275,24.951-14.1a23.611,23.611,0,0,1,4.381-.067c2.388.216,4.063.269,6,.33,1.208.038,2.457.077,4,.161,3.868.208,9.015-.748,11.88-4.056l1.379,1.195c-3.3,3.806-9.062,4.916-13.357,4.684-1.524-.082-2.762-.121-3.96-.159-1.887-.059-3.668-.116-6.111-.337a22.624,22.624,0,0,0-3.865.041c-4.038.788-17.681,4.076-23.779,13.311-2.885,4.371-3.714,9.546-2.464,15.382Z" transform="translate(-6443.971 -1555.061)" fill="#3d4451"/>
              <path id="Path_46238" data-name="Path 46238" d="M6536.811,1654.2c-.113,0-.225,0-.337-.011a4.247,4.247,0,0,1-3.044-1.492c-1.925-2.318-1.794-5.873-.669-8.188a10,10,0,0,1,2.859-3.214,9.281,9.281,0,0,0,2.3-2.426l3.235-11.588,1.759.491-3.29,11.781-.046.087a10.489,10.489,0,0,1-2.784,3.054,8.528,8.528,0,0,0-2.39,2.612c-.848,1.745-.984,4.519.431,6.224a2.436,2.436,0,0,0,1.758.837,4.113,4.113,0,0,0,2.956-1.087,9.645,9.645,0,0,0,1.761-2.368c.089-.148.18-.3.276-.457a30.471,30.471,0,0,1,6.542-7c.565-.488,1.131-.978,1.69-1.478.839-.752,1.686-1.464,2.5-2.152,3.634-3.054,6.771-5.692,8.1-10.585l.048-.133c.128-.287,3.2-7.03,8.676-7.82l.26,1.806c-4.257.614-6.947,6.073-7.243,6.7-1.487,5.4-4.973,8.328-8.663,11.43-.808.679-1.643,1.381-2.461,2.114-.567.508-1.141,1-1.714,1.5a28.683,28.683,0,0,0-6.177,6.564l-.269.448a11.372,11.372,0,0,1-2.083,2.766A5.945,5.945,0,0,1,6536.811,1654.2Z" transform="translate(-6500.615 -1599.501)" fill="#3d4451"/>
              <path id="Path_46239" data-name="Path 46239" d="M6430.263,1686.692" transform="translate(-6430.263 -1646.137)" fill="none" stroke="#3d4451" stroke-miterlimit="10" stroke-width="5.924"/>
            </g>
          </g>
          <path id="Path_46240" data-name="Path 46240" d="M6447.123,1663.288a2.675,2.675,0,0,1-1.949-.753c-1.161-1.139-2.281-4.033,1.361-15.961l1.746.533c-3.376,11.055-2.4,13.561-1.828,14.126.43.421,1.263.2,2.152-.093l.178-.057c1.217-.388,3.484-1.111,4.217-8.625.5-5.107,2.874-7.1,6.162-9.86a56.413,56.413,0,0,0,4.878-4.472l1.321,1.26a58.077,58.077,0,0,1-5.027,4.61c-3.175,2.665-5.092,4.275-5.519,8.639-.747,7.656-3.075,9.421-5.479,10.187l-.167.054A6.7,6.7,0,0,1,6447.123,1663.288Z" transform="translate(-6439.804 -1612.533)" fill="#3d4451"/>
        </g>
        <g id="Group_17714" data-name="Group 17714" transform="translate(0 13.606)">
          <path id="Path_46241" data-name="Path 46241" d="M6441.352,1602.187c-.4.145-16.867,9.827-17.214,10.076-1.851,1.331-2.258,3.856-5.887,12.91-5.6,13.963,3.513,11.767,6.6,4.839,6.67-14.949,19.938-16.322,19.938-16.322s12.166-2.7,15.081,7.4" transform="translate(-6415.558 -1601.274)" fill="#c7ddeb"/>
          <path id="Path_46242" data-name="Path 46242" d="M6416.649,1634.323a3.06,3.06,0,0,1-1.2-.234c-1.476-.625-3.451-2.924-.091-11.306,1.04-2.594,1.814-4.648,2.436-6.3,1.618-4.3,2.224-5.9,3.766-7.013.108-.078,16.85-9.981,17.437-10.193a.913.913,0,0,1,.672,1.7c-.74.374-16.234,9.447-17.061,9.992-1.077.775-1.629,2.242-3.106,6.162-.625,1.659-1.4,3.723-2.449,6.334-2.522,6.291-1.748,8.583-.892,8.945,1.243.527,4.23-1.266,5.815-4.818,6.675-14.959,19.6-16.734,20.63-16.852.937-.187,13.087-2.38,16.1,8.048a.912.912,0,1,1-1.753.506c-2.639-9.141-13.543-6.861-14.007-6.76l-.1.017c-.126.014-12.836,1.528-19.2,15.786C6422.071,1631.851,6419.064,1634.323,6416.649,1634.323Z" transform="translate(-6413.512 -1599.223)" fill="#3d4451"/>
        </g>
        <path id="Path_46243" data-name="Path 46243" d="M6470.89,1656.55" transform="translate(-6453.212 -1625.281)" fill="#c7ddeb" stroke="#3d4451" stroke-linecap="round" stroke-miterlimit="10" stroke-width="8.842"/>
      </g>
    </g>
  </g>
</svg>
