<svg xmlns="http://www.w3.org/2000/svg" width="144.682" height="104.771" viewBox="0 0 144.682 104.771">
  <g id="Grupo_23640" data-name="Grupo 23640" transform="translate(-512 -1551.926)">
    <g id="Grupo_17741" data-name="Grupo 17741" transform="translate(-2013.045 -16.756)">
      <g id="Grupo_17736" data-name="Grupo 17736" transform="translate(2525.045 1594.942)">
        <path id="Trazado_46270" data-name="Trazado 46270" d="M2894.721,1699.39l21.144,28.1,19.917-13.758-20.446-29.453Z" transform="translate(-2792.175 -1678.471)" fill="#7eb9c7"/>
        <path id="Trazado_46271" data-name="Trazado 46271" d="M2568.262,1707.079l-18.725,28.932-20.616-12.963,17.969-30.248Z" transform="translate(-2527.846 -1684.631)" fill="#7eb9c7"/>
        <path id="Trazado_46272" data-name="Trazado 46272" d="M2780.62,1768.566a1.073,1.073,0,0,1-.672-.236l-10.649-8.535q-7.459-5.977-14.912-11.963c-1.277.485-2.582,1.012-3.844,1.522a77.789,77.789,0,0,1-10.651,3.71,6.427,6.427,0,0,1-3.085.165,7.246,7.246,0,0,1-4.51-4.762,2.992,2.992,0,0,1,1.046-3.127l13.3-10.752a1.076,1.076,0,0,1,.228-.141,9.924,9.924,0,0,1,7.339-.382l11.474,3.879,5.82-3.211a1.075,1.075,0,0,1,1.362.274l17.951,22.68a1.075,1.075,0,0,1-.091,1.436l-9.352,9.137A1.071,1.071,0,0,1,2780.62,1768.566Zm-26.147-22.943q.06,0,.122.005a1.974,1.974,0,0,1,1.1.5q7.464,6,14.944,11.99l9.907,7.94,7.978-7.795-16.785-21.207-5.437,3a1.074,1.074,0,0,1-.863.078l-11.923-4.031a7.782,7.782,0,0,0-5.636.246l-13.2,10.67a.855.855,0,0,0-.292.985,5.271,5.271,0,0,0,2.925,3.139,4.622,4.622,0,0,0,2.065-.166,76.093,76.093,0,0,0,10.352-3.615c1.3-.526,2.654-1.071,3.981-1.574A2.062,2.062,0,0,1,2754.473,1745.623Zm.1,2.14Z" transform="translate(-2674.742 -1714.068)" fill="#3d4451"/>
        <path id="Trazado_46273" data-name="Trazado 46273" d="M2634.736,1767.02l-11.649-10.278,15.161-24.12,4.512,1.9,10.419-4.328a8.552,8.552,0,0,1,7.075.234l5.377,2.662-.954,1.927-5.376-2.661a6.4,6.4,0,0,0-5.3-.175l-11.25,4.673-3.657-1.54-13.217,21.026,10.279,9.07Z" transform="translate(-2595.891 -1711.179)" fill="#3d4451"/>
        <path id="Trazado_46274" data-name="Trazado 46274" d="M2666.3,1855.312a5.351,5.351,0,0,1-3.482-1.281h0a5.374,5.374,0,0,1-.605-7.576l3.765-4.418a5.375,5.375,0,0,1,8.182,6.971l-3.765,4.418A5.366,5.366,0,0,1,2666.3,1855.312Zm3.774-13.015q-.13,0-.262.01a3.2,3.2,0,0,0-2.2,1.123l-3.764,4.418a3.225,3.225,0,0,0,.363,4.546h0a3.225,3.225,0,0,0,4.546-.363l3.765-4.418a3.225,3.225,0,0,0-2.449-5.317Z" transform="translate(-2623.234 -1791.106)" fill="#3d4451"/>
        <path id="Trazado_46275" data-name="Trazado 46275" d="M2689.765,1869.213a5.4,5.4,0,0,1-3.516-1.294h0a5.433,5.433,0,0,1-.611-7.65l5.764-6.764a5.427,5.427,0,1,1,8.261,7.039l-5.764,6.764A5.417,5.417,0,0,1,2689.765,1869.213Zm-2.054-3.009a3.176,3.176,0,0,0,4.473-.357l5.764-6.764a3.177,3.177,0,0,0-.357-4.473,3.173,3.173,0,0,0-4.472.358l-5.764,6.765a3.173,3.173,0,0,0,.357,4.472Z" transform="translate(-2640.156 -1799.378)" fill="#3d4451"/>
        <path id="Trazado_46276" data-name="Trazado 46276" d="M2716.166,1890.333a5.148,5.148,0,0,1-3.356-1.239h0l-.226-.193a5.186,5.186,0,0,1-.583-7.312l4.6-5.395a5.188,5.188,0,0,1,7.313-.584l.226.192a5.194,5.194,0,0,1,.584,7.313l-4.6,5.394a5.152,5.152,0,0,1-3.535,1.807C2716.447,1890.327,2716.306,1890.333,2716.166,1890.333Zm-2.011-2.817a3.115,3.115,0,0,0,4.39-.351l4.6-5.394a3.119,3.119,0,0,0-.351-4.391l-.226-.192a3.114,3.114,0,0,0-4.391.35l-4.6,5.394a3.114,3.114,0,0,0,.351,4.391Z" transform="translate(-2659.244 -1815.834)" fill="#3d4451"/>
        <path id="Trazado_46277" data-name="Trazado 46277" d="M2743.9,1907.935a5.234,5.234,0,0,1-3.7-8.936l4.291-4.291a5.236,5.236,0,0,1,7.4,7.405l-4.291,4.29A5.22,5.22,0,0,1,2743.9,1907.935Zm4.29-12.639a3.106,3.106,0,0,0-2.2.911l-4.291,4.29a3.12,3.12,0,0,0,0,4.407h0a3.119,3.119,0,0,0,4.407,0l4.291-4.291a3.115,3.115,0,0,0-2.2-5.318Z" transform="translate(-2679.405 -1829.425)" fill="#3d4451"/>
        <path id="Trazado_46278" data-name="Trazado 46278" d="M2839.08,1844.548a5.345,5.345,0,0,1-3.218-1.073l-18.976-13.881a1.075,1.075,0,0,1,1.269-1.735l18.987,13.889a3.225,3.225,0,1,0,3.881-5.151l-.029-.022-7.378-5.935a1.075,1.075,0,0,1,1.348-1.675l7.365,5.924a5.373,5.373,0,0,1-3.247,9.66Z" transform="translate(-2735.613 -1782.075)" fill="#3d4451"/>
        <path id="Trazado_46279" data-name="Trazado 46279" d="M2825.52,1872.707a5.346,5.346,0,0,1-3.219-1.073l-17.044-12.594a1.075,1.075,0,0,1,1.278-1.729l17.051,12.6a3.225,3.225,0,1,0,3.877-5.155,1.075,1.075,0,1,1,1.29-1.719,5.373,5.373,0,0,1-3.232,9.672Z" transform="translate(-2727.213 -1803.355)" fill="#3d4451"/>
        <path id="Trazado_46280" data-name="Trazado 46280" d="M2803.694,1877.651a5.345,5.345,0,0,1-3.219-1.074l-13.82-10.229a1.075,1.075,0,1,1,1.279-1.728l13.825,10.233a3.225,3.225,0,1,0,3.876-5.155l-13.837-10.672a1.075,1.075,0,1,1,1.313-1.7l13.826,10.664a5.373,5.373,0,0,1-3.243,9.663Z" transform="translate(-2713.772 -1803.355)" fill="#3d4451"/>
        <path id="Trazado_46281" data-name="Trazado 46281" d="M2889.089,1713.441a1.075,1.075,0,0,1-.849-.414l-24.293-31.172a1.075,1.075,0,0,1,.226-1.538l23.648-16.769a1.075,1.075,0,0,1,1.476.225l24.938,32.677a1.075,1.075,0,0,1-.283,1.562l-24.293,15.264A1.073,1.073,0,0,1,2889.089,1713.441Zm-22.754-32.021,23,29.519,22.473-14.12-23.594-30.916Z" transform="translate(-2769.774 -1663.35)" fill="#3d4451"/>
        <path id="Trazado_46282" data-name="Trazado 46282" d="M2549.552,1718.047a1.07,1.07,0,0,1-.574-.167l-23.433-14.834a1.075,1.075,0,0,1-.351-1.454l20.423-34.612a1.075,1.075,0,0,1,1.525-.346l24.293,16.339a1.075,1.075,0,0,1,.3,1.473l-21.283,33.107A1.074,1.074,0,0,1,2549.552,1718.047Zm-21.977-16.26,21.65,13.706,20.136-31.324-22.473-15.114Z" transform="translate(-2525.045 -1665.591)" fill="#3d4451"/>
        <path id="Trazado_46283" data-name="Trazado 46283" d="M2789.469,1923.6a8.128,8.128,0,0,1-3.993-1.053l-.064-.039-3.358-2.211a1.075,1.075,0,0,1,1.182-1.8l3.325,2.189a5.94,5.94,0,0,0,7.573-1.515l.352-.444a1.075,1.075,0,0,1,1.686,1.334l-.352.445A8.085,8.085,0,0,1,2789.469,1923.6Z" transform="translate(-2710.412 -1847.597)" fill="#3d4451"/>
      </g>
      <g id="Grupo_17740" data-name="Grupo 17740" transform="translate(2577.671 1568.682)">
        <g id="Grupo_17738" data-name="Grupo 17738" transform="translate(0 2.092)">
          <g id="Grupo_17737" data-name="Grupo 17737">
            <path id="Trazado_46284" data-name="Trazado 46284" d="M2732.727,1586.929q0,3.628-1.952,5.394a7.678,7.678,0,0,1-5.348,1.766,9.02,9.02,0,0,1-3.754-.751,5.6,5.6,0,0,1-2.593-2.345,7.613,7.613,0,0,1-.93-3.894,10.321,10.321,0,0,1,.721-4.121,5.043,5.043,0,0,1,2.336-2.507,8.786,8.786,0,0,1,4.127-.855,10.1,10.1,0,0,1,3.185.456,5.9,5.9,0,0,1,2.325,1.4,5.834,5.834,0,0,1,1.418,2.289A9.745,9.745,0,0,1,2732.727,1586.929Zm-4.347-.19a7.569,7.569,0,0,0-.652-3.618,2.429,2.429,0,0,0-2.3-1.13,2.726,2.726,0,0,0-1.778.542,2.8,2.8,0,0,0-.907,1.6,12.24,12.24,0,0,0-.244,2.687,12.7,12.7,0,0,0,.244,2.754,2.838,2.838,0,0,0,.9,1.605,2.716,2.716,0,0,0,1.79.541,2.38,2.38,0,0,0,2.337-1.2A8.691,8.691,0,0,0,2728.38,1586.738Zm27.731,13.923q0,3.628-1.953,5.394a7.677,7.677,0,0,1-5.347,1.766,8.992,8.992,0,0,1-3.779-.76,5.748,5.748,0,0,1-2.6-2.336,7.48,7.48,0,0,1-.941-3.894,7.947,7.947,0,0,1,1.732-5.575q1.732-1.871,5.5-1.87a9.993,9.993,0,0,1,3.173.456,6.193,6.193,0,0,1,2.325,1.367,5.535,5.535,0,0,1,1.43,2.27A9.839,9.839,0,0,1,2756.111,1600.661Zm-3.924-.19a7.47,7.47,0,0,0-.651-3.58,2.43,2.43,0,0,0-2.3-1.13,2.791,2.791,0,0,0-1.814.532,2.873,2.873,0,0,0-.918,1.567,11.032,11.032,0,0,0-.268,2.687,7.927,7.927,0,0,0,.662,3.723,2.451,2.451,0,0,0,2.337,1.177,2.38,2.38,0,0,0,2.325-1.206A8.559,8.559,0,0,0,2752.188,1600.471Z" transform="translate(-2717.209 -1578.675)" fill="#f04f4c"/>
            <path id="Trazado_46285" data-name="Trazado 46285" d="M2746.361,1606.312a9.965,9.965,0,0,1-4.17-.845,6.7,6.7,0,0,1-3.02-2.709,8.431,8.431,0,0,1-1.074-4.376,8.871,8.871,0,0,1,1.982-6.214c1.335-1.441,3.417-2.172,6.189-2.172a10.964,10.964,0,0,1,3.472.5,7.162,7.162,0,0,1,2.673,1.576,6.486,6.486,0,0,1,1.673,2.648,10.81,10.81,0,0,1,.516,3.487c0,2.684-.761,4.734-2.262,6.092A8.615,8.615,0,0,1,2746.361,1606.312Zm-.093-14.435c-2.227,0-3.845.528-4.809,1.569a7.1,7.1,0,0,0-1.481,4.935,6.6,6.6,0,0,0,.808,3.412,4.788,4.788,0,0,0,2.188,1.963,8.1,8.1,0,0,0,3.387.675,6.813,6.813,0,0,0,4.717-1.523,6.067,6.067,0,0,0,1.643-4.7,8.962,8.962,0,0,0-.414-2.877,4.627,4.627,0,0,0-1.186-1.89,5.293,5.293,0,0,0-1.978-1.159A9.118,9.118,0,0,0,2746.268,1591.877Zm.517,12.061a3.346,3.346,0,0,1-3.156-1.657,8.684,8.684,0,0,1-.783-4.184,11.849,11.849,0,0,1,.3-2.923,3.8,3.8,0,0,1,1.234-2.06,3.7,3.7,0,0,1,2.409-.744,3.322,3.322,0,0,1,3.117,1.6,8.237,8.237,0,0,1,.776,4.05,9.323,9.323,0,0,1-.733,4.2A3.271,3.271,0,0,1,2746.785,1603.938Zm0-9.687a1.919,1.919,0,0,0-1.218.32,1.985,1.985,0,0,0-.6,1.073,10.221,10.221,0,0,0-.237,2.453,6.891,6.891,0,0,0,.542,3.262c.183.325.52.7,1.517.7s1.321-.374,1.491-.7a7.509,7.509,0,0,0,.521-3.336,6.452,6.452,0,0,0-.525-3.111C2748.108,1594.627,2747.777,1594.251,2746.785,1594.251Zm-23.808-1.671a10,10,0,0,1-4.142-.834,6.55,6.55,0,0,1-3.018-2.729,8.565,8.565,0,0,1-1.058-4.367,11.291,11.291,0,0,1,.8-4.5,5.986,5.986,0,0,1,2.759-2.962,9.742,9.742,0,0,1,4.567-.964,11.081,11.081,0,0,1,3.482.5A6.683,6.683,0,0,1,2730.7,1581a10.728,10.728,0,0,1,.516,3.479c0,2.684-.761,4.734-2.262,6.092A8.614,8.614,0,0,1,2722.977,1592.58Zm-.093-14.473a7.921,7.921,0,0,0-3.687.745,4.1,4.1,0,0,0-1.914,2.051,9.463,9.463,0,0,0-.642,3.746,6.727,6.727,0,0,0,.8,3.42,4.642,4.642,0,0,0,2.166,1.962,8.139,8.139,0,0,0,3.368.667,6.811,6.811,0,0,0,4.717-1.523,6.067,6.067,0,0,0,1.643-4.7,8.866,8.866,0,0,0-.414-2.866,4.857,4.857,0,0,0-1.189-1.925,4.991,4.991,0,0,0-1.961-1.173A9.217,9.217,0,0,0,2722.884,1578.107Zm.093,12.1a3.634,3.634,0,0,1-2.392-.759,3.76,3.76,0,0,1-1.21-2.117,13.483,13.483,0,0,1-.268-2.965,13.021,13.021,0,0,1,.268-2.9,3.72,3.72,0,0,1,1.228-2.112,3.643,3.643,0,0,1,2.374-.754,3.321,3.321,0,0,1,3.116,1.6,8.336,8.336,0,0,1,.777,4.088,9.447,9.447,0,0,1-.72,4.21A3.265,3.265,0,0,1,2722.977,1590.206Zm0-9.725a1.839,1.839,0,0,0-1.182.329,1.88,1.88,0,0,0-.587,1.08,11.366,11.366,0,0,0-.219,2.475,11.868,11.868,0,0,0,.22,2.544,1.944,1.944,0,0,0,.58,1.092,1.837,1.837,0,0,0,1.188.324c1.016,0,1.336-.367,1.5-.687a7.633,7.633,0,0,0,.512-3.349,6.554,6.554,0,0,0-.526-3.149C2724.3,1580.856,2723.969,1580.48,2722.977,1580.48Z" transform="translate(-2714.759 -1576.225)" fill="#3d4451"/>
          </g>
        </g>
        <g id="Grupo_17739" data-name="Grupo 17739" transform="translate(4.01)">
          <path id="Trazado_46286" data-name="Trazado 46286" d="M2738.006,1604.093l-4.327.053a1.082,1.082,0,0,1-.833-1.757l23.44-29.912a1.042,1.042,0,0,1,.862-.4l3.88.156a1.084,1.084,0,0,1,.783,1.751l-22.993,29.7A1.043,1.043,0,0,1,2738.006,1604.093Z" transform="translate(-2731.67 -1571.133)" fill="#f04f4c"/>
          <path id="Trazado_46287" data-name="Trazado 46287" d="M2731.212,1602.636a1.975,1.975,0,0,1-1.78-1.114,2.025,2.025,0,0,1,.221-2.164l23.44-29.912a1.987,1.987,0,0,1,1.639-.762l3.88.156a1.986,1.986,0,0,1,1.723,1.156,2.032,2.032,0,0,1-.234,2.111l-22.993,29.7a1.973,1.973,0,0,1-1.544.773l-4.327.053Zm23.441-32.072a.1.1,0,0,0-.08.042l-23.44,29.912a.152.152,0,0,0-.015.169.1.1,0,0,0,.1.067l4.327-.054a.1.1,0,0,0,.079-.043l22.993-29.7a.151.151,0,0,0,.017-.165.1.1,0,0,0-.093-.07l-3.88-.156Z" transform="translate(-2729.217 -1568.682)" fill="#3d4451"/>
        </g>
      </g>
    </g>
  </g>
</svg>
