<svg xmlns="http://www.w3.org/2000/svg" width="168" height="168" viewBox="0 0 168 168">
  <g id="Group_23643" data-name="Group 23643" transform="translate(-495 -2212)">
    <circle id="Ellipse_974" data-name="Ellipse 974" cx="84" cy="84" r="84" transform="translate(495 2212)" fill="#ededed"/>
    <g id="Group_17735" data-name="Group 17735" transform="translate(-4967.471 711.465)">
      <g id="Group_17725" data-name="Group 17725" transform="translate(5557.318 1600.01)">
        <path id="Path_46255" data-name="Path 46255" d="M5752.715,1825.053a4.226,4.226,0,0,1-.237,1.392l-2.361,6.73a3.175,3.175,0,0,1-1.315.285h-6.751l3.677-9.874a3.539,3.539,0,0,1,4.7-2.176A3.931,3.931,0,0,1,5752.715,1825.053Z" transform="translate(-5740.8 -1819.879)" fill="#fff"/>
        <path id="Path_46256" data-name="Path 46256" d="M5745.107,1831.012h-6.751a1.25,1.25,0,0,1-1.172-1.687l3.676-9.874a5.058,5.058,0,0,1,2.713-2.894,4.6,4.6,0,0,1,3.655.005,5.159,5.159,0,0,1,3.043,4.793,5.461,5.461,0,0,1-.307,1.8l-2.362,6.733a1.252,1.252,0,0,1-.665.726A4.408,4.408,0,0,1,5745.107,1831.012Zm1.314-1.536h0Zm-6.266-.966h4.951a1.916,1.916,0,0,0,.338-.03l2.157-6.148a2.959,2.959,0,0,0,.166-.978,2.7,2.7,0,0,0-1.529-2.494,2.121,2.121,0,0,0-1.685,0,2.511,2.511,0,0,0-1.35,1.468Z" transform="translate(-5737.105 -1816.18)" fill="#3d4451"/>
      </g>
      <g id="Group_17732" data-name="Group 17732" transform="translate(5512.332 1526.849)">
        <g id="Group_17726" data-name="Group 17726" transform="translate(56.856 5.244)">
          <path id="Path_46257" data-name="Path 46257" d="M5787.921,1564.011v-12.546h8.761V1570.1" transform="translate(-5786.94 -1550.485)" fill="#7eb9c7"/>
          <path id="Path_46258" data-name="Path 46258" d="M5794.765,1567.208H5792.8v-17.659H5786v11.565h-1.961v-13.526h10.721Z" transform="translate(-5784.044 -1547.588)" fill="#3d4451"/>
        </g>
        <g id="Group_17731" data-name="Group 17731" transform="translate(0)">
          <path id="Path_46259" data-name="Path 46259" d="M5633.628,1588.9l24.752-18.008,22.1,20.036-1.441-19.606-20.9-19.606-27.391,23.663" transform="translate(-5612.653 -1545.428)" fill="#c7ddeb"/>
          <path id="Path_46260" data-name="Path 46260" d="M5685.349,1616.929h-49.131v-33.824l24.194-18.721,24.937,18.711Zm-46.853-2.278h44.575v-30.417l-22.637-16.985-21.937,16.974Z" transform="translate(-5616.742 -1554.893)" fill="#3d4451"/>
          <g id="Group_17727" data-name="Group 17727">
            <path id="Path_46261" data-name="Path 46261" d="M5642.724,1570.861h9.611L5612.69,1533l-41.807,37.861h10.092l31.715-28.4Z" transform="translate(-5567.928 -1531.445)" fill="#f04f4c"/>
            <path id="Path_46262" data-name="Path 46262" d="M5646.445,1567.4h-12.906l-29.6-27.987-31.259,27.987H5559.2l44.783-40.555Zm-12-2.278h6.315l-36.823-35.166-38.832,35.166h6.7l32.172-28.8Z" transform="translate(-5559.196 -1526.849)" fill="#3d4451"/>
          </g>
          <g id="Group_17728" data-name="Group 17728" transform="translate(36.415 40.643)">
            <rect id="Rectangle_4500" data-name="Rectangle 4500" width="12.254" height="18.458" transform="translate(1.139 1.139)" fill="#7eb9c7"/>
            <path id="Path_46263" data-name="Path 46263" d="M5717.739,1708.318h-14.532v-20.737h14.532Zm-12.254-2.278h9.976v-16.18h-9.976Z" transform="translate(-5703.207 -1687.581)" fill="#3d4451"/>
          </g>
          <g id="Group_17729" data-name="Group 17729" transform="translate(14.464 59.718)">
            <rect id="Rectangle_4501" data-name="Rectangle 4501" width="58.409" height="5.899" transform="translate(1.135 1.134)" fill="#c7ddeb"/>
            <path id="Path_46264" data-name="Path 46264" d="M5677.075,1771.183H5616.4v-8.167h60.677Zm-58.408-2.269h56.14v-3.63h-56.14Z" transform="translate(-5616.398 -1763.016)" fill="#3d4451"/>
          </g>
          <g id="Group_17730" data-name="Group 17730" transform="translate(10.12 66.81)">
            <rect id="Rectangle_4502" data-name="Rectangle 4502" width="65.539" height="6.03" transform="translate(1.075 1.075)" fill="#c7ddeb"/>
            <path id="Path_46265" data-name="Path 46265" d="M5666.906,1799.243h-67.69v-8.181h67.69Zm-65.539-2.151h63.388v-3.879h-63.388Z" transform="translate(-5599.216 -1791.062)" fill="#3d4451"/>
          </g>
        </g>
        <ellipse id="Ellipse_960" data-name="Ellipse 960" cx="1.034" cy="1.015" rx="1.034" ry="1.015" transform="translate(40.032 49.697)" fill="#3d4451"/>
      </g>
      <g id="Group_17734" data-name="Group 17734" transform="translate(5496.47 1592.558)">
        <rect id="Rectangle_4503" data-name="Rectangle 4503" width="15.115" height="22.22" transform="translate(1.882 21.095)" fill="#7eb9c7"/>
        <g id="Group_17733" data-name="Group 17733">
          <path id="Path_46266" data-name="Path 46266" d="M5560.358,1825.4a23.014,23.014,0,0,0,6.3,2.51c.179.013.354.018.534.018h21.24a7.989,7.989,0,0,0,2.137-.293l19.037-5.31,2.243-.625a6.644,6.644,0,0,0,2.073-1l14.677-10.52a4.017,4.017,0,0,0,1.624-3.272,4.143,4.143,0,0,0-.573-2.111,3.464,3.464,0,0,0-4.99-1.2l-10.611,7.274a3.329,3.329,0,0,1-1.842.578h-17.5a3.23,3.23,0,0,1-1.583-.419l-5.78-3.244,9.252-6.008a5.545,5.545,0,0,0,2.44-4.666,5.783,5.783,0,0,0-.558-2.49,4.886,4.886,0,0,0-6.007-2.689l-14.048,4.888a8.794,8.794,0,0,0-3.775,2.592l-2.56,2.966a8.58,8.58,0,0,1-6.493,3.052h-6.368" transform="translate(-5543.361 -1790.422)" fill="#f5fafc"/>
          <path id="Path_46267" data-name="Path 46267" d="M5554.59,1852.45a22.252,22.252,0,0,0,5.9,2.227c.167.011.333.016.5.016h19.88a7.872,7.872,0,0,0,2-.26l17.818-4.709,2.1-.554a6.374,6.374,0,0,0,1.941-.886l13.736-9.331a3.532,3.532,0,0,0,.984-4.774,3.343,3.343,0,0,0-4.671-1.065l-9.931,6.452a2.985,2.985,0,0,1-.493.26,3.109,3.109,0,0,1-1.23.253h-16.379a3.15,3.15,0,0,1-1.48-.371l-5.411-2.877,8.659-5.329a4.9,4.9,0,0,0,1.762-6.347,4.661,4.661,0,0,0-5.622-2.385L5571.5,1827.1a8.251,8.251,0,0,0-3.534,2.3l-2.4,2.63a8.216,8.216,0,0,1-6.077,2.708h-5.96" transform="translate(-5539.106 -1813.478)" fill="#c7ddeb"/>
          <path id="Path_46268" data-name="Path 46268" d="M5584.741,1825.472H5563.5c-.222,0-.426-.007-.625-.022-1.672-.111-5.745-1.976-6.884-2.7a1.251,1.251,0,1,1,1.345-2.109,22.854,22.854,0,0,0,5.714,2.317c.145.01.291.015.451.015h21.241a6.749,6.749,0,0,0,1.8-.247l21.278-5.934a5.379,5.379,0,0,0,1.681-.811l14.676-10.52a2.757,2.757,0,0,0,1.1-2.255,2.9,2.9,0,0,0-.4-1.474,2.368,2.368,0,0,0-1.518-1.144,2.144,2.144,0,0,0-1.691.339l-10.609,7.273a4.592,4.592,0,0,1-2.55.8h-17.5a4.489,4.489,0,0,1-2.2-.579l-5.78-3.243a1.251,1.251,0,0,1-.07-2.14l9.252-6.008a4.314,4.314,0,0,0,1.872-3.617,4.492,4.492,0,0,0-.437-1.951,3.637,3.637,0,0,0-4.467-2.046l-14.047,4.888a7.57,7.57,0,0,0-3.239,2.227l-2.56,2.967a9.856,9.856,0,0,1-7.44,3.486h-6.368a1.251,1.251,0,1,1,0-2.5h6.368a7.357,7.357,0,0,0,5.545-2.618l2.56-2.967a10.076,10.076,0,0,1,4.313-2.957l14.046-4.888a6.1,6.1,0,0,1,7.547,3.333,6.969,6.969,0,0,1,.68,3.028,6.747,6.747,0,0,1-3.011,5.716l-7.516,4.881,3.976,2.23a1.988,1.988,0,0,0,.971.258h17.5a1.924,1.924,0,0,0,.8-.173l.024-.01a1.912,1.912,0,0,0,.316-.178l10.606-7.271a4.624,4.624,0,0,1,3.648-.717,4.842,4.842,0,0,1,3.128,2.313,5.4,5.4,0,0,1,.746,2.747,5.262,5.262,0,0,1-2.147,4.289l-14.676,10.52a7.878,7.878,0,0,1-2.465,1.187l-21.281,5.935A9.25,9.25,0,0,1,5584.741,1825.472Z" transform="translate(-5539.666 -1786.71)" fill="#3d4451"/>
          <path id="Path_46269" data-name="Path 46269" d="M5512.341,1854.433h-14.62a1.251,1.251,0,0,1-1.251-1.251v-31.312a1.251,1.251,0,0,1,1.251-1.251h14.62a1.25,1.25,0,0,1,1.25,1.251v31.312A1.251,1.251,0,0,1,5512.341,1854.433Zm-13.369-2.5h12.117v-28.809h-12.117Z" transform="translate(-5496.47 -1812.045)" fill="#3d4451"/>
        </g>
      </g>
    </g>
  </g>
</svg>
