<svg xmlns="http://www.w3.org/2000/svg" width="168" height="168" viewBox="0 0 168 168">
  <g id="Group_22754" data-name="Group 22754" transform="translate(-504 -1604)">
    <circle id="Ellipse_970" data-name="Ellipse 970" cx="84" cy="84" r="84" transform="translate(504 1604)" fill="#ededed"/>
    <g id="Group_22701" data-name="Group 22701" transform="translate(-2016.294 99.873)">
      <g id="Group_22685" data-name="Group 22685" transform="translate(2589.58 1557.867)">
        <g id="Group_22683" data-name="Group 22683" transform="translate(0 5.394)">
          <path id="Path_50220" data-name="Path 50220" d="M2779.865,1675.3v6.165c0,2.4-6.141,4.345-13.717,4.345s-13.717-1.946-13.717-4.345V1675.3" transform="translate(-2751.681 -1675.296)" fill="#7eb9c7"/>
          <path id="Path_50221" data-name="Path 50221" d="M2762.86,1686.558a34.217,34.217,0,0,1-9.926-1.308c-2.971-.941-4.542-2.251-4.542-3.789V1675.3h1.5v6.165c0,1.5,4.932,3.594,12.966,3.594s12.966-2.093,12.966-3.594V1675.3h1.5v6.165c0,1.537-1.571,2.848-4.542,3.789A34.218,34.218,0,0,1,2762.86,1686.558Z" transform="translate(-2748.392 -1675.296)" fill="#3d4451"/>
        </g>
        <g id="Group_22684" data-name="Group 22684" transform="translate(0 0)">
          <ellipse id="Ellipse_1202" data-name="Ellipse 1202" cx="13.717" cy="4.345" rx="13.717" ry="4.345" transform="translate(0.751 0.751)" fill="#7eb9c7"/>
          <path id="Path_50222" data-name="Path 50222" d="M2762.86,1656.489a34.222,34.222,0,0,1-9.926-1.308c-2.971-.941-4.542-2.252-4.542-3.789s1.571-2.848,4.542-3.789a38.33,38.33,0,0,1,19.853,0c2.971.941,4.542,2.252,4.542,3.789s-1.571,2.848-4.542,3.789A34.222,34.222,0,0,1,2762.86,1656.489Zm0-8.691c-8.033,0-12.966,2.093-12.966,3.594s4.932,3.594,12.966,3.594,12.966-2.093,12.966-3.594S2770.893,1647.8,2762.86,1647.8Z" transform="translate(-2748.392 -1646.296)" fill="#3d4451"/>
        </g>
      </g>
      <g id="Group_22688" data-name="Group 22688" transform="translate(2553.294 1599.942)">
        <g id="Group_22686" data-name="Group 22686" transform="translate(0 5.394)">
          <path id="Path_50223" data-name="Path 50223" d="M2584.767,1901.523v6.165c0,2.4-6.141,4.345-13.716,4.345s-13.717-1.945-13.717-4.345v-6.165" transform="translate(-2556.582 -1901.523)" fill="#7eb9c7"/>
          <path id="Path_50224" data-name="Path 50224" d="M2567.762,1912.784a34.213,34.213,0,0,1-9.926-1.308c-2.971-.941-4.542-2.251-4.542-3.789v-6.165h1.5v6.165c0,1.5,4.932,3.594,12.965,3.594s12.966-2.094,12.966-3.594v-6.165h1.5v6.165c0,1.537-1.571,2.847-4.542,3.789A34.214,34.214,0,0,1,2567.762,1912.784Z" transform="translate(-2553.294 -1901.522)" fill="#3d4451"/>
        </g>
        <g id="Group_22687" data-name="Group 22687">
          <ellipse id="Ellipse_1203" data-name="Ellipse 1203" cx="13.717" cy="4.345" rx="13.717" ry="4.345" transform="translate(0.751 0.751)" fill="#7eb9c7"/>
          <path id="Path_50225" data-name="Path 50225" d="M2567.762,1882.715a34.225,34.225,0,0,1-9.926-1.308c-2.971-.941-4.542-2.252-4.542-3.789s1.571-2.848,4.542-3.789a38.323,38.323,0,0,1,19.853,0c2.971.941,4.542,2.251,4.542,3.789s-1.571,2.848-4.542,3.789A34.227,34.227,0,0,1,2567.762,1882.715Zm0-8.691c-8.033,0-12.965,2.093-12.965,3.594s4.932,3.594,12.965,3.594,12.966-2.093,12.966-3.594S2575.8,1874.025,2567.762,1874.025Z" transform="translate(-2553.294 -1872.522)" fill="#3d4451"/>
        </g>
      </g>
      <g id="Group_22691" data-name="Group 22691" transform="translate(2589.58 1548.452)">
        <g id="Group_22689" data-name="Group 22689" transform="translate(0 4.706)">
          <path id="Path_50226" data-name="Path 50226" d="M2779.865,1620.979v6.165c0,2.4-6.141,4.345-13.717,4.345s-13.717-1.945-13.717-4.345v-6.165" transform="translate(-2751.681 -1620.979)" fill="#fdc345"/>
          <path id="Path_50227" data-name="Path 50227" d="M2762.86,1632.241a34.221,34.221,0,0,1-9.926-1.308c-2.971-.941-4.542-2.251-4.542-3.789v-6.165h1.5v6.165c0,1.5,4.932,3.594,12.966,3.594s12.966-2.093,12.966-3.594v-6.165h1.5v6.165c0,1.537-1.571,2.847-4.542,3.789A34.222,34.222,0,0,1,2762.86,1632.241Z" transform="translate(-2748.392 -1620.979)" fill="#3d4451"/>
        </g>
        <g id="Group_22690" data-name="Group 22690" transform="translate(0.029 0)">
          <ellipse id="Ellipse_1204" data-name="Ellipse 1204" cx="13.717" cy="4.016" rx="13.717" ry="4.016" transform="translate(0.722 0.722)" fill="#fdc345"/>
          <path id="Path_50228" data-name="Path 50228" d="M2762.987,1605.153c-7.175,0-14.439-1.627-14.439-4.738s7.264-4.738,14.439-4.738,14.439,1.627,14.439,4.738S2770.162,1605.153,2762.987,1605.153Zm0-8.032c-7.933,0-12.995,1.951-12.995,3.294s5.062,3.294,12.995,3.294,12.994-1.951,12.994-3.294S2770.92,1597.121,2762.987,1597.121Z" transform="translate(-2748.548 -1595.677)" fill="#3d4451"/>
        </g>
      </g>
      <g id="Group_22694" data-name="Group 22694" transform="translate(2627.162 1600.134)">
        <g id="Group_22692" data-name="Group 22692" transform="translate(0 4.706)">
          <path id="Path_50229" data-name="Path 50229" d="M2981.931,1898.856v6.165c0,2.4-6.141,4.345-13.717,4.345s-13.717-1.945-13.717-4.345v-6.165" transform="translate(-2953.746 -1898.856)" fill="#fdc345"/>
          <path id="Path_50230" data-name="Path 50230" d="M2964.926,1910.118a34.221,34.221,0,0,1-9.926-1.308c-2.971-.941-4.542-2.251-4.542-3.789v-6.165h1.5v6.165c0,1.5,4.932,3.594,12.965,3.594s12.966-2.093,12.966-3.594v-6.165h1.5v6.165c0,1.537-1.571,2.848-4.542,3.789A34.221,34.221,0,0,1,2964.926,1910.118Z" transform="translate(-2950.458 -1898.856)" fill="#3d4451"/>
        </g>
        <g id="Group_22693" data-name="Group 22693" transform="translate(0.029 0)">
          <ellipse id="Ellipse_1205" data-name="Ellipse 1205" cx="13.717" cy="4.016" rx="13.717" ry="4.016" transform="translate(0.722 0.722)" fill="#fdc345"/>
          <path id="Path_50231" data-name="Path 50231" d="M2965.053,1883.03c-7.176,0-14.439-1.627-14.439-4.738s7.264-4.738,14.439-4.738,14.439,1.627,14.439,4.738S2972.229,1883.03,2965.053,1883.03Zm0-8.032c-7.933,0-12.995,1.951-12.995,3.294s5.062,3.294,12.995,3.294,12.995-1.951,12.995-3.294S2972.985,1875,2965.053,1875Z" transform="translate(-2950.614 -1873.554)" fill="#3d4451"/>
        </g>
      </g>
      <g id="Group_22697" data-name="Group 22697" transform="translate(2589.58 1537.662)">
        <g id="Group_22695" data-name="Group 22695" transform="translate(0 5.394)">
          <path id="Path_50232" data-name="Path 50232" d="M2779.865,1566.662v6.165c0,2.4-6.141,4.345-13.717,4.345s-13.717-1.946-13.717-4.345v-6.165" transform="translate(-2751.681 -1566.662)" fill="#f04f4c"/>
          <path id="Path_50233" data-name="Path 50233" d="M2762.86,1577.924a34.222,34.222,0,0,1-9.926-1.308c-2.971-.942-4.542-2.252-4.542-3.789v-6.165h1.5v6.165c0,1.5,4.932,3.594,12.966,3.594s12.966-2.093,12.966-3.594v-6.165h1.5v6.165c0,1.537-1.571,2.847-4.542,3.789A34.222,34.222,0,0,1,2762.86,1577.924Z" transform="translate(-2748.392 -1566.662)" fill="#3d4451"/>
        </g>
        <g id="Group_22696" data-name="Group 22696" transform="translate(0 0)">
          <ellipse id="Ellipse_1206" data-name="Ellipse 1206" cx="13.717" cy="4.345" rx="13.717" ry="4.345" transform="translate(0.751 0.751)" fill="#f04f4c"/>
          <path id="Path_50234" data-name="Path 50234" d="M2762.86,1547.855a34.221,34.221,0,0,1-9.926-1.308c-2.971-.942-4.542-2.252-4.542-3.789s1.571-2.847,4.542-3.789a38.326,38.326,0,0,1,19.853,0c2.971.941,4.542,2.251,4.542,3.789s-1.571,2.848-4.542,3.789A34.222,34.222,0,0,1,2762.86,1547.855Zm0-8.691c-8.033,0-12.966,2.093-12.966,3.594s4.932,3.594,12.966,3.594,12.966-2.094,12.966-3.594S2770.893,1539.165,2762.86,1539.165Z" transform="translate(-2748.392 -1537.662)" fill="#3d4451"/>
        </g>
      </g>
      <g id="Group_22700" data-name="Group 22700" transform="translate(2590.876 1600.487)">
        <g id="Group_22698" data-name="Group 22698" transform="translate(0 5.394)">
          <path id="Path_50235" data-name="Path 50235" d="M2786.833,1904.453v6.165c0,2.4-6.141,4.345-13.717,4.345s-13.717-1.946-13.717-4.345v-6.165" transform="translate(-2758.648 -1904.453)" fill="#f04f4c"/>
          <path id="Path_50236" data-name="Path 50236" d="M2769.828,1915.715a34.222,34.222,0,0,1-9.926-1.308c-2.971-.941-4.542-2.252-4.542-3.789v-6.165h1.5v6.165c0,1.5,4.932,3.594,12.965,3.594s12.966-2.094,12.966-3.594v-6.165h1.5v6.165c0,1.537-1.571,2.848-4.542,3.789A34.224,34.224,0,0,1,2769.828,1915.715Z" transform="translate(-2755.36 -1904.453)" fill="#3d4451"/>
        </g>
        <g id="Group_22699" data-name="Group 22699" transform="translate(0)">
          <ellipse id="Ellipse_1207" data-name="Ellipse 1207" cx="13.717" cy="4.345" rx="13.717" ry="4.345" transform="translate(0.751 0.751)" fill="#f04f4c"/>
          <path id="Path_50237" data-name="Path 50237" d="M2769.828,1885.646a34.222,34.222,0,0,1-9.926-1.308c-2.971-.942-4.542-2.252-4.542-3.789s1.571-2.848,4.542-3.789a38.33,38.33,0,0,1,19.853,0c2.971.941,4.542,2.251,4.542,3.789s-1.571,2.847-4.542,3.789A34.224,34.224,0,0,1,2769.828,1885.646Zm0-8.691c-8.033,0-12.965,2.093-12.965,3.594s4.932,3.594,12.965,3.594,12.966-2.093,12.966-3.594S2777.861,1876.956,2769.828,1876.956Z" transform="translate(-2755.36 -1875.453)" fill="#3d4451"/>
        </g>
      </g>
      <rect id="Rectangle_5154" data-name="Rectangle 5154" width="2.232" height="27.474" transform="translate(2603.409 1573.838)" fill="#3d4451"/>
      <path id="Path_50238" data-name="Path 50238" d="M2626.894,1792.8h-2.232v-19.186h37.48v2.232h-35.249Z" transform="translate(-58.095 -192.07)" fill="#3d4451"/>
      <path id="Path_50239" data-name="Path 50239" d="M2870.208,1792.8h-2.232v-16.954h-35.249v-2.232h37.48Z" transform="translate(-227.463 -192.07)" fill="#3d4451"/>
    </g>
  </g>
</svg>
