<svg xmlns="http://www.w3.org/2000/svg" width="174.616" height="160.783" viewBox="0 0 174.616 160.783">
  <g id="Group_22765" data-name="Group 22765" transform="translate(-5409.656 -1540.306)">
    <path id="Path_50315" data-name="Path 50315" d="M5454.8,1707.96l-3.553-1.974,17.6-31.675,8.959,9.366,15.662-27.616,9.258,12.88L5521.1,1633l9.191,14.2,11.284-16.572,3.359,2.287-14.729,21.634-8.692-13.433-18.2,35.6-9.439-13.133-15.228,26.848-8.924-9.33Z" transform="translate(-26.848 -58.315)" fill="#3d4451"/>
    <g id="Group_22762" data-name="Group 22762" transform="translate(5409.656 1540.306)">
      <ellipse id="Ellipse_1223" data-name="Ellipse 1223" cx="55.406" cy="6.475" rx="55.406" ry="6.475" transform="translate(0 142.9)" fill="#7eb9c7"/>
      <g id="Group_22760" data-name="Group 22760" transform="translate(11.034 60.245)">
        <g id="Group_22759" data-name="Group 22759">
          <g id="Group_22755" data-name="Group 22755" transform="translate(70.367)">
            <rect id="Rectangle_5185" data-name="Rectangle 5185" width="19.103" height="83.322" transform="translate(1.772 1.772)" fill="#fdc345"/>
            <path id="Path_50316" data-name="Path 50316" d="M5661.978,1797.151h-22.648v-86.865h22.648Zm-19.1-3.544h15.56v-79.777h-15.56Z" transform="translate(-5639.329 -1710.285)" fill="#3d4451"/>
          </g>
          <g id="Group_22756" data-name="Group 22756" transform="translate(44.951 21.135)">
            <rect id="Rectangle_5186" data-name="Rectangle 5186" width="17.194" height="62.186" transform="translate(1.772 1.772)" fill="#f04f4c"/>
            <path id="Path_50317" data-name="Path 50317" d="M5588.357,1835.648h-20.738v-65.73h20.738Zm-17.195-3.544h13.65v-58.642h-13.65Z" transform="translate(-5567.619 -1769.917)" fill="#3d4451"/>
          </g>
          <g id="Group_22757" data-name="Group 22757" transform="translate(0 58.07)">
            <rect id="Rectangle_5187" data-name="Rectangle 5187" width="13.969" height="25.606" transform="translate(1.418 1.418)" fill="#c7ddeb"/>
            <path id="Path_50318" data-name="Path 50318" d="M5457.593,1902.569h-16.8v-28.442h16.8Zm-13.969-2.835h11.134v-22.771h-11.134Z" transform="translate(-5440.79 -1874.127)" fill="#3d4451"/>
          </g>
          <g id="Group_22758" data-name="Group 22758" transform="translate(22.155 38.545)">
            <rect id="Rectangle_5188" data-name="Rectangle 5188" width="15.665" height="45.131" transform="translate(1.418 1.418)" fill="#7eb9c7"/>
            <path id="Path_50319" data-name="Path 50319" d="M5521.8,1867.005h-18.5v-47.966h18.5Zm-15.664-2.835h12.829v-42.3h-12.829Z" transform="translate(-5503.298 -1819.039)" fill="#3d4451"/>
          </g>
        </g>
      </g>
      <g id="Group_22761" data-name="Group 22761" transform="translate(14.366 0)">
        <path id="Path_50320" data-name="Path 50320" d="M5562.949,1563.749a61.177,61.177,0,1,0,0,86.517A61.176,61.176,0,0,0,5562.949,1563.749Zm-7.1,79.422a51.142,51.142,0,1,1,0-72.326A51.144,51.144,0,0,1,5555.854,1643.171Z" transform="translate(-5455.563 -1543.873)" fill="#c7ddeb"/>
        <path id="Path_50321" data-name="Path 50321" d="M5820.986,1909.2c2.368,2.368,2.7,6.1.605,8.195l-5.558,5.558c-2.095,2.1-5.826,1.762-8.194-.606l-21.142-21.142c-2.37-2.368-2.59-5.987-.5-8.082l5.558-5.558c2.1-2.1,5.715-1.875,8.083.494Z" transform="translate(-5666.183 -1763.56)" fill="#c7ddeb"/>
        <path id="Path_50322" data-name="Path 50322" d="M5513.353,1666.6a63.113,63.113,0,1,1,44.665-18.47A62.959,62.959,0,0,1,5513.353,1666.6Zm0-122.324a59.189,59.189,0,1,0,41.854,17.336A58.8,58.8,0,0,0,5513.353,1544.281Z" transform="translate(-5450.189 -1540.306)" fill="#3d4451"/>
        <path id="Path_50323" data-name="Path 50323" d="M5532.4,1675.222a52.709,52.709,0,1,1,37.29-15.421A52.571,52.571,0,0,1,5532.4,1675.222Zm-35.167-17.542a49.735,49.735,0,1,0,0-70.335,49.792,49.792,0,0,0,0,70.335Z" transform="translate(-5469.232 -1559.349)" fill="#3d4451"/>
        <path id="Path_50324" data-name="Path 50324" d="M5757.257,1846.484l-17.152-17.152,11-11,17.151,17.152Zm-13.743-17.152,13.743,13.743,7.591-7.591-13.743-13.743Z" transform="translate(-5637.352 -1719.793)" fill="#3d4451"/>
        <path id="Path_50325" data-name="Path 50325" d="M5812.616,1904.312q-.16,0-.319-.007a7.473,7.473,0,0,1-4.97-2.2l-21.142-21.141a7.226,7.226,0,0,1-2.144-4.932,6.613,6.613,0,0,1,1.928-4.9l5.968-5.967a6.657,6.657,0,0,1,4.9-1.928,7.22,7.22,0,0,1,4.932,2.143l21.143,21.142a7.477,7.477,0,0,1,2.2,4.97,6.528,6.528,0,0,1-1.872,4.97l-5.967,5.968A6.492,6.492,0,0,1,5812.616,1904.312Zm-15.964-39a4.545,4.545,0,0,0-3.249,1.323l-5.969,5.968a4.551,4.551,0,0,0-1.32,3.377,5.159,5.159,0,0,0,1.536,3.519l21.142,21.142a5.487,5.487,0,0,0,3.594,1.593,4.506,4.506,0,0,0,3.415-1.266l5.967-5.967a4.476,4.476,0,0,0,1.268-3.415,5.483,5.483,0,0,0-1.594-3.594l-21.142-21.141a5.159,5.159,0,0,0-3.52-1.537Z" transform="translate(-5665.714 -1748.785)" fill="#3d4451"/>
        <path id="Path_50326" data-name="Path 50326" d="M5811.065,1903.61c-.118,0-.237,0-.357-.007a8.322,8.322,0,0,1-5.535-2.447l-21.142-21.142a8.067,8.067,0,0,1-2.392-5.513,7.451,7.451,0,0,1,2.177-5.52l5.967-5.967a7.44,7.44,0,0,1,5.521-2.177,8.068,8.068,0,0,1,5.512,2.392l21.143,21.142a8.323,8.323,0,0,1,2.447,5.535,7.375,7.375,0,0,1-2.121,5.61l-5.967,5.967A7.332,7.332,0,0,1,5811.065,1903.61Zm-15.963-39a3.7,3.7,0,0,0-2.648,1.074l-5.968,5.967a3.713,3.713,0,0,0-1.072,2.752,4.308,4.308,0,0,0,1.288,2.939l21.142,21.142a4.617,4.617,0,0,0,3.028,1.344,3.637,3.637,0,0,0,2.775-1.017l5.967-5.968a3.636,3.636,0,0,0,1.018-2.775,4.619,4.619,0,0,0-1.344-3.028l-21.142-21.142a4.3,4.3,0,0,0-2.937-1.287Z" transform="translate(-5664.163 -1747.231)" fill="#3d4451"/>
        <path id="Path_50327" data-name="Path 50327" d="M5823.5,1920.655a1.035,1.035,0,0,1-.733-.3l-19.83-19.83a1.037,1.037,0,0,1,1.466-1.466l19.83,19.831a1.036,1.036,0,0,1-.733,1.769Z" transform="translate(-5677.718 -1771.711)" fill="#3d4451"/>
      </g>
    </g>
    <g id="Group_22763" data-name="Group 22763" transform="translate(5508.455 1570.394)">
      <circle id="Ellipse_1224" data-name="Ellipse 1224" cx="4.471" cy="4.471" r="4.471" transform="translate(0 6.323) rotate(-45)" fill="#f04f4c"/>
      <path id="Path_50328" data-name="Path 50328" d="M5694.78,1637.863a6.3,6.3,0,1,1,6.3-6.3A6.307,6.307,0,0,1,5694.78,1637.863Zm0-8.942a2.642,2.642,0,1,0,2.642,2.642A2.645,2.645,0,0,0,5694.78,1628.921Z" transform="translate(-5688.457 -1625.24)" fill="#3d4451"/>
    </g>
    <g id="Group_22764" data-name="Group 22764" transform="translate(5420.889 1642.155)">
      <circle id="Ellipse_1225" data-name="Ellipse 1225" cx="4.471" cy="4.471" r="4.471" transform="translate(1.829 1.829)" fill="#f04f4c"/>
      <path id="Path_50329" data-name="Path 50329" d="M5447.65,1840.269a6.3,6.3,0,1,1,6.3-6.3A6.306,6.306,0,0,1,5447.65,1840.269Zm0-8.942a2.642,2.642,0,1,0,2.642,2.642A2.645,2.645,0,0,0,5447.65,1831.327Z" transform="translate(-5441.351 -1827.669)" fill="#3d4451"/>
    </g>
  </g>
</svg>
