<svg xmlns="http://www.w3.org/2000/svg" width="168" height="168" viewBox="0 0 168 168">
  <g id="Group_22753" data-name="Group 22753" transform="translate(-504 -1800)">
    <circle id="Ellipse_1220" data-name="Ellipse 1220" cx="84" cy="84" r="84" transform="translate(504 1800)" fill="#ededed"/>
    <g id="Group_22725" data-name="Group 22725" transform="translate(-82.939 314.521)">
      <g id="Group_22704" data-name="Group 22704" transform="translate(632.236 1527.394)">
        <g id="Group_22702" data-name="Group 22702" transform="translate(0 0)">
          <rect id="Rectangle_5155" data-name="Rectangle 5155" width="2.486" height="36.293" transform="translate(0 26.289)" fill="#3d4451"/>
          <rect id="Rectangle_5156" data-name="Rectangle 5156" width="2.486" height="32.471" transform="translate(4.991 70.572) rotate(-59.174)" fill="#3d4451"/>
          <rect id="Rectangle_5157" data-name="Rectangle 5157" width="33.792" height="2.487" transform="matrix(0.864, -0.504, 0.504, 0.864, 42.181, 85.492)" fill="#3d4451"/>
          <rect id="Rectangle_5158" data-name="Rectangle 5158" width="2.486" height="34.973" transform="translate(75.383 27.697)" fill="#3d4451"/>
          <rect id="Rectangle_5159" data-name="Rectangle 5159" width="2.487" height="34.573" transform="matrix(0.514, -0.858, 0.858, 0.514, 43.029, 2.503)" fill="#3d4451"/>
          <rect id="Rectangle_5160" data-name="Rectangle 5160" width="34.174" height="2.486" transform="matrix(0.863, -0.505, 0.505, 0.863, 4.597, 17.269)" fill="#3d4451"/>
        </g>
        <g id="Group_22703" data-name="Group 22703" transform="translate(14.753 17.976)">
          <ellipse id="Ellipse_1208" data-name="Ellipse 1208" cx="22.301" cy="23.183" rx="22.301" ry="23.183" transform="translate(6.258 5.325)" fill="#c7ddeb"/>
          <path id="Path_50240" data-name="Path 50240" d="M766.313,1687.273c-13.4,0-24.3-11.306-24.3-25.2s10.9-25.2,24.3-25.2,24.3,11.306,24.3,25.2S779.71,1687.273,766.313,1687.273Zm0-47.641c-11.874,0-21.534,10.066-21.534,22.439s9.66,22.439,21.534,22.439,21.534-10.066,21.534-22.439S778.187,1639.632,766.313,1639.632Z" transform="translate(-742.017 -1636.869)" fill="#3d4451"/>
        </g>
        <rect id="Rectangle_5161" data-name="Rectangle 5161" width="14.456" height="1.934" transform="translate(60.257 30.63) rotate(-32.97)" fill="#3d4451"/>
        <rect id="Rectangle_5162" data-name="Rectangle 5162" width="14.468" height="1.934" transform="translate(6.013 64.214) rotate(-32.421)" fill="#3d4451"/>
        <rect id="Rectangle_5163" data-name="Rectangle 5163" width="1.934" height="17.089" transform="matrix(0.579, -0.816, 0.816, 0.579, 58.416, 56.202)" fill="#3d4451"/>
        <rect id="Rectangle_5164" data-name="Rectangle 5164" width="1.934" height="13.289" transform="matrix(0.527, -0.85, 0.85, 0.527, 6.023, 23.851)" fill="#3d4451"/>
      </g>
      <g id="Group_22706" data-name="Group 22706" transform="translate(650.721 1556.184)">
        <g id="Group_22705" data-name="Group 22705" transform="translate(0 0)">
          <path id="Path_50241" data-name="Path 50241" d="M777.049,1689.576h-.025l-1.568.776-.316-1.5,2.174-1.051h1.593v8.542h-1.858Z" transform="translate(-771.746 -1687.657)" fill="#3d4451"/>
          <path id="Path_50242" data-name="Path 50242" d="M810.83,1691.506c0,2.641-1.024,4.455-3.123,4.455-2.124,0-3.06-1.984-3.072-4.4,0-2.471,1.011-4.429,3.135-4.429C809.97,1687.13,810.83,1689.167,810.83,1691.506Zm-4.26.053c-.013,1.958.443,2.891,1.188,2.891s1.15-.972,1.15-2.917c0-1.892-.392-2.891-1.163-2.891C807.037,1688.641,806.557,1689.574,806.569,1691.559Z" transform="translate(-794.895 -1687.13)" fill="#3d4451"/>
          <path id="Path_50243" data-name="Path 50243" d="M842.267,1689.576h-.025l-1.568.776-.316-1.5,2.174-1.051h1.593v8.542h-1.859Z" transform="translate(-822.933 -1687.657)" fill="#3d4451"/>
          <path id="Path_50244" data-name="Path 50244" d="M874.877,1689.576h-.025l-1.568.776-.316-1.5,2.174-1.051h1.593v8.542h-1.858Z" transform="translate(-848.527 -1687.657)" fill="#3d4451"/>
          <path id="Path_50245" data-name="Path 50245" d="M908.658,1691.506c0,2.641-1.024,4.455-3.123,4.455-2.124,0-3.06-1.984-3.072-4.4,0-2.471,1.011-4.429,3.135-4.429C907.8,1687.13,908.658,1689.167,908.658,1691.506Zm-4.26.053c-.013,1.958.442,2.891,1.188,2.891s1.15-.972,1.15-2.917c0-1.892-.392-2.891-1.163-2.891C904.865,1688.641,904.384,1689.574,904.4,1691.559Z" transform="translate(-871.676 -1687.13)" fill="#3d4451"/>
          <path id="Path_50246" data-name="Path 50246" d="M765.559,1742.053c0,2.641-1.024,4.455-3.123,4.455-2.124,0-3.06-1.984-3.072-4.4,0-2.47,1.011-4.429,3.135-4.429C764.7,1737.677,765.559,1739.714,765.559,1742.053Zm-4.26.052c-.013,1.958.443,2.891,1.188,2.891s1.15-.973,1.15-2.917c0-1.892-.392-2.891-1.163-2.891C761.766,1739.188,761.285,1740.121,761.3,1742.106Z" transform="translate(-759.364 -1726.802)" fill="#3d4451"/>
          <path id="Path_50247" data-name="Path 50247" d="M797,1740.123h-.025l-1.568.776-.316-1.5,2.174-1.051h1.593v8.542H797Z" transform="translate(-787.401 -1727.33)" fill="#3d4451"/>
          <path id="Path_50248" data-name="Path 50248" d="M830.777,1742.053c0,2.641-1.024,4.455-3.122,4.455-2.124,0-3.06-1.984-3.072-4.4,0-2.47,1.011-4.429,3.135-4.429C829.917,1737.677,830.777,1739.714,830.777,1742.053Zm-4.26.052c-.013,1.958.443,2.891,1.188,2.891s1.15-.973,1.15-2.917c0-1.892-.392-2.891-1.163-2.891C826.984,1739.188,826.5,1740.121,826.516,1742.106Z" transform="translate(-810.551 -1726.802)" fill="#3d4451"/>
          <path id="Path_50249" data-name="Path 50249" d="M862.215,1740.123h-.025l-1.568.776-.316-1.5,2.174-1.051h1.593v8.542h-1.858Z" transform="translate(-838.589 -1727.33)" fill="#3d4451"/>
          <path id="Path_50250" data-name="Path 50250" d="M894.824,1740.123H894.8l-1.568.776-.316-1.5,2.174-1.051h1.593v8.542h-1.858Z" transform="translate(-864.182 -1727.33)" fill="#3d4451"/>
          <path id="Path_50251" data-name="Path 50251" d="M928.606,1742.053c0,2.641-1.024,4.455-3.123,4.455-2.124,0-3.06-1.984-3.072-4.4,0-2.47,1.011-4.429,3.135-4.429C927.746,1737.677,928.606,1739.714,928.606,1742.053Zm-4.26.052c-.013,1.958.443,2.891,1.188,2.891s1.15-.973,1.15-2.917c0-1.892-.392-2.891-1.163-2.891C924.813,1739.188,924.332,1740.121,924.345,1742.106Z" transform="translate(-887.333 -1726.802)" fill="#3d4451"/>
          <path id="Path_50252" data-name="Path 50252" d="M793.657,1792.6c0,2.641-1.024,4.455-3.122,4.455-2.124,0-3.06-1.984-3.072-4.4,0-2.471,1.011-4.429,3.135-4.429C792.8,1788.225,793.657,1790.262,793.657,1792.6Zm-4.26.053c-.013,1.958.443,2.891,1.188,2.891s1.15-.972,1.15-2.917c0-1.892-.392-2.891-1.163-2.891C789.864,1789.736,789.384,1790.669,789.4,1792.654Z" transform="translate(-781.417 -1766.475)" fill="#3d4451"/>
          <path id="Path_50253" data-name="Path 50253" d="M825.095,1790.671h-.025l-1.568.775-.316-1.5,2.174-1.051h1.593v8.542h-1.858Z" transform="translate(-809.455 -1767.003)" fill="#3d4451"/>
          <path id="Path_50254" data-name="Path 50254" d="M858.876,1792.6c0,2.641-1.024,4.455-3.123,4.455-2.124,0-3.059-1.984-3.072-4.4,0-2.471,1.011-4.429,3.135-4.429C858.016,1788.225,858.876,1790.262,858.876,1792.6Zm-4.26.053c-.013,1.958.442,2.891,1.188,2.891s1.15-.972,1.15-2.917c0-1.892-.392-2.891-1.163-2.891C855.083,1789.736,854.6,1790.669,854.615,1792.654Z" transform="translate(-832.605 -1766.475)" fill="#3d4451"/>
          <path id="Path_50255" data-name="Path 50255" d="M891.485,1792.6c0,2.641-1.024,4.455-3.122,4.455-2.124,0-3.06-1.984-3.072-4.4,0-2.471,1.011-4.429,3.135-4.429C890.625,1788.225,891.485,1790.262,891.485,1792.6Zm-4.26.053c-.013,1.958.443,2.891,1.188,2.891s1.15-.972,1.15-2.917c0-1.892-.392-2.891-1.163-2.891C887.692,1789.736,887.212,1790.669,887.224,1792.654Z" transform="translate(-858.198 -1766.475)" fill="#3d4451"/>
        </g>
      </g>
      <g id="Group_22709" data-name="Group 22709" transform="translate(699.62 1588.257)">
        <g id="Group_22707" data-name="Group 22707" transform="translate(0 4.102)">
          <path id="Path_50256" data-name="Path 50256" d="M989.748,1855.28v4.563c0,1.776,4.537,3.216,10.135,3.216s10.135-1.44,10.135-3.216v-4.563" transform="translate(-989.081 -1855.28)" fill="#7eb9c7"/>
          <path id="Path_50257" data-name="Path 50257" d="M997.45,1863.724c-5.367,0-10.8-1.334-10.8-3.883v-4.563h1.333v4.563c0,1.039,3.688,2.549,9.468,2.549s9.468-1.51,9.468-2.549v-4.563h1.333v4.563C1008.252,1862.391,1002.818,1863.724,997.45,1863.724Z" transform="translate(-986.649 -1855.279)" fill="#3d4451"/>
        </g>
        <g id="Group_22708" data-name="Group 22708" transform="translate(0 0)">
          <ellipse id="Ellipse_1209" data-name="Ellipse 1209" cx="10.135" cy="3.216" rx="10.135" ry="3.216" transform="translate(0.667 0.667)" fill="#7eb9c7"/>
          <path id="Path_50258" data-name="Path 50258" d="M997.45,1843.976c-5.367,0-10.8-1.334-10.8-3.882s5.434-3.883,10.8-3.883,10.8,1.334,10.8,3.883S1002.818,1843.976,997.45,1843.976Zm0-6.432c-5.78,0-9.468,1.51-9.468,2.549s3.688,2.549,9.468,2.549,9.468-1.51,9.468-2.549S1003.23,1837.544,997.45,1837.544Z" transform="translate(-986.649 -1836.211)" fill="#3d4451"/>
        </g>
      </g>
      <g id="Group_22712" data-name="Group 22712" transform="translate(699.62 1543.886)">
        <g id="Group_22710" data-name="Group 22710" transform="translate(0 3.615)">
          <path id="Path_50259" data-name="Path 50259" d="M989.748,1646.771v4.563c0,1.776,4.537,3.216,10.135,3.216s10.135-1.44,10.135-3.216v-4.563" transform="translate(-989.081 -1646.771)" fill="#fdc345"/>
          <path id="Path_50260" data-name="Path 50260" d="M997.45,1655.216c-5.367,0-10.8-1.334-10.8-3.882v-4.563h1.333v4.563c0,1.039,3.688,2.549,9.468,2.549s9.468-1.51,9.468-2.549v-4.563h1.333v4.563C1008.252,1653.882,1002.818,1655.216,997.45,1655.216Z" transform="translate(-986.649 -1646.771)" fill="#3d4451"/>
        </g>
        <g id="Group_22711" data-name="Group 22711" transform="translate(0 0)">
          <ellipse id="Ellipse_1210" data-name="Ellipse 1210" cx="10.135" cy="2.972" rx="10.135" ry="2.972" transform="translate(0.667 0.666)" fill="#fdc345"/>
          <path id="Path_50261" data-name="Path 50261" d="M997.45,1637.246c-5.367,0-10.8-1.25-10.8-3.639s5.434-3.639,10.8-3.639,10.8,1.25,10.8,3.639S1002.818,1637.246,997.45,1637.246Zm0-5.944c-6.126,0-9.468,1.523-9.468,2.305s3.342,2.305,9.468,2.305,9.468-1.523,9.468-2.305S1003.576,1631.3,997.45,1631.3Z" transform="translate(-986.649 -1629.969)" fill="#3d4451"/>
        </g>
      </g>
      <g id="Group_22715" data-name="Group 22715" transform="translate(620.94 1587.804)">
        <g id="Group_22713" data-name="Group 22713" transform="translate(0 4.103)">
          <path id="Path_50262" data-name="Path 50262" d="M624.039,1853.173v4.563c0,1.776,4.537,3.216,10.135,3.216s10.134-1.44,10.134-3.216v-4.563" transform="translate(-623.372 -1853.173)" fill="#7eb9c7"/>
          <path id="Path_50263" data-name="Path 50263" d="M631.741,1861.619c-5.368,0-10.8-1.334-10.8-3.883v-4.563h1.333v4.563c0,1.039,3.688,2.549,9.468,2.549s9.468-1.51,9.468-2.549v-4.563h1.333v4.563C642.543,1860.285,637.109,1861.619,631.741,1861.619Z" transform="translate(-620.94 -1853.174)" fill="#3d4451"/>
        </g>
        <g id="Group_22714" data-name="Group 22714" transform="translate(0 0)">
          <ellipse id="Ellipse_1211" data-name="Ellipse 1211" cx="10.135" cy="3.216" rx="10.135" ry="3.216" transform="translate(0.667 0.667)" fill="#7eb9c7"/>
          <path id="Path_50264" data-name="Path 50264" d="M631.741,1841.869c-5.368,0-10.8-1.334-10.8-3.883s5.434-3.883,10.8-3.883,10.8,1.334,10.8,3.883S637.109,1841.869,631.741,1841.869Zm0-6.432c-5.78,0-9.468,1.51-9.468,2.549s3.688,2.549,9.468,2.549,9.468-1.51,9.468-2.549S637.521,1835.438,631.741,1835.438Z" transform="translate(-620.94 -1834.104)" fill="#3d4451"/>
        </g>
      </g>
      <g id="Group_22718" data-name="Group 22718" transform="translate(620.94 1543.432)">
        <g id="Group_22716" data-name="Group 22716" transform="translate(0 3.615)">
          <path id="Path_50265" data-name="Path 50265" d="M624.039,1644.665v4.563c0,1.776,4.537,3.216,10.135,3.216s10.134-1.44,10.134-3.216v-4.563" transform="translate(-623.372 -1644.665)" fill="#fdc345"/>
          <path id="Path_50266" data-name="Path 50266" d="M631.741,1653.11c-5.368,0-10.8-1.333-10.8-3.882v-4.563h1.333v4.563c0,1.039,3.688,2.549,9.468,2.549s9.468-1.51,9.468-2.549v-4.563h1.333v4.563C642.543,1651.777,637.109,1653.11,631.741,1653.11Z" transform="translate(-620.94 -1644.665)" fill="#3d4451"/>
        </g>
        <g id="Group_22717" data-name="Group 22717" transform="translate(0 0)">
          <ellipse id="Ellipse_1212" data-name="Ellipse 1212" cx="10.135" cy="2.972" rx="10.135" ry="2.972" transform="translate(0.667 0.667)" fill="#fdc345"/>
          <path id="Path_50267" data-name="Path 50267" d="M631.741,1635.14c-5.368,0-10.8-1.25-10.8-3.639s5.434-3.639,10.8-3.639,10.8,1.25,10.8,3.639S637.109,1635.14,631.741,1635.14Zm0-5.944c-6.126,0-9.468,1.523-9.468,2.305s3.342,2.306,9.468,2.306,9.468-1.523,9.468-2.306S637.867,1629.2,631.741,1629.2Z" transform="translate(-620.94 -1627.862)" fill="#3d4451"/>
        </g>
      </g>
      <g id="Group_22721" data-name="Group 22721" transform="translate(660.825 1520.289)">
        <g id="Group_22719" data-name="Group 22719" transform="translate(0 4.102)">
          <path id="Path_50268" data-name="Path 50268" d="M809.426,1539.357v4.563c0,1.776,4.537,3.216,10.135,3.216s10.134-1.44,10.134-3.216v-4.563" transform="translate(-808.76 -1539.357)" fill="#f04f4c"/>
          <path id="Path_50269" data-name="Path 50269" d="M817.129,1547.8c-5.368,0-10.8-1.334-10.8-3.883v-4.563h1.333v4.563c0,1.039,3.688,2.549,9.468,2.549s9.468-1.51,9.468-2.549v-4.563h1.333v4.563C827.93,1546.469,822.5,1547.8,817.129,1547.8Z" transform="translate(-806.328 -1539.357)" fill="#3d4451"/>
        </g>
        <g id="Group_22720" data-name="Group 22720" transform="translate(0 0)">
          <ellipse id="Ellipse_1213" data-name="Ellipse 1213" cx="10.135" cy="3.216" rx="10.135" ry="3.216" transform="translate(0.667 0.667)" fill="#f04f4c"/>
          <path id="Path_50270" data-name="Path 50270" d="M817.129,1528.054c-5.368,0-10.8-1.334-10.8-3.883s5.434-3.882,10.8-3.882,10.8,1.333,10.8,3.882S822.5,1528.054,817.129,1528.054Zm0-6.432c-5.78,0-9.468,1.51-9.468,2.549s3.688,2.55,9.468,2.55,9.468-1.51,9.468-2.55S822.909,1521.622,817.129,1521.622Z" transform="translate(-806.328 -1520.289)" fill="#3d4451"/>
        </g>
      </g>
      <g id="Group_22724" data-name="Group 22724" transform="translate(660.825 1607.741)">
        <g id="Group_22722" data-name="Group 22722" transform="translate(0 4.103)">
          <path id="Path_50271" data-name="Path 50271" d="M809.426,1945.844v4.563c0,1.776,4.537,3.216,10.135,3.216s10.134-1.44,10.134-3.216v-4.563" transform="translate(-808.76 -1945.844)" fill="#f04f4c"/>
          <path id="Path_50272" data-name="Path 50272" d="M817.129,1954.289c-5.368,0-10.8-1.334-10.8-3.883v-4.563h1.333v4.563c0,1.039,3.688,2.549,9.468,2.549s9.468-1.51,9.468-2.549v-4.563h1.333v4.563C827.93,1952.955,822.5,1954.289,817.129,1954.289Z" transform="translate(-806.328 -1945.844)" fill="#3d4451"/>
        </g>
        <g id="Group_22723" data-name="Group 22723" transform="translate(0)">
          <ellipse id="Ellipse_1214" data-name="Ellipse 1214" cx="10.135" cy="3.216" rx="10.135" ry="3.216" transform="translate(0.667 0.667)" fill="#f04f4c"/>
          <path id="Path_50273" data-name="Path 50273" d="M817.129,1934.54c-5.368,0-10.8-1.333-10.8-3.882s5.434-3.883,10.8-3.883,10.8,1.334,10.8,3.883S822.5,1934.54,817.129,1934.54Zm0-6.432c-5.78,0-9.468,1.51-9.468,2.549s3.688,2.549,9.468,2.549,9.468-1.51,9.468-2.549S822.909,1928.109,817.129,1928.109Z" transform="translate(-806.328 -1926.775)" fill="#3d4451"/>
        </g>
      </g>
    </g>
  </g>
</svg>
