<svg xmlns="http://www.w3.org/2000/svg" width="182" height="182" viewBox="0 0 182 182">
  <g id="Group_23636" data-name="Group 23636" transform="translate(0 0)">
    <circle id="Ellipse_1324" data-name="Ellipse 1324" cx="91" cy="91" r="91" transform="translate(0 0)" fill="#965e89"/>
    <g id="Group_23631" data-name="Group 23631" transform="translate(34.977 30.998)">
      <path id="Path_51677" data-name="Path 51677" d="M1944.413,879.672h3.253a1.678,1.678,0,0,0,1.675-1.674v-3.822a1.659,1.659,0,0,1,1.293-1.631c6.84-1.6,10.511-6.421,10.511-12.014,0-6.068-3.135-9.737-11.07-12.538-5.736-2.067-8.069-3.534-8.069-5.668,0-1.868,1.4-3.8,5.735-3.8a20.171,20.171,0,0,1,7.855,1.54,1.675,1.675,0,0,0,2.257-1.119l1.12-4.219a1.669,1.669,0,0,0-1.012-1.99,23.727,23.727,0,0,0-6.814-1.529,1.671,1.671,0,0,1-1.539-1.669v-2.61a1.678,1.678,0,0,0-1.674-1.675h-3.187a1.678,1.678,0,0,0-1.675,1.675v3.316a1.656,1.656,0,0,1-1.261,1.623c-6.359,1.618-10.009,6.017-10.009,11.594,0,6.469,4.868,9.8,12,12.2,5,1.668,7.136,3.268,7.136,5.8,0,2.6-2.6,4.134-6.47,4.134a23.105,23.105,0,0,1-9.28-2.05,1.676,1.676,0,0,0-2.3,1.115l-1.15,4.486a1.665,1.665,0,0,0,.949,1.949,29.056,29.056,0,0,0,8.539,2.128,1.67,1.67,0,0,1,1.512,1.667V878A1.677,1.677,0,0,0,1944.413,879.672Z" transform="translate(-1890.512 -800.022)" fill="#fff"/>
      <path id="Path_51678" data-name="Path 51678" d="M1946.7,856.217a12.729,12.729,0,0,1,4.3-.351V808l9.4,5.427v-11.4l-46.882-27.068a4.936,4.936,0,0,0-5-.032L1889.164,786.1v-11.85h-10.885v18.134L1861.46,802.1v11.4l9.4-5.427v40.844a41.941,41.941,0,0,1,5.937-.755V804.643l34.2-19.744,34.075,19.673v50.606A8.691,8.691,0,0,1,1946.7,856.217Z" transform="translate(-1855.029 -774.254)" fill="#fff"/>
      <path id="Path_51679" data-name="Path 51679" d="M1848.46,966.4c3.6-.9,8.856-2.8,12.459-3.7,2.634-.656,5,.077,7.395,1.35,15.818,8.41,16.62,7.159,34.465,10.157a13.874,13.874,0,0,0,6.72-.378c22.437-6.923,24.335-7.684,47.011-21.89,7.4-4.637,2.876-12.166-5-8.95-1.371.56-2.75,1.1-4.126,1.657.767-2.574-2.963-4.338-6.662-2.962-.824.306-1.73.71-2.722,1.193.3-2.78-3.459-4.51-8.729-2.359-1.28.522-9.076,4.856-11.747,6.04,4.517,1.3,8.891,4.326,7.956,9.737-.622,3.6-3.218,6.483-7.023,6.575-14.716.358-20.874,1.142-30.161-3.112-4.115-1.882-6.525-5.723-8.226-9.825,16.069,10.128,19.644,8.975,38.141,8.526a2.9,2.9,0,0,0,2.787-2.94c.016-4.43-3.344-5.218-9.592-6.365-5.378-.988-9.912-.784-13.925-4.4-7.815-7.039-15.182-10.718-23.039-11.177s-16.2,1.688-25.984,7.52Z" transform="translate(-1848.46 -854.728)" fill="#fff"/>
    </g>
  </g>
</svg>
