<svg xmlns="http://www.w3.org/2000/svg" width="182" height="182" viewBox="0 0 182 182">
  <g id="Group_23633" data-name="Group 23633" transform="translate(0 0.46)">
    <circle id="Ellipse_1325" data-name="Ellipse 1325" cx="91" cy="91" r="91" transform="translate(0 -0.46)" fill="#2ca5c3"/>
    <g id="Group_23632" data-name="Group 23632" transform="translate(31.415 29.63)">
      <path id="Path_51680" data-name="Path 51680" d="M1894.712,1407.478H1897a1.073,1.073,0,0,0,1.044-1.177v-2.684a1.226,1.226,0,0,1,.975-1.145c4.807-1.123,7.419-4.51,7.419-8.438,0-4.263-2.186-6.839-7.763-8.806-4.031-1.453-5.663-2.483-5.663-3.982,0-1.312.989-2.67,4.035-2.67a14.219,14.219,0,0,1,5.522,1.081,1.177,1.177,0,0,0,1.587-.785l.788-2.964a1.174,1.174,0,0,0-.711-1.4,16.111,16.111,0,0,0-4.709-1.074,1.108,1.108,0,0,1-1-1.172v-1.834a1.324,1.324,0,0,0-1.334-1.176h-2.24a1.2,1.2,0,0,0-1.2,1.176v2.329a1.152,1.152,0,0,1-.874,1.14c-4.468,1.137-7.026,4.226-7.026,8.143,0,4.544,3.425,6.886,8.438,8.572,3.516,1.171,5.017,2.3,5.017,4.075,0,1.828-1.826,2.9-4.545,2.9a16.251,16.251,0,0,1-6.521-1.439,1.176,1.176,0,0,0-1.617.782l-.808,3.151a1.168,1.168,0,0,0,.666,1.369,21.179,21.179,0,0,0,6.1,1.495,1.268,1.268,0,0,1,1.167,1.171v2.179C1893.743,1406.949,1894.064,1407.478,1894.712,1407.478Z" transform="translate(-1861.612 -1358.743)" fill="#fff"/>
      <path id="Path_51681" data-name="Path 51681" d="M1902.644,1387.683a29.644,29.644,0,1,0-27.6,18.817,29.938,29.938,0,0,0,3.723-.232q1.284-3.193,2.633-6.358a23.877,23.877,0,1,1,14.664-11.653Q1899.349,1387.931,1902.644,1387.683Z" transform="translate(-1840.532 -1347.254)" fill="#fff"/>
      <path id="Path_51682" data-name="Path 51682" d="M1953.821,1493.673h-.478v-14.334h-2.84a1.939,1.939,0,0,1-1.937-1.912v-1.911a1.938,1.938,0,0,1,1.938-1.91h2.84v-6.689h.01a132.906,132.906,0,0,0-1.071-15.8,10.446,10.446,0,0,0-9.4-9.212c-18.36-1.829-36.8-.674-55.079,1.374a6.627,6.627,0,0,0-5.359,3.913c-3.128,6.964-6.1,13.129-8.879,19.964a267.886,267.886,0,0,0-27.313,4.24c-6.542,1.527-6.659,4.124-6.651,7.946h6.24v1.926a3.84,3.84,0,0,1-3.85,3.807h-2.361v8.6h-.478a3.824,3.824,0,1,0,0,7.645h.573a4.094,4.094,0,0,0,3.7,2.867h.478a19.121,19.121,0,0,1,38.242,0h28.682a19.121,19.121,0,0,1,38.241,0h.479a4.092,4.092,0,0,0,3.7-2.867h.572A3.824,3.824,0,1,0,1953.821,1493.673Zm-41.09-26.756h-31.1c2.2-5.734,4.559-10.989,6.96-16.245h24.14Zm5.734,0v-16.245h21.642a1.157,1.157,0,0,1,.887,1l.384,15.244Z" transform="translate(-1835.209 -1396.203)" fill="#fff"/>
      <path id="Path_51683" data-name="Path 51683" d="M1892.092,1557.586a14.341,14.341,0,1,0-14.341,14.335A14.338,14.338,0,0,0,1892.092,1557.586Zm-20.077,0a5.736,5.736,0,1,1,5.736,5.734A5.734,5.734,0,0,1,1872.015,1557.586Z" transform="translate(-1849.936 -1449.605)" fill="#fff"/>
      <path id="Path_51684" data-name="Path 51684" d="M2017.819,1571.921a14.334,14.334,0,1,0-14.34-14.335A14.337,14.337,0,0,0,2017.819,1571.921Zm0-20.068a5.734,5.734,0,1,1-5.735,5.734A5.735,5.735,0,0,1,2017.819,1551.852Z" transform="translate(-1923.081 -1449.605)" fill="#fff"/>
    </g>
  </g>
</svg>
