<svg xmlns="http://www.w3.org/2000/svg" width="182" height="182" viewBox="0 0 182 182">
  <g id="Group_23649" data-name="Group 23649" transform="translate(-508 -1011)">
    <circle id="Ellipse_1327" data-name="Ellipse 1327" cx="91" cy="91" r="91" transform="translate(508 1011)" fill="#56a67e"/>
    <g id="Group_23637" data-name="Group 23637" transform="translate(304.275 851.746)">
      <path id="Path_51688" data-name="Path 51688" d="M350.071,259.673a1.489,1.489,0,0,0-.037.292,10.96,10.96,0,0,0,9.342,12.108,1.524,1.524,0,0,0,.292.037,10.964,10.964,0,1,0-9.6-12.437Zm4.494,2.487c0-.282.4-.5.681-.5h.635V261.3c0-.2,0-.52,0-.52h-.631a.769.769,0,0,1-.681-.6v-.424a.907.907,0,0,1,.681-.726h.855a7.163,7.163,0,0,1,1.407-2.667,5.981,5.981,0,0,1,4.711-1.994,8.042,8.042,0,0,1,2.625.439.509.509,0,0,1,.327.6l-.328,1.331a.483.483,0,0,1-.247.319.5.5,0,0,1-.407.027,5.859,5.859,0,0,0-1.766-.325,3.109,3.109,0,0,0-2.489,1.048,3.275,3.275,0,0,0-.653,1.218h4.567c.281,0,.365.445.365.726v.424c0,.282-.083.6-.365.6h-4.873a2.84,2.84,0,0,0-.025.54v.337h4.9c.281,0,.365.22.365.5v.424c0,.282-.083.39-.365.39h-4.608a2.41,2.41,0,0,0,.673,1.489,3.464,3.464,0,0,0,2.632,1.1,5.844,5.844,0,0,0,1.789-.31.511.511,0,0,1,.665.373l.276,1.274a.5.5,0,0,1-.291.568,7.1,7.1,0,0,1-2.807.573,6.138,6.138,0,0,1-4.977-2.356,5.045,5.045,0,0,1-1.142-2.713h-.814c-.282,0-.681-.109-.681-.39Z" transform="translate(-61.474 -34.245)" fill="#fff"/>
      <path id="Path_51689" data-name="Path 51689" d="M382.233,206.8a8.772,8.772,0,1,0-8.772-8.772A8.772,8.772,0,0,0,382.233,206.8Zm-4.149-13.868a.377.377,0,0,1,.362-.168h1.725a.378.378,0,0,1,.384.21l1.06,2.381c.259.575.431,1.076.624,1.577a.105.105,0,0,0,.195.013c.2-.492.392-1.027.636-1.586l1.075-2.387a.38.38,0,0,1,.384-.207h1.658a.385.385,0,0,1,.365.182.355.355,0,0,1,0,.391l-2.092,3.494a.487.487,0,0,0-.005.464c.076.135.211.294.365.294h.827c.23,0,.539.026.539.257v.347c0,.232-.308.273-.539.273h-1.784c-.231,0-.308.335-.308.566v.23c0,.231.078.52.308.52h1.784c.23,0,.539.088.539.32v.347c0,.231-.308.21-.539.21h-1.784c-.231,0-.308.4-.308.629v1.834c0,.231-.3.607-.531.607h-1.55c-.232,0-.551-.378-.551-.607v-1.834c0-.23-.057-.629-.289-.629H378.86c-.231,0-.575.019-.575-.21V200.1c0-.23.346-.32.575-.32h1.768c.23,0,.289-.29.289-.52v-.23c0-.23-.057-.566-.289-.566H378.86c-.231,0-.575-.043-.575-.273v-.347c0-.229.346-.257.575-.257h.861c.153,0,.286-.152.363-.286a.564.564,0,0,0,0-.5l-2-3.478A.375.375,0,0,1,378.084,192.93Z" transform="translate(-74.667)" fill="#fff"/>
      <path id="Path_51690" data-name="Path 51690" d="M425.051,237.633a10.087,10.087,0,1,0-11.295,8.713A10.088,10.088,0,0,0,425.051,237.633Zm-6.276,3.331c0,.232-.089.641-.322.641h-6.812c-.232,0-.323-.41-.323-.641v-.671a.417.417,0,0,1,.177-.4,2.866,2.866,0,0,0,1.587-2.389,7,7,0,0,0-.033-.725h-1.224c-.232,0-.507-.084-.507-.315v-.9a.618.618,0,0,1,.507-.536h.922a6.583,6.583,0,0,1-.135-1.3c0-2.1,1.528-3.436,3.794-3.436a4.886,4.886,0,0,1,1.625.254.419.419,0,0,1,.27.482l-.231,1.1a.4.4,0,0,1-.2.272.409.409,0,0,1-.335.035,3.552,3.552,0,0,0-1-.141,1.4,1.4,0,0,0-1.562,1.55,4.856,4.856,0,0,0,.168,1.185h1.879c.232,0,.433.3.433.536v.9c0,.232-.2.315-.433.315h-1.66a3.78,3.78,0,0,1-.148,1.233c0,.008-.006.069-.008.077a2.562,2.562,0,0,1-.821,1.18v.142h4.064c.232,0,.322.082.322.314Z" transform="translate(-92.35 -20.772)" fill="#fff"/>
      <path id="Path_51691" data-name="Path 51691" d="M400.57,320.815a12.281,12.281,0,1,0-12.281-12.281A12.282,12.282,0,0,0,400.57,320.815Zm-5.405-10.14,2.429.009c.79,0,.432.978.954,1.632.66.82,3.335.662,4.017.193a1.208,1.208,0,0,0,.078-1.864c-1.334-1.1-4.735-.882-6.718-2.6-2.257-1.948-1.334-6.447,3.265-6.8.9-.07.184-1.268,1.126-1.263.747,0,1.44-.145,1.436.68,0,1.03,1.474.128,3.286,1.724,1.015.895,1.877,3.092.687,3.088l-2.243-.009c-.7,0-.457-.737-.932-1.3-.563-.667-3.175-.7-3.845-.2a1.147,1.147,0,0,0-.037,1.759c1.539,1.2,7.913.737,7.894,5.408-.01,2.737-1.875,4.045-4.551,4.3-1.007.1-.039,1.663-1.115,1.658-1.254-.009-1.37.061-1.365-1.1,0-1.07-1.639-.088-3.619-1.882a4.269,4.269,0,0,1-1.329-2.8A.579.579,0,0,1,395.164,310.675Z" transform="translate(-82.992 -60.069)" fill="#fff"/>
      <path id="Path_51692" data-name="Path 51692" d="M383.265,347.844c-1.022.417-2.05.824-3.075,1.236.572-1.919-2.209-3.233-4.967-2.209-.614.228-1.289.529-2.029.889.225-2.072-2.579-3.361-6.507-1.758-.954.39-6.767,3.619-8.757,4.5,3.368.969,6.628,3.225,5.931,7.258a5.519,5.519,0,0,1-5.235,4.9c-10.97.267-15.56.851-22.483-2.32-3.067-1.4-4.864-4.266-6.132-7.324,11.978,7.55,14.644,6.69,28.433,6.355a2.158,2.158,0,0,0,2.076-2.191c.013-3.3-2.493-3.89-7.15-4.745-4.009-.736-7.389-1.023-10.38-3.717-5.825-5.247-11.311-8.428-17.169-8.77s-11.907,1.258-19.363,5.606V367.05c2.632-.671,6.6-2.089,9.282-2.757a7.5,7.5,0,0,1,5.51,1.006c11.791,6.269,12.388,5.337,25.691,7.572a10.337,10.337,0,0,0,5.008-.282c16.725-5.159,18.14-6.605,35.044-17.2C392.509,351.938,389.137,345.447,383.265,347.844Z" transform="translate(-37.052 -84.577)" fill="#fff"/>
      <path id="Path_51693" data-name="Path 51693" d="M265.021,374.219V339.867a1.749,1.749,0,0,0-2.092-1.722l-22.469,4.411v41.671l23.4-8.356A1.728,1.728,0,0,0,265.021,374.219Zm-14.035-2.273a3.509,3.509,0,1,1,3.509-3.509A3.509,3.509,0,0,1,250.985,371.946Z" transform="translate(0 -83.569)" fill="#fff"/>
    </g>
  </g>
</svg>
