<svg xmlns="http://www.w3.org/2000/svg" width="211" height="211" viewBox="0 0 211 211">
  <g id="Group_17973" data-name="Group 17973" transform="translate(-575 -1107)">
    <circle id="Ellipse_995" data-name="Ellipse 995" cx="105.5" cy="105.5" r="105.5" transform="translate(575 1107)" fill="#fff"/>
    <g id="Group_17972" data-name="Group 17972" transform="translate(511.496 1012.646)">
      <path id="Path_46493" data-name="Path 46493" d="M203.886,192.117A62.191,62.191,0,1,1,141.7,129.925,62.191,62.191,0,0,1,203.886,192.117Z" transform="translate(0 -6.399)" fill="#cae1fc"/>
      <path id="Path_46494" data-name="Path 46494" d="M287.284,214.084a58.062,58.062,0,1,1-58.062-58.062A58.062,58.062,0,0,1,287.284,214.084Z" transform="translate(-27.78 -14.308)" fill="#cbcfff" opacity="0.6"/>
      <path id="Path_46495" data-name="Path 46495" d="M186.7,279.652H126.064l.822-100.2,62.279-1.26Z" transform="translate(-14.112 -21.027)" fill="#2a2b7c"/>
      <path id="Path_46496" data-name="Path 46496" d="M215.535,178.189l6.4,94.133-8.871,7.331Z" transform="translate(-40.481 -21.027)" fill="#2e3054"/>
      <path id="Path_46497" data-name="Path 46497" d="M191.651,189.229a1.589,1.589,0,1,1-1.59-1.589A1.59,1.59,0,0,1,191.651,189.229Z" transform="translate(-33.027 -23.891)" fill="#fff"/>
      <path id="Path_46498" data-name="Path 46498" d="M149.919,189a1.589,1.589,0,1,1-1.59-1.589A1.589,1.589,0,0,1,149.919,189Z" transform="translate(-20.379 -23.822)" fill="#fff"/>
      <path id="Path_46499" data-name="Path 46499" d="M178.262,178.742c-.038-3.545-.864-24.15-14.723-24.573a11.241,11.241,0,0,0-8.4,3.209C148.236,164,148,178.41,148,179.02a.449.449,0,0,0,.406.307.381.381,0,0,0,.371-.3c.011-.146.247-14.689,6.912-21.084a10.4,10.4,0,0,1,7.83-2.989c13.025.4,13.91,19.989,13.959,23.69a3.463,3.463,0,0,0,.054.6.379.379,0,0,0,.758-.033C178.286,179.167,178.264,178.885,178.262,178.742Z" transform="translate(-20.76 -13.745)" fill="#0b1238"/>
      <path id="Path_46500" data-name="Path 46500" d="M144.752,201.269a5.518,5.518,0,1,1-5.517-5.517A5.517,5.517,0,0,1,144.752,201.269Z" transform="translate(-16.431 -26.35)" fill="#fff" opacity="0.3"/>
      <path id="Path_46501" data-name="Path 46501" d="M271.935,346.9c0,1.418-11.112,2.567-24.819,2.567s-24.82-1.15-24.82-2.567,11.113-2.569,24.82-2.569S271.935,345.482,271.935,346.9Z" transform="translate(-43.279 -71.383)" fill="#a8bcff" opacity="0.3"/>
      <path id="Path_46502" data-name="Path 46502" d="M182.538,340.173c0,1.272-16.627,2.3-37.137,2.3s-37.138-1.032-37.138-2.3,16.628-2.3,37.138-2.3S182.538,338.9,182.538,340.173Z" transform="translate(-8.717 -69.425)" fill="#b0bcd8"/>
      <path id="Path_46503" data-name="Path 46503" d="M217.109,354.963c0,.834-6.071,1.508-13.561,1.508s-13.561-.675-13.561-1.508,6.071-1.508,13.561-1.508S217.109,354.13,217.109,354.963Z" transform="translate(-33.486 -74.148)" fill="#daa6ac" opacity="0.3"/>
      <path id="Path_46504" data-name="Path 46504" d="M200.783,113.449a4.635,4.635,0,1,1-4.634-4.635A4.635,4.635,0,0,1,200.783,113.449Z" transform="translate(-33.949 0)" fill="#e4edf1" opacity="0.6"/>
      <path id="Path_46505" data-name="Path 46505" d="M273.891,133.84a3.046,3.046,0,1,1-3.045-3.046A3.046,3.046,0,0,1,273.891,133.84Z" transform="translate(-57.07 -6.662)" fill="#e4edf1" opacity="0.6"/>
      <g id="Group_17911" data-name="Group 17911" transform="translate(158.145 147.199)">
        <path id="Path_46506" data-name="Path 46506" d="M258.524,287.576H192.347l.9-96.017,67.974-1.208Z" transform="translate(-192.347 -171.912)" fill="#fa7071"/>
        <path id="Path_46507" data-name="Path 46507" d="M285.123,217.574l-5.853-7.579-6.089-.791,5.1,28.1.561.025,5.855-4.521Z" transform="translate(-216.847 -177.626)" fill="#c3cfce" style="mix-blend-mode: multiply;isolation: isolate"/>
        <path id="Path_46508" data-name="Path 46508" d="M290,190.352l6.987,90.2-9.683,7.024Z" transform="translate(-221.128 -171.912)" fill="#2e3054"/>
        <path id="Path_46509" data-name="Path 46509" d="M260.062,208.385a1.589,1.589,0,1,1-1.589-1.59A1.589,1.589,0,0,1,260.062,208.385Z" transform="translate(-211.907 -176.896)" fill="#f9e0e9"/>
        <path id="Path_46510" data-name="Path 46510" d="M215.29,208.156a1.589,1.589,0,1,1-1.589-1.588A1.589,1.589,0,0,1,215.29,208.156Z" transform="translate(-198.337 -176.827)" fill="#f9e0e9"/>
        <g id="Group_17908" data-name="Group 17908" transform="translate(48.617 31.428)">
          <path id="Path_46511" data-name="Path 46511" d="M268.828,214.217a1.043,1.043,0,1,0,1.462.19A1.045,1.045,0,0,0,268.828,214.217Zm1.037,1.705a.719.719,0,1,1,.129-1.008A.719.719,0,0,1,269.865,215.922Z" transform="translate(-264.022 -210.507)" fill="#c3cfce" style="mix-blend-mode: multiply;isolation: isolate"/>
          <path id="Path_46512" data-name="Path 46512" d="M269.111,208.988l-6.3,4.867-.7,5.835,12.59,16.3,12.83-9.906-12.592-16.306Zm-1.091,5.1a.719.719,0,1,1,.13-1.008A.719.719,0,0,1,268.021,214.088Z" transform="translate(-262.108 -208.988)" fill="#fff"/>
          <path id="Path_46513" data-name="Path 46513" d="M268.414,213.676a1.48,1.48,0,1,0,2.075.266A1.479,1.479,0,0,0,268.414,213.676Zm1.344,1.74a.719.719,0,1,1,.13-1.008A.719.719,0,0,1,269.757,215.415Z" transform="translate(-263.845 -210.315)" fill="#3d3942"/>
        </g>
        <path id="Path_46514" data-name="Path 46514" d="M258.217,199.5l-.263-.167-.173.259c-.792,1.192.608,4.094,1.247,5.286a22.136,22.136,0,0,0,3.678,5.066l.516-.4a20.223,20.223,0,0,1-3.634-4.967c-1.025-1.912-1.538-3.533-1.392-4.328,1.657,1.112,9.086,6.342,7.71,9.778a1.053,1.053,0,0,1-.417.558.74.74,0,0,0,.075.315c.007.078.022.153.022.231,0,.037-.008.07-.01.107a1.529,1.529,0,0,0,.921-.974C268.231,205.933,258.626,199.757,258.217,199.5Z" transform="translate(-212.108 -174.633)" fill="#d2e0e9"/>
        <g id="Group_17909" data-name="Group 17909" transform="translate(15.074)">
          <path id="Path_46515" data-name="Path 46515" d="M246.02,195.785l-.787-.015c0-.015.011-.585-.012-1.563-.015-.65-.043-1.477-.1-2.441-.45-8-2.785-26.644-14.72-27.081A9.855,9.855,0,0,0,223,167.568c-7.964,7.609-8.237,27.723-8.239,27.924l-.785-.006c.007-.84.277-20.647,8.481-28.486a10.642,10.642,0,0,1,7.978-3.1c12.581.461,15.014,19.611,15.476,27.823.054.974.083,1.81.1,2.466C246.031,195.187,246.02,195.77,246.02,195.785Z" transform="translate(-213.976 -163.892)" fill="#0b1238"/>
        </g>
        <g id="Group_17910" data-name="Group 17910" transform="translate(55.485 38.107)">
          <path id="Path_46516" data-name="Path 46516" d="M277.222,219.018c.8-.7,1.7-.574,2.561.4s.874,1.884.076,2.59l-2.551,2.25c-.8.7-1.7.574-2.561-.4s-.874-1.886-.075-2.59Zm-1.736,3.286a.585.585,0,0,0-.04.939.593.593,0,0,0,.936.077l2.661-2.348a.592.592,0,0,0,.04-.938.585.585,0,0,0-.936-.078Zm7.672,1.053.809.916-11.2,2.957-.808-.916Zm-4.46,3.057c.8-.7,1.7-.574,2.56.4s.874,1.885.077,2.59l-2.551,2.25c-.8.7-1.7.575-2.56-.4s-.874-1.887-.075-2.59Zm-1.737,3.287a.583.583,0,0,0-.04.937.592.592,0,0,0,.935.077l2.661-2.348a.591.591,0,0,0,.042-.937.585.585,0,0,0-.937-.077Z" transform="translate(-271.963 -218.573)" fill="#2e3054"/>
        </g>
        <path id="Path_46517" data-name="Path 46517" d="M259.763,205.465a11.239,11.239,0,0,1-1.286-3.193c-.214.031-.187.912-.355,1.052a29.171,29.171,0,0,0,1.148,2.707c.07.132.149.27.227.408a1.334,1.334,0,0,0,.482-.443C259.93,205.908,259.812,205.556,259.763,205.465Z" transform="translate(-212.283 -175.525)" fill="#d2e0e9"/>
        <path id="Path_46518" data-name="Path 46518" d="M214.728,208.979a.4.4,0,1,1-.4-.4A.4.4,0,0,1,214.728,208.979Z" transform="translate(-198.89 -177.437)" fill="#0b1238"/>
        <path id="Path_46519" data-name="Path 46519" d="M259.629,209.359a.4.4,0,1,1-.4-.4A.4.4,0,0,1,259.629,209.359Z" transform="translate(-212.498 -177.552)" fill="#0b1238"/>
      </g>
      <g id="Group_17912" data-name="Group 17912" transform="translate(114.918 166.693)">
        <path id="Path_46520" data-name="Path 46520" d="M223.61,220.249l6.675,77.554-9.249,6.039Z" transform="translate(-157.815 -200.468)" fill="#2e3054"/>
        <path id="Path_46521" data-name="Path 46521" d="M193.541,303.843H130.32l.859-82.556,64.936-1.038Z" transform="translate(-130.32 -200.468)" fill="#fff"/>
        <path id="Path_46522" data-name="Path 46522" d="M198.225,235.021a1.589,1.589,0,1,1-1.59-1.59A1.589,1.589,0,0,1,198.225,235.021Z" transform="translate(-149.938 -204.463)" fill="#e4edf1"/>
        <path id="Path_46523" data-name="Path 46523" d="M154.023,234.381a1.589,1.589,0,1,1-1.589-1.59A1.589,1.589,0,0,1,154.023,234.381Z" transform="translate(-136.541 -204.269)" fill="#e4edf1"/>
        <path id="Path_46524" data-name="Path 46524" d="M221.036,336.927,225.2,329.4l5.086,1.483Z" transform="translate(-157.815 -233.551)" fill="#0b1238"/>
        <path id="Path_46525" data-name="Path 46525" d="M184.078,222.342c0-.079,0-.185,0-.317.01-3.855-.483-29.621-15.343-30.152a10.621,10.621,0,0,0-7.975,3.093c-7.321,7-8.125,23.5-8.212,26.7,0,.109-.051.4-.051.461a.4.4,0,0,0,.788.063h.038c0-.014,0-.127.008-.328.071-2.574.817-19.484,7.973-26.326a9.926,9.926,0,0,1,7.4-2.875c14.087.5,14.577,26.247,14.583,29.465,0,.076,0,.275,0,.291s0,.035,0,.04a.409.409,0,0,0,.393.309.4.4,0,0,0,.383-.295S184.078,222.351,184.078,222.342Z" transform="translate(-137.042 -191.864)" fill="#0b1238"/>
      </g>
      <path id="Path_46526" data-name="Path 46526" d="M287.335,326.049l4.6-8.582,5.085,1.483Z" transform="translate(-62.992 -63.241)" fill="#0b1238"/>
      <path id="Path_46527" data-name="Path 46527" d="M280.222,300.778c-1.528-2.991-3.957-4.466-3-8.354.384-1.553,1.552-2.524,2.091-3.894.674-1.712.112-2.041-.112-3.843-.486-3.888,1.96-4.692,3.372-7.652.985-2.066.691-4.488,2.007-6.672,1.335-2.218,3.823-4.2,4.32-6.836.367,4.675,3.336,11.858-.232,15.8a5.213,5.213,0,0,1,1.557,6.509c-.477,1.064-2.029,1.891-2.307,3.012-.379,1.532.569,1.585.693,2.928.392,4.256-11.967,10.325-8.705,14.587Z" transform="translate(-59.861 -46.892)" fill="#2a2b7c"/>
      <path id="Path_46528" data-name="Path 46528" d="M280.222,300.778c-1.528-2.991-3.957-4.466-3-8.354.384-1.553,1.552-2.524,2.091-3.894.674-1.712.112-2.041-.112-3.843-.486-3.888,1.96-4.692,3.372-7.652.985-2.066.691-4.488,2.007-6.672,1.335-2.218,3.823-4.2,4.32-6.836.367,4.675,3.336,11.858-.232,15.8a5.213,5.213,0,0,1,1.557,6.509c-.477,1.064-2.029,1.891-2.307,3.012-.379,1.532.569,1.585.693,2.928.392,4.256-11.967,10.325-8.705,14.587Z" transform="translate(-59.861 -46.892)" fill="#fff" opacity="0.3"/>
      <g id="Group_17913" data-name="Group 17913" transform="translate(219.312 216.635)" opacity="0.3">
        <path id="Path_46529" data-name="Path 46529" d="M288.331,272.742a10.144,10.144,0,0,0,2.8-1.569c-.017-.128-.036-.257-.056-.385a9.606,9.606,0,0,1-2.687,1.571c.092-.583.18-1.163.266-1.736.077-.508.153-1.015.231-1.521.075-.474.173-.954.268-1.418.08-.4.164-.8.23-1.2.042-.249.1-.537.16-.84.124-.617.257-1.287.316-1.9-.006-.074-.015-.148-.021-.222a6,6,0,0,1-.522,1.528c-.034.181-.07.358-.1.525-.061.307-.118.6-.163.851-.065.388-.147.792-.226,1.184-.1.468-.2.951-.27,1.434-.079.507-.155,1.015-.231,1.524-.19,1.268-.388,2.571-.641,3.862-1.135-.714-1.646-2.728-1.9-4.485-.091.137-.179.274-.262.413.284,1.8.863,3.744,2.093,4.422-.029.141-.056.284-.086.427-.271,1.247-.6,2.486-.946,3.71a11.617,11.617,0,0,1-2.341-4.362c-.044.228-.091.454-.142.679a12.105,12.105,0,0,0,2.371,4.067c-.306,1.052-.627,2.094-.943,3.12-.022.067-.032.1-.041.13l-.268.866a10.325,10.325,0,0,0-.875-1.094,9.975,9.975,0,0,1-.861-1.068,8.274,8.274,0,0,1-1.031-2.5c-.084.114-.169.226-.254.335a8.139,8.139,0,0,0,1,2.349,10.688,10.688,0,0,0,.889,1.105,8.851,8.851,0,0,1,.953,1.212l.086-.054c-.4,1.311-.8,2.648-1.157,3.99-.017.07-.036.141-.054.21a7.337,7.337,0,0,0-1.178-1.447,7.846,7.846,0,0,1-.707-.8,14.089,14.089,0,0,1-1.81-3.229,5.407,5.407,0,0,0-.109.637,16.184,16.184,0,0,0,1.645,2.786,7.978,7.978,0,0,0,.739.836,4.411,4.411,0,0,1,1.27,1.783c-.565,2.134-1.17,4.377-1.8,6.567a34.467,34.467,0,0,0-.927,5.014c-.017.128-.034.259-.052.388.06.107.119.218.176.33l-.073,1.305c.1-.662.2-1.327.283-1.98a34.08,34.08,0,0,1,.916-4.965c.636-2.2,1.243-4.455,1.81-6.6a.035.035,0,0,0,.01-.036c.064-.24.128-.481.19-.72.125-.474.258-.947.392-1.422a10.41,10.41,0,0,1,2.132-.42,14.618,14.618,0,0,0,1.7-.284,9.313,9.313,0,0,0,3.125-1.555c.017-.144.029-.288.034-.433a9.547,9.547,0,0,1-3.243,1.661,13.622,13.622,0,0,1-1.654.277,12.535,12.535,0,0,0-1.975.362c.324-1.119.666-2.229,1-3.316a3.377,3.377,0,0,1,1.174-.347,5.7,5.7,0,0,0,.983-.232,7.964,7.964,0,0,0,2.832-1.589c-.065-.093-.133-.181-.2-.268a7.538,7.538,0,0,1-2.746,1.543,5.506,5.506,0,0,1-.924.215,5.929,5.929,0,0,0-.976.23c.5-1.634,1.013-3.3,1.45-4.994.12,0,.245,0,.376-.012a8.088,8.088,0,0,0,3.4-1.194c.027-.148.052-.3.072-.451a7.566,7.566,0,0,1-3.765,1.322c.134-.53.261-1.061.377-1.6C288.041,274.439,288.192,273.588,288.331,272.742Z" transform="translate(-280.116 -263.527)" fill="#fff"/>
        <path id="Path_46530" data-name="Path 46530" d="M281.076,320.483c.049-.238.093-.48.135-.723a6.546,6.546,0,0,0-.354.679Z" transform="translate(-280.341 -280.571)" fill="#fff"/>
      </g>
      <path id="Path_46531" data-name="Path 46531" d="M303.457,289.562c-3.232,1.892-12.44.9-11.208,6.692-4.252-.583-5.571,1.091-5.3,5.12-.029-.433-1.562-.138-1.781-.006a4.18,4.18,0,0,0-1.024,1.3,10.281,10.281,0,0,0-.919,3.887,33.758,33.758,0,0,1-.957,4.7c2.725-3.31,12.536-3.241,10.806-7.3,1.521.192,4.315.705,5.533-.531,1.56-1.585-.271-3.239-1.663-4.037,5.913-.748,5.293-3.317,4.492-6.223l1.039-1.245A6.7,6.7,0,0,0,303.457,289.562Z" transform="translate(-61.455 -54.783)" fill="#2a2b7c"/>
      <g id="Group_17930" data-name="Group 17930" transform="translate(205.447 228.995)">
        <g id="Group_17914" data-name="Group 17914" transform="translate(6.613 3.173)">
          <path id="Path_46532" data-name="Path 46532" d="M277.765,311c-8.083-4.966-8.058-24.985-8.056-25.186l.265,0c0,.2-.026,20.07,7.931,24.959Z" transform="translate(-269.709 -285.816)" fill="#2e3054"/>
        </g>
        <g id="Group_17915" data-name="Group 17915" transform="translate(11.881 20.975)">
          <path id="Path_46533" data-name="Path 46533" d="M277.278,315.707c-.01.088,1.011-4.681,3.192-4.328s-3.2,4.416-3.2,4.416Z" transform="translate(-277.268 -311.36)" fill="#2e3054"/>
        </g>
        <g id="Group_17916" data-name="Group 17916" transform="translate(10.239 18.314)">
          <path id="Path_46534" data-name="Path 46534" d="M274.912,312.037s2.081-5.441,3.728-4.352S274.912,312.037,274.912,312.037Z" transform="translate(-274.912 -307.541)" fill="#2e3054"/>
        </g>
        <g id="Group_17917" data-name="Group 17917" transform="translate(9.108 15.131)">
          <path id="Path_46535" data-name="Path 46535" d="M273.29,307.571s2.655-5.84,4.68-4.355C279.5,304.341,273.29,307.571,273.29,307.571Z" transform="translate(-273.29 -302.974)" fill="#2e3054"/>
        </g>
        <g id="Group_17918" data-name="Group 17918" transform="translate(7.806 9.736)">
          <path id="Path_46536" data-name="Path 46536" d="M271.422,299.741s2.026-5.714,3.631-4.275S271.422,299.741,271.422,299.741Z" transform="translate(-271.422 -295.233)" fill="#2e3054"/>
        </g>
        <g id="Group_17919" data-name="Group 17919" transform="translate(8.09 12.685)">
          <path id="Path_46537" data-name="Path 46537" d="M271.829,303.156s3.375-5.119,4.534-3.3C277.143,301.078,271.829,303.156,271.829,303.156Z" transform="translate(-271.829 -299.465)" fill="#2e3054"/>
        </g>
        <g id="Group_17920" data-name="Group 17920" transform="translate(7.278 5.672)">
          <path id="Path_46538" data-name="Path 46538" d="M270.663,294.263s2.353-6.209,3.936-4.593S270.663,294.263,270.663,294.263Z" transform="translate(-270.663 -289.401)" fill="#2e3054"/>
        </g>
        <g id="Group_17921" data-name="Group 17921" transform="translate(7.064 2.294)">
          <path id="Path_46539" data-name="Path 46539" d="M270.357,288.676s1.37-5.438,2.241-3.82S270.357,288.676,270.357,288.676Z" transform="translate(-270.357 -284.555)" fill="#2e3054"/>
        </g>
        <g id="Group_17922" data-name="Group 17922" transform="translate(5.595)">
          <path id="Path_46540" data-name="Path 46540" d="M269.363,286.212s-2.156-4.975-.468-4.949S269.363,286.212,269.363,286.212Z" transform="translate(-268.249 -281.263)" fill="#2e3054"/>
        </g>
        <g id="Group_17923" data-name="Group 17923" transform="translate(3.166 3.195)">
          <path id="Path_46541" data-name="Path 46541" d="M268.662,289.068s-5.066-1.5-3.648-2.932S268.662,289.068,268.662,289.068Z" transform="translate(-264.764 -285.848)" fill="#2e3054"/>
        </g>
        <g id="Group_17924" data-name="Group 17924" transform="translate(1.825 5.432)">
          <path id="Path_46542" data-name="Path 46542" d="M268.145,293.162s-5.942-1.609-5.25-3.66S268.145,293.162,268.145,293.162Z" transform="translate(-262.84 -289.057)" fill="#2e3054"/>
        </g>
        <g id="Group_17925" data-name="Group 17925" transform="translate(0.963 8.28)">
          <path id="Path_46543" data-name="Path 46543" d="M268.374,297.5s-7.871-1.843-6.642-3.917S268.374,297.5,268.374,297.5Z" transform="translate(-261.602 -293.143)" fill="#2e3054"/>
        </g>
        <g id="Group_17926" data-name="Group 17926" transform="translate(0 11.73)">
          <path id="Path_46544" data-name="Path 46544" d="M268.481,302s-8.875-.9-8.227-3.309S268.481,302,268.481,302Z" transform="translate(-260.22 -298.095)" fill="#2e3054"/>
        </g>
        <g id="Group_17927" data-name="Group 17927" transform="translate(0.963 18.995)">
          <path id="Path_46545" data-name="Path 46545" d="M270.168,310.113s-7.909-3-8.536-.766S270.168,310.113,270.168,310.113Z" transform="translate(-261.602 -308.518)" fill="#2e3054"/>
        </g>
        <g id="Group_17928" data-name="Group 17928" transform="translate(0.964 15.392)">
          <path id="Path_46546" data-name="Path 46546" d="M269.016,305.523s-6.515-3.651-7.352-1.492S269.016,305.523,269.016,305.523Z" transform="translate(-261.604 -303.348)" fill="#2e3054"/>
        </g>
        <g id="Group_17929" data-name="Group 17929" transform="translate(3.441 21.729)">
          <path id="Path_46547" data-name="Path 46547" d="M271.833,313.063s-7.082-1.746-6.656.617,6.779-.158,6.779-.158Z" transform="translate(-265.159 -312.442)" fill="#2e3054"/>
        </g>
      </g>
      <path id="Path_46548" data-name="Path 46548" d="M287.5,315.337c0,9.553-3.423,17.3-7.642,17.3s-7.642-7.745-7.642-17.3Z" transform="translate(-58.408 -62.595)" fill="#eab2b4"/>
      <path id="Path_46549" data-name="Path 46549" d="M287.5,339.273c0,.588-3.423,1.065-7.642,1.065s-7.642-.477-7.642-1.065Z" transform="translate(-58.408 -69.85)" fill="#b0bcd8"/>
      <path id="Path_46550" data-name="Path 46550" d="M290.605,318.784a1.614,1.614,0,1,1-1.611-1.493A1.556,1.556,0,0,1,290.605,318.784Z" transform="translate(-63.007 -63.187)" fill="#fff" opacity="0.3"/>
      <path id="Path_46551" data-name="Path 46551" d="M155.69,232.472a11.549,11.549,0,0,0-.208,10.647l-7.5,8.785,12.347-3.744a11.567,11.567,0,1,0-4.634-15.688Z" transform="translate(-20.754 -35.648)" fill="#e6edff"/>
      <path id="Path_46552" data-name="Path 46552" d="M112.823,234.1c2.328-1.553,2.684,1.441,2.684,1.441s.357-2.994,2.684-1.441-2.66,5.1-2.66,5.1h-.046S110.494,235.654,112.823,234.1Z" transform="translate(-9.911 -37.838)" fill="#fff" opacity="0.6"/>
      <path id="Path_46553" data-name="Path 46553" d="M255.8,145.559a9.059,9.059,0,1,1-9.058-9.058A9.058,9.058,0,0,1,255.8,145.559Z" transform="translate(-47.942 -8.392)" fill="#7ab6f6"/>
      <path id="Path_46554" data-name="Path 46554" d="M204.2,146.82a10.489,10.489,0,1,1-10.489-10.49A10.489,10.489,0,0,1,204.2,146.82Z" transform="translate(-31.437 -8.34)" fill="#93c8f6"/>
      <g id="Group_17940" data-name="Group 17940" transform="translate(156.619 131.93)">
        <g id="Group_17934" data-name="Group 17934" transform="translate(0 3.586)">
          <g id="Group_17931" data-name="Group 17931">
            <path id="Path_46555" data-name="Path 46555" d="M193.316,150.84H190.4a.239.239,0,0,1-.239-.24v-2.526a.947.947,0,0,1,.946-.946h2.616a.239.239,0,1,1,0,.478H191.1a.469.469,0,0,0-.468.468v2.286h2.68a.24.24,0,0,1,0,.479Z" transform="translate(-190.157 -147.129)" fill="#fff"/>
          </g>
          <g id="Group_17932" data-name="Group 17932" transform="translate(6.623)">
            <path id="Path_46556" data-name="Path 46556" d="M203.176,150.84H199.9a.24.24,0,0,1,0-.479h3.036v-2.286a.469.469,0,0,0-.468-.468h-2.5a.239.239,0,1,1,0-.478h2.5a.948.948,0,0,1,.946.946V150.6A.24.24,0,0,1,203.176,150.84Z" transform="translate(-199.661 -147.129)" fill="#fff"/>
          </g>
          <g id="Group_17933" data-name="Group 17933" transform="translate(0.907 3.67)">
            <path id="Path_46557" data-name="Path 46557" d="M199.206,157.958h-6.931a.818.818,0,0,1-.817-.817v-4.506a.239.239,0,1,1,.479,0v4.506a.339.339,0,0,0,.338.338h6.931a.339.339,0,0,0,.338-.338v-4.506a.24.24,0,0,1,.479,0v4.506A.819.819,0,0,1,199.206,157.958Z" transform="translate(-191.458 -152.395)" fill="#fff"/>
          </g>
        </g>
        <g id="Group_17939" data-name="Group 17939" transform="translate(0.794)">
          <g id="Group_17935" data-name="Group 17935">
            <path id="Path_46558" data-name="Path 46558" d="M195.6,146.452a.182.182,0,0,1-.054-.007c-.311-.072-3.055-.73-3.705-1.359a1.806,1.806,0,0,1,2.512-2.595c.633.613,1.358,3.211,1.471,3.629a.227.227,0,0,1,.018.091.239.239,0,0,1-.239.24Zm-2.5-3.989a1.327,1.327,0,0,0-.923,2.279,10.81,10.81,0,0,0,3.085,1.139,10.8,10.8,0,0,0-1.24-3.046A1.321,1.321,0,0,0,193.1,142.462Z" transform="translate(-191.297 -141.983)" fill="#fff"/>
          </g>
          <g id="Group_17936" data-name="Group 17936" transform="translate(4.242)">
            <path id="Path_46559" data-name="Path 46559" d="M197.623,146.452a.238.238,0,0,1-.231-.3c.083-.308.829-3.029,1.48-3.659a1.806,1.806,0,0,1,2.512,2.595c-.65.629-3.4,1.287-3.705,1.359A.185.185,0,0,1,197.623,146.452Zm2.5-3.989a1.318,1.318,0,0,0-.922.373,10.8,10.8,0,0,0-1.241,3.046,10.786,10.786,0,0,0,3.085-1.139,1.327,1.327,0,0,0,.03-1.875A1.312,1.312,0,0,0,200.126,142.462Z" transform="translate(-197.383 -141.983)" fill="#fff"/>
          </g>
          <g id="Group_17937" data-name="Group 17937" transform="translate(1.627 3.991)">
            <path id="Path_46560" data-name="Path 46560" d="M193.871,152.43a.24.24,0,0,1-.06-.472c2.31-.6,2.263-3.971,2.263-4a.238.238,0,0,1,.233-.245.241.241,0,0,1,.245.233c0,.154.058,3.784-2.62,4.479A.2.2,0,0,1,193.871,152.43Z" transform="translate(-193.632 -147.709)" fill="#fff"/>
          </g>
          <g id="Group_17938" data-name="Group 17938" transform="translate(4.355 4.192)">
            <path id="Path_46561" data-name="Path 46561" d="M200.18,154.437a1.591,1.591,0,0,1-1.134-.484c-1.448-1.406-1.5-5.538-1.5-5.713a.239.239,0,1,1,.478,0c0,.041.052,4.106,1.357,5.375a1.108,1.108,0,0,0,.823.348.239.239,0,0,1,.01.479Z" transform="translate(-197.546 -147.998)" fill="#fff"/>
          </g>
        </g>
      </g>
      <g id="Group_17943" data-name="Group 17943" transform="translate(193.56 138.601)">
        <g id="Group_17941" data-name="Group 17941" transform="translate(6.897 0)">
          <path id="Path_46562" data-name="Path 46562" d="M254.822,155.079a1.762,1.762,0,1,1,1.762-1.762A1.764,1.764,0,0,1,254.822,155.079Zm0-3.1a1.34,1.34,0,1,0,1.34,1.34A1.342,1.342,0,0,0,254.822,151.977Z" transform="translate(-253.06 -151.555)" fill="#e4edf1"/>
        </g>
        <path id="Path_46563" data-name="Path 46563" d="M255.851,153.881a.464.464,0,1,1-.465-.463A.465.465,0,0,1,255.851,153.881Z" transform="translate(-246.728 -152.12)" fill="#e4edf1"/>
        <g id="Group_17942" data-name="Group 17942" transform="translate(0 0.007)">
          <path id="Path_46564" data-name="Path 46564" d="M244.926,155.089a1.762,1.762,0,1,1,1.762-1.762A1.764,1.764,0,0,1,244.926,155.089Zm0-3.1a1.34,1.34,0,1,0,1.34,1.34A1.341,1.341,0,0,0,244.926,151.987Z" transform="translate(-243.164 -151.565)" fill="#e4edf1"/>
        </g>
        <path id="Path_46565" data-name="Path 46565" d="M245.954,153.891a.464.464,0,1,1-.465-.465A.464.464,0,0,1,245.954,153.891Z" transform="translate(-243.728 -152.122)" fill="#e4edf1"/>
      </g>
      <g id="Group_17944" data-name="Group 17944" transform="translate(192.612 132.589)">
        <path id="Path_46566" data-name="Path 46566" d="M253.744,150.872l-.785,0a.212.212,0,0,1-.21-.206,1.339,1.339,0,0,0-2.677-.01.211.211,0,0,1-.21.2l-3.8-.013a.21.21,0,0,1-.209-.2,1.34,1.34,0,0,0-2.676-.006.21.21,0,0,1-.218.2,1.815,1.815,0,0,1-.746-.137c-.464-.235-.47-.914-.332-1.933.02-.144.186-1.539.187-1.554a8.358,8.358,0,0,1,.747-1.469c.788-1.416.848-1.416.99-1.416H246.2a.416.416,0,0,1,.415.415v2.907l.388.034v-4.209a.6.6,0,0,1,.633-.546h6.186a.6.6,0,0,1,.633.546l-.014,6.7A.7.7,0,0,1,253.744,150.872Zm-.59-.425.59,0v0a.274.274,0,0,0,.274-.272l.013-6.7c0-.056-.092-.123-.21-.123h-6.186c-.118,0-.209.067-.209.123v4.439a.207.207,0,0,1-.07.155.2.2,0,0,1-.16.054l-.812-.071a.208.208,0,0,1-.192-.209v-3.092h-2.3a28.477,28.477,0,0,0-1.408,2.526c-.019.153-.168,1.407-.187,1.547-.051.37-.185,1.353.1,1.5a1.1,1.1,0,0,0,.375.082,1.762,1.762,0,0,1,3.476.019l3.415.012a1.762,1.762,0,0,1,3.485.013Zm-9.831-3.283a.211.211,0,0,1-.148-.062.208.208,0,0,1-.062-.149c0-.049,0-.109.425-.942.465-.911.494-.911.637-.911h1.332a.33.33,0,0,1,.324.335l.006,1.511a.211.211,0,0,1-.21.211l-2.3.007Zm.956-1.643c-.131.215-.455.847-.633,1.22l1.769-.006,0-1.214Z" transform="translate(-241.803 -142.929)" fill="#e4edf1"/>
      </g>
      <path id="Path_46567" data-name="Path 46567" d="M230.7,125.674a8.754,8.754,0,1,1-8.754-8.754A8.754,8.754,0,0,1,230.7,125.674Z" transform="translate(-40.52 -2.457)" fill="#bfd4f8"/>
      <g id="Group_17951" data-name="Group 17951" transform="translate(175.64 117.259)">
        <g id="Group_17949" data-name="Group 17949">
          <g id="Group_17945" data-name="Group 17945" transform="translate(5.894 5.093)">
            <path id="Path_46568" data-name="Path 46568" d="M226.371,129.089a.2.2,0,0,1-.177-.1l-.259-.438a.206.206,0,0,1,.355-.209l.259.438a.2.2,0,0,1-.178.31Z" transform="translate(-225.907 -128.24)" fill="#fff"/>
          </g>
          <g id="Group_17946" data-name="Group 17946" transform="translate(3.989 5.04)">
            <path id="Path_46569" data-name="Path 46569" d="M223.62,128.983a.2.2,0,0,1-.178-.1l-.241-.408a.206.206,0,1,1,.355-.209l.241.407a.207.207,0,0,1-.072.283A.209.209,0,0,1,223.62,128.983Z" transform="translate(-223.173 -128.164)" fill="#fff"/>
          </g>
          <g id="Group_17947" data-name="Group 17947" transform="translate(0 3.366)">
            <path id="Path_46570" data-name="Path 46570" d="M219.237,128.606h-.052a2.01,2.01,0,0,1-1.222-.426,1.292,1.292,0,0,1-.514-1.034,1.616,1.616,0,0,1,1.8-1.382,1.871,1.871,0,0,1,1.553.8c.248-.068.51-.146.781-.235l1.039-.367c.2-.074.315-.123.316-.125a.205.205,0,0,1,.082-.015l2.8.062A2.028,2.028,0,0,1,227.9,127.7a.234.234,0,0,1,0,.05.205.205,0,0,1-.206.2l-6.874-.153A1.824,1.824,0,0,1,219.237,128.606Zm-.037-2.432c-.727,0-1.328.438-1.339.979a.894.894,0,0,0,.362.706,1.592,1.592,0,0,0,.973.334,1.368,1.368,0,0,0,1.313-.686.208.208,0,0,1,.194-.124l6.746.151a1.585,1.585,0,0,0-1.632-1.238l-2.762-.061-.29.114-1.049.369c-.341.112-.664.208-.967.286a.207.207,0,0,1-.24-.116,1.39,1.39,0,0,0-1.269-.714Z" transform="translate(-217.45 -125.761)" fill="#fff"/>
          </g>
          <g id="Group_17948" data-name="Group 17948" transform="translate(2.065)">
            <path id="Path_46571" data-name="Path 46571" d="M222.452,125.187a.208.208,0,0,1-.2-.159c-.015-.061-.033-.206-.062-.433-.011-.088-.026-.2-.038-.291a1.876,1.876,0,0,1-1.443-.962,1.456,1.456,0,1,1,2.448-1.447,1.825,1.825,0,0,1,.1,1.822l.413.606a.206.206,0,0,1-.341.233l-.41-.6-.083-.14a.206.206,0,0,1,.013-.229,1.385,1.385,0,0,0-.044-1.482,1.054,1.054,0,1,0-1.739,1.029,1.393,1.393,0,0,0,1.243.758.207.207,0,0,1,.22.153c.018.068.04.236.074.5.02.154.045.346.054.39a.206.206,0,0,1-.153.249A.22.22,0,0,1,222.452,125.187Z" transform="translate(-220.413 -120.932)" fill="#fff"/>
          </g>
        </g>
        <g id="Group_17950" data-name="Group 17950" transform="translate(2.718 6.332)">
          <path id="Path_46572" data-name="Path 46572" d="M227.992,134.743h-1.008a.206.206,0,1,1,0-.412h1.008a.206.206,0,0,1,0,.412Zm-2.016,0h-1.008a.206.206,0,0,1,0-.412h1.008a.206.206,0,1,1,0,.412Zm-2.016,0h-1.008a.206.206,0,1,1,0-.412h1.008a.206.206,0,1,1,0,.412ZM222,134.487a.207.207,0,0,1-.127-.044,1.368,1.368,0,0,1-.523-1.024.206.206,0,1,1,.411-.015.954.954,0,0,0,.367.715.206.206,0,0,1-.129.368Zm6.931-.029a.206.206,0,0,1-.134-.363.956.956,0,0,0,.339-.728.209.209,0,0,1,.206-.209.2.2,0,0,1,.206.2,1.37,1.37,0,0,1-.484,1.048A.2.2,0,0,1,228.932,134.458Zm-7.375-1.848a.207.207,0,0,1-.206-.207V131.4a.206.206,0,0,1,.413,0V132.4A.206.206,0,0,1,221.556,132.61Zm7.787-.049a.206.206,0,0,1-.206-.207v-.961c0-.013,0-.026,0-.039a.206.206,0,0,1,.413-.015v1.015A.207.207,0,0,1,229.343,132.561Zm-7.377-1.846a.2.2,0,0,1-.156-.072.206.206,0,0,1,.022-.291,1.405,1.405,0,0,1,.912-.335h.161a.206.206,0,1,1,0,.413h-.161a.99.99,0,0,0-.644.236A.2.2,0,0,1,221.965,130.715Zm6.93-.03a.2.2,0,0,1-.127-.045.982.982,0,0,0-.613-.21h-.211a.206.206,0,1,1,0-.413h.211a1.415,1.415,0,0,1,.867.3.207.207,0,0,1-.128.369Zm-1.959-.255h-1.008a.206.206,0,1,1,0-.413h1.008a.206.206,0,1,1,0,.413Zm-2.016,0h-1.007a.206.206,0,1,1,0-.413h1.007a.206.206,0,1,1,0,.413Z" transform="translate(-221.35 -130.017)" fill="#fff"/>
        </g>
      </g>
      <g id="Group_17952" data-name="Group 17952" transform="translate(96.259 204.304)">
        <path id="Path_46573" data-name="Path 46573" d="M107.393,317.917s-7.154,15.592,5.538,15.963,32.15-.472,35.774-.35,28.029,1.588,28.029,1.588l5.547-7.35a.188.188,0,0,0-.2-.293c-1.5.45-5.719,1.889-7.235,4.246L151,325.76Z" transform="translate(-104.103 -267.681)" fill="#f5b29c"/>
        <path id="Path_46574" data-name="Path 46574" d="M208.008,333.306a33.02,33.02,0,0,1-2.689,5.56,1.439,1.439,0,0,0-.121.208l1.79.144,5.634-7.465a.189.189,0,0,0-.171-.3,8.413,8.413,0,0,0-4.126,1.618S208.01,333.3,208.008,333.306Z" transform="translate(-134.356 -271.783)" fill="#0b1238"/>
        <path id="Path_46575" data-name="Path 46575" d="M119.717,315.384S153.407,301.4,156,301.4s17.826,25.864,17.826,25.864,4.983.558,5.791,2.536l-10.147-.866a13.235,13.235,0,0,0-2.45-3.9c-4.961-5.569-11.2-7.941-10.978-13.82l-25.481,11.716S117.178,320.334,119.717,315.384Z" transform="translate(-108.35 -262.675)" fill="#eec2a8"/>
        <path id="Path_46576" data-name="Path 46576" d="M120.652,263.8s3.17-2.61,3.728-5.22-2.05-9.88,2.983-10.813,8.932,5.223,7.084,9.136a5.86,5.86,0,0,0-.684,3.666l-1.181.063s-1.492,3.915-4.1,2.61a11.973,11.973,0,0,0-.932,8.2C128.669,276.106,113.38,266.038,120.652,263.8Z" transform="translate(-108.134 -246.391)" fill="#f5b29c"/>
        <path id="Path_46577" data-name="Path 46577" d="M118.028,269.478s4.473,2.237,6.711,4.662,4.287,7.456,4.287,9.134-2.8,3.542-4.1,7.644-8.017,17.524-8.017,17.524l-8.389-2.8S103.113,275.444,118.028,269.478Z" transform="translate(-104.764 -253)" fill="#fa4f5c"/>
        <path id="Path_46578" data-name="Path 46578" d="M169.543,279.322l-3.969,2.564-1.746,12.986,4.09-1.066Z" transform="translate(-121.817 -255.983)" fill="#0e2437"/>
        <path id="Path_46579" data-name="Path 46579" d="M169.2,280.36l-3.007,1.922-1.746,12.987,3.39-.723Z" transform="translate(-122.005 -256.298)" fill="#d0dcef"/>
        <path id="Path_46580" data-name="Path 46580" d="M146.718,303.048s5,16.981,1.177,26.417c0,0-36.215.711-38.826-.036s-7.666-5.493-2.1-17.062c0,0,8.056,2.879,11.785.642C118.759,313.01,141.47,304.761,146.718,303.048Z" transform="translate(-103.824 -263.174)" fill="#2a2b7c"/>
        <path id="Path_46581" data-name="Path 46581" d="M118.171,275.816c-3.667,1.491-3.875,26.789.475,28.032s15.855-6.213,15.855-6.213a87.937,87.937,0,0,1,8.3-4.052c2.609-.932,4.474-1.553,5.469-.434,0,0,.993-.125.373-.871s-2.362-3.542-7.333-.435c0,0-15.065,4.921-18.794,5.418-1.613.215.585-8.435.684-11.371C123.416,279.472,121.011,274.661,118.171,275.816Z" transform="translate(-107.139 -254.869)" fill="#f5b29c"/>
        <path id="Path_46582" data-name="Path 46582" d="M166.264,279.3l-1.57,15.74s-12.509,4.113-13.068,4.057-.449-1.363,1.1-2,10.467-3.344,10.467-3.344l1.539-12.819S165.142,278.94,166.264,279.3Z" transform="translate(-118.025 -255.963)" fill="#0e2437"/>
        <path id="Path_46583" data-name="Path 46583" d="M131.788,251.437c.974,1.156,1.958,2.057,2.348,1.516-1.342,1.864-7.922,3.648-9.466,1.223,0,0-1.024-1.609-1.807-.157s.19,2.286,1.076,3.095.679,1.868-.7,2.129-2.533.4-2.021,3.521-1.6,7.269-4.69,9.649-7.885,4.184-10.844.182-2.9-10.125.477-12.518a13.265,13.265,0,0,1,7.669-2.106,1.37,1.37,0,0,1-.263-2.028c.845-1.342,3.073.312,3.539-.67.3-.64-.039-1.645-.073-2.314a6.513,6.513,0,0,1,.844-3.958c2.425-3.832,8.743-4.306,11.52-.772C129.574,248.449,130.673,250.111,131.788,251.437Z" transform="translate(-103.546 -245.833)" fill="#0b1238"/>
        <path id="Path_46584" data-name="Path 46584" d="M112.047,260.153c-.1.356.222.76.721.9a.841.841,0,0,0,1.088-.389c.1-.357-.222-.761-.721-.9A.841.841,0,0,0,112.047,260.153Z" transform="translate(-106.117 -250.04)" fill="#0b1238"/>
        <path id="Path_46585" data-name="Path 46585" d="M124.253,246.986a5.083,5.083,0,0,0-2.312,5.858S119.976,247.635,124.253,246.986Z" transform="translate(-108.985 -246.182)" fill="#0b1238"/>
        <path id="Path_46586" data-name="Path 46586" d="M190.459,339.037a1.838,1.838,0,0,0,.964,1.713l9.589.722a.216.216,0,0,0,.2-.324c-.919-1.573-3.5-2.167-4.886-2.421C194.289,339.993,190.459,339.037,190.459,339.037Z" transform="translate(-129.889 -273.988)" fill="#2e3054"/>
        <path id="Path_46587" data-name="Path 46587" d="M150.181,333.9a.556.556,0,1,0,.657.433A.558.558,0,0,0,150.181,333.9Z" transform="translate(-117.546 -272.52)" fill="#b0bcd8"/>
        <path id="Path_46588" data-name="Path 46588" d="M149.245,310.353a.557.557,0,1,0-.433.656A.557.557,0,0,0,149.245,310.353Z" transform="translate(-117.063 -265.253)" fill="#b0bcd8"/>
        <path id="Path_46589" data-name="Path 46589" d="M144.3,325.947a.556.556,0,1,0-.433.656A.557.557,0,0,0,144.3,325.947Z" transform="translate(-115.565 -269.98)" fill="#b0bcd8"/>
        <path id="Path_46590" data-name="Path 46590" d="M146.914,329.7a.556.556,0,1,0,.657.433A.556.556,0,0,0,146.914,329.7Z" transform="translate(-116.556 -271.25)" fill="#b0bcd8"/>
        <path id="Path_46591" data-name="Path 46591" d="M145.774,339.46a.556.556,0,1,0,.656.434A.557.557,0,0,0,145.774,339.46Z" transform="translate(-116.21 -274.207)" fill="#b0bcd8"/>
        <path id="Path_46592" data-name="Path 46592" d="M148.407,320.245a.556.556,0,1,0-.433.657A.556.556,0,0,0,148.407,320.245Z" transform="translate(-116.81 -268.252)" fill="#b0bcd8"/>
        <path id="Path_46593" data-name="Path 46593" d="M152.512,314.544a.556.556,0,1,0-.433.656A.557.557,0,0,0,152.512,314.544Z" transform="translate(-118.053 -266.524)" fill="#b0bcd8"/>
        <path id="Path_46594" data-name="Path 46594" d="M141.873,311.862a.557.557,0,1,0-.434.657A.555.555,0,0,0,141.873,311.862Z" transform="translate(-114.829 -265.711)" fill="#b0bcd8"/>
        <path id="Path_46595" data-name="Path 46595" d="M136.931,327.456a.556.556,0,1,0-.433.656A.557.557,0,0,0,136.931,327.456Z" transform="translate(-113.331 -270.437)" fill="#b0bcd8"/>
        <path id="Path_46596" data-name="Path 46596" d="M151.675,324.436a.556.556,0,1,0-.434.656A.557.557,0,0,0,151.675,324.436Z" transform="translate(-117.8 -269.522)" fill="#b0bcd8"/>
        <path id="Path_46597" data-name="Path 46597" d="M145.14,316.054a.556.556,0,1,0-.433.656A.555.555,0,0,0,145.14,316.054Z" transform="translate(-115.819 -266.982)" fill="#b0bcd8"/>
        <path id="Path_46598" data-name="Path 46598" d="M141.036,321.755a.556.556,0,1,0-.433.656A.559.559,0,0,0,141.036,321.755Z" transform="translate(-114.575 -268.709)" fill="#b0bcd8"/>
        <path id="Path_46599" data-name="Path 46599" d="M139.541,331.215a.555.555,0,1,0,.657.432A.557.557,0,0,0,139.541,331.215Z" transform="translate(-114.321 -271.708)" fill="#b0bcd8"/>
        <path id="Path_46600" data-name="Path 46600" d="M142.809,335.405a.556.556,0,1,0,.657.432A.556.556,0,0,0,142.809,335.405Z" transform="translate(-115.312 -272.978)" fill="#b0bcd8"/>
        <path id="Path_46601" data-name="Path 46601" d="M163.99,307.333a.556.556,0,1,0-.434.657A.557.557,0,0,0,163.99,307.333Z" transform="translate(-121.532 -264.338)" fill="#b0bcd8"/>
        <path id="Path_46602" data-name="Path 46602" d="M162.315,327.118a.556.556,0,1,0-.433.657A.556.556,0,0,0,162.315,327.118Z" transform="translate(-121.025 -270.335)" fill="#b0bcd8"/>
        <path id="Path_46603" data-name="Path 46603" d="M163.152,317.226a.556.556,0,1,0-.434.656A.556.556,0,0,0,163.152,317.226Z" transform="translate(-121.279 -267.336)" fill="#b0bcd8"/>
        <path id="Path_46604" data-name="Path 46604" d="M160.822,336.576a.556.556,0,1,0,.656.434A.556.556,0,0,0,160.822,336.576Z" transform="translate(-120.771 -273.333)" fill="#b0bcd8"/>
        <path id="Path_46605" data-name="Path 46605" d="M135.437,336.914a.556.556,0,1,0,.657.434A.557.557,0,0,0,135.437,336.914Z" transform="translate(-113.077 -273.435)" fill="#b0bcd8"/>
        <path id="Path_46606" data-name="Path 46606" d="M165.331,321.64a.556.556,0,1,0,.433-.656A.556.556,0,0,0,165.331,321.64Z" transform="translate(-122.269 -268.607)" fill="#b0bcd8"/>
        <path id="Path_46607" data-name="Path 46607" d="M156.617,308.844a.556.556,0,1,0-.433.656A.556.556,0,0,0,156.617,308.844Z" transform="translate(-119.298 -264.796)" fill="#b0bcd8"/>
        <path id="Path_46608" data-name="Path 46608" d="M153.449,338.085a.556.556,0,1,0,.656.434A.558.558,0,0,0,153.449,338.085Z" transform="translate(-118.537 -273.79)" fill="#b0bcd8"/>
        <path id="Path_46609" data-name="Path 46609" d="M154.942,328.627a.556.556,0,1,0-.434.657A.556.556,0,0,0,154.942,328.627Z" transform="translate(-118.79 -270.792)" fill="#b0bcd8"/>
        <path id="Path_46610" data-name="Path 46610" d="M155.78,318.736a.556.556,0,1,0-.433.656A.555.555,0,0,0,155.78,318.736Z" transform="translate(-119.044 -267.794)" fill="#b0bcd8"/>
        <path id="Path_46611" data-name="Path 46611" d="M157.554,332.386a.556.556,0,1,0,.656.433A.555.555,0,0,0,157.554,332.386Z" transform="translate(-119.781 -272.063)" fill="#b0bcd8"/>
        <path id="Path_46612" data-name="Path 46612" d="M159.047,322.927a.556.556,0,1,0-.433.655A.557.557,0,0,0,159.047,322.927Z" transform="translate(-120.034 -269.064)" fill="#b0bcd8"/>
        <path id="Path_46613" data-name="Path 46613" d="M159.884,313.034a.556.556,0,1,0-.433.656A.556.556,0,0,0,159.884,313.034Z" transform="translate(-120.288 -266.066)" fill="#b0bcd8"/>
        <path id="Path_46614" data-name="Path 46614" d="M164.493,331.532a.556.556,0,1,0,.433-.656A.555.555,0,0,0,164.493,331.532Z" transform="translate(-122.015 -271.605)" fill="#b0bcd8"/>
        <path id="Path_46615" data-name="Path 46615" d="M107.189,323.826a.556.556,0,1,0,.433-.656A.556.556,0,0,0,107.189,323.826Z" transform="translate(-104.647 -269.269)" fill="#b0bcd8"/>
        <path id="Path_46616" data-name="Path 46616" d="M107.441,333.5a.556.556,0,1,0-.433.656A.554.554,0,0,0,107.441,333.5Z" transform="translate(-104.393 -272.267)" fill="#b0bcd8"/>
        <path id="Path_46617" data-name="Path 46617" d="M110.889,327.36a.556.556,0,1,0,.656.433A.557.557,0,0,0,110.889,327.36Z" transform="translate(-105.637 -270.54)" fill="#b0bcd8"/>
        <path id="Path_46618" data-name="Path 46618" d="M104.6,329.392a.557.557,0,0,0-.125-.242c-.008.243-.009.478,0,.708A.547.547,0,0,0,104.6,329.392Z" transform="translate(-103.824 -271.086)" fill="#b0bcd8"/>
        <path id="Path_46619" data-name="Path 46619" d="M114.158,331.551a.557.557,0,1,0,.656.433A.556.556,0,0,0,114.158,331.551Z" transform="translate(-106.628 -271.81)" fill="#b0bcd8"/>
        <path id="Path_46620" data-name="Path 46620" d="M111.294,318.143a.556.556,0,0,0,1.089-.224.53.53,0,0,0-.155-.27c-.2-.045-.385-.09-.568-.134A.549.549,0,0,0,111.294,318.143Z" transform="translate(-105.891 -267.559)" fill="#b0bcd8"/>
        <path id="Path_46621" data-name="Path 46621" d="M167.847,335.255a.554.554,0,0,0-.018,1.082c.089-.357.167-.717.238-1.082A.554.554,0,0,0,167.847,335.255Z" transform="translate(-122.9 -272.933)" fill="#b0bcd8"/>
        <path id="Path_46622" data-name="Path 46622" d="M115.65,322.094a.556.556,0,1,0-.433.655A.556.556,0,0,0,115.65,322.094Z" transform="translate(-106.881 -268.812)" fill="#b0bcd8"/>
        <path id="Path_46623" data-name="Path 46623" d="M168.612,325.551c-.015,0-.029,0-.043,0a.556.556,0,0,0-.433.656.546.546,0,0,0,.511.434Q168.636,326.1,168.612,325.551Z" transform="translate(-123.119 -269.994)" fill="#b0bcd8"/>
        <path id="Path_46624" data-name="Path 46624" d="M137.768,317.564a.557.557,0,1,0-.434.656A.558.558,0,0,0,137.768,317.564Z" transform="translate(-113.584 -267.439)" fill="#b0bcd8"/>
        <path id="Path_46625" data-name="Path 46625" d="M121.286,340.558a.557.557,0,1,0-1.091.222.547.547,0,0,0,.087.2l.923-.009A.554.554,0,0,0,121.286,340.558Z" transform="translate(-108.589 -274.408)" fill="#b0bcd8"/>
        <path id="Path_46626" data-name="Path 46626" d="M110.709,337.686a.556.556,0,1,0-.433.656A.556.556,0,0,0,110.709,337.686Z" transform="translate(-105.383 -273.538)" fill="#b0bcd8"/>
        <path id="Path_46627" data-name="Path 46627" d="M166.858,311.764c-.061-.289-.124-.572-.185-.847a.547.547,0,0,0-.347-.052.556.556,0,1,0,.532.9Z" transform="translate(-122.439 -265.541)" fill="#b0bcd8"/>
        <path id="Path_46628" data-name="Path 46628" d="M129.559,328.966a.557.557,0,1,0-.433.656A.556.556,0,0,0,129.559,328.966Z" transform="translate(-111.096 -270.895)" fill="#b0bcd8"/>
        <path id="Path_46629" data-name="Path 46629" d="M132.169,332.723a.556.556,0,1,0,.656.433A.557.557,0,0,0,132.169,332.723Z" transform="translate(-112.087 -272.165)" fill="#b0bcd8"/>
        <path id="Path_46630" data-name="Path 46630" d="M130.4,319.074a.556.556,0,1,0-.433.656A.556.556,0,0,0,130.4,319.074Z" transform="translate(-111.35 -267.897)" fill="#b0bcd8"/>
        <path id="Path_46631" data-name="Path 46631" d="M117.425,335.743a.557.557,0,1,0,.656.433A.556.556,0,0,0,117.425,335.743Z" transform="translate(-107.618 -273.08)" fill="#b0bcd8"/>
        <path id="Path_46632" data-name="Path 46632" d="M133.663,323.265a.556.556,0,1,0-.433.656A.556.556,0,0,0,133.663,323.265Z" transform="translate(-112.341 -269.167)" fill="#b0bcd8"/>
        <path id="Path_46633" data-name="Path 46633" d="M134.123,314.27a.547.547,0,0,0,.434-.546c-.332.119-.654.235-.969.35A.55.55,0,0,0,134.123,314.27Z" transform="translate(-112.652 -266.41)" fill="#b0bcd8"/>
        <path id="Path_46634" data-name="Path 46634" d="M128.065,338.425a.556.556,0,1,0,.656.432A.555.555,0,0,0,128.065,338.425Z" transform="translate(-110.843 -273.893)" fill="#b0bcd8"/>
        <path id="Path_46635" data-name="Path 46635" d="M125.634,324.341a.557.557,0,1,0,.656.434A.556.556,0,0,0,125.634,324.341Z" transform="translate(-110.106 -269.624)" fill="#b0bcd8"/>
        <path id="Path_46636" data-name="Path 46636" d="M118.918,326.284a.556.556,0,1,0-.433.655A.555.555,0,0,0,118.918,326.284Z" transform="translate(-107.872 -270.082)" fill="#b0bcd8"/>
        <path id="Path_46637" data-name="Path 46637" d="M121.53,330.042a.556.556,0,1,0,.656.434A.556.556,0,0,0,121.53,330.042Z" transform="translate(-108.862 -271.352)" fill="#b0bcd8"/>
        <path id="Path_46638" data-name="Path 46638" d="M124.364,334.89a.556.556,0,1,0,.433-.658A.556.556,0,0,0,124.364,334.89Z" transform="translate(-109.852 -272.622)" fill="#b0bcd8"/>
        <path id="Path_46639" data-name="Path 46639" d="M123.023,320.583a.556.556,0,1,0-.433.656A.555.555,0,0,0,123.023,320.583Z" transform="translate(-109.116 -268.354)" fill="#b0bcd8"/>
      </g>
      <path id="Path_46640" data-name="Path 46640" d="M158.891,145.713a3.072,3.072,0,1,1-3.072-3.073A3.072,3.072,0,0,1,158.891,145.713Z" transform="translate(-22.199 -10.252)" fill="#fa7071"/>
      <g id="Group_17971" data-name="Group 17971" transform="translate(136.768 193.963)">
        <g id="Group_17968" data-name="Group 17968" transform="translate(0 5.639)">
          <g id="Group_17953" data-name="Group 17953" transform="translate(3.823 6.192)">
            <path id="Path_46641" data-name="Path 46641" d="M173.416,250.225H168.14a1.138,1.138,0,0,1,0-2.254h5.276a.233.233,0,1,1,0,.466H168.14a.682.682,0,0,0,0,1.322h5.276a.233.233,0,1,1,0,.466Z" transform="translate(-167.159 -247.971)" fill="#5c75c3"/>
          </g>
          <g id="Group_17954" data-name="Group 17954" transform="translate(0.35)">
            <path id="Path_46642" data-name="Path 46642" d="M166.277,245.64a.233.233,0,0,1-.219-.153c-.493-1.34-1.905-4.954-2.516-5.583a.957.957,0,0,0-.641-.351.473.473,0,0,0-.322.13.233.233,0,0,1-.346-.312.933.933,0,0,1,.651-.284,1.361,1.361,0,0,1,.992.493c.8.827,2.546,5.546,2.62,5.747a.233.233,0,0,1-.138.3A.25.25,0,0,1,166.277,245.64Z" transform="translate(-162.175 -239.087)" fill="#5c75c3"/>
          </g>
          <g id="Group_17955" data-name="Group 17955" transform="translate(4.087 7.974)">
            <path id="Path_46643" data-name="Path 46643" d="M168.691,252.835a1.153,1.153,0,1,1,1.153-1.153A1.155,1.155,0,0,1,168.691,252.835Zm0-1.84a.686.686,0,1,0,.686.687A.688.688,0,0,0,168.691,251Z" transform="translate(-167.537 -250.529)" fill="#5c75c3"/>
          </g>
          <g id="Group_17956" data-name="Group 17956" transform="translate(8.918 7.974)">
            <path id="Path_46644" data-name="Path 46644" d="M175.622,252.835a1.153,1.153,0,1,1,1.153-1.153A1.154,1.154,0,0,1,175.622,252.835Zm0-1.84a.686.686,0,1,0,.688.687A.687.687,0,0,0,175.622,251Z" transform="translate(-174.469 -250.529)" fill="#5c75c3"/>
          </g>
          <g id="Group_17957" data-name="Group 17957" transform="translate(2.724 2.09)">
            <path id="Path_46645" data-name="Path 46645" d="M174.213,242.552h-8.4a.233.233,0,1,1,0-.466h8.4a.233.233,0,0,1,0,.466Z" transform="translate(-165.581 -242.086)" fill="#5c75c3"/>
          </g>
          <g id="Group_17958" data-name="Group 17958" transform="translate(9.847 2.09)">
            <path id="Path_46646" data-name="Path 46646" d="M176.036,246.654a.212.212,0,0,1-.069-.01.232.232,0,0,1-.154-.291l1.275-4.1a.233.233,0,1,1,.445.137l-1.275,4.1A.234.234,0,0,1,176.036,246.654Z" transform="translate(-175.802 -242.086)" fill="#5c75c3"/>
          </g>
          <g id="Group_17963" data-name="Group 17963" transform="translate(4.425 2.125)">
            <g id="Group_17959" data-name="Group 17959">
              <path id="Path_46647" data-name="Path 46647" d="M168.255,246.592a.233.233,0,0,1-.233-.233v-3.989a.233.233,0,1,1,.466,0v3.989A.233.233,0,0,1,168.255,246.592Z" transform="translate(-168.022 -242.136)" fill="#5c75c3"/>
            </g>
            <g id="Group_17960" data-name="Group 17960" transform="translate(1.796)">
              <path id="Path_46648" data-name="Path 46648" d="M170.832,246.592a.233.233,0,0,1-.233-.233v-3.989a.233.233,0,1,1,.466,0v3.989A.233.233,0,0,1,170.832,246.592Z" transform="translate(-170.599 -242.136)" fill="#5c75c3"/>
            </g>
            <g id="Group_17961" data-name="Group 17961" transform="translate(3.592)">
              <path id="Path_46649" data-name="Path 46649" d="M173.409,246.592a.233.233,0,0,1-.233-.233v-3.989a.233.233,0,1,1,.466,0v3.989A.233.233,0,0,1,173.409,246.592Z" transform="translate(-173.176 -242.136)" fill="#5c75c3"/>
            </g>
            <g id="Group_17962" data-name="Group 17962" transform="translate(5.387)">
              <path id="Path_46650" data-name="Path 46650" d="M175.985,246.592a.233.233,0,0,1-.233-.233v-3.989a.233.233,0,1,1,.466,0v3.989A.233.233,0,0,1,175.985,246.592Z" transform="translate(-175.752 -242.136)" fill="#5c75c3"/>
            </g>
          </g>
          <g id="Group_17966" data-name="Group 17966" transform="translate(3.281 3.408)">
            <g id="Group_17964" data-name="Group 17964">
              <path id="Path_46651" data-name="Path 46651" d="M173.954,244.443h-7.341a.233.233,0,1,1,0-.466h7.341a.233.233,0,1,1,0,.466Z" transform="translate(-166.381 -243.977)" fill="#5c75c3"/>
            </g>
            <g id="Group_17965" data-name="Group 17965" transform="translate(0.596 1.368)">
              <path id="Path_46652" data-name="Path 46652" d="M173.713,246.406h-6.244a.233.233,0,1,1,0-.466h6.244a.233.233,0,1,1,0,.466Z" transform="translate(-167.236 -245.94)" fill="#5c75c3"/>
            </g>
          </g>
          <g id="Group_17967" data-name="Group 17967" transform="translate(0 0.188)">
            <path id="Path_46653" data-name="Path 46653" d="M162.505,241.021a.832.832,0,1,1,.831-.832A.833.833,0,0,1,162.505,241.021Zm0-1.2a.365.365,0,1,0,.365.365A.366.366,0,0,0,162.505,239.823Z" transform="translate(-161.673 -239.357)" fill="#5c75c3"/>
          </g>
        </g>
        <g id="Group_17969" data-name="Group 17969" transform="translate(9.838)">
          <path id="Path_46654" data-name="Path 46654" d="M176.274,238.384a.228.228,0,0,1-.13-.041.233.233,0,0,1-.093-.257l.612-2.09a2.918,2.918,0,1,1,2.051.84,3.079,3.079,0,0,1-.311-.017l-.042,0-1.943,1.52A.231.231,0,0,1,176.274,238.384Zm2.432-6.922a2.452,2.452,0,0,0-1.625,4.287.233.233,0,0,1,.069.239l-.449,1.532,1.45-1.135a.231.231,0,0,1,.179-.047l.121.017c.087.008.175.012.262.012a2.453,2.453,0,0,0,.255-4.893A2.363,2.363,0,0,0,178.706,231.462Z" transform="translate(-175.79 -230.995)" fill="#5c75c3"/>
        </g>
        <g id="Group_17970" data-name="Group 17970" transform="translate(11.796 1.314)">
          <path id="Path_46655" data-name="Path 46655" d="M179.35,233.288c-.011,0-.654.3-.654.3l-.1-.333.808-.379h.427v3.236h-.484Z" transform="translate(-178.599 -232.88)" fill="#5c75c3"/>
        </g>
      </g>
    </g>
  </g>
</svg>
