<svg xmlns="http://www.w3.org/2000/svg" width="437.621" height="335.907" viewBox="0 0 437.621 335.907">
  <g id="Group_18103" data-name="Group 18103" transform="translate(-1235.81 -336.899)">
    <g id="Layer_3" data-name="Layer 3" transform="translate(1235.81 336.899)">
      <circle id="Ellipse_1003" data-name="Ellipse 1003" cx="105.242" cy="105.242" r="105.242" transform="translate(139.952 170.308) rotate(-45)" fill="#cbcfff" opacity="0.6"/>
      <path id="Path_46822" data-name="Path 46822" d="M2209.617,371.685a59.256,59.256,0,1,1-78.444-29.476A59.254,59.254,0,0,1,2209.617,371.685Z" transform="translate(-1876.562 -336.899)" fill="#da97b8" opacity="0.3"/>
      <path id="Path_46823" data-name="Path 46823" d="M1472.429,497.241a123.827,123.827,0,1,1-163.925-61.6A123.829,123.829,0,0,1,1472.429,497.241Z" transform="translate(-1235.81 -402.159)" fill="#cae1fc" opacity="0.7"/>
      <path id="Path_46824" data-name="Path 46824" d="M1622.768,439.352a35.09,35.09,0,1,1-35.088-35.094A35.086,35.086,0,0,1,1622.768,439.352Z" transform="translate(-1471.67 -387.052)" fill="#ffd7df" opacity="0.6"/>
      <path id="Path_46825" data-name="Path 46825" d="M1471.453,752.9a17.545,17.545,0,1,1-17.545-17.545A17.544,17.544,0,0,1,1471.453,752.9Z" transform="translate(-1385.135 -633.574)" fill="#fff" opacity="0.5"/>
      <path id="Path_46826" data-name="Path 46826" d="M2445.691,674.654a17.545,17.545,0,1,1-17.545-17.546A17.545,17.545,0,0,1,2445.691,674.654Z" transform="translate(-2110.514 -575.314)" fill="#fff" opacity="0.5"/>
      <path id="Path_46827" data-name="Path 46827" d="M1993.162,379.7a17.545,17.545,0,1,1-17.545-17.546A17.544,17.544,0,0,1,1993.162,379.7Z" transform="translate(-1773.579 -355.705)" fill="#cbcfff" opacity="0.6"/>
      <path id="Path_46828" data-name="Path 46828" d="M1626.19,467.067a12.384,12.384,0,1,1-12.384-12.385A12.384,12.384,0,0,1,1626.19,467.067Z" transform="translate(-1508.03 -424.596)" fill="#fff" opacity="0.5"/>
      <path id="Path_46829" data-name="Path 46829" d="M2280.663,502.016a12.384,12.384,0,1,1-12.383-12.385A12.384,12.384,0,0,1,2280.663,502.016Z" transform="translate(-1995.326 -450.617)" fill="#cbcfff" opacity="0.6"/>
      <circle id="Ellipse_1004" data-name="Ellipse 1004" cx="3.096" cy="3.096" r="3.096" transform="translate(113.671 102.813)" fill="#b1c5ee"/>
      <path id="Path_46830" data-name="Path 46830" d="M2223.141,404.5a6.774,6.774,0,1,1-6.773-6.773A6.773,6.773,0,0,1,2223.141,404.5Z" transform="translate(-1960.852 -382.189)" fill="#fff" opacity="0.5"/>
      <path id="Path_46831" data-name="Path 46831" d="M2378.854,841.951a1.548,1.548,0,1,1-1.548-1.548A1.547,1.547,0,0,1,2378.854,841.951Z" transform="translate(-2084.571 -711.789)" fill="#b1c5ee"/>
    </g>
    <g id="Layer_2" data-name="Layer 2" transform="translate(1250.117 349.626)">
      <path id="Path_46832" data-name="Path 46832" d="M1816.962,1620.8c0,2.523-12.964,4.563-28.95,4.563s-28.956-2.039-28.956-4.563,12.975-4.546,28.956-4.546S1816.962,1618.294,1816.962,1620.8Z" transform="translate(-1639.705 -1302.187)" fill="#a8bcff" opacity="0.3"/>
      <path id="Path_46833" data-name="Path 46833" d="M1733,1538.905c0,1.575-15.757,2.851-35.194,2.851s-35.206-1.276-35.206-2.851,15.771-2.844,35.206-2.844S1733,1537.336,1733,1538.905Z" transform="translate(-1567.889 -1242.475)" fill="#a8bcff" opacity="0.3"/>
      <path id="Path_46834" data-name="Path 46834" d="M2358.451,1464.47c0,1.159-11.6,2.1-25.907,2.1s-25.916-.939-25.916-2.1,11.609-2.094,25.916-2.094S2358.451,1463.313,2358.451,1464.47Z" transform="translate(-2047.407 -1187.612)" fill="#a8bcff" opacity="0.3"/>
      <path id="Path_46835" data-name="Path 46835" d="M1905.333,1517.193c0,1.16-11.6,2.1-25.906,2.1s-25.916-.939-25.916-2.1,11.609-2.094,25.916-2.094S1905.333,1516.036,1905.333,1517.193Z" transform="translate(-1710.032 -1226.868)" fill="#da97b8" opacity="0.2"/>
      <g id="Group_18061" data-name="Group 18061" transform="translate(265.383 123.961)">
        <path id="Path_46836" data-name="Path 46836" d="M2467.072,898.976a1.339,1.339,0,0,0,.034.638c.408,1.194,1.554,1.269,1.687,2.916a19.2,19.2,0,0,1-.645,4.721c-.465,2.693.551,4.933,3.735,4.108-.573,1.011-1.684,2.414-1.69,3.624-.011,1.872,1.234,3,2.637,3.856a8.764,8.764,0,0,0,8.009.941c2.8-1.2,2.332-4.272,4.079-6.329.77-.9,2.354-.706,3.645-1.375a10.529,10.529,0,0,0,3.288-3.313c2.056-3.109,2.312-5.781.849-8.977,9.722-10.6-9.752-17.33-18.066-13.978-.323.131-.635.337-.949.5q-2.368,4.5-4.743,8.989C2468.506,896.121,2467.248,897.788,2467.072,898.976Z" transform="translate(-2432.233 -881.636)" fill="#0b1238"/>
        <path id="Path_46837" data-name="Path 46837" d="M2371.853,969.941c-4.26.442-9.772,13.09-12.273,13.046s-15.613-12.958-15.613-12.958a9.21,9.21,0,0,0-7.847-3.9l1.8,1.464s-6.77-1.151-7.136-.576,2.263,2.526,6.717,4.158a17.657,17.657,0,0,1,2.555,1.132c1.84,1.027,2.839,2.808,4.446,4.421,4.309,4.34,12.485,12.4,14.143,12.845,2.275.608,11.776-4.988,11.776-4.988Z" transform="translate(-2330.749 -942.08)" fill="#f5b29c"/>
        <g id="Group_18060" data-name="Group 18060" transform="translate(28.213)">
          <path id="Path_46838" data-name="Path 46838" d="M2489.271,1170.434s-5.164,1.959-4.986,3.028,3.917-.891,3.917-.891Z" transform="translate(-2473.275 -1094.204)" fill="#f5b29c"/>
          <path id="Path_46839" data-name="Path 46839" d="M2498.064,935.224a10.159,10.159,0,0,1-.594,7.124c-1.781,3.562,9.973,0,9.973,0s-3.44-2.374-.71-10.211S2497.115,932.968,2498.064,935.224Z" transform="translate(-2482.959 -914.383)" fill="#f5b29c"/>
          <path id="Path_46840" data-name="Path 46840" d="M2460.444,1129.384c1.573,15.962-7.613,54.151-7.613,54.151s-9.633.268-11.361.229,5.477-2.694,6.656-4.492,2.463-2.255,2.519-7.232-4.49-56.835.545-66.077,11.761-8.309,13.135-1.141S2458.87,1113.42,2460.444,1129.384Z" transform="translate(-2441.2 -1041.195)" fill="#f5a988"/>
          <path id="Path_46841" data-name="Path 46841" d="M2446.592,1417.607c3.158,1.834,5.338,1.576,6.548,1.086l-.312,1.887s-9.633.267-11.361.228C2440.116,1420.771,2444.162,1419.166,2446.592,1417.607Z" transform="translate(-2441.198 -1278.239)" fill="#2e3054"/>
          <path id="Path_46842" data-name="Path 46842" d="M2499.469,1132.44c4.111,15.5,1.161,54.669,1.161,54.669s-9.467,1.808-11.18,2.046,4.975-3.538,5.852-5.5,2.069-2.622,1.326-7.544-13.535-55.38-10.043-65.309,10.274-10.088,12.781-3.231S2495.358,1116.932,2499.469,1132.44Z" transform="translate(-2474.543 -1043.867)" fill="#f5b29c"/>
          <path id="Path_46843" data-name="Path 46843" d="M2503.281,1425.2c3.411,1.306,5.523.7,6.635.023l0,1.912s-9.467,1.808-11.18,2.046C2497.4,1429.362,2501.132,1427.127,2503.281,1425.2Z" transform="translate(-2483.827 -1283.894)" fill="#2e3054"/>
          <path id="Path_46844" data-name="Path 46844" d="M2480.246,1098.115s4.945,3.48,3.461,13.919-1.063,28.716-1.063,28.716a108.791,108.791,0,0,1-14.22,1.063,88.426,88.426,0,0,1-12.441-.549s3.589-30.332,4.871-35.173a53.209,53.209,0,0,1,2.924-8.3Z" transform="translate(-2452.206 -1040.115)" fill="#0b1238"/>
          <path id="Path_46845" data-name="Path 46845" d="M2484.207,969.78s7.029-1.323,6.215,8.341a100.175,100.175,0,0,0-.115,13.405c.082,1.683.153,3.346.175,5.021.026,1.792.908,3.273,1.2,5.031.288,1.735.314,3.557.71,5.258.461,1.978,2.366,5.247,1.577,7.226a86.273,86.273,0,0,1-12.632-.678c-2.875-.259-5.834-.683-8.72-.7-1.159-.008-4.22-.008-5-.963a24.751,24.751,0,0,1,2.257-4.638,29.854,29.854,0,0,0,1.873-4.651c1.357-4.121.912-8.092-2.041-11.29-2.52-2.735-2.833-5.808-1.361-9.231,3.067-7.123,1.956-6.214,3.928-9.208S2481.53,973.031,2484.207,969.78Z" transform="translate(-2460.755 -944.759)" fill="#fff"/>
          <path id="Path_46846" data-name="Path 46846" d="M2496.183,872.05c-4.466.379-12.085,5.192-10.483,9.528s8.041,2.825,10.7.7l.943,1.725s2.277-1.851,2.9.557-2.175,2.462-2.175,2.462,2.679,6.877,7.688,4.561S2508.537,871,2496.183,872.05Z" transform="translate(-2474.17 -872.006)" fill="#0b1238"/>
          <path id="Path_46847" data-name="Path 46847" d="M2510.376,933.038c-.524-2.042-3.444-.915-4.808-.119-2.052,1.2-3.714,2.849-3.719,5.251,0,.943-.011,1.879-.038,2.819,4.256.949,8.311-4.762,8.232-7.2,0,0,.155-.291.34-.71A.227.227,0,0,0,2510.376,933.038Z" transform="translate(-2486.329 -916.589)" fill="#dc998d"/>
          <path id="Path_46848" data-name="Path 46848" d="M2497.021,900.627s-6.815,8.323-2.8,13.063,9.615-3.468,9.615-3.468,3.287-3.583,1.215-3.7-1.459.695-1.459.695a8.386,8.386,0,0,0,.85-3.467C2504.444,901.9,2501.4,906.985,2497.021,900.627Z" transform="translate(-2479.734 -893.316)" fill="#f5b29c"/>
          <path id="Path_46849" data-name="Path 46849" d="M2544.985,973.3c2.523-3.938,14.958,21.371,14.958,21.371s-9.262,13.535-10.448,17.1a62.645,62.645,0,0,0-1.9,9.737,9.842,9.842,0,0,1-1.663-8.312s-1.423,2.137-2.374,1.189,2.613-4.275,2.613-4.275,5.223-11.4,5.936-15.435S2540.359,980.517,2544.985,973.3Z" transform="translate(-2517.292 -947.118)" fill="#f5b29c"/>
        </g>
      </g>
      <path id="Path_46850" data-name="Path 46850" d="M2008.848,1424.734c0,1.462-15.917,2.649-35.555,2.649s-35.555-1.187-35.555-2.649,15.918-2.652,35.555-2.652S2008.848,1423.269,2008.848,1424.734Z" transform="translate(-1772.744 -1157.611)" fill="#a8bcff"/>
      <path id="Path_46851" data-name="Path 46851" d="M1505.831,1597.631c0,1.9-15.035,3.438-33.581,3.438s-33.59-1.537-33.59-3.438,15.042-3.438,33.59-3.438S1505.831,1595.735,1505.831,1597.631Z" transform="translate(-1401.151 -1285.758)" fill="#da97b8" opacity="0.3"/>
      <path id="Path_46852" data-name="Path 46852" d="M2425.491,1417.346c0,1.86-14.234,3.356-31.791,3.356s-31.8-1.5-31.8-3.356,14.247-3.349,31.8-3.349S2425.491,1415.5,2425.491,1417.346Z" transform="translate(-2088.557 -1151.591)" fill="#da97b8" opacity="0.2"/>
      <path id="Path_46853" data-name="Path 46853" d="M1733.03,1436.164c0,1.549-12.347,2.8-27.578,2.8s-27.588-1.247-27.588-2.8,12.359-2.789,27.588-2.789S1733.03,1434.625,1733.03,1436.164Z" transform="translate(-1579.253 -1166.019)" fill="#a8bcff" opacity="0.5"/>
      <path id="Path_46854" data-name="Path 46854" d="M1369.394,1442.224c0,1.55-12.347,2.8-27.577,2.8s-27.588-1.247-27.588-2.8,12.359-2.789,27.588-2.789S1369.394,1440.685,1369.394,1442.224Z" transform="translate(-1308.504 -1170.531)" fill="#a8bcff" opacity="0.5"/>
      <g id="Group_18063" data-name="Group 18063" transform="translate(100.736 120.419)">
        <path id="Path_46855" data-name="Path 46855" d="M1786.858,885.084a1.144,1.144,0,0,0,.065-.438c-.049-.963-3-3.633-3.749-4.449a30.751,30.751,0,0,0-3.337-3.476c-1.164-.916-4.144-1.492-4.652-2.992-.766-2.3,3.113-5.577,5.181-4.478a71.072,71.072,0,0,1,10.53,8.492c2.8,3.3,6.5,6.05,4.635,10.728-2.241,5.613-8.329,8.9-13.065,12.2-2.178,1.524-8.233,6.061-10.826,3.772-3.146-2.785,1.513-9.171,3.635-10.941s4.39-3.347,6.643-4.956C1783.064,887.73,1786.354,886.573,1786.858,885.084Z" transform="translate(-1749.022 -866.25)" fill="#9fb8e3"/>
        <g id="Group_18062" data-name="Group 18062">
          <path id="Path_46856" data-name="Path 46856" d="M1803.615,1408.615c.209,2.537-.623,5.032-.439,7.644,3.864.472,7.109,1.173,11.076.907-.957-2.373-3.007-2.791-5.148-4.185-3.456-2.247-1.848-3.864-3.126-7.139Z" transform="translate(-1773.272 -1265.938)" fill="#0b1238"/>
          <path id="Path_46857" data-name="Path 46857" d="M1731.356,1412.32c.21,2.537-.621,5.032-.439,7.641,3.866.475,7.11,1.176,11.079.91-.959-2.374-3.009-2.791-5.149-4.185-3.455-2.247-1.846-3.864-3.128-7.139Z" transform="translate(-1719.471 -1268.697)" fill="#0b1238"/>
          <path id="Path_46858" data-name="Path 46858" d="M1726.289,1122.4l6.2,78.228-7.973.868-6.167-52.566-3.574,51.943-7.955.145s-5.74-37.321-5.923-48.224c-1.063-14.123-2.038-24.546,2.989-30.276C1703.881,1122.519,1720.026,1125.08,1726.289,1122.4Z" transform="translate(-1696.498 -1054.899)" fill="#0b1238"/>
          <path id="Path_46859" data-name="Path 46859" d="M1720.909,935.043c1.412-1.95,3.3-3.453,4.551-5.633.331-.585,1.693-5.108,2.206-5.18,1.94-.284,5.116-.887,6.5.647,1.435,1.587.979,5.635,1.668,7.62.368,1.081,1.413,1.863,1.828,2.844,1.613,3.862-2.791,10.022-4.176,13.545-.9,2.295-1.686,6.487-4.372,7.659-3.768,1.647-6.307-3.166-7.544-5.9a18.372,18.372,0,0,1-1.871-5.849c-.144-1.855-.851-4.774-.354-6.583A9.565,9.565,0,0,1,1720.909,935.043Z" transform="translate(-1710.746 -907.082)" fill="#ba6b4f"/>
          <path id="Path_46860" data-name="Path 46860" d="M1761.587,932.183a.511.511,0,0,1,.008-.078,3.732,3.732,0,0,1-.208-.5c-.6-1.964-.19-5.973-1.465-7.538-.907-1.115-2.679-1.08-4.238-.871-.665.892-1.448,2.044-1.962,2.762a9.3,9.3,0,0,0,.54,1.125C1755.738,929.752,1758.774,932.669,1761.587,932.183Z" transform="translate(-1736.471 -906.492)" fill="#ecb49f" style="mix-blend-mode: multiply;isolation: isolate"/>
          <path id="Path_46861" data-name="Path 46861" d="M1750.162,883.359a9.2,9.2,0,0,1-1.435-.673c-3.047-1.831-3.978-8.7-3.671-12.049.345-3.74,2.441-5.822,5.49-6.522,7.358-1.68,11.546,11.758,8.876,17.564C1758.04,884.683,1753.272,884.512,1750.162,883.359Z" transform="translate(-1729.977 -862.482)" fill="#ba6b4f"/>
          <path id="Path_46862" data-name="Path 46862" d="M1717.443,1006.121c.292-6.567.919-23.9.207-30.42-.733-6.723-1.854-12.344-5.323-18.3a9.339,9.339,0,0,1-2.5,2.108c-1.075.431-2.557-.018-3.625-.28l-.59-.15a10.756,10.756,0,0,1-4.117-2.141c-2.841-2.323-10,2.083-11.355,5.089a55.7,55.7,0,0,0-3.766,13.068c-1.156,6.832,3.4,25.661,5.474,32.041Z" transform="translate(-1686.183 -931.217)" fill="#1e72cc"/>
          <path id="Path_46863" data-name="Path 46863" d="M1753.76,862.5c-.508-.063-.834-.393-1.374-.417-.148.036-.142.044.014.019,2.508-2.722-3.434-3.883-4.923-3.94-3.852-.151-7.294.366-9.678,3.69a8.185,8.185,0,0,0-1.016,7.665c1.351,3.48,3.758,3.244,6.26,4.965-2.829-1.945.736-6.62,2.517-7.62,2.183-1.219,4.189.382,6.46-.922C1752.315,865.771,1755.377,862.716,1753.76,862.5Z" transform="translate(-1723.464 -858.142)" fill="#2e3054"/>
        </g>
        <path id="Path_46864" data-name="Path 46864" d="M1731.706,1149.274a23.463,23.463,0,0,0,2.986,6.087c.977,1.391,2.667,4.968,4.225,5.506-.585-1.636-1.271-3.25-1.983-4.8a13.609,13.609,0,0,0,3.758,5c-.094-1.763-1.955-4.082-2.688-5.787,1.9.792,2.472,4.115,4.407,4.911.236-1.9-2.013-3.435-2.753-5.013,1.368.916,2.337,2.552,3.976,2.915-.215-2.068-3.817-4.115-4.821-6.066a7.145,7.145,0,0,1,2.454.587c.214-1.627-2.545-2.319-3.57-3.126a9.533,9.533,0,0,1-2.786-4.188Z" transform="translate(-1720.078 -1071.945)" fill="#ba6b4f"/>
        <path id="Path_46865" data-name="Path 46865" d="M1708.289,964.632c4.975-.309,1.815,25.654,1.617,30.443s5.323,18.6,5.323,18.6l-6.434,3.075s-5.825-14.561-6.873-20.658S1700.025,965.143,1708.289,964.632Z" transform="translate(-1697.416 -937.428)" fill="#9fb8e3"/>
      </g>
      <g id="Group_18064" data-name="Group 18064" transform="translate(46.054 94.636)">
        <path id="Path_46866" data-name="Path 46866" d="M1481.377,774.517h-3.935v-2.124a4.954,4.954,0,0,1,.331-2.073,7.694,7.694,0,0,1,1.444-1.794l2.544-2.542a3.069,3.069,0,0,0,.8-2.16,2.937,2.937,0,0,0-.837-2.141,2.887,2.887,0,0,0-2.158-.853,3.139,3.139,0,0,0-2.213.819,3.3,3.3,0,0,0-1.027,2.176h-4.215a7.138,7.138,0,0,1,2.42-4.858,7.717,7.717,0,0,1,5.172-1.759,7.441,7.441,0,0,1,5.051,1.689,5.91,5.91,0,0,1,1.95,4.719,5.279,5.279,0,0,1-1.151,3.483,14.37,14.37,0,0,1-1.01,1.184c-.23.232-.538.529-.922.888s-.709.674-.975.941-.481.493-.644.679a3.319,3.319,0,0,0-.627,2.159Zm-1.9,7.732a2.683,2.683,0,0,1-1.9-.749,2.382,2.382,0,0,1-.8-1.811,2.468,2.468,0,0,1,.784-1.828,2.593,2.593,0,0,1,1.879-.766,2.688,2.688,0,0,1,1.9.748,2.388,2.388,0,0,1,.8,1.811,2.469,2.469,0,0,1-.783,1.829A2.593,2.593,0,0,1,1479.479,782.249Z" transform="translate(-1472.112 -757.206)" fill="#ffc5c0"/>
      </g>
      <g id="Group_18065" data-name="Group 18065" transform="translate(296.988 74.913)">
        <path id="Path_46867" data-name="Path 46867" d="M2463.412,696.689h-3.8v-2.049a4.767,4.767,0,0,1,.32-2,7.342,7.342,0,0,1,1.393-1.73l2.454-2.453a2.964,2.964,0,0,0,.773-2.083,2.831,2.831,0,0,0-.808-2.065,2.786,2.786,0,0,0-2.082-.823,3.029,3.029,0,0,0-2.135.789,3.187,3.187,0,0,0-.991,2.1h-4.065a6.888,6.888,0,0,1,2.334-4.686,7.446,7.446,0,0,1,4.989-1.7,7.18,7.18,0,0,1,4.873,1.63,5.7,5.7,0,0,1,1.88,4.551,5.1,5.1,0,0,1-1.109,3.359,14.393,14.393,0,0,1-.974,1.143c-.222.224-.52.51-.889.857s-.684.65-.941.908-.464.475-.622.655a3.214,3.214,0,0,0-.6,2.083Zm-1.831,7.459a2.588,2.588,0,0,1-1.831-.723,2.3,2.3,0,0,1-.772-1.747,2.377,2.377,0,0,1,.756-1.764,2.5,2.5,0,0,1,1.812-.738,2.593,2.593,0,0,1,1.833.722,2.3,2.3,0,0,1,.773,1.746,2.384,2.384,0,0,1-.756,1.764A2.5,2.5,0,0,1,2461.581,704.147Z" transform="translate(-2454.475 -679.992)" fill="#ffc5c0"/>
      </g>
      <g id="Group_18066" data-name="Group 18066" transform="translate(180.453 0)">
        <path id="Path_46868" data-name="Path 46868" d="M2007.523,404.031h-3.934v-2.124a4.947,4.947,0,0,1,.331-2.072,7.623,7.623,0,0,1,1.444-1.794l2.543-2.542a3.07,3.07,0,0,0,.8-2.16,2.943,2.943,0,0,0-.836-2.142,2.891,2.891,0,0,0-2.159-.853,3.14,3.14,0,0,0-2.212.819,3.3,3.3,0,0,0-1.026,2.176h-4.215a7.141,7.141,0,0,1,2.42-4.858,7.715,7.715,0,0,1,5.172-1.759,7.443,7.443,0,0,1,5.049,1.689,5.908,5.908,0,0,1,1.95,4.719,5.284,5.284,0,0,1-1.149,3.482,14.981,14.981,0,0,1-1.01,1.184q-.347.348-.922.888c-.384.36-.711.674-.975.941s-.483.494-.646.679a3.327,3.327,0,0,0-.627,2.159Zm-1.9,7.732a2.688,2.688,0,0,1-1.9-.749,2.387,2.387,0,0,1-.8-1.81,2.472,2.472,0,0,1,.783-1.829,2.594,2.594,0,0,1,1.88-.766,2.684,2.684,0,0,1,1.9.748,2.388,2.388,0,0,1,.8,1.811,2.469,2.469,0,0,1-.785,1.828A2.591,2.591,0,0,1,2005.626,411.762Z" transform="translate(-1998.26 -386.722)" fill="#fff"/>
      </g>
      <g id="Group_18067" data-name="Group 18067" transform="translate(86.331 21.789)">
        <path id="Path_46869" data-name="Path 46869" d="M1636.327,484.24h-2.777v-1.5a3.461,3.461,0,0,1,.234-1.463,5.339,5.339,0,0,1,1.019-1.267l1.794-1.794a2.169,2.169,0,0,0,.566-1.525,2.082,2.082,0,0,0-.59-1.512,2.045,2.045,0,0,0-1.524-.6,2.216,2.216,0,0,0-1.562.578,2.329,2.329,0,0,0-.724,1.535h-2.975a5.045,5.045,0,0,1,1.708-3.429,5.444,5.444,0,0,1,3.651-1.241,5.254,5.254,0,0,1,3.563,1.192,4.172,4.172,0,0,1,1.377,3.331,3.73,3.73,0,0,1-.812,2.458,10.537,10.537,0,0,1-.712.836q-.245.246-.651.627c-.271.254-.5.475-.688.664s-.34.349-.456.479a2.354,2.354,0,0,0-.442,1.524Zm-1.339,5.458a1.9,1.9,0,0,1-1.341-.529,1.685,1.685,0,0,1-.564-1.278,1.748,1.748,0,0,1,.552-1.291,1.835,1.835,0,0,1,1.329-.541,1.891,1.891,0,0,1,1.338.529,1.685,1.685,0,0,1,.567,1.278,1.747,1.747,0,0,1-.553,1.29A1.83,1.83,0,0,1,1634.987,489.7Z" transform="translate(-1629.788 -472.023)" fill="#ffc5c0"/>
      </g>
      <g id="Group_18068" data-name="Group 18068" transform="translate(253.509 30.717)">
        <path id="Path_46870" data-name="Path 46870" d="M2290.8,519.189h-2.777v-1.5a3.472,3.472,0,0,1,.234-1.463,5.353,5.353,0,0,1,1.02-1.267l1.794-1.794a2.168,2.168,0,0,0,.566-1.525,2.082,2.082,0,0,0-.59-1.512,2.044,2.044,0,0,0-1.524-.6,2.216,2.216,0,0,0-1.562.578,2.331,2.331,0,0,0-.724,1.535h-2.975a5.045,5.045,0,0,1,1.708-3.429,5.445,5.445,0,0,1,3.651-1.241,5.254,5.254,0,0,1,3.564,1.192,4.172,4.172,0,0,1,1.377,3.33,3.731,3.731,0,0,1-.812,2.458,10.577,10.577,0,0,1-.712.836q-.245.246-.652.627c-.271.254-.5.476-.688.664s-.341.349-.457.479a2.354,2.354,0,0,0-.442,1.524Zm-1.34,5.458a1.9,1.9,0,0,1-1.341-.529,1.685,1.685,0,0,1-.564-1.278,1.748,1.748,0,0,1,.552-1.291,1.835,1.835,0,0,1,1.329-.541,1.893,1.893,0,0,1,1.338.528,1.688,1.688,0,0,1,.567,1.278,1.746,1.746,0,0,1-.553,1.29A1.829,1.829,0,0,1,2289.462,524.647Z" transform="translate(-2284.263 -506.972)" fill="#fff"/>
      </g>
      <g id="Group_18069" data-name="Group 18069" transform="translate(151.025 46.413)">
        <path id="Path_46871" data-name="Path 46871" d="M1954.7,721.277H1924.27V702.515q0-12.3,2.558-18.3T1938,668.377l19.666-22.452q6.191-7.682,6.194-19.068t-6.464-18.913a20.984,20.984,0,0,0-16.7-7.536,22.628,22.628,0,0,0-17.1,7.227q-6.867,7.228-7.948,19.221h-32.592q2.684-27.367,18.719-42.9c10.684-10.35,9.015-15.531,25-15.531,4.712,0,24.17.432,28.368,1.3a50.136,50.136,0,0,1,25.689,13.62q15.08,14.921,15.083,41.674,0,18.453-8.889,30.755a128.857,128.857,0,0,1-7.812,10.457q-2.694,3.075-7.138,7.841t-7.539,8.305q-3.1,3.539-4.986,6-4.85,6.765-4.85,19.066Zm-14.677,68.277c-5.659,0-8.5.227-17-.272-6.49-.333-3.88-16.077-3.88-22.336s-.44-23.343,5.6-22.91c7,.5,10.873.49,16.527.49s9.024,1.714,13.156,6.123a22.563,22.563,0,0,1,6.2,15.989,23.364,23.364,0,0,1-6.061,16.149A18.864,18.864,0,0,1,1940.028,789.554Z" transform="translate(-1883.056 -568.421)" fill="#faaaa4"/>
      </g>
      <g id="Group_18070" data-name="Group 18070" transform="translate(136.023 46.413)">
        <path id="Path_46872" data-name="Path 46872" d="M1895.974,721.277h-30.435V702.515q0-12.3,2.56-18.3t11.177-15.84l19.666-22.452q6.192-7.682,6.194-19.068t-6.466-18.913a20.98,20.98,0,0,0-16.7-7.536,22.628,22.628,0,0,0-17.1,7.227q-6.869,7.228-7.949,19.221h-32.592q2.688-27.367,18.721-42.9t40-15.531q23.973,0,39.057,14.917t15.082,41.674q0,18.453-8.89,30.755a128.676,128.676,0,0,1-7.81,10.457q-2.7,3.075-7.137,7.841t-7.54,8.305q-3.1,3.539-4.988,6-4.849,6.765-4.85,19.066ZM1881.3,789.554a19.462,19.462,0,0,1-14.683-6.613,22.534,22.534,0,0,1-6.194-15.995,23.39,23.39,0,0,1,6.061-16.146,18.868,18.868,0,0,1,14.544-6.764,19.463,19.463,0,0,1,14.681,6.613,22.563,22.563,0,0,1,6.2,15.989,23.358,23.358,0,0,1-6.061,16.149A18.865,18.865,0,0,1,1881.3,789.554Z" transform="translate(-1824.325 -568.421)" fill="#fa7071"/>
      </g>
      <g id="Group_18071" data-name="Group 18071" transform="translate(185.131 278.336)">
        <path id="Path_46873" data-name="Path 46873" d="M2057.1,1579.3c0,.839-4.248,1.519-9.488,1.519s-9.485-.68-9.485-1.519,4.247-1.517,9.485-1.517S2057.1,1578.462,2057.1,1579.3Z" transform="translate(-2032.618 -1551.875)" fill="#a8bcff" opacity="0.3"/>
        <path id="Path_46874" data-name="Path 46874" d="M2070.785,1537.17c2.807-.02,9.508-.278,8.5-4.737a20.307,20.307,0,0,0-2.658-.129c4.66-1.848,4.6-6.648,4.368-11.182-2.065,1.356-4.581,4.21-5.148,6.769-2.492-2.41-3.147.954-3.769,3.045-.867,2.925-1.514,4.777-4.371,6.575Z" transform="translate(-2054.646 -1509.689)" fill="#ffc5c0"/>
        <path id="Path_46875" data-name="Path 46875" d="M2056.162,1504.155c-.747-.247,3.176-10.536,3.182-11.52.012-4.547-2.573-5.48-3.434-.555,1.051-4.329.159-13.08-3.841-15.719-2.383,1.984-2.041,6.315-1.373,9.141C2051.489,1488.867,2053.2,1503.175,2056.162,1504.155Z" transform="translate(-2041.615 -1476.361)" fill="#9dafe2"/>
        <path id="Path_46876" data-name="Path 46876" d="M2029.79,1536.952c-2.327-7.137-3.436-14.4-13.209-13.6-.181,3.4,3.342,5.139,6.046,6.2-2.147-.316-3.823.78-2.6,2.635.916,1.391,4.342,1.447,5.748,1.714-3.422,2.151,2.627,4.348,4.408,4.607Z" transform="translate(-2016.575 -1511.304)" fill="#2a2b7c"/>
      </g>
      <path id="Path_46877" data-name="Path 46877" d="M2232.923,1597.13c0,2.585-16.621,4.668-37.122,4.668s-37.137-2.083-37.137-4.668c0-2.569,16.636-4.658,37.137-4.658S2232.923,1594.561,2232.923,1597.13Z" transform="translate(-1937.238 -1284.477)" fill="#da97b8" opacity="0.2"/>
      <g id="Group_18072" data-name="Group 18072" transform="translate(231.844 163.093)">
        <path id="Path_46878" data-name="Path 46878" d="M2315.954,1147.736c-1.256-3.3-3.95-5.751-3.512-9.378.259-2.123,1.276-6.039,3.855-6.44,2.221-.345,3.544,4.226,4.513,5.942a26.582,26.582,0,0,1,3.5,8.691c.452,2.785,1.475,5.914,1.424,8.654-.045,2.6-2.21,4.254-3.8,6.167-2.538,3.042-4.944,6.2-7.469,9.153a36.442,36.442,0,0,0-2.857,3.851c-.788,1.212-1.363,3.021-2.471,3.968-1.156-1.722-1.493-4.151-2.268-6.121-1.06-2.7,2.121-6.858,3.657-9.269,1.457-2.293,2.852-4.916,4.251-7.353C2316.456,1152.666,2317.2,1151.018,2315.954,1147.736Z" transform="translate(-2279.268 -1104.646)" fill="#1e72cc"/>
        <path id="Path_46879" data-name="Path 46879" d="M2212.7,1308.224l1.527,5.541-1.527-1.144s-.576,6.114-1.72,6.685-1.528.767-2.868-.955,1.528-8.406.574-11.271A3.994,3.994,0,0,1,2212.7,1308.224Z" transform="translate(-2205.628 -1234.964)" fill="#f5b29c"/>
        <path id="Path_46880" data-name="Path 46880" d="M2216.626,1587.631s.694,5.636-1.211,5.946-9.7-7.3-9.835-10.3S2211.235,1583.65,2216.626,1587.631Z" transform="translate(-2204.013 -1439.871)" fill="#445998"/>
        <path id="Path_46881" data-name="Path 46881" d="M2365.347,1580.711s-.219,5.67-2.146,5.67-9.982-7.532-9.635-10.51S2360.664,1575.917,2365.347,1580.711Z" transform="translate(-2314.191 -1434.328)" fill="#445998"/>
        <path id="Path_46882" data-name="Path 46882" d="M2212.056,1124.236s-3.055-.765-6.495,7.26-6.113,23.689-6.113,23.689l3.056,19.1,4.2-.763-.381-16.811S2215.113,1132.642,2212.056,1124.236Z" transform="translate(-2199.449 -1098.925)" fill="#1e72cc"/>
        <path id="Path_46883" data-name="Path 46883" d="M2255.935,1082.7s-.419,9.663-1.539,11.525c-1.457,2.418-4.522.978-5.21,4.077-.428,1.932.747,4.553,1.774,6.136,3.109,4.81,8.682,4.166,13.792,5.061,2.927.51,6.1-.8,7.05-3.847.75-2.409.053-6.59-1.645-8.551-1.022-1.186-2.907-1.481-4.074-2.548-.014-.017-3.14-2.885-2.919-6.814C2263.382,1083.789,2258.124,1080.5,2255.935,1082.7Z" transform="translate(-2236.414 -1067.487)" fill="#f5b29c"/>
        <path id="Path_46884" data-name="Path 46884" d="M2245.117,1167.283a25.67,25.67,0,0,0-4.15-1.088c-1.119-.083-1.895.509-2.64-.089a2.16,2.16,0,0,1-.215-.21c-.684-.788-.5-3.75-.608-4.732-.33-3.226-.641-6.455-.984-9.679-.981-9.342.453-26.01.071-22s-1.53-4.584.953-6.3,6.879.573,6.879.573,1.72,1.525,5.922,1.718,5.923-1.718,5.923-1.718l6.5-.573s3.114-.355,4.519,6.128,1.548,9.755.378,14.337a52.083,52.083,0,0,0-1.68,7.836c-.343,3.224-.915,7.254-1.247,10.481-.106.984.337,3.143-.346,3.931a1.567,1.567,0,0,1-.215.21c-.744.6-1.522.006-2.637.089a25.863,25.863,0,0,0-4.151,1.088Z" transform="translate(-2226.658 -1097.679)" fill="#2a2b7c"/>
        <path id="Path_46885" data-name="Path 46885" d="M2242.642,1271.216c1.293.377,2.774.6,4.056.861,2.036.419,4.088.742,6.151,1.005a50.7,50.7,0,0,0,8.776.446,31.184,31.184,0,0,0,7.768-1.663c.113,1.093-.249,2.463-.227,3.641-1.818.036-3.551.7-5.349.957a54,54,0,0,1-7.554.572c-3.39,0-6.671-.971-9.922-1.811-1.028-.261-3.37-.329-4.157-1.051-.563-.519,0-3.095-.185-3.161C2242.207,1271.085,2242.424,1271.158,2242.642,1271.216Z" transform="translate(-2231.076 -1208.223)" fill="#2e3054"/>
        <path id="Path_46886" data-name="Path 46886" d="M2255.951,1279.926l13.484,80.2.3,1.77s-5.381.287-6.586-.949-20.887-59.311-20.887-59.311l-11.032,61.63s-.186.379-3.243-.006-3.066-1.408-3.089-3.172c-.106-8.862-.409-36.362-.207-46,.24-11.558-.485-27.63,5.087-34.485C2229.777,1279.6,2248.218,1283.783,2255.951,1279.926Z" transform="translate(-2218.191 -1214.62)" fill="#0b1238"/>
        <path id="Path_46887" data-name="Path 46887" d="M2261.752,1034.733a16.619,16.619,0,0,0-2.1,5.431c-.617,3.059-1.09,8.846,3.3,8.753a6.316,6.316,0,0,0,4.011-.964c2.112-1.267,5.669-7.139,6.15-8.5.4-1.143,1.146-2.316.957-3.67-.369-2.652-3.423-4.38-5.857-4.6A6.942,6.942,0,0,0,2261.752,1034.733Z" transform="translate(-2243.977 -1029.639)" fill="#f5b29c"/>
        <path id="Path_46888" data-name="Path 46888" d="M2268.289,1033.677c-1.373-1.107-1.468-2.417-1.313-4.12.181-2,1.18-2.523,2.211-4.012.23-.331,3.289-.347,3.759-.339a10.008,10.008,0,0,1,4.575.7,9.018,9.018,0,0,1,3.349,3.1,7.844,7.844,0,0,1,1.083,4.976c-.181,1.922-1.595,3.121-1.677,4.688-.108,1.968-.051,2.77-1.728,4.078-1.707,1.333-3.905,1.007-5.982,1.019-1.072.007-2.59.13-3.471-.613-1.205-1.017-.49-2.935-.109-4.229.549-1.865.6-4.13-1.032-5.52Z" transform="translate(-2249.686 -1025.204)" fill="#0b1238"/>
      </g>
      <g id="Group_18075" data-name="Group 18075" transform="translate(54.819 159.53)">
        <g id="Group_18074" data-name="Group 18074">
          <g id="Group_18073" data-name="Group 18073">
            <path id="Path_46889" data-name="Path 46889" d="M1530.63,1169.051c-.975-3.922-3.594-7.565-4.815-11.381-1.2-3.752-.721-5.205.718-8.7,1.324-3.222,2.058-6.542,3.27-9.82,1.27-3.435,2.033-6.606,1.177-10.24-.476-2.029.037-3.636-2.154-2.641a7.249,7.249,0,0,0-4.569,5.606c-.567,2.184-1.326,3.946-1.993,6.089a72.756,72.756,0,0,0-2.591,9.318c-.283,1.656-1.4,3.145-1.565,4.726-.181,1.683.856,3.08,1.468,4.453,1.355,3.05,2.49,6.061,4.079,8.867.3.535.041.475.594.841a17.67,17.67,0,0,0,2.367,4.823Z" transform="translate(-1515.109 -1096.667)" fill="#9fb8e3"/>
            <path id="Path_46890" data-name="Path 46890" d="M1580.788,1082.534c2.67,3.588-.729,11.408-2.414,15.223,2.39-.141,5-.438,7.3.49.627-4.779.8-11.429,2.04-14.777Z" transform="translate(-1559.996 -1064.326)" fill="#f5b29c"/>
            <path id="Path_46891" data-name="Path 46891" d="M1623.866,1606.552c1.953.118,12.571-1.376,8.988-4.073-2.356-1.772-7.742-1.479-10.2-.136Z" transform="translate(-1592.966 -1450.536)" fill="#2e3054"/>
            <path id="Path_46892" data-name="Path 46892" d="M1655.781,1287.983c1.453.83,4.732,2.792,4.745,3.471s-2.324-.257-2.324-.257,5.034,5.139,4.732,5.68-3.388-2.15-4.587-3.034c1.412,1.563,3.822,4.505,3.446,5s-3-2.478-4.173-3.821c.906,1.669,2.581,4.394,2.233,4.926s-2.067-2.61-3.214-3.827c.221,1.1,1.763,3.16,1.173,3.692s-3.006-4.117-4.469-6.546-2.49-3.515-2.531-5.609c-1.2-1.923-.192-1.793,2.47-1.8C1654.447,1285.854,1654.323,1287.15,1655.781,1287.983Z" transform="translate(-1613.557 -1215.714)" fill="#f5b29c"/>
            <path id="Path_46893" data-name="Path 46893" d="M1608.479,1557.934a4.449,4.449,0,0,0-2.676.886c-3.847,2.464-1.276,8.75.079,11.892,1.421,3.3,8.752,5.022,9.275-.051.1-1-4.222-.7-4.711-.693C1611.684,1569.932,1612.848,1558.264,1608.479,1557.934Z" transform="translate(-1578.91 -1418.285)" fill="#f5b29c"/>
            <path id="Path_46894" data-name="Path 46894" d="M1514.676,1552.957c3.312-.417,9.387-.233,11.4-3.3a9.382,9.382,0,0,0-6.5-.653c.3-.073-.135-6.761-.113-7.408.091-2.794.265-5.588.546-8.369C1520.6,1527.328,1509.778,1534.443,1514.676,1552.957Z" transform="translate(-1511.618 -1398.387)" fill="#f5b29c"/>
            <path id="Path_46895" data-name="Path 46895" d="M1562.5,1123.112c4.2,4.677,4.968,12.2,2.885,17.9-1.213,3.323-2.941,6.209-3.128,9.913-.183,3.5,1.607,7.015-.461,10.253-1.776,2.779-6.62,4.639-9.65,4.732a14.475,14.475,0,0,1-10.617-3.994c-3.34-3.429-1.439-8.348-1.161-12.722.472-7.423-1.636-14.205-.133-21.6.593-2.889,1.172-5.613,3.66-7.627,5.3-4.285,13.38-1.784,17.771,2.292C1561.961,1122.53,1562.242,1122.816,1562.5,1123.112Z" transform="translate(-1531.113 -1090.533)" fill="#fff"/>
            <path id="Path_46896" data-name="Path 46896" d="M1537.829,1262.96l2.807,83.388-8.951-.562-10.365-54.668-5.066,53.836-9.092.589s-1.648-38.437-.009-50.434,2.211-28.646,7.909-35.2C1515.06,1259.908,1530.612,1266.167,1537.829,1262.96Z" transform="translate(-1506.426 -1196.392)" fill="#2a2b7c"/>
            <path id="Path_46897" data-name="Path 46897" d="M1589.094,1035.2c1.645,5.263,9.851,2.6,10.947-.93a13.127,13.127,0,0,0-1.562-11.484c-2.082-5.01-3.615-5.775-7.434-5.641C1591.046,1017.141,1584.232,1019.624,1589.094,1035.2Z" transform="translate(-1566.675 -1015.627)" fill="#f5b29c"/>
            <path id="Path_46898" data-name="Path 46898" d="M1516.613,1601.172a34.316,34.316,0,0,0,4.557.073c.668-.07,2.951-1.343,1.264-1.729,1.68-1.113,6.395-.13,7.834,1.188,1.094,1-13.1,2.779-13.1,2.779C1516.967,1602.726,1516.784,1601.952,1516.613,1601.172Z" transform="translate(-1514.011 -1448.89)" fill="#2e3054"/>
            <path id="Path_46899" data-name="Path 46899" d="M1587.553,1017.279c-1.471,3.816-1.155,16.462-7.63,14.988-4.921-1.123-5.207-13.387-3.444-17.208,1.467-3.16,11.446-5.4,13.672-2.382C1592.974,1016.5,1588.166,1015.687,1587.553,1017.279Z" transform="translate(-1557.849 -1011.254)" fill="#2e3054"/>
            <path id="Path_46900" data-name="Path 46900" d="M1614.322,1179.331c-3.125-.958-3.7-5.991-5.488-8.572a43.482,43.482,0,0,1-6.781-13.461c-.992-3.5-5.111-24.77,2.953-20.913,5.418,2.589,5.493,15.71,6.717,20.67.815,3.311,1.335,6.654,2.281,9.891.954,3.262,2.647,5.49,4.36,8.356C1617.539,1175.94,1614.322,1179.331,1614.322,1179.331Z" transform="translate(-1576.187 -1104.074)" fill="#9fb8e3"/>
            <path id="Path_46901" data-name="Path 46901" d="M1622.814,1605.8c-2.614,2.552-6.43,1.56-9.445.907-1.917,4.792,7.478,2.956,9.81,1.673Z" transform="translate(-1585.861 -1453.93)" fill="#2e3054"/>
          </g>
        </g>
      </g>
      <path id="Path_46902" data-name="Path 46902" d="M1875.5,1123.835a22.163,22.163,0,0,0,7.549,9.806c-4.932.451-9.869,1.288-14.793,1.6.73-4.744,1.835-8.313,1.314-13.184Z" transform="translate(-1721.009 -934.225)" fill="#f5b29c"/>
      <g id="Group_18076" data-name="Group 18076" transform="translate(131.188 171.167)">
        <path id="Path_46903" data-name="Path 46903" d="M1835.572,1454.2c-.175,15.561-.886,31.5.358,46.576,2.817-1.179,3.3-1.3,5.044-3.467.845-1.927-1.126-2.824-2.588-1.566.071-6.883,2.533-15.876,3.879-22.57.945-4.693,5.323-17.761,2.286-21.727Z" transform="translate(-1827.595 -1350.639)" fill="#ba6b4f"/>
        <path id="Path_46904" data-name="Path 46904" d="M1837.293,1620.773a1.3,1.3,0,0,0,.9.781c.963.3,2.529-1.143,3.131-2.345.493-.986-.714-.844-1.091-.859,1.392-3.3,5.613-1.848,4.824-.047a20.222,20.222,0,0,1-7.574,5.274C1837.4,1622.65,1837.357,1621.71,1837.293,1620.773Z" transform="translate(-1829.145 -1473.444)" fill="#0b1238"/>
        <path id="Path_46905" data-name="Path 46905" d="M1887.426,1456.782c-.174,15.563-.885,31.5.359,46.578,2.816-1.177,3.3-1.3,5.043-3.466.845-1.928-1.125-2.824-2.587-1.567.07-6.883,2.532-15.875,3.878-22.57.945-4.693,5.323-17.761,2.286-21.727Z" transform="translate(-1866.205 -1352.565)" fill="#ba6b4f"/>
        <path id="Path_46906" data-name="Path 46906" d="M1889.145,1625.116a1.3,1.3,0,0,0,.9.782c.963.3,2.529-1.143,3.131-2.348.493-.983-.714-.841-1.092-.856,1.152-2.7,5.012-.885,4.223.915-1.745,2.168-4.156,3.133-6.973,4.31C1889.257,1626.989,1889.208,1626.05,1889.145,1625.116Z" transform="translate(-1867.752 -1477.124)" fill="#0b1238"/>
        <path id="Path_46907" data-name="Path 46907" d="M1873.461,1076.545c2.644,4.051,2.315,14.484-4.526,13.762-6.2-.65-9.871-10.128-7.76-15.12C1864.127,1068.225,1870.413,1071.872,1873.461,1076.545Z" transform="translate(-1846.481 -1067.608)" fill="#ba6b4f"/>
        <path id="Path_46908" data-name="Path 46908" d="M1817.03,1169.576c-1.639-4.037-2.735-2.652-5.795,1.63s-6.155,19.1-5.813,20.364c.31,1.128,10.716,19.244,10.716,19.244l1.99-9.455s-5.972-7.461-6.221-10.447S1818.668,1173.611,1817.03,1169.576Z" transform="translate(-1805.397 -1138.98)" fill="#faaaa4"/>
        <path id="Path_46909" data-name="Path 46909" d="M1855.118,1157.175c-1.081-1.117.044-1.194-1.731-1.5-6.14-1.046-14.128-2.691-18.708,2.735-2.834,3.358-3.382,9.422-2.314,13.451,1.941,7.329,3.714,11.378,3.427,13.989s-.289,9.91-1.374,12.729c0,0,26.212,1.538,22.109-5.782-3.746-6.683-1.515-13.584.642-19.953C1858.589,1168.646,1858.415,1160.594,1855.118,1157.175Z" transform="translate(-1825.099 -1129.621)" fill="#faaaa4"/>
        <path id="Path_46910" data-name="Path 46910" d="M1847.128,1288.24c1.172,3.667,3.367,6.989,4.251,10.879a101.89,101.89,0,0,1,2.011,15.221c.519,6.988-.815,13.718,1.577,20.162a95.3,95.3,0,0,1-16.971,1.757c-3.459,0-6.941.323-10.39-.015-1.182-.118-3.929-.124-4.837-.942-1.037-.932-1.051-4.32-1.268-5.639a83.472,83.472,0,0,1-.4-21.143c.568-5.861,1.934-13.3,4.827-18.5.4-.717.994-2.609,1.618-3.06.974-.7,3.406-.209,4.566-.167,2.207.082,4.419.383,6.63.383.441,0,8.192.582,7.941-.583C1846.8,1287.152,1846.955,1287.7,1847.128,1288.24Z" transform="translate(-1816.733 -1227.891)" fill="#2a2b7c"/>
        <path id="Path_46911" data-name="Path 46911" d="M1832.173,1072.978a8.015,8.015,0,0,0-.269-.836c-1.457-3.855-1.365-6.72.68-10.259a10.162,10.162,0,0,1,5.943-4.832,8.774,8.774,0,0,1,4.348.074c3.562.977,7.739,3.412,5.725,7.638-1.7,3.573-4.343,2.841-2.824,7.093,1.043,2.916,3.06,6.667,3.243,9.812.18,3.093-1.075,6.337-3.914,7.843-6.978,3.707-18.917-2.67-14.758-11.417C1831.485,1075.694,1832.714,1075.153,1832.173,1072.978Z" transform="translate(-1823.335 -1056.811)" fill="#0b1238"/>
        <path id="Path_46912" data-name="Path 46912" d="M1983.739,1310.174l5.057,4.334-3.852-.721s6.3,5.706,5.057,7.467c-2.889,4.093-10.6-9.152-10.6-9.152Z" transform="translate(-1934.955 -1245.455)" fill="#ba6b4f"/>
        <path id="Path_46913" data-name="Path 46913" d="M1912.886,1159.647c3.235-2.773,8.428,22.641,8.428,22.641l12.524,16.375s-3.61,3.133-3.852,3.855-14.932-17.581-14.932-17.581S1907.829,1163.983,1912.886,1159.647Z" transform="translate(-1884.091 -1133.221)" fill="#faaaa4"/>
      </g>
      <g id="Group_18095" data-name="Group 18095" transform="translate(0 194.172)">
        <path id="Path_46914" data-name="Path 46914" d="M1370.888,1201.36c2.236-4.367,5.789-6.526,4.387-12.215-.564-2.277-2.271-3.693-3.059-5.7-.986-2.5-.163-2.981.163-5.616.71-5.689-2.864-6.867-4.931-11.2-1.442-3.024-1.012-6.564-2.933-9.762-1.958-3.242-5.6-6.136-6.324-10-.535,6.84-4.879,17.347.34,23.112-3.146,2.112-3.735,6.265-2.278,9.52.7,1.559,2.973,2.77,3.374,4.407.555,2.241-.833,2.318-1.013,4.281-.573,6.229,17.508,15.106,12.734,21.338Z" transform="translate(-1339.231 -1146.872)" fill="#97b8da"/>
        <g id="Group_18077" data-name="Group 18077" transform="translate(16.274)">
          <path id="Path_46915" data-name="Path 46915" d="M1360.429,1160.353a14.782,14.782,0,0,1-4.1-2.3c.026-.187.052-.375.079-.562a14.09,14.09,0,0,0,3.932,2.3c-.134-.854-.261-1.7-.388-2.541-.111-.741-.226-1.488-.341-2.226-.108-.691-.254-1.393-.39-2.075-.115-.574-.24-1.169-.336-1.745-.062-.367-.146-.788-.234-1.232-.185-.906-.376-1.885-.464-2.779.011-.108.023-.217.03-.323a8.779,8.779,0,0,0,.764,2.238c.05.261.1.522.15.769.09.447.175.871.244,1.245.095.566.213,1.156.33,1.728.14.685.286,1.393.393,2.1.12.742.23,1.483.338,2.232.28,1.85.572,3.758.94,5.648,1.661-1.046,2.409-3.99,2.777-6.562.137.2.261.4.388.6-.42,2.631-1.262,5.477-3.065,6.473.042.2.081.415.127.622.4,1.823.872,3.635,1.384,5.427a16.985,16.985,0,0,0,3.424-6.384c.066.336.132.668.209.994a17.725,17.725,0,0,1-3.469,5.95c.449,1.542.916,3.064,1.38,4.567.033.1.046.142.06.192q.195.631.393,1.26a15.618,15.618,0,0,1,1.276-1.6,15.312,15.312,0,0,0,1.262-1.563,12.15,12.15,0,0,0,1.509-3.657c.125.174.246.334.371.492a11.886,11.886,0,0,1-1.47,3.436,16.074,16.074,0,0,1-1.3,1.622,12.675,12.675,0,0,0-1.4,1.77l-.125-.082c.588,1.92,1.175,3.879,1.693,5.84.022.1.053.206.08.306a10.733,10.733,0,0,1,1.72-2.118,10.957,10.957,0,0,0,1.035-1.16,20.593,20.593,0,0,0,2.65-4.726,7.963,7.963,0,0,1,.158.931,23.457,23.457,0,0,1-2.406,4.076,12.471,12.471,0,0,1-1.076,1.223c-.787.813-1.752,1.812-1.86,2.606.824,3.119,1.712,6.407,2.637,9.6a51.14,51.14,0,0,1,1.352,7.335c.026.192.05.376.076.569-.088.157-.174.318-.257.479l.106,1.914c-.15-.969-.284-1.943-.411-2.9a49.976,49.976,0,0,0-1.343-7.266c-.925-3.216-1.818-6.51-2.645-9.646-.111-.408-.2-.757-.289-1.107-.187-.691-.38-1.39-.576-2.085a15.485,15.485,0,0,0-3.121-.611,22.16,22.16,0,0,1-2.481-.414,13.707,13.707,0,0,1-4.572-2.275c-.023-.212-.035-.42-.05-.638a13.893,13.893,0,0,0,4.746,2.434,20.014,20.014,0,0,0,2.418.407,18.425,18.425,0,0,1,2.891.529c-.475-1.634-.971-3.264-1.465-4.851a4.94,4.94,0,0,0-1.721-.511,7.815,7.815,0,0,1-1.436-.337,11.607,11.607,0,0,1-4.144-2.327c.1-.134.2-.263.3-.387a11.075,11.075,0,0,0,4.021,2.252,7.73,7.73,0,0,0,1.351.318,8.671,8.671,0,0,1,1.428.336c-.737-2.392-1.484-4.829-2.125-7.305-.175,0-.357,0-.545-.017a11.885,11.885,0,0,1-4.976-1.746c-.039-.221-.075-.438-.108-.659a11.1,11.1,0,0,0,5.508,1.931c-.192-.776-.379-1.55-.545-2.334C1360.853,1162.833,1360.629,1161.591,1360.429,1160.353Z" transform="translate(-1355.528 -1146.872)" fill="#fff"/>
          <path id="Path_46916" data-name="Path 46916" d="M1416.977,1372.362q-.1-.524-.192-1.055a10.1,10.1,0,0,1,.513.99Z" transform="translate(-1401.138 -1313.978)" fill="#fff"/>
        </g>
        <path id="Path_46917" data-name="Path 46917" d="M1291.818,1250.787c4.731,2.771,18.2,1.313,16.393,9.789,6.224-.852,8.15,1.594,7.758,7.489.044-.634,2.286-.2,2.608-.011a6.187,6.187,0,0,1,1.5,1.9,15.142,15.142,0,0,1,1.347,5.691,49.454,49.454,0,0,0,1.4,6.878c-3.983-4.843-18.337-4.744-15.807-10.671-2.22.28-6.309,1.032-8.092-.779-2.281-2.322.4-4.738,2.432-5.907-8.645-1.1-7.741-4.851-6.57-9.1l-1.522-1.822A9.8,9.8,0,0,1,1291.818,1250.787Z" transform="translate(-1291.818 -1224.243)" fill="#2a2b7c"/>
        <g id="Group_18094" data-name="Group 18094" transform="translate(30.649 18.081)">
          <g id="Group_18078" data-name="Group 18078" transform="translate(1.165 4.645)">
            <path id="Path_46918" data-name="Path 46918" d="M1416.565,1272.679c11.825-7.263,11.788-36.548,11.788-36.842h-.388c0,.293.04,29.361-11.6,36.508Z" transform="translate(-1416.365 -1235.837)" fill="#2e3054"/>
          </g>
          <g id="Group_18079" data-name="Group 18079" transform="translate(0 30.684)">
            <path id="Path_46919" data-name="Path 46919" d="M1417.236,1344.136c.016.13-1.479-6.844-4.671-6.33s4.687,6.46,4.687,6.46Z" transform="translate(-1411.805 -1337.779)" fill="#2e3054"/>
          </g>
          <g id="Group_18080" data-name="Group 18080" transform="translate(1.935 26.791)">
            <path id="Path_46920" data-name="Path 46920" d="M1425.295,1329.114s-3.048-7.961-5.457-6.365S1425.295,1329.114,1425.295,1329.114Z" transform="translate(-1419.38 -1322.538)" fill="#2e3054"/>
          </g>
          <g id="Group_18081" data-name="Group 18081" transform="translate(2.3 22.134)">
            <path id="Path_46921" data-name="Path 46921" d="M1428.01,1311.032s-3.891-8.542-6.846-6.373C1418.919,1306.307,1428.01,1311.032,1428.01,1311.032Z" transform="translate(-1420.807 -1304.306)" fill="#2e3054"/>
          </g>
          <g id="Group_18082" data-name="Group 18082" transform="translate(5.645 14.242)">
            <path id="Path_46922" data-name="Path 46922" d="M1439.663,1280.006s-2.963-8.359-5.313-6.256S1439.663,1280.006,1439.663,1280.006Z" transform="translate(-1433.903 -1273.411)" fill="#2e3054"/>
          </g>
          <g id="Group_18083" data-name="Group 18083" transform="translate(4.239 18.559)">
            <path id="Path_46923" data-name="Path 46923" d="M1435.151,1295.709s-4.934-7.491-6.637-4.828C1427.377,1292.668,1435.151,1295.709,1435.151,1295.709Z" transform="translate(-1428.4 -1290.309)" fill="#2e3054"/>
          </g>
          <g id="Group_18084" data-name="Group 18084" transform="translate(6.004 8.298)">
            <path id="Path_46924" data-name="Path 46924" d="M1441.483,1257.255s-3.439-9.083-5.756-6.722S1441.483,1257.255,1441.483,1257.255Z" transform="translate(-1435.309 -1250.141)" fill="#2e3054"/>
          </g>
          <g id="Group_18085" data-name="Group 18085" transform="translate(8.987 3.356)">
            <path id="Path_46925" data-name="Path 46925" d="M1450.494,1236.823s-2.006-7.957-3.281-5.592S1450.494,1236.823,1450.494,1236.823Z" transform="translate(-1446.988 -1230.792)" fill="#2e3054"/>
          </g>
          <g id="Group_18086" data-name="Group 18086" transform="translate(12.391)">
            <path id="Path_46926" data-name="Path 46926" d="M1460.934,1224.9s3.147-7.281.683-7.243S1460.934,1224.9,1460.934,1224.9Z" transform="translate(-1460.311 -1217.654)" fill="#2e3054"/>
          </g>
          <g id="Group_18087" data-name="Group 18087" transform="translate(12.493 4.675)">
            <path id="Path_46927" data-name="Path 46927" d="M1460.713,1240.669s7.413-2.2,5.333-4.291S1460.713,1240.669,1460.713,1240.669Z" transform="translate(-1460.713 -1235.957)" fill="#2e3054"/>
          </g>
          <g id="Group_18088" data-name="Group 18088" transform="translate(12.393 7.949)">
            <path id="Path_46928" data-name="Path 46928" d="M1460.322,1254.776s8.69-2.354,7.676-5.354S1460.322,1254.776,1460.322,1254.776Z" transform="translate(-1460.322 -1248.772)" fill="#2e3054"/>
          </g>
          <g id="Group_18089" data-name="Group 18089" transform="translate(11.514 12.112)">
            <path id="Path_46929" data-name="Path 46929" d="M1456.88,1271.441s11.513-2.7,9.717-5.731S1456.88,1271.441,1456.88,1271.441Z" transform="translate(-1456.88 -1265.071)" fill="#2e3054"/>
          </g>
          <g id="Group_18090" data-name="Group 18090" transform="translate(10.742 17.162)">
            <path id="Path_46930" data-name="Path 46930" d="M1453.859,1290.548s12.981-1.317,12.037-4.841S1453.859,1290.548,1453.859,1290.548Z" transform="translate(-1453.859 -1284.84)" fill="#2e3054"/>
          </g>
          <g id="Group_18091" data-name="Group 18091" transform="translate(8.888 27.787)">
            <path id="Path_46931" data-name="Path 46931" d="M1446.6,1328.769s11.569-4.395,12.485-1.121S1446.6,1328.769,1446.6,1328.769Z" transform="translate(-1446.6 -1326.435)" fill="#2e3054"/>
          </g>
          <g id="Group_18092" data-name="Group 18092" transform="translate(10.573 22.518)">
            <path id="Path_46932" data-name="Path 46932" d="M1453.2,1308.989s9.527-5.341,10.755-2.18S1453.2,1308.989,1453.2,1308.989Z" transform="translate(-1453.196 -1305.808)" fill="#2e3054"/>
          </g>
          <g id="Group_18093" data-name="Group 18093" transform="translate(7.85 31.786)">
            <path id="Path_46933" data-name="Path 46933" d="M1442.713,1343s10.362-2.555,9.739.9-9.915-.232-9.915-.232Z" transform="translate(-1442.537 -1342.093)" fill="#2e3054"/>
          </g>
        </g>
        <path id="Path_46934" data-name="Path 46934" d="M1365.776,1353.651c0,13.976,5,25.3,11.18,25.3s11.176-11.328,11.176-25.3Z" transform="translate(-1346.884 -1300.832)" fill="#e4edf1"/>
        <path id="Path_46935" data-name="Path 46935" d="M1365.776,1353.651c0,13.976,5,25.3,11.18,25.3s11.176-11.328,11.176-25.3Z" transform="translate(-1346.884 -1300.832)" fill="#faaaa4"/>
        <path id="Path_46936" data-name="Path 46936" d="M1374.311,1363.631a2.363,2.363,0,1,0,2.355-2.185A2.276,2.276,0,0,0,1374.311,1363.631Z" transform="translate(-1353.239 -1306.635)" fill="#fff" opacity="0.3"/>
      </g>
      <path id="Path_46937" data-name="Path 46937" d="M2640.984,1489.061c0,1.647-9.662,2.971-21.58,2.971s-21.587-1.324-21.587-2.971,9.671-2.963,21.587-2.963S2640.984,1487.425,2640.984,1489.061Z" transform="translate(-2264.213 -1205.275)" fill="#a8bcff" opacity="0.5"/>
      <g id="Group_18102" data-name="Group 18102" transform="translate(344.116 155.623)">
        <g id="Group_18101" data-name="Group 18101">
          <path id="Path_46938" data-name="Path 46938" d="M2650.074,1075.263a11.879,11.879,0,0,1-8.766-12.069c.177-3.034,1.533-2.655,3.373-4.489,1.952-1.944.885-2.674-.77-4.833-3.026-3.946-5.875-8.385-4.644-13.643,1.167-4.974,7.059-4.889,5.755-10.091-1.675-6.688-1.01-13.333-.237-20.2.454-4.017,1.917-13.826,7.446-13.978,5.215-.141,4.965,9.583,5.064,12.878.1,3.068-.55,5.191,1.807,6.92,3.012,2.216,6.505,2.949,7.136,7.377.739,5.216-5.038,7.414-5.325,12.045-.238,3.842,5.266,6.065,7.225,9.229,3.671,5.937-3.479,5.979-4.08,10.72a2.245,2.245,0,0,1-.375.78c2,1.51,4.766,2.316,5.907,4.755,1.33,2.836.357,5.744-1.6,7.925-3.938,4.387-11.337,8.256-17.251,6.844C2650.513,1075.382,2650.291,1075.326,2650.074,1075.263Z" transform="translate(-2638.973 -995.96)" fill="#fff" opacity="0.3"/>
          <path id="Path_46939" data-name="Path 46939" d="M2650.074,1075.263a11.879,11.879,0,0,1-8.766-12.069c.177-3.034,1.533-2.655,3.373-4.489,1.952-1.944.885-2.674-.77-4.833-3.026-3.946-5.875-8.385-4.644-13.643,1.167-4.974,7.059-4.889,5.755-10.091-1.675-6.688-1.01-13.333-.237-20.2.454-4.017,1.917-13.826,7.446-13.978,5.215-.141,4.965,9.583,5.064,12.878.1,3.068-.55,5.191,1.807,6.92,3.012,2.216,6.505,2.949,7.136,7.377.739,5.216-5.038,7.414-5.325,12.045-.238,3.842,5.266,6.065,7.225,9.229,3.671,5.937-3.479,5.979-4.08,10.72a2.245,2.245,0,0,1-.375.78c2,1.51,4.766,2.316,5.907,4.755,1.33,2.836.357,5.744-1.6,7.925-3.938,4.387-11.337,8.256-17.251,6.844C2650.513,1075.382,2650.291,1075.326,2650.074,1075.263Z" transform="translate(-2638.973 -995.96)" fill="#5c75c3" opacity="0.6"/>
          <g id="Group_18098" data-name="Group 18098" transform="translate(3.162 0.002)">
            <g id="Group_18096" data-name="Group 18096" transform="translate(9.963)">
              <rect id="Rectangle_4576" data-name="Rectangle 4576" width="0.263" height="110.848" fill="#fff"/>
            </g>
            <g id="Group_18097" data-name="Group 18097" transform="translate(0 6.366)">
              <path id="Path_46940" data-name="Path 46940" d="M2690.695,1112.173l13.762-13.76c-.026-.1-.053-.2-.079-.3l-13.871,13.873Z" transform="translate(-2680.505 -1078.388)" fill="#fff"/>
              <path id="Path_46941" data-name="Path 46941" d="M2690.695,1100.249l12.317-12.319c-.06-.063-.119-.13-.181-.19l-12.323,12.321Z" transform="translate(-2680.505 -1070.663)" fill="#fff"/>
              <path id="Path_46942" data-name="Path 46942" d="M2690.695,1178.3l11.132-11.135c-.064-.063-.123-.123-.189-.181l-11.13,11.126Z" transform="translate(-2680.505 -1129.667)" fill="#fff"/>
              <path id="Path_46943" data-name="Path 46943" d="M2690.507,1049.682l.187.186,4.971-4.969c0-.116-.008-.238-.008-.368Z" transform="translate(-2680.505 -1038.491)" fill="#fff"/>
              <path id="Path_46944" data-name="Path 46944" d="M2690.507,1184.092l.187.186,12.48-12.48c-.071-.054-.138-.111-.2-.169Z" transform="translate(-2680.505 -1133.124)" fill="#fff"/>
              <path id="Path_46945" data-name="Path 46945" d="M2704.653,1245.088l-14.146,14.148.188.189,14.145-14.146Z" transform="translate(-2680.505 -1187.818)" fill="#fff"/>
              <path id="Path_46946" data-name="Path 46946" d="M2690.507,1198.929l.188.186,14.145-14.149-.186-.183Z" transform="translate(-2680.505 -1142.918)" fill="#fff"/>
              <path id="Path_46947" data-name="Path 46947" d="M2666.47,1155.063l-8.5-8.5c-.06.067-.12.126-.186.188l8.5,8.5Z" transform="translate(-2656.14 -1114.459)" fill="#fff"/>
              <path id="Path_46948" data-name="Path 46948" d="M2661.68,1162.384l-10.125-10.125c-.072.058-.139.116-.205.175l10.139,10.139Z" transform="translate(-2651.35 -1118.701)" fill="#fff"/>
              <path id="Path_46949" data-name="Path 46949" d="M2670.551,1245.707l-7.124-7.124c-.051.074-.1.144-.163.218l7.1,7.1Z" transform="translate(-2660.221 -1182.975)" fill="#fff"/>
              <path id="Path_46950" data-name="Path 46950" d="M2690.507,1246.718l.187.188,12.847-12.851c-.077-.048-.16-.091-.234-.136Z" transform="translate(-2680.505 -1179.502)" fill="#fff"/>
              <path id="Path_46951" data-name="Path 46951" d="M2667.365,1021.17l6.049,6.052.191-.188-6.15-6.146C2667.425,1020.981,2667.4,1021.075,2667.365,1021.17Z" transform="translate(-2663.274 -1020.887)" fill="#fff"/>
              <path id="Path_46952" data-name="Path 46952" d="M2667.841,1078.128l-8.187-8.186c-.011.115-.016.231-.03.346l8.026,8.024Z" transform="translate(-2657.51 -1057.411)" fill="#fff"/>
              <path id="Path_46953" data-name="Path 46953" d="M2667.316,1088.528l-8.38-8.376c0,.119-.01.241-.017.357l8.206,8.207Z" transform="translate(-2656.986 -1065.013)" fill="#fff"/>
            </g>
          </g>
          <g id="Group_18099" data-name="Group 18099" transform="translate(13.206 79.679)">
            <rect id="Rectangle_4577" data-name="Rectangle 4577" width="0.431" height="31.171" fill="#2a2b7c"/>
          </g>
          <path id="Path_46954" data-name="Path 46954" d="M2668.6,1391.875s-2.228-20.7-7.2-12.648S2668.6,1391.875,2668.6,1391.875Z" transform="translate(-2654.78 -1279.942)" fill="#7ab6f6"/>
          <g id="Group_18100" data-name="Group 18100" transform="translate(13.526 92.116)">
            <path id="Path_46955" data-name="Path 46955" d="M2691.927,1377.181l.065-.6c.068-.641,1.761-15.737,6.416-19.265a3.193,3.193,0,0,1,2.936-.606,2.291,2.291,0,0,1,1.7,1.6c1.379,4.806-10.218,17.865-10.709,18.419Zm8.962-20.178a2.864,2.864,0,0,0-2.245.621c-4,3.034-5.813,15.442-6.189,18.375,2.1-2.42,11.39-13.473,10.214-17.583a1.9,1.9,0,0,0-1.431-1.333A3.115,3.115,0,0,0,2700.889,1357Z" transform="translate(-2691.927 -1356.578)" fill="#2a2b7c"/>
          </g>
        </g>
        <path id="Path_46956" data-name="Path 46956" d="M2663.159,1446.981h-12.772l-6.192-18.578H2667.8Z" transform="translate(-2642.861 -1317.94)" fill="#b4d1fe"/>
      </g>
    </g>
  </g>
</svg>
