<svg xmlns="http://www.w3.org/2000/svg" width="641.614" height="364.386" viewBox="0 0 641.614 364.386">
  <g id="Grupo_18035" data-name="Grupo 18035" transform="translate(-200.13 -304.626)">
    <path id="Trazado_45402" data-name="Trazado 45402" d="M561.491,1334.594c-16.99-30.843-4.982-50.9,18.69-49.013,19.067,1.521,63.781,37.637,94.929-20.411,12.74-23.743,22.906-52.773,64.616-43.678,46.106,10.053,65.754,75.534,109.109,78.72,39.778,2.923,148.829-52.479,201.464-43.89s35.9,58.154,8.8,78.276Z" transform="translate(-265.831 -688.411)" fill="#f7f6ff"/>
    <g id="Grupo_18001" data-name="Grupo 18001" transform="translate(223.801 345.901)">
      <path id="Trazado_45403" data-name="Trazado 45403" d="M345.348,709.771c0-16.855-49.68-59.76-49.681-93.048,0-18.413,14.157-32.909,38.226-24.284,0,0-33.292-103.316,30.441-120.119C391.4,465.182,424.2,493.479,391,530.915c-22.712,25.612-27.156,51.794-13.332,45.144,32.66-15.712,37.675,23.3,2,73.089-10.364,14.465-34.324,47.459-34.324,60.622Z" transform="translate(-295.667 -471.213)" fill="#ffc558"/>
      <path id="Trazado_45404" data-name="Trazado 45404" d="M434.2,1540.556l-2.563,13.054-4.516,22.993H380.4l-5.8-29.555-1.274-6.491Z" transform="translate(-354.084 -1275.609)" fill="#ffd4cc"/>
      <path id="Trazado_45405" data-name="Trazado 45405" d="M434.2,1540.556l-2.563,13.054-57.043-6.562-1.274-6.491Z" transform="translate(-354.084 -1275.609)" fill="#fab4a8"/>
      <path id="Trazado_45406" data-name="Trazado 45406" d="M494.741,880.714h-1.416V818.739c0-97.338,12.86-148.309,12.99-148.812l1.371.354c-.129.5-12.945,51.325-12.945,148.459Z" transform="translate(-444.352 -620.692)" fill="#40327a"/>
      <path id="Trazado_45407" data-name="Trazado 45407" d="M494.741,1044.9h-1.416c0-25.862,10.165-45.771,31.077-60.864l.829,1.148C504.714,999.995,494.741,1019.528,494.741,1044.9Z" transform="translate(-444.352 -856.978)" fill="#40327a"/>
      <g id="Grupo_18000" data-name="Grupo 18000" transform="translate(15.052 264.239)">
        <rect id="Rectángulo_4396" data-name="Rectángulo 4396" width="45.306" height="1.416" fill="#624ac9"/>
        <rect id="Rectángulo_4397" data-name="Rectángulo 4397" width="4.012" height="1.416" transform="translate(49.819)" fill="#624ac9"/>
        <rect id="Rectángulo_4398" data-name="Rectángulo 4398" width="11.526" height="1.416" transform="translate(57.73)" fill="#624ac9"/>
      </g>
    </g>
    <path id="Trazado_45408" data-name="Trazado 45408" d="M722.154,1254c8.223-18.839-33.733-45.036-53.8-30.58C638.385,1245.007,710.554,1280.578,722.154,1254Z" transform="translate(-346.775 -688.006)" fill="#f7f6ff"/>
    <path id="Trazado_45409" data-name="Trazado 45409" d="M1713.384,338.625h-1.416a16.31,16.31,0,0,0-16.291-16.292v-1.416a16.31,16.31,0,0,0,16.291-16.291h1.416a16.31,16.31,0,0,0,16.291,16.291v1.416A16.31,16.31,0,0,0,1713.384,338.625Zm-12.744-17a17.781,17.781,0,0,1,12.036,12.036,17.782,17.782,0,0,1,12.036-12.036,17.781,17.781,0,0,1-12.036-12.036A17.781,17.781,0,0,1,1700.64,321.625Z" transform="translate(-1125.001)" fill="#e9e6ff"/>
    <path id="Trazado_45410" data-name="Trazado 45410" d="M1926.467,461.381h-1.416a9.042,9.042,0,0,0-9.031-9.031v-1.416a9.041,9.041,0,0,0,9.031-9.031h1.416a9.041,9.041,0,0,0,9.031,9.031v1.416A9.042,9.042,0,0,0,1926.467,461.381Zm-6.666-9.739a10.5,10.5,0,0,1,5.958,5.958,10.5,10.5,0,0,1,5.958-5.958,10.505,10.505,0,0,1-5.958-5.958A10.5,10.5,0,0,1,1919.8,451.642Z" transform="translate(-1290.75 -103.264)" fill="#e9e6ff"/>
    <path id="Trazado_45411" data-name="Trazado 45411" d="M1608.567,419.2h-1.416a7.008,7.008,0,0,0-7-7v-1.416a7.008,7.008,0,0,0,7-7h1.416a7.008,7.008,0,0,0,7,7V412.2A7.008,7.008,0,0,0,1608.567,419.2Zm-5.038-7.708a4.33,4.33,0,1,0,8.66,0,4.33,4.33,0,1,0-8.66,0Z" transform="translate(-1053.143 -74.589)" fill="#e9e6ff"/>
    <path id="Trazado_45412" data-name="Trazado 45412" d="M1065.163,1038.949l-2.821,24.116h14.784v-24.116Z" transform="translate(-648.585 -552.383)" fill="#fae7b7"/>
    <path id="Trazado_45413" data-name="Trazado 45413" d="M1141.921,1063.065l2.821-24.116H1122.01v24.116Z" transform="translate(-693.469 -552.383)" fill="#fae7b7"/>
    <rect id="Rectángulo_4399" data-name="Rectángulo 4399" width="33.85" height="25.51" transform="translate(441.858 378.844)" fill="#7760db"/>
    <rect id="Rectángulo_4400" data-name="Rectángulo 4400" width="42.747" height="3.451" transform="translate(473.894 510.685) rotate(180)" fill="#fae7b7"/>
    <g id="Grupo_18002" data-name="Grupo 18002" transform="translate(415.3 486.566)">
      <path id="Trazado_45414" data-name="Trazado 45414" d="M1103.91,1044.348l-35.341,5.528,1.278-10.927h34.687Z" transform="translate(-1068.569 -1038.948)" fill="#ffc558"/>
    </g>
    <rect id="Rectángulo_4401" data-name="Rectángulo 4401" width="130.006" height="83.114" transform="translate(368.591 403.452)" fill="#ccc2ff"/>
    <rect id="Rectángulo_4402" data-name="Rectángulo 4402" width="123.581" height="67.296" transform="translate(371.804 406.67)" fill="#fff"/>
    <rect id="Rectángulo_4403" data-name="Rectángulo 4403" width="117.915" height="61.63" transform="translate(374.635 409.502)" fill="#fff"/>
    <rect id="Rectángulo_4404" data-name="Rectángulo 4404" width="120.749" height="64.464" transform="translate(373.22 408.086)" fill="#fff"/>
    <path id="Trazado_45415" data-name="Trazado 45415" d="M1022.36,727.914v8.459l-117.915,18.37v-26.83Z" transform="translate(-529.809 -318.412)" fill="#f2f0ff"/>
    <path id="Trazado_45416" data-name="Trazado 45416" d="M1656.778,635.938c0,3.7-10.179,6.353-10.871,9.85-.713,3.6,7.664,9.94,6.289,13.256-1.4,3.373-11.816,1.923-13.823,4.921-2.023,3.021,3.287,12.093.726,14.654s-11.633-2.748-14.654-.726c-3,2.007-1.548,12.424-4.921,13.823-3.315,1.375-9.652-7-13.255-6.289-3.5.692-6.15,10.871-9.85,10.871s-6.354-10.179-9.851-10.871c-3.6-.713-9.94,7.663-13.255,6.289-3.373-1.4-1.923-11.816-4.921-13.823-3.021-2.023-12.093,3.287-14.654.726s2.749-11.633.726-14.654c-2.007-3-12.424-1.548-13.823-4.921-1.375-3.315,7-9.652,6.289-13.255-.692-3.5-10.871-6.15-10.871-9.85s10.179-6.354,10.871-9.851c.713-3.6-7.664-9.94-6.289-13.255,1.4-3.373,11.816-1.923,13.823-4.921,2.022-3.021-3.287-12.093-.726-14.654s11.633,2.749,14.654.726c3-2.007,1.548-12.424,4.921-13.823,3.315-1.375,9.652,7,13.255,6.289,3.5-.692,6.151-10.871,9.85-10.871s6.354,10.179,9.85,10.871c3.6.713,9.94-7.664,13.255-6.289,3.373,1.4,1.923,11.816,4.921,13.823,3.021,2.023,12.093-3.287,14.654-.726s-2.748,11.633-.726,14.654c2.007,3,12.424,1.548,13.823,4.921,1.375,3.315-7,9.652-6.289,13.255C1646.6,629.585,1656.778,632.238,1656.778,635.938Z" transform="translate(-1004.93 -203.819)" fill="#f2f0ff"/>
    <g id="Grupo_18003" data-name="Grupo 18003" transform="translate(557.224 397.855)">
      <circle id="Elipse_964" data-name="Elipse 964" cx="33.909" cy="33.909" r="33.909" transform="translate(0.354 0.354)" fill="#ddd6ff"/>
      <path id="Trazado_45417" data-name="Trazado 45417" d="M1675.649,749.432a34.263,34.263,0,1,1,34.264-34.263A34.3,34.3,0,0,1,1675.649,749.432Zm0-67.819a33.556,33.556,0,1,0,33.556,33.556A33.593,33.593,0,0,0,1675.649,681.613Z" transform="translate(-1641.386 -680.905)" fill="#e9e6ff"/>
    </g>
    <g id="Grupo_18004" data-name="Grupo 18004" transform="translate(335.469 582.895)">
      <rect id="Rectángulo_4405" data-name="Rectángulo 4405" width="78.079" height="53.679" transform="translate(0 9.611)" fill="#ccc2ff"/>
      <rect id="Rectángulo_4406" data-name="Rectángulo 4406" width="8.133" height="53.679" transform="translate(69.95 9.61)" fill="#7760db"/>
      <rect id="Rectángulo_4407" data-name="Rectángulo 4407" width="69.947" height="1.416" transform="translate(0 35.742)" fill="#40327a"/>
      <rect id="Rectángulo_4408" data-name="Rectángulo 4408" width="11.387" height="7.32" transform="translate(30.91 35.743)" fill="#fff"/>
      <path id="Trazado_45418" data-name="Trazado 45418" d="M880.978,1437.39h-1.416v-8.238H859.831v8.238h-1.416v-9.654h22.562Z" transform="translate(-830.654 -1427.735)" fill="#40327a"/>
    </g>
    <g id="Grupo_18015" data-name="Grupo 18015" transform="translate(342.819 510.685)">
      <g id="Grupo_18013" data-name="Grupo 18013">
        <g id="Grupo_18005" data-name="Grupo 18005" transform="translate(4.139)">
          <path id="Trazado_45419" data-name="Trazado 45419" d="M811.134,1136.292l-.743,7.079-14.08,128.421h-3.575l10.569-135.5Z" transform="translate(-792.736 -1136.292)" fill="#ddd6ff"/>
          <path id="Trazado_45420" data-name="Trazado 45420" d="M2398.784,1136.292l.743,7.079,14.081,128.421h3.574l-10.569-135.5Z" transform="translate(-2000.859 -1136.292)" fill="#ddd6ff"/>
        </g>
        <rect id="Rectángulo_4409" data-name="Rectángulo 4409" width="423.346" height="7.079" fill="#8b77e8"/>
        <g id="Grupo_18006" data-name="Grupo 18006" transform="translate(0 6.371)">
          <path id="Trazado_45421" data-name="Trazado 45421" d="M776.033,1164.864h0Z" transform="translate(-776.033 -1164.156)" fill="#f8f7ff"/>
          <rect id="Rectángulo_4410" data-name="Rectángulo 4410" width="151.122" height="1.416" fill="#40327a"/>
        </g>
        <g id="Grupo_18007" data-name="Grupo 18007" transform="translate(375.552 6.371)">
          <path id="Trazado_45422" data-name="Trazado 45422" d="M2291.785,1164.864h0Z" transform="translate(-2291.785 -1164.156)" fill="#f8f7ff"/>
          <rect id="Rectángulo_4411" data-name="Rectángulo 4411" width="47.794" height="1.416" fill="#40327a"/>
        </g>
        <g id="Grupo_18008" data-name="Grupo 18008" transform="translate(361.855 6.371)">
          <path id="Trazado_45423" data-name="Trazado 45423" d="M2236.5,1164.864h0Z" transform="translate(-2236.505 -1164.156)" fill="#f8f7ff"/>
          <rect id="Rectángulo_4412" data-name="Rectángulo 4412" width="6.534" height="1.416" fill="#40327a"/>
        </g>
        <g id="Grupo_18009" data-name="Grupo 18009" transform="translate(11.714 12.772)">
          <path id="Trazado_45424" data-name="Trazado 45424" d="M834.881,1188.153l-8.748,79.784Z" transform="translate(-825.434 -1188.075)" fill="#f8f7ff"/>
          <rect id="Rectángulo_4413" data-name="Rectángulo 4413" width="80.263" height="1.416" transform="matrix(0.109, -0.994, 0.994, 0.109, 0, 79.786)" fill="#b3a4f5"/>
        </g>
        <g id="Grupo_18010" data-name="Grupo 18010" transform="translate(415.078 75.483)">
          <path id="Trazado_45425" data-name="Trazado 45425" d="M2454.164,1441.17l.609,7.814Z" transform="translate(-2453.458 -1441.115)" fill="#f8f7ff"/>
          <rect id="Rectángulo_4414" data-name="Rectángulo 4414" width="1.416" height="7.838" transform="translate(0 0.11) rotate(-4.462)" fill="#b3a4f5"/>
        </g>
        <g id="Grupo_18011" data-name="Grupo 18011" transform="translate(410.041 10.903)">
          <path id="Trazado_45426" data-name="Trazado 45426" d="M2433.834,1180.522l4.537,58.169Z" transform="translate(-2433.128 -1180.467)" fill="#f8f7ff"/>
          <rect id="Rectángulo_4415" data-name="Rectángulo 4415" width="1.416" height="58.346" transform="translate(0 0.11) rotate(-4.46)" fill="#b3a4f5"/>
        </g>
        <g id="Grupo_18012" data-name="Grupo 18012" transform="translate(197.032 6.371)">
          <path id="Trazado_45427" data-name="Trazado 45427" d="M1571.266,1164.864h0Z" transform="translate(-1571.266 -1164.156)" fill="#f8f7ff"/>
          <rect id="Rectángulo_4416" data-name="Rectángulo 4416" width="157.052" height="1.416" fill="#40327a"/>
        </g>
      </g>
      <g id="Grupo_18014" data-name="Grupo 18014" transform="translate(8.632 99.039)">
        <path id="Trazado_45428" data-name="Trazado 45428" d="M816.076,1536.332l-2.367,21.593Z" transform="translate(-813.006 -1536.255)" fill="#f8f7ff"/>
        <rect id="Rectángulo_4417" data-name="Rectángulo 4417" width="21.723" height="1.416" transform="matrix(0.109, -0.994, 0.994, 0.109, 0, 21.593)" fill="#b3a4f5"/>
      </g>
    </g>
    <g id="Grupo_18016" data-name="Grupo 18016" transform="translate(554.667 656.808)">
      <path id="Trazado_45429" data-name="Trazado 45429" d="M1631.063,1728.911h0Z" transform="translate(-1631.063 -1728.203)" fill="#ddd6ff"/>
      <rect id="Rectángulo_4418" data-name="Rectángulo 4418" width="150.884" height="1.416" transform="translate(0)" fill="#c4b8ff"/>
    </g>
    <g id="Grupo_18017" data-name="Grupo 18017" transform="translate(668.416 667.595)">
      <path id="Trazado_45430" data-name="Trazado 45430" d="M2090.164,1772.451h0Z" transform="translate(-2090.164 -1771.743)" fill="#ddd6ff"/>
      <rect id="Rectángulo_4419" data-name="Rectángulo 4419" width="94.604" height="1.416" fill="#c4b8ff"/>
    </g>
    <g id="Grupo_18018" data-name="Grupo 18018" transform="translate(466.674 667.595)">
      <path id="Trazado_45431" data-name="Trazado 45431" d="M1275.917,1772.451h0Z" transform="translate(-1275.917 -1771.743)" fill="#ddd6ff"/>
      <rect id="Rectángulo_4420" data-name="Rectángulo 4420" width="162.02" height="1.416" fill="#c4b8ff"/>
    </g>
    <g id="Grupo_18019" data-name="Grupo 18019" transform="translate(447.324 667.595)">
      <path id="Trazado_45432" data-name="Trazado 45432" d="M1197.82,1772.451h0Z" transform="translate(-1197.82 -1771.743)" fill="#ddd6ff"/>
      <rect id="Rectángulo_4421" data-name="Rectángulo 4421" width="10.147" height="1.416" fill="#c4b8ff"/>
    </g>
    <g id="Grupo_18020" data-name="Grupo 18020" transform="translate(748.075 656.973)">
      <path id="Trazado_45433" data-name="Trazado 45433" d="M2411.672,1729.578h0Z" transform="translate(-2411.672 -1728.87)" fill="#ddd6ff"/>
      <rect id="Rectángulo_4422" data-name="Rectángulo 4422" width="45.189" height="1.416" transform="translate(0 0)" fill="#c4b8ff"/>
    </g>
    <g id="Grupo_18021" data-name="Grupo 18021" transform="translate(384.469 656.808)">
      <path id="Trazado_45434" data-name="Trazado 45434" d="M944.134,1728.911h0Z" transform="translate(-944.134 -1728.203)" fill="#ddd6ff"/>
      <rect id="Rectángulo_4423" data-name="Rectángulo 4423" width="160.45" height="1.416" fill="#c4b8ff"/>
    </g>
    <g id="Grupo_18022" data-name="Grupo 18022" transform="translate(238.853 656.808)">
      <path id="Trazado_45435" data-name="Trazado 45435" d="M356.42,1728.911h0Z" transform="translate(-356.42 -1728.203)" fill="#ddd6ff"/>
      <rect id="Rectángulo_4424" data-name="Rectángulo 4424" width="134.997" height="1.416" transform="translate(0)" fill="#c4b8ff"/>
    </g>
    <rect id="Rectángulo_4425" data-name="Rectángulo 4425" width="7.198" height="1.416" transform="translate(834.547 646.185)" fill="#c4b8ff"/>
    <rect id="Rectángulo_4426" data-name="Rectángulo 4426" width="626.984" height="1.416" transform="translate(200.13 646.185)" fill="#c4b8ff"/>
    <g id="Grupo_18023" data-name="Grupo 18023" transform="translate(427.822 646.186)">
      <path id="Trazado_45436" data-name="Trazado 45436" d="M1119.11,1686.042h0Z" transform="translate(-1119.11 -1685.334)" fill="#f8f7ff"/>
      <rect id="Rectángulo_4427" data-name="Rectángulo 4427" width="61.622" height="1.416" transform="translate(0 0)" fill="#40327a"/>
    </g>
    <g id="Grupo_18024" data-name="Grupo 18024" transform="translate(332.054 646.186)">
      <path id="Trazado_45437" data-name="Trazado 45437" d="M758.069,1686.042h0Z" transform="translate(-732.584 -1685.334)" fill="#f8f7ff"/>
      <rect id="Rectángulo_4428" data-name="Rectángulo 4428" width="25.486" height="1.416" transform="translate(0 0)" fill="#40327a"/>
    </g>
    <g id="Grupo_18025" data-name="Grupo 18025" transform="translate(318.958 646.185)">
      <path id="Trazado_45438" data-name="Trazado 45438" d="M679.727,1686.037h0Z" transform="translate(-679.727 -1685.329)" fill="#f8f7ff"/>
      <rect id="Rectángulo_4429" data-name="Rectángulo 4429" width="7.087" height="1.416" transform="translate(0 0)" fill="#40327a"/>
    </g>
    <g id="Grupo_18026" data-name="Grupo 18026" transform="translate(497.766 646.185)">
      <path id="Trazado_45439" data-name="Trazado 45439" d="M1401.406,1686.037h0Z" transform="translate(-1401.406 -1685.329)" fill="#f8f7ff"/>
      <rect id="Rectángulo_4430" data-name="Rectángulo 4430" width="51.791" height="1.416" transform="translate(0 0)" fill="#40327a"/>
    </g>
    <g id="Grupo_18027" data-name="Grupo 18027" transform="translate(562.176 646.186)">
      <path id="Trazado_45440" data-name="Trazado 45440" d="M1661.37,1686.038h0Z" transform="translate(-1661.37 -1685.33)" fill="#f8f7ff"/>
      <rect id="Rectángulo_4431" data-name="Rectángulo 4431" width="67.933" height="1.416" transform="translate(0 0)" fill="#40327a"/>
    </g>
    <g id="Grupo_18028" data-name="Grupo 18028" transform="translate(656.513 646.186)">
      <path id="Trazado_45441" data-name="Trazado 45441" d="M2042.121,1686.037h0Z" transform="translate(-2042.121 -1685.33)" fill="#f8f7ff"/>
      <rect id="Rectángulo_4432" data-name="Rectángulo 4432" width="93.089" height="1.416" transform="translate(0 0)" fill="#40327a"/>
    </g>
    <g id="Grupo_18029" data-name="Grupo 18029" transform="translate(757.443 646.185)">
      <path id="Trazado_45442" data-name="Trazado 45442" d="M2449.483,1686.037h0Z" transform="translate(-2449.483 -1685.329)" fill="#f8f7ff"/>
      <rect id="Rectángulo_4433" data-name="Rectángulo 4433" width="16.051" height="1.416" transform="translate(0 0)" fill="#40327a"/>
    </g>
    <g id="Grupo_18030" data-name="Grupo 18030" transform="translate(506.23 339.273)">
      <path id="Trazado_45443" data-name="Trazado 45443" d="M2362.8,1329.182q.084-.3.152-.611C2362.9,1328.777,2362.855,1328.981,2362.8,1329.182Z" transform="translate(-2133.062 -1109.519)" fill="none"/>
      <path id="Trazado_45444" data-name="Trazado 45444" d="M2359.479,1336.943q.214-.42.394-.859C2359.752,1336.376,2359.623,1336.663,2359.479,1336.943Z" transform="translate(-2130.565 -1115.17)" fill="none"/>
      <path id="Trazado_45445" data-name="Trazado 45445" d="M2361.363,1333.152q.138-.355.253-.722C2361.539,1332.674,2361.456,1332.915,2361.363,1333.152Z" transform="translate(-2131.983 -1112.422)" fill="none"/>
      <path id="Trazado_45446" data-name="Trazado 45446" d="M2342.38,1339.581a11.368,11.368,0,0,1-5.627,5.225l0,.012A11.234,11.234,0,0,0,2342.38,1339.581Z" transform="translate(-2113.47 -1117.801)" fill="none"/>
      <path id="Trazado_45447" data-name="Trazado 45447" d="M1909.241,1230.437l2.3-4.615H1900.7v-.708h-6.5l-1.122,6.225Z" transform="translate(-1779.722 -1031.696)" fill="none"/>
      <path id="Trazado_45448" data-name="Trazado 45448" d="M2277.337,918.589c.043,0,.085,0,.128,0h-.128Z" transform="translate(-2068.775 -801.114)" fill="none"/>
      <path id="Trazado_45449" data-name="Trazado 45449" d="M1879.915,1323.273v0h.848l0,0Z" transform="translate(-1769.821 -1105.534)" fill="none"/>
      <path id="Trazado_45450" data-name="Trazado 45450" d="M2030.5,1323.276h.121v0h-.122Z" transform="translate(-1883.094 -1105.534)" fill="none"/>
      <path id="Trazado_45451" data-name="Trazado 45451" d="M1956.187,1323.273l0,0h16.974v0h-16.972Z" transform="translate(-1827.194 -1105.534)" fill="none"/>
      <path id="Trazado_45452" data-name="Trazado 45452" d="M2325.349,1362.644a11.325,11.325,0,0,1-1.961.374,11.429,11.429,0,0,0,1.962-.368Z" transform="translate(-2103.417 -1135.15)" fill="none"/>
      <path id="Trazado_45453" data-name="Trazado 45453" d="M2319.8,1364.2q-.53.05-1.073.051h0C2319.092,1364.247,2319.45,1364.229,2319.8,1364.2Z" transform="translate(-2099.913 -1136.318)" fill="none"/>
      <path id="Trazado_45454" data-name="Trazado 45454" d="M1883.338,1323.273l0,0h18.05l0,0Z" transform="translate(-1772.395 -1105.534)" fill="#624ac9"/>
      <path id="Trazado_45455" data-name="Trazado 45455" d="M1756.391,1364.4l-34.453,69.247.006,0a5.938,5.938,0,0,0-.628,2.655h11.949v1.543l16.075-29.073,8-44.375Z" transform="translate(-1650.518 -1136.471)" fill="#624ac9"/>
      <path id="Trazado_45456" data-name="Trazado 45456" d="M1843.039,1404.915l22.4-40.515h-15.1Z" transform="translate(-1742.082 -1136.471)" fill="#624ac9"/>
      <path id="Trazado_45457" data-name="Trazado 45457" d="M1697.65,1654.613h-.007l-6.862,3.742a1.777,1.777,0,0,0,.851,3.337H1709.6v-7.079Z" transform="translate(-1626.852 -1354.779)" fill="#40327a"/>
      <path id="Trazado_45458" data-name="Trazado 45458" d="M2109.459,1447.555l1.393.252,14.073-77.693h-1.439Z" transform="translate(-1942.492 -1140.769)" fill="#40327a"/>
      <path id="Trazado_45459" data-name="Trazado 45459" d="M2332.656,1360.682l0-.012a11.288,11.288,0,0,1-1.35.489v.006A11.2,11.2,0,0,0,2332.656,1360.682Z" transform="translate(-2109.371 -1133.665)" fill="#40327a"/>
      <path id="Trazado_45460" data-name="Trazado 45460" d="M2346.486,1445.07l1.393-.252-14.191-78.343a12.667,12.667,0,0,1-1.356.457Z" transform="translate(-2110.145 -1138.032)" fill="#40327a"/>
      <path id="Trazado_45461" data-name="Trazado 45461" d="M2213.242,770.905a8.784,8.784,0,0,1-1.67-1.588l-5.8-7.235a6.554,6.554,0,0,1,1.017-9.213l2.393-1.918v0a3.848,3.848,0,0,0,.6-5.423l-.364-.457a5.153,5.153,0,0,1,.73-7.189h0a8.35,8.35,0,0,1-1.4-1.309L2194.1,747.188c-.152.111-.294.23-.434.351a6.423,6.423,0,0,0-.811,8.882h0l4.646,5.8-5.355,15.7h18.7Z" transform="translate(-2004.165 -664.197)" fill="#ff95a9"/>
      <path id="Trazado_45462" data-name="Trazado 45462" d="M2079.626,508.216l-.047-1.845-.026-1.025h0l.073,2.867-9.133.23-.723,4.261h0l9.965-.247Z" transform="translate(-1912.634 -490.261)" fill="#fff"/>
      <path id="Trazado_45463" data-name="Trazado 45463" d="M2081.809,462.415l-.073-2.867h0l.026,1.025,3.871-7.968h0a5.662,5.662,0,1,0-10.674-3.424l-1.658,9.764v0h0l-.628,3.7h0Z" transform="translate(-1914.819 -444.464)" fill="#ff95a9"/>
      <path id="Trazado_45464" data-name="Trazado 45464" d="M2642.04,640.205a5.655,5.655,0,0,0-8.529,3.06l0,0-2.612,8.465.719-.732,0,0-2.011,2.046,6.516,6.4,0,0,2.067-3.131h0v0l5.455-8.265A5.663,5.663,0,0,0,2642.04,640.205Z" transform="translate(-2333.763 -591.002)" fill="#ff95a9"/>
      <path id="Trazado_45465" data-name="Trazado 45465" d="M2179.37,907.206h23.8v.007h1.506v-3.746h-25.935l1.2,3.543Z" transform="translate(-1994.609 -789.742)" fill="#fff"/>
      <path id="Trazado_45466" data-name="Trazado 45466" d="M1541.519,1252.22v.01a8.164,8.164,0,0,0-6.135,3.331l-.007-.005-67.193,91.589.005,0a5.942,5.942,0,0,0-1.159,3.526h11.949v2.086l66.953-84.181h21.958l3.246-18.014Z" transform="translate(-1459.235 -1050.841)" fill="#7760db"/>
      <path id="Trazado_45467" data-name="Trazado 45467" d="M2017.637,1251.584h.122l2.439-23.613h-6.8Z" transform="translate(-1870.234 -1033.845)" fill="#7760db"/>
      <path id="Trazado_45468" data-name="Trazado 45468" d="M1899.341,1232.586l-16.163.9-3.261,18.1h35.871l-4.236-23.613h-9.911Z" transform="translate(-1769.822 -1033.845)" fill="#7760db"/>
      <path id="Trazado_45469" data-name="Trazado 45469" d="M2108.471,610.091l-50.259,19.3c-.363-.037-.726-.065-1.089-.074h-.206c-.043,0-.085,0-.128,0v-.011h-23.8l-.764.26-16.405-48.25-.411-15.964.713-.018-.091-3.563-.7.018-.043-1.651.7-.018-.664-26.082-9.965.247-7.963,46.9c0,.023-.011.044-.015.067a9.612,9.612,0,0,0,.035,3.376l-.011,0,11.4,61.4.009,0c.074.4.158.805.269,1.207.025.091.061.176.088.266l-25.031,50.233h14.9l.455-4.407c.043-.417.1-.828.158-1.241l-.714-.1a41.831,41.831,0,0,1,55.447-33.819l-.242.679c1.019.363,2.024.753,3,1.192a40.841,40.841,0,0,1,4.592,2.428l3.336-5.449a14.141,14.141,0,0,0,3.01-1.29l.007.014,50.624-29.034,0-.009a9.6,9.6,0,0,0,3.252-3.047c.013-.019.022-.04.035-.06L2148.2,583.9l-7.112-6.984Z" transform="translate(-1848.226 -511.849)" fill="#7760db"/>
      <path id="Trazado_45470" data-name="Trazado 45470" d="M2620.568,688.654l2.011-2.046,0,0-.719.732-1.294,1.316-2.972,3.026,7.113,6.984,2.38-3.607Z" transform="translate(-2324.727 -626.612)" fill="#fff"/>
      <path id="Trazado_45471" data-name="Trazado 45471" d="M2141.5,1252.317c-.033.116-.066.231-.1.345q-.115.367-.253.722c-.024.061-.048.123-.073.183q-.18.44-.394.859l0,.007a11.4,11.4,0,0,1-6.976,5.72,11.416,11.416,0,0,1-1.962.368c-.027,0-.053.009-.081.011-.354.033-.711.051-1.073.051h-61.972V1262h61.972a12.945,12.945,0,0,0,3.37-.445,12.815,12.815,0,0,0,9.136-9.742h.07l2.606-25.278-1.408-.145-2.493,24.184-.066.422c-.013.085-.035.167-.051.251-.028.154-.059.308-.093.46Q2141.581,1252.015,2141.5,1252.317Z" transform="translate(-1911.762 -1032.654)" fill="#624ac9"/>
      <path id="Trazado_45472" data-name="Trazado 45472" d="M1893.238,1323.286h-18.9l-1.836,10.187h39.535l-1.827-10.187Z" transform="translate(-1764.247 -1105.543)" fill="#ffc558"/>
      <path id="Trazado_45473" data-name="Trazado 45473" d="M1848.119,1323.286h-3.47a5.093,5.093,0,0,0,0,10.187h1.635Z" transform="translate(-1739.464 -1105.544)" fill="#ffc558"/>
      <path id="Trazado_45474" data-name="Trazado 45474" d="M1918.393,1081.559l1.189-11.51a41.123,41.123,0,0,1,48.683-36.117c-.979-.439-1.984-.828-3-1.191l-.233.655a40.416,40.416,0,0,0-53.569,32.673l-.689-.092c-.055.413-.115.824-.158,1.241l-.455,4.407h-40.41a3.761,3.761,0,1,0,0,7.521h10.574v-.708h33.625v1.416h-4.639l-2.439,23.613v0h-.121l1.828,10.187h6.5Z" transform="translate(-1759.344 -885.727)" fill="#ffc558"/>
      <path id="Trazado_45475" data-name="Trazado 45475" d="M2085.269,1026.769a40.3,40.3,0,0,1,13.559,2.328l.233-.655.241-.679a41.831,41.831,0,0,0-55.447,33.819l.714.1.689.092A40.487,40.487,0,0,1,2085.269,1026.769Z" transform="translate(-1893.143 -881.428)" fill="#fff"/>
      <path id="Trazado_45476" data-name="Trazado 45476" d="M1443.364,1654.613h-.007l-6.862,3.742a1.777,1.777,0,0,0,.851,3.337h17.967v-7.079Z" transform="translate(-1435.569 -1354.779)" fill="#40327a"/>
      <path id="Trazado_45477" data-name="Trazado 45477" d="M2249.277,698.67h0a5.153,5.153,0,0,0-.73,7.189l.364.457a3.848,3.848,0,0,1-.6,5.423v0l-2.393,1.918a6.554,6.554,0,0,0-1.016,9.213l5.8,7.235a8.833,8.833,0,0,0,12.366,1.364l3.655-2.929,7.353-5.893a12.856,12.856,0,0,0,2.471-17.427,41.642,41.642,0,0,1-5.162-12.01l-.4-.5h0l-4.305-5.372-.005-.006-.248-.309a5.126,5.126,0,0,0-1.323-1.162,10.469,10.469,0,0,0-17.361,11.348c.044.055.1.1.142.154A8.35,8.35,0,0,0,2249.277,698.67Z" transform="translate(-2043.296 -624.987)" fill="#40327a"/>
      <path id="Trazado_45478" data-name="Trazado 45478" d="M2013.27,1251.584l-4.236-23.613H2007.6l4.236,23.613v0l1.827,10.187,14.191,79.106,1.394-.25-14.146-78.855-1.827-10.187Z" transform="translate(-1865.867 -1033.845)" fill="#40327a"/>
      <path id="Trazado_45479" data-name="Trazado 45479" d="M1826.831,1249.438v0l3.261-18.1,1.122-6.225h-1.439l-1.136,6.306-3.246,18.014v0l-1.836,10.187-8,44.375-6.214,34.48,1.394.251,6.954-38.592,7.3-40.515Z" transform="translate(-1716.737 -1031.696)" fill="#40327a"/>
      <path id="Trazado_45480" data-name="Trazado 45480" d="M1934.685,1223.673h22.786v-1.416h-33.625v1.416Z" transform="translate(-1802.867 -1029.546)" fill="#624ac9"/>
      <path id="Trazado_45481" data-name="Trazado 45481" d="M2109.492,1039.629a41.078,41.078,0,0,0-40.86,36.86l-1.189,11.51-3.313,32.1h63.081q.543,0,1.073-.051c.027,0,.053-.008.081-.011a11.415,11.415,0,0,0,8.939-6.088l0-.007c.144-.279.273-.567.394-.859.025-.061.049-.122.073-.183.093-.236.176-.478.253-.722.036-.114.07-.229.1-.345.057-.2.106-.405.152-.611.034-.152.065-.305.093-.46.05-.281.1-.562.128-.85h.007l2.867-27.813a32.573,32.573,0,0,0-31.884-42.467Z" transform="translate(-1908.394 -892.167)" fill="#fae7b7"/>
      <path id="Trazado_45482" data-name="Trazado 45482" d="M2110.736,676.285l16.405,48.25.764-.26.576-.2-1.2-3.543-15.131-44.5-.405-15.749-.7.018-.713.018Z" transform="translate(-1943.144 -606.811)" fill="#4f37b3"/>
      <path id="Trazado_45483" data-name="Trazado 45483" d="M2109.9,640.925l.7-.018.719-.019-.043-1.651-.718.019-.7.018Z" transform="translate(-1942.79 -590.979)" fill="#4f37b3"/>
    </g>
    <path id="Trazado_45484" data-name="Trazado 45484" d="M1753.089,518.6l-8.392-13.974s8.893-9.023,20.722-9.023Z" transform="translate(-1161.876 -143.659)" fill="#ffe159"/>
    <path id="Trazado_45485" data-name="Trazado 45485" d="M1751.013,516.785l-1.248-.669,11.753-21.922c-9.462.5-16.87,6.79-18.623,8.4l1.929,3.212-1.214.729-2.5-4.168.385-.391c.372-.377,9.239-9.234,21.226-9.234h1.183Z" transform="translate(-1159.175 -141.509)" fill="#8b77e8"/>
    <circle id="Elipse_965" data-name="Elipse 965" cx="2.448" cy="2.448" r="2.448" transform="translate(431.147 477.823)" fill="#e9e6ff"/>
    <circle id="Elipse_966" data-name="Elipse 966" cx="1.907" cy="1.907" r="1.907" transform="translate(589.194 384.516) rotate(-76.717)" fill="#ddd6ff"/>
    <path id="Trazado_45486" data-name="Trazado 45486" d="M1725.99,640.832l-24.616-30.4h-3.5l-24.616,30.4Z" transform="translate(-1108.135 -230.037)" fill="#ddd6ff"/>
    <path id="Trazado_45487" data-name="Trazado 45487" d="M1655.232,681.651a40.982,40.982,0,0,1-31.86-66.768l26.732-33.025h10.256l26.734,33.026a40.983,40.983,0,0,1-31.862,66.766Z" transform="translate(-1063.744 -208.544)" fill="#fff"/>
    <path id="Trazado_45488" data-name="Trazado 45488" d="M1710.633,662.155a33.909,33.909,0,1,1-60.264-21.322l24.607-30.4h3.5l20.253,25.017,4.361,5.387A33.771,33.771,0,0,1,1710.633,662.155Z" transform="translate(-1085.237 -230.035)" fill="#ffe159"/>
    <path id="Trazado_45489" data-name="Trazado 45489" d="M1084.887,902.3l52.533-8.183-2.237,6.562-51.04,7.95Z" transform="translate(-664.985 -443.433)" fill="#ffc558"/>
    <path id="Trazado_45490" data-name="Trazado 45490" d="M1133.042,920.6l-4.736,13.889h-47l.7-5.939Z" transform="translate(-662.847 -463.356)" fill="#fae7b7"/>
    <path id="Trazado_45491" data-name="Trazado 45491" d="M968.394,952.686l-.7,5.939h-37.42Z" transform="translate(-549.238 -487.492)" fill="#f2f0ff"/>
    <path id="Trazado_45492" data-name="Trazado 45492" d="M1298.107,906.543v17.372h-27.091l4.736-13.889Z" transform="translate(-805.557 -452.782)" fill="#f2f0ff"/>
    <path id="Trazado_45493" data-name="Trazado 45493" d="M1144.244,839.971l-4.566,13.415-52.533,8.183,1.515-12.933Z" transform="translate(-667.242 -402.705)" fill="#fae7b7"/>
    <path id="Trazado_45494" data-name="Trazado 45494" d="M951.23,874.943l-1.515,12.933-45.27,7.051v-12.7Z" transform="translate(-529.809 -429.011)" fill="#f2f0ff"/>
    <path id="Trazado_45495" data-name="Trazado 45495" d="M1319.278,830.2v12.7l-20.119,3.136,4.566-13.415Z" transform="translate(-826.727 -395.355)" fill="#f2f0ff"/>
    <path id="Trazado_45496" data-name="Trazado 45496" d="M952.192,841.457l-.637,5.486-47.111,7.341V848.9Z" transform="translate(-529.809 -403.822)" fill="#f2f0ff"/>
    <path id="Trazado_45497" data-name="Trazado 45497" d="M1336.17,797.343v5.387L1321.616,805l1.932-5.691Z" transform="translate(-843.62 -370.638)" fill="#f2f0ff"/>
    <rect id="Rectángulo_4434" data-name="Rectángulo 4434" width="54.706" height="1.416" transform="translate(464.989 472.551) rotate(-71.203)" fill="#fff"/>
    <rect id="Rectángulo_4435" data-name="Rectángulo 4435" width="103.454" height="1.416" transform="translate(368.591 485.859)" fill="#624ac9"/>
    <rect id="Rectángulo_4436" data-name="Rectángulo 4436" width="20.13" height="1.416" transform="translate(413.525 506.478) rotate(-83.327)" fill="#624ac9"/>
    <rect id="Rectángulo_4437" data-name="Rectángulo 4437" width="10.619" height="1.416" transform="translate(477.894 485.858)" fill="#624ac9"/>
    <g id="Grupo_18031" data-name="Grupo 18031" transform="translate(274.578 646.186)">
      <path id="Trazado_45498" data-name="Trazado 45498" d="M528.375,1686.038h0Z" transform="translate(-500.606 -1685.33)" fill="#f8f7ff"/>
      <rect id="Rectángulo_4438" data-name="Rectángulo 4438" width="27.769" height="1.416" transform="translate(0 0)" fill="#40327a"/>
    </g>
    <g id="Grupo_18032" data-name="Grupo 18032" transform="translate(557.579 380.393)">
      <path id="Trazado_45499" data-name="Trazado 45499" d="M1725,741.047l-1.248-1.541a41.844,41.844,0,0,1-46.687,33.614A28.956,28.956,0,1,0,1725,741.047Z" transform="translate(-1668.576 -707.525)" fill="#ffc747"/>
      <path id="Trazado_45500" data-name="Trazado 45500" d="M1697.987,642.409a41.937,41.937,0,0,0,.739-6.964l-20.253-25.017h-3.5l-24.607,30.4a33.917,33.917,0,0,0-5.132,33.923,41.624,41.624,0,0,0,6.064,1.268,41.844,41.844,0,0,0,46.687-33.614Z" transform="translate(-1642.816 -610.428)" fill="#ffe159"/>
    </g>
    <g id="Grupo_18033" data-name="Grupo 18033" transform="translate(576.477 407.704)">
      <path id="Trazado_45501" data-name="Trazado 45501" d="M1734.063,804.01a10.524,10.524,0,0,0,3.957,3.447A10.816,10.816,0,0,1,1734.063,804.01Zm2.3-9.967a6.674,6.674,0,0,0,.8.58A7.575,7.575,0,0,1,1736.364,794.043Zm1.274.864c.326.184.687.368,1.069.538C1738.324,795.268,1737.964,795.091,1737.638,794.907Zm11.73-5.536c.68.177,1.3.347,1.862.51C1750.67,789.711,1750.048,789.541,1749.368,789.371Zm8.3,13.521a8.509,8.509,0,0,0,.743-2.216A8.983,8.983,0,0,1,1757.672,802.892Z" transform="translate(-1730.354 -772.346)" fill="#fff"/>
      <path id="Trazado_45502" data-name="Trazado 45502" d="M1747,741.137a9.668,9.668,0,0,0-4.4-3.554c-.587-.234-1.316-.481-2.187-.736l7.95-2.492-.51-1.395c-1.643-4.488-5.019-7.214-10.045-8.105v-4.2h-7.44V725a11.81,11.81,0,0,0-6.768,3.759,10.993,10.993,0,0,0-2.662,7.256,10,10,0,0,0,2.464,6.654,10.794,10.794,0,0,0,4.262,2.718l-8.573,1.593.411,1.486a12.973,12.973,0,0,0,10.866,9.989V762.8h7.44v-4.339a14.285,14.285,0,0,0,7.589-3.547,10.49,10.49,0,0,0,3.356-7.9A10,10,0,0,0,1747,741.137Zm.156,7.837a.01.01,0,0,1,0,.014,8.51,8.51,0,0,1-.743,2.216s.007,0,0,.007a7.617,7.617,0,0,1-.453.814c-.085.127-.17.262-.262.389a3.96,3.96,0,0,1-.29.389,7.546,7.546,0,0,1-.63.729c-.113.12-.233.241-.354.354a10.046,10.046,0,0,1-1.486,1.175c-.114.078-.234.156-.354.226a11.237,11.237,0,0,1-1.395.722c-.135.056-.276.12-.417.177a13.456,13.456,0,0,1-1.395.467c-.184.057-.368.106-.559.149-.573.141-1.168.255-1.791.347a.026.026,0,0,1-.021.007l-.609.085v4.141h-4.608v-4.141l-.6-.092c-.106-.014-.219-.035-.326-.057s-.177-.028-.269-.05c-.262-.042-.517-.1-.771-.163-.071-.014-.135-.028-.205-.05-.241-.057-.474-.12-.708-.2-.1-.028-.191-.057-.29-.092q-.244-.074-.489-.17a6.453,6.453,0,0,1-.609-.241.061.061,0,0,1-.05-.029c-.241-.106-.481-.212-.708-.333a10.526,10.526,0,0,1-3.957-3.447c-.17-.241-.325-.489-.481-.743a7.79,7.79,0,0,1-.432-.8,14.229,14.229,0,0,1-1.02-2.69l8.4-1.557a5.391,5.391,0,0,0,1,1.947,3.875,3.875,0,0,0,.283.3c.071.071.149.142.226.212a4.933,4.933,0,0,0,.481.361c.085.057.177.113.269.163h.007a5.2,5.2,0,0,0,.778.347,4.385,4.385,0,0,0,.432.127,7.072,7.072,0,0,0,.935.177,9.7,9.7,0,0,0,1.041.057,4.356,4.356,0,0,0,2.924-.736,1.569,1.569,0,0,0,.361-.5,1.521,1.521,0,0,0,.106-.411c.007-.071.014-.149.014-.227a1.76,1.76,0,0,0-.793-1.536,8.05,8.05,0,0,0-2.8-.963,34.349,34.349,0,0,1-7.079-2.1c-.382-.17-.743-.354-1.069-.538-.163-.092-.319-.184-.474-.283a6.67,6.67,0,0,1-.8-.58,3.515,3.515,0,0,1-.333-.3,2.862,2.862,0,0,1-.29-.3,9.174,9.174,0,0,1-1.119-1.635c-.12-.227-.233-.46-.332-.694a8.644,8.644,0,0,1-.672-3.405,9.967,9.967,0,0,1,.148-1.734,9.393,9.393,0,0,1,.956-2.8,10.142,10.142,0,0,1,.68-1.1c.17-.234.354-.474.545-.7a8.083,8.083,0,0,1,1.224-1.182,3.246,3.246,0,0,1,.311-.234,4.092,4.092,0,0,1,.4-.276q.181-.117.382-.234c.149-.085.3-.17.453-.248.12-.064.241-.12.361-.177.142-.071.283-.128.432-.191.1-.042.2-.078.3-.12a11.861,11.861,0,0,1,1.536-.488c.177-.05.354-.092.545-.127s.375-.085.574-.12l.581-.106v-4.092h4.608v4l.609.085c.042.007.078.014.113.021.184.021.354.049.531.085l.432.085c.113.021.227.05.34.078.191.042.382.092.566.141.092.029.184.049.276.085.163.042.312.092.467.149a4.106,4.106,0,0,1,.5.177,1.307,1.307,0,0,1,.149.057c.184.071.368.149.545.234a2.069,2.069,0,0,1,.283.134c.149.064.29.142.432.22a2.384,2.384,0,0,1,.255.149,2.94,2.94,0,0,1,.375.227,3.677,3.677,0,0,1,.347.234,1.741,1.741,0,0,1,.3.212,1.315,1.315,0,0,1,.227.177,3.612,3.612,0,0,1,.411.34.184.184,0,0,1,.078.071c.085.071.17.149.248.227s.163.163.241.247a5.5,5.5,0,0,1,.474.524,1.26,1.26,0,0,1,.127.156,5.614,5.614,0,0,1,.361.474,5.931,5.931,0,0,1,.411.63,11.469,11.469,0,0,1,1.041,2.159l-7.511,2.35a4.954,4.954,0,0,0-.956-1.6c-.078-.085-.163-.17-.248-.248a3.924,3.924,0,0,0-.7-.524,4.5,4.5,0,0,0-.814-.375,6.179,6.179,0,0,0-1.989-.3c-.248,0-.481.007-.694.028a4.716,4.716,0,0,0-.6.092H1733a4.431,4.431,0,0,0-.51.149,1.646,1.646,0,0,0-1.161,1.649,1.611,1.611,0,0,0,.128.644,1.577,1.577,0,0,0,.155.283,1.89,1.89,0,0,0,.219.262c.043.035.092.078.149.12h.007a1.723,1.723,0,0,0,.205.127,11.28,11.28,0,0,0,2.421.75q1.954.425,3.49.821c.68.17,1.3.34,1.862.51.212.057.411.12.609.184s.375.113.552.177c.354.12.665.234.949.347a7.908,7.908,0,0,1,1.585.849,8.6,8.6,0,0,1,3.674,7.27c0,.17-.007.34-.014.51A9.635,9.635,0,0,1,1747.153,748.973Z" transform="translate(-1719.092 -720.657)" fill="#fff"/>
      <path id="Trazado_45503" data-name="Trazado 45503" d="M1751.231,746.242a8.656,8.656,0,0,0-2.173-2.194,7.908,7.908,0,0,0-1.585-.849c-.283-.113-.595-.227-.949-.347-.177-.064-.361-.12-.552-.177s-.4-.127-.609-.184c-.559-.17-1.182-.34-1.862-.51q-1.54-.393-3.49-.821a11.287,11.287,0,0,1-2.421-.75,1.723,1.723,0,0,1-.205-.127h-.007c-.057-.042-.106-.085-.149-.12a1.9,1.9,0,0,1-.219-.262,1.574,1.574,0,0,1-.155-.283,1.612,1.612,0,0,1-.128-.644,1.646,1.646,0,0,1,1.161-1.649,2.682,2.682,0,0,1,.51-.149h.007a4.716,4.716,0,0,1,.6-.092c.212-.021.446-.028.694-.028a6.179,6.179,0,0,1,1.989.3,4.491,4.491,0,0,1,.814.375,3.605,3.605,0,0,1,.7.524,2.023,2.023,0,0,1,.248.248,4.951,4.951,0,0,1,.956,1.6l7.511-2.35a11.46,11.46,0,0,0-1.041-2.159c-.127-.212-.269-.425-.411-.63-.12-.163-.234-.319-.361-.474a1.251,1.251,0,0,0-.127-.156c-.149-.177-.312-.354-.474-.524-.078-.085-.156-.163-.241-.247s-.163-.156-.248-.227a.184.184,0,0,0-.078-.071c-.135-.12-.269-.233-.411-.34a1.313,1.313,0,0,0-.226-.177,1.744,1.744,0,0,0-.3-.212,3.689,3.689,0,0,0-.347-.234c-.12-.078-.248-.156-.375-.227a2.384,2.384,0,0,0-.255-.149c-.141-.078-.283-.149-.432-.22a2.062,2.062,0,0,0-.283-.134c-.177-.085-.361-.163-.545-.234a1.3,1.3,0,0,0-.149-.057c-.163-.064-.326-.128-.5-.177s-.3-.106-.467-.149c-.092-.035-.184-.056-.276-.085-.184-.05-.375-.1-.566-.141-.113-.028-.227-.057-.34-.078l-.432-.085c-.177-.035-.347-.064-.531-.085-.035-.007-.071-.014-.113-.021-.2-.029-.4-.057-.609-.078v-4.007h-4.608v4.106c-.4.064-.779.134-1.154.212-.184.043-.368.085-.545.127a15.642,15.642,0,0,0-1.536.488c-.1.043-.2.078-.3.12-.149.057-.29.12-.432.191-.12.056-.241.113-.361.177-.156.078-.3.163-.453.248s-.262.156-.382.234a4.068,4.068,0,0,0-.4.276,3.221,3.221,0,0,0-.311.234,8.08,8.08,0,0,0-1.224,1.182c-.191.227-.375.467-.545.7a10.161,10.161,0,0,0-.68,1.1,9.393,9.393,0,0,0-.956,2.8,9.967,9.967,0,0,0-.148,1.734,8.644,8.644,0,0,0,.672,3.405c.1.234.212.467.332.694a9.177,9.177,0,0,0,1.119,1.635,2.877,2.877,0,0,0,.29.3c.1.1.212.205.333.3a6.674,6.674,0,0,0,.8.58c.156.1.311.191.474.283.326.184.687.368,1.069.538a34.342,34.342,0,0,0,7.079,2.1,8.051,8.051,0,0,1,2.8.963,1.76,1.76,0,0,1,.793,1.536c0,.078-.007.156-.014.226a1.3,1.3,0,0,1-.106.411,1.32,1.32,0,0,1-.361.5,4.355,4.355,0,0,1-2.924.736,9.7,9.7,0,0,1-1.041-.057,7.072,7.072,0,0,1-.935-.177,4.385,4.385,0,0,1-.432-.127,5.192,5.192,0,0,1-.778-.347h-.007c-.092-.05-.184-.106-.269-.163a4.024,4.024,0,0,1-.481-.361c-.078-.071-.156-.141-.226-.212a3.866,3.866,0,0,1-.283-.3,5.39,5.39,0,0,1-1-1.947l-8.4,1.557a14.227,14.227,0,0,0,1.02,2.69c.135.276.283.545.432.8s.311.5.481.743a10.524,10.524,0,0,0,3.957,3.447c.226.12.467.227.708.333a.061.061,0,0,0,.05.029c.2.085.4.163.609.241q.244.1.489.17c.1.035.191.064.29.092.233.078.467.141.708.2.071.021.135.035.205.05.255.064.51.113.772.163.092.021.177.035.269.05.3.05.609.1.927.135v4.155h4.608v-4.155c.212-.021.425-.05.63-.078.623-.092,1.218-.205,1.791-.347.191-.043.375-.092.559-.149a13.471,13.471,0,0,0,1.395-.467c.141-.057.283-.12.417-.177a11.212,11.212,0,0,0,1.395-.722c.12-.071.241-.148.354-.226a10.056,10.056,0,0,0,1.486-1.175c.121-.113.241-.233.354-.354a7.592,7.592,0,0,0,.63-.729,3.969,3.969,0,0,0,.29-.389c.092-.128.177-.262.262-.389a7.619,7.619,0,0,0,.453-.814c.007-.007,0-.007,0-.007a8.509,8.509,0,0,0,.743-2.216.01.01,0,0,0,0-.014,9.6,9.6,0,0,0,.17-1.444c.007-.17.014-.34.014-.51A8.647,8.647,0,0,0,1751.231,746.242Z" transform="translate(-1724.486 -724.955)" fill="#7760db"/>
    </g>
    <path id="Trazado_45504" data-name="Trazado 45504" d="M1674.969,862.6a34.62,34.62,0,0,1-34.487-31.6l1.41-.122a33.209,33.209,0,0,0,63.443,10.552l1.294.574A34.662,34.662,0,0,1,1674.969,862.6Z" transform="translate(-1083.482 -395.864)" fill="#8b77e8"/>
    <path id="Trazado_45505" data-name="Trazado 45505" d="M1641.428,725.767l-1.415-.039a34.275,34.275,0,0,1,7.694-20.785l7.036-8.692,1.1.891-7.037,8.693A32.874,32.874,0,0,0,1641.428,725.767Z" transform="translate(-1083.129 -294.593)" fill="#8b77e8"/>
    <path id="Trazado_45506" data-name="Trazado 45506" d="M1834.107,689.684l-1.38-.318a33.256,33.256,0,0,0-6.543-28.373l-18.992-23.462,1.1-.891,18.991,23.462a34.677,34.677,0,0,1,6.823,29.582Z" transform="translate(-1208.886 -249.752)" fill="#8b77e8"/>
    <rect id="Rectángulo_4439" data-name="Rectángulo 4439" width="107.143" height="1.416" transform="translate(486.214 405.38) rotate(-11.436)" fill="#624ac9"/>
    <g id="Grupo_18034" data-name="Grupo 18034" transform="translate(362.573 321.51)">
      <path id="Trazado_45507" data-name="Trazado 45507" d="M1226.173,505.329a10.293,10.293,0,0,1-8.9-8.178l-2.391-11.809h0l-.21-1.037a3.86,3.86,0,1,0-3.017,4.55h0l1.814,8.957-.63.128a6.393,6.393,0,0,1-3.386-.234l-2.176,13.973h17.911Z" transform="translate(-1119.992 -454.342)" fill="#ff95a9"/>
      <path id="Trazado_45508" data-name="Trazado 45508" d="M1196.752,416.366l.631-.128-1.814-8.956h0a3.86,3.86,0,1,1,3.017-4.55l.21,1.037h0l2.391,11.809a10.3,10.3,0,0,0,12.131,8.045l10.025-2.03a5.153,5.153,0,0,0,3.972-6.315L1224.2,403h0l-16.568,3.355a4.288,4.288,0,0,1-5.038-3.283l-3.06-15.11a10.8,10.8,0,0,0,8.5,1.864l11.649-2.359a14.141,14.141,0,0,1,1.51,3.675l.815,3.218a8.671,8.671,0,0,0,.537-15.9,7.715,7.715,0,0,0-6.815-5.636,5.114,5.114,0,0,0-1.756.045l-.384.078h-.01l-6.122,1.24h0l-.63.128a5.135,5.135,0,0,1-7.537.977,5.147,5.147,0,0,0-4.122,4.936A12.858,12.858,0,0,0,1185.9,395.2l2.254,11.127,1.016,5.015a6.451,6.451,0,0,0,7.583,5.028Zm26.172-9.547a3.894,3.894,0,0,1-7.62,1.607Z" transform="translate(-1103.908 -372.77)" fill="#40327a"/>
      <path id="Trazado_45509" data-name="Trazado 45509" d="M1261.853,432.094l-11.649,2.359a10.8,10.8,0,0,1-8.5-1.864l3.06,15.11a4.288,4.288,0,0,0,5.038,3.283l16.568-3.355-2.19-8.64-.815-3.218A14.141,14.141,0,0,0,1261.853,432.094Z" transform="translate(-1146.078 -417.396)" fill="#ff95a9"/>
      <path id="Trazado_45510" data-name="Trazado 45510" d="M1309.975,514.805a3.894,3.894,0,0,0,3.007-4.613l-7.62,1.607A3.894,3.894,0,0,0,1309.975,514.805Z" transform="translate(-1193.966 -476.143)" fill="#fff"/>
      <path id="Trazado_45511" data-name="Trazado 45511" d="M1210.712,628.861l5.6,22.4-4.278-17.137,4.552-26.568H1218l4.552,26.568-5.26,21.066h0l5.823-23.316,3.154-12.627.042-.166h0V604.175h-21.761l.087.346,1.249,5Z" transform="translate(-1118.129 -546.841)" fill="#fff"/>
      <path id="Trazado_45512" data-name="Trazado 45512" d="M1240.714,617.834H1239.3l-4.552,26.568,4.278,17.137.981,3.93h0l5.26-21.066Z" transform="translate(-1140.847 -557.115)" fill="#40327a"/>
      <path id="Trazado_45513" data-name="Trazado 45513" d="M901.371,941.229l-.5,4.757,9.443,1.954,1.43-4.566Z" transform="translate(-889.692 -800.384)" fill="#fff"/>
      <path id="Trazado_45514" data-name="Trazado 45514" d="M1002.828,592.5l0,.014a11.925,11.925,0,0,1-4.034-.013c-.312,0-.618.027-.925.047v14.862h0l-.042.167-3.154,12.627-5.823,23.316h0l-.981-3.93-5.6-22.4-4.83-19.339-1.249-5L965.961,589.4l0,.01a14.136,14.136,0,0,0-13.332,2.309c-.022.018-.041.038-.063.055l0,0-43.074,34.56.005.008a9.679,9.679,0,0,0-3.565,6.518h0l-4.431,41.986-.623,5.932.5-4.757,10.371,2.145-1.43,4.566,1.784-5.691L923.6,640.4l29.1-16.415-3.2,27.309-.644,5.486-.326,2.81,55.585-8.665,10.992-32.262,84.873-17.185-1.154-10.661Z" transform="translate(-889.692 -535.168)" fill="#ffc558"/>
      <path id="Trazado_45515" data-name="Trazado 45515" d="M1699.869,597.092l1.154,10.661,5.238-1.062L1705.206,597Z" transform="translate(-1490.727 -541.443)" fill="#fff"/>
      <path id="Trazado_45516" data-name="Trazado 45516" d="M1743.561,582.067a5.655,5.655,0,0,0-8.162-3.937v0l-7.913,4.1-6.073.1,1.055,9.691,6.938-1.4v0l9.69-1.9A5.663,5.663,0,0,0,1743.561,582.067Z" transform="translate(-1506.932 -526.769)" fill="#ff95a9"/>
      <path id="Trazado_45517" data-name="Trazado 45517" d="M866.606,963.551l-6.772,1.983,0,0a5.662,5.662,0,1,0,4.639,10.2l8.343-5.335a4.228,4.228,0,0,0,1.762-2.305h0l1.8-5.72-9.443-1.954Z" transform="translate(-855.76 -814.826)" fill="#ff95a9"/>
    </g>
    <path id="Trazado_45518" data-name="Trazado 45518" d="M1117.683,827.314V832.7l-23.106,3.6.644-5.486Z" transform="translate(-672.833 -393.184)" fill="#fae7b7"/>
    <rect id="Rectángulo_4440" data-name="Rectángulo 4440" width="43.221" height="1.416" transform="translate(420.096 451.123) rotate(-83.326)" fill="#4f37b3"/>
  </g>
</svg>
