<svg xmlns="http://www.w3.org/2000/svg" width="242.38" height="211.837" viewBox="0 0 242.38 211.837">
  <g id="Group_23405" data-name="Group 23405" transform="translate(-503.614 -227.845)">
    <g id="Group_23386" data-name="Group 23386" transform="translate(507.555 380.564)">
      <g id="Group_23382" data-name="Group 23382">
        <circle id="Ellipse_1293" data-name="Ellipse 1293" cx="29.559" cy="29.559" r="29.559" fill="#98ca69"/>
      </g>
      <g id="Group_23383" data-name="Group 23383" transform="translate(9.853 29.559)">
        <path id="Path_51519" data-name="Path 51519" d="M569.421,576.645a19.706,19.706,0,1,1-39.411,0Z" transform="translate(-530.01 -576.645)" fill="#75aa40"/>
      </g>
      <g id="Group_23384" data-name="Group 23384" transform="translate(36.717 14.548)">
        <circle id="Ellipse_1294" data-name="Ellipse 1294" cx="4.926" cy="4.926" r="4.926" transform="matrix(0.16, -0.987, 0.987, 0.16, 0, 9.726)" fill="#75aa40"/>
      </g>
      <g id="Group_23385" data-name="Group 23385" transform="translate(11.1 14.548)">
        <circle id="Ellipse_1295" data-name="Ellipse 1295" cx="4.926" cy="4.926" r="4.926" transform="matrix(0.987, -0.16, 0.16, 0.987, 0, 1.574)" fill="#75aa40"/>
      </g>
    </g>
    <g id="Group_23387" data-name="Group 23387" transform="translate(503.614 263.341)">
      <path id="Path_51520" data-name="Path 51520" d="M503.614,381.463h67a54.02,54.02,0,0,1,15.872-38.319L539.11,295.769A120.811,120.811,0,0,0,503.614,381.463Z" transform="translate(-503.614 -295.769)" fill="#98ca69"/>
    </g>
    <g id="Group_23388" data-name="Group 23388" transform="translate(539.11 227.845)">
      <path id="Path_51521" data-name="Path 51521" d="M657.232,294.845v-67a120.811,120.811,0,0,0-85.695,35.5l47.376,47.376A54.019,54.019,0,0,1,657.232,294.845Z" transform="translate(-571.537 -227.845)" fill="#ffe352"/>
    </g>
    <g id="Group_23389" data-name="Group 23389" transform="translate(624.804 227.845)">
      <path id="Path_51522" data-name="Path 51522" d="M735.519,227.845v67a54.021,54.021,0,0,1,38.319,15.872l47.375-47.376A120.81,120.81,0,0,0,735.519,227.845Z" transform="translate(-735.519 -227.845)" fill="#ffb236"/>
    </g>
    <g id="Group_23390" data-name="Group 23390" transform="translate(663.123 263.341)">
      <path id="Path_51523" data-name="Path 51523" d="M808.844,343.145a54.023,54.023,0,0,1,15.872,38.319h67a120.808,120.808,0,0,0-35.5-85.694Z" transform="translate(-808.844 -295.769)" fill="#ff7b7b"/>
    </g>
    <g id="Group_23391" data-name="Group 23391" transform="translate(611.995 258.389)">
      <path id="Path_51524" data-name="Path 51524" d="M723.817,286.293l-12.809,95.573h25.617Z" transform="translate(-711.008 -286.293)" fill="#466089"/>
    </g>
    <g id="Group_23392" data-name="Group 23392" transform="translate(603.903 333.061)">
      <circle id="Ellipse_1296" data-name="Ellipse 1296" cx="14.779" cy="14.779" r="14.779" transform="translate(0 20.901) rotate(-45)" fill="#6e83b7"/>
    </g>
    <g id="Group_23393" data-name="Group 23393" transform="translate(503.614 349.035)">
      <rect id="Rectangle_5320" data-name="Rectangle 5320" width="66.999" height="19.706" transform="translate(0 0)" fill="#466089"/>
    </g>
    <g id="Group_23398" data-name="Group 23398" transform="translate(682.936 380.564)">
      <g id="Group_23394" data-name="Group 23394" transform="translate(0)">
        <circle id="Ellipse_1297" data-name="Ellipse 1297" cx="29.559" cy="29.559" r="29.559" fill="#ffb0aa"/>
      </g>
      <g id="Group_23395" data-name="Group 23395" transform="translate(9.614 30.051)">
        <path id="Path_51525" data-name="Path 51525" d="M899.844,592.3a16.757,16.757,0,0,0-29.49,0l-5.2-2.812a22.669,22.669,0,0,1,39.89,0Z" transform="translate(-865.154 -577.588)" fill="#ff7b7b"/>
      </g>
      <g id="Group_23396" data-name="Group 23396" transform="translate(11.1 14.548)">
        <circle id="Ellipse_1298" data-name="Ellipse 1298" cx="4.926" cy="4.926" r="4.926" transform="matrix(0.987, -0.16, 0.16, 0.987, 0, 1.574)" fill="#ff7b7b"/>
      </g>
      <g id="Group_23397" data-name="Group 23397" transform="translate(36.717 14.548)">
        <circle id="Ellipse_1299" data-name="Ellipse 1299" cx="4.926" cy="4.926" r="4.926" transform="matrix(0.16, -0.987, 0.987, 0.16, 0, 9.726)" fill="#ff7b7b"/>
      </g>
    </g>
    <g id="Group_23403" data-name="Group 23403" transform="translate(595.246 380.564)">
      <g id="Group_23399" data-name="Group 23399" transform="translate(0)">
        <circle id="Ellipse_1300" data-name="Ellipse 1300" cx="29.559" cy="29.559" r="29.559" fill="#ffe352"/>
      </g>
      <g id="Group_23400" data-name="Group 23400" transform="translate(12.214 36.456)">
        <rect id="Rectangle_5321" data-name="Rectangle 5321" width="34.69" height="5.912" fill="#ffb236"/>
      </g>
      <g id="Group_23401" data-name="Group 23401" transform="translate(11.1 14.548)">
        <circle id="Ellipse_1301" data-name="Ellipse 1301" cx="4.926" cy="4.926" r="4.926" transform="matrix(0.987, -0.16, 0.16, 0.987, 0, 1.574)" fill="#ffb236"/>
      </g>
      <g id="Group_23402" data-name="Group 23402" transform="translate(36.715 14.546)">
        <circle id="Ellipse_1302" data-name="Ellipse 1302" cx="4.926" cy="4.926" r="4.926" transform="matrix(0.16, -0.987, 0.987, 0.16, 0, 9.726)" fill="#ffb236"/>
      </g>
    </g>
    <g id="Group_23404" data-name="Group 23404" transform="translate(678.995 349.035)">
      <rect id="Rectangle_5322" data-name="Rectangle 5322" width="66.999" height="19.706" transform="translate(66.999 19.706) rotate(180)" fill="#466089"/>
    </g>
  </g>
</svg>
