<svg xmlns="http://www.w3.org/2000/svg" xmlns:xlink="http://www.w3.org/1999/xlink" width="236" height="236" viewBox="0 0 236 236">
  <defs>
    <radialGradient id="radial-gradient" cx="0.5" cy="0.5" r="0.5" gradientUnits="objectBoundingBox">
      <stop offset="0" stop-color="#fff"/>
      <stop offset="1" stop-color="#e7ecf0"/>
    </radialGradient>
    <filter id="Elipse_1443" x="0" y="0" width="236" height="236" filterUnits="userSpaceOnUse">
      <feOffset dy="3" input="SourceAlpha"/>
      <feGaussianBlur stdDeviation="3" result="blur"/>
      <feFlood flood-opacity="0.161"/>
      <feComposite operator="in" in2="blur"/>
      <feComposite in="SourceGraphic"/>
    </filter>
  </defs>
  <g id="Grupo_26378" data-name="Grupo 26378" transform="translate(-1112 -2596)">
    <g transform="matrix(1, 0, 0, 1, 1112, 2596)" filter="url(#Elipse_1443)">
      <g id="Elipse_1443-2" data-name="Elipse 1443" transform="translate(9 6)" stroke="#fff" stroke-width="6" fill="url(#radial-gradient)">
        <circle cx="109" cy="109" r="109" stroke="none"/>
        <circle cx="109" cy="109" r="106" fill="none"/>
      </g>
    </g>
    <g id="Grupo_23485" data-name="Grupo 23485" transform="translate(1184.986 2661.138)">
      <g id="Grupo_23479" data-name="Grupo 23479" transform="translate(0 0)">
        <path id="Trazado_51558" data-name="Trazado 51558" d="M2408.37,2833.363V2732.6h-4.27v105.028h105.028v-4.269Z" transform="translate(-2404.101 -2732.604)" fill="#6e83b7"/>
      </g>
      <g id="Grupo_23480" data-name="Grupo 23480" transform="translate(12.808 36.717)">
        <path id="Trazado_51559" data-name="Trazado 51559" d="M2486.28,2910.545l-12.808-15.8-12.808,15.8h4.7v48.245h16.224v-48.245Z" transform="translate(-2460.663 -2894.749)" fill="#80d6fb"/>
      </g>
      <g id="Grupo_23481" data-name="Grupo 23481" transform="translate(43.976 52.514)">
        <path id="Trazado_51560" data-name="Trazado 51560" d="M2623.914,2980.305l-12.808-15.8-12.808,15.8h4.7v32.448h16.224v-32.448Z" transform="translate(-2598.297 -2964.508)" fill="#ffb0aa"/>
      </g>
      <g id="Grupo_23482" data-name="Grupo 23482" transform="translate(75.142 13.235)">
        <path id="Trazado_51561" data-name="Trazado 51561" d="M2761.548,2806.848l-12.809-15.8-12.808,15.8h4.7v71.727h16.224v-71.727Z" transform="translate(-2735.931 -2791.051)" fill="#98ca69"/>
      </g>
      <g id="Grupo_23484" data-name="Grupo 23484" transform="translate(11.741 0)">
        <g id="Grupo_23483" data-name="Grupo 23483" transform="translate(0 0)">
          <ellipse id="Elipse_1314" data-name="Elipse 1314" cx="13.876" cy="13.876" rx="13.876" ry="13.876" fill="#ffe352"/>
        </g>
        <path id="Trazado_51562" data-name="Trazado 51562" d="M2494.812,2754.467h-3.469a1.919,1.919,0,0,1,0-3.838h3.311a2.079,2.079,0,0,1,2.076,2.076h3.416a5.5,5.5,0,0,0-5.361-5.489v-2.08h-3.416v2.076h-.027a5.334,5.334,0,0,0,0,10.669h3.469a1.919,1.919,0,0,1,0,3.838H2491.5a2.079,2.079,0,0,1-2.077-2.077h-3.416a5.5,5.5,0,0,0,5.361,5.489v2.08h3.416v-2.076h.027a5.335,5.335,0,0,0,0-10.669Z" transform="translate(-2479.202 -2742.299)" fill="#6e83b7"/>
      </g>
    </g>
  </g>
</svg>
