<svg xmlns="http://www.w3.org/2000/svg" width="166.19" height="210.577" viewBox="0 0 166.19 210.577">
  <g id="Group_23442" data-name="Group 23442" transform="translate(-556.405 -2732.604)">
    <g id="Group_23412" data-name="Group 23412" transform="translate(556.405 2732.604)">
      <rect id="Rectangle_5324" data-name="Rectangle 5324" width="138.707" height="194.982" fill="#edeff1"/>
    </g>
    <g id="Group_23425" data-name="Group 23425" transform="translate(566.313 2739.539)">
      <g id="Group_23419" data-name="Group 23419" transform="translate(55.483 3.963)">
        <g id="Group_23413" data-name="Group 23413" transform="translate(15.852 0)">
          <rect id="Rectangle_5325" data-name="Rectangle 5325" width="7.926" height="47.557" transform="translate(47.557 0) rotate(90)" fill="#6e83b7"/>
        </g>
        <g id="Group_23414" data-name="Group 23414" transform="translate(0 0)">
          <rect id="Rectangle_5326" data-name="Rectangle 5326" width="7.926" height="7.926" transform="translate(7.926 0) rotate(90)" fill="#6e83b7"/>
        </g>
        <g id="Group_23415" data-name="Group 23415" transform="translate(15.852 15.852)">
          <rect id="Rectangle_5327" data-name="Rectangle 5327" width="7.926" height="47.557" transform="translate(47.557 0) rotate(90)" fill="#6e83b7"/>
        </g>
        <g id="Group_23416" data-name="Group 23416" transform="translate(0 15.852)">
          <rect id="Rectangle_5328" data-name="Rectangle 5328" width="7.926" height="7.926" transform="translate(7.926 0) rotate(90)" fill="#6e83b7"/>
        </g>
        <g id="Group_23417" data-name="Group 23417" transform="translate(15.852 31.704)">
          <rect id="Rectangle_5329" data-name="Rectangle 5329" width="7.926" height="47.557" transform="translate(47.557 0) rotate(90)" fill="#6e83b7"/>
        </g>
        <g id="Group_23418" data-name="Group 23418" transform="translate(0 31.704)">
          <rect id="Rectangle_5330" data-name="Rectangle 5330" width="7.926" height="7.926" transform="translate(7.926 0) rotate(90)" fill="#6e83b7"/>
        </g>
      </g>
      <g id="Group_23424" data-name="Group 23424">
        <g id="Group_23420" data-name="Group 23420" transform="translate(23.778)">
          <path id="Path_51546" data-name="Path 51546" d="M636.535,2749.1v23.778h23.778A23.778,23.778,0,0,0,636.535,2749.1Z" transform="translate(-636.535 -2749.101)" fill="#ffb0aa"/>
        </g>
        <g id="Group_23421" data-name="Group 23421" transform="translate(23.778 23.778)">
          <path id="Path_51547" data-name="Path 51547" d="M636.535,2805.663l16.814,16.814a23.7,23.7,0,0,0,6.965-16.814Z" transform="translate(-636.535 -2805.663)" fill="#ffe352"/>
        </g>
        <g id="Group_23422" data-name="Group 23422" transform="translate(6.965 23.778)">
          <path id="Path_51548" data-name="Path 51548" d="M596.54,2822.477a23.779,23.779,0,0,0,33.627,0h0l-16.814-16.814Z" transform="translate(-596.54 -2805.663)" fill="#98ca69"/>
        </g>
        <g id="Group_23423" data-name="Group 23423">
          <path id="Path_51549" data-name="Path 51549" d="M586.938,2789.693l16.814-16.814V2749.1a23.779,23.779,0,0,0-16.814,40.592Z" transform="translate(-579.973 -2749.101)" fill="#80d6fb"/>
        </g>
      </g>
    </g>
    <g id="Group_23439" data-name="Group 23439" transform="translate(566.313 2800.768)">
      <g id="Group_23430" data-name="Group 23430" transform="translate(0 0)">
        <g id="Group_23426" data-name="Group 23426">
          <rect id="Rectangle_5331" data-name="Rectangle 5331" width="23.778" height="23.778" fill="#d3d3d3"/>
        </g>
        <g id="Group_23429" data-name="Group 23429" transform="translate(31.704 0)">
          <g id="Group_23427" data-name="Group 23427" transform="translate(0 0)">
            <rect id="Rectangle_5332" data-name="Rectangle 5332" width="7.926" height="87.187" transform="translate(87.187 0) rotate(90)" fill="#6e83b7"/>
          </g>
          <g id="Group_23428" data-name="Group 23428" transform="translate(0 15.852)">
            <rect id="Rectangle_5333" data-name="Rectangle 5333" width="7.926" height="71.335" transform="translate(71.335 0) rotate(90)" fill="#6e83b7"/>
          </g>
        </g>
      </g>
      <g id="Group_23433" data-name="Group 23433" transform="translate(31.704 35.667)">
        <g id="Group_23431" data-name="Group 23431" transform="translate(0 0)">
          <rect id="Rectangle_5334" data-name="Rectangle 5334" width="7.926" height="87.187" transform="translate(87.187 0) rotate(90)" fill="#6e83b7"/>
        </g>
        <g id="Group_23432" data-name="Group 23432" transform="translate(0 15.852)">
          <rect id="Rectangle_5335" data-name="Rectangle 5335" width="7.926" height="71.335" transform="translate(71.335 0) rotate(90)" fill="#6e83b7"/>
        </g>
      </g>
      <g id="Group_23434" data-name="Group 23434" transform="translate(0 35.667)">
        <rect id="Rectangle_5336" data-name="Rectangle 5336" width="23.778" height="23.778" fill="#d3d3d3"/>
      </g>
      <g id="Group_23437" data-name="Group 23437" transform="translate(31.704 71.335)">
        <g id="Group_23435" data-name="Group 23435" transform="translate(0 0)">
          <rect id="Rectangle_5337" data-name="Rectangle 5337" width="7.926" height="87.187" transform="translate(87.187 0) rotate(90)" fill="#6e83b7"/>
        </g>
        <g id="Group_23436" data-name="Group 23436" transform="translate(0 15.852)">
          <rect id="Rectangle_5338" data-name="Rectangle 5338" width="7.926" height="71.335" transform="translate(71.335 0) rotate(90)" fill="#6e83b7"/>
        </g>
      </g>
      <g id="Group_23438" data-name="Group 23438" transform="translate(0 71.335)">
        <rect id="Rectangle_5339" data-name="Rectangle 5339" width="23.778" height="23.778" fill="#d3d3d3"/>
      </g>
    </g>
    <g id="Group_23441" data-name="Group 23441" transform="translate(616.109 2836.693)">
      <g id="Group_23440" data-name="Group 23440" transform="translate(0 0)">
        <circle id="Ellipse_1304" data-name="Ellipse 1304" cx="37.649" cy="37.649" r="37.649" transform="translate(0 53.244) rotate(-45)" fill="#ffe352"/>
      </g>
      <path id="Path_51550" data-name="Path 51550" d="M804.262,3061.6H794.85a5.877,5.877,0,1,1,0-11.754h8.984a6.312,6.312,0,0,1,6.305,6.3h7.926a14.247,14.247,0,0,0-14.231-14.231h-.315v-6.305h-7.926v6.305h-.743a13.8,13.8,0,1,0,0,27.606h9.412a5.877,5.877,0,1,1,0,11.754h-8.984a6.312,6.312,0,0,1-6.3-6.3h-7.926a14.247,14.247,0,0,0,14.231,14.23h.315v6.3h7.926v-6.3h.743a13.8,13.8,0,1,0,0-27.606Z" transform="translate(-746.313 -3012.322)" fill="#6e83b7"/>
    </g>
  </g>
</svg>
