<svg xmlns="http://www.w3.org/2000/svg" xmlns:xlink="http://www.w3.org/1999/xlink" width="425.075" height="360.124" viewBox="0 0 425.075 360.124">
  <defs>
    <radialGradient id="radial-gradient" cx="0.5" cy="0.5" r="0.5" gradientUnits="objectBoundingBox">
      <stop offset="0" stop-color="#fff"/>
      <stop offset="1" stop-color="#fae7b7"/>
    </radialGradient>
    <filter id="Trazado_50363" x="74.769" y="40.028" width="269.495" height="269.495" filterUnits="userSpaceOnUse">
      <feOffset dy="3" input="SourceAlpha"/>
      <feGaussianBlur stdDeviation="3" result="blur"/>
      <feFlood flood-opacity="0.161"/>
      <feComposite operator="in" in2="blur"/>
      <feComposite in="SourceGraphic"/>
    </filter>
    <radialGradient id="radial-gradient-2" cx="0.5" cy="0.5" r="0.5" gradientUnits="objectBoundingBox">
      <stop offset="0" stop-color="#7eb9c7"/>
      <stop offset="1" stop-color="#6fb0bf"/>
    </radialGradient>
    <filter id="Trazado_50365" x="256.782" y="191.831" width="168.293" height="168.293" filterUnits="userSpaceOnUse">
      <feOffset dy="3" input="SourceAlpha"/>
      <feGaussianBlur stdDeviation="3" result="blur-2"/>
      <feFlood flood-opacity="0.161"/>
      <feComposite operator="in" in2="blur-2"/>
      <feComposite in="SourceGraphic"/>
    </filter>
    <filter id="Trazado_50364" x="0" y="191.831" width="168.293" height="168.293" filterUnits="userSpaceOnUse">
      <feOffset dy="3" input="SourceAlpha"/>
      <feGaussianBlur stdDeviation="3" result="blur-3"/>
      <feFlood flood-opacity="0.161"/>
      <feComposite operator="in" in2="blur-3"/>
      <feComposite in="SourceGraphic"/>
    </filter>
    <filter id="Trazado_50366" x="256.782" y="0" width="168.293" height="168.293" filterUnits="userSpaceOnUse">
      <feOffset dy="3" input="SourceAlpha"/>
      <feGaussianBlur stdDeviation="3" result="blur-4"/>
      <feFlood flood-opacity="0.161"/>
      <feComposite operator="in" in2="blur-4"/>
      <feComposite in="SourceGraphic"/>
    </filter>
    <filter id="Trazado_50361" x="0" y="0" width="168.293" height="168.293" filterUnits="userSpaceOnUse">
      <feOffset dy="3" input="SourceAlpha"/>
      <feGaussianBlur stdDeviation="3" result="blur-5"/>
      <feFlood flood-opacity="0.161"/>
      <feComposite operator="in" in2="blur-5"/>
      <feComposite in="SourceGraphic"/>
    </filter>
    <filter id="Trazado_50367" x="277.438" y="249.601" width="127.803" height="51.019" filterUnits="userSpaceOnUse">
      <feOffset dy="3" input="SourceAlpha"/>
      <feGaussianBlur stdDeviation="3" result="blur-6"/>
      <feFlood flood-opacity="0.161"/>
      <feComposite operator="in" in2="blur-6"/>
      <feComposite in="SourceGraphic"/>
    </filter>
    <filter id="Trazado_50362" x="16.663" y="57.021" width="132.968" height="54.052" filterUnits="userSpaceOnUse">
      <feOffset dy="3" input="SourceAlpha"/>
      <feGaussianBlur stdDeviation="3" result="blur-7"/>
      <feFlood flood-opacity="0.161"/>
      <feComposite operator="in" in2="blur-7"/>
      <feComposite in="SourceGraphic"/>
    </filter>
    <filter id="Trazado_50368" x="270.043" y="57.928" width="142.825" height="50.86" filterUnits="userSpaceOnUse">
      <feOffset dy="3" input="SourceAlpha"/>
      <feGaussianBlur stdDeviation="3" result="blur-8"/>
      <feFlood flood-opacity="0.161"/>
      <feComposite operator="in" in2="blur-8"/>
      <feComposite in="SourceGraphic"/>
    </filter>
    <filter id="Trazado_50369" x="25.974" y="249.607" width="112.437" height="51.012" filterUnits="userSpaceOnUse">
      <feOffset dy="3" input="SourceAlpha"/>
      <feGaussianBlur stdDeviation="3" result="blur-9"/>
      <feFlood flood-opacity="0.161"/>
      <feComposite operator="in" in2="blur-9"/>
      <feComposite in="SourceGraphic"/>
    </filter>
  </defs>
  <g id="Grupo_26225" data-name="Grupo 26225" transform="translate(-682 -4132)">
    <g transform="matrix(1, 0, 0, 1, 682, 4132)" filter="url(#Trazado_50363)">
      <g id="Trazado_50363-2" data-name="Trazado 50363" transform="translate(83.77 46.03)" fill="url(#radial-gradient)">
        <path d="M 125.747673034668 249.4953460693359 C 117.3502426147461 249.4953460693359 108.9586715698242 248.6494750976563 100.8060760498047 246.981201171875 C 92.86170959472656 245.3555450439453 85.04737091064453 242.9298400878906 77.58010864257813 239.7714691162109 C 70.24800872802734 236.6702423095703 63.17600631713867 232.8316802978516 56.56057357788086 228.3623657226563 C 50.00750732421875 223.9352111816406 43.84520721435547 218.8508453369141 38.244873046875 213.2505035400391 C 32.64453887939453 207.6501770019531 27.56017303466797 201.4878692626953 23.13297271728516 194.9347686767578 C 18.66370582580566 188.3193664550781 14.82510662078857 181.2473754882813 11.72390651702881 173.9152374267578 C 8.565505981445313 166.4480133056641 6.139806270599365 158.6336364746094 4.514139652252197 150.6892700195313 C 2.845873117446899 142.5366668701172 2.000006437301636 134.1451110839844 2.000006437301636 125.747673034668 C 2.000006437301636 117.3502426147461 2.845873117446899 108.9586715698242 4.514139652252197 100.8060760498047 C 6.139806270599365 92.86170959472656 8.565505981445313 85.04737091064453 11.72390651702881 77.58010864257813 C 14.82510662078857 70.24800872802734 18.66370582580566 63.17600631713867 23.13297271728516 56.56057357788086 C 27.56017303466797 50.00750732421875 32.64453887939453 43.84520721435547 38.244873046875 38.244873046875 C 43.84520721435547 32.64453887939453 50.00750732421875 27.56017303466797 56.56057357788086 23.13297271728516 C 63.17600631713867 18.66370582580566 70.24800872802734 14.82510662078857 77.58010864257813 11.72390651702881 C 85.04737091064453 8.565505981445313 92.86170959472656 6.139806270599365 100.8060760498047 4.514139652252197 C 108.9586715698242 2.845873117446899 117.3502426147461 2.000006437301636 125.747673034668 2.000006437301636 C 134.1451110839844 2.000006437301636 142.5366668701172 2.845873117446899 150.6892700195313 4.514139652252197 C 158.6336364746094 6.139806270599365 166.4480133056641 8.565505981445313 173.9152374267578 11.72390651702881 C 181.2473754882813 14.82510662078857 188.3193664550781 18.66370582580566 194.9347686767578 23.13297271728516 C 201.4878692626953 27.56017303466797 207.6501770019531 32.64453887939453 213.2505035400391 38.244873046875 C 218.8508453369141 43.84520721435547 223.9352111816406 50.00750732421875 228.3623657226563 56.56057357788086 C 232.8316802978516 63.17600631713867 236.6702423095703 70.24800872802734 239.7714691162109 77.58010864257813 C 242.9298400878906 85.04737091064453 245.3555450439453 92.86170959472656 246.981201171875 100.8060760498047 C 248.6494750976563 108.9586715698242 249.4953460693359 117.3502426147461 249.4953460693359 125.747673034668 C 249.4953460693359 134.1451110839844 248.6494750976563 142.5366668701172 246.981201171875 150.6892700195313 C 245.3555450439453 158.6336364746094 242.9298400878906 166.4480133056641 239.7714691162109 173.9152374267578 C 236.6702423095703 181.2473754882813 232.8316802978516 188.3193664550781 228.3623657226563 194.9347686767578 C 223.9352111816406 201.4878692626953 218.8508453369141 207.6501770019531 213.2505035400391 213.2505035400391 C 207.6501770019531 218.8508453369141 201.4878692626953 223.9352111816406 194.9347686767578 228.3623657226563 C 188.3193664550781 232.8316802978516 181.2473754882813 236.6702423095703 173.9152374267578 239.7714691162109 C 166.4480133056641 242.9298400878906 158.6336364746094 245.3555450439453 150.6892700195313 246.981201171875 C 142.5366668701172 248.6494750976563 134.1451110839844 249.4953460693359 125.747673034668 249.4953460693359 Z" stroke="none"/>
        <path d="M 125.747673034668 4 C 117.4846343994141 4 109.2279663085938 4.83221435546875 101.20703125 6.473526000976563 C 93.39199829101563 8.072708129882813 85.70484924316406 10.45892333984375 78.35920715332031 13.56588745117188 C 71.14602661132813 16.6168212890625 64.1885986328125 20.39320373535156 57.68017578125 24.79020690917969 C 51.23255920410156 29.14613342285156 45.16938781738281 34.14874267578125 39.65907287597656 39.65907287597656 C 34.14874267578125 45.16938781738281 29.14613342285156 51.23255920410156 24.79020690917969 57.68017578125 C 20.39320373535156 64.1885986328125 16.6168212890625 71.14602661132813 13.56588745117188 78.35920715332031 C 10.45892333984375 85.70484924316406 8.072708129882813 93.39199829101563 6.473526000976563 101.20703125 C 4.83221435546875 109.2279663085938 4 117.4846343994141 4 125.747673034668 C 4 134.0107116699219 4.83221435546875 142.2673950195313 6.473526000976563 150.2883148193359 C 8.072708129882813 158.1033630371094 10.45892333984375 165.7904968261719 13.56588745117188 173.1361389160156 C 16.6168212890625 180.3493194580078 20.39320373535156 187.3067474365234 24.79020690917969 193.8151702880859 C 29.14613342285156 200.2627868652344 34.14874267578125 206.3259582519531 39.65907287597656 211.8362731933594 C 45.16938781738281 217.3466033935547 51.23255920410156 222.3492126464844 57.68017578125 226.7051391601563 C 64.1885986328125 231.1021423339844 71.14602661132813 234.8785247802734 78.35920715332031 237.9294586181641 C 85.70484924316406 241.0364227294922 93.39199829101563 243.4226379394531 101.20703125 245.0218200683594 C 109.2279663085938 246.6631317138672 117.4846343994141 247.4953460693359 125.747673034668 247.4953460693359 C 134.0107116699219 247.4953460693359 142.2673950195313 246.6631317138672 150.2883148193359 245.0218200683594 C 158.1033630371094 243.4226379394531 165.7904968261719 241.0364227294922 173.1361389160156 237.9294586181641 C 180.3493194580078 234.8785247802734 187.3067474365234 231.1021423339844 193.8151702880859 226.7051391601563 C 200.2627868652344 222.3492126464844 206.3259582519531 217.3466033935547 211.8362731933594 211.8362731933594 C 217.3466033935547 206.3259582519531 222.3492126464844 200.2627868652344 226.7051391601563 193.8151702880859 C 231.1021423339844 187.3067474365234 234.8785247802734 180.3493194580078 237.9294586181641 173.1361389160156 C 241.0364227294922 165.7904968261719 243.4226379394531 158.1033630371094 245.0218200683594 150.2883148193359 C 246.6631317138672 142.2673950195313 247.4953460693359 134.0107116699219 247.4953460693359 125.747673034668 C 247.4953460693359 117.4846343994141 246.6631317138672 109.2279663085938 245.0218200683594 101.20703125 C 243.4226379394531 93.39199829101563 241.0364227294922 85.70484924316406 237.9294586181641 78.35920715332031 C 234.8785247802734 71.14602661132813 231.1021423339844 64.1885986328125 226.7051391601563 57.68017578125 C 222.3492126464844 51.23255920410156 217.3466033935547 45.16938781738281 211.8362731933594 39.65907287597656 C 206.3259582519531 34.14874267578125 200.2627868652344 29.14613342285156 193.8151702880859 24.79020690917969 C 187.3067474365234 20.39320373535156 180.3493194580078 16.6168212890625 173.1361389160156 13.56588745117188 C 165.7904968261719 10.45892333984375 158.1033630371094 8.072708129882813 150.2883148193359 6.473526000976563 C 142.2673950195313 4.83221435546875 134.0107116699219 4 125.747673034668 4 M 125.747673034668 0 C 195.1962127685547 0 251.4953460693359 56.29913330078125 251.4953460693359 125.747673034668 C 251.4953460693359 195.1962127685547 195.1962127685547 251.4953460693359 125.747673034668 251.4953460693359 C 56.29913330078125 251.4953460693359 0 195.1962127685547 0 125.747673034668 C 0 56.29913330078125 56.29913330078125 0 125.747673034668 0 Z" stroke="none" fill="#fff"/>
      </g>
    </g>
    <g transform="matrix(1, 0, 0, 1, 682, 4132)" filter="url(#Trazado_50365)">
      <g id="Trazado_50365-2" data-name="Trazado 50365" transform="translate(265.78 197.83)" fill="url(#radial-gradient-2)">
        <path d="M 75.14650726318359 148.2930145263672 C 65.27090454101563 148.2930145263672 55.69177627563477 146.3592987060547 46.67519378662109 142.5456085205078 C 42.34140396118164 140.7125701904297 38.16130065917969 138.4436798095703 34.2509880065918 135.8019256591797 C 30.37734031677246 133.1849212646484 26.73465347290039 130.1794281005859 23.42411231994629 126.8689041137695 C 20.11359024047852 123.5583648681641 17.10809135437012 119.9156723022461 14.49109077453613 116.0420303344727 C 11.84934043884277 112.1317138671875 9.5804443359375 107.9516143798828 7.747403144836426 103.6178207397461 C 3.933715581893921 94.60123443603516 2.000007152557373 85.02210998535156 2.000007152557373 75.14650726318359 C 2.000007152557373 65.27090454101563 3.933715581893921 55.69177627563477 7.747403144836426 46.67519378662109 C 9.5804443359375 42.34140396118164 11.84934043884277 38.16130065917969 14.49109077453613 34.2509880065918 C 17.10809135437012 30.37734031677246 20.11359024047852 26.73465347290039 23.42411231994629 23.42411231994629 C 26.73465347290039 20.11359024047852 30.37734031677246 17.10809135437012 34.2509880065918 14.49109077453613 C 38.16130065917969 11.84934043884277 42.34140396118164 9.5804443359375 46.67519378662109 7.747403144836426 C 55.69177627563477 3.933715581893921 65.27090454101563 2.000007152557373 75.14650726318359 2.000007152557373 C 85.02210998535156 2.000007152557373 94.60123443603516 3.933715581893921 103.6178207397461 7.747403144836426 C 107.9516143798828 9.5804443359375 112.1317138671875 11.84934043884277 116.0420303344727 14.49109077453613 C 119.9156723022461 17.10809135437012 123.5583648681641 20.11359024047852 126.8689041137695 23.42411231994629 C 130.1794281005859 26.73465347290039 133.1849212646484 30.37734031677246 135.8019256591797 34.2509880065918 C 138.4436798095703 38.16130065917969 140.7125701904297 42.34140396118164 142.5456085205078 46.67519378662109 C 146.3592987060547 55.69177627563477 148.2930145263672 65.27090454101563 148.2930145263672 75.14650726318359 C 148.2930145263672 85.02210998535156 146.3592987060547 94.60123443603516 142.5456085205078 103.6178207397461 C 140.7125701904297 107.9516143798828 138.4436798095703 112.1317138671875 135.8019256591797 116.0420303344727 C 133.1849212646484 119.9156723022461 130.1794281005859 123.5583648681641 126.8689041137695 126.8689041137695 C 123.5583648681641 130.1794281005859 119.9156723022461 133.1849212646484 116.0420303344727 135.8019256591797 C 112.1317138671875 138.4436798095703 107.9516143798828 140.7125701904297 103.6178207397461 142.5456085205078 C 94.60123443603516 146.3592987060547 85.02210998535156 148.2930145263672 75.14650726318359 148.2930145263672 Z" stroke="none"/>
        <path d="M 75.14650726318359 4 C 65.54003143310547 4 56.22303009033203 5.88055419921875 47.45429992675781 9.58941650390625 C 43.23944091796875 11.37214660644531 39.17389678955078 13.57888793945313 35.37059783935547 16.14834594726563 C 31.6024169921875 18.69407653808594 28.05884552001953 21.6177978515625 24.83832550048828 24.83832550048828 C 21.6177978515625 28.05884552001953 18.69407653808594 31.6024169921875 16.14834594726563 35.37059783935547 C 13.57888793945313 39.17389678955078 11.37214660644531 43.23944091796875 9.58941650390625 47.45429992675781 C 5.88055419921875 56.22303009033203 4 65.54003143310547 4 75.14650726318359 C 4 84.75298309326172 5.88055419921875 94.06998443603516 9.58941650390625 102.8387145996094 C 11.37214660644531 107.0535736083984 13.57888793945313 111.1191253662109 16.14834594726563 114.9224166870117 C 18.69407653808594 118.6905975341797 21.6177978515625 122.2341690063477 24.83832550048828 125.4546890258789 C 28.05884552001953 128.6752166748047 31.6024169921875 131.5989379882813 35.37059783935547 134.1446685791016 C 39.17389678955078 136.7141265869141 43.23944091796875 138.9208679199219 47.45429992675781 140.7035980224609 C 56.22303009033203 144.4124603271484 65.54003143310547 146.2930145263672 75.14650726318359 146.2930145263672 C 84.75298309326172 146.2930145263672 94.06998443603516 144.4124603271484 102.8387145996094 140.7035980224609 C 107.0535736083984 138.9208679199219 111.1191253662109 136.7141265869141 114.9224166870117 134.1446685791016 C 118.6905975341797 131.5989379882813 122.2341690063477 128.6752166748047 125.4546890258789 125.4546890258789 C 128.6752166748047 122.2341690063477 131.5989379882813 118.6905975341797 134.1446685791016 114.9224166870117 C 136.7141265869141 111.1191253662109 138.9208679199219 107.0535736083984 140.7035980224609 102.8387145996094 C 144.4124603271484 94.06998443603516 146.2930145263672 84.75298309326172 146.2930145263672 75.14650726318359 C 146.2930145263672 65.54003143310547 144.4124603271484 56.22303009033203 140.7035980224609 47.45429992675781 C 138.9208679199219 43.23944091796875 136.7141265869141 39.17389678955078 134.1446685791016 35.37059783935547 C 131.5989379882813 31.6024169921875 128.6752166748047 28.05884552001953 125.4546890258789 24.83832550048828 C 122.2341690063477 21.6177978515625 118.6905975341797 18.69407653808594 114.9224166870117 16.14834594726563 C 111.1191253662109 13.57888793945313 107.0535736083984 11.37214660644531 102.8387145996094 9.58941650390625 C 94.06998443603516 5.88055419921875 84.75298309326172 4 75.14650726318359 4 M 75.14650726318359 0 C 116.6487808227539 0 150.2930145263672 33.64423370361328 150.2930145263672 75.14650726318359 C 150.2930145263672 116.6487808227539 116.6487808227539 150.2930145263672 75.14650726318359 150.2930145263672 C 33.64423370361328 150.2930145263672 0 116.6487808227539 0 75.14650726318359 C 0 33.64423370361328 33.64423370361328 0 75.14650726318359 0 Z" stroke="none" fill="#fff"/>
      </g>
    </g>
    <g transform="matrix(1, 0, 0, 1, 682, 4132)" filter="url(#Trazado_50364)">
      <g id="Trazado_50364-2" data-name="Trazado 50364" transform="translate(9 197.83)" fill="url(#radial-gradient-2)">
        <path d="M 75.14650726318359 148.2930145263672 C 65.27090454101563 148.2930145263672 55.69177627563477 146.3592987060547 46.67519378662109 142.5456085205078 C 42.34140396118164 140.7125701904297 38.16130065917969 138.4436798095703 34.2509880065918 135.8019256591797 C 30.37734031677246 133.1849212646484 26.73465347290039 130.1794281005859 23.42411231994629 126.8689041137695 C 20.11359024047852 123.5583648681641 17.10809135437012 119.9156723022461 14.49109077453613 116.0420303344727 C 11.84934043884277 112.1317138671875 9.5804443359375 107.9516143798828 7.747403144836426 103.6178207397461 C 3.933715581893921 94.60123443603516 2.000007152557373 85.02210998535156 2.000007152557373 75.14650726318359 C 2.000007152557373 65.27090454101563 3.933715581893921 55.69177627563477 7.747403144836426 46.67519378662109 C 9.5804443359375 42.34140396118164 11.84934043884277 38.16130065917969 14.49109077453613 34.2509880065918 C 17.10809135437012 30.37734031677246 20.11359024047852 26.73465347290039 23.42411231994629 23.42411231994629 C 26.73465347290039 20.11359024047852 30.37734031677246 17.10809135437012 34.2509880065918 14.49109077453613 C 38.16130065917969 11.84934043884277 42.34140396118164 9.5804443359375 46.67519378662109 7.747403144836426 C 55.69177627563477 3.933715581893921 65.27090454101563 2.000007152557373 75.14650726318359 2.000007152557373 C 85.02210998535156 2.000007152557373 94.60123443603516 3.933715581893921 103.6178207397461 7.747403144836426 C 107.9516143798828 9.5804443359375 112.1317138671875 11.84934043884277 116.0420303344727 14.49109077453613 C 119.9156723022461 17.10809135437012 123.5583648681641 20.11359024047852 126.8689041137695 23.42411231994629 C 130.1794281005859 26.73465347290039 133.1849212646484 30.37734031677246 135.8019256591797 34.2509880065918 C 138.4436798095703 38.16130065917969 140.7125701904297 42.34140396118164 142.5456085205078 46.67519378662109 C 146.3592987060547 55.69177627563477 148.2930145263672 65.27090454101563 148.2930145263672 75.14650726318359 C 148.2930145263672 85.02210998535156 146.3592987060547 94.60123443603516 142.5456085205078 103.6178207397461 C 140.7125701904297 107.9516143798828 138.4436798095703 112.1317138671875 135.8019256591797 116.0420303344727 C 133.1849212646484 119.9156723022461 130.1794281005859 123.5583648681641 126.8689041137695 126.8689041137695 C 123.5583648681641 130.1794281005859 119.9156723022461 133.1849212646484 116.0420303344727 135.8019256591797 C 112.1317138671875 138.4436798095703 107.9516143798828 140.7125701904297 103.6178207397461 142.5456085205078 C 94.60123443603516 146.3592987060547 85.02210998535156 148.2930145263672 75.14650726318359 148.2930145263672 Z" stroke="none"/>
        <path d="M 75.14650726318359 4 C 65.54003143310547 4 56.22303009033203 5.88055419921875 47.45429992675781 9.58941650390625 C 43.23944091796875 11.37214660644531 39.17389678955078 13.57888793945313 35.37059783935547 16.14834594726563 C 31.6024169921875 18.69407653808594 28.05884552001953 21.6177978515625 24.83832550048828 24.83832550048828 C 21.6177978515625 28.05884552001953 18.69407653808594 31.6024169921875 16.14834594726563 35.37059783935547 C 13.57888793945313 39.17389678955078 11.37214660644531 43.23944091796875 9.58941650390625 47.45429992675781 C 5.88055419921875 56.22303009033203 4 65.54003143310547 4 75.14650726318359 C 4 84.75298309326172 5.88055419921875 94.06998443603516 9.58941650390625 102.8387145996094 C 11.37214660644531 107.0535736083984 13.57888793945313 111.1191253662109 16.14834594726563 114.9224166870117 C 18.69407653808594 118.6905975341797 21.6177978515625 122.2341690063477 24.83832550048828 125.4546890258789 C 28.05884552001953 128.6752166748047 31.6024169921875 131.5989379882813 35.37059783935547 134.1446685791016 C 39.17389678955078 136.7141265869141 43.23944091796875 138.9208679199219 47.45429992675781 140.7035980224609 C 56.22303009033203 144.4124603271484 65.54003143310547 146.2930145263672 75.14650726318359 146.2930145263672 C 84.75298309326172 146.2930145263672 94.06998443603516 144.4124603271484 102.8387145996094 140.7035980224609 C 107.0535736083984 138.9208679199219 111.1191253662109 136.7141265869141 114.9224166870117 134.1446685791016 C 118.6905975341797 131.5989379882813 122.2341690063477 128.6752166748047 125.4546890258789 125.4546890258789 C 128.6752166748047 122.2341690063477 131.5989379882813 118.6905975341797 134.1446685791016 114.9224166870117 C 136.7141265869141 111.1191253662109 138.9208679199219 107.0535736083984 140.7035980224609 102.8387145996094 C 144.4124603271484 94.06998443603516 146.2930145263672 84.75298309326172 146.2930145263672 75.14650726318359 C 146.2930145263672 65.54003143310547 144.4124603271484 56.22303009033203 140.7035980224609 47.45429992675781 C 138.9208679199219 43.23944091796875 136.7141265869141 39.17389678955078 134.1446685791016 35.37059783935547 C 131.5989379882813 31.6024169921875 128.6752166748047 28.05884552001953 125.4546890258789 24.83832550048828 C 122.2341690063477 21.6177978515625 118.6905975341797 18.69407653808594 114.9224166870117 16.14834594726563 C 111.1191253662109 13.57888793945313 107.0535736083984 11.37214660644531 102.8387145996094 9.58941650390625 C 94.06998443603516 5.88055419921875 84.75298309326172 4 75.14650726318359 4 M 75.14650726318359 0 C 116.6487808227539 0 150.2930145263672 33.64423370361328 150.2930145263672 75.14650726318359 C 150.2930145263672 116.6487808227539 116.6487808227539 150.2930145263672 75.14650726318359 150.2930145263672 C 33.64423370361328 150.2930145263672 0 116.6487808227539 0 75.14650726318359 C 0 33.64423370361328 33.64423370361328 0 75.14650726318359 0 Z" stroke="none" fill="#fff"/>
      </g>
    </g>
    <g transform="matrix(1, 0, 0, 1, 682, 4132)" filter="url(#Trazado_50366)">
      <g id="Trazado_50366-2" data-name="Trazado 50366" transform="translate(265.78 6)" fill="url(#radial-gradient-2)">
        <path d="M 75.14650726318359 148.2930145263672 C 65.27090454101563 148.2930145263672 55.69177627563477 146.3592987060547 46.67519378662109 142.5456085205078 C 42.34140396118164 140.7125701904297 38.16130065917969 138.4436798095703 34.2509880065918 135.8019256591797 C 30.37734031677246 133.1849212646484 26.73465347290039 130.1794281005859 23.42411231994629 126.8689041137695 C 20.11359024047852 123.5583648681641 17.10809135437012 119.9156723022461 14.49109077453613 116.0420303344727 C 11.84934043884277 112.1317138671875 9.5804443359375 107.9516143798828 7.747403144836426 103.6178207397461 C 3.933715581893921 94.60123443603516 2.000007152557373 85.02210998535156 2.000007152557373 75.14650726318359 C 2.000007152557373 65.27090454101563 3.933715581893921 55.69177627563477 7.747403144836426 46.67519378662109 C 9.5804443359375 42.34140396118164 11.84934043884277 38.16130065917969 14.49109077453613 34.2509880065918 C 17.10809135437012 30.37734031677246 20.11359024047852 26.73465347290039 23.42411231994629 23.42411231994629 C 26.73465347290039 20.11359024047852 30.37734031677246 17.10809135437012 34.2509880065918 14.49109077453613 C 38.16130065917969 11.84934043884277 42.34140396118164 9.5804443359375 46.67519378662109 7.747403144836426 C 55.69177627563477 3.933715581893921 65.27090454101563 2.000007152557373 75.14650726318359 2.000007152557373 C 85.02210998535156 2.000007152557373 94.60123443603516 3.933715581893921 103.6178207397461 7.747403144836426 C 107.9516143798828 9.5804443359375 112.1317138671875 11.84934043884277 116.0420303344727 14.49109077453613 C 119.9156723022461 17.10809135437012 123.5583648681641 20.11359024047852 126.8689041137695 23.42411231994629 C 130.1794281005859 26.73465347290039 133.1849212646484 30.37734031677246 135.8019256591797 34.2509880065918 C 138.4436798095703 38.16130065917969 140.7125701904297 42.34140396118164 142.5456085205078 46.67519378662109 C 146.3592987060547 55.69177627563477 148.2930145263672 65.27090454101563 148.2930145263672 75.14650726318359 C 148.2930145263672 85.02210998535156 146.3592987060547 94.60123443603516 142.5456085205078 103.6178207397461 C 140.7125701904297 107.9516143798828 138.4436798095703 112.1317138671875 135.8019256591797 116.0420303344727 C 133.1849212646484 119.9156723022461 130.1794281005859 123.5583648681641 126.8689041137695 126.8689041137695 C 123.5583648681641 130.1794281005859 119.9156723022461 133.1849212646484 116.0420303344727 135.8019256591797 C 112.1317138671875 138.4436798095703 107.9516143798828 140.7125701904297 103.6178207397461 142.5456085205078 C 94.60123443603516 146.3592987060547 85.02210998535156 148.2930145263672 75.14650726318359 148.2930145263672 Z" stroke="none"/>
        <path d="M 75.14650726318359 4 C 65.54003143310547 4 56.22303009033203 5.88055419921875 47.45429992675781 9.58941650390625 C 43.23944091796875 11.37214660644531 39.17389678955078 13.57888793945313 35.37059783935547 16.14834594726563 C 31.6024169921875 18.69407653808594 28.05884552001953 21.6177978515625 24.83832550048828 24.83832550048828 C 21.6177978515625 28.05884552001953 18.69407653808594 31.6024169921875 16.14834594726563 35.37059783935547 C 13.57888793945313 39.17389678955078 11.37214660644531 43.23944091796875 9.58941650390625 47.45429992675781 C 5.88055419921875 56.22303009033203 4 65.54003143310547 4 75.14650726318359 C 4 84.75298309326172 5.88055419921875 94.06998443603516 9.58941650390625 102.8387145996094 C 11.37214660644531 107.0535736083984 13.57888793945313 111.1191253662109 16.14834594726563 114.9224166870117 C 18.69407653808594 118.6905975341797 21.6177978515625 122.2341690063477 24.83832550048828 125.4546890258789 C 28.05884552001953 128.6752166748047 31.6024169921875 131.5989379882813 35.37059783935547 134.1446685791016 C 39.17389678955078 136.7141265869141 43.23944091796875 138.9208679199219 47.45429992675781 140.7035980224609 C 56.22303009033203 144.4124603271484 65.54003143310547 146.2930145263672 75.14650726318359 146.2930145263672 C 84.75298309326172 146.2930145263672 94.06998443603516 144.4124603271484 102.8387145996094 140.7035980224609 C 107.0535736083984 138.9208679199219 111.1191253662109 136.7141265869141 114.9224166870117 134.1446685791016 C 118.6905975341797 131.5989379882813 122.2341690063477 128.6752166748047 125.4546890258789 125.4546890258789 C 128.6752166748047 122.2341690063477 131.5989379882813 118.6905975341797 134.1446685791016 114.9224166870117 C 136.7141265869141 111.1191253662109 138.9208679199219 107.0535736083984 140.7035980224609 102.8387145996094 C 144.4124603271484 94.06998443603516 146.2930145263672 84.75298309326172 146.2930145263672 75.14650726318359 C 146.2930145263672 65.54003143310547 144.4124603271484 56.22303009033203 140.7035980224609 47.45429992675781 C 138.9208679199219 43.23944091796875 136.7141265869141 39.17389678955078 134.1446685791016 35.37059783935547 C 131.5989379882813 31.6024169921875 128.6752166748047 28.05884552001953 125.4546890258789 24.83832550048828 C 122.2341690063477 21.6177978515625 118.6905975341797 18.69407653808594 114.9224166870117 16.14834594726563 C 111.1191253662109 13.57888793945313 107.0535736083984 11.37214660644531 102.8387145996094 9.58941650390625 C 94.06998443603516 5.88055419921875 84.75298309326172 4 75.14650726318359 4 M 75.14650726318359 0 C 116.6487808227539 0 150.2930145263672 33.64423370361328 150.2930145263672 75.14650726318359 C 150.2930145263672 116.6487808227539 116.6487808227539 150.2930145263672 75.14650726318359 150.2930145263672 C 33.64423370361328 150.2930145263672 0 116.6487808227539 0 75.14650726318359 C 0 33.64423370361328 33.64423370361328 0 75.14650726318359 0 Z" stroke="none" fill="#fff"/>
      </g>
    </g>
    <g transform="matrix(1, 0, 0, 1, 682, 4132)" filter="url(#Trazado_50361)">
      <g id="Trazado_50361-2" data-name="Trazado 50361" transform="translate(9 6)" fill="url(#radial-gradient-2)">
        <path d="M 75.14650726318359 148.2930145263672 C 65.27090454101563 148.2930145263672 55.69177627563477 146.3592987060547 46.67519378662109 142.5456085205078 C 42.34140396118164 140.7125701904297 38.16130065917969 138.4436798095703 34.2509880065918 135.8019256591797 C 30.37734031677246 133.1849212646484 26.73465347290039 130.1794281005859 23.42411231994629 126.8689041137695 C 20.11359024047852 123.5583648681641 17.10809135437012 119.9156723022461 14.49109077453613 116.0420303344727 C 11.84934043884277 112.1317138671875 9.5804443359375 107.9516143798828 7.747403144836426 103.6178207397461 C 3.933715581893921 94.60123443603516 2.000007152557373 85.02210998535156 2.000007152557373 75.14650726318359 C 2.000007152557373 65.27090454101563 3.933715581893921 55.69177627563477 7.747403144836426 46.67519378662109 C 9.5804443359375 42.34140396118164 11.84934043884277 38.16130065917969 14.49109077453613 34.2509880065918 C 17.10809135437012 30.37734031677246 20.11359024047852 26.73465347290039 23.42411231994629 23.42411231994629 C 26.73465347290039 20.11359024047852 30.37734031677246 17.10809135437012 34.2509880065918 14.49109077453613 C 38.16130065917969 11.84934043884277 42.34140396118164 9.5804443359375 46.67519378662109 7.747403144836426 C 55.69177627563477 3.933715581893921 65.27090454101563 2.000007152557373 75.14650726318359 2.000007152557373 C 85.02210998535156 2.000007152557373 94.60123443603516 3.933715581893921 103.6178207397461 7.747403144836426 C 107.9516143798828 9.5804443359375 112.1317138671875 11.84934043884277 116.0420303344727 14.49109077453613 C 119.9156723022461 17.10809135437012 123.5583648681641 20.11359024047852 126.8689041137695 23.42411231994629 C 130.1794281005859 26.73465347290039 133.1849212646484 30.37734031677246 135.8019256591797 34.2509880065918 C 138.4436798095703 38.16130065917969 140.7125701904297 42.34140396118164 142.5456085205078 46.67519378662109 C 146.3592987060547 55.69177627563477 148.2930145263672 65.27090454101563 148.2930145263672 75.14650726318359 C 148.2930145263672 85.02210998535156 146.3592987060547 94.60123443603516 142.5456085205078 103.6178207397461 C 140.7125701904297 107.9516143798828 138.4436798095703 112.1317138671875 135.8019256591797 116.0420303344727 C 133.1849212646484 119.9156723022461 130.1794281005859 123.5583648681641 126.8689041137695 126.8689041137695 C 123.5583648681641 130.1794281005859 119.9156723022461 133.1849212646484 116.0420303344727 135.8019256591797 C 112.1317138671875 138.4436798095703 107.9516143798828 140.7125701904297 103.6178207397461 142.5456085205078 C 94.60123443603516 146.3592987060547 85.02210998535156 148.2930145263672 75.14650726318359 148.2930145263672 Z" stroke="none"/>
        <path d="M 75.14650726318359 4 C 65.54003143310547 4 56.22303009033203 5.88055419921875 47.45429992675781 9.58941650390625 C 43.23944091796875 11.37214660644531 39.17389678955078 13.57888793945313 35.37059783935547 16.14834594726563 C 31.6024169921875 18.69407653808594 28.05884552001953 21.6177978515625 24.83832550048828 24.83832550048828 C 21.6177978515625 28.05884552001953 18.69407653808594 31.6024169921875 16.14834594726563 35.37059783935547 C 13.57888793945313 39.17389678955078 11.37214660644531 43.23944091796875 9.58941650390625 47.45429992675781 C 5.88055419921875 56.22303009033203 4 65.54003143310547 4 75.14650726318359 C 4 84.75298309326172 5.88055419921875 94.06998443603516 9.58941650390625 102.8387145996094 C 11.37214660644531 107.0535736083984 13.57888793945313 111.1191253662109 16.14834594726563 114.9224166870117 C 18.69407653808594 118.6905975341797 21.6177978515625 122.2341690063477 24.83832550048828 125.4546890258789 C 28.05884552001953 128.6752166748047 31.6024169921875 131.5989379882813 35.37059783935547 134.1446685791016 C 39.17389678955078 136.7141265869141 43.23944091796875 138.9208679199219 47.45429992675781 140.7035980224609 C 56.22303009033203 144.4124603271484 65.54003143310547 146.2930145263672 75.14650726318359 146.2930145263672 C 84.75298309326172 146.2930145263672 94.06998443603516 144.4124603271484 102.8387145996094 140.7035980224609 C 107.0535736083984 138.9208679199219 111.1191253662109 136.7141265869141 114.9224166870117 134.1446685791016 C 118.6905975341797 131.5989379882813 122.2341690063477 128.6752166748047 125.4546890258789 125.4546890258789 C 128.6752166748047 122.2341690063477 131.5989379882813 118.6905975341797 134.1446685791016 114.9224166870117 C 136.7141265869141 111.1191253662109 138.9208679199219 107.0535736083984 140.7035980224609 102.8387145996094 C 144.4124603271484 94.06998443603516 146.2930145263672 84.75298309326172 146.2930145263672 75.14650726318359 C 146.2930145263672 65.54003143310547 144.4124603271484 56.22303009033203 140.7035980224609 47.45429992675781 C 138.9208679199219 43.23944091796875 136.7141265869141 39.17389678955078 134.1446685791016 35.37059783935547 C 131.5989379882813 31.6024169921875 128.6752166748047 28.05884552001953 125.4546890258789 24.83832550048828 C 122.2341690063477 21.6177978515625 118.6905975341797 18.69407653808594 114.9224166870117 16.14834594726563 C 111.1191253662109 13.57888793945313 107.0535736083984 11.37214660644531 102.8387145996094 9.58941650390625 C 94.06998443603516 5.88055419921875 84.75298309326172 4 75.14650726318359 4 M 75.14650726318359 0 C 116.6487808227539 0 150.2930145263672 33.64423370361328 150.2930145263672 75.14650726318359 C 150.2930145263672 116.6487808227539 116.6487808227539 150.2930145263672 75.14650726318359 150.2930145263672 C 33.64423370361328 150.2930145263672 0 116.6487808227539 0 75.14650726318359 C 0 33.64423370361328 33.64423370361328 0 75.14650726318359 0 Z" stroke="none" fill="#fff"/>
      </g>
    </g>
    <g transform="matrix(1, 0, 0, 1, 682, 4132)" filter="url(#Trazado_50367)">
      <path id="Trazado_50367-2" data-name="Trazado 50367" d="M-37.217-3.306l-.7-1.978h-4.029l-.7,1.978h-2.038l3.531-9.592h2.436l3.531,9.592ZM-41.36-6.951H-38.5l-1.427-4.069Zm11.4-3.312a2.66,2.66,0,0,1,1.885.614A2.277,2.277,0,0,1-27.42-7.9v4.593h-1.918V-7.488a1.189,1.189,0,0,0-.342-.943,1.288,1.288,0,0,0-.88-.3,1.8,1.8,0,0,0-.571.086,1.467,1.467,0,0,0-.478.269,1.188,1.188,0,0,0-.342.514,2.379,2.379,0,0,0-.129.79v3.764h-1.912V-10.13h1.912v.757A2.629,2.629,0,0,1-29.962-10.263Zm9.247-2.582-1.507,1.779H-23.4l1.739-2.443Zm.743,7.687a6.384,6.384,0,0,0,.166,1.666v.186h-1.786l-.153-.743a2.219,2.219,0,0,1-.956.657,3.523,3.523,0,0,1-1.235.219,3.247,3.247,0,0,1-.637-.06,2.166,2.166,0,0,1-.574-.2,1.742,1.742,0,0,1-.475-.355,1.557,1.557,0,0,1-.319-.541,2.155,2.155,0,0,1-.119-.74,2.052,2.052,0,0,1,.126-.74,1.735,1.735,0,0,1,.332-.554,2.013,2.013,0,0,1,.538-.4,4.114,4.114,0,0,1,.677-.292,8.09,8.09,0,0,1,.81-.212l1.122-.252a1.237,1.237,0,0,0,.508-.216.43.43,0,0,0,.149-.342.7.7,0,0,0-.335-.657,1.565,1.565,0,0,0-.813-.2A1.17,1.17,0,0,0-24.28-7.9l-1.693-.305a2.291,2.291,0,0,1,.989-1.557,3.931,3.931,0,0,1,2.144-.5q2.868,0,2.868,2.463Zm-3.365.69a1.537,1.537,0,0,0,1.182-.495A2.084,2.084,0,0,0-21.7-6.426l-1.62.458a1.914,1.914,0,0,0-.68.279.573.573,0,0,0-.236.491.636.636,0,0,0,.252.541A1.044,1.044,0,0,0-23.338-4.468Zm5.224,1.162V-13.5h1.932v10.2Zm4.885-7.846a1.073,1.073,0,0,1-.783-.322,1.057,1.057,0,0,1-.325-.78,1.044,1.044,0,0,1,.329-.773,1.077,1.077,0,0,1,.78-.322,1.058,1.058,0,0,1,.77.322,1.049,1.049,0,0,1,.325.773,1.057,1.057,0,0,1-.325.78A1.058,1.058,0,0,1-13.228-11.152ZM-14.2-3.306V-10.13h1.925v6.824Zm6.306.133a3.813,3.813,0,0,1-1.991-.478,2.02,2.02,0,0,1-.976-1.421l1.6-.451A1.285,1.285,0,0,0-7.9-4.508a1.412,1.412,0,0,0,.7-.156.543.543,0,0,0,.272-.528.558.558,0,0,0-.113-.352A.894.894,0,0,0-7.39-5.8a4.342,4.342,0,0,0-.465-.179q-.229-.073-.607-.176t-.631-.2a4.224,4.224,0,0,1-.6-.256,2.562,2.562,0,0,1-.5-.352,1.418,1.418,0,0,1-.372-.534,1.928,1.928,0,0,1-.129-.73,1.743,1.743,0,0,1,.74-1.527,3.307,3.307,0,0,1,1.935-.518,3.39,3.39,0,0,1,1.786.438,1.983,1.983,0,0,1,.916,1.367l-1.48.332a1.159,1.159,0,0,0-1.215-.863,1.33,1.33,0,0,0-.67.153.491.491,0,0,0-.266.451.517.517,0,0,0,.04.206.407.407,0,0,0,.139.166,2.033,2.033,0,0,0,.192.126,1.452,1.452,0,0,0,.272.11q.179.056.3.086l.348.09.355.093q.365.1.641.2a3.752,3.752,0,0,1,.587.279,2.108,2.108,0,0,1,.514.4,1.791,1.791,0,0,1,.335.564,2.084,2.084,0,0,1,.133.76,2.053,2.053,0,0,1-.229.989,1.719,1.719,0,0,1-.627.667,3.053,3.053,0,0,1-.886.358A4.6,4.6,0,0,1-7.9-3.174Zm5.158-7.979a1.073,1.073,0,0,1-.783-.322,1.057,1.057,0,0,1-.325-.78,1.044,1.044,0,0,1,.329-.773,1.077,1.077,0,0,1,.78-.322,1.058,1.058,0,0,1,.77.322,1.049,1.049,0,0,1,.325.773,1.057,1.057,0,0,1-.325.78A1.058,1.058,0,0,1-2.74-11.152Zm-.976,7.846V-10.13h1.925v6.824Zm6.306.133A3.813,3.813,0,0,1,.6-3.652,2.02,2.02,0,0,1-.377-5.072l1.6-.451A1.285,1.285,0,0,0,2.59-4.508a1.412,1.412,0,0,0,.7-.156.543.543,0,0,0,.272-.528.558.558,0,0,0-.113-.352A.894.894,0,0,0,3.1-5.8a4.342,4.342,0,0,0-.465-.179q-.229-.073-.607-.176t-.631-.2a4.224,4.224,0,0,1-.6-.256,2.562,2.562,0,0,1-.5-.352,1.418,1.418,0,0,1-.372-.534A1.928,1.928,0,0,1-.2-8.218a1.743,1.743,0,0,1,.74-1.527,3.307,3.307,0,0,1,1.935-.518,3.39,3.39,0,0,1,1.786.438,1.983,1.983,0,0,1,.916,1.367l-1.48.332a1.159,1.159,0,0,0-1.215-.863,1.33,1.33,0,0,0-.67.153.491.491,0,0,0-.266.451.517.517,0,0,0,.04.206.407.407,0,0,0,.139.166,2.033,2.033,0,0,0,.192.126,1.452,1.452,0,0,0,.272.11q.179.056.3.086l.348.09.355.093q.365.1.641.2a3.752,3.752,0,0,1,.587.279,2.108,2.108,0,0,1,.514.4,1.791,1.791,0,0,1,.335.564A2.084,2.084,0,0,1,5.4-5.3a2.053,2.053,0,0,1-.229.989,1.719,1.719,0,0,1-.627.667,3.053,3.053,0,0,1-.886.358A4.6,4.6,0,0,1,2.59-3.174ZM-67.274,9.155h1.912v10.2h-1.812l-.046-.889a1.949,1.949,0,0,1-.866.773,2.916,2.916,0,0,1-1.278.275,3.319,3.319,0,0,1-1.274-.246,3.164,3.164,0,0,1-1.045-.694,3.162,3.162,0,0,1-.707-1.125,4.15,4.15,0,0,1-.259-1.494,3.88,3.88,0,0,1,.451-1.9,3.093,3.093,0,0,1,1.192-1.238,3.281,3.281,0,0,1,1.643-.418,2.989,2.989,0,0,1,1.238.249,1.933,1.933,0,0,1,.853.707Zm-1.653,8.769a1.7,1.7,0,0,0,1.291-.544,1.993,1.993,0,0,0,.514-1.427,2,2,0,0,0-.518-1.43,1.7,1.7,0,0,0-1.288-.548,1.72,1.72,0,0,0-1.3.538,2,2,0,0,0-.514,1.44,1.987,1.987,0,0,0,.514,1.434A1.72,1.72,0,0,0-68.927,17.924Zm11.961-2.084-.02.458h-5.058a1.767,1.767,0,0,0,.544,1.248,1.741,1.741,0,0,0,1.2.431,1.678,1.678,0,0,0,.9-.236,1.449,1.449,0,0,0,.574-.687l1.752.259a2.979,2.979,0,0,1-1.195,1.6,3.552,3.552,0,0,1-2.018.571,3.694,3.694,0,0,1-2.658-.939,3.427,3.427,0,0,1-.986-2.605,3.447,3.447,0,0,1,.989-2.605,3.584,3.584,0,0,1,2.6-.953,3.425,3.425,0,0,1,2.449.87A3.411,3.411,0,0,1-56.965,15.839Zm-3.365-2.1A1.511,1.511,0,0,0-61.99,15.05h3.133a1.437,1.437,0,0,0-.471-.976A1.494,1.494,0,0,0-60.331,13.735Zm8.35,5.616V9.155h1.932v10.2Zm7.089.133a4.291,4.291,0,0,1-1.932-.418,3.125,3.125,0,0,1-1.324-1.228,3.66,3.66,0,0,1-.481-1.905,3.338,3.338,0,0,1,1.036-2.589,3.842,3.842,0,0,1,2.7-.949,3.851,3.851,0,0,1,2.708.949,3.338,3.338,0,0,1,1.036,2.589,3.357,3.357,0,0,1-1.036,2.6A3.843,3.843,0,0,1-44.891,19.484Zm-.02-1.52a1.752,1.752,0,0,0,1.351-.558,2.087,2.087,0,0,0,.514-1.474,2.087,2.087,0,0,0-.514-1.474,1.752,1.752,0,0,0-1.351-.558,1.687,1.687,0,0,0-1.311.561,2.107,2.107,0,0,0-.508,1.47,2.107,2.107,0,0,0,.508,1.47A1.687,1.687,0,0,0-44.911,17.964Zm7.587,1.52a3.813,3.813,0,0,1-1.991-.478,2.02,2.02,0,0,1-.976-1.421l1.6-.451a1.285,1.285,0,0,0,1.367,1.016,1.412,1.412,0,0,0,.7-.156.543.543,0,0,0,.272-.528.558.558,0,0,0-.113-.352.894.894,0,0,0-.348-.252,4.341,4.341,0,0,0-.465-.179q-.229-.073-.607-.176t-.631-.2a4.225,4.225,0,0,1-.6-.256,2.562,2.562,0,0,1-.5-.352,1.418,1.418,0,0,1-.372-.534,1.928,1.928,0,0,1-.129-.73,1.743,1.743,0,0,1,.74-1.527,3.307,3.307,0,0,1,1.935-.518,3.391,3.391,0,0,1,1.786.438,1.983,1.983,0,0,1,.916,1.367l-1.48.332a1.159,1.159,0,0,0-1.215-.863,1.33,1.33,0,0,0-.67.153.491.491,0,0,0-.266.451.517.517,0,0,0,.04.206.407.407,0,0,0,.139.166,2.033,2.033,0,0,0,.192.126,1.452,1.452,0,0,0,.272.11q.179.056.3.086l.348.09.355.093q.365.1.641.2a3.751,3.751,0,0,1,.587.279,2.108,2.108,0,0,1,.514.4,1.791,1.791,0,0,1,.335.564,2.084,2.084,0,0,1,.133.76,2.053,2.053,0,0,1-.229.989,1.719,1.719,0,0,1-.627.667,3.053,3.053,0,0,1-.886.358A4.6,4.6,0,0,1-37.324,19.484Zm9.545-5.875a2.215,2.215,0,0,1,.9-.82,2.734,2.734,0,0,1,1.334-.342v1.706a2.585,2.585,0,0,0-1.633.412,1.8,1.8,0,0,0-.5,1.46v3.326H-29.61V12.527h1.832Zm9.731,2.23-.02.458h-5.058a1.767,1.767,0,0,0,.544,1.248,1.741,1.741,0,0,0,1.2.431,1.678,1.678,0,0,0,.9-.236,1.449,1.449,0,0,0,.574-.687l1.752.259a2.979,2.979,0,0,1-1.195,1.6,3.552,3.552,0,0,1-2.018.571,3.694,3.694,0,0,1-2.658-.939,3.427,3.427,0,0,1-.986-2.605,3.447,3.447,0,0,1,.989-2.605,3.584,3.584,0,0,1,2.6-.953,3.425,3.425,0,0,1,2.449.87A3.411,3.411,0,0,1-18.047,15.839Zm-3.365-2.1a1.511,1.511,0,0,0-1.659,1.314h3.133a1.437,1.437,0,0,0-.471-.976A1.494,1.494,0,0,0-21.413,13.735Zm7.222,5.748a3.813,3.813,0,0,1-1.991-.478,2.02,2.02,0,0,1-.976-1.421l1.6-.451a1.285,1.285,0,0,0,1.367,1.016,1.412,1.412,0,0,0,.7-.156.543.543,0,0,0,.272-.528.558.558,0,0,0-.113-.352.894.894,0,0,0-.348-.252,4.341,4.341,0,0,0-.465-.179q-.229-.073-.607-.176t-.631-.2a4.224,4.224,0,0,1-.6-.256,2.562,2.562,0,0,1-.5-.352,1.418,1.418,0,0,1-.372-.534,1.928,1.928,0,0,1-.129-.73,1.743,1.743,0,0,1,.74-1.527,3.307,3.307,0,0,1,1.935-.518,3.39,3.39,0,0,1,1.786.438,1.983,1.983,0,0,1,.916,1.367l-1.48.332a1.159,1.159,0,0,0-1.215-.863,1.33,1.33,0,0,0-.67.153.491.491,0,0,0-.266.451.517.517,0,0,0,.04.206.407.407,0,0,0,.139.166,2.033,2.033,0,0,0,.192.126,1.452,1.452,0,0,0,.272.11q.179.056.3.086l.348.09.355.093q.365.1.641.2a3.751,3.751,0,0,1,.587.279,2.108,2.108,0,0,1,.514.4,1.791,1.791,0,0,1,.335.564,2.084,2.084,0,0,1,.133.76,2.053,2.053,0,0,1-.229.989,1.719,1.719,0,0,1-.627.667,3.053,3.053,0,0,1-.886.358A4.6,4.6,0,0,1-14.191,19.484Zm8.7-6.956h1.912v6.824H-5.389l-.046-.823a2.606,2.606,0,0,1-2.171.956,2.66,2.66,0,0,1-1.885-.614,2.277,2.277,0,0,1-.657-1.749V12.527H-8.23v4.182a1.18,1.18,0,0,0,.342.936,1.3,1.3,0,0,0,.886.3,1.539,1.539,0,0,0,1.085-.388,1.668,1.668,0,0,0,.428-1.265Zm3.89,6.824V9.155H.333v10.2Zm6.452,0a2.061,2.061,0,0,1-1.54-.554,2.156,2.156,0,0,1-.544-1.576V13.994H1.428V12.527H1.86a1.126,1.126,0,0,0,.85-.285,1.47,1.47,0,0,0,.272-1.016v-.9H4.707v2.2H6.114v1.467H4.707v3.02q0,.883.79.883h.617v1.454ZM13.164,17.5a6.384,6.384,0,0,0,.166,1.666v.186H11.544l-.153-.743a2.219,2.219,0,0,1-.956.657,3.523,3.523,0,0,1-1.235.219,3.247,3.247,0,0,1-.637-.06,2.166,2.166,0,0,1-.574-.2,1.742,1.742,0,0,1-.475-.355,1.557,1.557,0,0,1-.319-.541,2.155,2.155,0,0,1-.119-.74,2.052,2.052,0,0,1,.126-.74,1.735,1.735,0,0,1,.332-.554,2.013,2.013,0,0,1,.538-.4,4.114,4.114,0,0,1,.677-.292,8.09,8.09,0,0,1,.81-.212l1.122-.252a1.237,1.237,0,0,0,.508-.216.43.43,0,0,0,.149-.342A.7.7,0,0,0,11,13.914a1.565,1.565,0,0,0-.813-.2,1.17,1.17,0,0,0-1.334,1.042l-1.693-.305A2.291,2.291,0,0,1,8.152,12.9a3.931,3.931,0,0,1,2.144-.5q2.868,0,2.868,2.463Zm-3.365.69a1.537,1.537,0,0,0,1.182-.495,2.084,2.084,0,0,0,.458-1.464l-1.62.458a1.914,1.914,0,0,0-.68.279.573.573,0,0,0-.236.491A.636.636,0,0,0,9.155,18,1.044,1.044,0,0,0,9.8,18.189Zm9.91-9.034h1.912v10.2H19.808l-.046-.889a1.949,1.949,0,0,1-.866.773,2.916,2.916,0,0,1-1.278.275,3.319,3.319,0,0,1-1.274-.246,3.069,3.069,0,0,1-1.752-1.819,4.15,4.15,0,0,1-.259-1.494,3.879,3.879,0,0,1,.451-1.9,3.093,3.093,0,0,1,1.191-1.238,3.281,3.281,0,0,1,1.643-.418,2.989,2.989,0,0,1,1.238.249,1.933,1.933,0,0,1,.853.707Zm-1.653,8.769a1.7,1.7,0,0,0,1.291-.544,1.993,1.993,0,0,0,.514-1.427,2,2,0,0,0-.518-1.43,1.7,1.7,0,0,0-1.288-.548,1.72,1.72,0,0,0-1.3.538,2,2,0,0,0-.514,1.44,1.987,1.987,0,0,0,.514,1.434A1.72,1.72,0,0,0,18.056,17.924Zm8.722,1.56a4.291,4.291,0,0,1-1.932-.418,3.125,3.125,0,0,1-1.324-1.228,3.66,3.66,0,0,1-.481-1.905,3.338,3.338,0,0,1,1.036-2.589,3.842,3.842,0,0,1,2.7-.949,3.851,3.851,0,0,1,2.708.949,3.338,3.338,0,0,1,1.036,2.589,3.357,3.357,0,0,1-1.036,2.6A3.843,3.843,0,0,1,26.778,19.484Zm-.02-1.52a1.752,1.752,0,0,0,1.351-.558,2.087,2.087,0,0,0,.514-1.474,2.087,2.087,0,0,0-.514-1.474,1.752,1.752,0,0,0-1.351-.558,1.687,1.687,0,0,0-1.311.561,2.107,2.107,0,0,0-.508,1.47,2.107,2.107,0,0,0,.508,1.47A1.687,1.687,0,0,0,26.758,17.964Zm7.587,1.52a3.813,3.813,0,0,1-1.991-.478,2.02,2.02,0,0,1-.976-1.421l1.6-.451a1.285,1.285,0,0,0,1.367,1.016,1.412,1.412,0,0,0,.7-.156.543.543,0,0,0,.272-.528.558.558,0,0,0-.113-.352.894.894,0,0,0-.348-.252,4.341,4.341,0,0,0-.465-.179q-.229-.073-.607-.176t-.631-.2a4.225,4.225,0,0,1-.6-.256,2.563,2.563,0,0,1-.5-.352,1.418,1.418,0,0,1-.372-.534,1.928,1.928,0,0,1-.129-.73,1.743,1.743,0,0,1,.74-1.527,3.307,3.307,0,0,1,1.935-.518,3.39,3.39,0,0,1,1.786.438,1.983,1.983,0,0,1,.916,1.367l-1.48.332a1.159,1.159,0,0,0-1.215-.863,1.33,1.33,0,0,0-.67.153.491.491,0,0,0-.266.451.517.517,0,0,0,.04.206.407.407,0,0,0,.139.166,2.032,2.032,0,0,0,.192.126,1.452,1.452,0,0,0,.272.11q.179.056.3.086l.348.09.355.093q.365.1.641.2a3.751,3.751,0,0,1,.587.279,2.108,2.108,0,0,1,.514.4,1.791,1.791,0,0,1,.335.564,2.084,2.084,0,0,1,.133.76,2.053,2.053,0,0,1-.229.989,1.719,1.719,0,0,1-.627.667,3.053,3.053,0,0,1-.886.358A4.6,4.6,0,0,1,34.345,19.484Z" transform="translate(359.09 269.11)" fill="#fff"/>
    </g>
    <g id="Grupo_22777" data-name="Grupo 22777" transform="translate(841.293 4260.964)">
      <path id="Trazado_50341" data-name="Trazado 50341" d="M3652.738,1673.542c0,5.33-3.2,9.973-7.33,9.973h-43.638c-4.126,0-7.618-4.643-7.618-9.973v-70.427c0-5.33,3.491-9.4,7.618-9.4h43.638c4.126,0,7.33,4.073,7.33,9.4Z" transform="translate(-3584.917 -1583.396)" fill="#fcfcfc"/>
      <path id="Trazado_50342" data-name="Trazado 50342" d="M3606.554,1649.592h-43.819c-4.89,0-9.02-5.157-9.02-11.261v-69.845c0-5.9,4.046-10.7,9.02-10.7h43.819c4.9,0,8.732,4.7,8.732,10.7v69.845C3615.286,1644.54,3611.369,1649.592,3606.554,1649.592Zm-43.819-89.062c-3.463,0-6.279,3.569-6.279,7.956v69.845c0,4.539,2.934,8.521,6.279,8.521h43.819c3.248,0,5.991-3.9,5.991-8.521v-69.845c0-4.461-2.631-7.956-5.991-7.956Z" transform="translate(-3553.715 -1555.677)" fill="#3d4451"/>
      <g id="Grupo_22766" data-name="Grupo 22766" transform="translate(23.701 73.208)">
        <path id="Trazado_50343" data-name="Trazado 50343" d="M3673.558,1879.228a5.424,5.424,0,1,1-5.395-4.867A5.151,5.151,0,0,1,3673.558,1879.228Z" transform="translate(-3661.563 -1873.156)" fill="#f04f4c"/>
        <path id="Trazado_50344" data-name="Trazado 50344" d="M3664.094,1881.23a6.093,6.093,0,1,1,6.6-6.072A6.36,6.36,0,0,1,3664.094,1881.23Zm0-9.734a3.7,3.7,0,1,0,4.191,3.662A3.958,3.958,0,0,0,3664.094,1871.5Z" transform="translate(-3657.493 -1869.087)" fill="#3d4451"/>
      </g>
      <rect id="Rectángulo_5190" data-name="Rectángulo 5190" width="2.409" height="89.062" transform="translate(11.877 3.482)" fill="#3d4451"/>
      <rect id="Rectángulo_5191" data-name="Rectángulo 5191" width="2.409" height="89.062" transform="translate(45.65 3.482)" fill="#3d4451"/>
      <g id="Grupo_22767" data-name="Grupo 22767" transform="translate(12.542 57.705)">
        <rect id="Rectángulo_5192" data-name="Rectángulo 5192" width="33.228" height="7.175" transform="translate(1.084 1.084)" fill="#7eb9c7"/>
        <path id="Trazado_50345" data-name="Trazado 50345" d="M3644.03,1810.551h-35.4v-9.344h35.4Zm-33.229-2.168h31.06v-5.007H3610.8Z" transform="translate(-3608.633 -1801.207)" fill="#3d4451"/>
      </g>
      <g id="Grupo_22768" data-name="Grupo 22768" transform="translate(12.542 42.842)">
        <rect id="Rectángulo_5193" data-name="Rectángulo 5193" width="33.228" height="7.175" transform="translate(1.084 1.084)" fill="#7eb9c7"/>
        <path id="Trazado_50346" data-name="Trazado 50346" d="M3644.03,1745.471h-35.4v-9.344h35.4ZM3610.8,1743.3h31.06V1738.3H3610.8Z" transform="translate(-3608.633 -1736.127)" fill="#3d4451"/>
      </g>
      <g id="Grupo_22769" data-name="Grupo 22769" transform="translate(12.542 26.953)">
        <rect id="Rectángulo_5194" data-name="Rectángulo 5194" width="33.228" height="7.175" transform="translate(1.084 1.084)" fill="#7eb9c7"/>
        <path id="Trazado_50347" data-name="Trazado 50347" d="M3644.03,1675.9h-35.4v-9.344h35.4Zm-33.229-2.168h31.06v-5.007H3610.8Z" transform="translate(-3608.633 -1666.558)" fill="#3d4451"/>
      </g>
      <g id="Grupo_22770" data-name="Grupo 22770" transform="translate(12.542 12.346)">
        <rect id="Rectángulo_5195" data-name="Rectángulo 5195" width="33.228" height="7.175" transform="translate(1.084 1.084)" fill="#7eb9c7"/>
        <path id="Trazado_50348" data-name="Trazado 50348" d="M3644.03,1611.944h-35.4V1602.6h35.4Zm-33.229-2.168h31.06v-5.007H3610.8Z" transform="translate(-3608.633 -1602.6)" fill="#3d4451"/>
      </g>
      <rect id="Rectángulo_5196" data-name="Rectángulo 5196" width="15.252" height="2.345" transform="translate(61.562 21.156)" fill="#3d4451"/>
      <rect id="Rectángulo_5197" data-name="Rectángulo 5197" width="15.252" height="2.345" transform="translate(60.2 80.024)" fill="#3d4451"/>
      <rect id="Rectángulo_5198" data-name="Rectángulo 5198" width="15.252" height="2.345" transform="translate(61.562 51.376)" fill="#3d4451"/>
      <g id="Grupo_22771" data-name="Grupo 22771" transform="translate(75.298 79.616)">
        <path id="Trazado_50349" data-name="Trazado 50349" d="M3916.668,1897.146v6.674c0,2.6-6.648,4.7-14.848,4.7s-14.848-2.106-14.848-4.7v-6.674" transform="translate(-3886.159 -1897.146)" fill="#7eb9c7"/>
        <path id="Trazado_50350" data-name="Trazado 50350" d="M3899.073,1909.336a37.043,37.043,0,0,1-10.745-1.416c-3.216-1.019-4.916-2.437-4.916-4.1v-6.674h1.626v6.674c0,1.625,5.339,3.891,14.035,3.891s14.035-2.266,14.035-3.891v-6.674h1.627v6.674c0,1.664-1.7,3.082-4.917,4.1A37.037,37.037,0,0,1,3899.073,1909.336Z" transform="translate(-3883.412 -1897.146)" fill="#3d4451"/>
      </g>
      <g id="Grupo_22772" data-name="Grupo 22772" transform="translate(75.298 73.777)">
        <ellipse id="Elipse_1226" data-name="Elipse 1226" cx="14.848" cy="4.704" rx="14.848" ry="4.704" transform="translate(0.813 0.813)" fill="#7eb9c7"/>
        <path id="Trazado_50351" data-name="Trazado 50351" d="M3899.073,1882.615a37.043,37.043,0,0,1-10.745-1.416c-3.216-1.019-4.916-2.437-4.916-4.1s1.7-3.083,4.916-4.1a41.488,41.488,0,0,1,21.49,0c3.217,1.019,4.917,2.437,4.917,4.1s-1.7,3.082-4.917,4.1A37.037,37.037,0,0,1,3899.073,1882.615Zm0-9.408c-8.7,0-14.035,2.266-14.035,3.891s5.339,3.89,14.035,3.89,14.035-2.266,14.035-3.89S3907.769,1873.207,3899.073,1873.207Z" transform="translate(-3883.412 -1871.581)" fill="#3d4451"/>
      </g>
      <g id="Grupo_22773" data-name="Grupo 22773" transform="translate(74.816 48.835)">
        <path id="Trazado_50352" data-name="Trazado 50352" d="M3914.559,1762.37v6.674c0,2.6-6.647,4.7-14.848,4.7s-14.848-2.106-14.848-4.7v-6.674" transform="translate(-3884.05 -1762.37)" fill="#fdc345"/>
        <path id="Trazado_50353" data-name="Trazado 50353" d="M3896.963,1774.561a37.034,37.034,0,0,1-10.745-1.416c-3.216-1.019-4.917-2.437-4.917-4.1v-6.674h1.626v6.674c0,1.624,5.339,3.891,14.035,3.891s14.036-2.266,14.036-3.891v-6.674h1.626v6.674c0,1.664-1.7,3.082-4.917,4.1A37.035,37.035,0,0,1,3896.963,1774.561Z" transform="translate(-3881.302 -1762.37)" fill="#3d4451"/>
      </g>
      <g id="Grupo_22774" data-name="Grupo 22774" transform="translate(74.847 43.741)">
        <ellipse id="Elipse_1227" data-name="Elipse 1227" cx="14.848" cy="4.347" rx="14.848" ry="4.347" transform="translate(0.782 0.782)" fill="#fdc345"/>
        <path id="Trazado_50354" data-name="Trazado 50354" d="M3897.069,1750.323c-7.768,0-15.63-1.762-15.63-5.129s7.863-5.129,15.63-5.129,15.629,1.762,15.629,5.129S3904.836,1750.323,3897.069,1750.323Zm0-8.694c-8.587,0-14.067,2.112-14.067,3.566s5.48,3.566,14.067,3.566,14.066-2.112,14.066-3.566S3905.655,1741.629,3897.069,1741.629Z" transform="translate(-3881.439 -1740.065)" fill="#3d4451"/>
      </g>
      <g id="Grupo_22775" data-name="Grupo 22775" transform="translate(74.816 18.916)">
        <path id="Trazado_50355" data-name="Trazado 50355" d="M3914.559,1631.367v6.674c0,2.6-6.647,4.7-14.848,4.7s-14.848-2.106-14.848-4.7v-6.674" transform="translate(-3884.05 -1631.367)" fill="#f04f4c"/>
        <path id="Trazado_50356" data-name="Trazado 50356" d="M3896.963,1643.557a37.038,37.038,0,0,1-10.745-1.416c-3.216-1.019-4.917-2.437-4.917-4.1v-6.674h1.626v6.674c0,1.624,5.339,3.891,14.035,3.891s14.036-2.266,14.036-3.891v-6.674h1.626v6.674c0,1.664-1.7,3.082-4.917,4.1A37.039,37.039,0,0,1,3896.963,1643.557Z" transform="translate(-3881.302 -1631.367)" fill="#3d4451"/>
      </g>
      <g id="Grupo_22776" data-name="Grupo 22776" transform="translate(74.816 13.078)">
        <ellipse id="Elipse_1228" data-name="Elipse 1228" cx="14.848" cy="4.704" rx="14.848" ry="4.704" transform="translate(0.813 0.813)" fill="#f04f4c"/>
        <path id="Trazado_50357" data-name="Trazado 50357" d="M3896.963,1616.837a37.051,37.051,0,0,1-10.745-1.415c-3.216-1.019-4.917-2.437-4.917-4.1s1.7-3.082,4.917-4.1a41.485,41.485,0,0,1,21.49,0c3.216,1.019,4.917,2.437,4.917,4.1s-1.7,3.082-4.917,4.1A37.052,37.052,0,0,1,3896.963,1616.837Zm0-9.407c-8.7,0-14.035,2.266-14.035,3.891s5.339,3.891,14.035,3.891,14.036-2.266,14.036-3.891S3905.659,1607.429,3896.963,1607.429Z" transform="translate(-3881.302 -1605.803)" fill="#3d4451"/>
      </g>
      <path id="Trazado_50358" data-name="Trazado 50358" d="M3913.892,1566.656a2.124,2.124,0,0,1-1.443-.64l-7.088-7.036a1.584,1.584,0,0,1,.156-2.422,2.121,2.121,0,0,1,2.729.128l5.549,5.477,11.533-12.969a2.113,2.113,0,0,1,2.714-.292,1.571,1.571,0,0,1,.33,2.39l-12.959,14.64a2.034,2.034,0,0,1-1.46.723Z" transform="translate(-3824.672 -1548.541)" fill="#3d4451"/>
      <path id="Trazado_50359" data-name="Trazado 50359" d="M3917.583,1704.307a2.122,2.122,0,0,1-1.443-.64l-7.088-7.036a1.585,1.585,0,0,1,.156-2.422,2.122,2.122,0,0,1,2.729.129l5.549,5.477,11.533-12.969a2.113,2.113,0,0,1,2.714-.292,1.571,1.571,0,0,1,.329,2.39l-12.959,14.639a2.033,2.033,0,0,1-1.46.723Z" transform="translate(-3827.521 -1654.755)" fill="#3d4451"/>
      <path id="Trazado_50360" data-name="Trazado 50360" d="M3919.166,1835.63a2.123,2.123,0,0,1-1.443-.64l-7.087-7.036a1.584,1.584,0,0,1,.156-2.422,2.121,2.121,0,0,1,2.729.129l5.55,5.477,11.533-12.969a2.112,2.112,0,0,1,2.714-.292,1.571,1.571,0,0,1,.33,2.39l-12.959,14.64a2.035,2.035,0,0,1-1.46.723Z" transform="translate(-3828.741 -1756.085)" fill="#3d4451"/>
    </g>
    <g transform="matrix(1, 0, 0, 1, 682, 4132)" filter="url(#Trazado_50362)">
      <path id="Trazado_50362-2" data-name="Trazado 50362" d="M-77.937-3.3V-12.9h3.472a5.412,5.412,0,0,1,2,.345,3.686,3.686,0,0,1,1.434.979,4.259,4.259,0,0,1,.85,1.51A6.235,6.235,0,0,1-69.892-8.1a6.258,6.258,0,0,1-.289,1.965,4.259,4.259,0,0,1-.85,1.51,3.686,3.686,0,0,1-1.434.979,5.412,5.412,0,0,1-2,.345Zm1.991-1.759h1.381a2.356,2.356,0,0,0,1.938-.78,3.5,3.5,0,0,0,.637-2.26,3.5,3.5,0,0,0-.637-2.26,2.356,2.356,0,0,0-1.938-.78h-1.381ZM-61.86-6.816l-.02.458h-5.058a1.767,1.767,0,0,0,.544,1.248,1.741,1.741,0,0,0,1.2.431,1.677,1.677,0,0,0,.9-.236,1.449,1.449,0,0,0,.574-.687l1.752.259a2.979,2.979,0,0,1-1.195,1.6,3.552,3.552,0,0,1-2.018.571,3.694,3.694,0,0,1-2.658-.939,3.427,3.427,0,0,1-.986-2.605,3.447,3.447,0,0,1,.989-2.605,3.584,3.584,0,0,1,2.6-.953,3.425,3.425,0,0,1,2.449.87A3.411,3.411,0,0,1-61.86-6.816Zm-3.365-2.1a1.511,1.511,0,0,0-1.659,1.314h3.133a1.437,1.437,0,0,0-.471-.976A1.494,1.494,0,0,0-65.226-8.92ZM-57.864-3.3a2.061,2.061,0,0,1-1.54-.554,2.156,2.156,0,0,1-.544-1.576V-8.661h-1.341v-1.467h.431a1.126,1.126,0,0,0,.85-.285,1.47,1.47,0,0,0,.272-1.016v-.9h1.726v2.2H-56.6v1.467H-58.01v3.02q0,.883.79.883h.617V-3.3Zm9.134-3.511-.02.458h-5.058a1.767,1.767,0,0,0,.544,1.248,1.741,1.741,0,0,0,1.2.431,1.677,1.677,0,0,0,.9-.236,1.448,1.448,0,0,0,.574-.687l1.752.259a2.979,2.979,0,0,1-1.195,1.6,3.552,3.552,0,0,1-2.018.571,3.694,3.694,0,0,1-2.658-.939,3.427,3.427,0,0,1-.986-2.605A3.447,3.447,0,0,1-54.7-9.321a3.584,3.584,0,0,1,2.6-.953,3.425,3.425,0,0,1,2.449.87A3.411,3.411,0,0,1-48.73-6.816ZM-52.1-8.92a1.511,1.511,0,0,0-1.659,1.314h3.133a1.437,1.437,0,0,0-.471-.976A1.494,1.494,0,0,0-52.1-8.92Zm6.651-.126a2.215,2.215,0,0,1,.9-.82,2.734,2.734,0,0,1,1.334-.342V-8.5a2.585,2.585,0,0,0-1.633.412,1.8,1.8,0,0,0-.5,1.46V-3.3h-1.925v-6.824h1.832Zm11.437-1.215a2.607,2.607,0,0,1,1.759.554,1.983,1.983,0,0,1,.644,1.59V-3.3h-1.912V-7.572a1.14,1.14,0,0,0-.305-.863,1.069,1.069,0,0,0-.77-.292,1.233,1.233,0,0,0-.929.372,1.688,1.688,0,0,0-.358,1.2V-3.3h-1.932V-7.552a1.17,1.17,0,0,0-.305-.88,1.089,1.089,0,0,0-.79-.3,1.194,1.194,0,0,0-.923.392,1.87,1.87,0,0,0-.358,1.281V-3.3h-1.905v-6.824h1.905v.8a2.32,2.32,0,0,1,1.978-.936A2.918,2.918,0,0,1-36.925-10a1.748,1.748,0,0,1,.806.76A2.413,2.413,0,0,1-34.008-10.261Zm5.237-.889a1.073,1.073,0,0,1-.783-.322,1.057,1.057,0,0,1-.325-.78,1.044,1.044,0,0,1,.329-.773,1.077,1.077,0,0,1,.78-.322,1.058,1.058,0,0,1,.77.322,1.049,1.049,0,0,1,.325.773,1.057,1.057,0,0,1-.325.78A1.058,1.058,0,0,1-28.77-11.15ZM-29.746-3.3v-6.824h1.925V-3.3Zm7.932-6.956a2.66,2.66,0,0,1,1.885.614A2.277,2.277,0,0,1-19.272-7.9V-3.3H-21.19V-7.486a1.189,1.189,0,0,0-.342-.943,1.288,1.288,0,0,0-.88-.3,1.8,1.8,0,0,0-.571.086,1.467,1.467,0,0,0-.478.269,1.188,1.188,0,0,0-.342.514,2.379,2.379,0,0,0-.129.79V-3.3h-1.912v-6.824h1.912v.757A2.629,2.629,0,0,1-21.814-10.261Zm9.99,5.1a6.384,6.384,0,0,0,.166,1.666V-3.3h-1.786l-.153-.743a2.219,2.219,0,0,1-.956.657,3.523,3.523,0,0,1-1.235.219,3.247,3.247,0,0,1-.637-.06,2.166,2.166,0,0,1-.574-.2,1.742,1.742,0,0,1-.475-.355,1.557,1.557,0,0,1-.319-.541,2.155,2.155,0,0,1-.119-.74,2.052,2.052,0,0,1,.126-.74,1.735,1.735,0,0,1,.332-.554,2.013,2.013,0,0,1,.538-.4,4.114,4.114,0,0,1,.677-.292,8.09,8.09,0,0,1,.81-.212l1.122-.252a1.237,1.237,0,0,0,.508-.216.43.43,0,0,0,.149-.342.7.7,0,0,0-.335-.657,1.565,1.565,0,0,0-.813-.2A1.17,1.17,0,0,0-16.132-7.9L-17.825-8.2a2.291,2.291,0,0,1,.989-1.557,3.931,3.931,0,0,1,2.144-.5q2.868,0,2.868,2.463Zm-3.365.69a1.537,1.537,0,0,0,1.182-.495,2.084,2.084,0,0,0,.458-1.464l-1.62.458a1.914,1.914,0,0,0-.68.279.573.573,0,0,0-.236.491.636.636,0,0,0,.252.541A1.044,1.044,0,0,0-15.189-4.466Zm8.158,1.288a3.646,3.646,0,0,1-2.635-.982,3.393,3.393,0,0,1-1.022-2.562A3.385,3.385,0,0,1-9.67-9.285a3.657,3.657,0,0,1,2.639-.976,3.636,3.636,0,0,1,2.21.657A2.934,2.934,0,0,1-3.679-7.752l-1.766.192a1.513,1.513,0,0,0-.571-.9,1.736,1.736,0,0,0-1.036-.3A1.565,1.565,0,0,0-8.3-8.2a2.186,2.186,0,0,0-.478,1.474A2.189,2.189,0,0,0-8.3-5.252a1.561,1.561,0,0,0,1.248.561,1.721,1.721,0,0,0,1.032-.3,1.548,1.548,0,0,0,.574-.9l1.766.192A2.942,2.942,0,0,1-4.831-3.842,3.621,3.621,0,0,1-7.031-3.178Zm5.689-7.972a1.073,1.073,0,0,1-.783-.322,1.057,1.057,0,0,1-.325-.78,1.044,1.044,0,0,1,.329-.773,1.077,1.077,0,0,1,.78-.322,1.058,1.058,0,0,1,.77.322,1.049,1.049,0,0,1,.325.773,1.057,1.057,0,0,1-.325.78A1.058,1.058,0,0,1-1.343-11.15ZM-2.318-3.3v-6.824H-.394V-3.3Zm6.492-7.753L5.912-13.5l.943.664L5.348-11.057Zm.591,7.886A4.291,4.291,0,0,1,2.832-3.59,3.125,3.125,0,0,1,1.508-4.818a3.66,3.66,0,0,1-.481-1.905A3.338,3.338,0,0,1,2.063-9.312a3.842,3.842,0,0,1,2.7-.949,3.851,3.851,0,0,1,2.708.949A3.338,3.338,0,0,1,8.508-6.723a3.357,3.357,0,0,1-1.036,2.6A3.843,3.843,0,0,1,4.764-3.171Zm-.02-1.52A1.752,1.752,0,0,0,6.1-5.249a2.087,2.087,0,0,0,.514-1.474A2.087,2.087,0,0,0,6.1-8.2a1.752,1.752,0,0,0-1.351-.558,1.687,1.687,0,0,0-1.311.561,2.107,2.107,0,0,0-.508,1.47,2.107,2.107,0,0,0,.508,1.47A1.687,1.687,0,0,0,4.744-4.692Zm9.213-5.569a2.66,2.66,0,0,1,1.885.614A2.277,2.277,0,0,1,16.5-7.9V-3.3H14.582V-7.486a1.189,1.189,0,0,0-.342-.943,1.288,1.288,0,0,0-.88-.3,1.8,1.8,0,0,0-.571.086,1.467,1.467,0,0,0-.478.269,1.188,1.188,0,0,0-.342.514,2.379,2.379,0,0,0-.129.79V-3.3H9.928v-6.824H11.84v.757A2.629,2.629,0,0,1,13.958-10.261ZM26.722-13.5h1.912V-3.3H26.822l-.046-.889a1.949,1.949,0,0,1-.866.773,2.916,2.916,0,0,1-1.278.275,3.319,3.319,0,0,1-1.274-.246,3.164,3.164,0,0,1-1.045-.694A3.162,3.162,0,0,1,21.6-5.209,4.15,4.15,0,0,1,21.345-6.7,3.879,3.879,0,0,1,21.8-8.6a3.093,3.093,0,0,1,1.191-1.238,3.281,3.281,0,0,1,1.643-.418,2.989,2.989,0,0,1,1.238.249,1.933,1.933,0,0,1,.853.707ZM25.069-4.731a1.7,1.7,0,0,0,1.291-.544A1.993,1.993,0,0,0,26.875-6.7a2,2,0,0,0-.518-1.43,1.7,1.7,0,0,0-1.288-.548,1.72,1.72,0,0,0-1.3.538,2,2,0,0,0-.514,1.44,1.987,1.987,0,0,0,.514,1.434A1.72,1.72,0,0,0,25.069-4.731ZM37.031-6.816l-.02.458H31.953A1.767,1.767,0,0,0,32.5-5.11a1.741,1.741,0,0,0,1.2.431,1.678,1.678,0,0,0,.9-.236,1.448,1.448,0,0,0,.574-.687l1.752.259a2.979,2.979,0,0,1-1.195,1.6,3.552,3.552,0,0,1-2.018.571,3.694,3.694,0,0,1-2.658-.939,3.427,3.427,0,0,1-.986-2.605,3.447,3.447,0,0,1,.989-2.605,3.584,3.584,0,0,1,2.6-.953A3.425,3.425,0,0,1,36.1-9.4,3.411,3.411,0,0,1,37.031-6.816Zm-3.365-2.1a1.511,1.511,0,0,0-1.659,1.314h3.133a1.437,1.437,0,0,0-.471-.976A1.494,1.494,0,0,0,33.665-8.92ZM-59.361,19.353V9.157h1.932v10.2Zm7.089.133a4.291,4.291,0,0,1-1.932-.418,3.125,3.125,0,0,1-1.324-1.228,3.66,3.66,0,0,1-.481-1.905,3.338,3.338,0,0,1,1.036-2.589,3.841,3.841,0,0,1,2.7-.949,3.851,3.851,0,0,1,2.708.949,3.338,3.338,0,0,1,1.036,2.589,3.357,3.357,0,0,1-1.036,2.6A3.843,3.843,0,0,1-52.272,19.486Zm-.02-1.52a1.752,1.752,0,0,0,1.351-.558,2.087,2.087,0,0,0,.514-1.474,2.087,2.087,0,0,0-.514-1.474,1.752,1.752,0,0,0-1.351-.558,1.687,1.687,0,0,0-1.311.561,2.107,2.107,0,0,0-.508,1.47A2.107,2.107,0,0,0-53.6,17.4,1.687,1.687,0,0,0-52.292,17.966Zm7.587,1.52a3.813,3.813,0,0,1-1.991-.478,2.02,2.02,0,0,1-.976-1.421l1.6-.451A1.285,1.285,0,0,0-44.7,18.152a1.412,1.412,0,0,0,.7-.156.543.543,0,0,0,.272-.528.558.558,0,0,0-.113-.352.894.894,0,0,0-.348-.252,4.342,4.342,0,0,0-.465-.179q-.229-.073-.607-.176t-.631-.2a4.224,4.224,0,0,1-.6-.256,2.562,2.562,0,0,1-.5-.352,1.418,1.418,0,0,1-.372-.534,1.928,1.928,0,0,1-.129-.73,1.743,1.743,0,0,1,.74-1.527,3.307,3.307,0,0,1,1.935-.518,3.39,3.39,0,0,1,1.786.438,1.983,1.983,0,0,1,.916,1.367l-1.48.332a1.159,1.159,0,0,0-1.215-.863,1.33,1.33,0,0,0-.67.153.491.491,0,0,0-.266.451.517.517,0,0,0,.04.206.407.407,0,0,0,.139.166,2.033,2.033,0,0,0,.192.126,1.452,1.452,0,0,0,.272.11q.179.056.3.086l.348.09.355.093q.365.1.641.2a3.751,3.751,0,0,1,.587.279,2.109,2.109,0,0,1,.514.4,1.791,1.791,0,0,1,.335.564,2.084,2.084,0,0,1,.133.76,2.053,2.053,0,0,1-.229.989,1.719,1.719,0,0,1-.627.667,3.053,3.053,0,0,1-.886.358A4.6,4.6,0,0,1-44.7,19.486Zm10.893,0a4.291,4.291,0,0,1-1.932-.418,3.126,3.126,0,0,1-1.324-1.228,3.66,3.66,0,0,1-.481-1.905,3.338,3.338,0,0,1,1.036-2.589,3.842,3.842,0,0,1,2.7-.949,3.851,3.851,0,0,1,2.708.949,3.338,3.338,0,0,1,1.036,2.589,3.357,3.357,0,0,1-1.036,2.6A3.843,3.843,0,0,1-33.812,19.486Zm-.02-1.52a1.752,1.752,0,0,0,1.351-.558,2.087,2.087,0,0,0,.514-1.474,2.087,2.087,0,0,0-.514-1.474,1.752,1.752,0,0,0-1.351-.558,1.687,1.687,0,0,0-1.311.561,2.107,2.107,0,0,0-.508,1.47,2.107,2.107,0,0,0,.508,1.47A1.687,1.687,0,0,0-33.832,17.966Zm9.193-5.569a3.3,3.3,0,0,1,1.268.246,3.164,3.164,0,0,1,1.045.694,3.162,3.162,0,0,1,.707,1.125,4.15,4.15,0,0,1,.259,1.494,4.15,4.15,0,0,1-.259,1.494,3.162,3.162,0,0,1-.707,1.125,3.164,3.164,0,0,1-1.045.694,3.3,3.3,0,0,1-1.268.246,2.947,2.947,0,0,1-1.291-.275,1.908,1.908,0,0,1-.86-.773l-.046.889h-1.812V9.157h1.912v4.2a1.905,1.905,0,0,1,.853-.71A3,3,0,0,1-24.638,12.4Zm-.445,5.529a1.72,1.72,0,0,0,1.3-.538,1.987,1.987,0,0,0,.514-1.434,2,2,0,0,0-.514-1.44,1.72,1.72,0,0,0-1.3-.538,1.7,1.7,0,0,0-1.288.548,2,2,0,0,0-.518,1.43,1.993,1.993,0,0,0,.514,1.427A1.7,1.7,0,0,0-25.083,17.926Zm6.147-6.419a1.073,1.073,0,0,1-.783-.322,1.057,1.057,0,0,1-.325-.78,1.044,1.044,0,0,1,.329-.773,1.077,1.077,0,0,1,.78-.322,1.058,1.058,0,0,1,.77.322,1.049,1.049,0,0,1,.325.773,1.057,1.057,0,0,1-.325.78A1.058,1.058,0,0,1-18.936,11.507Zm-2.376,11.045V21.059a2.2,2.2,0,0,0,.717-.1.8.8,0,0,0,.425-.342,1.514,1.514,0,0,0,.2-.587,6.623,6.623,0,0,0,.05-.913V12.529h1.938v6.591a3.706,3.706,0,0,1-.777,2.609A3.389,3.389,0,0,1-21.313,22.552Zm11.736-6.711-.02.458h-5.058a1.767,1.767,0,0,0,.544,1.248,1.741,1.741,0,0,0,1.2.431,1.677,1.677,0,0,0,.9-.236,1.449,1.449,0,0,0,.574-.687l1.752.259a2.979,2.979,0,0,1-1.195,1.6,3.552,3.552,0,0,1-2.018.571,3.694,3.694,0,0,1-2.658-.939,3.427,3.427,0,0,1-.986-2.605,3.447,3.447,0,0,1,.989-2.605,3.584,3.584,0,0,1,2.6-.953,3.425,3.425,0,0,1,2.449.87A3.411,3.411,0,0,1-9.577,15.842Zm-3.365-2.1A1.511,1.511,0,0,0-14.6,15.052h3.133a1.437,1.437,0,0,0-.471-.976A1.494,1.494,0,0,0-12.942,13.737Zm7.361,5.616a2.061,2.061,0,0,1-1.54-.554,2.156,2.156,0,0,1-.544-1.576V14H-9.006V12.529h.431a1.126,1.126,0,0,0,.85-.285,1.47,1.47,0,0,0,.272-1.016v-.9h1.726v2.2H-4.32V14H-5.727v3.02q0,.883.79.883h.617v1.454Zm3.717-7.846a1.073,1.073,0,0,1-.783-.322,1.057,1.057,0,0,1-.325-.78,1.044,1.044,0,0,1,.329-.773,1.077,1.077,0,0,1,.78-.322,1.058,1.058,0,0,1,.77.322,1.049,1.049,0,0,1,.325.773,1.057,1.057,0,0,1-.325.78A1.058,1.058,0,0,1-1.864,11.507Zm-.976,7.846V12.529H-.915v6.824ZM5.5,12.529H7.529L4.621,19.353H2.962L.088,12.529H2.1L3.8,17.2Zm5.934,6.956a4.291,4.291,0,0,1-1.932-.418A3.125,3.125,0,0,1,8.183,17.84,3.66,3.66,0,0,1,7.7,15.934a3.338,3.338,0,0,1,1.036-2.589,3.842,3.842,0,0,1,2.7-.949,3.851,3.851,0,0,1,2.708.949,3.338,3.338,0,0,1,1.036,2.589,3.357,3.357,0,0,1-1.036,2.6A3.843,3.843,0,0,1,11.438,19.486Zm-.02-1.52a1.752,1.752,0,0,0,1.351-.558,2.087,2.087,0,0,0,.514-1.474,2.087,2.087,0,0,0-.514-1.474,1.752,1.752,0,0,0-1.351-.558,1.687,1.687,0,0,0-1.311.561,2.107,2.107,0,0,0-.508,1.47,2.107,2.107,0,0,0,.508,1.47A1.687,1.687,0,0,0,11.419,17.966Zm7.587,1.52a3.813,3.813,0,0,1-1.991-.478,2.02,2.02,0,0,1-.976-1.421l1.6-.451a1.285,1.285,0,0,0,1.367,1.016A1.412,1.412,0,0,0,19.7,18a.543.543,0,0,0,.272-.528.558.558,0,0,0-.113-.352.894.894,0,0,0-.348-.252,4.341,4.341,0,0,0-.465-.179q-.229-.073-.607-.176t-.631-.2a4.224,4.224,0,0,1-.6-.256,2.562,2.562,0,0,1-.5-.352,1.418,1.418,0,0,1-.372-.534,1.928,1.928,0,0,1-.129-.73,1.743,1.743,0,0,1,.74-1.527,3.307,3.307,0,0,1,1.935-.518,3.391,3.391,0,0,1,1.786.438,1.983,1.983,0,0,1,.916,1.367l-1.48.332a1.159,1.159,0,0,0-1.215-.863,1.33,1.33,0,0,0-.67.153.491.491,0,0,0-.266.451.517.517,0,0,0,.04.206.407.407,0,0,0,.139.166,2.033,2.033,0,0,0,.192.126,1.452,1.452,0,0,0,.272.11q.179.056.3.086l.348.09.355.093q.365.1.641.2a3.752,3.752,0,0,1,.587.279,2.108,2.108,0,0,1,.514.4,1.791,1.791,0,0,1,.335.564,2.084,2.084,0,0,1,.133.76,2.053,2.053,0,0,1-.229.989,1.719,1.719,0,0,1-.627.667,3.053,3.053,0,0,1-.886.358A4.6,4.6,0,0,1,19.006,19.486Z" transform="translate(103.6 76.52)" fill="#fff"/>
    </g>
    <g transform="matrix(1, 0, 0, 1, 682, 4132)" filter="url(#Trazado_50368)">
      <path id="Trazado_50368-2" data-name="Trazado 50368" d="M-80.452-12.846a2.887,2.887,0,0,1,2.21.893A3.106,3.106,0,0,1-77.4-9.747a3.029,3.029,0,0,1-.83,2.194,2.939,2.939,0,0,1-2.217.86h-2v3.438h-1.991v-9.592Zm-.332,4.487a1.463,1.463,0,0,0,1.1-.375,1.426,1.426,0,0,0,.365-1.039,1.414,1.414,0,0,0-.368-1.026,1.45,1.45,0,0,0-1.092-.382H-82.45v2.821ZM-74.152-9a2.215,2.215,0,0,1,.9-.82,2.734,2.734,0,0,1,1.334-.342v1.706a2.585,2.585,0,0,0-1.633.412,1.8,1.8,0,0,0-.5,1.46v3.326h-1.925v-6.824h1.832Zm9.731,2.23-.02.458H-69.5a1.767,1.767,0,0,0,.544,1.248,1.741,1.741,0,0,0,1.2.431,1.678,1.678,0,0,0,.9-.236,1.448,1.448,0,0,0,.574-.687l1.752.259a2.979,2.979,0,0,1-1.195,1.6,3.552,3.552,0,0,1-2.018.571A3.694,3.694,0,0,1-70.4-4.061a3.427,3.427,0,0,1-.986-2.605A3.447,3.447,0,0,1-70.4-9.272a3.584,3.584,0,0,1,2.6-.953,3.426,3.426,0,0,1,2.449.87A3.411,3.411,0,0,1-64.421-6.766Zm-3.365-2.1a1.511,1.511,0,0,0-1.659,1.314h3.133a1.437,1.437,0,0,0-.471-.976A1.494,1.494,0,0,0-67.787-8.87Zm4.8,2.881v-1.6h4.759v1.6Zm10.72-4.222a3.319,3.319,0,0,1,1.274.246,3.189,3.189,0,0,1,1.045.69A3.123,3.123,0,0,1-49.24-8.15a4.177,4.177,0,0,1,.259,1.5,4.177,4.177,0,0,1-.259,1.5,3.123,3.123,0,0,1-.707,1.125,3.189,3.189,0,0,1-1.045.69,3.319,3.319,0,0,1-1.274.246A2.961,2.961,0,0,1-53.5-3.348a1.935,1.935,0,0,1-.856-.717V.064H-56.27V-10.078h1.812l.053.916a1.869,1.869,0,0,1,.853-.773A2.931,2.931,0,0,1-52.267-10.211ZM-52.7-4.682a1.717,1.717,0,0,0,1.291-.534,1.985,1.985,0,0,0,.514-1.437,1.985,1.985,0,0,0-.514-1.437A1.717,1.717,0,0,0-52.7-8.625,1.72,1.72,0,0,0-54-8.08a1.985,1.985,0,0,0-.518,1.427A1.985,1.985,0,0,0-54-5.226,1.72,1.72,0,0,0-52.7-4.682ZM-45.709-9a2.215,2.215,0,0,1,.9-.82,2.734,2.734,0,0,1,1.334-.342v1.706a2.585,2.585,0,0,0-1.633.412,1.8,1.8,0,0,0-.5,1.46v3.326h-1.925v-6.824h1.832Zm6.492,5.875a4.291,4.291,0,0,1-1.932-.418,3.125,3.125,0,0,1-1.324-1.228,3.66,3.66,0,0,1-.481-1.905,3.338,3.338,0,0,1,1.036-2.589,3.842,3.842,0,0,1,2.7-.949,3.851,3.851,0,0,1,2.708.949,3.338,3.338,0,0,1,1.036,2.589,3.357,3.357,0,0,1-1.036,2.6A3.843,3.843,0,0,1-39.217-3.122Zm-.02-1.52A1.752,1.752,0,0,0-37.886-5.2a2.087,2.087,0,0,0,.514-1.474,2.087,2.087,0,0,0-.514-1.474A1.752,1.752,0,0,0-39.237-8.7a1.687,1.687,0,0,0-1.311.561,2.107,2.107,0,0,0-.508,1.47,2.107,2.107,0,0,0,.508,1.47A1.687,1.687,0,0,0-39.237-4.642Zm8.271,1.513A3.646,3.646,0,0,1-33.6-4.111a3.393,3.393,0,0,1-1.022-2.562A3.385,3.385,0,0,1-33.6-9.235a3.657,3.657,0,0,1,2.639-.976,3.636,3.636,0,0,1,2.21.657A2.934,2.934,0,0,1-27.614-7.7l-1.766.192a1.513,1.513,0,0,0-.571-.9,1.736,1.736,0,0,0-1.036-.3,1.565,1.565,0,0,0-1.248.558,2.186,2.186,0,0,0-.478,1.474,2.189,2.189,0,0,0,.478,1.47,1.561,1.561,0,0,0,1.248.561,1.721,1.721,0,0,0,1.032-.3,1.548,1.548,0,0,0,.574-.9l1.766.192a2.942,2.942,0,0,1-1.152,1.852A3.621,3.621,0,0,1-30.966-3.129Zm11.132-3.638-.02.458h-5.058a1.767,1.767,0,0,0,.544,1.248,1.741,1.741,0,0,0,1.2.431,1.677,1.677,0,0,0,.9-.236,1.449,1.449,0,0,0,.574-.687l1.752.259a2.979,2.979,0,0,1-1.195,1.6,3.552,3.552,0,0,1-2.018.571,3.694,3.694,0,0,1-2.658-.939A3.427,3.427,0,0,1-26.8-6.667a3.447,3.447,0,0,1,.989-2.605,3.584,3.584,0,0,1,2.6-.953,3.425,3.425,0,0,1,2.449.87A3.411,3.411,0,0,1-19.835-6.766ZM-23.2-8.87a1.511,1.511,0,0,0-1.659,1.314h3.133a1.437,1.437,0,0,0-.471-.976A1.494,1.494,0,0,0-23.2-8.87Zm7.222,5.748A3.813,3.813,0,0,1-17.969-3.6a2.02,2.02,0,0,1-.976-1.421l1.6-.451a1.285,1.285,0,0,0,1.367,1.016,1.412,1.412,0,0,0,.7-.156.543.543,0,0,0,.272-.528.558.558,0,0,0-.113-.352.894.894,0,0,0-.348-.252,4.342,4.342,0,0,0-.465-.179Q-16.164-6-16.542-6.1t-.631-.2a4.224,4.224,0,0,1-.6-.256,2.562,2.562,0,0,1-.5-.352,1.418,1.418,0,0,1-.372-.534,1.928,1.928,0,0,1-.129-.73,1.743,1.743,0,0,1,.74-1.527,3.307,3.307,0,0,1,1.935-.518,3.39,3.39,0,0,1,1.786.438A1.983,1.983,0,0,1-13.4-8.406l-1.48.332a1.159,1.159,0,0,0-1.215-.863,1.33,1.33,0,0,0-.67.153.491.491,0,0,0-.266.451.517.517,0,0,0,.04.206.407.407,0,0,0,.139.166,2.033,2.033,0,0,0,.192.126,1.452,1.452,0,0,0,.272.11q.179.056.3.086l.348.09.355.093q.365.1.641.2a3.751,3.751,0,0,1,.587.279,2.108,2.108,0,0,1,.514.4,1.791,1.791,0,0,1,.335.564,2.084,2.084,0,0,1,.133.76,2.053,2.053,0,0,1-.229.989,1.719,1.719,0,0,1-.627.667,3.053,3.053,0,0,1-.886.358A4.6,4.6,0,0,1-15.978-3.122ZM-6.2-5.107a6.384,6.384,0,0,0,.166,1.666v.186H-7.82L-7.973-4a2.219,2.219,0,0,1-.956.657,3.523,3.523,0,0,1-1.235.219,3.246,3.246,0,0,1-.637-.06,2.166,2.166,0,0,1-.574-.2,1.742,1.742,0,0,1-.475-.355,1.557,1.557,0,0,1-.319-.541,2.155,2.155,0,0,1-.119-.74,2.052,2.052,0,0,1,.126-.74,1.735,1.735,0,0,1,.332-.554,2.013,2.013,0,0,1,.538-.4,4.114,4.114,0,0,1,.677-.292,8.09,8.09,0,0,1,.81-.212l1.122-.252a1.237,1.237,0,0,0,.508-.216.43.43,0,0,0,.149-.342.7.7,0,0,0-.335-.657,1.565,1.565,0,0,0-.813-.2,1.17,1.17,0,0,0-1.334,1.042L-12.2-8.154a2.291,2.291,0,0,1,.989-1.557,3.931,3.931,0,0,1,2.144-.5q2.868,0,2.868,2.463Zm-3.365.69a1.537,1.537,0,0,0,1.182-.495,2.084,2.084,0,0,0,.458-1.464l-1.62.458a1.914,1.914,0,0,0-.68.279.573.573,0,0,0-.236.491.636.636,0,0,0,.252.541A1.044,1.044,0,0,0-9.566-4.416ZM3.743-10.211A2.607,2.607,0,0,1,5.5-9.657a1.983,1.983,0,0,1,.644,1.59v4.812H4.234V-7.523a1.14,1.14,0,0,0-.305-.863,1.069,1.069,0,0,0-.77-.292,1.233,1.233,0,0,0-.929.372,1.688,1.688,0,0,0-.358,1.2v3.85H-.06V-7.5a1.17,1.17,0,0,0-.305-.88,1.089,1.089,0,0,0-.79-.3,1.194,1.194,0,0,0-.923.392,1.87,1.87,0,0,0-.358,1.281v3.75H-4.342v-6.824h1.905v.8a2.32,2.32,0,0,1,1.978-.936,2.918,2.918,0,0,1,1.284.262,1.748,1.748,0,0,1,.807.76A2.413,2.413,0,0,1,3.743-10.211ZM8.98-11.1a1.073,1.073,0,0,1-.783-.322,1.057,1.057,0,0,1-.325-.78,1.044,1.044,0,0,1,.329-.773,1.077,1.077,0,0,1,.78-.322,1.058,1.058,0,0,1,.77.322,1.049,1.049,0,0,1,.325.773,1.057,1.057,0,0,1-.325.78A1.058,1.058,0,0,1,8.98-11.1ZM8-3.255v-6.824H9.93v6.824ZM18.326-6.766l-.02.458H13.249a1.767,1.767,0,0,0,.544,1.248,1.741,1.741,0,0,0,1.2.431,1.677,1.677,0,0,0,.9-.236,1.448,1.448,0,0,0,.574-.687l1.752.259a2.979,2.979,0,0,1-1.195,1.6,3.552,3.552,0,0,1-2.018.571,3.694,3.694,0,0,1-2.658-.939,3.427,3.427,0,0,1-.986-2.605,3.447,3.447,0,0,1,.989-2.605,3.584,3.584,0,0,1,2.6-.953,3.425,3.425,0,0,1,2.449.87A3.411,3.411,0,0,1,18.326-6.766Zm-3.365-2.1A1.511,1.511,0,0,0,13.3-7.556h3.133a1.437,1.437,0,0,0-.471-.976A1.494,1.494,0,0,0,14.961-8.87Zm8.848-1.341a2.66,2.66,0,0,1,1.885.614,2.277,2.277,0,0,1,.657,1.749v4.593H24.433V-7.437a1.189,1.189,0,0,0-.342-.943,1.288,1.288,0,0,0-.88-.3,1.8,1.8,0,0,0-.571.086,1.467,1.467,0,0,0-.478.269,1.188,1.188,0,0,0-.342.514,2.379,2.379,0,0,0-.129.79v3.764H19.78v-6.824h1.912v.757A2.629,2.629,0,0,1,23.809-10.211Zm6.937,6.956a2.061,2.061,0,0,1-1.54-.554,2.156,2.156,0,0,1-.544-1.576V-8.612H27.321v-1.467h.431a1.126,1.126,0,0,0,.85-.285,1.47,1.47,0,0,0,.272-1.016v-.9H30.6v2.2h1.407v1.467H30.6v3.02q0,.883.79.883h.617v1.454Zm5.894.133a4.291,4.291,0,0,1-1.932-.418,3.125,3.125,0,0,1-1.324-1.228A3.66,3.66,0,0,1,32.9-6.673a3.338,3.338,0,0,1,1.036-2.589,3.842,3.842,0,0,1,2.7-.949,3.851,3.851,0,0,1,2.708.949,3.338,3.338,0,0,1,1.036,2.589,3.357,3.357,0,0,1-1.036,2.6A3.843,3.843,0,0,1,36.64-3.122Zm-.02-1.52A1.752,1.752,0,0,0,37.971-5.2a2.087,2.087,0,0,0,.514-1.474,2.087,2.087,0,0,0-.514-1.474A1.752,1.752,0,0,0,36.62-8.7a1.687,1.687,0,0,0-1.311.561,2.107,2.107,0,0,0-.508,1.47,2.107,2.107,0,0,0,.508,1.47A1.687,1.687,0,0,0,36.62-4.642ZM-43.044,9.207h1.912V19.4h-1.812l-.046-.889a1.949,1.949,0,0,1-.866.773,2.916,2.916,0,0,1-1.278.275,3.319,3.319,0,0,1-1.274-.246,3.164,3.164,0,0,1-1.045-.694,3.162,3.162,0,0,1-.707-1.125A4.15,4.15,0,0,1-48.421,16a3.879,3.879,0,0,1,.451-1.9,3.093,3.093,0,0,1,1.191-1.238,3.281,3.281,0,0,1,1.643-.418,2.989,2.989,0,0,1,1.238.249,1.933,1.933,0,0,1,.853.707ZM-44.7,17.975a1.7,1.7,0,0,0,1.291-.544A1.993,1.993,0,0,0-42.891,16a2,2,0,0,0-.518-1.43,1.7,1.7,0,0,0-1.288-.548,1.72,1.72,0,0,0-1.3.538A2,2,0,0,0-46.509,16a1.987,1.987,0,0,0,.514,1.434A1.72,1.72,0,0,0-44.7,17.975Zm11.961-2.084-.02.458h-5.058a1.767,1.767,0,0,0,.544,1.248,1.741,1.741,0,0,0,1.2.431,1.677,1.677,0,0,0,.9-.236,1.449,1.449,0,0,0,.574-.687l1.752.259a2.979,2.979,0,0,1-1.195,1.6,3.552,3.552,0,0,1-2.018.571,3.694,3.694,0,0,1-2.658-.939,3.427,3.427,0,0,1-.986-2.605,3.447,3.447,0,0,1,.989-2.605,3.584,3.584,0,0,1,2.6-.953,3.425,3.425,0,0,1,2.449.87A3.411,3.411,0,0,1-32.735,15.891Zm-3.365-2.1A1.511,1.511,0,0,0-37.76,15.1h3.133a1.437,1.437,0,0,0-.471-.976A1.494,1.494,0,0,0-36.1,13.787Zm13.189-4.58H-21V19.4h-1.812l-.046-.889a1.949,1.949,0,0,1-.866.773A2.916,2.916,0,0,1-25,19.562a3.319,3.319,0,0,1-1.274-.246,3.164,3.164,0,0,1-1.045-.694,3.162,3.162,0,0,1-.707-1.125A4.15,4.15,0,0,1-28.288,16a3.879,3.879,0,0,1,.451-1.9,3.093,3.093,0,0,1,1.192-1.238A3.281,3.281,0,0,1-25,12.446a2.989,2.989,0,0,1,1.238.249,1.933,1.933,0,0,1,.853.707Zm-1.653,8.769a1.7,1.7,0,0,0,1.291-.544A1.993,1.993,0,0,0-22.759,16a2,2,0,0,0-.518-1.43,1.7,1.7,0,0,0-1.288-.548,1.72,1.72,0,0,0-1.3.538A2,2,0,0,0-26.376,16a1.987,1.987,0,0,0,.514,1.434A1.72,1.72,0,0,0-24.564,17.975Zm11.138-.425a6.384,6.384,0,0,0,.166,1.666V19.4h-1.786l-.153-.743a2.219,2.219,0,0,1-.956.657,3.523,3.523,0,0,1-1.235.219,3.246,3.246,0,0,1-.637-.06,2.166,2.166,0,0,1-.574-.2,1.742,1.742,0,0,1-.475-.355,1.557,1.557,0,0,1-.319-.541,2.155,2.155,0,0,1-.119-.74,2.052,2.052,0,0,1,.126-.74,1.735,1.735,0,0,1,.332-.554,2.013,2.013,0,0,1,.538-.4,4.114,4.114,0,0,1,.677-.292,8.09,8.09,0,0,1,.81-.212l1.122-.252a1.237,1.237,0,0,0,.508-.216.43.43,0,0,0,.149-.342.7.7,0,0,0-.335-.657,1.565,1.565,0,0,0-.813-.2,1.17,1.17,0,0,0-1.334,1.042l-1.693-.305a2.291,2.291,0,0,1,.989-1.557,3.931,3.931,0,0,1,2.144-.5q2.868,0,2.868,2.463Zm-3.365.69a1.537,1.537,0,0,0,1.182-.495,2.084,2.084,0,0,0,.458-1.464l-1.62.458a1.914,1.914,0,0,0-.68.279.573.573,0,0,0-.236.491.636.636,0,0,0,.252.541A1.044,1.044,0,0,0-16.791,18.241ZM-9.118,19.4a2.061,2.061,0,0,1-1.54-.554,2.156,2.156,0,0,1-.544-1.576V14.046h-1.341V12.579h.431a1.126,1.126,0,0,0,.85-.285,1.47,1.47,0,0,0,.272-1.016v-.9h1.726v2.2h1.407v1.467H-9.264v3.02q0,.883.79.883h.617V19.4Zm5.894.133a4.291,4.291,0,0,1-1.932-.418,3.125,3.125,0,0,1-1.324-1.228,3.66,3.66,0,0,1-.481-1.905A3.338,3.338,0,0,1-5.925,13.4a3.841,3.841,0,0,1,2.7-.949A3.851,3.851,0,0,1-.515,13.4,3.338,3.338,0,0,1,.52,15.984a3.357,3.357,0,0,1-1.036,2.6A3.843,3.843,0,0,1-3.223,19.535Zm-.02-1.52a1.752,1.752,0,0,0,1.351-.558,2.087,2.087,0,0,0,.514-1.474,2.087,2.087,0,0,0-.514-1.474,1.752,1.752,0,0,0-1.351-.558,1.687,1.687,0,0,0-1.311.561,2.107,2.107,0,0,0-.508,1.47,2.107,2.107,0,0,0,.508,1.47A1.687,1.687,0,0,0-3.243,18.015Zm7.587,1.52a3.813,3.813,0,0,1-1.991-.478,2.02,2.02,0,0,1-.976-1.421l1.6-.451A1.285,1.285,0,0,0,4.344,18.2a1.412,1.412,0,0,0,.7-.156.543.543,0,0,0,.272-.528.558.558,0,0,0-.113-.352.894.894,0,0,0-.348-.252,4.342,4.342,0,0,0-.465-.179q-.229-.073-.607-.176t-.631-.2a4.224,4.224,0,0,1-.6-.256,2.562,2.562,0,0,1-.5-.352,1.418,1.418,0,0,1-.372-.534,1.928,1.928,0,0,1-.129-.73,1.743,1.743,0,0,1,.74-1.527,3.307,3.307,0,0,1,1.935-.518,3.39,3.39,0,0,1,1.786.438,1.983,1.983,0,0,1,.916,1.367l-1.48.332a1.159,1.159,0,0,0-1.215-.863,1.33,1.33,0,0,0-.67.153.491.491,0,0,0-.266.451.517.517,0,0,0,.04.206.407.407,0,0,0,.139.166,2.033,2.033,0,0,0,.192.126,1.452,1.452,0,0,0,.272.11q.179.056.3.086l.348.09.355.093q.365.1.641.2a3.751,3.751,0,0,1,.587.279,2.108,2.108,0,0,1,.514.4,1.791,1.791,0,0,1,.335.564,2.084,2.084,0,0,1,.133.76,2.053,2.053,0,0,1-.229.989,1.719,1.719,0,0,1-.627.667,3.053,3.053,0,0,1-.886.358A4.6,4.6,0,0,1,4.344,19.535Z" transform="translate(363.48 77.23)" fill="#fff"/>
    </g>
    <g transform="matrix(1, 0, 0, 1, 682, 4132)" filter="url(#Trazado_50369)">
      <path id="Trazado_50369-2" data-name="Trazado 50369" d="M-64.608-3.3V-12.9h3.472a5.412,5.412,0,0,1,2,.345,3.686,3.686,0,0,1,1.434.979,4.259,4.259,0,0,1,.85,1.51A6.235,6.235,0,0,1-56.563-8.1a6.258,6.258,0,0,1-.289,1.965,4.259,4.259,0,0,1-.85,1.51,3.686,3.686,0,0,1-1.434.979,5.412,5.412,0,0,1-2,.345Zm1.991-1.759h1.381a2.356,2.356,0,0,0,1.938-.78,3.5,3.5,0,0,0,.637-2.26,3.5,3.5,0,0,0-.637-2.26,2.356,2.356,0,0,0-1.938-.78h-1.381Zm14.086-1.752-.02.458h-5.058a1.767,1.767,0,0,0,.544,1.248,1.741,1.741,0,0,0,1.2.431,1.677,1.677,0,0,0,.9-.236A1.449,1.449,0,0,0-50.39-5.6l1.752.259a2.979,2.979,0,0,1-1.195,1.6,3.552,3.552,0,0,1-2.018.571,3.694,3.694,0,0,1-2.658-.939,3.427,3.427,0,0,1-.986-2.605,3.447,3.447,0,0,1,.989-2.605,3.584,3.584,0,0,1,2.6-.953,3.425,3.425,0,0,1,2.449.87A3.411,3.411,0,0,1-48.531-6.816ZM-51.9-8.92a1.511,1.511,0,0,0-1.659,1.314h3.133a1.437,1.437,0,0,0-.471-.976A1.494,1.494,0,0,0-51.9-8.92ZM-44.536-3.3a2.061,2.061,0,0,1-1.54-.554,2.156,2.156,0,0,1-.544-1.576V-8.661h-1.341v-1.467h.431a1.126,1.126,0,0,0,.85-.285,1.47,1.47,0,0,0,.272-1.016v-.9h1.726v2.2h1.407v1.467h-1.407v3.02q0,.883.79.883h.617V-3.3ZM-35.4-6.816l-.02.458H-40.48a1.767,1.767,0,0,0,.544,1.248,1.741,1.741,0,0,0,1.2.431,1.677,1.677,0,0,0,.9-.236A1.448,1.448,0,0,0-37.26-5.6l1.752.259a2.979,2.979,0,0,1-1.195,1.6,3.552,3.552,0,0,1-2.018.571,3.694,3.694,0,0,1-2.658-.939,3.427,3.427,0,0,1-.986-2.605,3.447,3.447,0,0,1,.989-2.605,3.584,3.584,0,0,1,2.6-.953,3.425,3.425,0,0,1,2.449.87A3.411,3.411,0,0,1-35.4-6.816Zm-3.365-2.1a1.511,1.511,0,0,0-1.659,1.314h3.133a1.437,1.437,0,0,0-.471-.976A1.494,1.494,0,0,0-38.767-8.92Zm6.651-.126a2.215,2.215,0,0,1,.9-.82,2.734,2.734,0,0,1,1.334-.342V-8.5a2.585,2.585,0,0,0-1.633.412,1.8,1.8,0,0,0-.5,1.46V-3.3h-1.925v-6.824h1.832Zm11.437-1.215a2.607,2.607,0,0,1,1.759.554,1.983,1.983,0,0,1,.644,1.59V-3.3h-1.912V-7.572a1.14,1.14,0,0,0-.305-.863,1.069,1.069,0,0,0-.77-.292,1.233,1.233,0,0,0-.929.372,1.688,1.688,0,0,0-.358,1.2V-3.3h-1.932V-7.552a1.17,1.17,0,0,0-.305-.88,1.089,1.089,0,0,0-.79-.3,1.194,1.194,0,0,0-.923.392,1.87,1.87,0,0,0-.358,1.281V-3.3h-1.905v-6.824h1.905v.8a2.32,2.32,0,0,1,1.978-.936A2.918,2.918,0,0,1-23.6-10a1.748,1.748,0,0,1,.806.76A2.413,2.413,0,0,1-20.679-10.261Zm5.237-.889a1.073,1.073,0,0,1-.783-.322,1.057,1.057,0,0,1-.325-.78,1.044,1.044,0,0,1,.329-.773,1.077,1.077,0,0,1,.78-.322,1.058,1.058,0,0,1,.77.322,1.049,1.049,0,0,1,.325.773,1.057,1.057,0,0,1-.325.78A1.058,1.058,0,0,1-15.442-11.15ZM-16.418-3.3v-6.824h1.925V-3.3Zm7.932-6.956A2.66,2.66,0,0,1-6.6-9.647,2.277,2.277,0,0,1-5.943-7.9V-3.3H-7.861V-7.486A1.189,1.189,0,0,0-8.2-8.429a1.288,1.288,0,0,0-.88-.3,1.8,1.8,0,0,0-.571.086,1.467,1.467,0,0,0-.478.269,1.188,1.188,0,0,0-.342.514,2.379,2.379,0,0,0-.129.79V-3.3h-1.912v-6.824H-10.6v.757A2.629,2.629,0,0,1-8.485-10.261Zm9.99,5.1A6.384,6.384,0,0,0,1.671-3.49V-3.3H-.115l-.153-.743a2.219,2.219,0,0,1-.956.657,3.523,3.523,0,0,1-1.235.219,3.247,3.247,0,0,1-.637-.06,2.166,2.166,0,0,1-.574-.2,1.742,1.742,0,0,1-.475-.355,1.557,1.557,0,0,1-.319-.541,2.155,2.155,0,0,1-.119-.74,2.052,2.052,0,0,1,.126-.74,1.735,1.735,0,0,1,.332-.554,2.013,2.013,0,0,1,.538-.4,4.114,4.114,0,0,1,.677-.292,8.09,8.09,0,0,1,.81-.212l1.122-.252A1.237,1.237,0,0,0-.47-7.742a.43.43,0,0,0,.149-.342.7.7,0,0,0-.335-.657,1.565,1.565,0,0,0-.813-.2A1.17,1.17,0,0,0-2.8-7.9L-4.5-8.2A2.291,2.291,0,0,1-3.507-9.76a3.931,3.931,0,0,1,2.144-.5Q1.5-10.261,1.5-7.8Zm-3.365.69A1.537,1.537,0,0,0-.679-4.96,2.084,2.084,0,0,0-.221-6.424l-1.62.458a1.914,1.914,0,0,0-.68.279.573.573,0,0,0-.236.491.636.636,0,0,0,.252.541A1.044,1.044,0,0,0-1.861-4.466ZM6.3-3.178a3.646,3.646,0,0,1-2.635-.982A3.393,3.393,0,0,1,2.64-6.723,3.385,3.385,0,0,1,3.659-9.285,3.657,3.657,0,0,1,6.3-10.261a3.636,3.636,0,0,1,2.21.657A2.934,2.934,0,0,1,9.649-7.752l-1.766.192a1.513,1.513,0,0,0-.571-.9,1.736,1.736,0,0,0-1.036-.3A1.565,1.565,0,0,0,5.029-8.2a2.186,2.186,0,0,0-.478,1.474,2.189,2.189,0,0,0,.478,1.47,1.561,1.561,0,0,0,1.248.561,1.721,1.721,0,0,0,1.032-.3,1.548,1.548,0,0,0,.574-.9l1.766.192A2.942,2.942,0,0,1,8.5-3.842,3.621,3.621,0,0,1,6.3-3.178Zm5.689-7.972a1.073,1.073,0,0,1-.783-.322,1.057,1.057,0,0,1-.325-.78,1.044,1.044,0,0,1,.329-.773,1.077,1.077,0,0,1,.78-.322,1.058,1.058,0,0,1,.77.322,1.049,1.049,0,0,1,.325.773,1.057,1.057,0,0,1-.325.78A1.058,1.058,0,0,1,11.986-11.15ZM11.01-3.3v-6.824h1.925V-3.3ZM17.5-11.057,19.241-13.5l.943.664-1.507,1.779Zm.591,7.886a4.291,4.291,0,0,1-1.932-.418,3.125,3.125,0,0,1-1.324-1.228,3.66,3.66,0,0,1-.481-1.905,3.338,3.338,0,0,1,1.036-2.589,3.842,3.842,0,0,1,2.7-.949,3.851,3.851,0,0,1,2.708.949,3.338,3.338,0,0,1,1.036,2.589,3.357,3.357,0,0,1-1.036,2.6A3.843,3.843,0,0,1,18.093-3.171Zm-.02-1.52a1.752,1.752,0,0,0,1.351-.558,2.087,2.087,0,0,0,.514-1.474A2.087,2.087,0,0,0,19.424-8.2a1.752,1.752,0,0,0-1.351-.558,1.687,1.687,0,0,0-1.311.561,2.107,2.107,0,0,0-.508,1.47,2.107,2.107,0,0,0,.508,1.47A1.687,1.687,0,0,0,18.073-4.692Zm9.213-5.569a2.66,2.66,0,0,1,1.885.614A2.277,2.277,0,0,1,29.828-7.9V-3.3H27.91V-7.486a1.189,1.189,0,0,0-.342-.943,1.288,1.288,0,0,0-.88-.3,1.8,1.8,0,0,0-.571.086,1.466,1.466,0,0,0-.478.269,1.188,1.188,0,0,0-.342.514,2.379,2.379,0,0,0-.129.79V-3.3H23.257v-6.824h1.912v.757A2.629,2.629,0,0,1,27.286-10.261ZM-46.779,9.157h1.912v10.2H-46.68l-.046-.889a1.949,1.949,0,0,1-.866.773,2.916,2.916,0,0,1-1.278.275,3.319,3.319,0,0,1-1.274-.246,3.164,3.164,0,0,1-1.045-.694,3.162,3.162,0,0,1-.707-1.125,4.15,4.15,0,0,1-.259-1.494,3.879,3.879,0,0,1,.451-1.9,3.093,3.093,0,0,1,1.191-1.238A3.281,3.281,0,0,1-48.87,12.4a2.989,2.989,0,0,1,1.238.249,1.933,1.933,0,0,1,.853.707Zm-1.653,8.769a1.7,1.7,0,0,0,1.291-.544,1.993,1.993,0,0,0,.514-1.427,2,2,0,0,0-.518-1.43,1.7,1.7,0,0,0-1.288-.548,1.72,1.72,0,0,0-1.3.538,2,2,0,0,0-.514,1.44,1.987,1.987,0,0,0,.514,1.434A1.72,1.72,0,0,0-48.432,17.926Zm11.961-2.084-.02.458h-5.058A1.767,1.767,0,0,0-41,17.547a1.741,1.741,0,0,0,1.2.431,1.677,1.677,0,0,0,.9-.236,1.448,1.448,0,0,0,.574-.687l1.752.259a2.979,2.979,0,0,1-1.195,1.6,3.552,3.552,0,0,1-2.018.571,3.694,3.694,0,0,1-2.658-.939,3.427,3.427,0,0,1-.986-2.605,3.447,3.447,0,0,1,.989-2.605,3.584,3.584,0,0,1,2.6-.953,3.425,3.425,0,0,1,2.449.87A3.411,3.411,0,0,1-36.47,15.842Zm-3.365-2.1A1.511,1.511,0,0,0-41.5,15.052h3.133a1.437,1.437,0,0,0-.471-.976A1.494,1.494,0,0,0-39.836,13.737Zm4.819,5.616V9.157h1.932v10.2ZM-19.491,12.4a2.607,2.607,0,0,1,1.759.554,1.983,1.983,0,0,1,.644,1.59v4.812H-19V15.085a1.14,1.14,0,0,0-.305-.863,1.069,1.069,0,0,0-.77-.292A1.233,1.233,0,0,0-21,14.3a1.688,1.688,0,0,0-.358,1.2v3.85h-1.932V15.1a1.17,1.17,0,0,0-.305-.88,1.089,1.089,0,0,0-.79-.3,1.194,1.194,0,0,0-.923.392,1.87,1.87,0,0,0-.358,1.281v3.75h-1.905V12.529h1.905v.8a2.32,2.32,0,0,1,1.978-.936,2.918,2.918,0,0,1,1.284.262,1.748,1.748,0,0,1,.807.76A2.413,2.413,0,0,1-19.491,12.4Zm7.441,7.089a4.291,4.291,0,0,1-1.932-.418,3.125,3.125,0,0,1-1.324-1.228,3.66,3.66,0,0,1-.481-1.905,3.338,3.338,0,0,1,1.036-2.589,3.841,3.841,0,0,1,2.7-.949,3.851,3.851,0,0,1,2.708.949,3.338,3.338,0,0,1,1.036,2.589,3.357,3.357,0,0,1-1.036,2.6A3.843,3.843,0,0,1-12.05,19.486Zm-.02-1.52a1.752,1.752,0,0,0,1.351-.558,2.087,2.087,0,0,0,.514-1.474,2.087,2.087,0,0,0-.514-1.474A1.752,1.752,0,0,0-12.07,13.9a1.687,1.687,0,0,0-1.311.561,2.107,2.107,0,0,0-.508,1.47,2.107,2.107,0,0,0,.508,1.47A1.687,1.687,0,0,0-12.07,17.966ZM-2.047,9.157H-.135v10.2H-1.947l-.046-.889a1.949,1.949,0,0,1-.866.773,2.916,2.916,0,0,1-1.278.275,3.319,3.319,0,0,1-1.274-.246,3.164,3.164,0,0,1-1.045-.694,3.162,3.162,0,0,1-.707-1.125,4.15,4.15,0,0,1-.259-1.494,3.879,3.879,0,0,1,.451-1.9A3.093,3.093,0,0,1-5.78,12.815,3.281,3.281,0,0,1-4.137,12.4a2.989,2.989,0,0,1,1.238.249,1.933,1.933,0,0,1,.853.707ZM-3.7,17.926a1.7,1.7,0,0,0,1.291-.544,1.993,1.993,0,0,0,.514-1.427,2,2,0,0,0-.518-1.43A1.7,1.7,0,0,0-3.7,13.976a1.72,1.72,0,0,0-1.3.538,2,2,0,0,0-.514,1.44A1.987,1.987,0,0,0-5,17.388,1.72,1.72,0,0,0-3.7,17.926ZM8.262,15.842l-.02.458H3.184a1.767,1.767,0,0,0,.544,1.248,1.741,1.741,0,0,0,1.2.431,1.677,1.677,0,0,0,.9-.236,1.448,1.448,0,0,0,.574-.687l1.752.259a2.979,2.979,0,0,1-1.195,1.6,3.552,3.552,0,0,1-2.018.571,3.694,3.694,0,0,1-2.658-.939A3.427,3.427,0,0,1,1.3,15.941a3.447,3.447,0,0,1,.989-2.605,3.584,3.584,0,0,1,2.6-.953,3.425,3.425,0,0,1,2.449.87A3.411,3.411,0,0,1,8.262,15.842ZM4.9,13.737a1.511,1.511,0,0,0-1.659,1.314H6.37a1.437,1.437,0,0,0-.471-.976A1.494,1.494,0,0,0,4.9,13.737Zm4.819,5.616V9.157h1.932v10.2Zm7.089.133a4.291,4.291,0,0,1-1.932-.418,3.125,3.125,0,0,1-1.324-1.228,3.66,3.66,0,0,1-.481-1.905A3.338,3.338,0,0,1,14.1,13.346a3.842,3.842,0,0,1,2.7-.949,3.851,3.851,0,0,1,2.708.949,3.338,3.338,0,0,1,1.036,2.589,3.357,3.357,0,0,1-1.036,2.6A3.843,3.843,0,0,1,16.8,19.486Zm-.02-1.52a1.752,1.752,0,0,0,1.351-.558,2.087,2.087,0,0,0,.514-1.474,2.087,2.087,0,0,0-.514-1.474,1.752,1.752,0,0,0-1.351-.558,1.687,1.687,0,0,0-1.311.561,2.107,2.107,0,0,0-.508,1.47,2.107,2.107,0,0,0,.508,1.47A1.687,1.687,0,0,0,16.785,17.966Z" transform="translate(99.58 269.11)" fill="#fff"/>
    </g>
  </g>
</svg>
