<svg xmlns="http://www.w3.org/2000/svg" width="113.074" height="99.368" viewBox="0 0 113.074 99.368">
  <g id="Grupo_22751" data-name="Grupo 22751" transform="translate(-531.209 -2245.632)">
    <g id="Grupo_22750" data-name="Grupo 22750" transform="translate(-988.531 722.163)">
      <path id="Trazado_50288" data-name="Trazado 50288" d="M1617.107,1616.437h-2.376v-25.512a6.347,6.347,0,0,1,6.345-6.347h.038c8.25.049,16.674-.012,24.82-.069,13.167-.094,26.781-.191,40.116.166a6.314,6.314,0,0,1,6.176,6.349v8.714h-2.376v-8.714a3.95,3.95,0,0,0-3.863-3.973c-13.295-.356-26.889-.259-40.036-.165-8.154.058-16.585.119-24.851.07a3.969,3.969,0,0,0-3.993,3.97Z" transform="translate(-74.896 -48.058)" fill="#3d4451"/>
      <path id="Trazado_50289" data-name="Trazado 50289" d="M1553.637,1773.331l20.3-12.935-20.441-12.935-20.3,12.8Z" transform="translate(-10.61 -176.608)" fill="#a8c4cd"/>
      <rect id="Rectángulo_5171" data-name="Rectángulo 5171" width="29.574" height="17.893" rx="8.947" transform="translate(1598.055 1622.837) rotate(180)" fill="#c7ddeb"/>
      <g id="Grupo_22734" data-name="Grupo 22734" transform="translate(1562.127 1523.469)">
        <rect id="Rectángulo_5172" data-name="Rectángulo 5172" width="29.949" height="19.486" transform="translate(30.868 20.405) rotate(180)" fill="#c7ddeb"/>
        <path id="Trazado_50290" data-name="Trazado 50290" d="M1751.9,1544.792h-31.787v-21.323H1751.9Zm-29.949-1.837h28.111v-17.649h-28.111Z" transform="translate(-1720.113 -1523.469)" fill="#3d4451"/>
      </g>
      <g id="Grupo_22737" data-name="Grupo 22737" transform="translate(1540.736 1592.833)">
        <g id="Grupo_22736" data-name="Grupo 22736" transform="translate(0 0)">
          <g id="Grupo_22735" data-name="Grupo 22735">
            <rect id="Rectángulo_5173" data-name="Rectángulo 5173" width="2.982" height="1.714" transform="translate(22.149 17.931)" fill="#3d4451"/>
            <path id="Trazado_50291" data-name="Trazado 50291" d="M1662.6,1937.841h-5.229v-1.714h5.229Zm-7.843,0h-5.229v-1.714h5.229Z" transform="translate(-1643.07 -1918.196)" fill="#3d4451"/>
            <path id="Trazado_50292" data-name="Trazado 50292" d="M1622.831,1929.92h-3.84v-3.84h1.715v2.125h2.125Z" transform="translate(-1618.991 -1910.275)" fill="#3d4451"/>
            <rect id="Rectángulo_5174" data-name="Rectángulo 5174" width="1.714" height="6.406" transform="translate(0 6.194)" fill="#3d4451"/>
            <rect id="Rectángulo_5175" data-name="Rectángulo 5175" width="1.714" height="2.982" fill="#3d4451"/>
          </g>
        </g>
      </g>
      <path id="Trazado_50293" data-name="Trazado 50293" d="M1541.544,1751.829l-21.8-13.946,21.674-13.661,21.8,13.8Zm-17.32-13.932,17.323,11.08,17.188-10.951-17.323-10.963Z" transform="translate(0 -158.284)" fill="#3d4451"/>
      <path id="Trazado_50294" data-name="Trazado 50294" d="M1755.375,1912.933h-14.961a8.36,8.36,0,0,1-8.35-8.35v-3.28a8.36,8.36,0,0,1,8.35-8.351h14.961a8.36,8.36,0,0,1,8.35,8.351v3.28A8.36,8.36,0,0,1,1755.375,1912.933Zm-14.961-17.893a6.27,6.27,0,0,0-6.263,6.263v3.28a6.27,6.27,0,0,0,6.263,6.262h14.961a6.27,6.27,0,0,0,6.263-6.262v-3.28a6.27,6.27,0,0,0-6.263-6.263Z" transform="translate(-167.408 -291.322)" fill="#3d4451"/>
      <path id="Trazado_50295" data-name="Trazado 50295" d="M1728.786,1810.631H1726.7v-21.323h-19.07v-2.088h21.157Z" transform="translate(-148.142 -207.957)" fill="#3d4451"/>
      <g id="Grupo_22740" data-name="Grupo 22740" transform="translate(1599.781 1574.223)">
        <g id="Grupo_22738" data-name="Grupo 22738" transform="translate(0 5.954)">
          <path id="Trazado_50296" data-name="Trazado 50296" d="M1933.44,1791.54v6.788c0,2.642-7.017,4.785-15.674,4.785s-15.674-2.142-15.674-4.785v-6.788" transform="translate(-1901.25 -1791.54)" fill="#7eb9c7"/>
          <path id="Trazado_50297" data-name="Trazado 50297" d="M1914.625,1803.955a40.445,40.445,0,0,1-11.329-1.438c-3.394-1.036-5.188-2.484-5.188-4.189v-6.788h1.686v6.788c0,1.607,5.778,3.942,14.831,3.942a38.73,38.73,0,0,0,10.837-1.365c2.948-.9,3.994-1.951,3.994-2.577v-6.788h1.685v6.788c0,1.7-1.794,3.153-5.187,4.189A40.444,40.444,0,0,1,1914.625,1803.955Z" transform="translate(-1898.109 -1791.54)" fill="#3d4451"/>
        </g>
        <g id="Grupo_22739" data-name="Grupo 22739" transform="translate(0 0)">
          <ellipse id="Elipse_1215" data-name="Elipse 1215" cx="15.674" cy="4.785" rx="15.674" ry="4.785" transform="translate(0.843 0.842)" fill="#7eb9c7"/>
          <path id="Trazado_50298" data-name="Trazado 50298" d="M1914.625,1774.648a40.44,40.44,0,0,1-11.329-1.438c-3.394-1.036-5.188-2.485-5.188-4.189s1.794-3.153,5.188-4.189a45.345,45.345,0,0,1,22.658,0c3.394,1.036,5.187,2.485,5.187,4.189s-1.794,3.153-5.187,4.189A40.439,40.439,0,0,1,1914.625,1774.648Zm0-9.569a38.723,38.723,0,0,0-10.837,1.365c-2.948.9-3.994,1.951-3.994,2.577,0,1.607,5.778,3.942,14.831,3.942a38.735,38.735,0,0,0,10.837-1.365c2.948-.9,3.994-1.951,3.994-2.577C1929.456,1767.414,1923.679,1765.079,1914.625,1765.079Z" transform="translate(-1898.109 -1763.394)" fill="#3d4451"/>
        </g>
      </g>
      <g id="Grupo_22743" data-name="Grupo 22743" transform="translate(1599.781 1563.858)">
        <g id="Grupo_22741" data-name="Grupo 22741" transform="translate(0 5.196)">
          <path id="Trazado_50299" data-name="Trazado 50299" d="M1933.44,1738.959v6.788c0,2.643-7.017,4.785-15.674,4.785s-15.674-2.142-15.674-4.785v-6.788" transform="translate(-1901.25 -1738.959)" fill="#fdc345"/>
          <path id="Trazado_50300" data-name="Trazado 50300" d="M1914.625,1751.375a40.432,40.432,0,0,1-11.329-1.438c-3.394-1.036-5.188-2.485-5.188-4.189v-6.788h1.686v6.788c0,1.607,5.778,3.942,14.831,3.942a38.722,38.722,0,0,0,10.837-1.365c2.948-.9,3.994-1.951,3.994-2.577v-6.788h1.685v6.788c0,1.7-1.794,3.153-5.187,4.189A40.43,40.43,0,0,1,1914.625,1751.375Z" transform="translate(-1898.109 -1738.959)" fill="#3d4451"/>
        </g>
        <g id="Grupo_22742" data-name="Grupo 22742" transform="translate(0.033)">
          <ellipse id="Elipse_1216" data-name="Elipse 1216" cx="15.674" cy="4.422" rx="15.674" ry="4.422" transform="translate(0.81 0.81)" fill="#fdc345"/>
          <path id="Trazado_50301" data-name="Trazado 50301" d="M1914.747,1724.859c-8.192,0-16.484-1.8-16.484-5.232s8.292-5.232,16.484-5.232,16.484,1.8,16.484,5.232S1922.938,1724.859,1914.747,1724.859Zm0-8.844c-9.759,0-14.864,2.351-14.864,3.612s5.1,3.612,14.864,3.612,14.863-2.351,14.863-3.612S1924.505,1716.015,1914.747,1716.015Z" transform="translate(-1898.263 -1714.395)" fill="#3d4451"/>
        </g>
      </g>
      <g id="Grupo_22746" data-name="Grupo 22746" transform="translate(1599.781 1551.977)">
        <g id="Grupo_22744" data-name="Grupo 22744" transform="translate(0 5.954)">
          <path id="Trazado_50302" data-name="Trazado 50302" d="M1933.44,1686.377v6.788c0,2.642-7.017,4.785-15.674,4.785s-15.674-2.142-15.674-4.785v-6.788" transform="translate(-1901.25 -1686.377)" fill="#f04f4c"/>
          <path id="Trazado_50303" data-name="Trazado 50303" d="M1914.625,1698.792a40.444,40.444,0,0,1-11.329-1.438c-3.394-1.036-5.188-2.485-5.188-4.189v-6.788h1.686v6.788c0,1.607,5.778,3.942,14.831,3.942a38.726,38.726,0,0,0,10.837-1.365c2.948-.9,3.994-1.951,3.994-2.577v-6.788h1.685v6.788c0,1.7-1.794,3.153-5.187,4.189A40.444,40.444,0,0,1,1914.625,1698.792Z" transform="translate(-1898.109 -1686.377)" fill="#3d4451"/>
        </g>
        <g id="Grupo_22745" data-name="Grupo 22745" transform="translate(0 0)">
          <ellipse id="Elipse_1217" data-name="Elipse 1217" cx="15.674" cy="4.785" rx="15.674" ry="4.785" transform="translate(0.843 0.843)" fill="#f04f4c"/>
          <path id="Trazado_50304" data-name="Trazado 50304" d="M1914.625,1669.484a40.435,40.435,0,0,1-11.329-1.438c-3.394-1.036-5.188-2.484-5.188-4.189s1.794-3.153,5.188-4.189a45.342,45.342,0,0,1,22.658,0c3.394,1.036,5.187,2.485,5.187,4.189s-1.794,3.153-5.187,4.189A40.435,40.435,0,0,1,1914.625,1669.484Zm0-9.569a38.729,38.729,0,0,0-10.837,1.365c-2.948.9-3.994,1.951-3.994,2.577,0,1.607,5.778,3.942,14.831,3.942a38.735,38.735,0,0,0,10.837-1.365c2.948-.9,3.994-1.951,3.994-2.577C1929.456,1662.25,1923.679,1659.915,1914.625,1659.915Z" transform="translate(-1898.109 -1658.23)" fill="#3d4451"/>
        </g>
      </g>
      <g id="Grupo_22747" data-name="Grupo 22747" transform="translate(1555.183 1529.162)">
        <rect id="Rectángulo_5176" data-name="Rectángulo 5176" width="32.065" height="24.876" transform="translate(33.134 25.946) rotate(180)" fill="#c7ddeb"/>
        <path id="Trazado_50305" data-name="Trazado 50305" d="M1721.488,1577.4h-34.2v-27.015h34.2Zm-32.065-2.139h29.926v-22.737h-29.926Z" transform="translate(-1687.284 -1550.383)" fill="#3d4451"/>
      </g>
      <path id="Trazado_50306" data-name="Trazado 50306" d="M1773.939,1939.518h0a1.258,1.258,0,0,1,1.258-1.258h1.695a1.258,1.258,0,0,1,1.258,1.258h0a1.258,1.258,0,0,1-1.258,1.258H1775.2A1.258,1.258,0,0,1,1773.939,1939.518Zm-5.942,0h0a1.258,1.258,0,0,1,1.258-1.258h1.695a1.258,1.258,0,0,1,1.258,1.258h0a1.258,1.258,0,0,1-1.258,1.258h-1.695A1.258,1.258,0,0,1,1768,1939.518Zm12.286,0h0a1.258,1.258,0,0,1,1.258-1.258h1.695a1.258,1.258,0,0,1,1.258,1.258h0a1.258,1.258,0,0,1-1.258,1.258h-1.695A1.258,1.258,0,0,1,1780.284,1939.518Z" transform="translate(-195.741 -327.045)" fill="#3d4451"/>
      <g id="Grupo_22748" data-name="Grupo 22748" transform="translate(1573.482 1575.006)">
        <circle id="Elipse_1218" data-name="Elipse 1218" cx="4.683" cy="4.683" r="4.683" transform="translate(0.142 1.642) rotate(-9.217)" fill="#f04f4c"/>
        <path id="Trazado_50307" data-name="Trazado 50307" d="M1779.3,1778.121a5.514,5.514,0,1,1,5.514-5.514A5.521,5.521,0,0,1,1779.3,1778.121Zm0-9.365a3.851,3.851,0,1,0,3.851,3.851A3.856,3.856,0,0,0,1779.3,1768.755Z" transform="translate(-1773.787 -1767.092)" fill="#3d4451"/>
      </g>
      <g id="Grupo_22749" data-name="Grupo 22749" transform="translate(1536.348 1606.321)">
        <circle id="Elipse_1219" data-name="Elipse 1219" cx="4.468" cy="4.468" r="4.468" transform="translate(0.832 0.832)" fill="#7eb9c7"/>
        <path id="Trazado_50308" data-name="Trazado 50308" d="M1603.55,1925.725a5.3,5.3,0,1,1,5.3-5.3A5.306,5.306,0,0,1,1603.55,1925.725Zm0-8.937a3.637,3.637,0,1,0,3.636,3.637A3.641,3.641,0,0,0,1603.55,1916.788Z" transform="translate(-1598.25 -1915.125)" fill="#3d4451"/>
      </g>
      <path id="Trazado_50309" data-name="Trazado 50309" d="M1893.549,1871.341H1876.8v-2.377h16.751a2.94,2.94,0,0,0,2.937-2.937v-14.663h2.376v14.663A5.319,5.319,0,0,1,1893.549,1871.341Z" transform="translate(-281.525 -258.532)" fill="#3d4451"/>
      <path id="Trazado_50310" data-name="Trazado 50310" d="M1903.1,1705.145" transform="translate(-302.267 -143.244)" fill="none" stroke="#3d4451" stroke-miterlimit="10" stroke-width="10.081"/>
      <rect id="Rectángulo_5177" data-name="Rectángulo 5177" width="22.117" height="1.901" transform="translate(1560.726 1536.095)" fill="#3d4451"/>
      <rect id="Rectángulo_5178" data-name="Rectángulo 5178" width="22.117" height="1.901" transform="translate(1560.726 1541.324)" fill="#3d4451"/>
    </g>
  </g>
</svg>
