<svg xmlns="http://www.w3.org/2000/svg" width="539" height="453" viewBox="0 0 539 453">
  <g id="Group_22779" data-name="Group 22779" transform="translate(-691 -4729)">
    <g id="Path_50363" data-name="Path 50363" transform="translate(790 4782)" fill="#fff">
      <path d="M 166.5 332 C 155.2703704833984 332 144.0481262207031 330.8687438964844 133.1449127197266 328.6376342773438 C 122.5193328857422 326.4632873535156 112.0676651000977 323.2189025878906 102.0802536010742 318.9945983886719 C 92.27391815185547 314.8468627929688 82.81558227539063 309.7130737304688 73.96808624267578 303.7357788085938 C 65.20433044433594 297.8151245117188 56.96329116821289 291.015625 49.47383499145508 283.5261535644531 C 41.984375 276.0367126464844 35.18487548828125 267.795654296875 29.26420783996582 259.0319213867188 C 23.28691673278809 250.1844177246094 18.15312576293945 240.7260894775391 14.00541687011719 230.9197540283203 C 9.781083106994629 220.9323272705078 6.536708354949951 210.4806671142578 4.362374782562256 199.8550872802734 C 2.131249904632568 188.9518737792969 1 177.7296295166016 1 166.5 C 1 155.2703704833984 2.131249904632568 144.0481262207031 4.362374782562256 133.1449127197266 C 6.536708354949951 122.5193328857422 9.781083106994629 112.0676651000977 14.00541687011719 102.0802536010742 C 18.15312576293945 92.27391815185547 23.28691673278809 82.81558227539063 29.26420783996582 73.96808624267578 C 35.18487548828125 65.20433044433594 41.984375 56.96329116821289 49.47383499145508 49.47383499145508 C 56.96329116821289 41.984375 65.20433044433594 35.18487548828125 73.96808624267578 29.26420783996582 C 82.81558227539063 23.28691673278809 92.27391815185547 18.15312576293945 102.0802536010742 14.00541687011719 C 112.0676651000977 9.781083106994629 122.5193328857422 6.536708354949951 133.1449127197266 4.362374782562256 C 144.0481262207031 2.131249904632568 155.2703704833984 1 166.5 1 C 177.7296295166016 1 188.9518737792969 2.131249904632568 199.8550872802734 4.362374782562256 C 210.4806671142578 6.536708354949951 220.9323272705078 9.781083106994629 230.9197540283203 14.00541687011719 C 240.7260894775391 18.15312576293945 250.1844177246094 23.28691673278809 259.0319213867188 29.26420783996582 C 267.795654296875 35.18487548828125 276.0367126464844 41.984375 283.5261535644531 49.47383499145508 C 291.015625 56.96329116821289 297.8151245117188 65.20433044433594 303.7357788085938 73.96808624267578 C 309.7130737304688 82.81558227539063 314.8468627929688 92.27391815185547 318.9945983886719 102.0802536010742 C 323.2189025878906 112.0676651000977 326.4632873535156 122.5193328857422 328.6376342773438 133.1449127197266 C 330.8687438964844 144.0481262207031 332 155.2703704833984 332 166.5 C 332 177.7296295166016 330.8687438964844 188.9518737792969 328.6376342773438 199.8550872802734 C 326.4632873535156 210.4806671142578 323.2189025878906 220.9323272705078 318.9945983886719 230.9197540283203 C 314.8468627929688 240.7260894775391 309.7130737304688 250.1844177246094 303.7357788085938 259.0319213867188 C 297.8151245117188 267.795654296875 291.015625 276.0367126464844 283.5261535644531 283.5261535644531 C 276.0367126464844 291.015625 267.795654296875 297.8151245117188 259.0319213867188 303.7357788085938 C 250.1844177246094 309.7130737304688 240.7260894775391 314.8468627929688 230.9197540283203 318.9945983886719 C 220.9323272705078 323.2189025878906 210.4806671142578 326.4632873535156 199.8550872802734 328.6376342773438 C 188.9518737792969 330.8687438964844 177.7296295166016 332 166.5 332 Z" stroke="none"/>
      <path d="M 166.5 2 C 155.3375854492188 2 144.1827697753906 3.12445068359375 133.3454132080078 5.34210205078125 C 122.7844543457031 7.503173828125 112.3964080810547 10.727783203125 102.4697723388672 14.92642211914063 C 92.72291564941406 19.04901123046875 83.32191467285156 24.1517333984375 74.52786254882813 30.09280395507813 C 65.81689453125 35.97787475585938 57.62539672851563 42.7364501953125 50.18096923828125 50.18096923828125 C 42.7364501953125 57.62539672851563 35.97787475585938 65.81689453125 30.09280395507813 74.52786254882813 C 24.1517333984375 83.32191467285156 19.04901123046875 92.72291564941406 14.92642211914063 102.4697723388672 C 10.727783203125 112.3964080810547 7.503173828125 122.7844543457031 5.34210205078125 133.3454132080078 C 3.12445068359375 144.1827697753906 2 155.3375854492188 2 166.5 C 2 177.6624145507813 3.12445068359375 188.8172302246094 5.34210205078125 199.6545867919922 C 7.503173828125 210.2155456542969 10.727783203125 220.6035919189453 14.92642211914063 230.5302276611328 C 19.04901123046875 240.277099609375 24.1517333984375 249.6781005859375 30.09280395507813 258.4721374511719 C 35.97787475585938 267.18310546875 42.7364501953125 275.3746032714844 50.18096923828125 282.8190307617188 C 57.62539672851563 290.2635498046875 65.81689453125 297.0221252441406 74.52786254882813 302.9071960449219 C 83.32191467285156 308.8482666015625 92.72291564941406 313.9509887695313 102.4697723388672 318.0735778808594 C 112.3964080810547 322.272216796875 122.7844543457031 325.496826171875 133.3454132080078 327.6578979492188 C 144.1827697753906 329.8755493164063 155.3375854492188 331 166.5 331 C 177.6624145507813 331 188.8172302246094 329.8755493164063 199.6545867919922 327.6578979492188 C 210.2155456542969 325.496826171875 220.6035919189453 322.272216796875 230.5302276611328 318.0735778808594 C 240.277099609375 313.9509887695313 249.6781005859375 308.8482666015625 258.4721374511719 302.9071960449219 C 267.18310546875 297.0221252441406 275.3746032714844 290.2635498046875 282.8190307617188 282.8190307617188 C 290.2635498046875 275.3746032714844 297.0221252441406 267.18310546875 302.9071960449219 258.4721374511719 C 308.8482666015625 249.6781005859375 313.9509887695313 240.277099609375 318.0735778808594 230.5302276611328 C 322.272216796875 220.6035919189453 325.496826171875 210.2155456542969 327.6578979492188 199.6545867919922 C 329.8755493164063 188.8172302246094 331 177.6624145507813 331 166.5 C 331 155.3375854492188 329.8755493164063 144.1827697753906 327.6578979492188 133.3454132080078 C 325.496826171875 122.7844543457031 322.272216796875 112.3964080810547 318.0735778808594 102.4697723388672 C 313.9509887695313 92.72291564941406 308.8482666015625 83.32191467285156 302.9071960449219 74.52786254882813 C 297.0221252441406 65.81689453125 290.2635498046875 57.62539672851563 282.8190307617188 50.18096923828125 C 275.3746032714844 42.7364501953125 267.18310546875 35.97787475585938 258.4721374511719 30.09280395507813 C 249.6781005859375 24.1517333984375 240.277099609375 19.04901123046875 230.5302276611328 14.92642211914063 C 220.6035919189453 10.727783203125 210.2155456542969 7.503173828125 199.6545867919922 5.34210205078125 C 188.8172302246094 3.12445068359375 177.6624145507813 2 166.5 2 M 166.5 0 C 258.4554138183594 0 333 74.54458618164063 333 166.5 C 333 258.4554138183594 258.4554138183594 333 166.5 333 C 74.54458618164063 333 0 258.4554138183594 0 166.5 C 0 74.54458618164063 74.54458618164063 0 166.5 0 Z" stroke="none" fill="#fec558"/>
    </g>
    <path id="Path_50365" data-name="Path 50365" d="M99.5,0A99.5,99.5,0,1,1,0,99.5,99.5,99.5,0,0,1,99.5,0Z" transform="translate(1031 4983)" fill="#7eb9c7"/>
    <path id="Path_50364" data-name="Path 50364" d="M99.5,0A99.5,99.5,0,1,1,0,99.5,99.5,99.5,0,0,1,99.5,0Z" transform="translate(691 4983)" fill="#7eb9c7"/>
    <path id="Path_50366" data-name="Path 50366" d="M99.5,0A99.5,99.5,0,1,1,0,99.5,99.5,99.5,0,0,1,99.5,0Z" transform="translate(1031 4729)" fill="#7eb9c7"/>
    <path id="Path_50361" data-name="Path 50361" d="M99.5,0A99.5,99.5,0,1,1,0,99.5,99.5,99.5,0,0,1,99.5,0Z" transform="translate(691 4729)" fill="#7eb9c7"/>
    <path id="Path_50367" data-name="Path 50367" d="M-25.734,0l-.923-2.619h-5.335L-32.915,0h-2.7l4.676-12.7h3.226L-23.036,0Zm-5.484-4.825h3.788l-1.89-5.388Zm15.091-4.386a3.522,3.522,0,0,1,2.5.813,3.014,3.014,0,0,1,.87,2.316V0H-15.3V-5.537a1.574,1.574,0,0,0-.453-1.248,1.705,1.705,0,0,0-1.165-.4,2.379,2.379,0,0,0-.756.114,1.942,1.942,0,0,0-.633.356,1.573,1.573,0,0,0-.453.681,3.15,3.15,0,0,0-.171,1.046V0h-2.531V-9.035h2.531v1A3.481,3.481,0,0,1-16.128-9.211ZM-3.885-12.63l-2,2.355H-7.436l2.3-3.234ZM-2.9-2.452a8.453,8.453,0,0,0,.22,2.206V0H-5.045l-.2-.984a2.938,2.938,0,0,1-1.266.87,4.664,4.664,0,0,1-1.635.29A4.3,4.3,0,0,1-8.991.1a2.868,2.868,0,0,1-.76-.268,2.307,2.307,0,0,1-.628-.47,2.062,2.062,0,0,1-.422-.716,2.853,2.853,0,0,1-.158-.98,2.718,2.718,0,0,1,.167-.98,2.3,2.3,0,0,1,.439-.734,2.666,2.666,0,0,1,.712-.536,5.447,5.447,0,0,1,.9-.387,10.712,10.712,0,0,1,1.072-.281l1.485-.334a1.638,1.638,0,0,0,.672-.286.57.57,0,0,0,.2-.453.932.932,0,0,0-.444-.87,2.072,2.072,0,0,0-1.077-.264A1.549,1.549,0,0,0-8.6-6.082l-2.241-.4a3.034,3.034,0,0,1,1.31-2.061A5.2,5.2,0,0,1-6.7-9.211q3.8,0,3.8,3.261Zm-4.456.914a2.036,2.036,0,0,0,1.564-.655,2.759,2.759,0,0,0,.606-1.938l-2.145.606a2.534,2.534,0,0,0-.9.369.758.758,0,0,0-.312.65.842.842,0,0,0,.334.716A1.382,1.382,0,0,0-7.356-1.538ZM-.439,0V-13.5H2.118V0ZM6.029-10.389a1.421,1.421,0,0,1-1.037-.426,1.4,1.4,0,0,1-.431-1.033A1.382,1.382,0,0,1,5-12.872,1.425,1.425,0,0,1,6.029-13.3a1.4,1.4,0,0,1,1.02.426,1.389,1.389,0,0,1,.431,1.024,1.4,1.4,0,0,1-.431,1.033A1.4,1.4,0,0,1,6.029-10.389ZM4.737,0V-9.035H7.286V0Zm8.35.176A5.049,5.049,0,0,1,10.45-.457,2.675,2.675,0,0,1,9.158-2.338l2.118-.6a1.7,1.7,0,0,0,1.811,1.345A1.87,1.87,0,0,0,14.01-1.8a.719.719,0,0,0,.36-.7.739.739,0,0,0-.149-.466,1.183,1.183,0,0,0-.461-.334,5.749,5.749,0,0,0-.615-.237q-.3-.1-.8-.233T11.5-4.025a5.593,5.593,0,0,1-.8-.338,3.393,3.393,0,0,1-.659-.466,1.878,1.878,0,0,1-.492-.708A2.552,2.552,0,0,1,9.387-6.5a2.308,2.308,0,0,1,.98-2.021,4.379,4.379,0,0,1,2.562-.686,4.489,4.489,0,0,1,2.364.58A2.625,2.625,0,0,1,16.506-6.82l-1.96.439a1.535,1.535,0,0,0-1.608-1.143,1.761,1.761,0,0,0-.888.2.649.649,0,0,0-.352.6.685.685,0,0,0,.053.272.539.539,0,0,0,.185.22,2.692,2.692,0,0,0,.255.167,1.923,1.923,0,0,0,.36.145q.237.075.4.114l.461.119.47.123q.483.132.848.264a4.967,4.967,0,0,1,.778.369,2.792,2.792,0,0,1,.681.532,2.372,2.372,0,0,1,.444.747A2.759,2.759,0,0,1,16.8-2.646a2.718,2.718,0,0,1-.3,1.31,2.276,2.276,0,0,1-.831.883A4.043,4.043,0,0,1,14.5.022,6.087,6.087,0,0,1,13.087.176Zm6.829-10.564a1.421,1.421,0,0,1-1.037-.426,1.4,1.4,0,0,1-.431-1.033,1.382,1.382,0,0,1,.435-1.024,1.425,1.425,0,0,1,1.033-.426,1.4,1.4,0,0,1,1.02.426,1.389,1.389,0,0,1,.431,1.024,1.4,1.4,0,0,1-.431,1.033A1.4,1.4,0,0,1,19.916-10.389ZM18.624,0V-9.035h2.549V0Zm8.35.176a5.049,5.049,0,0,1-2.637-.633,2.675,2.675,0,0,1-1.292-1.881l2.118-.6a1.7,1.7,0,0,0,1.811,1.345A1.87,1.87,0,0,0,27.9-1.8a.719.719,0,0,0,.36-.7.739.739,0,0,0-.149-.466,1.183,1.183,0,0,0-.461-.334,5.749,5.749,0,0,0-.615-.237q-.3-.1-.8-.233t-.835-.259a5.593,5.593,0,0,1-.8-.338,3.393,3.393,0,0,1-.659-.466,1.878,1.878,0,0,1-.492-.708,2.552,2.552,0,0,1-.171-.967,2.308,2.308,0,0,1,.98-2.021,4.379,4.379,0,0,1,2.562-.686,4.489,4.489,0,0,1,2.364.58A2.625,2.625,0,0,1,30.393-6.82l-1.96.439a1.535,1.535,0,0,0-1.608-1.143,1.761,1.761,0,0,0-.888.2.649.649,0,0,0-.352.6.685.685,0,0,0,.053.272.539.539,0,0,0,.185.22,2.692,2.692,0,0,0,.255.167,1.923,1.923,0,0,0,.36.145q.237.075.4.114l.461.119.47.123q.483.132.848.264a4.967,4.967,0,0,1,.778.369,2.792,2.792,0,0,1,.681.532,2.372,2.372,0,0,1,.444.747,2.759,2.759,0,0,1,.176,1.006,2.718,2.718,0,0,1-.3,1.31,2.276,2.276,0,0,1-.831.883,4.043,4.043,0,0,1-1.173.475A6.087,6.087,0,0,1,26.974.176ZM-65.531,16.5H-63V30h-2.4l-.062-1.178a2.58,2.58,0,0,1-1.147,1.024,3.861,3.861,0,0,1-1.692.365,4.394,4.394,0,0,1-1.687-.325,4.189,4.189,0,0,1-1.384-.918,4.187,4.187,0,0,1-.936-1.49A5.5,5.5,0,0,1-72.65,25.5a5.137,5.137,0,0,1,.6-2.518,4.1,4.1,0,0,1,1.578-1.639,4.345,4.345,0,0,1,2.175-.554,3.957,3.957,0,0,1,1.639.33,2.559,2.559,0,0,1,1.129.936ZM-67.72,28.11a2.253,2.253,0,0,0,1.709-.721,2.638,2.638,0,0,0,.681-1.89,2.644,2.644,0,0,0-.686-1.894,2.251,2.251,0,0,0-1.705-.725,2.277,2.277,0,0,0-1.718.712,2.644,2.644,0,0,0-.681,1.907,2.631,2.631,0,0,0,.681,1.9A2.277,2.277,0,0,0-67.72,28.11Zm15.838-2.76-.026.606h-6.7a2.339,2.339,0,0,0,.721,1.652,2.3,2.3,0,0,0,1.591.571,2.221,2.221,0,0,0,1.191-.312,1.918,1.918,0,0,0,.76-.91l2.32.343A3.945,3.945,0,0,1-53.6,29.42a4.7,4.7,0,0,1-2.672.756,4.891,4.891,0,0,1-3.52-1.244,4.538,4.538,0,0,1-1.305-3.45,4.565,4.565,0,0,1,1.31-3.45,4.746,4.746,0,0,1,3.437-1.261,4.536,4.536,0,0,1,3.243,1.151A4.517,4.517,0,0,1-51.882,25.351Zm-4.456-2.786a2,2,0,0,0-2.2,1.74h4.148a1.9,1.9,0,0,0-.624-1.292A1.978,1.978,0,0,0-56.338,22.564ZM-45.281,30V16.5h2.558V30Zm9.387.176a5.681,5.681,0,0,1-2.558-.554A4.138,4.138,0,0,1-40.206,28a4.846,4.846,0,0,1-.637-2.522,4.42,4.42,0,0,1,1.371-3.428,5.086,5.086,0,0,1,3.577-1.257,5.1,5.1,0,0,1,3.586,1.257,4.42,4.42,0,0,1,1.371,3.428,4.444,4.444,0,0,1-1.371,3.441A5.088,5.088,0,0,1-35.895,30.176Zm-.026-2.013a2.319,2.319,0,0,0,1.789-.738,2.764,2.764,0,0,0,.681-1.951,2.764,2.764,0,0,0-.681-1.951,2.319,2.319,0,0,0-1.789-.738,2.234,2.234,0,0,0-1.736.743,2.789,2.789,0,0,0-.672,1.947,2.789,2.789,0,0,0,.672,1.947A2.234,2.234,0,0,0-35.921,28.163Zm10.046,2.013a5.049,5.049,0,0,1-2.637-.633A2.675,2.675,0,0,1-29.8,27.662l2.118-.6a1.7,1.7,0,0,0,1.811,1.345,1.87,1.87,0,0,0,.923-.207.719.719,0,0,0,.36-.7.739.739,0,0,0-.149-.466A1.183,1.183,0,0,0-25.2,26.7a5.749,5.749,0,0,0-.615-.237q-.3-.1-.8-.233t-.835-.259a5.593,5.593,0,0,1-.8-.338,3.393,3.393,0,0,1-.659-.466,1.878,1.878,0,0,1-.492-.708,2.552,2.552,0,0,1-.171-.967,2.308,2.308,0,0,1,.98-2.021,4.379,4.379,0,0,1,2.562-.686,4.489,4.489,0,0,1,2.364.58,2.625,2.625,0,0,1,1.213,1.811l-1.96.439a1.535,1.535,0,0,0-1.608-1.143,1.761,1.761,0,0,0-.888.2.649.649,0,0,0-.352.6.685.685,0,0,0,.053.272.539.539,0,0,0,.185.22,2.692,2.692,0,0,0,.255.167,1.923,1.923,0,0,0,.36.145q.237.075.4.114l.461.119.47.123q.483.132.848.264a4.967,4.967,0,0,1,.778.369,2.792,2.792,0,0,1,.681.532,2.372,2.372,0,0,1,.444.747,2.759,2.759,0,0,1,.176,1.006,2.718,2.718,0,0,1-.3,1.31,2.276,2.276,0,0,1-.831.883,4.043,4.043,0,0,1-1.173.475A6.087,6.087,0,0,1-25.875,30.176ZM-13.236,22.4a2.933,2.933,0,0,1,1.187-1.085,3.62,3.62,0,0,1,1.767-.453v2.259a3.423,3.423,0,0,0-2.162.545,2.379,2.379,0,0,0-.668,1.934V30h-2.549V20.965h2.426ZM-.352,25.351l-.026.606h-6.7a2.339,2.339,0,0,0,.721,1.652,2.3,2.3,0,0,0,1.591.571,2.221,2.221,0,0,0,1.191-.312,1.918,1.918,0,0,0,.76-.91l2.32.343A3.945,3.945,0,0,1-2.074,29.42a4.7,4.7,0,0,1-2.672.756,4.891,4.891,0,0,1-3.52-1.244,4.538,4.538,0,0,1-1.305-3.45,4.565,4.565,0,0,1,1.31-3.45,4.746,4.746,0,0,1,3.437-1.261,4.536,4.536,0,0,1,3.243,1.151A4.517,4.517,0,0,1-.352,25.351Zm-4.456-2.786A2,2,0,0,0-7,24.3h4.148a1.9,1.9,0,0,0-.624-1.292A1.978,1.978,0,0,0-4.808,22.564Zm9.563,7.611a5.049,5.049,0,0,1-2.637-.633A2.675,2.675,0,0,1,.826,27.662l2.118-.6a1.7,1.7,0,0,0,1.811,1.345,1.87,1.87,0,0,0,.923-.207.719.719,0,0,0,.36-.7.739.739,0,0,0-.149-.466,1.183,1.183,0,0,0-.461-.334,5.749,5.749,0,0,0-.615-.237q-.3-.1-.8-.233t-.835-.259a5.593,5.593,0,0,1-.8-.338,3.393,3.393,0,0,1-.659-.466,1.878,1.878,0,0,1-.492-.708,2.552,2.552,0,0,1-.171-.967,2.308,2.308,0,0,1,.98-2.021A4.379,4.379,0,0,1,4.6,20.789a4.489,4.489,0,0,1,2.364.58A2.625,2.625,0,0,1,8.174,23.18l-1.96.439a1.535,1.535,0,0,0-1.608-1.143,1.761,1.761,0,0,0-.888.2.649.649,0,0,0-.352.6.685.685,0,0,0,.053.272.539.539,0,0,0,.185.22,2.692,2.692,0,0,0,.255.167,1.923,1.923,0,0,0,.36.145q.237.075.4.114l.461.119.47.123q.483.132.848.264a4.967,4.967,0,0,1,.778.369,2.792,2.792,0,0,1,.681.532,2.372,2.372,0,0,1,.444.747,2.759,2.759,0,0,1,.176,1.006,2.718,2.718,0,0,1-.3,1.31,2.276,2.276,0,0,1-.831.883,4.043,4.043,0,0,1-1.173.475A6.087,6.087,0,0,1,4.755,30.176Zm11.522-9.211h2.531V30h-2.4l-.062-1.09a3.45,3.45,0,0,1-2.874,1.266,3.522,3.522,0,0,1-2.5-.813,3.014,3.014,0,0,1-.87-2.316V20.965h2.54V26.5a1.562,1.562,0,0,0,.453,1.239,1.718,1.718,0,0,0,1.173.4,2.038,2.038,0,0,0,1.437-.514,2.209,2.209,0,0,0,.567-1.674ZM21.428,30V16.5h2.558V30Zm8.543,0a2.729,2.729,0,0,1-2.039-.734,2.854,2.854,0,0,1-.721-2.087V22.907H25.436V20.965h.571a1.491,1.491,0,0,0,1.125-.378,1.946,1.946,0,0,0,.36-1.345v-1.2h2.285v2.918h1.863v1.942H29.777v4q0,1.169,1.046,1.169h.817V30Zm11-2.452a8.453,8.453,0,0,0,.22,2.206V30H38.83l-.2-.984a2.938,2.938,0,0,1-1.266.87,4.664,4.664,0,0,1-1.635.29,4.3,4.3,0,0,1-.844-.079,2.868,2.868,0,0,1-.76-.268,2.307,2.307,0,0,1-.628-.47,2.062,2.062,0,0,1-.422-.716,2.853,2.853,0,0,1-.158-.98,2.718,2.718,0,0,1,.167-.98,2.3,2.3,0,0,1,.439-.734,2.666,2.666,0,0,1,.712-.536,5.447,5.447,0,0,1,.9-.387,10.712,10.712,0,0,1,1.072-.281l1.485-.334a1.638,1.638,0,0,0,.672-.286.57.57,0,0,0,.2-.453.932.932,0,0,0-.444-.87,2.072,2.072,0,0,0-1.077-.264,1.549,1.549,0,0,0-1.767,1.38l-2.241-.4a3.034,3.034,0,0,1,1.31-2.061,5.2,5.2,0,0,1,2.839-.664q3.8,0,3.8,3.261Zm-4.456.914a2.036,2.036,0,0,0,1.564-.655,2.759,2.759,0,0,0,.606-1.938l-2.145.606a2.534,2.534,0,0,0-.9.369.758.758,0,0,0-.312.65.842.842,0,0,0,.334.716A1.382,1.382,0,0,0,36.519,28.462ZM49.641,16.5h2.531V30h-2.4l-.062-1.178a2.58,2.58,0,0,1-1.147,1.024,3.861,3.861,0,0,1-1.692.365,4.394,4.394,0,0,1-1.687-.325,4.064,4.064,0,0,1-2.32-2.408,5.5,5.5,0,0,1-.343-1.978,5.137,5.137,0,0,1,.6-2.518A4.1,4.1,0,0,1,44.7,21.343a4.345,4.345,0,0,1,2.175-.554,3.957,3.957,0,0,1,1.639.33,2.559,2.559,0,0,1,1.129.936ZM47.452,28.11a2.253,2.253,0,0,0,1.709-.721,2.96,2.96,0,0,0,0-3.784,2.251,2.251,0,0,0-1.705-.725,2.277,2.277,0,0,0-1.718.712,2.644,2.644,0,0,0-.681,1.907,2.631,2.631,0,0,0,.681,1.9A2.277,2.277,0,0,0,47.452,28.11ZM59,30.176a5.681,5.681,0,0,1-2.558-.554A4.138,4.138,0,0,1,54.69,28a4.846,4.846,0,0,1-.637-2.522,4.42,4.42,0,0,1,1.371-3.428,5.731,5.731,0,0,1,7.163,0,4.42,4.42,0,0,1,1.371,3.428,4.444,4.444,0,0,1-1.371,3.441A5.088,5.088,0,0,1,59,30.176Zm-.026-2.013a2.319,2.319,0,0,0,1.789-.738,2.764,2.764,0,0,0,.681-1.951,2.764,2.764,0,0,0-.681-1.951,2.319,2.319,0,0,0-1.789-.738,2.234,2.234,0,0,0-1.736.743,3.155,3.155,0,0,0,0,3.894A2.234,2.234,0,0,0,58.975,28.163Zm10.046,2.013a5.049,5.049,0,0,1-2.637-.633,2.675,2.675,0,0,1-1.292-1.881l2.118-.6a1.7,1.7,0,0,0,1.811,1.345,1.87,1.87,0,0,0,.923-.207.719.719,0,0,0,.36-.7.739.739,0,0,0-.149-.466,1.183,1.183,0,0,0-.461-.334,5.749,5.749,0,0,0-.615-.237q-.3-.1-.8-.233t-.835-.259a5.593,5.593,0,0,1-.8-.338,3.393,3.393,0,0,1-.659-.466,1.878,1.878,0,0,1-.492-.708,2.552,2.552,0,0,1-.171-.967,2.308,2.308,0,0,1,.98-2.021,4.379,4.379,0,0,1,2.562-.686,4.489,4.489,0,0,1,2.364.58,2.625,2.625,0,0,1,1.213,1.811l-1.96.439a1.535,1.535,0,0,0-1.608-1.143,1.761,1.761,0,0,0-.888.2.649.649,0,0,0-.352.6.685.685,0,0,0,.053.272.539.539,0,0,0,.185.22,2.692,2.692,0,0,0,.255.167,1.923,1.923,0,0,0,.36.145q.237.075.4.114l.461.119.47.123q.483.132.848.264a4.967,4.967,0,0,1,.778.369,2.792,2.792,0,0,1,.681.532,2.372,2.372,0,0,1,.444.747,2.759,2.759,0,0,1,.176,1.006,2.718,2.718,0,0,1-.3,1.31,2.276,2.276,0,0,1-.831.883,4.043,4.043,0,0,1-1.173.475A6.087,6.087,0,0,1,69.021,30.176Z" transform="translate(1131 5073)" fill="#fff"/>
    <g id="Group_22777" data-name="Group 22777" transform="translate(-2663.715 3343.273)">
      <path id="Path_50341" data-name="Path 50341" d="M3671.725,1699.414c0,7.058-4.243,13.205-9.706,13.205h-57.781c-5.463,0-10.086-6.147-10.086-13.205v-93.251c0-7.058,4.623-12.451,10.086-12.451h57.781c5.463,0,9.706,5.393,9.706,12.451Z" transform="translate(-28.209 -31.511)" fill="#c7ddeb"/>
      <path id="Path_50342" data-name="Path 50342" d="M3623.678,1679.343h-58.021c-6.473,0-11.942-6.828-11.942-14.911v-92.481c0-7.809,5.357-14.163,11.942-14.163h58.021c6.483,0,11.562,6.221,11.562,14.163v92.481C3635.24,1672.655,3630.053,1679.343,3623.678,1679.343Zm-58.021-117.926c-4.584,0-8.313,4.726-8.313,10.534v92.481c0,6.01,3.885,11.282,8.313,11.282h58.021c4.3,0,7.933-5.167,7.933-11.282v-92.481c0-5.907-3.485-10.534-7.933-10.534Z" transform="translate(0 -6.451)" fill="#3d4451"/>
      <g id="Group_22766" data-name="Group 22766" transform="translate(3585.097 1645.474)">
        <path id="Path_50343" data-name="Path 50343" d="M3677.056,1880.805c0,3.559-3.2,6.444-7.144,6.444s-7.145-2.885-7.145-6.444,3.2-6.445,7.145-6.445S3677.056,1877.247,3677.056,1880.805Z" transform="translate(-3661.172 -1872.766)" fill="#f04f4c"/>
        <path id="Path_50344" data-name="Path 50344" d="M3666.233,1885.166c-4.819,0-8.74-3.607-8.74-8.04s3.921-8.039,8.74-8.039,8.739,3.606,8.739,8.039S3671.051,1885.166,3666.233,1885.166Zm0-12.889c-3.061,0-5.55,2.175-5.55,4.849s2.49,4.85,5.55,4.85,5.549-2.175,5.549-4.85S3669.292,1872.277,3666.233,1872.277Z" transform="translate(-3657.493 -1869.087)" fill="#3d4451"/>
      </g>
      <rect id="Rectangle_5190" data-name="Rectangle 5190" width="3.19" height="117.926" transform="translate(3569.442 1553.152)" fill="#3d4451"/>
      <rect id="Rectangle_5191" data-name="Rectangle 5191" width="3.19" height="117.926" transform="translate(3614.159 1553.152)" fill="#3d4451"/>
      <g id="Group_22767" data-name="Group 22767" transform="translate(3570.322 1624.947)">
        <rect id="Rectangle_5192" data-name="Rectangle 5192" width="43.997" height="9.501" transform="translate(1.435 1.435)" fill="#7eb9c7"/>
        <path id="Path_50345" data-name="Path 50345" d="M3655.5,1813.579h-46.868v-12.372H3655.5Zm-44-2.871h41.125v-6.63H3611.5Z" transform="translate(-3608.633 -1801.207)" fill="#3d4451"/>
      </g>
      <g id="Group_22768" data-name="Group 22768" transform="translate(3570.322 1605.267)">
        <rect id="Rectangle_5193" data-name="Rectangle 5193" width="43.997" height="9.501" transform="translate(1.435 1.435)" fill="#7eb9c7"/>
        <path id="Path_50346" data-name="Path 50346" d="M3655.5,1748.5h-46.868v-12.372H3655.5Zm-44-2.871h41.125V1739H3611.5Z" transform="translate(-3608.633 -1736.127)" fill="#3d4451"/>
      </g>
      <g id="Group_22769" data-name="Group 22769" transform="translate(3570.322 1584.229)">
        <rect id="Rectangle_5194" data-name="Rectangle 5194" width="43.997" height="9.501" transform="translate(1.435 1.436)" fill="#7eb9c7"/>
        <path id="Path_50347" data-name="Path 50347" d="M3655.5,1678.93h-46.868v-12.372H3655.5Zm-44-2.871h41.125v-6.63H3611.5Z" transform="translate(-3608.633 -1666.558)" fill="#3d4451"/>
      </g>
      <g id="Group_22770" data-name="Group 22770" transform="translate(3570.322 1564.889)">
        <rect id="Rectangle_5195" data-name="Rectangle 5195" width="43.997" height="9.501" transform="translate(1.435 1.435)" fill="#7eb9c7"/>
        <path id="Path_50348" data-name="Path 50348" d="M3655.5,1614.972h-46.868V1602.6H3655.5Zm-44-2.871h41.125v-6.63H3611.5Z" transform="translate(-3608.633 -1602.6)" fill="#3d4451"/>
      </g>
      <rect id="Rectangle_5196" data-name="Rectangle 5196" width="20.195" height="3.106" transform="translate(3635.228 1576.553)" fill="#3d4451"/>
      <rect id="Rectangle_5197" data-name="Rectangle 5197" width="20.195" height="3.106" transform="translate(3633.425 1654.5)" fill="#3d4451"/>
      <rect id="Rectangle_5198" data-name="Rectangle 5198" width="20.195" height="3.106" transform="translate(3635.228 1616.568)" fill="#3d4451"/>
      <g id="Group_22771" data-name="Group 22771" transform="translate(3653.415 1653.959)">
        <path id="Path_50349" data-name="Path 50349" d="M3926.292,1897.146v8.836c0,3.44-8.8,6.228-19.66,6.228s-19.66-2.788-19.66-6.228v-8.836" transform="translate(-3885.896 -1897.146)" fill="#7eb9c7"/>
        <path id="Path_50350" data-name="Path 50350" d="M3904.149,1913.287a49.046,49.046,0,0,1-14.227-1.874c-4.259-1.349-6.51-3.227-6.51-5.43v-8.836h2.153v8.836c0,2.151,7.07,5.151,18.583,5.151s18.583-3,18.583-5.151v-8.836h2.154v8.836c0,2.2-2.251,4.081-6.51,5.43A49.043,49.043,0,0,1,3904.149,1913.287Z" transform="translate(-3883.412 -1897.146)" fill="#3d4451"/>
      </g>
      <g id="Group_22772" data-name="Group 22772" transform="translate(3653.415 1646.229)">
        <ellipse id="Ellipse_1226" data-name="Ellipse 1226" cx="19.66" cy="6.228" rx="19.66" ry="6.228" transform="translate(1.077 1.077)" fill="#7eb9c7"/>
        <path id="Path_50351" data-name="Path 50351" d="M3904.149,1886.191a49.041,49.041,0,0,1-14.227-1.875c-4.259-1.349-6.51-3.227-6.51-5.43s2.251-4.081,6.51-5.43a54.934,54.934,0,0,1,28.454,0c4.259,1.349,6.51,3.227,6.51,5.43s-2.251,4.081-6.51,5.43A49.037,49.037,0,0,1,3904.149,1886.191Zm0-12.457c-11.514,0-18.583,3-18.583,5.151s7.07,5.151,18.583,5.151,18.583-3,18.583-5.151S3915.663,1873.734,3904.149,1873.734Z" transform="translate(-3883.412 -1871.581)" fill="#3d4451"/>
      </g>
      <g id="Group_22773" data-name="Group 22773" transform="translate(3652.777 1613.203)">
        <path id="Path_50352" data-name="Path 50352" d="M3924.183,1762.37v8.837c0,3.439-8.8,6.228-19.66,6.228s-19.66-2.789-19.66-6.228v-8.837" transform="translate(-3883.786 -1762.37)" fill="#fdc345"/>
        <path id="Path_50353" data-name="Path 50353" d="M3902.039,1778.511a49.042,49.042,0,0,1-14.227-1.874c-4.259-1.349-6.51-3.227-6.51-5.43v-8.837h2.154v8.837c0,2.151,7.07,5.151,18.583,5.151s18.584-3,18.584-5.151v-8.837h2.153v8.837c0,2.2-2.251,4.081-6.51,5.43A49.038,49.038,0,0,1,3902.039,1778.511Z" transform="translate(-3881.302 -1762.37)" fill="#3d4451"/>
      </g>
      <g id="Group_22774" data-name="Group 22774" transform="translate(3652.819 1606.458)">
        <ellipse id="Ellipse_1227" data-name="Ellipse 1227" cx="19.66" cy="5.756" rx="19.66" ry="5.756" transform="translate(1.035 1.035)" fill="#fdc345"/>
        <path id="Path_50354" data-name="Path 50354" d="M3902.135,1753.647c-10.285,0-20.7-2.333-20.7-6.791s10.411-6.791,20.7-6.791,20.695,2.333,20.695,6.791S3912.419,1753.647,3902.135,1753.647Zm0-11.512c-11.37,0-18.626,2.8-18.626,4.721s7.256,4.721,18.626,4.721,18.625-2.8,18.625-4.721S3913.5,1742.135,3902.135,1742.135Z" transform="translate(-3881.439 -1740.065)" fill="#3d4451"/>
      </g>
      <g id="Group_22775" data-name="Group 22775" transform="translate(3652.777 1573.588)">
        <path id="Path_50355" data-name="Path 50355" d="M3924.183,1631.367v8.836c0,3.44-8.8,6.228-19.66,6.228s-19.66-2.788-19.66-6.228v-8.836" transform="translate(-3883.786 -1631.367)" fill="#f04f4c"/>
        <path id="Path_50356" data-name="Path 50356" d="M3902.039,1647.508a49.045,49.045,0,0,1-14.227-1.874c-4.259-1.349-6.51-3.227-6.51-5.431v-8.836h2.154v8.836c0,2.151,7.07,5.151,18.583,5.151s18.584-3,18.584-5.151v-8.836h2.153v8.836c0,2.2-2.251,4.081-6.51,5.431A49.043,49.043,0,0,1,3902.039,1647.508Z" transform="translate(-3881.302 -1631.367)" fill="#3d4451"/>
      </g>
      <g id="Group_22776" data-name="Group 22776" transform="translate(3652.777 1565.857)">
        <ellipse id="Ellipse_1228" data-name="Ellipse 1228" cx="19.66" cy="6.228" rx="19.66" ry="6.228" transform="translate(1.077 1.077)" fill="#f04f4c"/>
        <path id="Path_50357" data-name="Path 50357" d="M3902.039,1620.412a49.055,49.055,0,0,1-14.227-1.874c-4.259-1.349-6.51-3.227-6.51-5.431s2.251-4.081,6.51-5.43a54.934,54.934,0,0,1,28.454,0c4.259,1.349,6.51,3.227,6.51,5.43s-2.251,4.081-6.51,5.431A49.052,49.052,0,0,1,3902.039,1620.412Zm0-12.456c-11.514,0-18.583,3-18.583,5.151s7.07,5.151,18.583,5.151,18.584-3,18.584-5.151S3913.552,1607.956,3902.039,1607.956Z" transform="translate(-3881.302 -1605.803)" fill="#3d4451"/>
      </g>
      <path id="Path_50358" data-name="Path 50358" d="M3916.815,1572.527a2.812,2.812,0,0,1-1.911-.847l-9.385-9.316a2.1,2.1,0,0,1,.207-3.207,2.808,2.808,0,0,1,3.614.17l7.348,7.252,15.27-17.172a2.8,2.8,0,0,1,3.594-.387,2.08,2.08,0,0,1,.436,3.165l-17.159,19.384a2.692,2.692,0,0,1-1.933.957Z" transform="translate(-244.966)" fill="#3d4451"/>
      <path id="Path_50359" data-name="Path 50359" d="M3920.507,1710.178a2.811,2.811,0,0,1-1.911-.847l-9.385-9.316a2.1,2.1,0,0,1,.207-3.208,2.809,2.809,0,0,1,3.614.17l7.348,7.252,15.27-17.172a2.8,2.8,0,0,1,3.594-.387,2.08,2.08,0,0,1,.436,3.165l-17.159,19.384a2.692,2.692,0,0,1-1.933.958Z" transform="translate(-247.541 -96.026)" fill="#3d4451"/>
      <path id="Path_50360" data-name="Path 50360" d="M3922.089,1841.5a2.812,2.812,0,0,1-1.911-.847l-9.384-9.316a2.1,2.1,0,0,1,.207-3.207,2.809,2.809,0,0,1,3.614.17l7.348,7.252,15.27-17.172a2.8,2.8,0,0,1,3.594-.387,2.079,2.079,0,0,1,.436,3.165l-17.159,19.384a2.694,2.694,0,0,1-1.934.957Z" transform="translate(-248.645 -187.636)" fill="#3d4451"/>
    </g>
    <path id="Path_50362" data-name="Path 50362" d="M-77.937,0V-12.7h4.6a7.166,7.166,0,0,1,2.65.457,4.881,4.881,0,0,1,1.9,1.3,5.64,5.64,0,0,1,1.125,2,8.255,8.255,0,0,1,.382,2.593,8.286,8.286,0,0,1-.382,2.6,5.64,5.64,0,0,1-1.125,2,4.881,4.881,0,0,1-1.9,1.3A7.166,7.166,0,0,1-73.34,0ZM-75.3-2.329h1.828a3.12,3.12,0,0,0,2.566-1.033,4.629,4.629,0,0,0,.844-2.993,4.629,4.629,0,0,0-.844-2.993,3.12,3.12,0,0,0-2.566-1.033H-75.3Zm18.65-2.32-.026.606h-6.7a2.339,2.339,0,0,0,.721,1.652,2.3,2.3,0,0,0,1.591.571,2.221,2.221,0,0,0,1.191-.312,1.918,1.918,0,0,0,.76-.91l2.32.343A3.945,3.945,0,0,1-58.373-.58a4.7,4.7,0,0,1-2.672.756,4.891,4.891,0,0,1-3.52-1.244,4.538,4.538,0,0,1-1.305-3.45,4.565,4.565,0,0,1,1.31-3.45,4.746,4.746,0,0,1,3.437-1.261A4.536,4.536,0,0,1-57.88-8.077,4.517,4.517,0,0,1-56.65-4.649Zm-4.456-2.786A2,2,0,0,0-63.3-5.7h4.148a1.9,1.9,0,0,0-.624-1.292A1.978,1.978,0,0,0-61.106-7.436ZM-51.359,0A2.729,2.729,0,0,1-53.4-.734a2.854,2.854,0,0,1-.721-2.087V-7.093h-1.775V-9.035h.571A1.491,1.491,0,0,0-54.2-9.413a1.946,1.946,0,0,0,.36-1.345v-1.2h2.285v2.918h1.863v1.942h-1.863v4q0,1.169,1.046,1.169h.817V0Zm12.094-4.649-.026.606h-6.7a2.339,2.339,0,0,0,.721,1.652,2.3,2.3,0,0,0,1.591.571,2.221,2.221,0,0,0,1.191-.312,1.918,1.918,0,0,0,.76-.91l2.32.343A3.945,3.945,0,0,1-40.988-.58,4.7,4.7,0,0,1-43.66.176a4.891,4.891,0,0,1-3.52-1.244,4.538,4.538,0,0,1-1.305-3.45,4.565,4.565,0,0,1,1.31-3.45,4.746,4.746,0,0,1,3.437-1.261A4.536,4.536,0,0,1-40.5-8.077,4.517,4.517,0,0,1-39.265-4.649Zm-4.456-2.786a2,2,0,0,0-2.2,1.74h4.148a1.9,1.9,0,0,0-.624-1.292A1.978,1.978,0,0,0-43.721-7.436Zm8.807-.167a2.933,2.933,0,0,1,1.187-1.085,3.62,3.62,0,0,1,1.767-.453v2.259a3.423,3.423,0,0,0-2.162.545A2.379,2.379,0,0,0-34.792-4.4V0H-37.34V-9.035h2.426Zm15.144-1.608a3.452,3.452,0,0,1,2.329.734,2.626,2.626,0,0,1,.853,2.1V0h-2.531V-5.651a1.509,1.509,0,0,0-.4-1.143,1.416,1.416,0,0,0-1.02-.387,1.633,1.633,0,0,0-1.23.492A2.235,2.235,0,0,0-22.25-5.1V0h-2.558V-5.625a1.549,1.549,0,0,0-.4-1.165,1.441,1.441,0,0,0-1.046-.391,1.581,1.581,0,0,0-1.222.519,2.476,2.476,0,0,0-.475,1.7V0h-2.522V-9.035h2.522v1.063a3.072,3.072,0,0,1,2.619-1.239,3.863,3.863,0,0,1,1.7.347,2.315,2.315,0,0,1,1.068,1.006A3.2,3.2,0,0,1-19.771-9.211Zm6.935-1.178a1.421,1.421,0,0,1-1.037-.426,1.4,1.4,0,0,1-.431-1.033,1.382,1.382,0,0,1,.435-1.024,1.425,1.425,0,0,1,1.033-.426,1.4,1.4,0,0,1,1.02.426,1.389,1.389,0,0,1,.431,1.024,1.4,1.4,0,0,1-.431,1.033A1.4,1.4,0,0,1-12.836-10.389ZM-14.128,0V-9.035h2.549V0Zm10.5-9.211a3.522,3.522,0,0,1,2.5.813,3.014,3.014,0,0,1,.87,2.316V0H-2.8V-5.537a1.574,1.574,0,0,0-.453-1.248,1.705,1.705,0,0,0-1.165-.4,2.379,2.379,0,0,0-.756.114,1.942,1.942,0,0,0-.633.356,1.573,1.573,0,0,0-.453.681,3.15,3.15,0,0,0-.171,1.046V0H-8.96V-9.035h2.531v1A3.481,3.481,0,0,1-3.625-9.211ZM9.6-2.452a8.453,8.453,0,0,0,.22,2.206V0H7.458l-.2-.984a2.938,2.938,0,0,1-1.266.87,4.664,4.664,0,0,1-1.635.29A4.3,4.3,0,0,1,3.511.1a2.868,2.868,0,0,1-.76-.268,2.307,2.307,0,0,1-.628-.47A2.062,2.062,0,0,1,1.7-1.358a2.853,2.853,0,0,1-.158-.98,2.718,2.718,0,0,1,.167-.98,2.3,2.3,0,0,1,.439-.734,2.666,2.666,0,0,1,.712-.536,5.447,5.447,0,0,1,.9-.387A10.712,10.712,0,0,1,4.83-5.256L6.315-5.59a1.638,1.638,0,0,0,.672-.286.57.57,0,0,0,.2-.453.932.932,0,0,0-.444-.87,2.072,2.072,0,0,0-1.077-.264A1.549,1.549,0,0,0,3.9-6.082l-2.241-.4a3.034,3.034,0,0,1,1.31-2.061,5.2,5.2,0,0,1,2.839-.664q3.8,0,3.8,3.261Zm-4.456.914A2.036,2.036,0,0,0,6.71-2.193a2.759,2.759,0,0,0,.606-1.938l-2.145.606a2.534,2.534,0,0,0-.9.369.758.758,0,0,0-.312.65.842.842,0,0,0,.334.716A1.382,1.382,0,0,0,5.146-1.538ZM15.948.167a4.827,4.827,0,0,1-3.489-1.3A4.493,4.493,0,0,1,11.1-4.526a4.483,4.483,0,0,1,1.349-3.393,4.842,4.842,0,0,1,3.494-1.292,4.814,4.814,0,0,1,2.927.87,3.885,3.885,0,0,1,1.512,2.452l-2.338.255a2,2,0,0,0-.756-1.187,2.3,2.3,0,0,0-1.371-.4,2.072,2.072,0,0,0-1.652.738,2.894,2.894,0,0,0-.633,1.951,2.9,2.9,0,0,0,.633,1.947,2.067,2.067,0,0,0,1.652.743,2.278,2.278,0,0,0,1.367-.4,2.05,2.05,0,0,0,.76-1.187l2.338.255A3.9,3.9,0,0,1,18.861-.712,4.8,4.8,0,0,1,15.948.167ZM23.48-10.389a1.421,1.421,0,0,1-1.037-.426,1.4,1.4,0,0,1-.431-1.033,1.382,1.382,0,0,1,.435-1.024A1.425,1.425,0,0,1,23.48-13.3a1.4,1.4,0,0,1,1.02.426,1.389,1.389,0,0,1,.431,1.024,1.4,1.4,0,0,1-.431,1.033A1.4,1.4,0,0,1,23.48-10.389ZM22.188,0V-9.035h2.549V0Zm8.6-10.266,2.3-3.234,1.248.879-2,2.355ZM31.566.176a5.681,5.681,0,0,1-2.558-.554A4.138,4.138,0,0,1,27.255-2a4.846,4.846,0,0,1-.637-2.522,4.42,4.42,0,0,1,1.371-3.428,5.086,5.086,0,0,1,3.577-1.257,5.1,5.1,0,0,1,3.586,1.257,4.42,4.42,0,0,1,1.371,3.428,4.444,4.444,0,0,1-1.371,3.441A5.088,5.088,0,0,1,31.566.176ZM31.54-1.837a2.319,2.319,0,0,0,1.789-.738,2.764,2.764,0,0,0,.681-1.951,2.764,2.764,0,0,0-.681-1.951,2.319,2.319,0,0,0-1.789-.738,2.234,2.234,0,0,0-1.736.743,2.789,2.789,0,0,0-.672,1.947A2.789,2.789,0,0,0,29.8-2.58,2.234,2.234,0,0,0,31.54-1.837Zm12.2-7.374a3.522,3.522,0,0,1,2.5.813,3.014,3.014,0,0,1,.87,2.316V0h-2.54V-5.537a1.574,1.574,0,0,0-.453-1.248,1.705,1.705,0,0,0-1.165-.4,2.379,2.379,0,0,0-.756.114,1.942,1.942,0,0,0-.633.356,1.573,1.573,0,0,0-.453.681,3.15,3.15,0,0,0-.171,1.046V0H38.4V-9.035h2.531v1A3.481,3.481,0,0,1,43.739-9.211ZM60.64-13.5h2.531V0h-2.4L60.71-1.178A2.58,2.58,0,0,1,59.563-.154a3.861,3.861,0,0,1-1.692.365,4.394,4.394,0,0,1-1.687-.325A4.189,4.189,0,0,1,54.8-1.033a4.187,4.187,0,0,1-.936-1.49A5.5,5.5,0,0,1,53.521-4.5a5.137,5.137,0,0,1,.6-2.518A4.1,4.1,0,0,1,55.7-8.657a4.345,4.345,0,0,1,2.175-.554,3.957,3.957,0,0,1,1.639.33,2.559,2.559,0,0,1,1.129.936ZM58.452-1.89a2.253,2.253,0,0,0,1.709-.721,2.638,2.638,0,0,0,.681-1.89,2.644,2.644,0,0,0-.686-1.894,2.251,2.251,0,0,0-1.705-.725,2.277,2.277,0,0,0-1.718.712A2.644,2.644,0,0,0,56.052-4.5a2.631,2.631,0,0,0,.681,1.9A2.277,2.277,0,0,0,58.452-1.89ZM74.29-4.649l-.026.606h-6.7a2.339,2.339,0,0,0,.721,1.652,2.3,2.3,0,0,0,1.591.571,2.221,2.221,0,0,0,1.191-.312,1.918,1.918,0,0,0,.76-.91l2.32.343A3.945,3.945,0,0,1,72.567-.58,4.7,4.7,0,0,1,69.9.176a4.891,4.891,0,0,1-3.52-1.244,4.538,4.538,0,0,1-1.305-3.45,4.565,4.565,0,0,1,1.31-3.45,4.746,4.746,0,0,1,3.437-1.261,4.536,4.536,0,0,1,3.243,1.151A4.517,4.517,0,0,1,74.29-4.649ZM69.833-7.436a2,2,0,0,0-2.2,1.74h4.148a1.9,1.9,0,0,0-.624-1.292A1.978,1.978,0,0,0,69.833-7.436ZM-53.341,30V16.5h2.558V30Zm9.387.176a5.681,5.681,0,0,1-2.558-.554A4.138,4.138,0,0,1-48.265,28a4.846,4.846,0,0,1-.637-2.522,4.42,4.42,0,0,1,1.371-3.428,5.086,5.086,0,0,1,3.577-1.257,5.1,5.1,0,0,1,3.586,1.257A4.42,4.42,0,0,1-39,25.474a4.444,4.444,0,0,1-1.371,3.441A5.088,5.088,0,0,1-43.954,30.176Zm-.026-2.013a2.319,2.319,0,0,0,1.789-.738,2.764,2.764,0,0,0,.681-1.951,2.764,2.764,0,0,0-.681-1.951,2.319,2.319,0,0,0-1.789-.738,2.234,2.234,0,0,0-1.736.743,2.789,2.789,0,0,0-.672,1.947,2.789,2.789,0,0,0,.672,1.947A2.234,2.234,0,0,0-43.98,28.163Zm10.046,2.013a5.049,5.049,0,0,1-2.637-.633,2.675,2.675,0,0,1-1.292-1.881l2.118-.6a1.7,1.7,0,0,0,1.811,1.345,1.87,1.87,0,0,0,.923-.207.719.719,0,0,0,.36-.7.739.739,0,0,0-.149-.466,1.183,1.183,0,0,0-.461-.334,5.749,5.749,0,0,0-.615-.237q-.3-.1-.8-.233t-.835-.259a5.593,5.593,0,0,1-.8-.338,3.393,3.393,0,0,1-.659-.466,1.878,1.878,0,0,1-.492-.708,2.552,2.552,0,0,1-.171-.967,2.308,2.308,0,0,1,.98-2.021,4.379,4.379,0,0,1,2.562-.686,4.489,4.489,0,0,1,2.364.58,2.625,2.625,0,0,1,1.213,1.811l-1.96.439a1.535,1.535,0,0,0-1.608-1.143,1.761,1.761,0,0,0-.888.2.649.649,0,0,0-.352.6.685.685,0,0,0,.053.272.539.539,0,0,0,.185.22,2.692,2.692,0,0,0,.255.167,1.923,1.923,0,0,0,.36.145q.237.075.4.114l.461.119.47.123q.483.132.848.264a4.967,4.967,0,0,1,.778.369,2.792,2.792,0,0,1,.681.532,2.372,2.372,0,0,1,.444.747,2.759,2.759,0,0,1,.176,1.006,2.718,2.718,0,0,1-.3,1.31,2.276,2.276,0,0,1-.831.883,4.043,4.043,0,0,1-1.173.475A6.087,6.087,0,0,1-33.935,30.176Zm14.423,0a5.681,5.681,0,0,1-2.558-.554A4.138,4.138,0,0,1-23.823,28a4.846,4.846,0,0,1-.637-2.522,4.42,4.42,0,0,1,1.371-3.428,5.086,5.086,0,0,1,3.577-1.257,5.1,5.1,0,0,1,3.586,1.257,4.42,4.42,0,0,1,1.371,3.428,4.444,4.444,0,0,1-1.371,3.441A5.088,5.088,0,0,1-19.512,30.176Zm-.026-2.013a2.319,2.319,0,0,0,1.789-.738,2.764,2.764,0,0,0,.681-1.951,2.764,2.764,0,0,0-.681-1.951,2.319,2.319,0,0,0-1.789-.738,2.234,2.234,0,0,0-1.736.743,2.789,2.789,0,0,0-.672,1.947,2.789,2.789,0,0,0,.672,1.947A2.234,2.234,0,0,0-19.538,28.163Zm12.173-7.374a4.372,4.372,0,0,1,1.679.325,4.189,4.189,0,0,1,1.384.918,4.187,4.187,0,0,1,.936,1.49A5.5,5.5,0,0,1-3.023,25.5a5.5,5.5,0,0,1-.343,1.978,4.187,4.187,0,0,1-.936,1.49,4.189,4.189,0,0,1-1.384.918,4.372,4.372,0,0,1-1.679.325,3.9,3.9,0,0,1-1.709-.365,2.527,2.527,0,0,1-1.138-1.024L-10.274,30h-2.4V16.5h2.531v5.563a2.522,2.522,0,0,1,1.129-.94A3.973,3.973,0,0,1-7.365,20.789Zm-.589,7.321A2.277,2.277,0,0,0-6.236,27.4a2.631,2.631,0,0,0,.681-1.9,2.644,2.644,0,0,0-.681-1.907,2.277,2.277,0,0,0-1.718-.712,2.251,2.251,0,0,0-1.705.725,2.644,2.644,0,0,0-.686,1.894,2.638,2.638,0,0,0,.681,1.89A2.253,2.253,0,0,0-7.954,28.11Zm8.139-8.5a1.421,1.421,0,0,1-1.037-.426,1.4,1.4,0,0,1-.431-1.033,1.382,1.382,0,0,1,.435-1.024A1.425,1.425,0,0,1,.185,16.7a1.4,1.4,0,0,1,1.02.426,1.389,1.389,0,0,1,.431,1.024A1.4,1.4,0,0,1,1.2,19.185,1.4,1.4,0,0,1,.185,19.611ZM-2.962,34.236V32.259a2.912,2.912,0,0,0,.949-.127,1.061,1.061,0,0,0,.563-.453,2,2,0,0,0,.268-.778,8.77,8.77,0,0,0,.066-1.208V20.965H1.45v8.728A4.908,4.908,0,0,1,.422,33.146,4.487,4.487,0,0,1-2.962,34.236Zm15.539-8.886-.026.606h-6.7a2.339,2.339,0,0,0,.721,1.652,2.3,2.3,0,0,0,1.591.571,2.221,2.221,0,0,0,1.191-.312,1.918,1.918,0,0,0,.76-.91l2.32.343a3.945,3.945,0,0,1-1.582,2.118,4.7,4.7,0,0,1-2.672.756,4.891,4.891,0,0,1-3.52-1.244,4.538,4.538,0,0,1-1.305-3.45,4.565,4.565,0,0,1,1.31-3.45A4.746,4.746,0,0,1,8.1,20.771a4.536,4.536,0,0,1,3.243,1.151A4.517,4.517,0,0,1,12.577,25.351ZM8.121,22.564a2,2,0,0,0-2.2,1.74h4.148a1.9,1.9,0,0,0-.624-1.292A1.978,1.978,0,0,0,8.121,22.564ZM17.868,30a2.729,2.729,0,0,1-2.039-.734,2.854,2.854,0,0,1-.721-2.087V22.907H13.333V20.965H13.9a1.491,1.491,0,0,0,1.125-.378,1.946,1.946,0,0,0,.36-1.345v-1.2h2.285v2.918h1.863v1.942H17.675v4q0,1.169,1.046,1.169h.817V30ZM22.79,19.611a1.421,1.421,0,0,1-1.037-.426,1.4,1.4,0,0,1-.431-1.033,1.382,1.382,0,0,1,.435-1.024A1.425,1.425,0,0,1,22.79,16.7a1.455,1.455,0,0,1,0,2.909ZM21.5,30V20.965h2.549V30Zm11.048-9.035h2.681L31.377,30h-2.2l-3.806-9.035h2.663l2.25,6.179ZM40.4,30.176a5.681,5.681,0,0,1-2.558-.554A4.138,4.138,0,0,1,36.092,28a4.846,4.846,0,0,1-.637-2.522,4.42,4.42,0,0,1,1.371-3.428A5.086,5.086,0,0,1,40.4,20.789a5.1,5.1,0,0,1,3.586,1.257,4.42,4.42,0,0,1,1.371,3.428,4.444,4.444,0,0,1-1.371,3.441A5.088,5.088,0,0,1,40.4,30.176Zm-.026-2.013a2.319,2.319,0,0,0,1.789-.738,2.764,2.764,0,0,0,.681-1.951,2.764,2.764,0,0,0-.681-1.951,2.319,2.319,0,0,0-1.789-.738,2.234,2.234,0,0,0-1.736.743,3.155,3.155,0,0,0,0,3.894A2.234,2.234,0,0,0,40.377,28.163Zm10.046,2.013a5.049,5.049,0,0,1-2.637-.633,2.675,2.675,0,0,1-1.292-1.881l2.118-.6a1.7,1.7,0,0,0,1.811,1.345,1.87,1.87,0,0,0,.923-.207.719.719,0,0,0,.36-.7.739.739,0,0,0-.149-.466A1.183,1.183,0,0,0,51.1,26.7a5.749,5.749,0,0,0-.615-.237q-.3-.1-.8-.233t-.835-.259a5.593,5.593,0,0,1-.8-.338,3.393,3.393,0,0,1-.659-.466,1.878,1.878,0,0,1-.492-.708,2.552,2.552,0,0,1-.171-.967,2.308,2.308,0,0,1,.98-2.021,4.379,4.379,0,0,1,2.562-.686,4.489,4.489,0,0,1,2.364.58,2.625,2.625,0,0,1,1.213,1.811l-1.96.439a1.535,1.535,0,0,0-1.608-1.143,1.761,1.761,0,0,0-.888.2.649.649,0,0,0-.352.6.685.685,0,0,0,.053.272.539.539,0,0,0,.185.22,2.692,2.692,0,0,0,.255.167,1.923,1.923,0,0,0,.36.145q.237.075.4.114l.461.119.47.123q.483.132.848.264a4.967,4.967,0,0,1,.778.369,2.792,2.792,0,0,1,.681.532,2.372,2.372,0,0,1,.444.747,2.759,2.759,0,0,1,.176,1.006,2.718,2.718,0,0,1-.3,1.31,2.276,2.276,0,0,1-.831.883,4.043,4.043,0,0,1-1.173.475A6.087,6.087,0,0,1,50.423,30.176Z" transform="translate(791 4818)" fill="#fff"/>
    <path id="Path_50368" data-name="Path 50368" d="M-79.159-12.7a3.822,3.822,0,0,1,2.927,1.182A4.112,4.112,0,0,1-75.125-8.6a4.011,4.011,0,0,1-1.1,2.9,3.891,3.891,0,0,1-2.936,1.138H-81.8V0h-2.637V-12.7ZM-79.6-6.759a1.938,1.938,0,0,0,1.45-.5,1.888,1.888,0,0,0,.483-1.375,1.873,1.873,0,0,0-.488-1.358,1.92,1.92,0,0,0-1.446-.505H-81.8v3.735Zm8.78-.844a2.933,2.933,0,0,1,1.187-1.085,3.62,3.62,0,0,1,1.767-.453v2.259a3.423,3.423,0,0,0-2.162.545A2.379,2.379,0,0,0-70.695-4.4V0h-2.549V-9.035h2.426Zm12.885,2.953-.026.606h-6.7a2.339,2.339,0,0,0,.721,1.652,2.3,2.3,0,0,0,1.591.571,2.221,2.221,0,0,0,1.191-.312,1.918,1.918,0,0,0,.76-.91l2.32.343A3.945,3.945,0,0,1-59.656-.58a4.7,4.7,0,0,1-2.672.756,4.891,4.891,0,0,1-3.52-1.244,4.538,4.538,0,0,1-1.305-3.45,4.565,4.565,0,0,1,1.31-3.45,4.746,4.746,0,0,1,3.437-1.261,4.536,4.536,0,0,1,3.243,1.151A4.517,4.517,0,0,1-57.933-4.649Zm-4.456-2.786a2,2,0,0,0-2.2,1.74h4.148a1.9,1.9,0,0,0-.624-1.292A1.978,1.978,0,0,0-62.389-7.436Zm6.354,3.814V-5.739h6.3v2.118Zm14.194-5.59a4.394,4.394,0,0,1,1.688.325,4.223,4.223,0,0,1,1.384.914,4.135,4.135,0,0,1,.936,1.49A5.531,5.531,0,0,1-37.49-4.5a5.531,5.531,0,0,1-.343,1.982,4.135,4.135,0,0,1-.936,1.49,4.223,4.223,0,0,1-1.384.914A4.394,4.394,0,0,1-41.84.211a3.921,3.921,0,0,1-1.635-.334,2.562,2.562,0,0,1-1.134-.949V4.395H-47.14V-9.035h2.4l.07,1.213a2.475,2.475,0,0,1,1.129-1.024A3.881,3.881,0,0,1-41.84-9.211Zm-.571,7.321A2.274,2.274,0,0,0-40.7-2.6a2.628,2.628,0,0,0,.681-1.9A2.628,2.628,0,0,0-40.7-6.4a2.274,2.274,0,0,0-1.709-.708,2.278,2.278,0,0,0-1.723.721A2.629,2.629,0,0,0-44.82-4.5a2.629,2.629,0,0,0,.686,1.89A2.278,2.278,0,0,0-42.412-1.89ZM-33.157-7.6A2.933,2.933,0,0,1-31.97-8.688,3.62,3.62,0,0,1-30.2-9.141v2.259a3.423,3.423,0,0,0-2.162.545A2.379,2.379,0,0,0-33.034-4.4V0h-2.549V-9.035h2.426Zm8.6,7.778a5.681,5.681,0,0,1-2.558-.554A4.138,4.138,0,0,1-28.872-2a4.846,4.846,0,0,1-.637-2.522,4.42,4.42,0,0,1,1.371-3.428,5.086,5.086,0,0,1,3.577-1.257,5.1,5.1,0,0,1,3.586,1.257A4.42,4.42,0,0,1-19.6-4.526a4.444,4.444,0,0,1-1.371,3.441A5.088,5.088,0,0,1-24.561.176Zm-.026-2.013A2.319,2.319,0,0,0-22.8-2.575a2.764,2.764,0,0,0,.681-1.951A2.764,2.764,0,0,0-22.8-6.478a2.319,2.319,0,0,0-1.789-.738,2.234,2.234,0,0,0-1.736.743A2.789,2.789,0,0,0-27-4.526a2.789,2.789,0,0,0,.672,1.947A2.234,2.234,0,0,0-24.587-1.837Zm10.951,2a4.827,4.827,0,0,1-3.489-1.3,4.493,4.493,0,0,1-1.354-3.393A4.483,4.483,0,0,1-17.13-7.919a4.842,4.842,0,0,1,3.494-1.292,4.814,4.814,0,0,1,2.927.87A3.885,3.885,0,0,1-9.2-5.889l-2.338.255a2,2,0,0,0-.756-1.187,2.3,2.3,0,0,0-1.371-.4,2.072,2.072,0,0,0-1.652.738,2.894,2.894,0,0,0-.633,1.951,2.9,2.9,0,0,0,.633,1.947,2.067,2.067,0,0,0,1.652.743,2.278,2.278,0,0,0,1.367-.4,2.05,2.05,0,0,0,.76-1.187l2.338.255A3.9,3.9,0,0,1-10.723-.712,4.8,4.8,0,0,1-13.636.167ZM1.1-4.649l-.026.606h-6.7A2.339,2.339,0,0,0-4.9-2.391a2.3,2.3,0,0,0,1.591.571,2.221,2.221,0,0,0,1.191-.312,1.918,1.918,0,0,0,.76-.91L.962-2.7A3.945,3.945,0,0,1-.62-.58,4.7,4.7,0,0,1-3.292.176a4.891,4.891,0,0,1-3.52-1.244,4.538,4.538,0,0,1-1.305-3.45,4.565,4.565,0,0,1,1.31-3.45A4.746,4.746,0,0,1-3.371-9.229,4.536,4.536,0,0,1-.127-8.077,4.517,4.517,0,0,1,1.1-4.649ZM-3.353-7.436A2,2,0,0,0-5.55-5.7H-1.4a1.9,1.9,0,0,0-.624-1.292A1.978,1.978,0,0,0-3.353-7.436ZM6.209.176A5.049,5.049,0,0,1,3.573-.457,2.675,2.675,0,0,1,2.281-2.338l2.118-.6A1.7,1.7,0,0,0,6.209-1.591,1.87,1.87,0,0,0,7.132-1.8a.719.719,0,0,0,.36-.7.739.739,0,0,0-.149-.466A1.183,1.183,0,0,0,6.882-3.3a5.749,5.749,0,0,0-.615-.237q-.3-.1-.8-.233t-.835-.259a5.593,5.593,0,0,1-.8-.338,3.393,3.393,0,0,1-.659-.466,1.878,1.878,0,0,1-.492-.708A2.552,2.552,0,0,1,2.509-6.5a2.308,2.308,0,0,1,.98-2.021,4.379,4.379,0,0,1,2.562-.686,4.489,4.489,0,0,1,2.364.58A2.625,2.625,0,0,1,9.628-6.82l-1.96.439A1.535,1.535,0,0,0,6.06-7.523a1.761,1.761,0,0,0-.888.2.649.649,0,0,0-.352.6.685.685,0,0,0,.053.272.539.539,0,0,0,.185.22,2.692,2.692,0,0,0,.255.167,1.923,1.923,0,0,0,.36.145q.237.075.4.114l.461.119L7-5.563q.483.132.848.264a4.967,4.967,0,0,1,.778.369,2.792,2.792,0,0,1,.681.532,2.372,2.372,0,0,1,.444.747,2.759,2.759,0,0,1,.176,1.006,2.718,2.718,0,0,1-.3,1.31,2.276,2.276,0,0,1-.831.883A4.043,4.043,0,0,1,7.62.022,6.087,6.087,0,0,1,6.209.176ZM19.156-2.452a8.453,8.453,0,0,0,.22,2.206V0H17.011l-.2-.984a2.938,2.938,0,0,1-1.266.87,4.664,4.664,0,0,1-1.635.29A4.3,4.3,0,0,1,13.065.1a2.868,2.868,0,0,1-.76-.268,2.307,2.307,0,0,1-.628-.47,2.062,2.062,0,0,1-.422-.716,2.853,2.853,0,0,1-.158-.98,2.718,2.718,0,0,1,.167-.98,2.3,2.3,0,0,1,.439-.734,2.666,2.666,0,0,1,.712-.536,5.447,5.447,0,0,1,.9-.387,10.712,10.712,0,0,1,1.072-.281l1.485-.334a1.638,1.638,0,0,0,.672-.286.57.57,0,0,0,.2-.453.932.932,0,0,0-.444-.87,2.072,2.072,0,0,0-1.077-.264,1.549,1.549,0,0,0-1.767,1.38l-2.241-.4a3.034,3.034,0,0,1,1.31-2.061,5.2,5.2,0,0,1,2.839-.664q3.8,0,3.8,3.261ZM14.7-1.538a2.036,2.036,0,0,0,1.564-.655,2.759,2.759,0,0,0,.606-1.938l-2.145.606a2.534,2.534,0,0,0-.9.369.758.758,0,0,0-.312.65.842.842,0,0,0,.334.716A1.382,1.382,0,0,0,14.7-1.538ZM32.322-9.211a3.452,3.452,0,0,1,2.329.734,2.626,2.626,0,0,1,.853,2.1V0H32.972V-5.651a1.509,1.509,0,0,0-.4-1.143,1.416,1.416,0,0,0-1.02-.387,1.633,1.633,0,0,0-1.23.492A2.235,2.235,0,0,0,29.843-5.1V0H27.286V-5.625a1.549,1.549,0,0,0-.4-1.165,1.441,1.441,0,0,0-1.046-.391,1.581,1.581,0,0,0-1.222.519,2.476,2.476,0,0,0-.475,1.7V0H21.617V-9.035h2.522v1.063a3.072,3.072,0,0,1,2.619-1.239,3.863,3.863,0,0,1,1.7.347,2.315,2.315,0,0,1,1.068,1.006A3.2,3.2,0,0,1,32.322-9.211Zm6.935-1.178a1.421,1.421,0,0,1-1.037-.426,1.4,1.4,0,0,1-.431-1.033,1.382,1.382,0,0,1,.435-1.024,1.425,1.425,0,0,1,1.033-.426,1.4,1.4,0,0,1,1.02.426,1.389,1.389,0,0,1,.431,1.024,1.4,1.4,0,0,1-.431,1.033A1.4,1.4,0,0,1,39.256-10.389ZM37.964,0V-9.035h2.549V0ZM51.631-4.649l-.026.606h-6.7a2.339,2.339,0,0,0,.721,1.652,2.3,2.3,0,0,0,1.591.571,2.221,2.221,0,0,0,1.191-.312,1.918,1.918,0,0,0,.76-.91l2.32.343A3.945,3.945,0,0,1,49.909-.58a4.7,4.7,0,0,1-2.672.756,4.891,4.891,0,0,1-3.52-1.244,4.538,4.538,0,0,1-1.305-3.45,4.565,4.565,0,0,1,1.31-3.45,4.746,4.746,0,0,1,3.437-1.261A4.536,4.536,0,0,1,50.4-8.077,4.517,4.517,0,0,1,51.631-4.649ZM47.175-7.436a2,2,0,0,0-2.2,1.74h4.148A1.9,1.9,0,0,0,48.5-6.987,1.978,1.978,0,0,0,47.175-7.436ZM58.891-9.211a3.522,3.522,0,0,1,2.5.813,3.014,3.014,0,0,1,.87,2.316V0h-2.54V-5.537a1.574,1.574,0,0,0-.453-1.248,1.705,1.705,0,0,0-1.165-.4,2.379,2.379,0,0,0-.756.114,1.942,1.942,0,0,0-.633.356,1.573,1.573,0,0,0-.453.681,3.15,3.15,0,0,0-.171,1.046V0H53.556V-9.035h2.531v1A3.481,3.481,0,0,1,58.891-9.211ZM68.076,0a2.729,2.729,0,0,1-2.039-.734,2.854,2.854,0,0,1-.721-2.087V-7.093H63.541V-9.035h.571a1.491,1.491,0,0,0,1.125-.378,1.946,1.946,0,0,0,.36-1.345v-1.2h2.285v2.918h1.863v1.942H67.882v4q0,1.169,1.046,1.169h.817V0Zm7.8.176a5.681,5.681,0,0,1-2.558-.554A4.138,4.138,0,0,1,71.569-2a4.846,4.846,0,0,1-.637-2.522A4.42,4.42,0,0,1,72.3-7.954,5.086,5.086,0,0,1,75.88-9.211a5.1,5.1,0,0,1,3.586,1.257,4.42,4.42,0,0,1,1.371,3.428,4.444,4.444,0,0,1-1.371,3.441A5.088,5.088,0,0,1,75.88.176Zm-.026-2.013a2.319,2.319,0,0,0,1.789-.738,2.764,2.764,0,0,0,.681-1.951,2.764,2.764,0,0,0-.681-1.951,2.319,2.319,0,0,0-1.789-.738,2.234,2.234,0,0,0-1.736.743,2.789,2.789,0,0,0-.672,1.947,2.789,2.789,0,0,0,.672,1.947A2.234,2.234,0,0,0,75.854-1.837ZM-29.628,16.5H-27.1V30h-2.4l-.062-1.178A2.58,2.58,0,0,1-30.7,29.846a3.861,3.861,0,0,1-1.692.365,4.394,4.394,0,0,1-1.687-.325,4.189,4.189,0,0,1-1.384-.918,4.187,4.187,0,0,1-.936-1.49,5.5,5.5,0,0,1-.343-1.978,5.137,5.137,0,0,1,.6-2.518,4.1,4.1,0,0,1,1.578-1.639,4.345,4.345,0,0,1,2.175-.554,3.957,3.957,0,0,1,1.639.33,2.559,2.559,0,0,1,1.129.936Zm-2.188,11.61a2.253,2.253,0,0,0,1.709-.721,2.638,2.638,0,0,0,.681-1.89,2.644,2.644,0,0,0-.686-1.894,2.251,2.251,0,0,0-1.705-.725,2.277,2.277,0,0,0-1.718.712,2.644,2.644,0,0,0-.681,1.907,2.631,2.631,0,0,0,.681,1.9A2.277,2.277,0,0,0-31.816,28.11Zm15.838-2.76-.026.606h-6.7a2.339,2.339,0,0,0,.721,1.652,2.3,2.3,0,0,0,1.591.571,2.221,2.221,0,0,0,1.191-.312,1.918,1.918,0,0,0,.76-.91l2.32.343A3.945,3.945,0,0,1-17.7,29.42a4.7,4.7,0,0,1-2.672.756,4.891,4.891,0,0,1-3.52-1.244,4.538,4.538,0,0,1-1.305-3.45,4.565,4.565,0,0,1,1.31-3.45,4.746,4.746,0,0,1,3.437-1.261,4.536,4.536,0,0,1,3.243,1.151A4.517,4.517,0,0,1-15.979,25.351Zm-4.456-2.786a2,2,0,0,0-2.2,1.74h4.148a1.9,1.9,0,0,0-.624-1.292A1.978,1.978,0,0,0-20.435,22.564ZM-2.971,16.5H-.439V30h-2.4L-2.9,28.822a2.58,2.58,0,0,1-1.147,1.024,3.861,3.861,0,0,1-1.692.365,4.394,4.394,0,0,1-1.687-.325,4.189,4.189,0,0,1-1.384-.918,4.187,4.187,0,0,1-.936-1.49A5.5,5.5,0,0,1-10.09,25.5a5.137,5.137,0,0,1,.6-2.518,4.1,4.1,0,0,1,1.578-1.639,4.345,4.345,0,0,1,2.175-.554,3.957,3.957,0,0,1,1.639.33,2.559,2.559,0,0,1,1.129.936ZM-5.159,28.11A2.253,2.253,0,0,0-3.45,27.39a2.638,2.638,0,0,0,.681-1.89,2.644,2.644,0,0,0-.686-1.894,2.251,2.251,0,0,0-1.705-.725,2.277,2.277,0,0,0-1.718.712A2.644,2.644,0,0,0-7.559,25.5a2.631,2.631,0,0,0,.681,1.9A2.277,2.277,0,0,0-5.159,28.11Zm14.748-.562a8.453,8.453,0,0,0,.22,2.206V30H7.444l-.2-.984a2.938,2.938,0,0,1-1.266.87,4.664,4.664,0,0,1-1.635.29A4.3,4.3,0,0,1,3.5,30.1a2.868,2.868,0,0,1-.76-.268,2.307,2.307,0,0,1-.628-.47,2.062,2.062,0,0,1-.422-.716,2.853,2.853,0,0,1-.158-.98,2.718,2.718,0,0,1,.167-.98,2.3,2.3,0,0,1,.439-.734,2.666,2.666,0,0,1,.712-.536,5.447,5.447,0,0,1,.9-.387,10.712,10.712,0,0,1,1.072-.281L6.3,24.41a1.638,1.638,0,0,0,.672-.286.57.57,0,0,0,.2-.453.932.932,0,0,0-.444-.87,2.072,2.072,0,0,0-1.077-.264,1.549,1.549,0,0,0-1.767,1.38l-2.241-.4a3.034,3.034,0,0,1,1.31-2.061,5.2,5.2,0,0,1,2.839-.664q3.8,0,3.8,3.261Zm-4.456.914A2.036,2.036,0,0,0,6.7,27.807,2.759,2.759,0,0,0,7.3,25.869l-2.145.606a2.534,2.534,0,0,0-.9.369.758.758,0,0,0-.312.65.842.842,0,0,0,.334.716A1.382,1.382,0,0,0,5.133,28.462ZM15.293,30a2.729,2.729,0,0,1-2.039-.734,2.854,2.854,0,0,1-.721-2.087V22.907H10.758V20.965h.571a1.491,1.491,0,0,0,1.125-.378,1.946,1.946,0,0,0,.36-1.345v-1.2H15.1v2.918h1.863v1.942H15.1v4q0,1.169,1.046,1.169h.817V30Zm7.8.176a5.681,5.681,0,0,1-2.558-.554A4.138,4.138,0,0,1,18.787,28a4.846,4.846,0,0,1-.637-2.522,4.42,4.42,0,0,1,1.371-3.428A5.086,5.086,0,0,1,23.1,20.789a5.1,5.1,0,0,1,3.586,1.257,4.42,4.42,0,0,1,1.371,3.428,4.444,4.444,0,0,1-1.371,3.441A5.088,5.088,0,0,1,23.1,30.176Zm-.026-2.013a2.319,2.319,0,0,0,1.789-.738,2.764,2.764,0,0,0,.681-1.951,2.764,2.764,0,0,0-.681-1.951,2.319,2.319,0,0,0-1.789-.738,2.234,2.234,0,0,0-1.736.743,3.155,3.155,0,0,0,0,3.894A2.234,2.234,0,0,0,23.071,28.163Zm10.046,2.013a5.049,5.049,0,0,1-2.637-.633,2.675,2.675,0,0,1-1.292-1.881l2.118-.6a1.7,1.7,0,0,0,1.811,1.345,1.87,1.87,0,0,0,.923-.207.719.719,0,0,0,.36-.7.739.739,0,0,0-.149-.466,1.183,1.183,0,0,0-.461-.334,5.749,5.749,0,0,0-.615-.237q-.3-.1-.8-.233t-.835-.259a5.593,5.593,0,0,1-.8-.338,3.393,3.393,0,0,1-.659-.466,1.878,1.878,0,0,1-.492-.708,2.552,2.552,0,0,1-.171-.967,2.308,2.308,0,0,1,.98-2.021,4.379,4.379,0,0,1,2.562-.686,4.489,4.489,0,0,1,2.364.58,2.625,2.625,0,0,1,1.213,1.811l-1.96.439a1.535,1.535,0,0,0-1.608-1.143,1.761,1.761,0,0,0-.888.2.649.649,0,0,0-.352.6.685.685,0,0,0,.053.272.539.539,0,0,0,.185.22,2.692,2.692,0,0,0,.255.167,1.923,1.923,0,0,0,.36.145q.237.075.4.114l.461.119.47.123q.483.132.848.264a4.967,4.967,0,0,1,.778.369,2.792,2.792,0,0,1,.681.532,2.372,2.372,0,0,1,.444.747,2.759,2.759,0,0,1,.176,1.006,2.718,2.718,0,0,1-.3,1.31,2.276,2.276,0,0,1-.831.883,4.043,4.043,0,0,1-1.173.475A6.087,6.087,0,0,1,33.117,30.176Z" transform="translate(1133 4819)" fill="#fff"/>
    <path id="Path_50369" data-name="Path 50369" d="M-64.608,0V-12.7h4.6a7.166,7.166,0,0,1,2.65.457,4.881,4.881,0,0,1,1.9,1.3,5.64,5.64,0,0,1,1.125,2,8.255,8.255,0,0,1,.382,2.593,8.286,8.286,0,0,1-.382,2.6,5.64,5.64,0,0,1-1.125,2,4.881,4.881,0,0,1-1.9,1.3A7.166,7.166,0,0,1-60.012,0Zm2.637-2.329h1.828a3.12,3.12,0,0,0,2.566-1.033,4.629,4.629,0,0,0,.844-2.993,4.629,4.629,0,0,0-.844-2.993,3.12,3.12,0,0,0-2.566-1.033h-1.828Zm18.65-2.32-.026.606h-6.7a2.339,2.339,0,0,0,.721,1.652,2.3,2.3,0,0,0,1.591.571,2.221,2.221,0,0,0,1.191-.312,1.918,1.918,0,0,0,.76-.91l2.32.343A3.945,3.945,0,0,1-45.044-.58a4.7,4.7,0,0,1-2.672.756,4.891,4.891,0,0,1-3.52-1.244,4.538,4.538,0,0,1-1.305-3.45,4.565,4.565,0,0,1,1.31-3.45,4.746,4.746,0,0,1,3.437-1.261,4.536,4.536,0,0,1,3.243,1.151A4.517,4.517,0,0,1-43.321-4.649Zm-4.456-2.786a2,2,0,0,0-2.2,1.74h4.148a1.9,1.9,0,0,0-.624-1.292A1.978,1.978,0,0,0-47.777-7.436ZM-38.03,0a2.729,2.729,0,0,1-2.039-.734,2.854,2.854,0,0,1-.721-2.087V-7.093h-1.775V-9.035h.571a1.491,1.491,0,0,0,1.125-.378,1.946,1.946,0,0,0,.36-1.345v-1.2h2.285v2.918h1.863v1.942h-1.863v4q0,1.169,1.046,1.169h.817V0Zm12.094-4.649-.026.606h-6.7a2.339,2.339,0,0,0,.721,1.652,2.3,2.3,0,0,0,1.591.571,2.221,2.221,0,0,0,1.191-.312,1.918,1.918,0,0,0,.76-.91l2.32.343A3.945,3.945,0,0,1-27.659-.58a4.7,4.7,0,0,1-2.672.756,4.891,4.891,0,0,1-3.52-1.244,4.538,4.538,0,0,1-1.305-3.45,4.565,4.565,0,0,1,1.31-3.45A4.746,4.746,0,0,1-30.41-9.229a4.536,4.536,0,0,1,3.243,1.151A4.517,4.517,0,0,1-25.937-4.649Zm-4.456-2.786a2,2,0,0,0-2.2,1.74h4.148a1.9,1.9,0,0,0-.624-1.292A1.978,1.978,0,0,0-30.393-7.436Zm8.807-.167A2.933,2.933,0,0,1-20.4-8.688a3.62,3.62,0,0,1,1.767-.453v2.259a3.423,3.423,0,0,0-2.162.545A2.379,2.379,0,0,0-21.463-4.4V0h-2.549V-9.035h2.426ZM-6.442-9.211a3.452,3.452,0,0,1,2.329.734,2.626,2.626,0,0,1,.853,2.1V0H-5.792V-5.651a1.509,1.509,0,0,0-.4-1.143,1.416,1.416,0,0,0-1.02-.387,1.633,1.633,0,0,0-1.23.492A2.235,2.235,0,0,0-8.921-5.1V0h-2.558V-5.625a1.549,1.549,0,0,0-.4-1.165,1.441,1.441,0,0,0-1.046-.391,1.581,1.581,0,0,0-1.222.519,2.476,2.476,0,0,0-.475,1.7V0h-2.522V-9.035h2.522v1.063a3.072,3.072,0,0,1,2.619-1.239,3.863,3.863,0,0,1,1.7.347A2.315,2.315,0,0,1-9.237-7.857,3.2,3.2,0,0,1-6.442-9.211ZM.492-10.389a1.421,1.421,0,0,1-1.037-.426,1.4,1.4,0,0,1-.431-1.033,1.382,1.382,0,0,1,.435-1.024A1.425,1.425,0,0,1,.492-13.3a1.4,1.4,0,0,1,1.02.426,1.389,1.389,0,0,1,.431,1.024,1.4,1.4,0,0,1-.431,1.033A1.4,1.4,0,0,1,.492-10.389ZM-.8,0V-9.035H1.749V0ZM9.7-9.211a3.522,3.522,0,0,1,2.5.813,3.014,3.014,0,0,1,.87,2.316V0h-2.54V-5.537a1.574,1.574,0,0,0-.453-1.248,1.705,1.705,0,0,0-1.165-.4,2.379,2.379,0,0,0-.756.114,1.942,1.942,0,0,0-.633.356,1.573,1.573,0,0,0-.453.681A3.15,3.15,0,0,0,6.9-4.983V0H4.368V-9.035H6.9v1A3.481,3.481,0,0,1,9.7-9.211ZM22.931-2.452a8.453,8.453,0,0,0,.22,2.206V0H20.786l-.2-.984a2.938,2.938,0,0,1-1.266.87,4.664,4.664,0,0,1-1.635.29A4.3,4.3,0,0,1,16.84.1a2.868,2.868,0,0,1-.76-.268,2.307,2.307,0,0,1-.628-.47,2.062,2.062,0,0,1-.422-.716,2.853,2.853,0,0,1-.158-.98,2.718,2.718,0,0,1,.167-.98,2.3,2.3,0,0,1,.439-.734,2.666,2.666,0,0,1,.712-.536,5.447,5.447,0,0,1,.9-.387,10.712,10.712,0,0,1,1.072-.281l1.485-.334a1.638,1.638,0,0,0,.672-.286.57.57,0,0,0,.2-.453.932.932,0,0,0-.444-.87,2.072,2.072,0,0,0-1.077-.264,1.549,1.549,0,0,0-1.767,1.38l-2.241-.4a3.034,3.034,0,0,1,1.31-2.061,5.2,5.2,0,0,1,2.839-.664q3.8,0,3.8,3.261Zm-4.456.914a2.036,2.036,0,0,0,1.564-.655,2.759,2.759,0,0,0,.606-1.938L18.5-3.524a2.534,2.534,0,0,0-.9.369.758.758,0,0,0-.312.65.842.842,0,0,0,.334.716A1.382,1.382,0,0,0,18.475-1.538ZM29.276.167a4.827,4.827,0,0,1-3.489-1.3,4.493,4.493,0,0,1-1.354-3.393,4.483,4.483,0,0,1,1.349-3.393,4.842,4.842,0,0,1,3.494-1.292,4.814,4.814,0,0,1,2.927.87,3.885,3.885,0,0,1,1.512,2.452l-2.338.255a2,2,0,0,0-.756-1.187,2.3,2.3,0,0,0-1.371-.4,2.072,2.072,0,0,0-1.652.738,2.894,2.894,0,0,0-.633,1.951A2.9,2.9,0,0,0,27.6-2.58a2.067,2.067,0,0,0,1.652.743,2.278,2.278,0,0,0,1.367-.4,2.05,2.05,0,0,0,.76-1.187l2.338.255A3.9,3.9,0,0,1,32.19-.712,4.8,4.8,0,0,1,29.276.167Zm7.532-10.556a1.421,1.421,0,0,1-1.037-.426,1.4,1.4,0,0,1-.431-1.033,1.382,1.382,0,0,1,.435-1.024,1.425,1.425,0,0,1,1.033-.426,1.4,1.4,0,0,1,1.02.426,1.389,1.389,0,0,1,.431,1.024,1.4,1.4,0,0,1-.431,1.033A1.4,1.4,0,0,1,36.809-10.389ZM35.517,0V-9.035h2.549V0Zm8.6-10.266,2.3-3.234,1.248.879-2,2.355ZM44.895.176a5.681,5.681,0,0,1-2.558-.554A4.138,4.138,0,0,1,40.583-2a4.846,4.846,0,0,1-.637-2.522,4.42,4.42,0,0,1,1.371-3.428,5.086,5.086,0,0,1,3.577-1.257A5.1,5.1,0,0,1,48.48-7.954a4.42,4.42,0,0,1,1.371,3.428A4.444,4.444,0,0,1,48.48-1.085,5.088,5.088,0,0,1,44.895.176Zm-.026-2.013a2.319,2.319,0,0,0,1.789-.738,2.764,2.764,0,0,0,.681-1.951,2.764,2.764,0,0,0-.681-1.951,2.319,2.319,0,0,0-1.789-.738,2.234,2.234,0,0,0-1.736.743,2.789,2.789,0,0,0-.672,1.947,2.789,2.789,0,0,0,.672,1.947A2.234,2.234,0,0,0,44.868-1.837Zm12.2-7.374a3.522,3.522,0,0,1,2.5.813,3.014,3.014,0,0,1,.87,2.316V0h-2.54V-5.537a1.574,1.574,0,0,0-.453-1.248,1.705,1.705,0,0,0-1.165-.4,2.379,2.379,0,0,0-.756.114,1.942,1.942,0,0,0-.633.356,1.573,1.573,0,0,0-.453.681,3.15,3.15,0,0,0-.171,1.046V0H51.732V-9.035h2.531v1A3.481,3.481,0,0,1,57.067-9.211ZM-41,16.5h2.531V30h-2.4l-.062-1.178a2.58,2.58,0,0,1-1.147,1.024,3.861,3.861,0,0,1-1.692.365,4.394,4.394,0,0,1-1.687-.325,4.189,4.189,0,0,1-1.384-.918,4.187,4.187,0,0,1-.936-1.49A5.5,5.5,0,0,1-48.12,25.5a5.137,5.137,0,0,1,.6-2.518,4.1,4.1,0,0,1,1.578-1.639,4.345,4.345,0,0,1,2.175-.554,3.957,3.957,0,0,1,1.639.33A2.559,2.559,0,0,1-41,22.055Zm-2.188,11.61a2.253,2.253,0,0,0,1.709-.721A2.638,2.638,0,0,0-40.8,25.5a2.644,2.644,0,0,0-.686-1.894,2.251,2.251,0,0,0-1.705-.725,2.277,2.277,0,0,0-1.718.712,2.644,2.644,0,0,0-.681,1.907,2.631,2.631,0,0,0,.681,1.9A2.277,2.277,0,0,0-43.189,28.11Zm15.838-2.76-.026.606h-6.7a2.339,2.339,0,0,0,.721,1.652,2.3,2.3,0,0,0,1.591.571,2.221,2.221,0,0,0,1.191-.312,1.918,1.918,0,0,0,.76-.91l2.32.343a3.945,3.945,0,0,1-1.582,2.118,4.7,4.7,0,0,1-2.672.756,4.891,4.891,0,0,1-3.52-1.244,4.538,4.538,0,0,1-1.305-3.45,4.565,4.565,0,0,1,1.31-3.45,4.746,4.746,0,0,1,3.437-1.261,4.536,4.536,0,0,1,3.243,1.151A4.517,4.517,0,0,1-27.352,25.351Zm-4.456-2.786A2,2,0,0,0-34,24.3h4.148a1.9,1.9,0,0,0-.624-1.292A1.978,1.978,0,0,0-31.808,22.564ZM-25.427,30V16.5h2.558V30Zm20.558-9.211a3.452,3.452,0,0,1,2.329.734,2.626,2.626,0,0,1,.853,2.1V30H-4.219V24.349a1.509,1.509,0,0,0-.4-1.143,1.416,1.416,0,0,0-1.02-.387,1.633,1.633,0,0,0-1.23.492A2.235,2.235,0,0,0-7.348,24.9V30H-9.905V24.375a1.549,1.549,0,0,0-.4-1.165,1.441,1.441,0,0,0-1.046-.391,1.581,1.581,0,0,0-1.222.519,2.476,2.476,0,0,0-.475,1.7V30h-2.522V20.965h2.522v1.063a3.072,3.072,0,0,1,2.619-1.239,3.863,3.863,0,0,1,1.7.347,2.315,2.315,0,0,1,1.068,1.006A3.2,3.2,0,0,1-4.869,20.789Zm9.853,9.387a5.681,5.681,0,0,1-2.558-.554A4.138,4.138,0,0,1,.672,28a4.846,4.846,0,0,1-.637-2.522,4.42,4.42,0,0,1,1.371-3.428,5.086,5.086,0,0,1,3.577-1.257,5.1,5.1,0,0,1,3.586,1.257A4.42,4.42,0,0,1,9.94,25.474a4.444,4.444,0,0,1-1.371,3.441A5.088,5.088,0,0,1,4.983,30.176Zm-.026-2.013a2.319,2.319,0,0,0,1.789-.738,2.764,2.764,0,0,0,.681-1.951,2.764,2.764,0,0,0-.681-1.951,2.319,2.319,0,0,0-1.789-.738,2.234,2.234,0,0,0-1.736.743,3.155,3.155,0,0,0,0,3.894A2.234,2.234,0,0,0,4.957,28.163ZM18.229,16.5H20.76V30h-2.4L18.3,28.822a2.58,2.58,0,0,1-1.147,1.024,3.861,3.861,0,0,1-1.692.365,4.394,4.394,0,0,1-1.687-.325,4.064,4.064,0,0,1-2.32-2.408,5.5,5.5,0,0,1-.343-1.978,5.137,5.137,0,0,1,.6-2.518,4.1,4.1,0,0,1,1.578-1.639,4.345,4.345,0,0,1,2.175-.554,3.957,3.957,0,0,1,1.639.33,2.559,2.559,0,0,1,1.129.936ZM16.04,28.11a2.253,2.253,0,0,0,1.709-.721,2.96,2.96,0,0,0,0-3.784,2.251,2.251,0,0,0-1.705-.725,2.277,2.277,0,0,0-1.718.712,2.644,2.644,0,0,0-.681,1.907,2.631,2.631,0,0,0,.681,1.9A2.277,2.277,0,0,0,16.04,28.11Zm15.838-2.76-.026.606h-6.7a2.339,2.339,0,0,0,.721,1.652,2.3,2.3,0,0,0,1.591.571,2.221,2.221,0,0,0,1.191-.312,1.918,1.918,0,0,0,.76-.91l2.32.343a3.945,3.945,0,0,1-1.582,2.118,4.7,4.7,0,0,1-2.672.756,4.891,4.891,0,0,1-3.52-1.244,4.538,4.538,0,0,1-1.305-3.45,4.565,4.565,0,0,1,1.31-3.45A4.746,4.746,0,0,1,27.4,20.771a4.536,4.536,0,0,1,3.243,1.151A4.517,4.517,0,0,1,31.878,25.351Zm-4.456-2.786a2,2,0,0,0-2.2,1.74h4.148a1.9,1.9,0,0,0-.624-1.292A1.978,1.978,0,0,0,27.422,22.564ZM33.8,30V16.5H36.36V30Zm9.387.176a5.681,5.681,0,0,1-2.558-.554A4.138,4.138,0,0,1,38.878,28a4.846,4.846,0,0,1-.637-2.522,4.42,4.42,0,0,1,1.371-3.428,5.086,5.086,0,0,1,3.577-1.257,5.1,5.1,0,0,1,3.586,1.257,4.42,4.42,0,0,1,1.371,3.428,4.444,4.444,0,0,1-1.371,3.441A5.088,5.088,0,0,1,43.189,30.176Zm-.026-2.013a2.319,2.319,0,0,0,1.789-.738,2.764,2.764,0,0,0,.681-1.951,2.764,2.764,0,0,0-.681-1.951,2.319,2.319,0,0,0-1.789-.738,2.234,2.234,0,0,0-1.736.743,3.155,3.155,0,0,0,0,3.894A2.234,2.234,0,0,0,43.163,28.163Z" transform="translate(790 5073)" fill="#fff"/>
  </g>
</svg>
